G04 #@! TF.GenerationSoftware,KiCad,Pcbnew,5.1.6-c6e7f7d~86~ubuntu18.04.1*
G04 #@! TF.CreationDate,2020-06-11T15:17:01+02:00*
G04 #@! TF.ProjectId,sci2can,73636932-6361-46e2-9e6b-696361645f70,1.02*
G04 #@! TF.SameCoordinates,Original*
G04 #@! TF.FileFunction,Soldermask,Bot*
G04 #@! TF.FilePolarity,Negative*
%FSLAX46Y46*%
G04 Gerber Fmt 4.6, Leading zero omitted, Abs format (unit mm)*
G04 Created by KiCad (PCBNEW 5.1.6-c6e7f7d~86~ubuntu18.04.1) date 2020-06-11 15:17:01*
%MOMM*%
%LPD*%
G01*
G04 APERTURE LIST*
%ADD10C,0.100000*%
G04 APERTURE END LIST*
D10*
G36*
X223944072Y-101650918D02*
G01*
X224189939Y-101752759D01*
X224411212Y-101900610D01*
X224599390Y-102088788D01*
X224747241Y-102310061D01*
X224849082Y-102555928D01*
X224901000Y-102816938D01*
X224901000Y-103083062D01*
X224849082Y-103344072D01*
X224747241Y-103589939D01*
X224599390Y-103811212D01*
X224411212Y-103999390D01*
X224189939Y-104147241D01*
X224189938Y-104147242D01*
X224189937Y-104147242D01*
X223944072Y-104249082D01*
X223683063Y-104301000D01*
X223416937Y-104301000D01*
X223155928Y-104249082D01*
X222910063Y-104147242D01*
X222910062Y-104147242D01*
X222910061Y-104147241D01*
X222688788Y-103999390D01*
X222500610Y-103811212D01*
X222352759Y-103589939D01*
X222250918Y-103344072D01*
X222199000Y-103083062D01*
X222199000Y-102816938D01*
X222250918Y-102555928D01*
X222352759Y-102310061D01*
X222500610Y-102088788D01*
X222688788Y-101900610D01*
X222910061Y-101752759D01*
X223155928Y-101650918D01*
X223416937Y-101599000D01*
X223683063Y-101599000D01*
X223944072Y-101650918D01*
G37*
G36*
X213944072Y-101650918D02*
G01*
X214189939Y-101752759D01*
X214411212Y-101900610D01*
X214599390Y-102088788D01*
X214747241Y-102310061D01*
X214849082Y-102555928D01*
X214901000Y-102816938D01*
X214901000Y-103083062D01*
X214849082Y-103344072D01*
X214747241Y-103589939D01*
X214599390Y-103811212D01*
X214411212Y-103999390D01*
X214189939Y-104147241D01*
X214189938Y-104147242D01*
X214189937Y-104147242D01*
X213944072Y-104249082D01*
X213683063Y-104301000D01*
X213416937Y-104301000D01*
X213155928Y-104249082D01*
X212910063Y-104147242D01*
X212910062Y-104147242D01*
X212910061Y-104147241D01*
X212688788Y-103999390D01*
X212500610Y-103811212D01*
X212352759Y-103589939D01*
X212250918Y-103344072D01*
X212199000Y-103083062D01*
X212199000Y-102816938D01*
X212250918Y-102555928D01*
X212352759Y-102310061D01*
X212500610Y-102088788D01*
X212688788Y-101900610D01*
X212910061Y-101752759D01*
X213155928Y-101650918D01*
X213416937Y-101599000D01*
X213683063Y-101599000D01*
X213944072Y-101650918D01*
G37*
G36*
X208944072Y-101650918D02*
G01*
X209189939Y-101752759D01*
X209411212Y-101900610D01*
X209599390Y-102088788D01*
X209747241Y-102310061D01*
X209849082Y-102555928D01*
X209901000Y-102816938D01*
X209901000Y-103083062D01*
X209849082Y-103344072D01*
X209747241Y-103589939D01*
X209599390Y-103811212D01*
X209411212Y-103999390D01*
X209189939Y-104147241D01*
X209189938Y-104147242D01*
X209189937Y-104147242D01*
X208944072Y-104249082D01*
X208683063Y-104301000D01*
X208416937Y-104301000D01*
X208155928Y-104249082D01*
X207910063Y-104147242D01*
X207910062Y-104147242D01*
X207910061Y-104147241D01*
X207688788Y-103999390D01*
X207500610Y-103811212D01*
X207352759Y-103589939D01*
X207250918Y-103344072D01*
X207199000Y-103083062D01*
X207199000Y-102816938D01*
X207250918Y-102555928D01*
X207352759Y-102310061D01*
X207500610Y-102088788D01*
X207688788Y-101900610D01*
X207910061Y-101752759D01*
X208155928Y-101650918D01*
X208416937Y-101599000D01*
X208683063Y-101599000D01*
X208944072Y-101650918D01*
G37*
G36*
X203944072Y-101650918D02*
G01*
X204189939Y-101752759D01*
X204411212Y-101900610D01*
X204599390Y-102088788D01*
X204747241Y-102310061D01*
X204849082Y-102555928D01*
X204901000Y-102816938D01*
X204901000Y-103083062D01*
X204849082Y-103344072D01*
X204747241Y-103589939D01*
X204599390Y-103811212D01*
X204411212Y-103999390D01*
X204189939Y-104147241D01*
X204189938Y-104147242D01*
X204189937Y-104147242D01*
X203944072Y-104249082D01*
X203683063Y-104301000D01*
X203416937Y-104301000D01*
X203155928Y-104249082D01*
X202910063Y-104147242D01*
X202910062Y-104147242D01*
X202910061Y-104147241D01*
X202688788Y-103999390D01*
X202500610Y-103811212D01*
X202352759Y-103589939D01*
X202250918Y-103344072D01*
X202199000Y-103083062D01*
X202199000Y-102816938D01*
X202250918Y-102555928D01*
X202352759Y-102310061D01*
X202500610Y-102088788D01*
X202688788Y-101900610D01*
X202910061Y-101752759D01*
X203155928Y-101650918D01*
X203416937Y-101599000D01*
X203683063Y-101599000D01*
X203944072Y-101650918D01*
G37*
G36*
X199901000Y-104301000D02*
G01*
X197199000Y-104301000D01*
X197199000Y-101599000D01*
X199901000Y-101599000D01*
X199901000Y-104301000D01*
G37*
G36*
X218944072Y-101650918D02*
G01*
X219189939Y-101752759D01*
X219411212Y-101900610D01*
X219599390Y-102088788D01*
X219747241Y-102310061D01*
X219849082Y-102555928D01*
X219901000Y-102816938D01*
X219901000Y-103083062D01*
X219849082Y-103344072D01*
X219747241Y-103589939D01*
X219599390Y-103811212D01*
X219411212Y-103999390D01*
X219189939Y-104147241D01*
X219189938Y-104147242D01*
X219189937Y-104147242D01*
X218944072Y-104249082D01*
X218683063Y-104301000D01*
X218416937Y-104301000D01*
X218155928Y-104249082D01*
X217910063Y-104147242D01*
X217910062Y-104147242D01*
X217910061Y-104147241D01*
X217688788Y-103999390D01*
X217500610Y-103811212D01*
X217352759Y-103589939D01*
X217250918Y-103344072D01*
X217199000Y-103083062D01*
X217199000Y-102816938D01*
X217250918Y-102555928D01*
X217352759Y-102310061D01*
X217500610Y-102088788D01*
X217688788Y-101900610D01*
X217910061Y-101752759D01*
X218155928Y-101650918D01*
X218416937Y-101599000D01*
X218683063Y-101599000D01*
X218944072Y-101650918D01*
G37*
G36*
X199214499Y-96053445D02*
G01*
X199251995Y-96064820D01*
X199286554Y-96083292D01*
X199316847Y-96108153D01*
X199341708Y-96138446D01*
X199360180Y-96173005D01*
X199371555Y-96210501D01*
X199376000Y-96255638D01*
X199376000Y-96994362D01*
X199371555Y-97039499D01*
X199360180Y-97076995D01*
X199341708Y-97111554D01*
X199316847Y-97141847D01*
X199286554Y-97166708D01*
X199251995Y-97185180D01*
X199214499Y-97196555D01*
X199169362Y-97201000D01*
X198530638Y-97201000D01*
X198485501Y-97196555D01*
X198448005Y-97185180D01*
X198413446Y-97166708D01*
X198383153Y-97141847D01*
X198358292Y-97111554D01*
X198339820Y-97076995D01*
X198328445Y-97039499D01*
X198324000Y-96994362D01*
X198324000Y-96255638D01*
X198328445Y-96210501D01*
X198339820Y-96173005D01*
X198358292Y-96138446D01*
X198383153Y-96108153D01*
X198413446Y-96083292D01*
X198448005Y-96064820D01*
X198485501Y-96053445D01*
X198530638Y-96049000D01*
X199169362Y-96049000D01*
X199214499Y-96053445D01*
G37*
G36*
X201764499Y-96053445D02*
G01*
X201801995Y-96064820D01*
X201836554Y-96083292D01*
X201866847Y-96108153D01*
X201891708Y-96138446D01*
X201910180Y-96173005D01*
X201921555Y-96210501D01*
X201926000Y-96255638D01*
X201926000Y-96994362D01*
X201921555Y-97039499D01*
X201910180Y-97076995D01*
X201891708Y-97111554D01*
X201866847Y-97141847D01*
X201836554Y-97166708D01*
X201801995Y-97185180D01*
X201764499Y-97196555D01*
X201719362Y-97201000D01*
X201080638Y-97201000D01*
X201035501Y-97196555D01*
X200998005Y-97185180D01*
X200963446Y-97166708D01*
X200933153Y-97141847D01*
X200908292Y-97111554D01*
X200889820Y-97076995D01*
X200878445Y-97039499D01*
X200874000Y-96994362D01*
X200874000Y-96255638D01*
X200878445Y-96210501D01*
X200889820Y-96173005D01*
X200908292Y-96138446D01*
X200933153Y-96108153D01*
X200963446Y-96083292D01*
X200998005Y-96064820D01*
X201035501Y-96053445D01*
X201080638Y-96049000D01*
X201719362Y-96049000D01*
X201764499Y-96053445D01*
G37*
G36*
X215414499Y-96028445D02*
G01*
X215451995Y-96039820D01*
X215486554Y-96058292D01*
X215516847Y-96083153D01*
X215541708Y-96113446D01*
X215560180Y-96148005D01*
X215571555Y-96185501D01*
X215576000Y-96230638D01*
X215576000Y-96969362D01*
X215571555Y-97014499D01*
X215560180Y-97051995D01*
X215541708Y-97086554D01*
X215516847Y-97116847D01*
X215486554Y-97141708D01*
X215451995Y-97160180D01*
X215414499Y-97171555D01*
X215369362Y-97176000D01*
X214730638Y-97176000D01*
X214685501Y-97171555D01*
X214648005Y-97160180D01*
X214613446Y-97141708D01*
X214583153Y-97116847D01*
X214558292Y-97086554D01*
X214539820Y-97051995D01*
X214528445Y-97014499D01*
X214524000Y-96969362D01*
X214524000Y-96230638D01*
X214528445Y-96185501D01*
X214539820Y-96148005D01*
X214558292Y-96113446D01*
X214583153Y-96083153D01*
X214613446Y-96058292D01*
X214648005Y-96039820D01*
X214685501Y-96028445D01*
X214730638Y-96024000D01*
X215369362Y-96024000D01*
X215414499Y-96028445D01*
G37*
G36*
X208964499Y-96028445D02*
G01*
X209001995Y-96039820D01*
X209036554Y-96058292D01*
X209066847Y-96083153D01*
X209091708Y-96113446D01*
X209110180Y-96148005D01*
X209121555Y-96185501D01*
X209126000Y-96230638D01*
X209126000Y-96969362D01*
X209121555Y-97014499D01*
X209110180Y-97051995D01*
X209091708Y-97086554D01*
X209066847Y-97116847D01*
X209036554Y-97141708D01*
X209001995Y-97160180D01*
X208964499Y-97171555D01*
X208919362Y-97176000D01*
X208280638Y-97176000D01*
X208235501Y-97171555D01*
X208198005Y-97160180D01*
X208163446Y-97141708D01*
X208133153Y-97116847D01*
X208108292Y-97086554D01*
X208089820Y-97051995D01*
X208078445Y-97014499D01*
X208074000Y-96969362D01*
X208074000Y-96230638D01*
X208078445Y-96185501D01*
X208089820Y-96148005D01*
X208108292Y-96113446D01*
X208133153Y-96083153D01*
X208163446Y-96058292D01*
X208198005Y-96039820D01*
X208235501Y-96028445D01*
X208280638Y-96024000D01*
X208919362Y-96024000D01*
X208964499Y-96028445D01*
G37*
G36*
X206964499Y-96028445D02*
G01*
X207001995Y-96039820D01*
X207036554Y-96058292D01*
X207066847Y-96083153D01*
X207091708Y-96113446D01*
X207110180Y-96148005D01*
X207121555Y-96185501D01*
X207126000Y-96230638D01*
X207126000Y-96969362D01*
X207121555Y-97014499D01*
X207110180Y-97051995D01*
X207091708Y-97086554D01*
X207066847Y-97116847D01*
X207036554Y-97141708D01*
X207001995Y-97160180D01*
X206964499Y-97171555D01*
X206919362Y-97176000D01*
X206280638Y-97176000D01*
X206235501Y-97171555D01*
X206198005Y-97160180D01*
X206163446Y-97141708D01*
X206133153Y-97116847D01*
X206108292Y-97086554D01*
X206089820Y-97051995D01*
X206078445Y-97014499D01*
X206074000Y-96969362D01*
X206074000Y-96230638D01*
X206078445Y-96185501D01*
X206089820Y-96148005D01*
X206108292Y-96113446D01*
X206133153Y-96083153D01*
X206163446Y-96058292D01*
X206198005Y-96039820D01*
X206235501Y-96028445D01*
X206280638Y-96024000D01*
X206919362Y-96024000D01*
X206964499Y-96028445D01*
G37*
G36*
X210914499Y-96028445D02*
G01*
X210951995Y-96039820D01*
X210986554Y-96058292D01*
X211016847Y-96083153D01*
X211041708Y-96113446D01*
X211060180Y-96148005D01*
X211071555Y-96185501D01*
X211076000Y-96230638D01*
X211076000Y-96969362D01*
X211071555Y-97014499D01*
X211060180Y-97051995D01*
X211041708Y-97086554D01*
X211016847Y-97116847D01*
X210986554Y-97141708D01*
X210951995Y-97160180D01*
X210914499Y-97171555D01*
X210869362Y-97176000D01*
X210230638Y-97176000D01*
X210185501Y-97171555D01*
X210148005Y-97160180D01*
X210113446Y-97141708D01*
X210083153Y-97116847D01*
X210058292Y-97086554D01*
X210039820Y-97051995D01*
X210028445Y-97014499D01*
X210024000Y-96969362D01*
X210024000Y-96230638D01*
X210028445Y-96185501D01*
X210039820Y-96148005D01*
X210058292Y-96113446D01*
X210083153Y-96083153D01*
X210113446Y-96058292D01*
X210148005Y-96039820D01*
X210185501Y-96028445D01*
X210230638Y-96024000D01*
X210869362Y-96024000D01*
X210914499Y-96028445D01*
G37*
G36*
X213414499Y-96028445D02*
G01*
X213451995Y-96039820D01*
X213486554Y-96058292D01*
X213516847Y-96083153D01*
X213541708Y-96113446D01*
X213560180Y-96148005D01*
X213571555Y-96185501D01*
X213576000Y-96230638D01*
X213576000Y-96969362D01*
X213571555Y-97014499D01*
X213560180Y-97051995D01*
X213541708Y-97086554D01*
X213516847Y-97116847D01*
X213486554Y-97141708D01*
X213451995Y-97160180D01*
X213414499Y-97171555D01*
X213369362Y-97176000D01*
X212730638Y-97176000D01*
X212685501Y-97171555D01*
X212648005Y-97160180D01*
X212613446Y-97141708D01*
X212583153Y-97116847D01*
X212558292Y-97086554D01*
X212539820Y-97051995D01*
X212528445Y-97014499D01*
X212524000Y-96969362D01*
X212524000Y-96230638D01*
X212528445Y-96185501D01*
X212539820Y-96148005D01*
X212558292Y-96113446D01*
X212583153Y-96083153D01*
X212613446Y-96058292D01*
X212648005Y-96039820D01*
X212685501Y-96028445D01*
X212730638Y-96024000D01*
X213369362Y-96024000D01*
X213414499Y-96028445D01*
G37*
G36*
X218101000Y-97151000D02*
G01*
X216799000Y-97151000D01*
X216799000Y-96149000D01*
X218101000Y-96149000D01*
X218101000Y-97151000D01*
G37*
G36*
X204801000Y-97151000D02*
G01*
X203499000Y-97151000D01*
X203499000Y-96149000D01*
X204801000Y-96149000D01*
X204801000Y-97151000D01*
G37*
G36*
X199214499Y-94303445D02*
G01*
X199251995Y-94314820D01*
X199286554Y-94333292D01*
X199316847Y-94358153D01*
X199341708Y-94388446D01*
X199360180Y-94423005D01*
X199371555Y-94460501D01*
X199376000Y-94505638D01*
X199376000Y-95244362D01*
X199371555Y-95289499D01*
X199360180Y-95326995D01*
X199341708Y-95361554D01*
X199316847Y-95391847D01*
X199286554Y-95416708D01*
X199251995Y-95435180D01*
X199214499Y-95446555D01*
X199169362Y-95451000D01*
X198530638Y-95451000D01*
X198485501Y-95446555D01*
X198448005Y-95435180D01*
X198413446Y-95416708D01*
X198383153Y-95391847D01*
X198358292Y-95361554D01*
X198339820Y-95326995D01*
X198328445Y-95289499D01*
X198324000Y-95244362D01*
X198324000Y-94505638D01*
X198328445Y-94460501D01*
X198339820Y-94423005D01*
X198358292Y-94388446D01*
X198383153Y-94358153D01*
X198413446Y-94333292D01*
X198448005Y-94314820D01*
X198485501Y-94303445D01*
X198530638Y-94299000D01*
X199169362Y-94299000D01*
X199214499Y-94303445D01*
G37*
G36*
X201764499Y-94303445D02*
G01*
X201801995Y-94314820D01*
X201836554Y-94333292D01*
X201866847Y-94358153D01*
X201891708Y-94388446D01*
X201910180Y-94423005D01*
X201921555Y-94460501D01*
X201926000Y-94505638D01*
X201926000Y-95244362D01*
X201921555Y-95289499D01*
X201910180Y-95326995D01*
X201891708Y-95361554D01*
X201866847Y-95391847D01*
X201836554Y-95416708D01*
X201801995Y-95435180D01*
X201764499Y-95446555D01*
X201719362Y-95451000D01*
X201080638Y-95451000D01*
X201035501Y-95446555D01*
X200998005Y-95435180D01*
X200963446Y-95416708D01*
X200933153Y-95391847D01*
X200908292Y-95361554D01*
X200889820Y-95326995D01*
X200878445Y-95289499D01*
X200874000Y-95244362D01*
X200874000Y-94505638D01*
X200878445Y-94460501D01*
X200889820Y-94423005D01*
X200908292Y-94388446D01*
X200933153Y-94358153D01*
X200963446Y-94333292D01*
X200998005Y-94314820D01*
X201035501Y-94303445D01*
X201080638Y-94299000D01*
X201719362Y-94299000D01*
X201764499Y-94303445D01*
G37*
G36*
X206964499Y-94278445D02*
G01*
X207001995Y-94289820D01*
X207036554Y-94308292D01*
X207066847Y-94333153D01*
X207091708Y-94363446D01*
X207110180Y-94398005D01*
X207121555Y-94435501D01*
X207126000Y-94480638D01*
X207126000Y-95219362D01*
X207121555Y-95264499D01*
X207110180Y-95301995D01*
X207091708Y-95336554D01*
X207066847Y-95366847D01*
X207036554Y-95391708D01*
X207001995Y-95410180D01*
X206964499Y-95421555D01*
X206919362Y-95426000D01*
X206280638Y-95426000D01*
X206235501Y-95421555D01*
X206198005Y-95410180D01*
X206163446Y-95391708D01*
X206133153Y-95366847D01*
X206108292Y-95336554D01*
X206089820Y-95301995D01*
X206078445Y-95264499D01*
X206074000Y-95219362D01*
X206074000Y-94480638D01*
X206078445Y-94435501D01*
X206089820Y-94398005D01*
X206108292Y-94363446D01*
X206133153Y-94333153D01*
X206163446Y-94308292D01*
X206198005Y-94289820D01*
X206235501Y-94278445D01*
X206280638Y-94274000D01*
X206919362Y-94274000D01*
X206964499Y-94278445D01*
G37*
G36*
X208964499Y-94278445D02*
G01*
X209001995Y-94289820D01*
X209036554Y-94308292D01*
X209066847Y-94333153D01*
X209091708Y-94363446D01*
X209110180Y-94398005D01*
X209121555Y-94435501D01*
X209126000Y-94480638D01*
X209126000Y-95219362D01*
X209121555Y-95264499D01*
X209110180Y-95301995D01*
X209091708Y-95336554D01*
X209066847Y-95366847D01*
X209036554Y-95391708D01*
X209001995Y-95410180D01*
X208964499Y-95421555D01*
X208919362Y-95426000D01*
X208280638Y-95426000D01*
X208235501Y-95421555D01*
X208198005Y-95410180D01*
X208163446Y-95391708D01*
X208133153Y-95366847D01*
X208108292Y-95336554D01*
X208089820Y-95301995D01*
X208078445Y-95264499D01*
X208074000Y-95219362D01*
X208074000Y-94480638D01*
X208078445Y-94435501D01*
X208089820Y-94398005D01*
X208108292Y-94363446D01*
X208133153Y-94333153D01*
X208163446Y-94308292D01*
X208198005Y-94289820D01*
X208235501Y-94278445D01*
X208280638Y-94274000D01*
X208919362Y-94274000D01*
X208964499Y-94278445D01*
G37*
G36*
X210914499Y-94278445D02*
G01*
X210951995Y-94289820D01*
X210986554Y-94308292D01*
X211016847Y-94333153D01*
X211041708Y-94363446D01*
X211060180Y-94398005D01*
X211071555Y-94435501D01*
X211076000Y-94480638D01*
X211076000Y-95219362D01*
X211071555Y-95264499D01*
X211060180Y-95301995D01*
X211041708Y-95336554D01*
X211016847Y-95366847D01*
X210986554Y-95391708D01*
X210951995Y-95410180D01*
X210914499Y-95421555D01*
X210869362Y-95426000D01*
X210230638Y-95426000D01*
X210185501Y-95421555D01*
X210148005Y-95410180D01*
X210113446Y-95391708D01*
X210083153Y-95366847D01*
X210058292Y-95336554D01*
X210039820Y-95301995D01*
X210028445Y-95264499D01*
X210024000Y-95219362D01*
X210024000Y-94480638D01*
X210028445Y-94435501D01*
X210039820Y-94398005D01*
X210058292Y-94363446D01*
X210083153Y-94333153D01*
X210113446Y-94308292D01*
X210148005Y-94289820D01*
X210185501Y-94278445D01*
X210230638Y-94274000D01*
X210869362Y-94274000D01*
X210914499Y-94278445D01*
G37*
G36*
X215414499Y-94278445D02*
G01*
X215451995Y-94289820D01*
X215486554Y-94308292D01*
X215516847Y-94333153D01*
X215541708Y-94363446D01*
X215560180Y-94398005D01*
X215571555Y-94435501D01*
X215576000Y-94480638D01*
X215576000Y-95219362D01*
X215571555Y-95264499D01*
X215560180Y-95301995D01*
X215541708Y-95336554D01*
X215516847Y-95366847D01*
X215486554Y-95391708D01*
X215451995Y-95410180D01*
X215414499Y-95421555D01*
X215369362Y-95426000D01*
X214730638Y-95426000D01*
X214685501Y-95421555D01*
X214648005Y-95410180D01*
X214613446Y-95391708D01*
X214583153Y-95366847D01*
X214558292Y-95336554D01*
X214539820Y-95301995D01*
X214528445Y-95264499D01*
X214524000Y-95219362D01*
X214524000Y-94480638D01*
X214528445Y-94435501D01*
X214539820Y-94398005D01*
X214558292Y-94363446D01*
X214583153Y-94333153D01*
X214613446Y-94308292D01*
X214648005Y-94289820D01*
X214685501Y-94278445D01*
X214730638Y-94274000D01*
X215369362Y-94274000D01*
X215414499Y-94278445D01*
G37*
G36*
X213414499Y-94278445D02*
G01*
X213451995Y-94289820D01*
X213486554Y-94308292D01*
X213516847Y-94333153D01*
X213541708Y-94363446D01*
X213560180Y-94398005D01*
X213571555Y-94435501D01*
X213576000Y-94480638D01*
X213576000Y-95219362D01*
X213571555Y-95264499D01*
X213560180Y-95301995D01*
X213541708Y-95336554D01*
X213516847Y-95366847D01*
X213486554Y-95391708D01*
X213451995Y-95410180D01*
X213414499Y-95421555D01*
X213369362Y-95426000D01*
X212730638Y-95426000D01*
X212685501Y-95421555D01*
X212648005Y-95410180D01*
X212613446Y-95391708D01*
X212583153Y-95366847D01*
X212558292Y-95336554D01*
X212539820Y-95301995D01*
X212528445Y-95264499D01*
X212524000Y-95219362D01*
X212524000Y-94480638D01*
X212528445Y-94435501D01*
X212539820Y-94398005D01*
X212558292Y-94363446D01*
X212583153Y-94333153D01*
X212613446Y-94308292D01*
X212648005Y-94289820D01*
X212685501Y-94278445D01*
X212730638Y-94274000D01*
X213369362Y-94274000D01*
X213414499Y-94278445D01*
G37*
G36*
X218101000Y-93851000D02*
G01*
X216799000Y-93851000D01*
X216799000Y-92849000D01*
X218101000Y-92849000D01*
X218101000Y-93851000D01*
G37*
G36*
X204801000Y-93851000D02*
G01*
X203499000Y-93851000D01*
X203499000Y-92849000D01*
X204801000Y-92849000D01*
X204801000Y-93851000D01*
G37*
G36*
X207064499Y-92578445D02*
G01*
X207101995Y-92589820D01*
X207136554Y-92608292D01*
X207166847Y-92633153D01*
X207191708Y-92663446D01*
X207210180Y-92698005D01*
X207221555Y-92735501D01*
X207226000Y-92780638D01*
X207226000Y-93419362D01*
X207221555Y-93464499D01*
X207210180Y-93501995D01*
X207191708Y-93536554D01*
X207166847Y-93566847D01*
X207136554Y-93591708D01*
X207101995Y-93610180D01*
X207064499Y-93621555D01*
X207019362Y-93626000D01*
X206280638Y-93626000D01*
X206235501Y-93621555D01*
X206198005Y-93610180D01*
X206163446Y-93591708D01*
X206133153Y-93566847D01*
X206108292Y-93536554D01*
X206089820Y-93501995D01*
X206078445Y-93464499D01*
X206074000Y-93419362D01*
X206074000Y-92780638D01*
X206078445Y-92735501D01*
X206089820Y-92698005D01*
X206108292Y-92663446D01*
X206133153Y-92633153D01*
X206163446Y-92608292D01*
X206198005Y-92589820D01*
X206235501Y-92578445D01*
X206280638Y-92574000D01*
X207019362Y-92574000D01*
X207064499Y-92578445D01*
G37*
G36*
X213664499Y-92578445D02*
G01*
X213701995Y-92589820D01*
X213736554Y-92608292D01*
X213766847Y-92633153D01*
X213791708Y-92663446D01*
X213810180Y-92698005D01*
X213821555Y-92735501D01*
X213826000Y-92780638D01*
X213826000Y-93419362D01*
X213821555Y-93464499D01*
X213810180Y-93501995D01*
X213791708Y-93536554D01*
X213766847Y-93566847D01*
X213736554Y-93591708D01*
X213701995Y-93610180D01*
X213664499Y-93621555D01*
X213619362Y-93626000D01*
X212880638Y-93626000D01*
X212835501Y-93621555D01*
X212798005Y-93610180D01*
X212763446Y-93591708D01*
X212733153Y-93566847D01*
X212708292Y-93536554D01*
X212689820Y-93501995D01*
X212678445Y-93464499D01*
X212674000Y-93419362D01*
X212674000Y-92780638D01*
X212678445Y-92735501D01*
X212689820Y-92698005D01*
X212708292Y-92663446D01*
X212733153Y-92633153D01*
X212763446Y-92608292D01*
X212798005Y-92589820D01*
X212835501Y-92578445D01*
X212880638Y-92574000D01*
X213619362Y-92574000D01*
X213664499Y-92578445D01*
G37*
G36*
X208814499Y-92578445D02*
G01*
X208851995Y-92589820D01*
X208886554Y-92608292D01*
X208916847Y-92633153D01*
X208941708Y-92663446D01*
X208960180Y-92698005D01*
X208971555Y-92735501D01*
X208976000Y-92780638D01*
X208976000Y-93419362D01*
X208971555Y-93464499D01*
X208960180Y-93501995D01*
X208941708Y-93536554D01*
X208916847Y-93566847D01*
X208886554Y-93591708D01*
X208851995Y-93610180D01*
X208814499Y-93621555D01*
X208769362Y-93626000D01*
X208030638Y-93626000D01*
X207985501Y-93621555D01*
X207948005Y-93610180D01*
X207913446Y-93591708D01*
X207883153Y-93566847D01*
X207858292Y-93536554D01*
X207839820Y-93501995D01*
X207828445Y-93464499D01*
X207824000Y-93419362D01*
X207824000Y-92780638D01*
X207828445Y-92735501D01*
X207839820Y-92698005D01*
X207858292Y-92663446D01*
X207883153Y-92633153D01*
X207913446Y-92608292D01*
X207948005Y-92589820D01*
X207985501Y-92578445D01*
X208030638Y-92574000D01*
X208769362Y-92574000D01*
X208814499Y-92578445D01*
G37*
G36*
X215414499Y-92578445D02*
G01*
X215451995Y-92589820D01*
X215486554Y-92608292D01*
X215516847Y-92633153D01*
X215541708Y-92663446D01*
X215560180Y-92698005D01*
X215571555Y-92735501D01*
X215576000Y-92780638D01*
X215576000Y-93419362D01*
X215571555Y-93464499D01*
X215560180Y-93501995D01*
X215541708Y-93536554D01*
X215516847Y-93566847D01*
X215486554Y-93591708D01*
X215451995Y-93610180D01*
X215414499Y-93621555D01*
X215369362Y-93626000D01*
X214630638Y-93626000D01*
X214585501Y-93621555D01*
X214548005Y-93610180D01*
X214513446Y-93591708D01*
X214483153Y-93566847D01*
X214458292Y-93536554D01*
X214439820Y-93501995D01*
X214428445Y-93464499D01*
X214424000Y-93419362D01*
X214424000Y-92780638D01*
X214428445Y-92735501D01*
X214439820Y-92698005D01*
X214458292Y-92663446D01*
X214483153Y-92633153D01*
X214513446Y-92608292D01*
X214548005Y-92589820D01*
X214585501Y-92578445D01*
X214630638Y-92574000D01*
X215369362Y-92574000D01*
X215414499Y-92578445D01*
G37*
G36*
X221064499Y-89128445D02*
G01*
X221101995Y-89139820D01*
X221136554Y-89158292D01*
X221166847Y-89183153D01*
X221191708Y-89213446D01*
X221210180Y-89248005D01*
X221221555Y-89285501D01*
X221226000Y-89330638D01*
X221226000Y-90069362D01*
X221221555Y-90114499D01*
X221210180Y-90151995D01*
X221191708Y-90186554D01*
X221166847Y-90216847D01*
X221136554Y-90241708D01*
X221101995Y-90260180D01*
X221064499Y-90271555D01*
X221019362Y-90276000D01*
X220380638Y-90276000D01*
X220335501Y-90271555D01*
X220298005Y-90260180D01*
X220263446Y-90241708D01*
X220233153Y-90216847D01*
X220208292Y-90186554D01*
X220189820Y-90151995D01*
X220178445Y-90114499D01*
X220174000Y-90069362D01*
X220174000Y-89330638D01*
X220178445Y-89285501D01*
X220189820Y-89248005D01*
X220208292Y-89213446D01*
X220233153Y-89183153D01*
X220263446Y-89158292D01*
X220298005Y-89139820D01*
X220335501Y-89128445D01*
X220380638Y-89124000D01*
X221019362Y-89124000D01*
X221064499Y-89128445D01*
G37*
G36*
X215914499Y-89103445D02*
G01*
X215951995Y-89114820D01*
X215986554Y-89133292D01*
X216016847Y-89158153D01*
X216041708Y-89188446D01*
X216060180Y-89223005D01*
X216071555Y-89260501D01*
X216076000Y-89305638D01*
X216076000Y-90044362D01*
X216071555Y-90089499D01*
X216060180Y-90126995D01*
X216041708Y-90161554D01*
X216016847Y-90191847D01*
X215986554Y-90216708D01*
X215951995Y-90235180D01*
X215914499Y-90246555D01*
X215869362Y-90251000D01*
X215230638Y-90251000D01*
X215185501Y-90246555D01*
X215148005Y-90235180D01*
X215113446Y-90216708D01*
X215083153Y-90191847D01*
X215058292Y-90161554D01*
X215039820Y-90126995D01*
X215028445Y-90089499D01*
X215024000Y-90044362D01*
X215024000Y-89305638D01*
X215028445Y-89260501D01*
X215039820Y-89223005D01*
X215058292Y-89188446D01*
X215083153Y-89158153D01*
X215113446Y-89133292D01*
X215148005Y-89114820D01*
X215185501Y-89103445D01*
X215230638Y-89099000D01*
X215869362Y-89099000D01*
X215914499Y-89103445D01*
G37*
G36*
X218964499Y-89103445D02*
G01*
X219001995Y-89114820D01*
X219036554Y-89133292D01*
X219066847Y-89158153D01*
X219091708Y-89188446D01*
X219110180Y-89223005D01*
X219121555Y-89260501D01*
X219126000Y-89305638D01*
X219126000Y-90044362D01*
X219121555Y-90089499D01*
X219110180Y-90126995D01*
X219091708Y-90161554D01*
X219066847Y-90191847D01*
X219036554Y-90216708D01*
X219001995Y-90235180D01*
X218964499Y-90246555D01*
X218919362Y-90251000D01*
X218280638Y-90251000D01*
X218235501Y-90246555D01*
X218198005Y-90235180D01*
X218163446Y-90216708D01*
X218133153Y-90191847D01*
X218108292Y-90161554D01*
X218089820Y-90126995D01*
X218078445Y-90089499D01*
X218074000Y-90044362D01*
X218074000Y-89305638D01*
X218078445Y-89260501D01*
X218089820Y-89223005D01*
X218108292Y-89188446D01*
X218133153Y-89158153D01*
X218163446Y-89133292D01*
X218198005Y-89114820D01*
X218235501Y-89103445D01*
X218280638Y-89099000D01*
X218919362Y-89099000D01*
X218964499Y-89103445D01*
G37*
G36*
X210639499Y-88978445D02*
G01*
X210676995Y-88989820D01*
X210711554Y-89008292D01*
X210741847Y-89033153D01*
X210766708Y-89063446D01*
X210785180Y-89098005D01*
X210796555Y-89135501D01*
X210801000Y-89180638D01*
X210801000Y-89819362D01*
X210796555Y-89864499D01*
X210785180Y-89901995D01*
X210766708Y-89936554D01*
X210741847Y-89966847D01*
X210711554Y-89991708D01*
X210676995Y-90010180D01*
X210639499Y-90021555D01*
X210594362Y-90026000D01*
X209855638Y-90026000D01*
X209810501Y-90021555D01*
X209773005Y-90010180D01*
X209738446Y-89991708D01*
X209708153Y-89966847D01*
X209683292Y-89936554D01*
X209664820Y-89901995D01*
X209653445Y-89864499D01*
X209649000Y-89819362D01*
X209649000Y-89180638D01*
X209653445Y-89135501D01*
X209664820Y-89098005D01*
X209683292Y-89063446D01*
X209708153Y-89033153D01*
X209738446Y-89008292D01*
X209773005Y-88989820D01*
X209810501Y-88978445D01*
X209855638Y-88974000D01*
X210594362Y-88974000D01*
X210639499Y-88978445D01*
G37*
G36*
X212389499Y-88978445D02*
G01*
X212426995Y-88989820D01*
X212461554Y-89008292D01*
X212491847Y-89033153D01*
X212516708Y-89063446D01*
X212535180Y-89098005D01*
X212546555Y-89135501D01*
X212551000Y-89180638D01*
X212551000Y-89819362D01*
X212546555Y-89864499D01*
X212535180Y-89901995D01*
X212516708Y-89936554D01*
X212491847Y-89966847D01*
X212461554Y-89991708D01*
X212426995Y-90010180D01*
X212389499Y-90021555D01*
X212344362Y-90026000D01*
X211605638Y-90026000D01*
X211560501Y-90021555D01*
X211523005Y-90010180D01*
X211488446Y-89991708D01*
X211458153Y-89966847D01*
X211433292Y-89936554D01*
X211414820Y-89901995D01*
X211403445Y-89864499D01*
X211399000Y-89819362D01*
X211399000Y-89180638D01*
X211403445Y-89135501D01*
X211414820Y-89098005D01*
X211433292Y-89063446D01*
X211458153Y-89033153D01*
X211488446Y-89008292D01*
X211523005Y-88989820D01*
X211560501Y-88978445D01*
X211605638Y-88974000D01*
X212344362Y-88974000D01*
X212389499Y-88978445D01*
G37*
G36*
X200503512Y-87103927D02*
G01*
X200652812Y-87133624D01*
X200816784Y-87201544D01*
X200964354Y-87300147D01*
X201089853Y-87425646D01*
X201188456Y-87573216D01*
X201256376Y-87737188D01*
X201291000Y-87911259D01*
X201291000Y-88088741D01*
X201256376Y-88262812D01*
X201188456Y-88426784D01*
X201089853Y-88574354D01*
X200964354Y-88699853D01*
X200816784Y-88798456D01*
X200652812Y-88866376D01*
X200503512Y-88896073D01*
X200478742Y-88901000D01*
X200301258Y-88901000D01*
X200276488Y-88896073D01*
X200127188Y-88866376D01*
X199963216Y-88798456D01*
X199815646Y-88699853D01*
X199690147Y-88574354D01*
X199591544Y-88426784D01*
X199523624Y-88262812D01*
X199489000Y-88088741D01*
X199489000Y-87911259D01*
X199523624Y-87737188D01*
X199591544Y-87573216D01*
X199690147Y-87425646D01*
X199815646Y-87300147D01*
X199963216Y-87201544D01*
X200127188Y-87133624D01*
X200276488Y-87103927D01*
X200301258Y-87099000D01*
X200478742Y-87099000D01*
X200503512Y-87103927D01*
G37*
G36*
X197963512Y-87103927D02*
G01*
X198112812Y-87133624D01*
X198276784Y-87201544D01*
X198424354Y-87300147D01*
X198549853Y-87425646D01*
X198648456Y-87573216D01*
X198716376Y-87737188D01*
X198751000Y-87911259D01*
X198751000Y-88088741D01*
X198716376Y-88262812D01*
X198648456Y-88426784D01*
X198549853Y-88574354D01*
X198424354Y-88699853D01*
X198276784Y-88798456D01*
X198112812Y-88866376D01*
X197963512Y-88896073D01*
X197938742Y-88901000D01*
X197761258Y-88901000D01*
X197736488Y-88896073D01*
X197587188Y-88866376D01*
X197423216Y-88798456D01*
X197275646Y-88699853D01*
X197150147Y-88574354D01*
X197051544Y-88426784D01*
X196983624Y-88262812D01*
X196949000Y-88088741D01*
X196949000Y-87911259D01*
X196983624Y-87737188D01*
X197051544Y-87573216D01*
X197150147Y-87425646D01*
X197275646Y-87300147D01*
X197423216Y-87201544D01*
X197587188Y-87133624D01*
X197736488Y-87103927D01*
X197761258Y-87099000D01*
X197938742Y-87099000D01*
X197963512Y-87103927D01*
G37*
G36*
X221064499Y-87378445D02*
G01*
X221101995Y-87389820D01*
X221136554Y-87408292D01*
X221166847Y-87433153D01*
X221191708Y-87463446D01*
X221210180Y-87498005D01*
X221221555Y-87535501D01*
X221226000Y-87580638D01*
X221226000Y-88319362D01*
X221221555Y-88364499D01*
X221210180Y-88401995D01*
X221191708Y-88436554D01*
X221166847Y-88466847D01*
X221136554Y-88491708D01*
X221101995Y-88510180D01*
X221064499Y-88521555D01*
X221019362Y-88526000D01*
X220380638Y-88526000D01*
X220335501Y-88521555D01*
X220298005Y-88510180D01*
X220263446Y-88491708D01*
X220233153Y-88466847D01*
X220208292Y-88436554D01*
X220189820Y-88401995D01*
X220178445Y-88364499D01*
X220174000Y-88319362D01*
X220174000Y-87580638D01*
X220178445Y-87535501D01*
X220189820Y-87498005D01*
X220208292Y-87463446D01*
X220233153Y-87433153D01*
X220263446Y-87408292D01*
X220298005Y-87389820D01*
X220335501Y-87378445D01*
X220380638Y-87374000D01*
X221019362Y-87374000D01*
X221064499Y-87378445D01*
G37*
G36*
X215914499Y-87353445D02*
G01*
X215951995Y-87364820D01*
X215986554Y-87383292D01*
X216016847Y-87408153D01*
X216041708Y-87438446D01*
X216060180Y-87473005D01*
X216071555Y-87510501D01*
X216076000Y-87555638D01*
X216076000Y-88294362D01*
X216071555Y-88339499D01*
X216060180Y-88376995D01*
X216041708Y-88411554D01*
X216016847Y-88441847D01*
X215986554Y-88466708D01*
X215951995Y-88485180D01*
X215914499Y-88496555D01*
X215869362Y-88501000D01*
X215230638Y-88501000D01*
X215185501Y-88496555D01*
X215148005Y-88485180D01*
X215113446Y-88466708D01*
X215083153Y-88441847D01*
X215058292Y-88411554D01*
X215039820Y-88376995D01*
X215028445Y-88339499D01*
X215024000Y-88294362D01*
X215024000Y-87555638D01*
X215028445Y-87510501D01*
X215039820Y-87473005D01*
X215058292Y-87438446D01*
X215083153Y-87408153D01*
X215113446Y-87383292D01*
X215148005Y-87364820D01*
X215185501Y-87353445D01*
X215230638Y-87349000D01*
X215869362Y-87349000D01*
X215914499Y-87353445D01*
G37*
G36*
X218964499Y-87353445D02*
G01*
X219001995Y-87364820D01*
X219036554Y-87383292D01*
X219066847Y-87408153D01*
X219091708Y-87438446D01*
X219110180Y-87473005D01*
X219121555Y-87510501D01*
X219126000Y-87555638D01*
X219126000Y-88294362D01*
X219121555Y-88339499D01*
X219110180Y-88376995D01*
X219091708Y-88411554D01*
X219066847Y-88441847D01*
X219036554Y-88466708D01*
X219001995Y-88485180D01*
X218964499Y-88496555D01*
X218919362Y-88501000D01*
X218280638Y-88501000D01*
X218235501Y-88496555D01*
X218198005Y-88485180D01*
X218163446Y-88466708D01*
X218133153Y-88441847D01*
X218108292Y-88411554D01*
X218089820Y-88376995D01*
X218078445Y-88339499D01*
X218074000Y-88294362D01*
X218074000Y-87555638D01*
X218078445Y-87510501D01*
X218089820Y-87473005D01*
X218108292Y-87438446D01*
X218133153Y-87408153D01*
X218163446Y-87383292D01*
X218198005Y-87364820D01*
X218235501Y-87353445D01*
X218280638Y-87349000D01*
X218919362Y-87349000D01*
X218964499Y-87353445D01*
G37*
G36*
X213664499Y-85428445D02*
G01*
X213701995Y-85439820D01*
X213736554Y-85458292D01*
X213766847Y-85483153D01*
X213791708Y-85513446D01*
X213810180Y-85548005D01*
X213821555Y-85585501D01*
X213826000Y-85630638D01*
X213826000Y-86369362D01*
X213821555Y-86414499D01*
X213810180Y-86451995D01*
X213791708Y-86486554D01*
X213766847Y-86516847D01*
X213736554Y-86541708D01*
X213701995Y-86560180D01*
X213664499Y-86571555D01*
X213619362Y-86576000D01*
X212980638Y-86576000D01*
X212935501Y-86571555D01*
X212898005Y-86560180D01*
X212863446Y-86541708D01*
X212833153Y-86516847D01*
X212808292Y-86486554D01*
X212789820Y-86451995D01*
X212778445Y-86414499D01*
X212774000Y-86369362D01*
X212774000Y-85630638D01*
X212778445Y-85585501D01*
X212789820Y-85548005D01*
X212808292Y-85513446D01*
X212833153Y-85483153D01*
X212863446Y-85458292D01*
X212898005Y-85439820D01*
X212935501Y-85428445D01*
X212980638Y-85424000D01*
X213619362Y-85424000D01*
X213664499Y-85428445D01*
G37*
G36*
X207114499Y-85428445D02*
G01*
X207151995Y-85439820D01*
X207186554Y-85458292D01*
X207216847Y-85483153D01*
X207241708Y-85513446D01*
X207260180Y-85548005D01*
X207271555Y-85585501D01*
X207276000Y-85630638D01*
X207276000Y-86369362D01*
X207271555Y-86414499D01*
X207260180Y-86451995D01*
X207241708Y-86486554D01*
X207216847Y-86516847D01*
X207186554Y-86541708D01*
X207151995Y-86560180D01*
X207114499Y-86571555D01*
X207069362Y-86576000D01*
X206430638Y-86576000D01*
X206385501Y-86571555D01*
X206348005Y-86560180D01*
X206313446Y-86541708D01*
X206283153Y-86516847D01*
X206258292Y-86486554D01*
X206239820Y-86451995D01*
X206228445Y-86414499D01*
X206224000Y-86369362D01*
X206224000Y-85630638D01*
X206228445Y-85585501D01*
X206239820Y-85548005D01*
X206258292Y-85513446D01*
X206283153Y-85483153D01*
X206313446Y-85458292D01*
X206348005Y-85439820D01*
X206385501Y-85428445D01*
X206430638Y-85424000D01*
X207069362Y-85424000D01*
X207114499Y-85428445D01*
G37*
G36*
X211464499Y-85428445D02*
G01*
X211501995Y-85439820D01*
X211536554Y-85458292D01*
X211566847Y-85483153D01*
X211591708Y-85513446D01*
X211610180Y-85548005D01*
X211621555Y-85585501D01*
X211626000Y-85630638D01*
X211626000Y-86369362D01*
X211621555Y-86414499D01*
X211610180Y-86451995D01*
X211591708Y-86486554D01*
X211566847Y-86516847D01*
X211536554Y-86541708D01*
X211501995Y-86560180D01*
X211464499Y-86571555D01*
X211419362Y-86576000D01*
X210780638Y-86576000D01*
X210735501Y-86571555D01*
X210698005Y-86560180D01*
X210663446Y-86541708D01*
X210633153Y-86516847D01*
X210608292Y-86486554D01*
X210589820Y-86451995D01*
X210578445Y-86414499D01*
X210574000Y-86369362D01*
X210574000Y-85630638D01*
X210578445Y-85585501D01*
X210589820Y-85548005D01*
X210608292Y-85513446D01*
X210633153Y-85483153D01*
X210663446Y-85458292D01*
X210698005Y-85439820D01*
X210735501Y-85428445D01*
X210780638Y-85424000D01*
X211419362Y-85424000D01*
X211464499Y-85428445D01*
G37*
G36*
X215914499Y-85428445D02*
G01*
X215951995Y-85439820D01*
X215986554Y-85458292D01*
X216016847Y-85483153D01*
X216041708Y-85513446D01*
X216060180Y-85548005D01*
X216071555Y-85585501D01*
X216076000Y-85630638D01*
X216076000Y-86369362D01*
X216071555Y-86414499D01*
X216060180Y-86451995D01*
X216041708Y-86486554D01*
X216016847Y-86516847D01*
X215986554Y-86541708D01*
X215951995Y-86560180D01*
X215914499Y-86571555D01*
X215869362Y-86576000D01*
X215230638Y-86576000D01*
X215185501Y-86571555D01*
X215148005Y-86560180D01*
X215113446Y-86541708D01*
X215083153Y-86516847D01*
X215058292Y-86486554D01*
X215039820Y-86451995D01*
X215028445Y-86414499D01*
X215024000Y-86369362D01*
X215024000Y-85630638D01*
X215028445Y-85585501D01*
X215039820Y-85548005D01*
X215058292Y-85513446D01*
X215083153Y-85483153D01*
X215113446Y-85458292D01*
X215148005Y-85439820D01*
X215185501Y-85428445D01*
X215230638Y-85424000D01*
X215869362Y-85424000D01*
X215914499Y-85428445D01*
G37*
G36*
X209314499Y-85428445D02*
G01*
X209351995Y-85439820D01*
X209386554Y-85458292D01*
X209416847Y-85483153D01*
X209441708Y-85513446D01*
X209460180Y-85548005D01*
X209471555Y-85585501D01*
X209476000Y-85630638D01*
X209476000Y-86369362D01*
X209471555Y-86414499D01*
X209460180Y-86451995D01*
X209441708Y-86486554D01*
X209416847Y-86516847D01*
X209386554Y-86541708D01*
X209351995Y-86560180D01*
X209314499Y-86571555D01*
X209269362Y-86576000D01*
X208630638Y-86576000D01*
X208585501Y-86571555D01*
X208548005Y-86560180D01*
X208513446Y-86541708D01*
X208483153Y-86516847D01*
X208458292Y-86486554D01*
X208439820Y-86451995D01*
X208428445Y-86414499D01*
X208424000Y-86369362D01*
X208424000Y-85630638D01*
X208428445Y-85585501D01*
X208439820Y-85548005D01*
X208458292Y-85513446D01*
X208483153Y-85483153D01*
X208513446Y-85458292D01*
X208548005Y-85439820D01*
X208585501Y-85428445D01*
X208630638Y-85424000D01*
X209269362Y-85424000D01*
X209314499Y-85428445D01*
G37*
G36*
X221914499Y-85403445D02*
G01*
X221951995Y-85414820D01*
X221986554Y-85433292D01*
X222016847Y-85458153D01*
X222041708Y-85488446D01*
X222060180Y-85523005D01*
X222071555Y-85560501D01*
X222076000Y-85605638D01*
X222076000Y-86344362D01*
X222071555Y-86389499D01*
X222060180Y-86426995D01*
X222041708Y-86461554D01*
X222016847Y-86491847D01*
X221986554Y-86516708D01*
X221951995Y-86535180D01*
X221914499Y-86546555D01*
X221869362Y-86551000D01*
X221230638Y-86551000D01*
X221185501Y-86546555D01*
X221148005Y-86535180D01*
X221113446Y-86516708D01*
X221083153Y-86491847D01*
X221058292Y-86461554D01*
X221039820Y-86426995D01*
X221028445Y-86389499D01*
X221024000Y-86344362D01*
X221024000Y-85605638D01*
X221028445Y-85560501D01*
X221039820Y-85523005D01*
X221058292Y-85488446D01*
X221083153Y-85458153D01*
X221113446Y-85433292D01*
X221148005Y-85414820D01*
X221185501Y-85403445D01*
X221230638Y-85399000D01*
X221869362Y-85399000D01*
X221914499Y-85403445D01*
G37*
G36*
X218164499Y-85403445D02*
G01*
X218201995Y-85414820D01*
X218236554Y-85433292D01*
X218266847Y-85458153D01*
X218291708Y-85488446D01*
X218310180Y-85523005D01*
X218321555Y-85560501D01*
X218326000Y-85605638D01*
X218326000Y-86344362D01*
X218321555Y-86389499D01*
X218310180Y-86426995D01*
X218291708Y-86461554D01*
X218266847Y-86491847D01*
X218236554Y-86516708D01*
X218201995Y-86535180D01*
X218164499Y-86546555D01*
X218119362Y-86551000D01*
X217480638Y-86551000D01*
X217435501Y-86546555D01*
X217398005Y-86535180D01*
X217363446Y-86516708D01*
X217333153Y-86491847D01*
X217308292Y-86461554D01*
X217289820Y-86426995D01*
X217278445Y-86389499D01*
X217274000Y-86344362D01*
X217274000Y-85605638D01*
X217278445Y-85560501D01*
X217289820Y-85523005D01*
X217308292Y-85488446D01*
X217333153Y-85458153D01*
X217363446Y-85433292D01*
X217398005Y-85414820D01*
X217435501Y-85403445D01*
X217480638Y-85399000D01*
X218119362Y-85399000D01*
X218164499Y-85403445D01*
G37*
G36*
X220014499Y-85403445D02*
G01*
X220051995Y-85414820D01*
X220086554Y-85433292D01*
X220116847Y-85458153D01*
X220141708Y-85488446D01*
X220160180Y-85523005D01*
X220171555Y-85560501D01*
X220176000Y-85605638D01*
X220176000Y-86344362D01*
X220171555Y-86389499D01*
X220160180Y-86426995D01*
X220141708Y-86461554D01*
X220116847Y-86491847D01*
X220086554Y-86516708D01*
X220051995Y-86535180D01*
X220014499Y-86546555D01*
X219969362Y-86551000D01*
X219330638Y-86551000D01*
X219285501Y-86546555D01*
X219248005Y-86535180D01*
X219213446Y-86516708D01*
X219183153Y-86491847D01*
X219158292Y-86461554D01*
X219139820Y-86426995D01*
X219128445Y-86389499D01*
X219124000Y-86344362D01*
X219124000Y-85605638D01*
X219128445Y-85560501D01*
X219139820Y-85523005D01*
X219158292Y-85488446D01*
X219183153Y-85458153D01*
X219213446Y-85433292D01*
X219248005Y-85414820D01*
X219285501Y-85403445D01*
X219330638Y-85399000D01*
X219969362Y-85399000D01*
X220014499Y-85403445D01*
G37*
G36*
X197958851Y-84563000D02*
G01*
X198112812Y-84593624D01*
X198276784Y-84661544D01*
X198424354Y-84760147D01*
X198549853Y-84885646D01*
X198648456Y-85033216D01*
X198716376Y-85197188D01*
X198751000Y-85371259D01*
X198751000Y-85548741D01*
X198716376Y-85722812D01*
X198648456Y-85886784D01*
X198549853Y-86034354D01*
X198424354Y-86159853D01*
X198276784Y-86258456D01*
X198112812Y-86326376D01*
X197963512Y-86356073D01*
X197938742Y-86361000D01*
X197761258Y-86361000D01*
X197736488Y-86356073D01*
X197587188Y-86326376D01*
X197423216Y-86258456D01*
X197275646Y-86159853D01*
X197150147Y-86034354D01*
X197051544Y-85886784D01*
X196983624Y-85722812D01*
X196949000Y-85548741D01*
X196949000Y-85371259D01*
X196983624Y-85197188D01*
X197051544Y-85033216D01*
X197150147Y-84885646D01*
X197275646Y-84760147D01*
X197423216Y-84661544D01*
X197587188Y-84593624D01*
X197741149Y-84563000D01*
X197761258Y-84559000D01*
X197938742Y-84559000D01*
X197958851Y-84563000D01*
G37*
G36*
X200498851Y-84563000D02*
G01*
X200652812Y-84593624D01*
X200816784Y-84661544D01*
X200964354Y-84760147D01*
X201089853Y-84885646D01*
X201188456Y-85033216D01*
X201256376Y-85197188D01*
X201291000Y-85371259D01*
X201291000Y-85548741D01*
X201256376Y-85722812D01*
X201188456Y-85886784D01*
X201089853Y-86034354D01*
X200964354Y-86159853D01*
X200816784Y-86258456D01*
X200652812Y-86326376D01*
X200503512Y-86356073D01*
X200478742Y-86361000D01*
X200301258Y-86361000D01*
X200276488Y-86356073D01*
X200127188Y-86326376D01*
X199963216Y-86258456D01*
X199815646Y-86159853D01*
X199690147Y-86034354D01*
X199591544Y-85886784D01*
X199523624Y-85722812D01*
X199489000Y-85548741D01*
X199489000Y-85371259D01*
X199523624Y-85197188D01*
X199591544Y-85033216D01*
X199690147Y-84885646D01*
X199815646Y-84760147D01*
X199963216Y-84661544D01*
X200127188Y-84593624D01*
X200281149Y-84563000D01*
X200301258Y-84559000D01*
X200478742Y-84559000D01*
X200498851Y-84563000D01*
G37*
G36*
X215914499Y-83678445D02*
G01*
X215951995Y-83689820D01*
X215986554Y-83708292D01*
X216016847Y-83733153D01*
X216041708Y-83763446D01*
X216060180Y-83798005D01*
X216071555Y-83835501D01*
X216076000Y-83880638D01*
X216076000Y-84619362D01*
X216071555Y-84664499D01*
X216060180Y-84701995D01*
X216041708Y-84736554D01*
X216016847Y-84766847D01*
X215986554Y-84791708D01*
X215951995Y-84810180D01*
X215914499Y-84821555D01*
X215869362Y-84826000D01*
X215230638Y-84826000D01*
X215185501Y-84821555D01*
X215148005Y-84810180D01*
X215113446Y-84791708D01*
X215083153Y-84766847D01*
X215058292Y-84736554D01*
X215039820Y-84701995D01*
X215028445Y-84664499D01*
X215024000Y-84619362D01*
X215024000Y-83880638D01*
X215028445Y-83835501D01*
X215039820Y-83798005D01*
X215058292Y-83763446D01*
X215083153Y-83733153D01*
X215113446Y-83708292D01*
X215148005Y-83689820D01*
X215185501Y-83678445D01*
X215230638Y-83674000D01*
X215869362Y-83674000D01*
X215914499Y-83678445D01*
G37*
G36*
X209314499Y-83678445D02*
G01*
X209351995Y-83689820D01*
X209386554Y-83708292D01*
X209416847Y-83733153D01*
X209441708Y-83763446D01*
X209460180Y-83798005D01*
X209471555Y-83835501D01*
X209476000Y-83880638D01*
X209476000Y-84619362D01*
X209471555Y-84664499D01*
X209460180Y-84701995D01*
X209441708Y-84736554D01*
X209416847Y-84766847D01*
X209386554Y-84791708D01*
X209351995Y-84810180D01*
X209314499Y-84821555D01*
X209269362Y-84826000D01*
X208630638Y-84826000D01*
X208585501Y-84821555D01*
X208548005Y-84810180D01*
X208513446Y-84791708D01*
X208483153Y-84766847D01*
X208458292Y-84736554D01*
X208439820Y-84701995D01*
X208428445Y-84664499D01*
X208424000Y-84619362D01*
X208424000Y-83880638D01*
X208428445Y-83835501D01*
X208439820Y-83798005D01*
X208458292Y-83763446D01*
X208483153Y-83733153D01*
X208513446Y-83708292D01*
X208548005Y-83689820D01*
X208585501Y-83678445D01*
X208630638Y-83674000D01*
X209269362Y-83674000D01*
X209314499Y-83678445D01*
G37*
G36*
X211464499Y-83678445D02*
G01*
X211501995Y-83689820D01*
X211536554Y-83708292D01*
X211566847Y-83733153D01*
X211591708Y-83763446D01*
X211610180Y-83798005D01*
X211621555Y-83835501D01*
X211626000Y-83880638D01*
X211626000Y-84619362D01*
X211621555Y-84664499D01*
X211610180Y-84701995D01*
X211591708Y-84736554D01*
X211566847Y-84766847D01*
X211536554Y-84791708D01*
X211501995Y-84810180D01*
X211464499Y-84821555D01*
X211419362Y-84826000D01*
X210780638Y-84826000D01*
X210735501Y-84821555D01*
X210698005Y-84810180D01*
X210663446Y-84791708D01*
X210633153Y-84766847D01*
X210608292Y-84736554D01*
X210589820Y-84701995D01*
X210578445Y-84664499D01*
X210574000Y-84619362D01*
X210574000Y-83880638D01*
X210578445Y-83835501D01*
X210589820Y-83798005D01*
X210608292Y-83763446D01*
X210633153Y-83733153D01*
X210663446Y-83708292D01*
X210698005Y-83689820D01*
X210735501Y-83678445D01*
X210780638Y-83674000D01*
X211419362Y-83674000D01*
X211464499Y-83678445D01*
G37*
G36*
X207114499Y-83678445D02*
G01*
X207151995Y-83689820D01*
X207186554Y-83708292D01*
X207216847Y-83733153D01*
X207241708Y-83763446D01*
X207260180Y-83798005D01*
X207271555Y-83835501D01*
X207276000Y-83880638D01*
X207276000Y-84619362D01*
X207271555Y-84664499D01*
X207260180Y-84701995D01*
X207241708Y-84736554D01*
X207216847Y-84766847D01*
X207186554Y-84791708D01*
X207151995Y-84810180D01*
X207114499Y-84821555D01*
X207069362Y-84826000D01*
X206430638Y-84826000D01*
X206385501Y-84821555D01*
X206348005Y-84810180D01*
X206313446Y-84791708D01*
X206283153Y-84766847D01*
X206258292Y-84736554D01*
X206239820Y-84701995D01*
X206228445Y-84664499D01*
X206224000Y-84619362D01*
X206224000Y-83880638D01*
X206228445Y-83835501D01*
X206239820Y-83798005D01*
X206258292Y-83763446D01*
X206283153Y-83733153D01*
X206313446Y-83708292D01*
X206348005Y-83689820D01*
X206385501Y-83678445D01*
X206430638Y-83674000D01*
X207069362Y-83674000D01*
X207114499Y-83678445D01*
G37*
G36*
X213664499Y-83678445D02*
G01*
X213701995Y-83689820D01*
X213736554Y-83708292D01*
X213766847Y-83733153D01*
X213791708Y-83763446D01*
X213810180Y-83798005D01*
X213821555Y-83835501D01*
X213826000Y-83880638D01*
X213826000Y-84619362D01*
X213821555Y-84664499D01*
X213810180Y-84701995D01*
X213791708Y-84736554D01*
X213766847Y-84766847D01*
X213736554Y-84791708D01*
X213701995Y-84810180D01*
X213664499Y-84821555D01*
X213619362Y-84826000D01*
X212980638Y-84826000D01*
X212935501Y-84821555D01*
X212898005Y-84810180D01*
X212863446Y-84791708D01*
X212833153Y-84766847D01*
X212808292Y-84736554D01*
X212789820Y-84701995D01*
X212778445Y-84664499D01*
X212774000Y-84619362D01*
X212774000Y-83880638D01*
X212778445Y-83835501D01*
X212789820Y-83798005D01*
X212808292Y-83763446D01*
X212833153Y-83733153D01*
X212863446Y-83708292D01*
X212898005Y-83689820D01*
X212935501Y-83678445D01*
X212980638Y-83674000D01*
X213619362Y-83674000D01*
X213664499Y-83678445D01*
G37*
G36*
X218164499Y-83653445D02*
G01*
X218201995Y-83664820D01*
X218236554Y-83683292D01*
X218266847Y-83708153D01*
X218291708Y-83738446D01*
X218310180Y-83773005D01*
X218321555Y-83810501D01*
X218326000Y-83855638D01*
X218326000Y-84594362D01*
X218321555Y-84639499D01*
X218310180Y-84676995D01*
X218291708Y-84711554D01*
X218266847Y-84741847D01*
X218236554Y-84766708D01*
X218201995Y-84785180D01*
X218164499Y-84796555D01*
X218119362Y-84801000D01*
X217480638Y-84801000D01*
X217435501Y-84796555D01*
X217398005Y-84785180D01*
X217363446Y-84766708D01*
X217333153Y-84741847D01*
X217308292Y-84711554D01*
X217289820Y-84676995D01*
X217278445Y-84639499D01*
X217274000Y-84594362D01*
X217274000Y-83855638D01*
X217278445Y-83810501D01*
X217289820Y-83773005D01*
X217308292Y-83738446D01*
X217333153Y-83708153D01*
X217363446Y-83683292D01*
X217398005Y-83664820D01*
X217435501Y-83653445D01*
X217480638Y-83649000D01*
X218119362Y-83649000D01*
X218164499Y-83653445D01*
G37*
G36*
X220014499Y-83653445D02*
G01*
X220051995Y-83664820D01*
X220086554Y-83683292D01*
X220116847Y-83708153D01*
X220141708Y-83738446D01*
X220160180Y-83773005D01*
X220171555Y-83810501D01*
X220176000Y-83855638D01*
X220176000Y-84594362D01*
X220171555Y-84639499D01*
X220160180Y-84676995D01*
X220141708Y-84711554D01*
X220116847Y-84741847D01*
X220086554Y-84766708D01*
X220051995Y-84785180D01*
X220014499Y-84796555D01*
X219969362Y-84801000D01*
X219330638Y-84801000D01*
X219285501Y-84796555D01*
X219248005Y-84785180D01*
X219213446Y-84766708D01*
X219183153Y-84741847D01*
X219158292Y-84711554D01*
X219139820Y-84676995D01*
X219128445Y-84639499D01*
X219124000Y-84594362D01*
X219124000Y-83855638D01*
X219128445Y-83810501D01*
X219139820Y-83773005D01*
X219158292Y-83738446D01*
X219183153Y-83708153D01*
X219213446Y-83683292D01*
X219248005Y-83664820D01*
X219285501Y-83653445D01*
X219330638Y-83649000D01*
X219969362Y-83649000D01*
X220014499Y-83653445D01*
G37*
G36*
X221914499Y-83653445D02*
G01*
X221951995Y-83664820D01*
X221986554Y-83683292D01*
X222016847Y-83708153D01*
X222041708Y-83738446D01*
X222060180Y-83773005D01*
X222071555Y-83810501D01*
X222076000Y-83855638D01*
X222076000Y-84594362D01*
X222071555Y-84639499D01*
X222060180Y-84676995D01*
X222041708Y-84711554D01*
X222016847Y-84741847D01*
X221986554Y-84766708D01*
X221951995Y-84785180D01*
X221914499Y-84796555D01*
X221869362Y-84801000D01*
X221230638Y-84801000D01*
X221185501Y-84796555D01*
X221148005Y-84785180D01*
X221113446Y-84766708D01*
X221083153Y-84741847D01*
X221058292Y-84711554D01*
X221039820Y-84676995D01*
X221028445Y-84639499D01*
X221024000Y-84594362D01*
X221024000Y-83855638D01*
X221028445Y-83810501D01*
X221039820Y-83773005D01*
X221058292Y-83738446D01*
X221083153Y-83708153D01*
X221113446Y-83683292D01*
X221148005Y-83664820D01*
X221185501Y-83653445D01*
X221230638Y-83649000D01*
X221869362Y-83649000D01*
X221914499Y-83653445D01*
G37*
G36*
X200503512Y-82023927D02*
G01*
X200652812Y-82053624D01*
X200816784Y-82121544D01*
X200964354Y-82220147D01*
X201089853Y-82345646D01*
X201188456Y-82493216D01*
X201256376Y-82657188D01*
X201291000Y-82831259D01*
X201291000Y-83008741D01*
X201256376Y-83182812D01*
X201188456Y-83346784D01*
X201089853Y-83494354D01*
X200964354Y-83619853D01*
X200816784Y-83718456D01*
X200652812Y-83786376D01*
X200503512Y-83816073D01*
X200478742Y-83821000D01*
X200301258Y-83821000D01*
X200276488Y-83816073D01*
X200127188Y-83786376D01*
X199963216Y-83718456D01*
X199815646Y-83619853D01*
X199690147Y-83494354D01*
X199591544Y-83346784D01*
X199523624Y-83182812D01*
X199489000Y-83008741D01*
X199489000Y-82831259D01*
X199523624Y-82657188D01*
X199591544Y-82493216D01*
X199690147Y-82345646D01*
X199815646Y-82220147D01*
X199963216Y-82121544D01*
X200127188Y-82053624D01*
X200276488Y-82023927D01*
X200301258Y-82019000D01*
X200478742Y-82019000D01*
X200503512Y-82023927D01*
G37*
G36*
X197963512Y-82023927D02*
G01*
X198112812Y-82053624D01*
X198276784Y-82121544D01*
X198424354Y-82220147D01*
X198549853Y-82345646D01*
X198648456Y-82493216D01*
X198716376Y-82657188D01*
X198751000Y-82831259D01*
X198751000Y-83008741D01*
X198716376Y-83182812D01*
X198648456Y-83346784D01*
X198549853Y-83494354D01*
X198424354Y-83619853D01*
X198276784Y-83718456D01*
X198112812Y-83786376D01*
X197963512Y-83816073D01*
X197938742Y-83821000D01*
X197761258Y-83821000D01*
X197736488Y-83816073D01*
X197587188Y-83786376D01*
X197423216Y-83718456D01*
X197275646Y-83619853D01*
X197150147Y-83494354D01*
X197051544Y-83346784D01*
X196983624Y-83182812D01*
X196949000Y-83008741D01*
X196949000Y-82831259D01*
X196983624Y-82657188D01*
X197051544Y-82493216D01*
X197150147Y-82345646D01*
X197275646Y-82220147D01*
X197423216Y-82121544D01*
X197587188Y-82053624D01*
X197736488Y-82023927D01*
X197761258Y-82019000D01*
X197938742Y-82019000D01*
X197963512Y-82023927D01*
G37*
G36*
X203189499Y-81278445D02*
G01*
X203226995Y-81289820D01*
X203261554Y-81308292D01*
X203291847Y-81333153D01*
X203316708Y-81363446D01*
X203335180Y-81398005D01*
X203346555Y-81435501D01*
X203351000Y-81480638D01*
X203351000Y-82119362D01*
X203346555Y-82164499D01*
X203335180Y-82201995D01*
X203316708Y-82236554D01*
X203291847Y-82266847D01*
X203261554Y-82291708D01*
X203226995Y-82310180D01*
X203189499Y-82321555D01*
X203144362Y-82326000D01*
X202405638Y-82326000D01*
X202360501Y-82321555D01*
X202323005Y-82310180D01*
X202288446Y-82291708D01*
X202258153Y-82266847D01*
X202233292Y-82236554D01*
X202214820Y-82201995D01*
X202203445Y-82164499D01*
X202199000Y-82119362D01*
X202199000Y-81480638D01*
X202203445Y-81435501D01*
X202214820Y-81398005D01*
X202233292Y-81363446D01*
X202258153Y-81333153D01*
X202288446Y-81308292D01*
X202323005Y-81289820D01*
X202360501Y-81278445D01*
X202405638Y-81274000D01*
X203144362Y-81274000D01*
X203189499Y-81278445D01*
G37*
G36*
X204939499Y-81278445D02*
G01*
X204976995Y-81289820D01*
X205011554Y-81308292D01*
X205041847Y-81333153D01*
X205066708Y-81363446D01*
X205085180Y-81398005D01*
X205096555Y-81435501D01*
X205101000Y-81480638D01*
X205101000Y-82119362D01*
X205096555Y-82164499D01*
X205085180Y-82201995D01*
X205066708Y-82236554D01*
X205041847Y-82266847D01*
X205011554Y-82291708D01*
X204976995Y-82310180D01*
X204939499Y-82321555D01*
X204894362Y-82326000D01*
X204155638Y-82326000D01*
X204110501Y-82321555D01*
X204073005Y-82310180D01*
X204038446Y-82291708D01*
X204008153Y-82266847D01*
X203983292Y-82236554D01*
X203964820Y-82201995D01*
X203953445Y-82164499D01*
X203949000Y-82119362D01*
X203949000Y-81480638D01*
X203953445Y-81435501D01*
X203964820Y-81398005D01*
X203983292Y-81363446D01*
X204008153Y-81333153D01*
X204038446Y-81308292D01*
X204073005Y-81289820D01*
X204110501Y-81278445D01*
X204155638Y-81274000D01*
X204894362Y-81274000D01*
X204939499Y-81278445D01*
G37*
G36*
X197963512Y-79483927D02*
G01*
X198112812Y-79513624D01*
X198276784Y-79581544D01*
X198424354Y-79680147D01*
X198549853Y-79805646D01*
X198648456Y-79953216D01*
X198716376Y-80117188D01*
X198751000Y-80291259D01*
X198751000Y-80468741D01*
X198716376Y-80642812D01*
X198648456Y-80806784D01*
X198549853Y-80954354D01*
X198424354Y-81079853D01*
X198276784Y-81178456D01*
X198112812Y-81246376D01*
X197973933Y-81274000D01*
X197938742Y-81281000D01*
X197761258Y-81281000D01*
X197726067Y-81274000D01*
X197587188Y-81246376D01*
X197423216Y-81178456D01*
X197275646Y-81079853D01*
X197150147Y-80954354D01*
X197051544Y-80806784D01*
X196983624Y-80642812D01*
X196949000Y-80468741D01*
X196949000Y-80291259D01*
X196983624Y-80117188D01*
X197051544Y-79953216D01*
X197150147Y-79805646D01*
X197275646Y-79680147D01*
X197423216Y-79581544D01*
X197587188Y-79513624D01*
X197736488Y-79483927D01*
X197761258Y-79479000D01*
X197938742Y-79479000D01*
X197963512Y-79483927D01*
G37*
G36*
X200503512Y-79483927D02*
G01*
X200652812Y-79513624D01*
X200816784Y-79581544D01*
X200964354Y-79680147D01*
X201089853Y-79805646D01*
X201188456Y-79953216D01*
X201256376Y-80117188D01*
X201291000Y-80291259D01*
X201291000Y-80468741D01*
X201256376Y-80642812D01*
X201188456Y-80806784D01*
X201089853Y-80954354D01*
X200964354Y-81079853D01*
X200816784Y-81178456D01*
X200652812Y-81246376D01*
X200513933Y-81274000D01*
X200478742Y-81281000D01*
X200301258Y-81281000D01*
X200266067Y-81274000D01*
X200127188Y-81246376D01*
X199963216Y-81178456D01*
X199815646Y-81079853D01*
X199690147Y-80954354D01*
X199591544Y-80806784D01*
X199523624Y-80642812D01*
X199489000Y-80468741D01*
X199489000Y-80291259D01*
X199523624Y-80117188D01*
X199591544Y-79953216D01*
X199690147Y-79805646D01*
X199815646Y-79680147D01*
X199963216Y-79581544D01*
X200127188Y-79513624D01*
X200276488Y-79483927D01*
X200301258Y-79479000D01*
X200478742Y-79479000D01*
X200503512Y-79483927D01*
G37*
G36*
X208739499Y-79478445D02*
G01*
X208776995Y-79489820D01*
X208811554Y-79508292D01*
X208841847Y-79533153D01*
X208866708Y-79563446D01*
X208885180Y-79598005D01*
X208896555Y-79635501D01*
X208901000Y-79680638D01*
X208901000Y-80319362D01*
X208896555Y-80364499D01*
X208885180Y-80401995D01*
X208866708Y-80436554D01*
X208841847Y-80466847D01*
X208811554Y-80491708D01*
X208776995Y-80510180D01*
X208739499Y-80521555D01*
X208694362Y-80526000D01*
X207955638Y-80526000D01*
X207910501Y-80521555D01*
X207873005Y-80510180D01*
X207838446Y-80491708D01*
X207808153Y-80466847D01*
X207783292Y-80436554D01*
X207764820Y-80401995D01*
X207753445Y-80364499D01*
X207749000Y-80319362D01*
X207749000Y-79680638D01*
X207753445Y-79635501D01*
X207764820Y-79598005D01*
X207783292Y-79563446D01*
X207808153Y-79533153D01*
X207838446Y-79508292D01*
X207873005Y-79489820D01*
X207910501Y-79478445D01*
X207955638Y-79474000D01*
X208694362Y-79474000D01*
X208739499Y-79478445D01*
G37*
G36*
X210489499Y-79478445D02*
G01*
X210526995Y-79489820D01*
X210561554Y-79508292D01*
X210591847Y-79533153D01*
X210616708Y-79563446D01*
X210635180Y-79598005D01*
X210646555Y-79635501D01*
X210651000Y-79680638D01*
X210651000Y-80319362D01*
X210646555Y-80364499D01*
X210635180Y-80401995D01*
X210616708Y-80436554D01*
X210591847Y-80466847D01*
X210561554Y-80491708D01*
X210526995Y-80510180D01*
X210489499Y-80521555D01*
X210444362Y-80526000D01*
X209705638Y-80526000D01*
X209660501Y-80521555D01*
X209623005Y-80510180D01*
X209588446Y-80491708D01*
X209558153Y-80466847D01*
X209533292Y-80436554D01*
X209514820Y-80401995D01*
X209503445Y-80364499D01*
X209499000Y-80319362D01*
X209499000Y-79680638D01*
X209503445Y-79635501D01*
X209514820Y-79598005D01*
X209533292Y-79563446D01*
X209558153Y-79533153D01*
X209588446Y-79508292D01*
X209623005Y-79489820D01*
X209660501Y-79478445D01*
X209705638Y-79474000D01*
X210444362Y-79474000D01*
X210489499Y-79478445D01*
G37*
G36*
X214014499Y-79353445D02*
G01*
X214051995Y-79364820D01*
X214086554Y-79383292D01*
X214116847Y-79408153D01*
X214141708Y-79438446D01*
X214160180Y-79473005D01*
X214171555Y-79510501D01*
X214176000Y-79555638D01*
X214176000Y-80294362D01*
X214171555Y-80339499D01*
X214160180Y-80376995D01*
X214141708Y-80411554D01*
X214116847Y-80441847D01*
X214086554Y-80466708D01*
X214051995Y-80485180D01*
X214014499Y-80496555D01*
X213969362Y-80501000D01*
X213330638Y-80501000D01*
X213285501Y-80496555D01*
X213248005Y-80485180D01*
X213213446Y-80466708D01*
X213183153Y-80441847D01*
X213158292Y-80411554D01*
X213139820Y-80376995D01*
X213128445Y-80339499D01*
X213124000Y-80294362D01*
X213124000Y-79555638D01*
X213128445Y-79510501D01*
X213139820Y-79473005D01*
X213158292Y-79438446D01*
X213183153Y-79408153D01*
X213213446Y-79383292D01*
X213248005Y-79364820D01*
X213285501Y-79353445D01*
X213330638Y-79349000D01*
X213969362Y-79349000D01*
X214014499Y-79353445D01*
G37*
G36*
X203014499Y-79353445D02*
G01*
X203051995Y-79364820D01*
X203086554Y-79383292D01*
X203116847Y-79408153D01*
X203141708Y-79438446D01*
X203160180Y-79473005D01*
X203171555Y-79510501D01*
X203176000Y-79555638D01*
X203176000Y-80294362D01*
X203171555Y-80339499D01*
X203160180Y-80376995D01*
X203141708Y-80411554D01*
X203116847Y-80441847D01*
X203086554Y-80466708D01*
X203051995Y-80485180D01*
X203014499Y-80496555D01*
X202969362Y-80501000D01*
X202330638Y-80501000D01*
X202285501Y-80496555D01*
X202248005Y-80485180D01*
X202213446Y-80466708D01*
X202183153Y-80441847D01*
X202158292Y-80411554D01*
X202139820Y-80376995D01*
X202128445Y-80339499D01*
X202124000Y-80294362D01*
X202124000Y-79555638D01*
X202128445Y-79510501D01*
X202139820Y-79473005D01*
X202158292Y-79438446D01*
X202183153Y-79408153D01*
X202213446Y-79383292D01*
X202248005Y-79364820D01*
X202285501Y-79353445D01*
X202330638Y-79349000D01*
X202969362Y-79349000D01*
X203014499Y-79353445D01*
G37*
G36*
X205064499Y-79353445D02*
G01*
X205101995Y-79364820D01*
X205136554Y-79383292D01*
X205166847Y-79408153D01*
X205191708Y-79438446D01*
X205210180Y-79473005D01*
X205221555Y-79510501D01*
X205226000Y-79555638D01*
X205226000Y-80294362D01*
X205221555Y-80339499D01*
X205210180Y-80376995D01*
X205191708Y-80411554D01*
X205166847Y-80441847D01*
X205136554Y-80466708D01*
X205101995Y-80485180D01*
X205064499Y-80496555D01*
X205019362Y-80501000D01*
X204380638Y-80501000D01*
X204335501Y-80496555D01*
X204298005Y-80485180D01*
X204263446Y-80466708D01*
X204233153Y-80441847D01*
X204208292Y-80411554D01*
X204189820Y-80376995D01*
X204178445Y-80339499D01*
X204174000Y-80294362D01*
X204174000Y-79555638D01*
X204178445Y-79510501D01*
X204189820Y-79473005D01*
X204208292Y-79438446D01*
X204233153Y-79408153D01*
X204263446Y-79383292D01*
X204298005Y-79364820D01*
X204335501Y-79353445D01*
X204380638Y-79349000D01*
X205019362Y-79349000D01*
X205064499Y-79353445D01*
G37*
G36*
X218214499Y-79078445D02*
G01*
X218251995Y-79089820D01*
X218286554Y-79108292D01*
X218316847Y-79133153D01*
X218341708Y-79163446D01*
X218360180Y-79198005D01*
X218371555Y-79235501D01*
X218376000Y-79280638D01*
X218376000Y-80019362D01*
X218371555Y-80064499D01*
X218360180Y-80101995D01*
X218341708Y-80136554D01*
X218316847Y-80166847D01*
X218286554Y-80191708D01*
X218251995Y-80210180D01*
X218214499Y-80221555D01*
X218169362Y-80226000D01*
X217530638Y-80226000D01*
X217485501Y-80221555D01*
X217448005Y-80210180D01*
X217413446Y-80191708D01*
X217383153Y-80166847D01*
X217358292Y-80136554D01*
X217339820Y-80101995D01*
X217328445Y-80064499D01*
X217324000Y-80019362D01*
X217324000Y-79280638D01*
X217328445Y-79235501D01*
X217339820Y-79198005D01*
X217358292Y-79163446D01*
X217383153Y-79133153D01*
X217413446Y-79108292D01*
X217448005Y-79089820D01*
X217485501Y-79078445D01*
X217530638Y-79074000D01*
X218169362Y-79074000D01*
X218214499Y-79078445D01*
G37*
G36*
X219914499Y-79078445D02*
G01*
X219951995Y-79089820D01*
X219986554Y-79108292D01*
X220016847Y-79133153D01*
X220041708Y-79163446D01*
X220060180Y-79198005D01*
X220071555Y-79235501D01*
X220076000Y-79280638D01*
X220076000Y-80019362D01*
X220071555Y-80064499D01*
X220060180Y-80101995D01*
X220041708Y-80136554D01*
X220016847Y-80166847D01*
X219986554Y-80191708D01*
X219951995Y-80210180D01*
X219914499Y-80221555D01*
X219869362Y-80226000D01*
X219230638Y-80226000D01*
X219185501Y-80221555D01*
X219148005Y-80210180D01*
X219113446Y-80191708D01*
X219083153Y-80166847D01*
X219058292Y-80136554D01*
X219039820Y-80101995D01*
X219028445Y-80064499D01*
X219024000Y-80019362D01*
X219024000Y-79280638D01*
X219028445Y-79235501D01*
X219039820Y-79198005D01*
X219058292Y-79163446D01*
X219083153Y-79133153D01*
X219113446Y-79108292D01*
X219148005Y-79089820D01*
X219185501Y-79078445D01*
X219230638Y-79074000D01*
X219869362Y-79074000D01*
X219914499Y-79078445D01*
G37*
G36*
X211883642Y-77979781D02*
G01*
X212029414Y-78040162D01*
X212029416Y-78040163D01*
X212160608Y-78127822D01*
X212272178Y-78239392D01*
X212359837Y-78370584D01*
X212359838Y-78370586D01*
X212420219Y-78516358D01*
X212451000Y-78671107D01*
X212451000Y-78828893D01*
X212420219Y-78983642D01*
X212368587Y-79108292D01*
X212359837Y-79129416D01*
X212272178Y-79260608D01*
X212160608Y-79372178D01*
X212029416Y-79459837D01*
X212029415Y-79459838D01*
X212029414Y-79459838D01*
X211883642Y-79520219D01*
X211728893Y-79551000D01*
X211571107Y-79551000D01*
X211416358Y-79520219D01*
X211270586Y-79459838D01*
X211270585Y-79459838D01*
X211270584Y-79459837D01*
X211139392Y-79372178D01*
X211027822Y-79260608D01*
X210940163Y-79129416D01*
X210931413Y-79108292D01*
X210879781Y-78983642D01*
X210849000Y-78828893D01*
X210849000Y-78671107D01*
X210879781Y-78516358D01*
X210940162Y-78370586D01*
X210940163Y-78370584D01*
X211027822Y-78239392D01*
X211139392Y-78127822D01*
X211270584Y-78040163D01*
X211270586Y-78040162D01*
X211416358Y-77979781D01*
X211571107Y-77949000D01*
X211728893Y-77949000D01*
X211883642Y-77979781D01*
G37*
G36*
X207003642Y-77979781D02*
G01*
X207149414Y-78040162D01*
X207149416Y-78040163D01*
X207280608Y-78127822D01*
X207392178Y-78239392D01*
X207479837Y-78370584D01*
X207479838Y-78370586D01*
X207540219Y-78516358D01*
X207571000Y-78671107D01*
X207571000Y-78828893D01*
X207540219Y-78983642D01*
X207488587Y-79108292D01*
X207479837Y-79129416D01*
X207392178Y-79260608D01*
X207280608Y-79372178D01*
X207149416Y-79459837D01*
X207149415Y-79459838D01*
X207149414Y-79459838D01*
X207003642Y-79520219D01*
X206848893Y-79551000D01*
X206691107Y-79551000D01*
X206536358Y-79520219D01*
X206390586Y-79459838D01*
X206390585Y-79459838D01*
X206390584Y-79459837D01*
X206259392Y-79372178D01*
X206147822Y-79260608D01*
X206060163Y-79129416D01*
X206051413Y-79108292D01*
X205999781Y-78983642D01*
X205969000Y-78828893D01*
X205969000Y-78671107D01*
X205999781Y-78516358D01*
X206060162Y-78370586D01*
X206060163Y-78370584D01*
X206147822Y-78239392D01*
X206259392Y-78127822D01*
X206390584Y-78040163D01*
X206390586Y-78040162D01*
X206536358Y-77979781D01*
X206691107Y-77949000D01*
X206848893Y-77949000D01*
X207003642Y-77979781D01*
G37*
G36*
X214014499Y-77603445D02*
G01*
X214051995Y-77614820D01*
X214086554Y-77633292D01*
X214116847Y-77658153D01*
X214141708Y-77688446D01*
X214160180Y-77723005D01*
X214171555Y-77760501D01*
X214176000Y-77805638D01*
X214176000Y-78544362D01*
X214171555Y-78589499D01*
X214160180Y-78626995D01*
X214141708Y-78661554D01*
X214116847Y-78691847D01*
X214086554Y-78716708D01*
X214051995Y-78735180D01*
X214014499Y-78746555D01*
X213969362Y-78751000D01*
X213330638Y-78751000D01*
X213285501Y-78746555D01*
X213248005Y-78735180D01*
X213213446Y-78716708D01*
X213183153Y-78691847D01*
X213158292Y-78661554D01*
X213139820Y-78626995D01*
X213128445Y-78589499D01*
X213124000Y-78544362D01*
X213124000Y-77805638D01*
X213128445Y-77760501D01*
X213139820Y-77723005D01*
X213158292Y-77688446D01*
X213183153Y-77658153D01*
X213213446Y-77633292D01*
X213248005Y-77614820D01*
X213285501Y-77603445D01*
X213330638Y-77599000D01*
X213969362Y-77599000D01*
X214014499Y-77603445D01*
G37*
G36*
X205064499Y-77603445D02*
G01*
X205101995Y-77614820D01*
X205136554Y-77633292D01*
X205166847Y-77658153D01*
X205191708Y-77688446D01*
X205210180Y-77723005D01*
X205221555Y-77760501D01*
X205226000Y-77805638D01*
X205226000Y-78544362D01*
X205221555Y-78589499D01*
X205210180Y-78626995D01*
X205191708Y-78661554D01*
X205166847Y-78691847D01*
X205136554Y-78716708D01*
X205101995Y-78735180D01*
X205064499Y-78746555D01*
X205019362Y-78751000D01*
X204380638Y-78751000D01*
X204335501Y-78746555D01*
X204298005Y-78735180D01*
X204263446Y-78716708D01*
X204233153Y-78691847D01*
X204208292Y-78661554D01*
X204189820Y-78626995D01*
X204178445Y-78589499D01*
X204174000Y-78544362D01*
X204174000Y-77805638D01*
X204178445Y-77760501D01*
X204189820Y-77723005D01*
X204208292Y-77688446D01*
X204233153Y-77658153D01*
X204263446Y-77633292D01*
X204298005Y-77614820D01*
X204335501Y-77603445D01*
X204380638Y-77599000D01*
X205019362Y-77599000D01*
X205064499Y-77603445D01*
G37*
G36*
X203014499Y-77603445D02*
G01*
X203051995Y-77614820D01*
X203086554Y-77633292D01*
X203116847Y-77658153D01*
X203141708Y-77688446D01*
X203160180Y-77723005D01*
X203171555Y-77760501D01*
X203176000Y-77805638D01*
X203176000Y-78544362D01*
X203171555Y-78589499D01*
X203160180Y-78626995D01*
X203141708Y-78661554D01*
X203116847Y-78691847D01*
X203086554Y-78716708D01*
X203051995Y-78735180D01*
X203014499Y-78746555D01*
X202969362Y-78751000D01*
X202330638Y-78751000D01*
X202285501Y-78746555D01*
X202248005Y-78735180D01*
X202213446Y-78716708D01*
X202183153Y-78691847D01*
X202158292Y-78661554D01*
X202139820Y-78626995D01*
X202128445Y-78589499D01*
X202124000Y-78544362D01*
X202124000Y-77805638D01*
X202128445Y-77760501D01*
X202139820Y-77723005D01*
X202158292Y-77688446D01*
X202183153Y-77658153D01*
X202213446Y-77633292D01*
X202248005Y-77614820D01*
X202285501Y-77603445D01*
X202330638Y-77599000D01*
X202969362Y-77599000D01*
X203014499Y-77603445D01*
G37*
G36*
X200503512Y-76943927D02*
G01*
X200652812Y-76973624D01*
X200816784Y-77041544D01*
X200964354Y-77140147D01*
X201089853Y-77265646D01*
X201188456Y-77413216D01*
X201256376Y-77577188D01*
X201291000Y-77751259D01*
X201291000Y-77928741D01*
X201256376Y-78102812D01*
X201188456Y-78266784D01*
X201089853Y-78414354D01*
X200964354Y-78539853D01*
X200816784Y-78638456D01*
X200652812Y-78706376D01*
X200508001Y-78735180D01*
X200478742Y-78741000D01*
X200301258Y-78741000D01*
X200271999Y-78735180D01*
X200127188Y-78706376D01*
X199963216Y-78638456D01*
X199815646Y-78539853D01*
X199690147Y-78414354D01*
X199591544Y-78266784D01*
X199523624Y-78102812D01*
X199489000Y-77928741D01*
X199489000Y-77751259D01*
X199523624Y-77577188D01*
X199591544Y-77413216D01*
X199690147Y-77265646D01*
X199815646Y-77140147D01*
X199963216Y-77041544D01*
X200127188Y-76973624D01*
X200276488Y-76943927D01*
X200301258Y-76939000D01*
X200478742Y-76939000D01*
X200503512Y-76943927D01*
G37*
G36*
X198751000Y-78741000D02*
G01*
X196949000Y-78741000D01*
X196949000Y-76939000D01*
X198751000Y-76939000D01*
X198751000Y-78741000D01*
G37*
G36*
X219914499Y-77328445D02*
G01*
X219951995Y-77339820D01*
X219986554Y-77358292D01*
X220016847Y-77383153D01*
X220041708Y-77413446D01*
X220060180Y-77448005D01*
X220071555Y-77485501D01*
X220076000Y-77530638D01*
X220076000Y-78269362D01*
X220071555Y-78314499D01*
X220060180Y-78351995D01*
X220041708Y-78386554D01*
X220016847Y-78416847D01*
X219986554Y-78441708D01*
X219951995Y-78460180D01*
X219914499Y-78471555D01*
X219869362Y-78476000D01*
X219230638Y-78476000D01*
X219185501Y-78471555D01*
X219148005Y-78460180D01*
X219113446Y-78441708D01*
X219083153Y-78416847D01*
X219058292Y-78386554D01*
X219039820Y-78351995D01*
X219028445Y-78314499D01*
X219024000Y-78269362D01*
X219024000Y-77530638D01*
X219028445Y-77485501D01*
X219039820Y-77448005D01*
X219058292Y-77413446D01*
X219083153Y-77383153D01*
X219113446Y-77358292D01*
X219148005Y-77339820D01*
X219185501Y-77328445D01*
X219230638Y-77324000D01*
X219869362Y-77324000D01*
X219914499Y-77328445D01*
G37*
G36*
X218214499Y-77328445D02*
G01*
X218251995Y-77339820D01*
X218286554Y-77358292D01*
X218316847Y-77383153D01*
X218341708Y-77413446D01*
X218360180Y-77448005D01*
X218371555Y-77485501D01*
X218376000Y-77530638D01*
X218376000Y-78269362D01*
X218371555Y-78314499D01*
X218360180Y-78351995D01*
X218341708Y-78386554D01*
X218316847Y-78416847D01*
X218286554Y-78441708D01*
X218251995Y-78460180D01*
X218214499Y-78471555D01*
X218169362Y-78476000D01*
X217530638Y-78476000D01*
X217485501Y-78471555D01*
X217448005Y-78460180D01*
X217413446Y-78441708D01*
X217383153Y-78416847D01*
X217358292Y-78386554D01*
X217339820Y-78351995D01*
X217328445Y-78314499D01*
X217324000Y-78269362D01*
X217324000Y-77530638D01*
X217328445Y-77485501D01*
X217339820Y-77448005D01*
X217358292Y-77413446D01*
X217383153Y-77383153D01*
X217413446Y-77358292D01*
X217448005Y-77339820D01*
X217485501Y-77328445D01*
X217530638Y-77324000D01*
X218169362Y-77324000D01*
X218214499Y-77328445D01*
G37*
M02*
