G04 #@! TF.GenerationSoftware,KiCad,Pcbnew,5.1.6-c6e7f7d~86~ubuntu18.04.1*
G04 #@! TF.CreationDate,2020-06-11T15:17:01+02:00*
G04 #@! TF.ProjectId,sci2can,73636932-6361-46e2-9e6b-696361645f70,1.02*
G04 #@! TF.SameCoordinates,Original*
G04 #@! TF.FileFunction,Copper,L2,Bot*
G04 #@! TF.FilePolarity,Positive*
%FSLAX46Y46*%
G04 Gerber Fmt 4.6, Leading zero omitted, Abs format (unit mm)*
G04 Created by KiCad (PCBNEW 5.1.6-c6e7f7d~86~ubuntu18.04.1) date 2020-06-11 15:17:01*
%MOMM*%
%LPD*%
G01*
G04 APERTURE LIST*
G04 #@! TA.AperFunction,SMDPad,CuDef*
%ADD10R,1.200000X0.900000*%
G04 #@! TD*
G04 #@! TA.AperFunction,ComponentPad*
%ADD11O,1.700000X1.700000*%
G04 #@! TD*
G04 #@! TA.AperFunction,ComponentPad*
%ADD12R,1.700000X1.700000*%
G04 #@! TD*
G04 #@! TA.AperFunction,ComponentPad*
%ADD13C,1.500000*%
G04 #@! TD*
G04 #@! TA.AperFunction,ComponentPad*
%ADD14C,2.600000*%
G04 #@! TD*
G04 #@! TA.AperFunction,ComponentPad*
%ADD15R,2.600000X2.600000*%
G04 #@! TD*
G04 #@! TA.AperFunction,ViaPad*
%ADD16C,0.800000*%
G04 #@! TD*
G04 #@! TA.AperFunction,Conductor*
%ADD17C,0.500000*%
G04 #@! TD*
G04 #@! TA.AperFunction,Conductor*
%ADD18C,0.250000*%
G04 #@! TD*
G04 #@! TA.AperFunction,Conductor*
%ADD19C,1.000000*%
G04 #@! TD*
G04 #@! TA.AperFunction,Conductor*
%ADD20C,0.254000*%
G04 #@! TD*
G04 APERTURE END LIST*
D10*
X204150000Y-96650000D03*
X204150000Y-93350000D03*
X217450000Y-96650000D03*
X217450000Y-93350000D03*
G04 #@! TA.AperFunction,SMDPad,CuDef*
G36*
G01*
X213287500Y-97125000D02*
X212812500Y-97125000D01*
G75*
G02*
X212575000Y-96887500I0J237500D01*
G01*
X212575000Y-96312500D01*
G75*
G02*
X212812500Y-96075000I237500J0D01*
G01*
X213287500Y-96075000D01*
G75*
G02*
X213525000Y-96312500I0J-237500D01*
G01*
X213525000Y-96887500D01*
G75*
G02*
X213287500Y-97125000I-237500J0D01*
G01*
G37*
G04 #@! TD.AperFunction*
G04 #@! TA.AperFunction,SMDPad,CuDef*
G36*
G01*
X213287500Y-95375000D02*
X212812500Y-95375000D01*
G75*
G02*
X212575000Y-95137500I0J237500D01*
G01*
X212575000Y-94562500D01*
G75*
G02*
X212812500Y-94325000I237500J0D01*
G01*
X213287500Y-94325000D01*
G75*
G02*
X213525000Y-94562500I0J-237500D01*
G01*
X213525000Y-95137500D01*
G75*
G02*
X213287500Y-95375000I-237500J0D01*
G01*
G37*
G04 #@! TD.AperFunction*
G04 #@! TA.AperFunction,SMDPad,CuDef*
G36*
G01*
X212725000Y-93337500D02*
X212725000Y-92862500D01*
G75*
G02*
X212962500Y-92625000I237500J0D01*
G01*
X213537500Y-92625000D01*
G75*
G02*
X213775000Y-92862500I0J-237500D01*
G01*
X213775000Y-93337500D01*
G75*
G02*
X213537500Y-93575000I-237500J0D01*
G01*
X212962500Y-93575000D01*
G75*
G02*
X212725000Y-93337500I0J237500D01*
G01*
G37*
G04 #@! TD.AperFunction*
G04 #@! TA.AperFunction,SMDPad,CuDef*
G36*
G01*
X214475000Y-93337500D02*
X214475000Y-92862500D01*
G75*
G02*
X214712500Y-92625000I237500J0D01*
G01*
X215287500Y-92625000D01*
G75*
G02*
X215525000Y-92862500I0J-237500D01*
G01*
X215525000Y-93337500D01*
G75*
G02*
X215287500Y-93575000I-237500J0D01*
G01*
X214712500Y-93575000D01*
G75*
G02*
X214475000Y-93337500I0J237500D01*
G01*
G37*
G04 #@! TD.AperFunction*
G04 #@! TA.AperFunction,SMDPad,CuDef*
G36*
G01*
X214812500Y-94325000D02*
X215287500Y-94325000D01*
G75*
G02*
X215525000Y-94562500I0J-237500D01*
G01*
X215525000Y-95137500D01*
G75*
G02*
X215287500Y-95375000I-237500J0D01*
G01*
X214812500Y-95375000D01*
G75*
G02*
X214575000Y-95137500I0J237500D01*
G01*
X214575000Y-94562500D01*
G75*
G02*
X214812500Y-94325000I237500J0D01*
G01*
G37*
G04 #@! TD.AperFunction*
G04 #@! TA.AperFunction,SMDPad,CuDef*
G36*
G01*
X214812500Y-96075000D02*
X215287500Y-96075000D01*
G75*
G02*
X215525000Y-96312500I0J-237500D01*
G01*
X215525000Y-96887500D01*
G75*
G02*
X215287500Y-97125000I-237500J0D01*
G01*
X214812500Y-97125000D01*
G75*
G02*
X214575000Y-96887500I0J237500D01*
G01*
X214575000Y-96312500D01*
G75*
G02*
X214812500Y-96075000I237500J0D01*
G01*
G37*
G04 #@! TD.AperFunction*
G04 #@! TA.AperFunction,SMDPad,CuDef*
G36*
G01*
X221787500Y-84750000D02*
X221312500Y-84750000D01*
G75*
G02*
X221075000Y-84512500I0J237500D01*
G01*
X221075000Y-83937500D01*
G75*
G02*
X221312500Y-83700000I237500J0D01*
G01*
X221787500Y-83700000D01*
G75*
G02*
X222025000Y-83937500I0J-237500D01*
G01*
X222025000Y-84512500D01*
G75*
G02*
X221787500Y-84750000I-237500J0D01*
G01*
G37*
G04 #@! TD.AperFunction*
G04 #@! TA.AperFunction,SMDPad,CuDef*
G36*
G01*
X221787500Y-86500000D02*
X221312500Y-86500000D01*
G75*
G02*
X221075000Y-86262500I0J237500D01*
G01*
X221075000Y-85687500D01*
G75*
G02*
X221312500Y-85450000I237500J0D01*
G01*
X221787500Y-85450000D01*
G75*
G02*
X222025000Y-85687500I0J-237500D01*
G01*
X222025000Y-86262500D01*
G75*
G02*
X221787500Y-86500000I-237500J0D01*
G01*
G37*
G04 #@! TD.AperFunction*
G04 #@! TA.AperFunction,SMDPad,CuDef*
G36*
G01*
X218087500Y-78425000D02*
X217612500Y-78425000D01*
G75*
G02*
X217375000Y-78187500I0J237500D01*
G01*
X217375000Y-77612500D01*
G75*
G02*
X217612500Y-77375000I237500J0D01*
G01*
X218087500Y-77375000D01*
G75*
G02*
X218325000Y-77612500I0J-237500D01*
G01*
X218325000Y-78187500D01*
G75*
G02*
X218087500Y-78425000I-237500J0D01*
G01*
G37*
G04 #@! TD.AperFunction*
G04 #@! TA.AperFunction,SMDPad,CuDef*
G36*
G01*
X218087500Y-80175000D02*
X217612500Y-80175000D01*
G75*
G02*
X217375000Y-79937500I0J237500D01*
G01*
X217375000Y-79362500D01*
G75*
G02*
X217612500Y-79125000I237500J0D01*
G01*
X218087500Y-79125000D01*
G75*
G02*
X218325000Y-79362500I0J-237500D01*
G01*
X218325000Y-79937500D01*
G75*
G02*
X218087500Y-80175000I-237500J0D01*
G01*
G37*
G04 #@! TD.AperFunction*
G04 #@! TA.AperFunction,SMDPad,CuDef*
G36*
G01*
X220462500Y-89175000D02*
X220937500Y-89175000D01*
G75*
G02*
X221175000Y-89412500I0J-237500D01*
G01*
X221175000Y-89987500D01*
G75*
G02*
X220937500Y-90225000I-237500J0D01*
G01*
X220462500Y-90225000D01*
G75*
G02*
X220225000Y-89987500I0J237500D01*
G01*
X220225000Y-89412500D01*
G75*
G02*
X220462500Y-89175000I237500J0D01*
G01*
G37*
G04 #@! TD.AperFunction*
G04 #@! TA.AperFunction,SMDPad,CuDef*
G36*
G01*
X220462500Y-87425000D02*
X220937500Y-87425000D01*
G75*
G02*
X221175000Y-87662500I0J-237500D01*
G01*
X221175000Y-88237500D01*
G75*
G02*
X220937500Y-88475000I-237500J0D01*
G01*
X220462500Y-88475000D01*
G75*
G02*
X220225000Y-88237500I0J237500D01*
G01*
X220225000Y-87662500D01*
G75*
G02*
X220462500Y-87425000I237500J0D01*
G01*
G37*
G04 #@! TD.AperFunction*
G04 #@! TA.AperFunction,SMDPad,CuDef*
G36*
G01*
X219412500Y-85450000D02*
X219887500Y-85450000D01*
G75*
G02*
X220125000Y-85687500I0J-237500D01*
G01*
X220125000Y-86262500D01*
G75*
G02*
X219887500Y-86500000I-237500J0D01*
G01*
X219412500Y-86500000D01*
G75*
G02*
X219175000Y-86262500I0J237500D01*
G01*
X219175000Y-85687500D01*
G75*
G02*
X219412500Y-85450000I237500J0D01*
G01*
G37*
G04 #@! TD.AperFunction*
G04 #@! TA.AperFunction,SMDPad,CuDef*
G36*
G01*
X219412500Y-83700000D02*
X219887500Y-83700000D01*
G75*
G02*
X220125000Y-83937500I0J-237500D01*
G01*
X220125000Y-84512500D01*
G75*
G02*
X219887500Y-84750000I-237500J0D01*
G01*
X219412500Y-84750000D01*
G75*
G02*
X219175000Y-84512500I0J237500D01*
G01*
X219175000Y-83937500D01*
G75*
G02*
X219412500Y-83700000I237500J0D01*
G01*
G37*
G04 #@! TD.AperFunction*
G04 #@! TA.AperFunction,SMDPad,CuDef*
G36*
G01*
X217562500Y-85450000D02*
X218037500Y-85450000D01*
G75*
G02*
X218275000Y-85687500I0J-237500D01*
G01*
X218275000Y-86262500D01*
G75*
G02*
X218037500Y-86500000I-237500J0D01*
G01*
X217562500Y-86500000D01*
G75*
G02*
X217325000Y-86262500I0J237500D01*
G01*
X217325000Y-85687500D01*
G75*
G02*
X217562500Y-85450000I237500J0D01*
G01*
G37*
G04 #@! TD.AperFunction*
G04 #@! TA.AperFunction,SMDPad,CuDef*
G36*
G01*
X217562500Y-83700000D02*
X218037500Y-83700000D01*
G75*
G02*
X218275000Y-83937500I0J-237500D01*
G01*
X218275000Y-84512500D01*
G75*
G02*
X218037500Y-84750000I-237500J0D01*
G01*
X217562500Y-84750000D01*
G75*
G02*
X217325000Y-84512500I0J237500D01*
G01*
X217325000Y-83937500D01*
G75*
G02*
X217562500Y-83700000I237500J0D01*
G01*
G37*
G04 #@! TD.AperFunction*
G04 #@! TA.AperFunction,SMDPad,CuDef*
G36*
G01*
X218837500Y-88450000D02*
X218362500Y-88450000D01*
G75*
G02*
X218125000Y-88212500I0J237500D01*
G01*
X218125000Y-87637500D01*
G75*
G02*
X218362500Y-87400000I237500J0D01*
G01*
X218837500Y-87400000D01*
G75*
G02*
X219075000Y-87637500I0J-237500D01*
G01*
X219075000Y-88212500D01*
G75*
G02*
X218837500Y-88450000I-237500J0D01*
G01*
G37*
G04 #@! TD.AperFunction*
G04 #@! TA.AperFunction,SMDPad,CuDef*
G36*
G01*
X218837500Y-90200000D02*
X218362500Y-90200000D01*
G75*
G02*
X218125000Y-89962500I0J237500D01*
G01*
X218125000Y-89387500D01*
G75*
G02*
X218362500Y-89150000I237500J0D01*
G01*
X218837500Y-89150000D01*
G75*
G02*
X219075000Y-89387500I0J-237500D01*
G01*
X219075000Y-89962500D01*
G75*
G02*
X218837500Y-90200000I-237500J0D01*
G01*
G37*
G04 #@! TD.AperFunction*
D11*
X200390000Y-88000000D03*
X197850000Y-88000000D03*
X200390000Y-85460000D03*
X197850000Y-85460000D03*
X200390000Y-82920000D03*
X197850000Y-82920000D03*
X200390000Y-80380000D03*
X197850000Y-80380000D03*
X200390000Y-77840000D03*
D12*
X197850000Y-77840000D03*
G04 #@! TA.AperFunction,SMDPad,CuDef*
G36*
G01*
X210312500Y-94325000D02*
X210787500Y-94325000D01*
G75*
G02*
X211025000Y-94562500I0J-237500D01*
G01*
X211025000Y-95137500D01*
G75*
G02*
X210787500Y-95375000I-237500J0D01*
G01*
X210312500Y-95375000D01*
G75*
G02*
X210075000Y-95137500I0J237500D01*
G01*
X210075000Y-94562500D01*
G75*
G02*
X210312500Y-94325000I237500J0D01*
G01*
G37*
G04 #@! TD.AperFunction*
G04 #@! TA.AperFunction,SMDPad,CuDef*
G36*
G01*
X210312500Y-96075000D02*
X210787500Y-96075000D01*
G75*
G02*
X211025000Y-96312500I0J-237500D01*
G01*
X211025000Y-96887500D01*
G75*
G02*
X210787500Y-97125000I-237500J0D01*
G01*
X210312500Y-97125000D01*
G75*
G02*
X210075000Y-96887500I0J237500D01*
G01*
X210075000Y-96312500D01*
G75*
G02*
X210312500Y-96075000I237500J0D01*
G01*
G37*
G04 #@! TD.AperFunction*
D13*
X206770000Y-78750000D03*
X211650000Y-78750000D03*
G04 #@! TA.AperFunction,SMDPad,CuDef*
G36*
G01*
X209187500Y-84775000D02*
X208712500Y-84775000D01*
G75*
G02*
X208475000Y-84537500I0J237500D01*
G01*
X208475000Y-83962500D01*
G75*
G02*
X208712500Y-83725000I237500J0D01*
G01*
X209187500Y-83725000D01*
G75*
G02*
X209425000Y-83962500I0J-237500D01*
G01*
X209425000Y-84537500D01*
G75*
G02*
X209187500Y-84775000I-237500J0D01*
G01*
G37*
G04 #@! TD.AperFunction*
G04 #@! TA.AperFunction,SMDPad,CuDef*
G36*
G01*
X209187500Y-86525000D02*
X208712500Y-86525000D01*
G75*
G02*
X208475000Y-86287500I0J237500D01*
G01*
X208475000Y-85712500D01*
G75*
G02*
X208712500Y-85475000I237500J0D01*
G01*
X209187500Y-85475000D01*
G75*
G02*
X209425000Y-85712500I0J-237500D01*
G01*
X209425000Y-86287500D01*
G75*
G02*
X209187500Y-86525000I-237500J0D01*
G01*
G37*
G04 #@! TD.AperFunction*
G04 #@! TA.AperFunction,SMDPad,CuDef*
G36*
G01*
X206362500Y-94325000D02*
X206837500Y-94325000D01*
G75*
G02*
X207075000Y-94562500I0J-237500D01*
G01*
X207075000Y-95137500D01*
G75*
G02*
X206837500Y-95375000I-237500J0D01*
G01*
X206362500Y-95375000D01*
G75*
G02*
X206125000Y-95137500I0J237500D01*
G01*
X206125000Y-94562500D01*
G75*
G02*
X206362500Y-94325000I237500J0D01*
G01*
G37*
G04 #@! TD.AperFunction*
G04 #@! TA.AperFunction,SMDPad,CuDef*
G36*
G01*
X206362500Y-96075000D02*
X206837500Y-96075000D01*
G75*
G02*
X207075000Y-96312500I0J-237500D01*
G01*
X207075000Y-96887500D01*
G75*
G02*
X206837500Y-97125000I-237500J0D01*
G01*
X206362500Y-97125000D01*
G75*
G02*
X206125000Y-96887500I0J237500D01*
G01*
X206125000Y-96312500D01*
G75*
G02*
X206362500Y-96075000I237500J0D01*
G01*
G37*
G04 #@! TD.AperFunction*
D14*
X223550000Y-102950000D03*
X218550000Y-102950000D03*
X213550000Y-102950000D03*
X208550000Y-102950000D03*
X203550000Y-102950000D03*
D15*
X198550000Y-102950000D03*
G04 #@! TA.AperFunction,SMDPad,CuDef*
G36*
G01*
X215312500Y-89150000D02*
X215787500Y-89150000D01*
G75*
G02*
X216025000Y-89387500I0J-237500D01*
G01*
X216025000Y-89962500D01*
G75*
G02*
X215787500Y-90200000I-237500J0D01*
G01*
X215312500Y-90200000D01*
G75*
G02*
X215075000Y-89962500I0J237500D01*
G01*
X215075000Y-89387500D01*
G75*
G02*
X215312500Y-89150000I237500J0D01*
G01*
G37*
G04 #@! TD.AperFunction*
G04 #@! TA.AperFunction,SMDPad,CuDef*
G36*
G01*
X215312500Y-87400000D02*
X215787500Y-87400000D01*
G75*
G02*
X216025000Y-87637500I0J-237500D01*
G01*
X216025000Y-88212500D01*
G75*
G02*
X215787500Y-88450000I-237500J0D01*
G01*
X215312500Y-88450000D01*
G75*
G02*
X215075000Y-88212500I0J237500D01*
G01*
X215075000Y-87637500D01*
G75*
G02*
X215312500Y-87400000I237500J0D01*
G01*
G37*
G04 #@! TD.AperFunction*
G04 #@! TA.AperFunction,SMDPad,CuDef*
G36*
G01*
X215787500Y-84775000D02*
X215312500Y-84775000D01*
G75*
G02*
X215075000Y-84537500I0J237500D01*
G01*
X215075000Y-83962500D01*
G75*
G02*
X215312500Y-83725000I237500J0D01*
G01*
X215787500Y-83725000D01*
G75*
G02*
X216025000Y-83962500I0J-237500D01*
G01*
X216025000Y-84537500D01*
G75*
G02*
X215787500Y-84775000I-237500J0D01*
G01*
G37*
G04 #@! TD.AperFunction*
G04 #@! TA.AperFunction,SMDPad,CuDef*
G36*
G01*
X215787500Y-86525000D02*
X215312500Y-86525000D01*
G75*
G02*
X215075000Y-86287500I0J237500D01*
G01*
X215075000Y-85712500D01*
G75*
G02*
X215312500Y-85475000I237500J0D01*
G01*
X215787500Y-85475000D01*
G75*
G02*
X216025000Y-85712500I0J-237500D01*
G01*
X216025000Y-86287500D01*
G75*
G02*
X215787500Y-86525000I-237500J0D01*
G01*
G37*
G04 #@! TD.AperFunction*
G04 #@! TA.AperFunction,SMDPad,CuDef*
G36*
G01*
X208362500Y-94325000D02*
X208837500Y-94325000D01*
G75*
G02*
X209075000Y-94562500I0J-237500D01*
G01*
X209075000Y-95137500D01*
G75*
G02*
X208837500Y-95375000I-237500J0D01*
G01*
X208362500Y-95375000D01*
G75*
G02*
X208125000Y-95137500I0J237500D01*
G01*
X208125000Y-94562500D01*
G75*
G02*
X208362500Y-94325000I237500J0D01*
G01*
G37*
G04 #@! TD.AperFunction*
G04 #@! TA.AperFunction,SMDPad,CuDef*
G36*
G01*
X208362500Y-96075000D02*
X208837500Y-96075000D01*
G75*
G02*
X209075000Y-96312500I0J-237500D01*
G01*
X209075000Y-96887500D01*
G75*
G02*
X208837500Y-97125000I-237500J0D01*
G01*
X208362500Y-97125000D01*
G75*
G02*
X208125000Y-96887500I0J237500D01*
G01*
X208125000Y-96312500D01*
G75*
G02*
X208362500Y-96075000I237500J0D01*
G01*
G37*
G04 #@! TD.AperFunction*
G04 #@! TA.AperFunction,SMDPad,CuDef*
G36*
G01*
X201162500Y-96100000D02*
X201637500Y-96100000D01*
G75*
G02*
X201875000Y-96337500I0J-237500D01*
G01*
X201875000Y-96912500D01*
G75*
G02*
X201637500Y-97150000I-237500J0D01*
G01*
X201162500Y-97150000D01*
G75*
G02*
X200925000Y-96912500I0J237500D01*
G01*
X200925000Y-96337500D01*
G75*
G02*
X201162500Y-96100000I237500J0D01*
G01*
G37*
G04 #@! TD.AperFunction*
G04 #@! TA.AperFunction,SMDPad,CuDef*
G36*
G01*
X201162500Y-94350000D02*
X201637500Y-94350000D01*
G75*
G02*
X201875000Y-94587500I0J-237500D01*
G01*
X201875000Y-95162500D01*
G75*
G02*
X201637500Y-95400000I-237500J0D01*
G01*
X201162500Y-95400000D01*
G75*
G02*
X200925000Y-95162500I0J237500D01*
G01*
X200925000Y-94587500D01*
G75*
G02*
X201162500Y-94350000I237500J0D01*
G01*
G37*
G04 #@! TD.AperFunction*
G04 #@! TA.AperFunction,SMDPad,CuDef*
G36*
G01*
X198612500Y-96100000D02*
X199087500Y-96100000D01*
G75*
G02*
X199325000Y-96337500I0J-237500D01*
G01*
X199325000Y-96912500D01*
G75*
G02*
X199087500Y-97150000I-237500J0D01*
G01*
X198612500Y-97150000D01*
G75*
G02*
X198375000Y-96912500I0J237500D01*
G01*
X198375000Y-96337500D01*
G75*
G02*
X198612500Y-96100000I237500J0D01*
G01*
G37*
G04 #@! TD.AperFunction*
G04 #@! TA.AperFunction,SMDPad,CuDef*
G36*
G01*
X198612500Y-94350000D02*
X199087500Y-94350000D01*
G75*
G02*
X199325000Y-94587500I0J-237500D01*
G01*
X199325000Y-95162500D01*
G75*
G02*
X199087500Y-95400000I-237500J0D01*
G01*
X198612500Y-95400000D01*
G75*
G02*
X198375000Y-95162500I0J237500D01*
G01*
X198375000Y-94587500D01*
G75*
G02*
X198612500Y-94350000I237500J0D01*
G01*
G37*
G04 #@! TD.AperFunction*
G04 #@! TA.AperFunction,SMDPad,CuDef*
G36*
G01*
X208850000Y-79762500D02*
X208850000Y-80237500D01*
G75*
G02*
X208612500Y-80475000I-237500J0D01*
G01*
X208037500Y-80475000D01*
G75*
G02*
X207800000Y-80237500I0J237500D01*
G01*
X207800000Y-79762500D01*
G75*
G02*
X208037500Y-79525000I237500J0D01*
G01*
X208612500Y-79525000D01*
G75*
G02*
X208850000Y-79762500I0J-237500D01*
G01*
G37*
G04 #@! TD.AperFunction*
G04 #@! TA.AperFunction,SMDPad,CuDef*
G36*
G01*
X210600000Y-79762500D02*
X210600000Y-80237500D01*
G75*
G02*
X210362500Y-80475000I-237500J0D01*
G01*
X209787500Y-80475000D01*
G75*
G02*
X209550000Y-80237500I0J237500D01*
G01*
X209550000Y-79762500D01*
G75*
G02*
X209787500Y-79525000I237500J0D01*
G01*
X210362500Y-79525000D01*
G75*
G02*
X210600000Y-79762500I0J-237500D01*
G01*
G37*
G04 #@! TD.AperFunction*
G04 #@! TA.AperFunction,SMDPad,CuDef*
G36*
G01*
X208925000Y-92862500D02*
X208925000Y-93337500D01*
G75*
G02*
X208687500Y-93575000I-237500J0D01*
G01*
X208112500Y-93575000D01*
G75*
G02*
X207875000Y-93337500I0J237500D01*
G01*
X207875000Y-92862500D01*
G75*
G02*
X208112500Y-92625000I237500J0D01*
G01*
X208687500Y-92625000D01*
G75*
G02*
X208925000Y-92862500I0J-237500D01*
G01*
G37*
G04 #@! TD.AperFunction*
G04 #@! TA.AperFunction,SMDPad,CuDef*
G36*
G01*
X207175000Y-92862500D02*
X207175000Y-93337500D01*
G75*
G02*
X206937500Y-93575000I-237500J0D01*
G01*
X206362500Y-93575000D01*
G75*
G02*
X206125000Y-93337500I0J237500D01*
G01*
X206125000Y-92862500D01*
G75*
G02*
X206362500Y-92625000I237500J0D01*
G01*
X206937500Y-92625000D01*
G75*
G02*
X207175000Y-92862500I0J-237500D01*
G01*
G37*
G04 #@! TD.AperFunction*
G04 #@! TA.AperFunction,SMDPad,CuDef*
G36*
G01*
X213062500Y-85475000D02*
X213537500Y-85475000D01*
G75*
G02*
X213775000Y-85712500I0J-237500D01*
G01*
X213775000Y-86287500D01*
G75*
G02*
X213537500Y-86525000I-237500J0D01*
G01*
X213062500Y-86525000D01*
G75*
G02*
X212825000Y-86287500I0J237500D01*
G01*
X212825000Y-85712500D01*
G75*
G02*
X213062500Y-85475000I237500J0D01*
G01*
G37*
G04 #@! TD.AperFunction*
G04 #@! TA.AperFunction,SMDPad,CuDef*
G36*
G01*
X213062500Y-83725000D02*
X213537500Y-83725000D01*
G75*
G02*
X213775000Y-83962500I0J-237500D01*
G01*
X213775000Y-84537500D01*
G75*
G02*
X213537500Y-84775000I-237500J0D01*
G01*
X213062500Y-84775000D01*
G75*
G02*
X212825000Y-84537500I0J237500D01*
G01*
X212825000Y-83962500D01*
G75*
G02*
X213062500Y-83725000I237500J0D01*
G01*
G37*
G04 #@! TD.AperFunction*
G04 #@! TA.AperFunction,SMDPad,CuDef*
G36*
G01*
X204000000Y-82037500D02*
X204000000Y-81562500D01*
G75*
G02*
X204237500Y-81325000I237500J0D01*
G01*
X204812500Y-81325000D01*
G75*
G02*
X205050000Y-81562500I0J-237500D01*
G01*
X205050000Y-82037500D01*
G75*
G02*
X204812500Y-82275000I-237500J0D01*
G01*
X204237500Y-82275000D01*
G75*
G02*
X204000000Y-82037500I0J237500D01*
G01*
G37*
G04 #@! TD.AperFunction*
G04 #@! TA.AperFunction,SMDPad,CuDef*
G36*
G01*
X202250000Y-82037500D02*
X202250000Y-81562500D01*
G75*
G02*
X202487500Y-81325000I237500J0D01*
G01*
X203062500Y-81325000D01*
G75*
G02*
X203300000Y-81562500I0J-237500D01*
G01*
X203300000Y-82037500D01*
G75*
G02*
X203062500Y-82275000I-237500J0D01*
G01*
X202487500Y-82275000D01*
G75*
G02*
X202250000Y-82037500I0J237500D01*
G01*
G37*
G04 #@! TD.AperFunction*
G04 #@! TA.AperFunction,SMDPad,CuDef*
G36*
G01*
X206512500Y-85475000D02*
X206987500Y-85475000D01*
G75*
G02*
X207225000Y-85712500I0J-237500D01*
G01*
X207225000Y-86287500D01*
G75*
G02*
X206987500Y-86525000I-237500J0D01*
G01*
X206512500Y-86525000D01*
G75*
G02*
X206275000Y-86287500I0J237500D01*
G01*
X206275000Y-85712500D01*
G75*
G02*
X206512500Y-85475000I237500J0D01*
G01*
G37*
G04 #@! TD.AperFunction*
G04 #@! TA.AperFunction,SMDPad,CuDef*
G36*
G01*
X206512500Y-83725000D02*
X206987500Y-83725000D01*
G75*
G02*
X207225000Y-83962500I0J-237500D01*
G01*
X207225000Y-84537500D01*
G75*
G02*
X206987500Y-84775000I-237500J0D01*
G01*
X206512500Y-84775000D01*
G75*
G02*
X206275000Y-84537500I0J237500D01*
G01*
X206275000Y-83962500D01*
G75*
G02*
X206512500Y-83725000I237500J0D01*
G01*
G37*
G04 #@! TD.AperFunction*
G04 #@! TA.AperFunction,SMDPad,CuDef*
G36*
G01*
X211450000Y-89737500D02*
X211450000Y-89262500D01*
G75*
G02*
X211687500Y-89025000I237500J0D01*
G01*
X212262500Y-89025000D01*
G75*
G02*
X212500000Y-89262500I0J-237500D01*
G01*
X212500000Y-89737500D01*
G75*
G02*
X212262500Y-89975000I-237500J0D01*
G01*
X211687500Y-89975000D01*
G75*
G02*
X211450000Y-89737500I0J237500D01*
G01*
G37*
G04 #@! TD.AperFunction*
G04 #@! TA.AperFunction,SMDPad,CuDef*
G36*
G01*
X209700000Y-89737500D02*
X209700000Y-89262500D01*
G75*
G02*
X209937500Y-89025000I237500J0D01*
G01*
X210512500Y-89025000D01*
G75*
G02*
X210750000Y-89262500I0J-237500D01*
G01*
X210750000Y-89737500D01*
G75*
G02*
X210512500Y-89975000I-237500J0D01*
G01*
X209937500Y-89975000D01*
G75*
G02*
X209700000Y-89737500I0J237500D01*
G01*
G37*
G04 #@! TD.AperFunction*
G04 #@! TA.AperFunction,SMDPad,CuDef*
G36*
G01*
X204937500Y-78700000D02*
X204462500Y-78700000D01*
G75*
G02*
X204225000Y-78462500I0J237500D01*
G01*
X204225000Y-77887500D01*
G75*
G02*
X204462500Y-77650000I237500J0D01*
G01*
X204937500Y-77650000D01*
G75*
G02*
X205175000Y-77887500I0J-237500D01*
G01*
X205175000Y-78462500D01*
G75*
G02*
X204937500Y-78700000I-237500J0D01*
G01*
G37*
G04 #@! TD.AperFunction*
G04 #@! TA.AperFunction,SMDPad,CuDef*
G36*
G01*
X204937500Y-80450000D02*
X204462500Y-80450000D01*
G75*
G02*
X204225000Y-80212500I0J237500D01*
G01*
X204225000Y-79637500D01*
G75*
G02*
X204462500Y-79400000I237500J0D01*
G01*
X204937500Y-79400000D01*
G75*
G02*
X205175000Y-79637500I0J-237500D01*
G01*
X205175000Y-80212500D01*
G75*
G02*
X204937500Y-80450000I-237500J0D01*
G01*
G37*
G04 #@! TD.AperFunction*
G04 #@! TA.AperFunction,SMDPad,CuDef*
G36*
G01*
X213887500Y-78700000D02*
X213412500Y-78700000D01*
G75*
G02*
X213175000Y-78462500I0J237500D01*
G01*
X213175000Y-77887500D01*
G75*
G02*
X213412500Y-77650000I237500J0D01*
G01*
X213887500Y-77650000D01*
G75*
G02*
X214125000Y-77887500I0J-237500D01*
G01*
X214125000Y-78462500D01*
G75*
G02*
X213887500Y-78700000I-237500J0D01*
G01*
G37*
G04 #@! TD.AperFunction*
G04 #@! TA.AperFunction,SMDPad,CuDef*
G36*
G01*
X213887500Y-80450000D02*
X213412500Y-80450000D01*
G75*
G02*
X213175000Y-80212500I0J237500D01*
G01*
X213175000Y-79637500D01*
G75*
G02*
X213412500Y-79400000I237500J0D01*
G01*
X213887500Y-79400000D01*
G75*
G02*
X214125000Y-79637500I0J-237500D01*
G01*
X214125000Y-80212500D01*
G75*
G02*
X213887500Y-80450000I-237500J0D01*
G01*
G37*
G04 #@! TD.AperFunction*
G04 #@! TA.AperFunction,SMDPad,CuDef*
G36*
G01*
X202887500Y-78700000D02*
X202412500Y-78700000D01*
G75*
G02*
X202175000Y-78462500I0J237500D01*
G01*
X202175000Y-77887500D01*
G75*
G02*
X202412500Y-77650000I237500J0D01*
G01*
X202887500Y-77650000D01*
G75*
G02*
X203125000Y-77887500I0J-237500D01*
G01*
X203125000Y-78462500D01*
G75*
G02*
X202887500Y-78700000I-237500J0D01*
G01*
G37*
G04 #@! TD.AperFunction*
G04 #@! TA.AperFunction,SMDPad,CuDef*
G36*
G01*
X202887500Y-80450000D02*
X202412500Y-80450000D01*
G75*
G02*
X202175000Y-80212500I0J237500D01*
G01*
X202175000Y-79637500D01*
G75*
G02*
X202412500Y-79400000I237500J0D01*
G01*
X202887500Y-79400000D01*
G75*
G02*
X203125000Y-79637500I0J-237500D01*
G01*
X203125000Y-80212500D01*
G75*
G02*
X202887500Y-80450000I-237500J0D01*
G01*
G37*
G04 #@! TD.AperFunction*
G04 #@! TA.AperFunction,SMDPad,CuDef*
G36*
G01*
X219787500Y-78425000D02*
X219312500Y-78425000D01*
G75*
G02*
X219075000Y-78187500I0J237500D01*
G01*
X219075000Y-77612500D01*
G75*
G02*
X219312500Y-77375000I237500J0D01*
G01*
X219787500Y-77375000D01*
G75*
G02*
X220025000Y-77612500I0J-237500D01*
G01*
X220025000Y-78187500D01*
G75*
G02*
X219787500Y-78425000I-237500J0D01*
G01*
G37*
G04 #@! TD.AperFunction*
G04 #@! TA.AperFunction,SMDPad,CuDef*
G36*
G01*
X219787500Y-80175000D02*
X219312500Y-80175000D01*
G75*
G02*
X219075000Y-79937500I0J237500D01*
G01*
X219075000Y-79362500D01*
G75*
G02*
X219312500Y-79125000I237500J0D01*
G01*
X219787500Y-79125000D01*
G75*
G02*
X220025000Y-79362500I0J-237500D01*
G01*
X220025000Y-79937500D01*
G75*
G02*
X219787500Y-80175000I-237500J0D01*
G01*
G37*
G04 #@! TD.AperFunction*
G04 #@! TA.AperFunction,SMDPad,CuDef*
G36*
G01*
X210862500Y-85475000D02*
X211337500Y-85475000D01*
G75*
G02*
X211575000Y-85712500I0J-237500D01*
G01*
X211575000Y-86287500D01*
G75*
G02*
X211337500Y-86525000I-237500J0D01*
G01*
X210862500Y-86525000D01*
G75*
G02*
X210625000Y-86287500I0J237500D01*
G01*
X210625000Y-85712500D01*
G75*
G02*
X210862500Y-85475000I237500J0D01*
G01*
G37*
G04 #@! TD.AperFunction*
G04 #@! TA.AperFunction,SMDPad,CuDef*
G36*
G01*
X210862500Y-83725000D02*
X211337500Y-83725000D01*
G75*
G02*
X211575000Y-83962500I0J-237500D01*
G01*
X211575000Y-84537500D01*
G75*
G02*
X211337500Y-84775000I-237500J0D01*
G01*
X210862500Y-84775000D01*
G75*
G02*
X210625000Y-84537500I0J237500D01*
G01*
X210625000Y-83962500D01*
G75*
G02*
X210862500Y-83725000I237500J0D01*
G01*
G37*
G04 #@! TD.AperFunction*
D16*
X223900000Y-77950000D03*
X222900000Y-86550000D03*
X223900000Y-86550000D03*
X223900000Y-85700000D03*
X222900000Y-85700000D03*
X223900000Y-84850000D03*
X222900000Y-84850000D03*
X200150000Y-91600000D03*
X222900000Y-78800000D03*
X222900000Y-77100000D03*
X223900000Y-78800000D03*
X223900000Y-77100000D03*
X222900000Y-77950000D03*
X211300000Y-87700000D03*
X207200000Y-98200000D03*
X203300000Y-98200000D03*
X223200000Y-93800000D03*
X223200000Y-94700000D03*
X224950000Y-93800000D03*
X224950000Y-94700000D03*
X219650000Y-90700000D03*
X211050000Y-98300000D03*
X211050000Y-98300000D03*
X211050000Y-98300000D03*
X197600000Y-98300000D03*
X197600000Y-98300000D03*
X206900000Y-88850000D03*
X206900000Y-88850000D03*
X215950000Y-104250000D03*
X201100000Y-104200000D03*
X215500000Y-78700000D03*
X213300000Y-84175000D03*
X206750000Y-86000000D03*
X208900000Y-84500000D03*
X209700000Y-93100000D03*
X215550000Y-86000000D03*
X215550000Y-84250000D03*
X200135000Y-96000000D03*
X198865000Y-96565000D03*
X219550000Y-79650000D03*
X217850000Y-79650000D03*
X211100000Y-84400000D03*
X213250000Y-93000000D03*
X219650000Y-88650000D03*
X218600000Y-87850000D03*
X218600000Y-89750000D03*
X221750000Y-90500000D03*
X201350000Y-96500000D03*
X220700000Y-87850000D03*
D17*
X200725000Y-78175000D02*
X200390000Y-77840000D01*
X202650000Y-78175000D02*
X200725000Y-78175000D01*
X200405000Y-80425000D02*
X200390000Y-80440000D01*
X202650000Y-81675000D02*
X202775000Y-81800000D01*
X202440000Y-80440000D02*
X202650000Y-80650000D01*
X200390000Y-80440000D02*
X202440000Y-80440000D01*
X202650000Y-79925000D02*
X202650000Y-80650000D01*
X202650000Y-80650000D02*
X202650000Y-81675000D01*
X210400000Y-80000000D02*
X211650000Y-78750000D01*
X210075000Y-80000000D02*
X210400000Y-80000000D01*
X212825000Y-79925000D02*
X211650000Y-78750000D01*
X213650000Y-79925000D02*
X212825000Y-79925000D01*
X205595000Y-79925000D02*
X206770000Y-78750000D01*
X204700000Y-79925000D02*
X205595000Y-79925000D01*
X208020000Y-80000000D02*
X206770000Y-78750000D01*
X208325000Y-80000000D02*
X208020000Y-80000000D01*
D18*
X201600000Y-84250000D02*
X199500000Y-84250000D01*
X199100000Y-83850000D02*
X199100000Y-79150000D01*
X199025001Y-79075001D02*
X197850000Y-77900000D01*
X199100000Y-83850000D02*
X199500000Y-84250000D01*
D17*
X206750000Y-86000000D02*
X206150000Y-86000000D01*
X204400000Y-84250000D02*
X201600000Y-84250000D01*
X206150000Y-86000000D02*
X204400000Y-84250000D01*
X208950000Y-84175000D02*
X208950000Y-84450000D01*
X208950000Y-84450000D02*
X208900000Y-84500000D01*
X208400000Y-93100000D02*
X209700000Y-93100000D01*
X215550000Y-87925000D02*
X215550000Y-86000000D01*
X199010000Y-94875000D02*
X200135000Y-96000000D01*
X198850000Y-94875000D02*
X199010000Y-94875000D01*
X198865000Y-96610000D02*
X198850000Y-96625000D01*
X198865000Y-96565000D02*
X198865000Y-96610000D01*
X211100000Y-83000000D02*
X211120000Y-82980000D01*
X211100000Y-84175000D02*
X211100000Y-83000000D01*
X206750000Y-83000000D02*
X206730000Y-82980000D01*
X206750000Y-84175000D02*
X206750000Y-83000000D01*
D19*
X206730000Y-82980000D02*
X211120000Y-82980000D01*
D17*
X204525000Y-82975000D02*
X204530000Y-82980000D01*
X204525000Y-81800000D02*
X204525000Y-82975000D01*
D19*
X200390000Y-82980000D02*
X204530000Y-82980000D01*
X204530000Y-82980000D02*
X206730000Y-82980000D01*
X217850000Y-79650000D02*
X219550000Y-79650000D01*
X217850000Y-79650000D02*
X217850000Y-82960000D01*
X211120000Y-82980000D02*
X217870000Y-82980000D01*
X217850000Y-82960000D02*
X217870000Y-82980000D01*
D17*
X221550000Y-84225000D02*
X219650000Y-84225000D01*
X219650000Y-79750000D02*
X219550000Y-79650000D01*
X219650000Y-84225000D02*
X219650000Y-79750000D01*
X215050000Y-101450000D02*
X213550000Y-102950000D01*
X215050000Y-96600000D02*
X215050000Y-101450000D01*
X213300000Y-93100000D02*
X213250000Y-93100000D01*
X213050000Y-93350000D02*
X213300000Y-93100000D01*
X213050000Y-94850000D02*
X213050000Y-93350000D01*
X206600000Y-96600000D02*
X208600000Y-96600000D01*
X208800000Y-96600000D02*
X210550000Y-94850000D01*
X208600000Y-96600000D02*
X208800000Y-96600000D01*
X208600000Y-102900000D02*
X208550000Y-102950000D01*
X208600000Y-96600000D02*
X208600000Y-102900000D01*
X208600000Y-94850000D02*
X206600000Y-94850000D01*
X206600000Y-93150000D02*
X206650000Y-93100000D01*
X206600000Y-94850000D02*
X206600000Y-93150000D01*
X204400000Y-93100000D02*
X204150000Y-93350000D01*
X206650000Y-93100000D02*
X204400000Y-93100000D01*
X215050000Y-93150000D02*
X215000000Y-93100000D01*
X215050000Y-94850000D02*
X215050000Y-93150000D01*
X217200000Y-93100000D02*
X217450000Y-93350000D01*
X215000000Y-93100000D02*
X217200000Y-93100000D01*
X219650000Y-88769998D02*
X219769998Y-88769998D01*
X220700000Y-89700000D02*
X219650000Y-88650000D01*
X217900000Y-84225000D02*
X219650000Y-85975000D01*
X217800000Y-84225000D02*
X217900000Y-84225000D01*
X219650000Y-85975000D02*
X221550000Y-85975000D01*
X221550000Y-85975000D02*
X221750000Y-86175000D01*
X221750000Y-86175000D02*
X221750000Y-90500000D01*
X213300000Y-88175000D02*
X211975000Y-89500000D01*
X213300000Y-86000000D02*
X213300000Y-88175000D01*
X201350000Y-96375000D02*
X201350000Y-96500000D01*
D20*
G36*
X225390001Y-102351038D02*
G01*
X225326333Y-102159310D01*
X225194312Y-101912317D01*
X224899224Y-101780381D01*
X223729605Y-102950000D01*
X224899224Y-104119619D01*
X225194312Y-103987683D01*
X225365159Y-103646955D01*
X225390001Y-103556643D01*
X225390001Y-104840000D01*
X223998395Y-104840000D01*
X224340690Y-104726333D01*
X224587683Y-104594312D01*
X224719619Y-104299224D01*
X223550000Y-103129605D01*
X222380381Y-104299224D01*
X222512317Y-104594312D01*
X222853045Y-104765159D01*
X223125126Y-104840000D01*
X218966811Y-104840000D01*
X219114419Y-104810639D01*
X219466566Y-104664775D01*
X219783491Y-104453013D01*
X220053013Y-104183491D01*
X220264775Y-103866566D01*
X220410639Y-103514419D01*
X220485000Y-103140581D01*
X220485000Y-103000729D01*
X221606299Y-103000729D01*
X221653543Y-103378951D01*
X221773667Y-103740690D01*
X221905688Y-103987683D01*
X222200776Y-104119619D01*
X223370395Y-102950000D01*
X222200776Y-101780381D01*
X221905688Y-101912317D01*
X221734841Y-102253045D01*
X221633750Y-102620557D01*
X221606299Y-103000729D01*
X220485000Y-103000729D01*
X220485000Y-102759419D01*
X220410639Y-102385581D01*
X220264775Y-102033434D01*
X220053013Y-101716509D01*
X219937280Y-101600776D01*
X222380381Y-101600776D01*
X223550000Y-102770395D01*
X224719619Y-101600776D01*
X224587683Y-101305688D01*
X224246955Y-101134841D01*
X223879443Y-101033750D01*
X223499271Y-101006299D01*
X223121049Y-101053543D01*
X222759310Y-101173667D01*
X222512317Y-101305688D01*
X222380381Y-101600776D01*
X219937280Y-101600776D01*
X219783491Y-101446987D01*
X219466566Y-101235225D01*
X219114419Y-101089361D01*
X218740581Y-101015000D01*
X218359419Y-101015000D01*
X217985581Y-101089361D01*
X217633434Y-101235225D01*
X217316509Y-101446987D01*
X217046987Y-101716509D01*
X216835225Y-102033434D01*
X216689361Y-102385581D01*
X216615000Y-102759419D01*
X216615000Y-103140581D01*
X216689361Y-103514419D01*
X216835225Y-103866566D01*
X217046987Y-104183491D01*
X217316509Y-104453013D01*
X217633434Y-104664775D01*
X217985581Y-104810639D01*
X218133189Y-104840000D01*
X213966811Y-104840000D01*
X214114419Y-104810639D01*
X214466566Y-104664775D01*
X214783491Y-104453013D01*
X215053013Y-104183491D01*
X215264775Y-103866566D01*
X215410639Y-103514419D01*
X215485000Y-103140581D01*
X215485000Y-102759419D01*
X215410639Y-102385581D01*
X215397564Y-102354015D01*
X215645049Y-102106530D01*
X215678817Y-102078817D01*
X215716063Y-102033434D01*
X215789410Y-101944060D01*
X215871588Y-101790314D01*
X215871589Y-101790313D01*
X215922195Y-101623490D01*
X215935000Y-101493477D01*
X215935000Y-101493467D01*
X215939281Y-101450001D01*
X215935000Y-101406535D01*
X215935000Y-97472046D01*
X216015512Y-97373942D01*
X216096423Y-97222567D01*
X216133603Y-97100000D01*
X216211928Y-97100000D01*
X216224188Y-97224482D01*
X216260498Y-97344180D01*
X216319463Y-97454494D01*
X216398815Y-97551185D01*
X216495506Y-97630537D01*
X216605820Y-97689502D01*
X216725518Y-97725812D01*
X216850000Y-97738072D01*
X217164250Y-97735000D01*
X217323000Y-97576250D01*
X217323000Y-96777000D01*
X217577000Y-96777000D01*
X217577000Y-97576250D01*
X217735750Y-97735000D01*
X218050000Y-97738072D01*
X218174482Y-97725812D01*
X218294180Y-97689502D01*
X218404494Y-97630537D01*
X218501185Y-97551185D01*
X218580537Y-97454494D01*
X218639502Y-97344180D01*
X218675812Y-97224482D01*
X218688072Y-97100000D01*
X218685000Y-96935750D01*
X218526250Y-96777000D01*
X217577000Y-96777000D01*
X217323000Y-96777000D01*
X216373750Y-96777000D01*
X216215000Y-96935750D01*
X216211928Y-97100000D01*
X216133603Y-97100000D01*
X216146248Y-97058316D01*
X216163072Y-96887500D01*
X216163072Y-96312500D01*
X216151992Y-96200000D01*
X216211928Y-96200000D01*
X216215000Y-96364250D01*
X216373750Y-96523000D01*
X217323000Y-96523000D01*
X217323000Y-95723750D01*
X217577000Y-95723750D01*
X217577000Y-96523000D01*
X218526250Y-96523000D01*
X218685000Y-96364250D01*
X218688072Y-96200000D01*
X218675812Y-96075518D01*
X218639502Y-95955820D01*
X218580537Y-95845506D01*
X218501185Y-95748815D01*
X218404494Y-95669463D01*
X218294180Y-95610498D01*
X218174482Y-95574188D01*
X218050000Y-95561928D01*
X217735750Y-95565000D01*
X217577000Y-95723750D01*
X217323000Y-95723750D01*
X217164250Y-95565000D01*
X216850000Y-95561928D01*
X216725518Y-95574188D01*
X216605820Y-95610498D01*
X216495506Y-95669463D01*
X216398815Y-95748815D01*
X216319463Y-95845506D01*
X216260498Y-95955820D01*
X216224188Y-96075518D01*
X216211928Y-96200000D01*
X216151992Y-96200000D01*
X216146248Y-96141684D01*
X216096423Y-95977433D01*
X216015512Y-95826058D01*
X215932575Y-95725000D01*
X216015512Y-95623942D01*
X216096423Y-95472567D01*
X216146248Y-95308316D01*
X216163072Y-95137500D01*
X216163072Y-94562500D01*
X216146248Y-94391684D01*
X216096423Y-94227433D01*
X216015512Y-94076058D01*
X215940782Y-93985000D01*
X216242546Y-93985000D01*
X216260498Y-94044180D01*
X216319463Y-94154494D01*
X216398815Y-94251185D01*
X216495506Y-94330537D01*
X216605820Y-94389502D01*
X216725518Y-94425812D01*
X216850000Y-94438072D01*
X218050000Y-94438072D01*
X218174482Y-94425812D01*
X218294180Y-94389502D01*
X218404494Y-94330537D01*
X218501185Y-94251185D01*
X218580537Y-94154494D01*
X218639502Y-94044180D01*
X218675812Y-93924482D01*
X218688072Y-93800000D01*
X218688072Y-92900000D01*
X218675812Y-92775518D01*
X218639502Y-92655820D01*
X218580537Y-92545506D01*
X218501185Y-92448815D01*
X218404494Y-92369463D01*
X218294180Y-92310498D01*
X218174482Y-92274188D01*
X218050000Y-92261928D01*
X217485977Y-92261928D01*
X217373490Y-92227805D01*
X217243477Y-92215000D01*
X217243469Y-92215000D01*
X217200000Y-92210719D01*
X217156531Y-92215000D01*
X215872046Y-92215000D01*
X215773942Y-92134488D01*
X215622567Y-92053577D01*
X215458316Y-92003752D01*
X215287500Y-91986928D01*
X214712500Y-91986928D01*
X214541684Y-92003752D01*
X214377433Y-92053577D01*
X214226058Y-92134488D01*
X214125000Y-92217425D01*
X214023942Y-92134488D01*
X213872567Y-92053577D01*
X213708316Y-92003752D01*
X213537500Y-91986928D01*
X213462179Y-91986928D01*
X213351939Y-91965000D01*
X213148061Y-91965000D01*
X213037821Y-91986928D01*
X212962500Y-91986928D01*
X212791684Y-92003752D01*
X212627433Y-92053577D01*
X212476058Y-92134488D01*
X212343377Y-92243377D01*
X212234488Y-92376058D01*
X212153577Y-92527433D01*
X212103752Y-92691684D01*
X212086928Y-92862500D01*
X212086928Y-93337500D01*
X212103752Y-93508316D01*
X212153577Y-93672567D01*
X212165001Y-93693940D01*
X212165001Y-93977954D01*
X212084488Y-94076058D01*
X212003577Y-94227433D01*
X211953752Y-94391684D01*
X211936928Y-94562500D01*
X211936928Y-95137500D01*
X211953752Y-95308316D01*
X212003577Y-95472567D01*
X212084488Y-95623942D01*
X212104099Y-95647839D01*
X212044463Y-95720506D01*
X211985498Y-95830820D01*
X211949188Y-95950518D01*
X211936928Y-96075000D01*
X211940000Y-96314250D01*
X212098750Y-96473000D01*
X212923000Y-96473000D01*
X212923000Y-96453000D01*
X213177000Y-96453000D01*
X213177000Y-96473000D01*
X213197000Y-96473000D01*
X213197000Y-96727000D01*
X213177000Y-96727000D01*
X213177000Y-97601250D01*
X213335750Y-97760000D01*
X213525000Y-97763072D01*
X213649482Y-97750812D01*
X213769180Y-97714502D01*
X213879494Y-97655537D01*
X213976185Y-97576185D01*
X214055537Y-97479494D01*
X214101122Y-97394211D01*
X214165000Y-97472046D01*
X214165001Y-101083420D01*
X214145985Y-101102436D01*
X214114419Y-101089361D01*
X213740581Y-101015000D01*
X213359419Y-101015000D01*
X212985581Y-101089361D01*
X212633434Y-101235225D01*
X212316509Y-101446987D01*
X212046987Y-101716509D01*
X211835225Y-102033434D01*
X211689361Y-102385581D01*
X211615000Y-102759419D01*
X211615000Y-103140581D01*
X211689361Y-103514419D01*
X211835225Y-103866566D01*
X212046987Y-104183491D01*
X212316509Y-104453013D01*
X212633434Y-104664775D01*
X212985581Y-104810639D01*
X213133189Y-104840000D01*
X208966811Y-104840000D01*
X209114419Y-104810639D01*
X209466566Y-104664775D01*
X209783491Y-104453013D01*
X210053013Y-104183491D01*
X210264775Y-103866566D01*
X210410639Y-103514419D01*
X210485000Y-103140581D01*
X210485000Y-102759419D01*
X210410639Y-102385581D01*
X210264775Y-102033434D01*
X210053013Y-101716509D01*
X209783491Y-101446987D01*
X209485000Y-101247542D01*
X209485000Y-97472046D01*
X209518599Y-97431106D01*
X209544463Y-97479494D01*
X209623815Y-97576185D01*
X209720506Y-97655537D01*
X209830820Y-97714502D01*
X209950518Y-97750812D01*
X210075000Y-97763072D01*
X210264250Y-97760000D01*
X210423000Y-97601250D01*
X210423000Y-96727000D01*
X210677000Y-96727000D01*
X210677000Y-97601250D01*
X210835750Y-97760000D01*
X211025000Y-97763072D01*
X211149482Y-97750812D01*
X211269180Y-97714502D01*
X211379494Y-97655537D01*
X211476185Y-97576185D01*
X211555537Y-97479494D01*
X211614502Y-97369180D01*
X211650812Y-97249482D01*
X211663072Y-97125000D01*
X211936928Y-97125000D01*
X211949188Y-97249482D01*
X211985498Y-97369180D01*
X212044463Y-97479494D01*
X212123815Y-97576185D01*
X212220506Y-97655537D01*
X212330820Y-97714502D01*
X212450518Y-97750812D01*
X212575000Y-97763072D01*
X212764250Y-97760000D01*
X212923000Y-97601250D01*
X212923000Y-96727000D01*
X212098750Y-96727000D01*
X211940000Y-96885750D01*
X211936928Y-97125000D01*
X211663072Y-97125000D01*
X211660000Y-96885750D01*
X211501250Y-96727000D01*
X210677000Y-96727000D01*
X210423000Y-96727000D01*
X210403000Y-96727000D01*
X210403000Y-96473000D01*
X210423000Y-96473000D01*
X210423000Y-96453000D01*
X210677000Y-96453000D01*
X210677000Y-96473000D01*
X211501250Y-96473000D01*
X211660000Y-96314250D01*
X211663072Y-96075000D01*
X211650812Y-95950518D01*
X211614502Y-95830820D01*
X211555537Y-95720506D01*
X211495901Y-95647839D01*
X211515512Y-95623942D01*
X211596423Y-95472567D01*
X211646248Y-95308316D01*
X211663072Y-95137500D01*
X211663072Y-94562500D01*
X211646248Y-94391684D01*
X211596423Y-94227433D01*
X211515512Y-94076058D01*
X211406623Y-93943377D01*
X211273942Y-93834488D01*
X211122567Y-93753577D01*
X210958316Y-93703752D01*
X210787500Y-93686928D01*
X210552611Y-93686928D01*
X210617205Y-93590256D01*
X210695226Y-93401898D01*
X210735000Y-93201939D01*
X210735000Y-92998061D01*
X210695226Y-92798102D01*
X210617205Y-92609744D01*
X210503937Y-92440226D01*
X210359774Y-92296063D01*
X210190256Y-92182795D01*
X210001898Y-92104774D01*
X209801939Y-92065000D01*
X209598061Y-92065000D01*
X209398102Y-92104774D01*
X209225069Y-92176447D01*
X209173942Y-92134488D01*
X209022567Y-92053577D01*
X208858316Y-92003752D01*
X208687500Y-91986928D01*
X208112500Y-91986928D01*
X207941684Y-92003752D01*
X207777433Y-92053577D01*
X207626058Y-92134488D01*
X207525000Y-92217425D01*
X207423942Y-92134488D01*
X207272567Y-92053577D01*
X207108316Y-92003752D01*
X206937500Y-91986928D01*
X206362500Y-91986928D01*
X206191684Y-92003752D01*
X206027433Y-92053577D01*
X205876058Y-92134488D01*
X205777954Y-92215000D01*
X204443465Y-92215000D01*
X204399999Y-92210719D01*
X204356533Y-92215000D01*
X204356523Y-92215000D01*
X204226510Y-92227805D01*
X204114023Y-92261928D01*
X203550000Y-92261928D01*
X203425518Y-92274188D01*
X203305820Y-92310498D01*
X203195506Y-92369463D01*
X203098815Y-92448815D01*
X203019463Y-92545506D01*
X202960498Y-92655820D01*
X202924188Y-92775518D01*
X202911928Y-92900000D01*
X202911928Y-93800000D01*
X202924188Y-93924482D01*
X202960498Y-94044180D01*
X203019463Y-94154494D01*
X203098815Y-94251185D01*
X203195506Y-94330537D01*
X203305820Y-94389502D01*
X203425518Y-94425812D01*
X203550000Y-94438072D01*
X204750000Y-94438072D01*
X204874482Y-94425812D01*
X204994180Y-94389502D01*
X205104494Y-94330537D01*
X205201185Y-94251185D01*
X205280537Y-94154494D01*
X205339502Y-94044180D01*
X205357454Y-93985000D01*
X205709218Y-93985000D01*
X205634488Y-94076058D01*
X205553577Y-94227433D01*
X205503752Y-94391684D01*
X205486928Y-94562500D01*
X205486928Y-95137500D01*
X205503752Y-95308316D01*
X205553577Y-95472567D01*
X205634488Y-95623942D01*
X205717425Y-95725000D01*
X205634488Y-95826058D01*
X205553577Y-95977433D01*
X205503752Y-96141684D01*
X205486928Y-96312500D01*
X205486928Y-96887500D01*
X205503752Y-97058316D01*
X205553577Y-97222567D01*
X205634488Y-97373942D01*
X205743377Y-97506623D01*
X205876058Y-97615512D01*
X206027433Y-97696423D01*
X206191684Y-97746248D01*
X206362500Y-97763072D01*
X206837500Y-97763072D01*
X207008316Y-97746248D01*
X207172567Y-97696423D01*
X207323942Y-97615512D01*
X207456623Y-97506623D01*
X207474369Y-97485000D01*
X207715000Y-97485000D01*
X207715001Y-101201439D01*
X207633434Y-101235225D01*
X207316509Y-101446987D01*
X207046987Y-101716509D01*
X206835225Y-102033434D01*
X206689361Y-102385581D01*
X206615000Y-102759419D01*
X206615000Y-103140581D01*
X206689361Y-103514419D01*
X206835225Y-103866566D01*
X207046987Y-104183491D01*
X207316509Y-104453013D01*
X207633434Y-104664775D01*
X207985581Y-104810639D01*
X208133189Y-104840000D01*
X203966811Y-104840000D01*
X204114419Y-104810639D01*
X204466566Y-104664775D01*
X204783491Y-104453013D01*
X205053013Y-104183491D01*
X205264775Y-103866566D01*
X205410639Y-103514419D01*
X205485000Y-103140581D01*
X205485000Y-102759419D01*
X205410639Y-102385581D01*
X205264775Y-102033434D01*
X205053013Y-101716509D01*
X204783491Y-101446987D01*
X204466566Y-101235225D01*
X204114419Y-101089361D01*
X203740581Y-101015000D01*
X203359419Y-101015000D01*
X202985581Y-101089361D01*
X202633434Y-101235225D01*
X202316509Y-101446987D01*
X202046987Y-101716509D01*
X201835225Y-102033434D01*
X201689361Y-102385581D01*
X201615000Y-102759419D01*
X201615000Y-103140581D01*
X201689361Y-103514419D01*
X201835225Y-103866566D01*
X202046987Y-104183491D01*
X202316509Y-104453013D01*
X202633434Y-104664775D01*
X202985581Y-104810639D01*
X203133189Y-104840000D01*
X200092538Y-104840000D01*
X200094180Y-104839502D01*
X200204494Y-104780537D01*
X200301185Y-104701185D01*
X200380537Y-104604494D01*
X200439502Y-104494180D01*
X200475812Y-104374482D01*
X200488072Y-104250000D01*
X200488072Y-101650000D01*
X200475812Y-101525518D01*
X200439502Y-101405820D01*
X200380537Y-101295506D01*
X200301185Y-101198815D01*
X200204494Y-101119463D01*
X200094180Y-101060498D01*
X199974482Y-101024188D01*
X199850000Y-101011928D01*
X197250000Y-101011928D01*
X197125518Y-101024188D01*
X197005820Y-101060498D01*
X196895506Y-101119463D01*
X196798815Y-101198815D01*
X196719463Y-101295506D01*
X196710000Y-101313210D01*
X196710000Y-94587500D01*
X197736928Y-94587500D01*
X197736928Y-95162500D01*
X197753752Y-95333316D01*
X197803577Y-95497567D01*
X197884488Y-95648942D01*
X197967425Y-95750000D01*
X197884488Y-95851058D01*
X197803577Y-96002433D01*
X197753752Y-96166684D01*
X197736928Y-96337500D01*
X197736928Y-96912500D01*
X197753752Y-97083316D01*
X197803577Y-97247567D01*
X197884488Y-97398942D01*
X197993377Y-97531623D01*
X198126058Y-97640512D01*
X198277433Y-97721423D01*
X198441684Y-97771248D01*
X198612500Y-97788072D01*
X199087500Y-97788072D01*
X199258316Y-97771248D01*
X199422567Y-97721423D01*
X199573942Y-97640512D01*
X199706623Y-97531623D01*
X199815512Y-97398942D01*
X199896423Y-97247567D01*
X199946248Y-97083316D01*
X199952583Y-97018992D01*
X200033061Y-97035000D01*
X200236939Y-97035000D01*
X200297801Y-97022894D01*
X200303752Y-97083316D01*
X200353577Y-97247567D01*
X200434488Y-97398942D01*
X200543377Y-97531623D01*
X200676058Y-97640512D01*
X200827433Y-97721423D01*
X200991684Y-97771248D01*
X201162500Y-97788072D01*
X201637500Y-97788072D01*
X201808316Y-97771248D01*
X201972567Y-97721423D01*
X202123942Y-97640512D01*
X202256623Y-97531623D01*
X202365512Y-97398942D01*
X202446423Y-97247567D01*
X202491186Y-97100000D01*
X202911928Y-97100000D01*
X202924188Y-97224482D01*
X202960498Y-97344180D01*
X203019463Y-97454494D01*
X203098815Y-97551185D01*
X203195506Y-97630537D01*
X203305820Y-97689502D01*
X203425518Y-97725812D01*
X203550000Y-97738072D01*
X203864250Y-97735000D01*
X204023000Y-97576250D01*
X204023000Y-96777000D01*
X204277000Y-96777000D01*
X204277000Y-97576250D01*
X204435750Y-97735000D01*
X204750000Y-97738072D01*
X204874482Y-97725812D01*
X204994180Y-97689502D01*
X205104494Y-97630537D01*
X205201185Y-97551185D01*
X205280537Y-97454494D01*
X205339502Y-97344180D01*
X205375812Y-97224482D01*
X205388072Y-97100000D01*
X205385000Y-96935750D01*
X205226250Y-96777000D01*
X204277000Y-96777000D01*
X204023000Y-96777000D01*
X203073750Y-96777000D01*
X202915000Y-96935750D01*
X202911928Y-97100000D01*
X202491186Y-97100000D01*
X202496248Y-97083316D01*
X202513072Y-96912500D01*
X202513072Y-96337500D01*
X202499530Y-96200000D01*
X202911928Y-96200000D01*
X202915000Y-96364250D01*
X203073750Y-96523000D01*
X204023000Y-96523000D01*
X204023000Y-95723750D01*
X204277000Y-95723750D01*
X204277000Y-96523000D01*
X205226250Y-96523000D01*
X205385000Y-96364250D01*
X205388072Y-96200000D01*
X205375812Y-96075518D01*
X205339502Y-95955820D01*
X205280537Y-95845506D01*
X205201185Y-95748815D01*
X205104494Y-95669463D01*
X204994180Y-95610498D01*
X204874482Y-95574188D01*
X204750000Y-95561928D01*
X204435750Y-95565000D01*
X204277000Y-95723750D01*
X204023000Y-95723750D01*
X203864250Y-95565000D01*
X203550000Y-95561928D01*
X203425518Y-95574188D01*
X203305820Y-95610498D01*
X203195506Y-95669463D01*
X203098815Y-95748815D01*
X203019463Y-95845506D01*
X202960498Y-95955820D01*
X202924188Y-96075518D01*
X202911928Y-96200000D01*
X202499530Y-96200000D01*
X202496248Y-96166684D01*
X202446423Y-96002433D01*
X202365512Y-95851058D01*
X202345901Y-95827161D01*
X202405537Y-95754494D01*
X202464502Y-95644180D01*
X202500812Y-95524482D01*
X202513072Y-95400000D01*
X202510000Y-95160750D01*
X202351250Y-95002000D01*
X201527000Y-95002000D01*
X201527000Y-95022000D01*
X201273000Y-95022000D01*
X201273000Y-95002000D01*
X200448750Y-95002000D01*
X200443317Y-95007433D01*
X200436898Y-95004774D01*
X200380044Y-94993465D01*
X199961870Y-94575291D01*
X199946248Y-94416684D01*
X199926020Y-94350000D01*
X200286928Y-94350000D01*
X200290000Y-94589250D01*
X200448750Y-94748000D01*
X201273000Y-94748000D01*
X201273000Y-93873750D01*
X201527000Y-93873750D01*
X201527000Y-94748000D01*
X202351250Y-94748000D01*
X202510000Y-94589250D01*
X202513072Y-94350000D01*
X202500812Y-94225518D01*
X202464502Y-94105820D01*
X202405537Y-93995506D01*
X202326185Y-93898815D01*
X202229494Y-93819463D01*
X202119180Y-93760498D01*
X201999482Y-93724188D01*
X201875000Y-93711928D01*
X201685750Y-93715000D01*
X201527000Y-93873750D01*
X201273000Y-93873750D01*
X201114250Y-93715000D01*
X200925000Y-93711928D01*
X200800518Y-93724188D01*
X200680820Y-93760498D01*
X200570506Y-93819463D01*
X200473815Y-93898815D01*
X200394463Y-93995506D01*
X200335498Y-94105820D01*
X200299188Y-94225518D01*
X200286928Y-94350000D01*
X199926020Y-94350000D01*
X199896423Y-94252433D01*
X199815512Y-94101058D01*
X199706623Y-93968377D01*
X199573942Y-93859488D01*
X199422567Y-93778577D01*
X199258316Y-93728752D01*
X199087500Y-93711928D01*
X198612500Y-93711928D01*
X198441684Y-93728752D01*
X198277433Y-93778577D01*
X198126058Y-93859488D01*
X197993377Y-93968377D01*
X197884488Y-94101058D01*
X197803577Y-94252433D01*
X197753752Y-94416684D01*
X197736928Y-94587500D01*
X196710000Y-94587500D01*
X196710000Y-89975000D01*
X209061928Y-89975000D01*
X209074188Y-90099482D01*
X209110498Y-90219180D01*
X209169463Y-90329494D01*
X209248815Y-90426185D01*
X209345506Y-90505537D01*
X209455820Y-90564502D01*
X209575518Y-90600812D01*
X209700000Y-90613072D01*
X209939250Y-90610000D01*
X210098000Y-90451250D01*
X210098000Y-89627000D01*
X209223750Y-89627000D01*
X209065000Y-89785750D01*
X209061928Y-89975000D01*
X196710000Y-89975000D01*
X196710000Y-88960107D01*
X196903368Y-89153475D01*
X197146589Y-89315990D01*
X197416842Y-89427932D01*
X197703740Y-89485000D01*
X197996260Y-89485000D01*
X198283158Y-89427932D01*
X198553411Y-89315990D01*
X198796632Y-89153475D01*
X199003475Y-88946632D01*
X199120000Y-88772240D01*
X199236525Y-88946632D01*
X199443368Y-89153475D01*
X199686589Y-89315990D01*
X199956842Y-89427932D01*
X200243740Y-89485000D01*
X200536260Y-89485000D01*
X200823158Y-89427932D01*
X201093411Y-89315990D01*
X201336632Y-89153475D01*
X201465107Y-89025000D01*
X209061928Y-89025000D01*
X209065000Y-89214250D01*
X209223750Y-89373000D01*
X210098000Y-89373000D01*
X210098000Y-88548750D01*
X209939250Y-88390000D01*
X209700000Y-88386928D01*
X209575518Y-88399188D01*
X209455820Y-88435498D01*
X209345506Y-88494463D01*
X209248815Y-88573815D01*
X209169463Y-88670506D01*
X209110498Y-88780820D01*
X209074188Y-88900518D01*
X209061928Y-89025000D01*
X201465107Y-89025000D01*
X201543475Y-88946632D01*
X201705990Y-88703411D01*
X201817932Y-88433158D01*
X201875000Y-88146260D01*
X201875000Y-87853740D01*
X201817932Y-87566842D01*
X201705990Y-87296589D01*
X201543475Y-87053368D01*
X201336632Y-86846525D01*
X201162240Y-86730000D01*
X201336632Y-86613475D01*
X201543475Y-86406632D01*
X201705990Y-86163411D01*
X201817932Y-85893158D01*
X201875000Y-85606260D01*
X201875000Y-85313740D01*
X201839446Y-85135000D01*
X204033422Y-85135000D01*
X205493470Y-86595049D01*
X205521183Y-86628817D01*
X205554951Y-86656530D01*
X205554953Y-86656532D01*
X205588435Y-86684010D01*
X205655941Y-86739411D01*
X205809687Y-86821589D01*
X205828200Y-86827205D01*
X205893377Y-86906623D01*
X206026058Y-87015512D01*
X206177433Y-87096423D01*
X206341684Y-87146248D01*
X206512500Y-87163072D01*
X206987500Y-87163072D01*
X207158316Y-87146248D01*
X207322567Y-87096423D01*
X207473942Y-87015512D01*
X207606623Y-86906623D01*
X207715512Y-86773942D01*
X207796423Y-86622567D01*
X207837410Y-86487451D01*
X207836928Y-86525000D01*
X207849188Y-86649482D01*
X207885498Y-86769180D01*
X207944463Y-86879494D01*
X208023815Y-86976185D01*
X208120506Y-87055537D01*
X208230820Y-87114502D01*
X208350518Y-87150812D01*
X208475000Y-87163072D01*
X208664250Y-87160000D01*
X208823000Y-87001250D01*
X208823000Y-86127000D01*
X209077000Y-86127000D01*
X209077000Y-87001250D01*
X209235750Y-87160000D01*
X209425000Y-87163072D01*
X209549482Y-87150812D01*
X209669180Y-87114502D01*
X209779494Y-87055537D01*
X209876185Y-86976185D01*
X209955537Y-86879494D01*
X210014502Y-86769180D01*
X210025000Y-86734573D01*
X210035498Y-86769180D01*
X210094463Y-86879494D01*
X210173815Y-86976185D01*
X210270506Y-87055537D01*
X210380820Y-87114502D01*
X210500518Y-87150812D01*
X210625000Y-87163072D01*
X210814250Y-87160000D01*
X210973000Y-87001250D01*
X210973000Y-86127000D01*
X210148750Y-86127000D01*
X210025000Y-86250750D01*
X209901250Y-86127000D01*
X209077000Y-86127000D01*
X208823000Y-86127000D01*
X208803000Y-86127000D01*
X208803000Y-85873000D01*
X208823000Y-85873000D01*
X208823000Y-85853000D01*
X209077000Y-85853000D01*
X209077000Y-85873000D01*
X209901250Y-85873000D01*
X210025000Y-85749250D01*
X210148750Y-85873000D01*
X210973000Y-85873000D01*
X210973000Y-85853000D01*
X211227000Y-85853000D01*
X211227000Y-85873000D01*
X211247000Y-85873000D01*
X211247000Y-86127000D01*
X211227000Y-86127000D01*
X211227000Y-87001250D01*
X211385750Y-87160000D01*
X211575000Y-87163072D01*
X211699482Y-87150812D01*
X211819180Y-87114502D01*
X211929494Y-87055537D01*
X212026185Y-86976185D01*
X212105537Y-86879494D01*
X212164502Y-86769180D01*
X212200812Y-86649482D01*
X212213072Y-86525000D01*
X212212590Y-86487451D01*
X212253577Y-86622567D01*
X212334488Y-86773942D01*
X212415000Y-86872046D01*
X212415001Y-87808420D01*
X211836494Y-88386928D01*
X211687500Y-88386928D01*
X211516684Y-88403752D01*
X211352433Y-88453577D01*
X211201058Y-88534488D01*
X211177161Y-88554099D01*
X211104494Y-88494463D01*
X210994180Y-88435498D01*
X210874482Y-88399188D01*
X210750000Y-88386928D01*
X210510750Y-88390000D01*
X210352000Y-88548750D01*
X210352000Y-89373000D01*
X210372000Y-89373000D01*
X210372000Y-89627000D01*
X210352000Y-89627000D01*
X210352000Y-90451250D01*
X210510750Y-90610000D01*
X210750000Y-90613072D01*
X210874482Y-90600812D01*
X210994180Y-90564502D01*
X211104494Y-90505537D01*
X211177161Y-90445901D01*
X211201058Y-90465512D01*
X211352433Y-90546423D01*
X211516684Y-90596248D01*
X211687500Y-90613072D01*
X212262500Y-90613072D01*
X212433316Y-90596248D01*
X212597567Y-90546423D01*
X212748942Y-90465512D01*
X212881623Y-90356623D01*
X212990512Y-90223942D01*
X213003309Y-90200000D01*
X214436928Y-90200000D01*
X214449188Y-90324482D01*
X214485498Y-90444180D01*
X214544463Y-90554494D01*
X214623815Y-90651185D01*
X214720506Y-90730537D01*
X214830820Y-90789502D01*
X214950518Y-90825812D01*
X215075000Y-90838072D01*
X215264250Y-90835000D01*
X215423000Y-90676250D01*
X215423000Y-89802000D01*
X215677000Y-89802000D01*
X215677000Y-90676250D01*
X215835750Y-90835000D01*
X216025000Y-90838072D01*
X216149482Y-90825812D01*
X216269180Y-90789502D01*
X216379494Y-90730537D01*
X216476185Y-90651185D01*
X216555537Y-90554494D01*
X216614502Y-90444180D01*
X216650812Y-90324482D01*
X216663072Y-90200000D01*
X216660000Y-89960750D01*
X216501250Y-89802000D01*
X215677000Y-89802000D01*
X215423000Y-89802000D01*
X214598750Y-89802000D01*
X214440000Y-89960750D01*
X214436928Y-90200000D01*
X213003309Y-90200000D01*
X213071423Y-90072567D01*
X213121248Y-89908316D01*
X213138072Y-89737500D01*
X213138072Y-89588506D01*
X213895049Y-88831530D01*
X213928817Y-88803817D01*
X213957903Y-88768377D01*
X214039410Y-88669060D01*
X214041895Y-88664411D01*
X214121589Y-88515313D01*
X214160535Y-88386928D01*
X214172195Y-88348491D01*
X214176017Y-88309687D01*
X214185000Y-88218477D01*
X214185000Y-88218469D01*
X214189281Y-88175000D01*
X214185000Y-88131531D01*
X214185000Y-86872046D01*
X214265512Y-86773942D01*
X214346423Y-86622567D01*
X214396248Y-86458316D01*
X214413072Y-86287500D01*
X214413072Y-85712500D01*
X214396248Y-85541684D01*
X214346423Y-85377433D01*
X214265512Y-85226058D01*
X214182575Y-85125000D01*
X214265512Y-85023942D01*
X214346423Y-84872567D01*
X214396248Y-84708316D01*
X214413072Y-84537500D01*
X214413072Y-84115000D01*
X214436928Y-84115000D01*
X214436928Y-84537500D01*
X214453752Y-84708316D01*
X214503577Y-84872567D01*
X214584488Y-85023942D01*
X214667425Y-85125000D01*
X214584488Y-85226058D01*
X214503577Y-85377433D01*
X214453752Y-85541684D01*
X214436928Y-85712500D01*
X214436928Y-86287500D01*
X214453752Y-86458316D01*
X214503577Y-86622567D01*
X214584488Y-86773942D01*
X214665001Y-86872046D01*
X214665000Y-87052954D01*
X214584488Y-87151058D01*
X214503577Y-87302433D01*
X214453752Y-87466684D01*
X214436928Y-87637500D01*
X214436928Y-88212500D01*
X214453752Y-88383316D01*
X214503577Y-88547567D01*
X214584488Y-88698942D01*
X214604099Y-88722839D01*
X214544463Y-88795506D01*
X214485498Y-88905820D01*
X214449188Y-89025518D01*
X214436928Y-89150000D01*
X214440000Y-89389250D01*
X214598750Y-89548000D01*
X215423000Y-89548000D01*
X215423000Y-89528000D01*
X215677000Y-89528000D01*
X215677000Y-89548000D01*
X216501250Y-89548000D01*
X216660000Y-89389250D01*
X216663072Y-89150000D01*
X216650812Y-89025518D01*
X216614502Y-88905820D01*
X216555537Y-88795506D01*
X216495901Y-88722839D01*
X216515512Y-88698942D01*
X216596423Y-88547567D01*
X216646248Y-88383316D01*
X216663072Y-88212500D01*
X216663072Y-87637500D01*
X216646248Y-87466684D01*
X216596423Y-87302433D01*
X216515512Y-87151058D01*
X216435000Y-87052954D01*
X216435000Y-86872046D01*
X216515512Y-86773942D01*
X216596423Y-86622567D01*
X216646248Y-86458316D01*
X216663072Y-86287500D01*
X216663072Y-85712500D01*
X216646248Y-85541684D01*
X216596423Y-85377433D01*
X216515512Y-85226058D01*
X216432575Y-85125000D01*
X216515512Y-85023942D01*
X216596423Y-84872567D01*
X216646248Y-84708316D01*
X216663072Y-84537500D01*
X216663072Y-84115000D01*
X216686928Y-84115000D01*
X216686928Y-84512500D01*
X216703752Y-84683316D01*
X216753577Y-84847567D01*
X216834488Y-84998942D01*
X216854099Y-85022839D01*
X216794463Y-85095506D01*
X216735498Y-85205820D01*
X216699188Y-85325518D01*
X216686928Y-85450000D01*
X216690000Y-85689250D01*
X216848750Y-85848000D01*
X217673000Y-85848000D01*
X217673000Y-85828000D01*
X217927000Y-85828000D01*
X217927000Y-85848000D01*
X217947000Y-85848000D01*
X217947000Y-86102000D01*
X217927000Y-86102000D01*
X217927000Y-86122000D01*
X217673000Y-86122000D01*
X217673000Y-86102000D01*
X216848750Y-86102000D01*
X216690000Y-86260750D01*
X216686928Y-86500000D01*
X216699188Y-86624482D01*
X216735498Y-86744180D01*
X216794463Y-86854494D01*
X216873815Y-86951185D01*
X216970506Y-87030537D01*
X217080820Y-87089502D01*
X217200518Y-87125812D01*
X217325000Y-87138072D01*
X217514250Y-87135000D01*
X217672998Y-86976252D01*
X217672998Y-87104134D01*
X217634488Y-87151058D01*
X217553577Y-87302433D01*
X217503752Y-87466684D01*
X217486928Y-87637500D01*
X217486928Y-88212500D01*
X217503752Y-88383316D01*
X217553577Y-88547567D01*
X217634488Y-88698942D01*
X217717425Y-88800000D01*
X217634488Y-88901058D01*
X217553577Y-89052433D01*
X217503752Y-89216684D01*
X217486928Y-89387500D01*
X217486928Y-89962500D01*
X217503752Y-90133316D01*
X217553577Y-90297567D01*
X217634488Y-90448942D01*
X217743377Y-90581623D01*
X217876058Y-90690512D01*
X218027433Y-90771423D01*
X218191684Y-90821248D01*
X218362500Y-90838072D01*
X218837500Y-90838072D01*
X219008316Y-90821248D01*
X219172567Y-90771423D01*
X219323942Y-90690512D01*
X219456623Y-90581623D01*
X219565512Y-90448942D01*
X219646149Y-90298080D01*
X219653577Y-90322567D01*
X219734488Y-90473942D01*
X219843377Y-90606623D01*
X219976058Y-90715512D01*
X220127433Y-90796423D01*
X220291684Y-90846248D01*
X220462500Y-90863072D01*
X220780113Y-90863072D01*
X220832795Y-90990256D01*
X220946063Y-91159774D01*
X221090226Y-91303937D01*
X221259744Y-91417205D01*
X221448102Y-91495226D01*
X221648061Y-91535000D01*
X221851939Y-91535000D01*
X222051898Y-91495226D01*
X222240256Y-91417205D01*
X222409774Y-91303937D01*
X222553937Y-91159774D01*
X222667205Y-90990256D01*
X222745226Y-90801898D01*
X222785000Y-90601939D01*
X222785000Y-90398061D01*
X222745226Y-90198102D01*
X222667205Y-90009744D01*
X222635000Y-89961546D01*
X222635000Y-86470396D01*
X222646248Y-86433316D01*
X222663072Y-86262500D01*
X222663072Y-85687500D01*
X222646248Y-85516684D01*
X222596423Y-85352433D01*
X222515512Y-85201058D01*
X222432575Y-85100000D01*
X222515512Y-84998942D01*
X222596423Y-84847567D01*
X222646248Y-84683316D01*
X222663072Y-84512500D01*
X222663072Y-83937500D01*
X222646248Y-83766684D01*
X222596423Y-83602433D01*
X222515512Y-83451058D01*
X222406623Y-83318377D01*
X222273942Y-83209488D01*
X222122567Y-83128577D01*
X221958316Y-83078752D01*
X221787500Y-83061928D01*
X221312500Y-83061928D01*
X221141684Y-83078752D01*
X220977433Y-83128577D01*
X220826058Y-83209488D01*
X220693377Y-83318377D01*
X220675631Y-83340000D01*
X220535000Y-83340000D01*
X220535000Y-80387482D01*
X220596423Y-80272567D01*
X220646248Y-80108316D01*
X220663072Y-79937500D01*
X220663072Y-79890646D01*
X220668577Y-79872499D01*
X220690491Y-79650000D01*
X220668577Y-79427501D01*
X220663072Y-79409354D01*
X220663072Y-79362500D01*
X220646248Y-79191684D01*
X220596423Y-79027433D01*
X220515512Y-78876058D01*
X220495901Y-78852161D01*
X220555537Y-78779494D01*
X220614502Y-78669180D01*
X220650812Y-78549482D01*
X220663072Y-78425000D01*
X220660000Y-78185750D01*
X220501250Y-78027000D01*
X219677000Y-78027000D01*
X219677000Y-78047000D01*
X219423000Y-78047000D01*
X219423000Y-78027000D01*
X217977000Y-78027000D01*
X217977000Y-78047000D01*
X217723000Y-78047000D01*
X217723000Y-78027000D01*
X216898750Y-78027000D01*
X216740000Y-78185750D01*
X216736928Y-78425000D01*
X216749188Y-78549482D01*
X216785498Y-78669180D01*
X216844463Y-78779494D01*
X216904099Y-78852161D01*
X216884488Y-78876058D01*
X216803577Y-79027433D01*
X216753752Y-79191684D01*
X216736928Y-79362500D01*
X216736928Y-79409354D01*
X216731423Y-79427501D01*
X216709509Y-79650000D01*
X216715000Y-79705752D01*
X216715001Y-81845000D01*
X205688072Y-81845000D01*
X205688072Y-81562500D01*
X205671248Y-81391684D01*
X205621423Y-81227433D01*
X205540512Y-81076058D01*
X205431623Y-80943377D01*
X205426037Y-80938793D01*
X205556623Y-80831623D01*
X205572661Y-80812081D01*
X205595000Y-80814281D01*
X205638469Y-80810000D01*
X205638477Y-80810000D01*
X205768490Y-80797195D01*
X205935313Y-80746589D01*
X206089059Y-80664411D01*
X206223817Y-80553817D01*
X206251534Y-80520044D01*
X206636578Y-80135000D01*
X206903421Y-80135000D01*
X207179629Y-80411208D01*
X207228577Y-80572567D01*
X207309488Y-80723942D01*
X207418377Y-80856623D01*
X207551058Y-80965512D01*
X207702433Y-81046423D01*
X207866684Y-81096248D01*
X208037500Y-81113072D01*
X208612500Y-81113072D01*
X208783316Y-81096248D01*
X208947567Y-81046423D01*
X209098942Y-80965512D01*
X209200000Y-80882575D01*
X209301058Y-80965512D01*
X209452433Y-81046423D01*
X209616684Y-81096248D01*
X209787500Y-81113072D01*
X210362500Y-81113072D01*
X210533316Y-81096248D01*
X210697567Y-81046423D01*
X210848942Y-80965512D01*
X210981623Y-80856623D01*
X211090512Y-80723942D01*
X211171423Y-80572567D01*
X211211662Y-80439916D01*
X211516578Y-80135000D01*
X211783421Y-80135000D01*
X212168470Y-80520049D01*
X212196183Y-80553817D01*
X212229951Y-80581530D01*
X212229953Y-80581532D01*
X212250366Y-80598284D01*
X212330941Y-80664411D01*
X212484687Y-80746589D01*
X212557171Y-80768577D01*
X212651509Y-80797195D01*
X212666306Y-80798652D01*
X212775113Y-80809369D01*
X212793377Y-80831623D01*
X212926058Y-80940512D01*
X213077433Y-81021423D01*
X213241684Y-81071248D01*
X213412500Y-81088072D01*
X213887500Y-81088072D01*
X214058316Y-81071248D01*
X214222567Y-81021423D01*
X214373942Y-80940512D01*
X214506623Y-80831623D01*
X214615512Y-80698942D01*
X214696423Y-80547567D01*
X214746248Y-80383316D01*
X214763072Y-80212500D01*
X214763072Y-79637500D01*
X214746248Y-79466684D01*
X214696423Y-79302433D01*
X214615512Y-79151058D01*
X214595901Y-79127161D01*
X214655537Y-79054494D01*
X214714502Y-78944180D01*
X214750812Y-78824482D01*
X214763072Y-78700000D01*
X214760000Y-78460750D01*
X214601250Y-78302000D01*
X213777000Y-78302000D01*
X213777000Y-78322000D01*
X213523000Y-78322000D01*
X213523000Y-78302000D01*
X213503000Y-78302000D01*
X213503000Y-78048000D01*
X213523000Y-78048000D01*
X213523000Y-77173750D01*
X213777000Y-77173750D01*
X213777000Y-78048000D01*
X214601250Y-78048000D01*
X214760000Y-77889250D01*
X214763072Y-77650000D01*
X214750812Y-77525518D01*
X214714502Y-77405820D01*
X214698029Y-77375000D01*
X216736928Y-77375000D01*
X216740000Y-77614250D01*
X216898750Y-77773000D01*
X217723000Y-77773000D01*
X217723000Y-76898750D01*
X217977000Y-76898750D01*
X217977000Y-77773000D01*
X219423000Y-77773000D01*
X219423000Y-76898750D01*
X219677000Y-76898750D01*
X219677000Y-77773000D01*
X220501250Y-77773000D01*
X220660000Y-77614250D01*
X220663072Y-77375000D01*
X220650812Y-77250518D01*
X220614502Y-77130820D01*
X220555537Y-77020506D01*
X220476185Y-76923815D01*
X220379494Y-76844463D01*
X220269180Y-76785498D01*
X220149482Y-76749188D01*
X220025000Y-76736928D01*
X219835750Y-76740000D01*
X219677000Y-76898750D01*
X219423000Y-76898750D01*
X219264250Y-76740000D01*
X219075000Y-76736928D01*
X218950518Y-76749188D01*
X218830820Y-76785498D01*
X218720506Y-76844463D01*
X218700000Y-76861292D01*
X218679494Y-76844463D01*
X218569180Y-76785498D01*
X218449482Y-76749188D01*
X218325000Y-76736928D01*
X218135750Y-76740000D01*
X217977000Y-76898750D01*
X217723000Y-76898750D01*
X217564250Y-76740000D01*
X217375000Y-76736928D01*
X217250518Y-76749188D01*
X217130820Y-76785498D01*
X217020506Y-76844463D01*
X216923815Y-76923815D01*
X216844463Y-77020506D01*
X216785498Y-77130820D01*
X216749188Y-77250518D01*
X216736928Y-77375000D01*
X214698029Y-77375000D01*
X214655537Y-77295506D01*
X214576185Y-77198815D01*
X214479494Y-77119463D01*
X214369180Y-77060498D01*
X214249482Y-77024188D01*
X214125000Y-77011928D01*
X213935750Y-77015000D01*
X213777000Y-77173750D01*
X213523000Y-77173750D01*
X213364250Y-77015000D01*
X213175000Y-77011928D01*
X213050518Y-77024188D01*
X212930820Y-77060498D01*
X212820506Y-77119463D01*
X212723815Y-77198815D01*
X212644463Y-77295506D01*
X212585498Y-77405820D01*
X212549188Y-77525518D01*
X212536928Y-77650000D01*
X212537295Y-77678610D01*
X212532886Y-77674201D01*
X212306043Y-77522629D01*
X212053989Y-77418225D01*
X211786411Y-77365000D01*
X211513589Y-77365000D01*
X211246011Y-77418225D01*
X210993957Y-77522629D01*
X210767114Y-77674201D01*
X210574201Y-77867114D01*
X210422629Y-78093957D01*
X210318225Y-78346011D01*
X210265000Y-78613589D01*
X210265000Y-78883422D01*
X210261494Y-78886928D01*
X209787500Y-78886928D01*
X209616684Y-78903752D01*
X209452433Y-78953577D01*
X209301058Y-79034488D01*
X209200000Y-79117425D01*
X209098942Y-79034488D01*
X208947567Y-78953577D01*
X208783316Y-78903752D01*
X208612500Y-78886928D01*
X208158507Y-78886928D01*
X208155000Y-78883421D01*
X208155000Y-78613589D01*
X208101775Y-78346011D01*
X207997371Y-78093957D01*
X207845799Y-77867114D01*
X207652886Y-77674201D01*
X207426043Y-77522629D01*
X207173989Y-77418225D01*
X206906411Y-77365000D01*
X206633589Y-77365000D01*
X206366011Y-77418225D01*
X206113957Y-77522629D01*
X205887114Y-77674201D01*
X205811794Y-77749521D01*
X205813072Y-77650000D01*
X205800812Y-77525518D01*
X205764502Y-77405820D01*
X205705537Y-77295506D01*
X205626185Y-77198815D01*
X205529494Y-77119463D01*
X205419180Y-77060498D01*
X205299482Y-77024188D01*
X205175000Y-77011928D01*
X204985750Y-77015000D01*
X204827000Y-77173750D01*
X204827000Y-78048000D01*
X204847000Y-78048000D01*
X204847000Y-78302000D01*
X204827000Y-78302000D01*
X204827000Y-78322000D01*
X204573000Y-78322000D01*
X204573000Y-78302000D01*
X203748750Y-78302000D01*
X203675000Y-78375750D01*
X203601250Y-78302000D01*
X202777000Y-78302000D01*
X202777000Y-78322000D01*
X202523000Y-78322000D01*
X202523000Y-78302000D01*
X202503000Y-78302000D01*
X202503000Y-78048000D01*
X202523000Y-78048000D01*
X202523000Y-77173750D01*
X202777000Y-77173750D01*
X202777000Y-78048000D01*
X203601250Y-78048000D01*
X203675000Y-77974250D01*
X203748750Y-78048000D01*
X204573000Y-78048000D01*
X204573000Y-77173750D01*
X204414250Y-77015000D01*
X204225000Y-77011928D01*
X204100518Y-77024188D01*
X203980820Y-77060498D01*
X203870506Y-77119463D01*
X203773815Y-77198815D01*
X203694463Y-77295506D01*
X203675000Y-77331918D01*
X203655537Y-77295506D01*
X203576185Y-77198815D01*
X203479494Y-77119463D01*
X203369180Y-77060498D01*
X203249482Y-77024188D01*
X203125000Y-77011928D01*
X202935750Y-77015000D01*
X202777000Y-77173750D01*
X202523000Y-77173750D01*
X202364250Y-77015000D01*
X202175000Y-77011928D01*
X202050518Y-77024188D01*
X201930820Y-77060498D01*
X201820506Y-77119463D01*
X201723815Y-77198815D01*
X201722369Y-77200577D01*
X201661641Y-77073080D01*
X201487588Y-76839731D01*
X201271355Y-76644822D01*
X201021252Y-76495843D01*
X200746891Y-76398519D01*
X200517002Y-76519185D01*
X200517002Y-76360000D01*
X225390000Y-76360000D01*
X225390001Y-102351038D01*
G37*
X225390001Y-102351038D02*
X225326333Y-102159310D01*
X225194312Y-101912317D01*
X224899224Y-101780381D01*
X223729605Y-102950000D01*
X224899224Y-104119619D01*
X225194312Y-103987683D01*
X225365159Y-103646955D01*
X225390001Y-103556643D01*
X225390001Y-104840000D01*
X223998395Y-104840000D01*
X224340690Y-104726333D01*
X224587683Y-104594312D01*
X224719619Y-104299224D01*
X223550000Y-103129605D01*
X222380381Y-104299224D01*
X222512317Y-104594312D01*
X222853045Y-104765159D01*
X223125126Y-104840000D01*
X218966811Y-104840000D01*
X219114419Y-104810639D01*
X219466566Y-104664775D01*
X219783491Y-104453013D01*
X220053013Y-104183491D01*
X220264775Y-103866566D01*
X220410639Y-103514419D01*
X220485000Y-103140581D01*
X220485000Y-103000729D01*
X221606299Y-103000729D01*
X221653543Y-103378951D01*
X221773667Y-103740690D01*
X221905688Y-103987683D01*
X222200776Y-104119619D01*
X223370395Y-102950000D01*
X222200776Y-101780381D01*
X221905688Y-101912317D01*
X221734841Y-102253045D01*
X221633750Y-102620557D01*
X221606299Y-103000729D01*
X220485000Y-103000729D01*
X220485000Y-102759419D01*
X220410639Y-102385581D01*
X220264775Y-102033434D01*
X220053013Y-101716509D01*
X219937280Y-101600776D01*
X222380381Y-101600776D01*
X223550000Y-102770395D01*
X224719619Y-101600776D01*
X224587683Y-101305688D01*
X224246955Y-101134841D01*
X223879443Y-101033750D01*
X223499271Y-101006299D01*
X223121049Y-101053543D01*
X222759310Y-101173667D01*
X222512317Y-101305688D01*
X222380381Y-101600776D01*
X219937280Y-101600776D01*
X219783491Y-101446987D01*
X219466566Y-101235225D01*
X219114419Y-101089361D01*
X218740581Y-101015000D01*
X218359419Y-101015000D01*
X217985581Y-101089361D01*
X217633434Y-101235225D01*
X217316509Y-101446987D01*
X217046987Y-101716509D01*
X216835225Y-102033434D01*
X216689361Y-102385581D01*
X216615000Y-102759419D01*
X216615000Y-103140581D01*
X216689361Y-103514419D01*
X216835225Y-103866566D01*
X217046987Y-104183491D01*
X217316509Y-104453013D01*
X217633434Y-104664775D01*
X217985581Y-104810639D01*
X218133189Y-104840000D01*
X213966811Y-104840000D01*
X214114419Y-104810639D01*
X214466566Y-104664775D01*
X214783491Y-104453013D01*
X215053013Y-104183491D01*
X215264775Y-103866566D01*
X215410639Y-103514419D01*
X215485000Y-103140581D01*
X215485000Y-102759419D01*
X215410639Y-102385581D01*
X215397564Y-102354015D01*
X215645049Y-102106530D01*
X215678817Y-102078817D01*
X215716063Y-102033434D01*
X215789410Y-101944060D01*
X215871588Y-101790314D01*
X215871589Y-101790313D01*
X215922195Y-101623490D01*
X215935000Y-101493477D01*
X215935000Y-101493467D01*
X215939281Y-101450001D01*
X215935000Y-101406535D01*
X215935000Y-97472046D01*
X216015512Y-97373942D01*
X216096423Y-97222567D01*
X216133603Y-97100000D01*
X216211928Y-97100000D01*
X216224188Y-97224482D01*
X216260498Y-97344180D01*
X216319463Y-97454494D01*
X216398815Y-97551185D01*
X216495506Y-97630537D01*
X216605820Y-97689502D01*
X216725518Y-97725812D01*
X216850000Y-97738072D01*
X217164250Y-97735000D01*
X217323000Y-97576250D01*
X217323000Y-96777000D01*
X217577000Y-96777000D01*
X217577000Y-97576250D01*
X217735750Y-97735000D01*
X218050000Y-97738072D01*
X218174482Y-97725812D01*
X218294180Y-97689502D01*
X218404494Y-97630537D01*
X218501185Y-97551185D01*
X218580537Y-97454494D01*
X218639502Y-97344180D01*
X218675812Y-97224482D01*
X218688072Y-97100000D01*
X218685000Y-96935750D01*
X218526250Y-96777000D01*
X217577000Y-96777000D01*
X217323000Y-96777000D01*
X216373750Y-96777000D01*
X216215000Y-96935750D01*
X216211928Y-97100000D01*
X216133603Y-97100000D01*
X216146248Y-97058316D01*
X216163072Y-96887500D01*
X216163072Y-96312500D01*
X216151992Y-96200000D01*
X216211928Y-96200000D01*
X216215000Y-96364250D01*
X216373750Y-96523000D01*
X217323000Y-96523000D01*
X217323000Y-95723750D01*
X217577000Y-95723750D01*
X217577000Y-96523000D01*
X218526250Y-96523000D01*
X218685000Y-96364250D01*
X218688072Y-96200000D01*
X218675812Y-96075518D01*
X218639502Y-95955820D01*
X218580537Y-95845506D01*
X218501185Y-95748815D01*
X218404494Y-95669463D01*
X218294180Y-95610498D01*
X218174482Y-95574188D01*
X218050000Y-95561928D01*
X217735750Y-95565000D01*
X217577000Y-95723750D01*
X217323000Y-95723750D01*
X217164250Y-95565000D01*
X216850000Y-95561928D01*
X216725518Y-95574188D01*
X216605820Y-95610498D01*
X216495506Y-95669463D01*
X216398815Y-95748815D01*
X216319463Y-95845506D01*
X216260498Y-95955820D01*
X216224188Y-96075518D01*
X216211928Y-96200000D01*
X216151992Y-96200000D01*
X216146248Y-96141684D01*
X216096423Y-95977433D01*
X216015512Y-95826058D01*
X215932575Y-95725000D01*
X216015512Y-95623942D01*
X216096423Y-95472567D01*
X216146248Y-95308316D01*
X216163072Y-95137500D01*
X216163072Y-94562500D01*
X216146248Y-94391684D01*
X216096423Y-94227433D01*
X216015512Y-94076058D01*
X215940782Y-93985000D01*
X216242546Y-93985000D01*
X216260498Y-94044180D01*
X216319463Y-94154494D01*
X216398815Y-94251185D01*
X216495506Y-94330537D01*
X216605820Y-94389502D01*
X216725518Y-94425812D01*
X216850000Y-94438072D01*
X218050000Y-94438072D01*
X218174482Y-94425812D01*
X218294180Y-94389502D01*
X218404494Y-94330537D01*
X218501185Y-94251185D01*
X218580537Y-94154494D01*
X218639502Y-94044180D01*
X218675812Y-93924482D01*
X218688072Y-93800000D01*
X218688072Y-92900000D01*
X218675812Y-92775518D01*
X218639502Y-92655820D01*
X218580537Y-92545506D01*
X218501185Y-92448815D01*
X218404494Y-92369463D01*
X218294180Y-92310498D01*
X218174482Y-92274188D01*
X218050000Y-92261928D01*
X217485977Y-92261928D01*
X217373490Y-92227805D01*
X217243477Y-92215000D01*
X217243469Y-92215000D01*
X217200000Y-92210719D01*
X217156531Y-92215000D01*
X215872046Y-92215000D01*
X215773942Y-92134488D01*
X215622567Y-92053577D01*
X215458316Y-92003752D01*
X215287500Y-91986928D01*
X214712500Y-91986928D01*
X214541684Y-92003752D01*
X214377433Y-92053577D01*
X214226058Y-92134488D01*
X214125000Y-92217425D01*
X214023942Y-92134488D01*
X213872567Y-92053577D01*
X213708316Y-92003752D01*
X213537500Y-91986928D01*
X213462179Y-91986928D01*
X213351939Y-91965000D01*
X213148061Y-91965000D01*
X213037821Y-91986928D01*
X212962500Y-91986928D01*
X212791684Y-92003752D01*
X212627433Y-92053577D01*
X212476058Y-92134488D01*
X212343377Y-92243377D01*
X212234488Y-92376058D01*
X212153577Y-92527433D01*
X212103752Y-92691684D01*
X212086928Y-92862500D01*
X212086928Y-93337500D01*
X212103752Y-93508316D01*
X212153577Y-93672567D01*
X212165001Y-93693940D01*
X212165001Y-93977954D01*
X212084488Y-94076058D01*
X212003577Y-94227433D01*
X211953752Y-94391684D01*
X211936928Y-94562500D01*
X211936928Y-95137500D01*
X211953752Y-95308316D01*
X212003577Y-95472567D01*
X212084488Y-95623942D01*
X212104099Y-95647839D01*
X212044463Y-95720506D01*
X211985498Y-95830820D01*
X211949188Y-95950518D01*
X211936928Y-96075000D01*
X211940000Y-96314250D01*
X212098750Y-96473000D01*
X212923000Y-96473000D01*
X212923000Y-96453000D01*
X213177000Y-96453000D01*
X213177000Y-96473000D01*
X213197000Y-96473000D01*
X213197000Y-96727000D01*
X213177000Y-96727000D01*
X213177000Y-97601250D01*
X213335750Y-97760000D01*
X213525000Y-97763072D01*
X213649482Y-97750812D01*
X213769180Y-97714502D01*
X213879494Y-97655537D01*
X213976185Y-97576185D01*
X214055537Y-97479494D01*
X214101122Y-97394211D01*
X214165000Y-97472046D01*
X214165001Y-101083420D01*
X214145985Y-101102436D01*
X214114419Y-101089361D01*
X213740581Y-101015000D01*
X213359419Y-101015000D01*
X212985581Y-101089361D01*
X212633434Y-101235225D01*
X212316509Y-101446987D01*
X212046987Y-101716509D01*
X211835225Y-102033434D01*
X211689361Y-102385581D01*
X211615000Y-102759419D01*
X211615000Y-103140581D01*
X211689361Y-103514419D01*
X211835225Y-103866566D01*
X212046987Y-104183491D01*
X212316509Y-104453013D01*
X212633434Y-104664775D01*
X212985581Y-104810639D01*
X213133189Y-104840000D01*
X208966811Y-104840000D01*
X209114419Y-104810639D01*
X209466566Y-104664775D01*
X209783491Y-104453013D01*
X210053013Y-104183491D01*
X210264775Y-103866566D01*
X210410639Y-103514419D01*
X210485000Y-103140581D01*
X210485000Y-102759419D01*
X210410639Y-102385581D01*
X210264775Y-102033434D01*
X210053013Y-101716509D01*
X209783491Y-101446987D01*
X209485000Y-101247542D01*
X209485000Y-97472046D01*
X209518599Y-97431106D01*
X209544463Y-97479494D01*
X209623815Y-97576185D01*
X209720506Y-97655537D01*
X209830820Y-97714502D01*
X209950518Y-97750812D01*
X210075000Y-97763072D01*
X210264250Y-97760000D01*
X210423000Y-97601250D01*
X210423000Y-96727000D01*
X210677000Y-96727000D01*
X210677000Y-97601250D01*
X210835750Y-97760000D01*
X211025000Y-97763072D01*
X211149482Y-97750812D01*
X211269180Y-97714502D01*
X211379494Y-97655537D01*
X211476185Y-97576185D01*
X211555537Y-97479494D01*
X211614502Y-97369180D01*
X211650812Y-97249482D01*
X211663072Y-97125000D01*
X211936928Y-97125000D01*
X211949188Y-97249482D01*
X211985498Y-97369180D01*
X212044463Y-97479494D01*
X212123815Y-97576185D01*
X212220506Y-97655537D01*
X212330820Y-97714502D01*
X212450518Y-97750812D01*
X212575000Y-97763072D01*
X212764250Y-97760000D01*
X212923000Y-97601250D01*
X212923000Y-96727000D01*
X212098750Y-96727000D01*
X211940000Y-96885750D01*
X211936928Y-97125000D01*
X211663072Y-97125000D01*
X211660000Y-96885750D01*
X211501250Y-96727000D01*
X210677000Y-96727000D01*
X210423000Y-96727000D01*
X210403000Y-96727000D01*
X210403000Y-96473000D01*
X210423000Y-96473000D01*
X210423000Y-96453000D01*
X210677000Y-96453000D01*
X210677000Y-96473000D01*
X211501250Y-96473000D01*
X211660000Y-96314250D01*
X211663072Y-96075000D01*
X211650812Y-95950518D01*
X211614502Y-95830820D01*
X211555537Y-95720506D01*
X211495901Y-95647839D01*
X211515512Y-95623942D01*
X211596423Y-95472567D01*
X211646248Y-95308316D01*
X211663072Y-95137500D01*
X211663072Y-94562500D01*
X211646248Y-94391684D01*
X211596423Y-94227433D01*
X211515512Y-94076058D01*
X211406623Y-93943377D01*
X211273942Y-93834488D01*
X211122567Y-93753577D01*
X210958316Y-93703752D01*
X210787500Y-93686928D01*
X210552611Y-93686928D01*
X210617205Y-93590256D01*
X210695226Y-93401898D01*
X210735000Y-93201939D01*
X210735000Y-92998061D01*
X210695226Y-92798102D01*
X210617205Y-92609744D01*
X210503937Y-92440226D01*
X210359774Y-92296063D01*
X210190256Y-92182795D01*
X210001898Y-92104774D01*
X209801939Y-92065000D01*
X209598061Y-92065000D01*
X209398102Y-92104774D01*
X209225069Y-92176447D01*
X209173942Y-92134488D01*
X209022567Y-92053577D01*
X208858316Y-92003752D01*
X208687500Y-91986928D01*
X208112500Y-91986928D01*
X207941684Y-92003752D01*
X207777433Y-92053577D01*
X207626058Y-92134488D01*
X207525000Y-92217425D01*
X207423942Y-92134488D01*
X207272567Y-92053577D01*
X207108316Y-92003752D01*
X206937500Y-91986928D01*
X206362500Y-91986928D01*
X206191684Y-92003752D01*
X206027433Y-92053577D01*
X205876058Y-92134488D01*
X205777954Y-92215000D01*
X204443465Y-92215000D01*
X204399999Y-92210719D01*
X204356533Y-92215000D01*
X204356523Y-92215000D01*
X204226510Y-92227805D01*
X204114023Y-92261928D01*
X203550000Y-92261928D01*
X203425518Y-92274188D01*
X203305820Y-92310498D01*
X203195506Y-92369463D01*
X203098815Y-92448815D01*
X203019463Y-92545506D01*
X202960498Y-92655820D01*
X202924188Y-92775518D01*
X202911928Y-92900000D01*
X202911928Y-93800000D01*
X202924188Y-93924482D01*
X202960498Y-94044180D01*
X203019463Y-94154494D01*
X203098815Y-94251185D01*
X203195506Y-94330537D01*
X203305820Y-94389502D01*
X203425518Y-94425812D01*
X203550000Y-94438072D01*
X204750000Y-94438072D01*
X204874482Y-94425812D01*
X204994180Y-94389502D01*
X205104494Y-94330537D01*
X205201185Y-94251185D01*
X205280537Y-94154494D01*
X205339502Y-94044180D01*
X205357454Y-93985000D01*
X205709218Y-93985000D01*
X205634488Y-94076058D01*
X205553577Y-94227433D01*
X205503752Y-94391684D01*
X205486928Y-94562500D01*
X205486928Y-95137500D01*
X205503752Y-95308316D01*
X205553577Y-95472567D01*
X205634488Y-95623942D01*
X205717425Y-95725000D01*
X205634488Y-95826058D01*
X205553577Y-95977433D01*
X205503752Y-96141684D01*
X205486928Y-96312500D01*
X205486928Y-96887500D01*
X205503752Y-97058316D01*
X205553577Y-97222567D01*
X205634488Y-97373942D01*
X205743377Y-97506623D01*
X205876058Y-97615512D01*
X206027433Y-97696423D01*
X206191684Y-97746248D01*
X206362500Y-97763072D01*
X206837500Y-97763072D01*
X207008316Y-97746248D01*
X207172567Y-97696423D01*
X207323942Y-97615512D01*
X207456623Y-97506623D01*
X207474369Y-97485000D01*
X207715000Y-97485000D01*
X207715001Y-101201439D01*
X207633434Y-101235225D01*
X207316509Y-101446987D01*
X207046987Y-101716509D01*
X206835225Y-102033434D01*
X206689361Y-102385581D01*
X206615000Y-102759419D01*
X206615000Y-103140581D01*
X206689361Y-103514419D01*
X206835225Y-103866566D01*
X207046987Y-104183491D01*
X207316509Y-104453013D01*
X207633434Y-104664775D01*
X207985581Y-104810639D01*
X208133189Y-104840000D01*
X203966811Y-104840000D01*
X204114419Y-104810639D01*
X204466566Y-104664775D01*
X204783491Y-104453013D01*
X205053013Y-104183491D01*
X205264775Y-103866566D01*
X205410639Y-103514419D01*
X205485000Y-103140581D01*
X205485000Y-102759419D01*
X205410639Y-102385581D01*
X205264775Y-102033434D01*
X205053013Y-101716509D01*
X204783491Y-101446987D01*
X204466566Y-101235225D01*
X204114419Y-101089361D01*
X203740581Y-101015000D01*
X203359419Y-101015000D01*
X202985581Y-101089361D01*
X202633434Y-101235225D01*
X202316509Y-101446987D01*
X202046987Y-101716509D01*
X201835225Y-102033434D01*
X201689361Y-102385581D01*
X201615000Y-102759419D01*
X201615000Y-103140581D01*
X201689361Y-103514419D01*
X201835225Y-103866566D01*
X202046987Y-104183491D01*
X202316509Y-104453013D01*
X202633434Y-104664775D01*
X202985581Y-104810639D01*
X203133189Y-104840000D01*
X200092538Y-104840000D01*
X200094180Y-104839502D01*
X200204494Y-104780537D01*
X200301185Y-104701185D01*
X200380537Y-104604494D01*
X200439502Y-104494180D01*
X200475812Y-104374482D01*
X200488072Y-104250000D01*
X200488072Y-101650000D01*
X200475812Y-101525518D01*
X200439502Y-101405820D01*
X200380537Y-101295506D01*
X200301185Y-101198815D01*
X200204494Y-101119463D01*
X200094180Y-101060498D01*
X199974482Y-101024188D01*
X199850000Y-101011928D01*
X197250000Y-101011928D01*
X197125518Y-101024188D01*
X197005820Y-101060498D01*
X196895506Y-101119463D01*
X196798815Y-101198815D01*
X196719463Y-101295506D01*
X196710000Y-101313210D01*
X196710000Y-94587500D01*
X197736928Y-94587500D01*
X197736928Y-95162500D01*
X197753752Y-95333316D01*
X197803577Y-95497567D01*
X197884488Y-95648942D01*
X197967425Y-95750000D01*
X197884488Y-95851058D01*
X197803577Y-96002433D01*
X197753752Y-96166684D01*
X197736928Y-96337500D01*
X197736928Y-96912500D01*
X197753752Y-97083316D01*
X197803577Y-97247567D01*
X197884488Y-97398942D01*
X197993377Y-97531623D01*
X198126058Y-97640512D01*
X198277433Y-97721423D01*
X198441684Y-97771248D01*
X198612500Y-97788072D01*
X199087500Y-97788072D01*
X199258316Y-97771248D01*
X199422567Y-97721423D01*
X199573942Y-97640512D01*
X199706623Y-97531623D01*
X199815512Y-97398942D01*
X199896423Y-97247567D01*
X199946248Y-97083316D01*
X199952583Y-97018992D01*
X200033061Y-97035000D01*
X200236939Y-97035000D01*
X200297801Y-97022894D01*
X200303752Y-97083316D01*
X200353577Y-97247567D01*
X200434488Y-97398942D01*
X200543377Y-97531623D01*
X200676058Y-97640512D01*
X200827433Y-97721423D01*
X200991684Y-97771248D01*
X201162500Y-97788072D01*
X201637500Y-97788072D01*
X201808316Y-97771248D01*
X201972567Y-97721423D01*
X202123942Y-97640512D01*
X202256623Y-97531623D01*
X202365512Y-97398942D01*
X202446423Y-97247567D01*
X202491186Y-97100000D01*
X202911928Y-97100000D01*
X202924188Y-97224482D01*
X202960498Y-97344180D01*
X203019463Y-97454494D01*
X203098815Y-97551185D01*
X203195506Y-97630537D01*
X203305820Y-97689502D01*
X203425518Y-97725812D01*
X203550000Y-97738072D01*
X203864250Y-97735000D01*
X204023000Y-97576250D01*
X204023000Y-96777000D01*
X204277000Y-96777000D01*
X204277000Y-97576250D01*
X204435750Y-97735000D01*
X204750000Y-97738072D01*
X204874482Y-97725812D01*
X204994180Y-97689502D01*
X205104494Y-97630537D01*
X205201185Y-97551185D01*
X205280537Y-97454494D01*
X205339502Y-97344180D01*
X205375812Y-97224482D01*
X205388072Y-97100000D01*
X205385000Y-96935750D01*
X205226250Y-96777000D01*
X204277000Y-96777000D01*
X204023000Y-96777000D01*
X203073750Y-96777000D01*
X202915000Y-96935750D01*
X202911928Y-97100000D01*
X202491186Y-97100000D01*
X202496248Y-97083316D01*
X202513072Y-96912500D01*
X202513072Y-96337500D01*
X202499530Y-96200000D01*
X202911928Y-96200000D01*
X202915000Y-96364250D01*
X203073750Y-96523000D01*
X204023000Y-96523000D01*
X204023000Y-95723750D01*
X204277000Y-95723750D01*
X204277000Y-96523000D01*
X205226250Y-96523000D01*
X205385000Y-96364250D01*
X205388072Y-96200000D01*
X205375812Y-96075518D01*
X205339502Y-95955820D01*
X205280537Y-95845506D01*
X205201185Y-95748815D01*
X205104494Y-95669463D01*
X204994180Y-95610498D01*
X204874482Y-95574188D01*
X204750000Y-95561928D01*
X204435750Y-95565000D01*
X204277000Y-95723750D01*
X204023000Y-95723750D01*
X203864250Y-95565000D01*
X203550000Y-95561928D01*
X203425518Y-95574188D01*
X203305820Y-95610498D01*
X203195506Y-95669463D01*
X203098815Y-95748815D01*
X203019463Y-95845506D01*
X202960498Y-95955820D01*
X202924188Y-96075518D01*
X202911928Y-96200000D01*
X202499530Y-96200000D01*
X202496248Y-96166684D01*
X202446423Y-96002433D01*
X202365512Y-95851058D01*
X202345901Y-95827161D01*
X202405537Y-95754494D01*
X202464502Y-95644180D01*
X202500812Y-95524482D01*
X202513072Y-95400000D01*
X202510000Y-95160750D01*
X202351250Y-95002000D01*
X201527000Y-95002000D01*
X201527000Y-95022000D01*
X201273000Y-95022000D01*
X201273000Y-95002000D01*
X200448750Y-95002000D01*
X200443317Y-95007433D01*
X200436898Y-95004774D01*
X200380044Y-94993465D01*
X199961870Y-94575291D01*
X199946248Y-94416684D01*
X199926020Y-94350000D01*
X200286928Y-94350000D01*
X200290000Y-94589250D01*
X200448750Y-94748000D01*
X201273000Y-94748000D01*
X201273000Y-93873750D01*
X201527000Y-93873750D01*
X201527000Y-94748000D01*
X202351250Y-94748000D01*
X202510000Y-94589250D01*
X202513072Y-94350000D01*
X202500812Y-94225518D01*
X202464502Y-94105820D01*
X202405537Y-93995506D01*
X202326185Y-93898815D01*
X202229494Y-93819463D01*
X202119180Y-93760498D01*
X201999482Y-93724188D01*
X201875000Y-93711928D01*
X201685750Y-93715000D01*
X201527000Y-93873750D01*
X201273000Y-93873750D01*
X201114250Y-93715000D01*
X200925000Y-93711928D01*
X200800518Y-93724188D01*
X200680820Y-93760498D01*
X200570506Y-93819463D01*
X200473815Y-93898815D01*
X200394463Y-93995506D01*
X200335498Y-94105820D01*
X200299188Y-94225518D01*
X200286928Y-94350000D01*
X199926020Y-94350000D01*
X199896423Y-94252433D01*
X199815512Y-94101058D01*
X199706623Y-93968377D01*
X199573942Y-93859488D01*
X199422567Y-93778577D01*
X199258316Y-93728752D01*
X199087500Y-93711928D01*
X198612500Y-93711928D01*
X198441684Y-93728752D01*
X198277433Y-93778577D01*
X198126058Y-93859488D01*
X197993377Y-93968377D01*
X197884488Y-94101058D01*
X197803577Y-94252433D01*
X197753752Y-94416684D01*
X197736928Y-94587500D01*
X196710000Y-94587500D01*
X196710000Y-89975000D01*
X209061928Y-89975000D01*
X209074188Y-90099482D01*
X209110498Y-90219180D01*
X209169463Y-90329494D01*
X209248815Y-90426185D01*
X209345506Y-90505537D01*
X209455820Y-90564502D01*
X209575518Y-90600812D01*
X209700000Y-90613072D01*
X209939250Y-90610000D01*
X210098000Y-90451250D01*
X210098000Y-89627000D01*
X209223750Y-89627000D01*
X209065000Y-89785750D01*
X209061928Y-89975000D01*
X196710000Y-89975000D01*
X196710000Y-88960107D01*
X196903368Y-89153475D01*
X197146589Y-89315990D01*
X197416842Y-89427932D01*
X197703740Y-89485000D01*
X197996260Y-89485000D01*
X198283158Y-89427932D01*
X198553411Y-89315990D01*
X198796632Y-89153475D01*
X199003475Y-88946632D01*
X199120000Y-88772240D01*
X199236525Y-88946632D01*
X199443368Y-89153475D01*
X199686589Y-89315990D01*
X199956842Y-89427932D01*
X200243740Y-89485000D01*
X200536260Y-89485000D01*
X200823158Y-89427932D01*
X201093411Y-89315990D01*
X201336632Y-89153475D01*
X201465107Y-89025000D01*
X209061928Y-89025000D01*
X209065000Y-89214250D01*
X209223750Y-89373000D01*
X210098000Y-89373000D01*
X210098000Y-88548750D01*
X209939250Y-88390000D01*
X209700000Y-88386928D01*
X209575518Y-88399188D01*
X209455820Y-88435498D01*
X209345506Y-88494463D01*
X209248815Y-88573815D01*
X209169463Y-88670506D01*
X209110498Y-88780820D01*
X209074188Y-88900518D01*
X209061928Y-89025000D01*
X201465107Y-89025000D01*
X201543475Y-88946632D01*
X201705990Y-88703411D01*
X201817932Y-88433158D01*
X201875000Y-88146260D01*
X201875000Y-87853740D01*
X201817932Y-87566842D01*
X201705990Y-87296589D01*
X201543475Y-87053368D01*
X201336632Y-86846525D01*
X201162240Y-86730000D01*
X201336632Y-86613475D01*
X201543475Y-86406632D01*
X201705990Y-86163411D01*
X201817932Y-85893158D01*
X201875000Y-85606260D01*
X201875000Y-85313740D01*
X201839446Y-85135000D01*
X204033422Y-85135000D01*
X205493470Y-86595049D01*
X205521183Y-86628817D01*
X205554951Y-86656530D01*
X205554953Y-86656532D01*
X205588435Y-86684010D01*
X205655941Y-86739411D01*
X205809687Y-86821589D01*
X205828200Y-86827205D01*
X205893377Y-86906623D01*
X206026058Y-87015512D01*
X206177433Y-87096423D01*
X206341684Y-87146248D01*
X206512500Y-87163072D01*
X206987500Y-87163072D01*
X207158316Y-87146248D01*
X207322567Y-87096423D01*
X207473942Y-87015512D01*
X207606623Y-86906623D01*
X207715512Y-86773942D01*
X207796423Y-86622567D01*
X207837410Y-86487451D01*
X207836928Y-86525000D01*
X207849188Y-86649482D01*
X207885498Y-86769180D01*
X207944463Y-86879494D01*
X208023815Y-86976185D01*
X208120506Y-87055537D01*
X208230820Y-87114502D01*
X208350518Y-87150812D01*
X208475000Y-87163072D01*
X208664250Y-87160000D01*
X208823000Y-87001250D01*
X208823000Y-86127000D01*
X209077000Y-86127000D01*
X209077000Y-87001250D01*
X209235750Y-87160000D01*
X209425000Y-87163072D01*
X209549482Y-87150812D01*
X209669180Y-87114502D01*
X209779494Y-87055537D01*
X209876185Y-86976185D01*
X209955537Y-86879494D01*
X210014502Y-86769180D01*
X210025000Y-86734573D01*
X210035498Y-86769180D01*
X210094463Y-86879494D01*
X210173815Y-86976185D01*
X210270506Y-87055537D01*
X210380820Y-87114502D01*
X210500518Y-87150812D01*
X210625000Y-87163072D01*
X210814250Y-87160000D01*
X210973000Y-87001250D01*
X210973000Y-86127000D01*
X210148750Y-86127000D01*
X210025000Y-86250750D01*
X209901250Y-86127000D01*
X209077000Y-86127000D01*
X208823000Y-86127000D01*
X208803000Y-86127000D01*
X208803000Y-85873000D01*
X208823000Y-85873000D01*
X208823000Y-85853000D01*
X209077000Y-85853000D01*
X209077000Y-85873000D01*
X209901250Y-85873000D01*
X210025000Y-85749250D01*
X210148750Y-85873000D01*
X210973000Y-85873000D01*
X210973000Y-85853000D01*
X211227000Y-85853000D01*
X211227000Y-85873000D01*
X211247000Y-85873000D01*
X211247000Y-86127000D01*
X211227000Y-86127000D01*
X211227000Y-87001250D01*
X211385750Y-87160000D01*
X211575000Y-87163072D01*
X211699482Y-87150812D01*
X211819180Y-87114502D01*
X211929494Y-87055537D01*
X212026185Y-86976185D01*
X212105537Y-86879494D01*
X212164502Y-86769180D01*
X212200812Y-86649482D01*
X212213072Y-86525000D01*
X212212590Y-86487451D01*
X212253577Y-86622567D01*
X212334488Y-86773942D01*
X212415000Y-86872046D01*
X212415001Y-87808420D01*
X211836494Y-88386928D01*
X211687500Y-88386928D01*
X211516684Y-88403752D01*
X211352433Y-88453577D01*
X211201058Y-88534488D01*
X211177161Y-88554099D01*
X211104494Y-88494463D01*
X210994180Y-88435498D01*
X210874482Y-88399188D01*
X210750000Y-88386928D01*
X210510750Y-88390000D01*
X210352000Y-88548750D01*
X210352000Y-89373000D01*
X210372000Y-89373000D01*
X210372000Y-89627000D01*
X210352000Y-89627000D01*
X210352000Y-90451250D01*
X210510750Y-90610000D01*
X210750000Y-90613072D01*
X210874482Y-90600812D01*
X210994180Y-90564502D01*
X211104494Y-90505537D01*
X211177161Y-90445901D01*
X211201058Y-90465512D01*
X211352433Y-90546423D01*
X211516684Y-90596248D01*
X211687500Y-90613072D01*
X212262500Y-90613072D01*
X212433316Y-90596248D01*
X212597567Y-90546423D01*
X212748942Y-90465512D01*
X212881623Y-90356623D01*
X212990512Y-90223942D01*
X213003309Y-90200000D01*
X214436928Y-90200000D01*
X214449188Y-90324482D01*
X214485498Y-90444180D01*
X214544463Y-90554494D01*
X214623815Y-90651185D01*
X214720506Y-90730537D01*
X214830820Y-90789502D01*
X214950518Y-90825812D01*
X215075000Y-90838072D01*
X215264250Y-90835000D01*
X215423000Y-90676250D01*
X215423000Y-89802000D01*
X215677000Y-89802000D01*
X215677000Y-90676250D01*
X215835750Y-90835000D01*
X216025000Y-90838072D01*
X216149482Y-90825812D01*
X216269180Y-90789502D01*
X216379494Y-90730537D01*
X216476185Y-90651185D01*
X216555537Y-90554494D01*
X216614502Y-90444180D01*
X216650812Y-90324482D01*
X216663072Y-90200000D01*
X216660000Y-89960750D01*
X216501250Y-89802000D01*
X215677000Y-89802000D01*
X215423000Y-89802000D01*
X214598750Y-89802000D01*
X214440000Y-89960750D01*
X214436928Y-90200000D01*
X213003309Y-90200000D01*
X213071423Y-90072567D01*
X213121248Y-89908316D01*
X213138072Y-89737500D01*
X213138072Y-89588506D01*
X213895049Y-88831530D01*
X213928817Y-88803817D01*
X213957903Y-88768377D01*
X214039410Y-88669060D01*
X214041895Y-88664411D01*
X214121589Y-88515313D01*
X214160535Y-88386928D01*
X214172195Y-88348491D01*
X214176017Y-88309687D01*
X214185000Y-88218477D01*
X214185000Y-88218469D01*
X214189281Y-88175000D01*
X214185000Y-88131531D01*
X214185000Y-86872046D01*
X214265512Y-86773942D01*
X214346423Y-86622567D01*
X214396248Y-86458316D01*
X214413072Y-86287500D01*
X214413072Y-85712500D01*
X214396248Y-85541684D01*
X214346423Y-85377433D01*
X214265512Y-85226058D01*
X214182575Y-85125000D01*
X214265512Y-85023942D01*
X214346423Y-84872567D01*
X214396248Y-84708316D01*
X214413072Y-84537500D01*
X214413072Y-84115000D01*
X214436928Y-84115000D01*
X214436928Y-84537500D01*
X214453752Y-84708316D01*
X214503577Y-84872567D01*
X214584488Y-85023942D01*
X214667425Y-85125000D01*
X214584488Y-85226058D01*
X214503577Y-85377433D01*
X214453752Y-85541684D01*
X214436928Y-85712500D01*
X214436928Y-86287500D01*
X214453752Y-86458316D01*
X214503577Y-86622567D01*
X214584488Y-86773942D01*
X214665001Y-86872046D01*
X214665000Y-87052954D01*
X214584488Y-87151058D01*
X214503577Y-87302433D01*
X214453752Y-87466684D01*
X214436928Y-87637500D01*
X214436928Y-88212500D01*
X214453752Y-88383316D01*
X214503577Y-88547567D01*
X214584488Y-88698942D01*
X214604099Y-88722839D01*
X214544463Y-88795506D01*
X214485498Y-88905820D01*
X214449188Y-89025518D01*
X214436928Y-89150000D01*
X214440000Y-89389250D01*
X214598750Y-89548000D01*
X215423000Y-89548000D01*
X215423000Y-89528000D01*
X215677000Y-89528000D01*
X215677000Y-89548000D01*
X216501250Y-89548000D01*
X216660000Y-89389250D01*
X216663072Y-89150000D01*
X216650812Y-89025518D01*
X216614502Y-88905820D01*
X216555537Y-88795506D01*
X216495901Y-88722839D01*
X216515512Y-88698942D01*
X216596423Y-88547567D01*
X216646248Y-88383316D01*
X216663072Y-88212500D01*
X216663072Y-87637500D01*
X216646248Y-87466684D01*
X216596423Y-87302433D01*
X216515512Y-87151058D01*
X216435000Y-87052954D01*
X216435000Y-86872046D01*
X216515512Y-86773942D01*
X216596423Y-86622567D01*
X216646248Y-86458316D01*
X216663072Y-86287500D01*
X216663072Y-85712500D01*
X216646248Y-85541684D01*
X216596423Y-85377433D01*
X216515512Y-85226058D01*
X216432575Y-85125000D01*
X216515512Y-85023942D01*
X216596423Y-84872567D01*
X216646248Y-84708316D01*
X216663072Y-84537500D01*
X216663072Y-84115000D01*
X216686928Y-84115000D01*
X216686928Y-84512500D01*
X216703752Y-84683316D01*
X216753577Y-84847567D01*
X216834488Y-84998942D01*
X216854099Y-85022839D01*
X216794463Y-85095506D01*
X216735498Y-85205820D01*
X216699188Y-85325518D01*
X216686928Y-85450000D01*
X216690000Y-85689250D01*
X216848750Y-85848000D01*
X217673000Y-85848000D01*
X217673000Y-85828000D01*
X217927000Y-85828000D01*
X217927000Y-85848000D01*
X217947000Y-85848000D01*
X217947000Y-86102000D01*
X217927000Y-86102000D01*
X217927000Y-86122000D01*
X217673000Y-86122000D01*
X217673000Y-86102000D01*
X216848750Y-86102000D01*
X216690000Y-86260750D01*
X216686928Y-86500000D01*
X216699188Y-86624482D01*
X216735498Y-86744180D01*
X216794463Y-86854494D01*
X216873815Y-86951185D01*
X216970506Y-87030537D01*
X217080820Y-87089502D01*
X217200518Y-87125812D01*
X217325000Y-87138072D01*
X217514250Y-87135000D01*
X217672998Y-86976252D01*
X217672998Y-87104134D01*
X217634488Y-87151058D01*
X217553577Y-87302433D01*
X217503752Y-87466684D01*
X217486928Y-87637500D01*
X217486928Y-88212500D01*
X217503752Y-88383316D01*
X217553577Y-88547567D01*
X217634488Y-88698942D01*
X217717425Y-88800000D01*
X217634488Y-88901058D01*
X217553577Y-89052433D01*
X217503752Y-89216684D01*
X217486928Y-89387500D01*
X217486928Y-89962500D01*
X217503752Y-90133316D01*
X217553577Y-90297567D01*
X217634488Y-90448942D01*
X217743377Y-90581623D01*
X217876058Y-90690512D01*
X218027433Y-90771423D01*
X218191684Y-90821248D01*
X218362500Y-90838072D01*
X218837500Y-90838072D01*
X219008316Y-90821248D01*
X219172567Y-90771423D01*
X219323942Y-90690512D01*
X219456623Y-90581623D01*
X219565512Y-90448942D01*
X219646149Y-90298080D01*
X219653577Y-90322567D01*
X219734488Y-90473942D01*
X219843377Y-90606623D01*
X219976058Y-90715512D01*
X220127433Y-90796423D01*
X220291684Y-90846248D01*
X220462500Y-90863072D01*
X220780113Y-90863072D01*
X220832795Y-90990256D01*
X220946063Y-91159774D01*
X221090226Y-91303937D01*
X221259744Y-91417205D01*
X221448102Y-91495226D01*
X221648061Y-91535000D01*
X221851939Y-91535000D01*
X222051898Y-91495226D01*
X222240256Y-91417205D01*
X222409774Y-91303937D01*
X222553937Y-91159774D01*
X222667205Y-90990256D01*
X222745226Y-90801898D01*
X222785000Y-90601939D01*
X222785000Y-90398061D01*
X222745226Y-90198102D01*
X222667205Y-90009744D01*
X222635000Y-89961546D01*
X222635000Y-86470396D01*
X222646248Y-86433316D01*
X222663072Y-86262500D01*
X222663072Y-85687500D01*
X222646248Y-85516684D01*
X222596423Y-85352433D01*
X222515512Y-85201058D01*
X222432575Y-85100000D01*
X222515512Y-84998942D01*
X222596423Y-84847567D01*
X222646248Y-84683316D01*
X222663072Y-84512500D01*
X222663072Y-83937500D01*
X222646248Y-83766684D01*
X222596423Y-83602433D01*
X222515512Y-83451058D01*
X222406623Y-83318377D01*
X222273942Y-83209488D01*
X222122567Y-83128577D01*
X221958316Y-83078752D01*
X221787500Y-83061928D01*
X221312500Y-83061928D01*
X221141684Y-83078752D01*
X220977433Y-83128577D01*
X220826058Y-83209488D01*
X220693377Y-83318377D01*
X220675631Y-83340000D01*
X220535000Y-83340000D01*
X220535000Y-80387482D01*
X220596423Y-80272567D01*
X220646248Y-80108316D01*
X220663072Y-79937500D01*
X220663072Y-79890646D01*
X220668577Y-79872499D01*
X220690491Y-79650000D01*
X220668577Y-79427501D01*
X220663072Y-79409354D01*
X220663072Y-79362500D01*
X220646248Y-79191684D01*
X220596423Y-79027433D01*
X220515512Y-78876058D01*
X220495901Y-78852161D01*
X220555537Y-78779494D01*
X220614502Y-78669180D01*
X220650812Y-78549482D01*
X220663072Y-78425000D01*
X220660000Y-78185750D01*
X220501250Y-78027000D01*
X219677000Y-78027000D01*
X219677000Y-78047000D01*
X219423000Y-78047000D01*
X219423000Y-78027000D01*
X217977000Y-78027000D01*
X217977000Y-78047000D01*
X217723000Y-78047000D01*
X217723000Y-78027000D01*
X216898750Y-78027000D01*
X216740000Y-78185750D01*
X216736928Y-78425000D01*
X216749188Y-78549482D01*
X216785498Y-78669180D01*
X216844463Y-78779494D01*
X216904099Y-78852161D01*
X216884488Y-78876058D01*
X216803577Y-79027433D01*
X216753752Y-79191684D01*
X216736928Y-79362500D01*
X216736928Y-79409354D01*
X216731423Y-79427501D01*
X216709509Y-79650000D01*
X216715000Y-79705752D01*
X216715001Y-81845000D01*
X205688072Y-81845000D01*
X205688072Y-81562500D01*
X205671248Y-81391684D01*
X205621423Y-81227433D01*
X205540512Y-81076058D01*
X205431623Y-80943377D01*
X205426037Y-80938793D01*
X205556623Y-80831623D01*
X205572661Y-80812081D01*
X205595000Y-80814281D01*
X205638469Y-80810000D01*
X205638477Y-80810000D01*
X205768490Y-80797195D01*
X205935313Y-80746589D01*
X206089059Y-80664411D01*
X206223817Y-80553817D01*
X206251534Y-80520044D01*
X206636578Y-80135000D01*
X206903421Y-80135000D01*
X207179629Y-80411208D01*
X207228577Y-80572567D01*
X207309488Y-80723942D01*
X207418377Y-80856623D01*
X207551058Y-80965512D01*
X207702433Y-81046423D01*
X207866684Y-81096248D01*
X208037500Y-81113072D01*
X208612500Y-81113072D01*
X208783316Y-81096248D01*
X208947567Y-81046423D01*
X209098942Y-80965512D01*
X209200000Y-80882575D01*
X209301058Y-80965512D01*
X209452433Y-81046423D01*
X209616684Y-81096248D01*
X209787500Y-81113072D01*
X210362500Y-81113072D01*
X210533316Y-81096248D01*
X210697567Y-81046423D01*
X210848942Y-80965512D01*
X210981623Y-80856623D01*
X211090512Y-80723942D01*
X211171423Y-80572567D01*
X211211662Y-80439916D01*
X211516578Y-80135000D01*
X211783421Y-80135000D01*
X212168470Y-80520049D01*
X212196183Y-80553817D01*
X212229951Y-80581530D01*
X212229953Y-80581532D01*
X212250366Y-80598284D01*
X212330941Y-80664411D01*
X212484687Y-80746589D01*
X212557171Y-80768577D01*
X212651509Y-80797195D01*
X212666306Y-80798652D01*
X212775113Y-80809369D01*
X212793377Y-80831623D01*
X212926058Y-80940512D01*
X213077433Y-81021423D01*
X213241684Y-81071248D01*
X213412500Y-81088072D01*
X213887500Y-81088072D01*
X214058316Y-81071248D01*
X214222567Y-81021423D01*
X214373942Y-80940512D01*
X214506623Y-80831623D01*
X214615512Y-80698942D01*
X214696423Y-80547567D01*
X214746248Y-80383316D01*
X214763072Y-80212500D01*
X214763072Y-79637500D01*
X214746248Y-79466684D01*
X214696423Y-79302433D01*
X214615512Y-79151058D01*
X214595901Y-79127161D01*
X214655537Y-79054494D01*
X214714502Y-78944180D01*
X214750812Y-78824482D01*
X214763072Y-78700000D01*
X214760000Y-78460750D01*
X214601250Y-78302000D01*
X213777000Y-78302000D01*
X213777000Y-78322000D01*
X213523000Y-78322000D01*
X213523000Y-78302000D01*
X213503000Y-78302000D01*
X213503000Y-78048000D01*
X213523000Y-78048000D01*
X213523000Y-77173750D01*
X213777000Y-77173750D01*
X213777000Y-78048000D01*
X214601250Y-78048000D01*
X214760000Y-77889250D01*
X214763072Y-77650000D01*
X214750812Y-77525518D01*
X214714502Y-77405820D01*
X214698029Y-77375000D01*
X216736928Y-77375000D01*
X216740000Y-77614250D01*
X216898750Y-77773000D01*
X217723000Y-77773000D01*
X217723000Y-76898750D01*
X217977000Y-76898750D01*
X217977000Y-77773000D01*
X219423000Y-77773000D01*
X219423000Y-76898750D01*
X219677000Y-76898750D01*
X219677000Y-77773000D01*
X220501250Y-77773000D01*
X220660000Y-77614250D01*
X220663072Y-77375000D01*
X220650812Y-77250518D01*
X220614502Y-77130820D01*
X220555537Y-77020506D01*
X220476185Y-76923815D01*
X220379494Y-76844463D01*
X220269180Y-76785498D01*
X220149482Y-76749188D01*
X220025000Y-76736928D01*
X219835750Y-76740000D01*
X219677000Y-76898750D01*
X219423000Y-76898750D01*
X219264250Y-76740000D01*
X219075000Y-76736928D01*
X218950518Y-76749188D01*
X218830820Y-76785498D01*
X218720506Y-76844463D01*
X218700000Y-76861292D01*
X218679494Y-76844463D01*
X218569180Y-76785498D01*
X218449482Y-76749188D01*
X218325000Y-76736928D01*
X218135750Y-76740000D01*
X217977000Y-76898750D01*
X217723000Y-76898750D01*
X217564250Y-76740000D01*
X217375000Y-76736928D01*
X217250518Y-76749188D01*
X217130820Y-76785498D01*
X217020506Y-76844463D01*
X216923815Y-76923815D01*
X216844463Y-77020506D01*
X216785498Y-77130820D01*
X216749188Y-77250518D01*
X216736928Y-77375000D01*
X214698029Y-77375000D01*
X214655537Y-77295506D01*
X214576185Y-77198815D01*
X214479494Y-77119463D01*
X214369180Y-77060498D01*
X214249482Y-77024188D01*
X214125000Y-77011928D01*
X213935750Y-77015000D01*
X213777000Y-77173750D01*
X213523000Y-77173750D01*
X213364250Y-77015000D01*
X213175000Y-77011928D01*
X213050518Y-77024188D01*
X212930820Y-77060498D01*
X212820506Y-77119463D01*
X212723815Y-77198815D01*
X212644463Y-77295506D01*
X212585498Y-77405820D01*
X212549188Y-77525518D01*
X212536928Y-77650000D01*
X212537295Y-77678610D01*
X212532886Y-77674201D01*
X212306043Y-77522629D01*
X212053989Y-77418225D01*
X211786411Y-77365000D01*
X211513589Y-77365000D01*
X211246011Y-77418225D01*
X210993957Y-77522629D01*
X210767114Y-77674201D01*
X210574201Y-77867114D01*
X210422629Y-78093957D01*
X210318225Y-78346011D01*
X210265000Y-78613589D01*
X210265000Y-78883422D01*
X210261494Y-78886928D01*
X209787500Y-78886928D01*
X209616684Y-78903752D01*
X209452433Y-78953577D01*
X209301058Y-79034488D01*
X209200000Y-79117425D01*
X209098942Y-79034488D01*
X208947567Y-78953577D01*
X208783316Y-78903752D01*
X208612500Y-78886928D01*
X208158507Y-78886928D01*
X208155000Y-78883421D01*
X208155000Y-78613589D01*
X208101775Y-78346011D01*
X207997371Y-78093957D01*
X207845799Y-77867114D01*
X207652886Y-77674201D01*
X207426043Y-77522629D01*
X207173989Y-77418225D01*
X206906411Y-77365000D01*
X206633589Y-77365000D01*
X206366011Y-77418225D01*
X206113957Y-77522629D01*
X205887114Y-77674201D01*
X205811794Y-77749521D01*
X205813072Y-77650000D01*
X205800812Y-77525518D01*
X205764502Y-77405820D01*
X205705537Y-77295506D01*
X205626185Y-77198815D01*
X205529494Y-77119463D01*
X205419180Y-77060498D01*
X205299482Y-77024188D01*
X205175000Y-77011928D01*
X204985750Y-77015000D01*
X204827000Y-77173750D01*
X204827000Y-78048000D01*
X204847000Y-78048000D01*
X204847000Y-78302000D01*
X204827000Y-78302000D01*
X204827000Y-78322000D01*
X204573000Y-78322000D01*
X204573000Y-78302000D01*
X203748750Y-78302000D01*
X203675000Y-78375750D01*
X203601250Y-78302000D01*
X202777000Y-78302000D01*
X202777000Y-78322000D01*
X202523000Y-78322000D01*
X202523000Y-78302000D01*
X202503000Y-78302000D01*
X202503000Y-78048000D01*
X202523000Y-78048000D01*
X202523000Y-77173750D01*
X202777000Y-77173750D01*
X202777000Y-78048000D01*
X203601250Y-78048000D01*
X203675000Y-77974250D01*
X203748750Y-78048000D01*
X204573000Y-78048000D01*
X204573000Y-77173750D01*
X204414250Y-77015000D01*
X204225000Y-77011928D01*
X204100518Y-77024188D01*
X203980820Y-77060498D01*
X203870506Y-77119463D01*
X203773815Y-77198815D01*
X203694463Y-77295506D01*
X203675000Y-77331918D01*
X203655537Y-77295506D01*
X203576185Y-77198815D01*
X203479494Y-77119463D01*
X203369180Y-77060498D01*
X203249482Y-77024188D01*
X203125000Y-77011928D01*
X202935750Y-77015000D01*
X202777000Y-77173750D01*
X202523000Y-77173750D01*
X202364250Y-77015000D01*
X202175000Y-77011928D01*
X202050518Y-77024188D01*
X201930820Y-77060498D01*
X201820506Y-77119463D01*
X201723815Y-77198815D01*
X201722369Y-77200577D01*
X201661641Y-77073080D01*
X201487588Y-76839731D01*
X201271355Y-76644822D01*
X201021252Y-76495843D01*
X200746891Y-76398519D01*
X200517002Y-76519185D01*
X200517002Y-76360000D01*
X225390000Y-76360000D01*
X225390001Y-102351038D01*
G36*
X200517000Y-77713000D02*
G01*
X200537000Y-77713000D01*
X200537000Y-77967000D01*
X200517000Y-77967000D01*
X200517000Y-77987000D01*
X200263000Y-77987000D01*
X200263000Y-77967000D01*
X200243000Y-77967000D01*
X200243000Y-77713000D01*
X200263000Y-77713000D01*
X200263000Y-77693000D01*
X200517000Y-77693000D01*
X200517000Y-77713000D01*
G37*
X200517000Y-77713000D02*
X200537000Y-77713000D01*
X200537000Y-77967000D01*
X200517000Y-77967000D01*
X200517000Y-77987000D01*
X200263000Y-77987000D01*
X200263000Y-77967000D01*
X200243000Y-77967000D01*
X200243000Y-77713000D01*
X200263000Y-77713000D01*
X200263000Y-77693000D01*
X200517000Y-77693000D01*
X200517000Y-77713000D01*
M02*
