M48
; DRILL file {KiCad 5.1.6-c6e7f7d~86~ubuntu18.04.1} date Sat May 23 21:05:07 2020
; FORMAT={-:-/ absolute / inch / decimal}
; #@! TF.CreationDate,2020-05-23T21:05:07+02:00
; #@! TF.GenerationSoftware,Kicad,Pcbnew,5.1.6-c6e7f7d~86~ubuntu18.04.1
FMAT,2
INCH
T1C0.0157
T2C0.0315
T3C0.0394
T4C0.0433
T5C0.0512
T6C0.1378
%
G90
G05
T1
X7.811Y-5.7362
X7.9055Y-5.6575
X7.9055Y-5.7382
X7.9941Y-5.9311
X8.1614Y-5.6831
X8.2441Y-5.6142
X8.2589Y-6.0886
X8.3268Y-6.0886
X8.3445Y-5.6142
X8.3445Y-5.685
X8.5256Y-5.6152
X8.5256Y-5.687
X8.6043Y-5.6122
X8.6673Y-6.1575
T2
X8.1661Y-5.3327
X8.3583Y-5.3327
T3
X7.815Y-5.2992
X7.815Y-5.3992
X7.815Y-5.4992
X7.915Y-5.2992
X7.915Y-5.3992
X7.915Y-5.4992
T4
X8.6358Y-6.002
X8.7358Y-6.002
X8.8358Y-6.002
T5
X7.8425Y-6.2854
X8.0394Y-6.2854
X8.2362Y-6.2854
X8.4331Y-6.2854
X8.6299Y-6.2854
X8.8268Y-6.2854
T6
X8.7358Y-5.3461
T0
M30
