G04 #@! TF.GenerationSoftware,KiCad,Pcbnew,5.1.6-c6e7f7d~86~ubuntu18.04.1*
G04 #@! TF.CreationDate,2020-06-11T15:17:01+02:00*
G04 #@! TF.ProjectId,sci2can,73636932-6361-46e2-9e6b-696361645f70,1.02*
G04 #@! TF.SameCoordinates,Original*
G04 #@! TF.FileFunction,Soldermask,Top*
G04 #@! TF.FilePolarity,Negative*
%FSLAX46Y46*%
G04 Gerber Fmt 4.6, Leading zero omitted, Abs format (unit mm)*
G04 Created by KiCad (PCBNEW 5.1.6-c6e7f7d~86~ubuntu18.04.1) date 2020-06-11 15:17:01*
%MOMM*%
%LPD*%
G01*
G04 APERTURE LIST*
%ADD10C,0.100000*%
G04 APERTURE END LIST*
D10*
G36*
X213944072Y-101650918D02*
G01*
X214189939Y-101752759D01*
X214411212Y-101900610D01*
X214599390Y-102088788D01*
X214747241Y-102310061D01*
X214849082Y-102555928D01*
X214901000Y-102816938D01*
X214901000Y-103083062D01*
X214849082Y-103344072D01*
X214747241Y-103589939D01*
X214599390Y-103811212D01*
X214411212Y-103999390D01*
X214189939Y-104147241D01*
X214189938Y-104147242D01*
X214189937Y-104147242D01*
X213944072Y-104249082D01*
X213683063Y-104301000D01*
X213416937Y-104301000D01*
X213155928Y-104249082D01*
X212910063Y-104147242D01*
X212910062Y-104147242D01*
X212910061Y-104147241D01*
X212688788Y-103999390D01*
X212500610Y-103811212D01*
X212352759Y-103589939D01*
X212250918Y-103344072D01*
X212199000Y-103083062D01*
X212199000Y-102816938D01*
X212250918Y-102555928D01*
X212352759Y-102310061D01*
X212500610Y-102088788D01*
X212688788Y-101900610D01*
X212910061Y-101752759D01*
X213155928Y-101650918D01*
X213416937Y-101599000D01*
X213683063Y-101599000D01*
X213944072Y-101650918D01*
G37*
G36*
X208944072Y-101650918D02*
G01*
X209189939Y-101752759D01*
X209411212Y-101900610D01*
X209599390Y-102088788D01*
X209747241Y-102310061D01*
X209849082Y-102555928D01*
X209901000Y-102816938D01*
X209901000Y-103083062D01*
X209849082Y-103344072D01*
X209747241Y-103589939D01*
X209599390Y-103811212D01*
X209411212Y-103999390D01*
X209189939Y-104147241D01*
X209189938Y-104147242D01*
X209189937Y-104147242D01*
X208944072Y-104249082D01*
X208683063Y-104301000D01*
X208416937Y-104301000D01*
X208155928Y-104249082D01*
X207910063Y-104147242D01*
X207910062Y-104147242D01*
X207910061Y-104147241D01*
X207688788Y-103999390D01*
X207500610Y-103811212D01*
X207352759Y-103589939D01*
X207250918Y-103344072D01*
X207199000Y-103083062D01*
X207199000Y-102816938D01*
X207250918Y-102555928D01*
X207352759Y-102310061D01*
X207500610Y-102088788D01*
X207688788Y-101900610D01*
X207910061Y-101752759D01*
X208155928Y-101650918D01*
X208416937Y-101599000D01*
X208683063Y-101599000D01*
X208944072Y-101650918D01*
G37*
G36*
X203944072Y-101650918D02*
G01*
X204189939Y-101752759D01*
X204411212Y-101900610D01*
X204599390Y-102088788D01*
X204747241Y-102310061D01*
X204849082Y-102555928D01*
X204901000Y-102816938D01*
X204901000Y-103083062D01*
X204849082Y-103344072D01*
X204747241Y-103589939D01*
X204599390Y-103811212D01*
X204411212Y-103999390D01*
X204189939Y-104147241D01*
X204189938Y-104147242D01*
X204189937Y-104147242D01*
X203944072Y-104249082D01*
X203683063Y-104301000D01*
X203416937Y-104301000D01*
X203155928Y-104249082D01*
X202910063Y-104147242D01*
X202910062Y-104147242D01*
X202910061Y-104147241D01*
X202688788Y-103999390D01*
X202500610Y-103811212D01*
X202352759Y-103589939D01*
X202250918Y-103344072D01*
X202199000Y-103083062D01*
X202199000Y-102816938D01*
X202250918Y-102555928D01*
X202352759Y-102310061D01*
X202500610Y-102088788D01*
X202688788Y-101900610D01*
X202910061Y-101752759D01*
X203155928Y-101650918D01*
X203416937Y-101599000D01*
X203683063Y-101599000D01*
X203944072Y-101650918D01*
G37*
G36*
X199901000Y-104301000D02*
G01*
X197199000Y-104301000D01*
X197199000Y-101599000D01*
X199901000Y-101599000D01*
X199901000Y-104301000D01*
G37*
G36*
X218944072Y-101650918D02*
G01*
X219189939Y-101752759D01*
X219411212Y-101900610D01*
X219599390Y-102088788D01*
X219747241Y-102310061D01*
X219849082Y-102555928D01*
X219901000Y-102816938D01*
X219901000Y-103083062D01*
X219849082Y-103344072D01*
X219747241Y-103589939D01*
X219599390Y-103811212D01*
X219411212Y-103999390D01*
X219189939Y-104147241D01*
X219189938Y-104147242D01*
X219189937Y-104147242D01*
X218944072Y-104249082D01*
X218683063Y-104301000D01*
X218416937Y-104301000D01*
X218155928Y-104249082D01*
X217910063Y-104147242D01*
X217910062Y-104147242D01*
X217910061Y-104147241D01*
X217688788Y-103999390D01*
X217500610Y-103811212D01*
X217352759Y-103589939D01*
X217250918Y-103344072D01*
X217199000Y-103083062D01*
X217199000Y-102816938D01*
X217250918Y-102555928D01*
X217352759Y-102310061D01*
X217500610Y-102088788D01*
X217688788Y-101900610D01*
X217910061Y-101752759D01*
X218155928Y-101650918D01*
X218416937Y-101599000D01*
X218683063Y-101599000D01*
X218944072Y-101650918D01*
G37*
G36*
X223944072Y-101650918D02*
G01*
X224189939Y-101752759D01*
X224411212Y-101900610D01*
X224599390Y-102088788D01*
X224747241Y-102310061D01*
X224849082Y-102555928D01*
X224901000Y-102816938D01*
X224901000Y-103083062D01*
X224849082Y-103344072D01*
X224747241Y-103589939D01*
X224599390Y-103811212D01*
X224411212Y-103999390D01*
X224189939Y-104147241D01*
X224189938Y-104147242D01*
X224189937Y-104147242D01*
X223944072Y-104249082D01*
X223683063Y-104301000D01*
X223416937Y-104301000D01*
X223155928Y-104249082D01*
X222910063Y-104147242D01*
X222910062Y-104147242D01*
X222910061Y-104147241D01*
X222688788Y-103999390D01*
X222500610Y-103811212D01*
X222352759Y-103589939D01*
X222250918Y-103344072D01*
X222199000Y-103083062D01*
X222199000Y-102816938D01*
X222250918Y-102555928D01*
X222352759Y-102310061D01*
X222500610Y-102088788D01*
X222688788Y-101900610D01*
X222910061Y-101752759D01*
X223155928Y-101650918D01*
X223416937Y-101599000D01*
X223683063Y-101599000D01*
X223944072Y-101650918D01*
G37*
G36*
X201664928Y-94976764D02*
G01*
X201686009Y-94983160D01*
X201705445Y-94993548D01*
X201722476Y-95007524D01*
X201736452Y-95024555D01*
X201746840Y-95043991D01*
X201753236Y-95065072D01*
X201756000Y-95093140D01*
X201756000Y-96906860D01*
X201753236Y-96934928D01*
X201746840Y-96956009D01*
X201736452Y-96975445D01*
X201722476Y-96992476D01*
X201705445Y-97006452D01*
X201686009Y-97016840D01*
X201664928Y-97023236D01*
X201636860Y-97026000D01*
X201173140Y-97026000D01*
X201145072Y-97023236D01*
X201123991Y-97016840D01*
X201104555Y-97006452D01*
X201087524Y-96992476D01*
X201073548Y-96975445D01*
X201063160Y-96956009D01*
X201056764Y-96934928D01*
X201054000Y-96906860D01*
X201054000Y-95093140D01*
X201056764Y-95065072D01*
X201063160Y-95043991D01*
X201073548Y-95024555D01*
X201087524Y-95007524D01*
X201104555Y-94993548D01*
X201123991Y-94983160D01*
X201145072Y-94976764D01*
X201173140Y-94974000D01*
X201636860Y-94974000D01*
X201664928Y-94976764D01*
G37*
G36*
X197854928Y-94976764D02*
G01*
X197876009Y-94983160D01*
X197895445Y-94993548D01*
X197912476Y-95007524D01*
X197926452Y-95024555D01*
X197936840Y-95043991D01*
X197943236Y-95065072D01*
X197946000Y-95093140D01*
X197946000Y-96906860D01*
X197943236Y-96934928D01*
X197936840Y-96956009D01*
X197926452Y-96975445D01*
X197912476Y-96992476D01*
X197895445Y-97006452D01*
X197876009Y-97016840D01*
X197854928Y-97023236D01*
X197826860Y-97026000D01*
X197363140Y-97026000D01*
X197335072Y-97023236D01*
X197313991Y-97016840D01*
X197294555Y-97006452D01*
X197277524Y-96992476D01*
X197263548Y-96975445D01*
X197253160Y-96956009D01*
X197246764Y-96934928D01*
X197244000Y-96906860D01*
X197244000Y-95093140D01*
X197246764Y-95065072D01*
X197253160Y-95043991D01*
X197263548Y-95024555D01*
X197277524Y-95007524D01*
X197294555Y-94993548D01*
X197313991Y-94983160D01*
X197335072Y-94976764D01*
X197363140Y-94974000D01*
X197826860Y-94974000D01*
X197854928Y-94976764D01*
G37*
G36*
X199124928Y-94976764D02*
G01*
X199146009Y-94983160D01*
X199165445Y-94993548D01*
X199182476Y-95007524D01*
X199196452Y-95024555D01*
X199206840Y-95043991D01*
X199213236Y-95065072D01*
X199216000Y-95093140D01*
X199216000Y-96906860D01*
X199213236Y-96934928D01*
X199206840Y-96956009D01*
X199196452Y-96975445D01*
X199182476Y-96992476D01*
X199165445Y-97006452D01*
X199146009Y-97016840D01*
X199124928Y-97023236D01*
X199096860Y-97026000D01*
X198633140Y-97026000D01*
X198605072Y-97023236D01*
X198583991Y-97016840D01*
X198564555Y-97006452D01*
X198547524Y-96992476D01*
X198533548Y-96975445D01*
X198523160Y-96956009D01*
X198516764Y-96934928D01*
X198514000Y-96906860D01*
X198514000Y-95093140D01*
X198516764Y-95065072D01*
X198523160Y-95043991D01*
X198533548Y-95024555D01*
X198547524Y-95007524D01*
X198564555Y-94993548D01*
X198583991Y-94983160D01*
X198605072Y-94976764D01*
X198633140Y-94974000D01*
X199096860Y-94974000D01*
X199124928Y-94976764D01*
G37*
G36*
X200394928Y-94976764D02*
G01*
X200416009Y-94983160D01*
X200435445Y-94993548D01*
X200452476Y-95007524D01*
X200466452Y-95024555D01*
X200476840Y-95043991D01*
X200483236Y-95065072D01*
X200486000Y-95093140D01*
X200486000Y-96906860D01*
X200483236Y-96934928D01*
X200476840Y-96956009D01*
X200466452Y-96975445D01*
X200452476Y-96992476D01*
X200435445Y-97006452D01*
X200416009Y-97016840D01*
X200394928Y-97023236D01*
X200366860Y-97026000D01*
X199903140Y-97026000D01*
X199875072Y-97023236D01*
X199853991Y-97016840D01*
X199834555Y-97006452D01*
X199817524Y-96992476D01*
X199803548Y-96975445D01*
X199793160Y-96956009D01*
X199786764Y-96934928D01*
X199784000Y-96906860D01*
X199784000Y-95093140D01*
X199786764Y-95065072D01*
X199793160Y-95043991D01*
X199803548Y-95024555D01*
X199817524Y-95007524D01*
X199834555Y-94993548D01*
X199853991Y-94983160D01*
X199875072Y-94976764D01*
X199903140Y-94974000D01*
X200366860Y-94974000D01*
X200394928Y-94976764D01*
G37*
G36*
X204701000Y-96951000D02*
G01*
X203799000Y-96951000D01*
X203799000Y-95949000D01*
X204701000Y-95949000D01*
X204701000Y-96951000D01*
G37*
G36*
X208601000Y-96951000D02*
G01*
X207699000Y-96951000D01*
X207699000Y-95949000D01*
X208601000Y-95949000D01*
X208601000Y-96951000D01*
G37*
G36*
X217601000Y-96151000D02*
G01*
X214999000Y-96151000D01*
X214999000Y-93749000D01*
X217601000Y-93749000D01*
X217601000Y-96151000D01*
G37*
G36*
X213301000Y-96151000D02*
G01*
X210699000Y-96151000D01*
X210699000Y-93749000D01*
X213301000Y-93749000D01*
X213301000Y-96151000D01*
G37*
G36*
X225368497Y-93403051D02*
G01*
X225402152Y-93413261D01*
X225433165Y-93429838D01*
X225460351Y-93452149D01*
X225482662Y-93479335D01*
X225499239Y-93510348D01*
X225509449Y-93544003D01*
X225513500Y-93585138D01*
X225513500Y-94914862D01*
X225509449Y-94955997D01*
X225499239Y-94989652D01*
X225482662Y-95020665D01*
X225460351Y-95047851D01*
X225433165Y-95070162D01*
X225402152Y-95086739D01*
X225368497Y-95096949D01*
X225327362Y-95101000D01*
X222822638Y-95101000D01*
X222781503Y-95096949D01*
X222747848Y-95086739D01*
X222716835Y-95070162D01*
X222689649Y-95047851D01*
X222667338Y-95020665D01*
X222650761Y-94989652D01*
X222640551Y-94955997D01*
X222636500Y-94914862D01*
X222636500Y-93585138D01*
X222640551Y-93544003D01*
X222650761Y-93510348D01*
X222667338Y-93479335D01*
X222689649Y-93452149D01*
X222716835Y-93429838D01*
X222747848Y-93413261D01*
X222781503Y-93403051D01*
X222822638Y-93399000D01*
X225327362Y-93399000D01*
X225368497Y-93403051D01*
G37*
G36*
X221243497Y-93403051D02*
G01*
X221277152Y-93413261D01*
X221308165Y-93429838D01*
X221335351Y-93452149D01*
X221357662Y-93479335D01*
X221374239Y-93510348D01*
X221384449Y-93544003D01*
X221388500Y-93585138D01*
X221388500Y-94914862D01*
X221384449Y-94955997D01*
X221374239Y-94989652D01*
X221357662Y-95020665D01*
X221335351Y-95047851D01*
X221308165Y-95070162D01*
X221277152Y-95086739D01*
X221243497Y-95096949D01*
X221202362Y-95101000D01*
X218697638Y-95101000D01*
X218656503Y-95096949D01*
X218622848Y-95086739D01*
X218591835Y-95070162D01*
X218564649Y-95047851D01*
X218542338Y-95020665D01*
X218525761Y-94989652D01*
X218515551Y-94955997D01*
X218511500Y-94914862D01*
X218511500Y-93585138D01*
X218515551Y-93544003D01*
X218525761Y-93510348D01*
X218542338Y-93479335D01*
X218564649Y-93452149D01*
X218591835Y-93429838D01*
X218622848Y-93413261D01*
X218656503Y-93403051D01*
X218697638Y-93399000D01*
X221202362Y-93399000D01*
X221243497Y-93403051D01*
G37*
G36*
X209551000Y-94951000D02*
G01*
X208649000Y-94951000D01*
X208649000Y-93949000D01*
X209551000Y-93949000D01*
X209551000Y-94951000D01*
G37*
G36*
X205651000Y-94951000D02*
G01*
X204749000Y-94951000D01*
X204749000Y-93949000D01*
X205651000Y-93949000D01*
X205651000Y-94951000D01*
G37*
G36*
X203751000Y-94951000D02*
G01*
X202849000Y-94951000D01*
X202849000Y-93949000D01*
X203751000Y-93949000D01*
X203751000Y-94951000D01*
G37*
G36*
X207651000Y-94951000D02*
G01*
X206749000Y-94951000D01*
X206749000Y-93949000D01*
X207651000Y-93949000D01*
X207651000Y-94951000D01*
G37*
G36*
X206530051Y-90626284D02*
G01*
X206546443Y-90631257D01*
X206561555Y-90639334D01*
X206574798Y-90650202D01*
X206585667Y-90663447D01*
X206589761Y-90671106D01*
X206603374Y-90691480D01*
X206620701Y-90708807D01*
X206641076Y-90722421D01*
X206663714Y-90731798D01*
X206687748Y-90736579D01*
X206712252Y-90736579D01*
X206736285Y-90731799D01*
X206758924Y-90722421D01*
X206779298Y-90708808D01*
X206796625Y-90691481D01*
X206810239Y-90671106D01*
X206814333Y-90663447D01*
X206825202Y-90650202D01*
X206838445Y-90639334D01*
X206853557Y-90631257D01*
X206869949Y-90626284D01*
X206893141Y-90624000D01*
X207306859Y-90624000D01*
X207330051Y-90626284D01*
X207346443Y-90631257D01*
X207361555Y-90639334D01*
X207374798Y-90650202D01*
X207385667Y-90663447D01*
X207389761Y-90671106D01*
X207403374Y-90691480D01*
X207420701Y-90708807D01*
X207441076Y-90722421D01*
X207463714Y-90731798D01*
X207487748Y-90736579D01*
X207512252Y-90736579D01*
X207536285Y-90731799D01*
X207558924Y-90722421D01*
X207579298Y-90708808D01*
X207596625Y-90691481D01*
X207610239Y-90671106D01*
X207614333Y-90663447D01*
X207625202Y-90650202D01*
X207638445Y-90639334D01*
X207653557Y-90631257D01*
X207669949Y-90626284D01*
X207693141Y-90624000D01*
X208106859Y-90624000D01*
X208130051Y-90626284D01*
X208146443Y-90631257D01*
X208161555Y-90639334D01*
X208174798Y-90650202D01*
X208185667Y-90663447D01*
X208189761Y-90671106D01*
X208203374Y-90691480D01*
X208220701Y-90708807D01*
X208241076Y-90722421D01*
X208263714Y-90731798D01*
X208287748Y-90736579D01*
X208312252Y-90736579D01*
X208336285Y-90731799D01*
X208358924Y-90722421D01*
X208379298Y-90708808D01*
X208396625Y-90691481D01*
X208410239Y-90671106D01*
X208414333Y-90663447D01*
X208425202Y-90650202D01*
X208438445Y-90639334D01*
X208453557Y-90631257D01*
X208469949Y-90626284D01*
X208493141Y-90624000D01*
X208906859Y-90624000D01*
X208930051Y-90626284D01*
X208946443Y-90631257D01*
X208961555Y-90639334D01*
X208974798Y-90650202D01*
X208985667Y-90663447D01*
X208989761Y-90671106D01*
X209003374Y-90691480D01*
X209020701Y-90708807D01*
X209041076Y-90722421D01*
X209063714Y-90731798D01*
X209087748Y-90736579D01*
X209112252Y-90736579D01*
X209136285Y-90731799D01*
X209158924Y-90722421D01*
X209179298Y-90708808D01*
X209196625Y-90691481D01*
X209210239Y-90671106D01*
X209214333Y-90663447D01*
X209225202Y-90650202D01*
X209238445Y-90639334D01*
X209253557Y-90631257D01*
X209269949Y-90626284D01*
X209293141Y-90624000D01*
X209706859Y-90624000D01*
X209730051Y-90626284D01*
X209746443Y-90631257D01*
X209761555Y-90639334D01*
X209774798Y-90650202D01*
X209785667Y-90663447D01*
X209789761Y-90671106D01*
X209803374Y-90691480D01*
X209820701Y-90708807D01*
X209841076Y-90722421D01*
X209863714Y-90731798D01*
X209887748Y-90736579D01*
X209912252Y-90736579D01*
X209936285Y-90731799D01*
X209958924Y-90722421D01*
X209979298Y-90708808D01*
X209996625Y-90691481D01*
X210010239Y-90671106D01*
X210014333Y-90663447D01*
X210025202Y-90650202D01*
X210038445Y-90639334D01*
X210053557Y-90631257D01*
X210069949Y-90626284D01*
X210093141Y-90624000D01*
X210506859Y-90624000D01*
X210530051Y-90626284D01*
X210546443Y-90631257D01*
X210561555Y-90639334D01*
X210574798Y-90650202D01*
X210585667Y-90663447D01*
X210589761Y-90671106D01*
X210603374Y-90691480D01*
X210620701Y-90708807D01*
X210641076Y-90722421D01*
X210663714Y-90731798D01*
X210687748Y-90736579D01*
X210712252Y-90736579D01*
X210736285Y-90731799D01*
X210758924Y-90722421D01*
X210779298Y-90708808D01*
X210796625Y-90691481D01*
X210810239Y-90671106D01*
X210814333Y-90663447D01*
X210825202Y-90650202D01*
X210838445Y-90639334D01*
X210853557Y-90631257D01*
X210869949Y-90626284D01*
X210893141Y-90624000D01*
X211306859Y-90624000D01*
X211330051Y-90626284D01*
X211346443Y-90631257D01*
X211361555Y-90639334D01*
X211374798Y-90650202D01*
X211385667Y-90663447D01*
X211389761Y-90671106D01*
X211403374Y-90691480D01*
X211420701Y-90708807D01*
X211441076Y-90722421D01*
X211463714Y-90731798D01*
X211487748Y-90736579D01*
X211512252Y-90736579D01*
X211536285Y-90731799D01*
X211558924Y-90722421D01*
X211579298Y-90708808D01*
X211596625Y-90691481D01*
X211610239Y-90671106D01*
X211614333Y-90663447D01*
X211625202Y-90650202D01*
X211638445Y-90639334D01*
X211653557Y-90631257D01*
X211669949Y-90626284D01*
X211693141Y-90624000D01*
X212106859Y-90624000D01*
X212130051Y-90626284D01*
X212146443Y-90631257D01*
X212161555Y-90639334D01*
X212174798Y-90650202D01*
X212185666Y-90663445D01*
X212193743Y-90678557D01*
X212198716Y-90694949D01*
X212201000Y-90718141D01*
X212201000Y-92131859D01*
X212198716Y-92155051D01*
X212193743Y-92171443D01*
X212185666Y-92186555D01*
X212174798Y-92199798D01*
X212161555Y-92210666D01*
X212146443Y-92218743D01*
X212130051Y-92223716D01*
X212106859Y-92226000D01*
X211693141Y-92226000D01*
X211669949Y-92223716D01*
X211653557Y-92218743D01*
X211638445Y-92210666D01*
X211625202Y-92199798D01*
X211614333Y-92186553D01*
X211610239Y-92178894D01*
X211596626Y-92158520D01*
X211579299Y-92141193D01*
X211558924Y-92127579D01*
X211536286Y-92118202D01*
X211512252Y-92113421D01*
X211487748Y-92113421D01*
X211463715Y-92118201D01*
X211441076Y-92127579D01*
X211420702Y-92141192D01*
X211403375Y-92158519D01*
X211389761Y-92178894D01*
X211385667Y-92186553D01*
X211374798Y-92199798D01*
X211361555Y-92210666D01*
X211346443Y-92218743D01*
X211330051Y-92223716D01*
X211306859Y-92226000D01*
X210893141Y-92226000D01*
X210869949Y-92223716D01*
X210853557Y-92218743D01*
X210838445Y-92210666D01*
X210825202Y-92199798D01*
X210814333Y-92186553D01*
X210810239Y-92178894D01*
X210796626Y-92158520D01*
X210779299Y-92141193D01*
X210758924Y-92127579D01*
X210736286Y-92118202D01*
X210712252Y-92113421D01*
X210687748Y-92113421D01*
X210663715Y-92118201D01*
X210641076Y-92127579D01*
X210620702Y-92141192D01*
X210603375Y-92158519D01*
X210589761Y-92178894D01*
X210585667Y-92186553D01*
X210574798Y-92199798D01*
X210561555Y-92210666D01*
X210546443Y-92218743D01*
X210530051Y-92223716D01*
X210506859Y-92226000D01*
X210093141Y-92226000D01*
X210069949Y-92223716D01*
X210053557Y-92218743D01*
X210038445Y-92210666D01*
X210025202Y-92199798D01*
X210014333Y-92186553D01*
X210010239Y-92178894D01*
X209996626Y-92158520D01*
X209979299Y-92141193D01*
X209958924Y-92127579D01*
X209936286Y-92118202D01*
X209912252Y-92113421D01*
X209887748Y-92113421D01*
X209863715Y-92118201D01*
X209841076Y-92127579D01*
X209820702Y-92141192D01*
X209803375Y-92158519D01*
X209789761Y-92178894D01*
X209785667Y-92186553D01*
X209774798Y-92199798D01*
X209761555Y-92210666D01*
X209746443Y-92218743D01*
X209730051Y-92223716D01*
X209706859Y-92226000D01*
X209293141Y-92226000D01*
X209269949Y-92223716D01*
X209253557Y-92218743D01*
X209238445Y-92210666D01*
X209225202Y-92199798D01*
X209214333Y-92186553D01*
X209210239Y-92178894D01*
X209196626Y-92158520D01*
X209179299Y-92141193D01*
X209158924Y-92127579D01*
X209136286Y-92118202D01*
X209112252Y-92113421D01*
X209087748Y-92113421D01*
X209063715Y-92118201D01*
X209041076Y-92127579D01*
X209020702Y-92141192D01*
X209003375Y-92158519D01*
X208989761Y-92178894D01*
X208985667Y-92186553D01*
X208974798Y-92199798D01*
X208961555Y-92210666D01*
X208946443Y-92218743D01*
X208930051Y-92223716D01*
X208906859Y-92226000D01*
X208493141Y-92226000D01*
X208469949Y-92223716D01*
X208453557Y-92218743D01*
X208438445Y-92210666D01*
X208425202Y-92199798D01*
X208414333Y-92186553D01*
X208410239Y-92178894D01*
X208396626Y-92158520D01*
X208379299Y-92141193D01*
X208358924Y-92127579D01*
X208336286Y-92118202D01*
X208312252Y-92113421D01*
X208287748Y-92113421D01*
X208263715Y-92118201D01*
X208241076Y-92127579D01*
X208220702Y-92141192D01*
X208203375Y-92158519D01*
X208189761Y-92178894D01*
X208185667Y-92186553D01*
X208174798Y-92199798D01*
X208161555Y-92210666D01*
X208146443Y-92218743D01*
X208130051Y-92223716D01*
X208106859Y-92226000D01*
X207693141Y-92226000D01*
X207669949Y-92223716D01*
X207653557Y-92218743D01*
X207638445Y-92210666D01*
X207625202Y-92199798D01*
X207614333Y-92186553D01*
X207610239Y-92178894D01*
X207596626Y-92158520D01*
X207579299Y-92141193D01*
X207558924Y-92127579D01*
X207536286Y-92118202D01*
X207512252Y-92113421D01*
X207487748Y-92113421D01*
X207463715Y-92118201D01*
X207441076Y-92127579D01*
X207420702Y-92141192D01*
X207403375Y-92158519D01*
X207389761Y-92178894D01*
X207385667Y-92186553D01*
X207374798Y-92199798D01*
X207361555Y-92210666D01*
X207346443Y-92218743D01*
X207330051Y-92223716D01*
X207306859Y-92226000D01*
X206893141Y-92226000D01*
X206869949Y-92223716D01*
X206853557Y-92218743D01*
X206838445Y-92210666D01*
X206825202Y-92199798D01*
X206814333Y-92186553D01*
X206810239Y-92178894D01*
X206796626Y-92158520D01*
X206779299Y-92141193D01*
X206758924Y-92127579D01*
X206736286Y-92118202D01*
X206712252Y-92113421D01*
X206687748Y-92113421D01*
X206663715Y-92118201D01*
X206641076Y-92127579D01*
X206620702Y-92141192D01*
X206603375Y-92158519D01*
X206589761Y-92178894D01*
X206585667Y-92186553D01*
X206574798Y-92199798D01*
X206561555Y-92210666D01*
X206546443Y-92218743D01*
X206530051Y-92223716D01*
X206506859Y-92226000D01*
X206093141Y-92226000D01*
X206069949Y-92223716D01*
X206053557Y-92218743D01*
X206038445Y-92210666D01*
X206025202Y-92199798D01*
X206014334Y-92186555D01*
X206006257Y-92171443D01*
X206001284Y-92155051D01*
X205999000Y-92131859D01*
X205999000Y-90718141D01*
X206001284Y-90694949D01*
X206006257Y-90678557D01*
X206014334Y-90663445D01*
X206025202Y-90650202D01*
X206038445Y-90639334D01*
X206053557Y-90631257D01*
X206069949Y-90626284D01*
X206093141Y-90624000D01*
X206506859Y-90624000D01*
X206530051Y-90626284D01*
G37*
G36*
X201664928Y-90026764D02*
G01*
X201686009Y-90033160D01*
X201705445Y-90043548D01*
X201722476Y-90057524D01*
X201736452Y-90074555D01*
X201746840Y-90093991D01*
X201753236Y-90115072D01*
X201756000Y-90143140D01*
X201756000Y-91956860D01*
X201753236Y-91984928D01*
X201746840Y-92006009D01*
X201736452Y-92025445D01*
X201722476Y-92042476D01*
X201705445Y-92056452D01*
X201686009Y-92066840D01*
X201664928Y-92073236D01*
X201636860Y-92076000D01*
X201173140Y-92076000D01*
X201145072Y-92073236D01*
X201123991Y-92066840D01*
X201104555Y-92056452D01*
X201087524Y-92042476D01*
X201073548Y-92025445D01*
X201063160Y-92006009D01*
X201056764Y-91984928D01*
X201054000Y-91956860D01*
X201054000Y-90143140D01*
X201056764Y-90115072D01*
X201063160Y-90093991D01*
X201073548Y-90074555D01*
X201087524Y-90057524D01*
X201104555Y-90043548D01*
X201123991Y-90033160D01*
X201145072Y-90026764D01*
X201173140Y-90024000D01*
X201636860Y-90024000D01*
X201664928Y-90026764D01*
G37*
G36*
X200394928Y-90026764D02*
G01*
X200416009Y-90033160D01*
X200435445Y-90043548D01*
X200452476Y-90057524D01*
X200466452Y-90074555D01*
X200476840Y-90093991D01*
X200483236Y-90115072D01*
X200486000Y-90143140D01*
X200486000Y-91956860D01*
X200483236Y-91984928D01*
X200476840Y-92006009D01*
X200466452Y-92025445D01*
X200452476Y-92042476D01*
X200435445Y-92056452D01*
X200416009Y-92066840D01*
X200394928Y-92073236D01*
X200366860Y-92076000D01*
X199903140Y-92076000D01*
X199875072Y-92073236D01*
X199853991Y-92066840D01*
X199834555Y-92056452D01*
X199817524Y-92042476D01*
X199803548Y-92025445D01*
X199793160Y-92006009D01*
X199786764Y-91984928D01*
X199784000Y-91956860D01*
X199784000Y-90143140D01*
X199786764Y-90115072D01*
X199793160Y-90093991D01*
X199803548Y-90074555D01*
X199817524Y-90057524D01*
X199834555Y-90043548D01*
X199853991Y-90033160D01*
X199875072Y-90026764D01*
X199903140Y-90024000D01*
X200366860Y-90024000D01*
X200394928Y-90026764D01*
G37*
G36*
X197854928Y-90026764D02*
G01*
X197876009Y-90033160D01*
X197895445Y-90043548D01*
X197912476Y-90057524D01*
X197926452Y-90074555D01*
X197936840Y-90093991D01*
X197943236Y-90115072D01*
X197946000Y-90143140D01*
X197946000Y-91956860D01*
X197943236Y-91984928D01*
X197936840Y-92006009D01*
X197926452Y-92025445D01*
X197912476Y-92042476D01*
X197895445Y-92056452D01*
X197876009Y-92066840D01*
X197854928Y-92073236D01*
X197826860Y-92076000D01*
X197363140Y-92076000D01*
X197335072Y-92073236D01*
X197313991Y-92066840D01*
X197294555Y-92056452D01*
X197277524Y-92042476D01*
X197263548Y-92025445D01*
X197253160Y-92006009D01*
X197246764Y-91984928D01*
X197244000Y-91956860D01*
X197244000Y-90143140D01*
X197246764Y-90115072D01*
X197253160Y-90093991D01*
X197263548Y-90074555D01*
X197277524Y-90057524D01*
X197294555Y-90043548D01*
X197313991Y-90033160D01*
X197335072Y-90026764D01*
X197363140Y-90024000D01*
X197826860Y-90024000D01*
X197854928Y-90026764D01*
G37*
G36*
X199124928Y-90026764D02*
G01*
X199146009Y-90033160D01*
X199165445Y-90043548D01*
X199182476Y-90057524D01*
X199196452Y-90074555D01*
X199206840Y-90093991D01*
X199213236Y-90115072D01*
X199216000Y-90143140D01*
X199216000Y-91956860D01*
X199213236Y-91984928D01*
X199206840Y-92006009D01*
X199196452Y-92025445D01*
X199182476Y-92042476D01*
X199165445Y-92056452D01*
X199146009Y-92066840D01*
X199124928Y-92073236D01*
X199096860Y-92076000D01*
X198633140Y-92076000D01*
X198605072Y-92073236D01*
X198583991Y-92066840D01*
X198564555Y-92056452D01*
X198547524Y-92042476D01*
X198533548Y-92025445D01*
X198523160Y-92006009D01*
X198516764Y-91984928D01*
X198514000Y-91956860D01*
X198514000Y-90143140D01*
X198516764Y-90115072D01*
X198523160Y-90093991D01*
X198533548Y-90074555D01*
X198547524Y-90057524D01*
X198564555Y-90043548D01*
X198583991Y-90033160D01*
X198605072Y-90026764D01*
X198633140Y-90024000D01*
X199096860Y-90024000D01*
X199124928Y-90026764D01*
G37*
G36*
X224351000Y-91001000D02*
G01*
X222449000Y-91001000D01*
X222449000Y-88399000D01*
X224351000Y-88399000D01*
X224351000Y-91001000D01*
G37*
G36*
X220976000Y-90981000D02*
G01*
X218324000Y-90981000D01*
X218324000Y-89319000D01*
X220976000Y-89319000D01*
X220976000Y-90981000D01*
G37*
G36*
X214005051Y-84151284D02*
G01*
X214021443Y-84156257D01*
X214036555Y-84164334D01*
X214049798Y-84175202D01*
X214060666Y-84188445D01*
X214068743Y-84203557D01*
X214073716Y-84219949D01*
X214076000Y-84243141D01*
X214076000Y-84656859D01*
X214073716Y-84680051D01*
X214068743Y-84696443D01*
X214060666Y-84711555D01*
X214049798Y-84724798D01*
X214036553Y-84735667D01*
X214028894Y-84739761D01*
X214008520Y-84753374D01*
X213991193Y-84770701D01*
X213977579Y-84791076D01*
X213968202Y-84813714D01*
X213963421Y-84837748D01*
X213963421Y-84862252D01*
X213968201Y-84886285D01*
X213977579Y-84908924D01*
X213991192Y-84929298D01*
X214008519Y-84946625D01*
X214028894Y-84960239D01*
X214036553Y-84964333D01*
X214049798Y-84975202D01*
X214060666Y-84988445D01*
X214068743Y-85003557D01*
X214073716Y-85019949D01*
X214076000Y-85043141D01*
X214076000Y-85456859D01*
X214073716Y-85480051D01*
X214068743Y-85496443D01*
X214060666Y-85511555D01*
X214049798Y-85524798D01*
X214036553Y-85535667D01*
X214028894Y-85539761D01*
X214008520Y-85553374D01*
X213991193Y-85570701D01*
X213977579Y-85591076D01*
X213968202Y-85613714D01*
X213963421Y-85637748D01*
X213963421Y-85662252D01*
X213968201Y-85686285D01*
X213977579Y-85708924D01*
X213991192Y-85729298D01*
X214008519Y-85746625D01*
X214028894Y-85760239D01*
X214036553Y-85764333D01*
X214049798Y-85775202D01*
X214060666Y-85788445D01*
X214068743Y-85803557D01*
X214073716Y-85819949D01*
X214076000Y-85843141D01*
X214076000Y-86256859D01*
X214073716Y-86280051D01*
X214068743Y-86296443D01*
X214060666Y-86311555D01*
X214049798Y-86324798D01*
X214036553Y-86335667D01*
X214028894Y-86339761D01*
X214008520Y-86353374D01*
X213991193Y-86370701D01*
X213977579Y-86391076D01*
X213968202Y-86413714D01*
X213963421Y-86437748D01*
X213963421Y-86462252D01*
X213968201Y-86486285D01*
X213977579Y-86508924D01*
X213991192Y-86529298D01*
X214008519Y-86546625D01*
X214028894Y-86560239D01*
X214036553Y-86564333D01*
X214049798Y-86575202D01*
X214060666Y-86588445D01*
X214068743Y-86603557D01*
X214073716Y-86619949D01*
X214076000Y-86643141D01*
X214076000Y-87056859D01*
X214073716Y-87080051D01*
X214068743Y-87096443D01*
X214060666Y-87111555D01*
X214049798Y-87124798D01*
X214036553Y-87135667D01*
X214028894Y-87139761D01*
X214008520Y-87153374D01*
X213991193Y-87170701D01*
X213977579Y-87191076D01*
X213968202Y-87213714D01*
X213963421Y-87237748D01*
X213963421Y-87262252D01*
X213968201Y-87286285D01*
X213977579Y-87308924D01*
X213991192Y-87329298D01*
X214008519Y-87346625D01*
X214028894Y-87360239D01*
X214036553Y-87364333D01*
X214049798Y-87375202D01*
X214060666Y-87388445D01*
X214068743Y-87403557D01*
X214073716Y-87419949D01*
X214076000Y-87443141D01*
X214076000Y-87856859D01*
X214073716Y-87880051D01*
X214068743Y-87896443D01*
X214060666Y-87911555D01*
X214049798Y-87924798D01*
X214036553Y-87935667D01*
X214028894Y-87939761D01*
X214008520Y-87953374D01*
X213991193Y-87970701D01*
X213977579Y-87991076D01*
X213968202Y-88013714D01*
X213963421Y-88037748D01*
X213963421Y-88062252D01*
X213968201Y-88086285D01*
X213977579Y-88108924D01*
X213991192Y-88129298D01*
X214008519Y-88146625D01*
X214028894Y-88160239D01*
X214036553Y-88164333D01*
X214049798Y-88175202D01*
X214060666Y-88188445D01*
X214068743Y-88203557D01*
X214073716Y-88219949D01*
X214076000Y-88243141D01*
X214076000Y-88656859D01*
X214073716Y-88680051D01*
X214068743Y-88696443D01*
X214060666Y-88711555D01*
X214049798Y-88724798D01*
X214036553Y-88735667D01*
X214028894Y-88739761D01*
X214008520Y-88753374D01*
X213991193Y-88770701D01*
X213977579Y-88791076D01*
X213968202Y-88813714D01*
X213963421Y-88837748D01*
X213963421Y-88862252D01*
X213968201Y-88886285D01*
X213977579Y-88908924D01*
X213991192Y-88929298D01*
X214008519Y-88946625D01*
X214028894Y-88960239D01*
X214036553Y-88964333D01*
X214049798Y-88975202D01*
X214060666Y-88988445D01*
X214068743Y-89003557D01*
X214073716Y-89019949D01*
X214076000Y-89043141D01*
X214076000Y-89456859D01*
X214073716Y-89480051D01*
X214068743Y-89496443D01*
X214060666Y-89511555D01*
X214049798Y-89524798D01*
X214036553Y-89535667D01*
X214028894Y-89539761D01*
X214008520Y-89553374D01*
X213991193Y-89570701D01*
X213977579Y-89591076D01*
X213968202Y-89613714D01*
X213963421Y-89637748D01*
X213963421Y-89662252D01*
X213968201Y-89686285D01*
X213977579Y-89708924D01*
X213991192Y-89729298D01*
X214008519Y-89746625D01*
X214028894Y-89760239D01*
X214036553Y-89764333D01*
X214049798Y-89775202D01*
X214060666Y-89788445D01*
X214068743Y-89803557D01*
X214073716Y-89819949D01*
X214076000Y-89843141D01*
X214076000Y-90256859D01*
X214073716Y-90280051D01*
X214068743Y-90296443D01*
X214060666Y-90311555D01*
X214049798Y-90324798D01*
X214036555Y-90335666D01*
X214021443Y-90343743D01*
X214005051Y-90348716D01*
X213981859Y-90351000D01*
X212568141Y-90351000D01*
X212544949Y-90348716D01*
X212528557Y-90343743D01*
X212513445Y-90335666D01*
X212500202Y-90324798D01*
X212489334Y-90311555D01*
X212481257Y-90296443D01*
X212476284Y-90280051D01*
X212474000Y-90256859D01*
X212474000Y-89843141D01*
X212476284Y-89819949D01*
X212481257Y-89803557D01*
X212489334Y-89788445D01*
X212500202Y-89775202D01*
X212513447Y-89764333D01*
X212521106Y-89760239D01*
X212541480Y-89746626D01*
X212558807Y-89729299D01*
X212572421Y-89708924D01*
X212581798Y-89686286D01*
X212586579Y-89662252D01*
X212586579Y-89637748D01*
X212581799Y-89613715D01*
X212572421Y-89591076D01*
X212558808Y-89570702D01*
X212541481Y-89553375D01*
X212521106Y-89539761D01*
X212513447Y-89535667D01*
X212500202Y-89524798D01*
X212489334Y-89511555D01*
X212481257Y-89496443D01*
X212476284Y-89480051D01*
X212474000Y-89456859D01*
X212474000Y-89043141D01*
X212476284Y-89019949D01*
X212481257Y-89003557D01*
X212489334Y-88988445D01*
X212500202Y-88975202D01*
X212513447Y-88964333D01*
X212521106Y-88960239D01*
X212541480Y-88946626D01*
X212558807Y-88929299D01*
X212572421Y-88908924D01*
X212581798Y-88886286D01*
X212586579Y-88862252D01*
X212586579Y-88837748D01*
X212581799Y-88813715D01*
X212572421Y-88791076D01*
X212558808Y-88770702D01*
X212541481Y-88753375D01*
X212521106Y-88739761D01*
X212513447Y-88735667D01*
X212500202Y-88724798D01*
X212489334Y-88711555D01*
X212481257Y-88696443D01*
X212476284Y-88680051D01*
X212474000Y-88656859D01*
X212474000Y-88243141D01*
X212476284Y-88219949D01*
X212481257Y-88203557D01*
X212489334Y-88188445D01*
X212500202Y-88175202D01*
X212513447Y-88164333D01*
X212521106Y-88160239D01*
X212541480Y-88146626D01*
X212558807Y-88129299D01*
X212572421Y-88108924D01*
X212581798Y-88086286D01*
X212586579Y-88062252D01*
X212586579Y-88037748D01*
X212581799Y-88013715D01*
X212572421Y-87991076D01*
X212558808Y-87970702D01*
X212541481Y-87953375D01*
X212521106Y-87939761D01*
X212513447Y-87935667D01*
X212500202Y-87924798D01*
X212489334Y-87911555D01*
X212481257Y-87896443D01*
X212476284Y-87880051D01*
X212474000Y-87856859D01*
X212474000Y-87443141D01*
X212476284Y-87419949D01*
X212481257Y-87403557D01*
X212489334Y-87388445D01*
X212500202Y-87375202D01*
X212513447Y-87364333D01*
X212521106Y-87360239D01*
X212541480Y-87346626D01*
X212558807Y-87329299D01*
X212572421Y-87308924D01*
X212581798Y-87286286D01*
X212586579Y-87262252D01*
X212586579Y-87237748D01*
X212581799Y-87213715D01*
X212572421Y-87191076D01*
X212558808Y-87170702D01*
X212541481Y-87153375D01*
X212521106Y-87139761D01*
X212513447Y-87135667D01*
X212500202Y-87124798D01*
X212489334Y-87111555D01*
X212481257Y-87096443D01*
X212476284Y-87080051D01*
X212474000Y-87056859D01*
X212474000Y-86643141D01*
X212476284Y-86619949D01*
X212481257Y-86603557D01*
X212489334Y-86588445D01*
X212500202Y-86575202D01*
X212513447Y-86564333D01*
X212521106Y-86560239D01*
X212541480Y-86546626D01*
X212558807Y-86529299D01*
X212572421Y-86508924D01*
X212581798Y-86486286D01*
X212586579Y-86462252D01*
X212586579Y-86437748D01*
X212581799Y-86413715D01*
X212572421Y-86391076D01*
X212558808Y-86370702D01*
X212541481Y-86353375D01*
X212521106Y-86339761D01*
X212513447Y-86335667D01*
X212500202Y-86324798D01*
X212489334Y-86311555D01*
X212481257Y-86296443D01*
X212476284Y-86280051D01*
X212474000Y-86256859D01*
X212474000Y-85843141D01*
X212476284Y-85819949D01*
X212481257Y-85803557D01*
X212489334Y-85788445D01*
X212500202Y-85775202D01*
X212513447Y-85764333D01*
X212521106Y-85760239D01*
X212541480Y-85746626D01*
X212558807Y-85729299D01*
X212572421Y-85708924D01*
X212581798Y-85686286D01*
X212586579Y-85662252D01*
X212586579Y-85637748D01*
X212581799Y-85613715D01*
X212572421Y-85591076D01*
X212558808Y-85570702D01*
X212541481Y-85553375D01*
X212521106Y-85539761D01*
X212513447Y-85535667D01*
X212500202Y-85524798D01*
X212489334Y-85511555D01*
X212481257Y-85496443D01*
X212476284Y-85480051D01*
X212474000Y-85456859D01*
X212474000Y-85043141D01*
X212476284Y-85019949D01*
X212481257Y-85003557D01*
X212489334Y-84988445D01*
X212500202Y-84975202D01*
X212513447Y-84964333D01*
X212521106Y-84960239D01*
X212541480Y-84946626D01*
X212558807Y-84929299D01*
X212572421Y-84908924D01*
X212581798Y-84886286D01*
X212586579Y-84862252D01*
X212586579Y-84837748D01*
X212581799Y-84813715D01*
X212572421Y-84791076D01*
X212558808Y-84770702D01*
X212541481Y-84753375D01*
X212521106Y-84739761D01*
X212513447Y-84735667D01*
X212500202Y-84724798D01*
X212489334Y-84711555D01*
X212481257Y-84696443D01*
X212476284Y-84680051D01*
X212474000Y-84656859D01*
X212474000Y-84243141D01*
X212476284Y-84219949D01*
X212481257Y-84203557D01*
X212489334Y-84188445D01*
X212500202Y-84175202D01*
X212513445Y-84164334D01*
X212528557Y-84156257D01*
X212544949Y-84151284D01*
X212568141Y-84149000D01*
X213981859Y-84149000D01*
X214005051Y-84151284D01*
G37*
G36*
X205655051Y-84151284D02*
G01*
X205671443Y-84156257D01*
X205686555Y-84164334D01*
X205699798Y-84175202D01*
X205710666Y-84188445D01*
X205718743Y-84203557D01*
X205723716Y-84219949D01*
X205726000Y-84243141D01*
X205726000Y-84656859D01*
X205723716Y-84680051D01*
X205718743Y-84696443D01*
X205710666Y-84711555D01*
X205699798Y-84724798D01*
X205686553Y-84735667D01*
X205678894Y-84739761D01*
X205658520Y-84753374D01*
X205641193Y-84770701D01*
X205627579Y-84791076D01*
X205618202Y-84813714D01*
X205613421Y-84837748D01*
X205613421Y-84862252D01*
X205618201Y-84886285D01*
X205627579Y-84908924D01*
X205641192Y-84929298D01*
X205658519Y-84946625D01*
X205678894Y-84960239D01*
X205686553Y-84964333D01*
X205699798Y-84975202D01*
X205710666Y-84988445D01*
X205718743Y-85003557D01*
X205723716Y-85019949D01*
X205726000Y-85043141D01*
X205726000Y-85456859D01*
X205723716Y-85480051D01*
X205718743Y-85496443D01*
X205710666Y-85511555D01*
X205699798Y-85524798D01*
X205686553Y-85535667D01*
X205678894Y-85539761D01*
X205658520Y-85553374D01*
X205641193Y-85570701D01*
X205627579Y-85591076D01*
X205618202Y-85613714D01*
X205613421Y-85637748D01*
X205613421Y-85662252D01*
X205618201Y-85686285D01*
X205627579Y-85708924D01*
X205641192Y-85729298D01*
X205658519Y-85746625D01*
X205678894Y-85760239D01*
X205686553Y-85764333D01*
X205699798Y-85775202D01*
X205710666Y-85788445D01*
X205718743Y-85803557D01*
X205723716Y-85819949D01*
X205726000Y-85843141D01*
X205726000Y-86256859D01*
X205723716Y-86280051D01*
X205718743Y-86296443D01*
X205710666Y-86311555D01*
X205699798Y-86324798D01*
X205686553Y-86335667D01*
X205678894Y-86339761D01*
X205658520Y-86353374D01*
X205641193Y-86370701D01*
X205627579Y-86391076D01*
X205618202Y-86413714D01*
X205613421Y-86437748D01*
X205613421Y-86462252D01*
X205618201Y-86486285D01*
X205627579Y-86508924D01*
X205641192Y-86529298D01*
X205658519Y-86546625D01*
X205678894Y-86560239D01*
X205686553Y-86564333D01*
X205699798Y-86575202D01*
X205710666Y-86588445D01*
X205718743Y-86603557D01*
X205723716Y-86619949D01*
X205726000Y-86643141D01*
X205726000Y-87056859D01*
X205723716Y-87080051D01*
X205718743Y-87096443D01*
X205710666Y-87111555D01*
X205699798Y-87124798D01*
X205686553Y-87135667D01*
X205678894Y-87139761D01*
X205658520Y-87153374D01*
X205641193Y-87170701D01*
X205627579Y-87191076D01*
X205618202Y-87213714D01*
X205613421Y-87237748D01*
X205613421Y-87262252D01*
X205618201Y-87286285D01*
X205627579Y-87308924D01*
X205641192Y-87329298D01*
X205658519Y-87346625D01*
X205678894Y-87360239D01*
X205686553Y-87364333D01*
X205699798Y-87375202D01*
X205710666Y-87388445D01*
X205718743Y-87403557D01*
X205723716Y-87419949D01*
X205726000Y-87443141D01*
X205726000Y-87856859D01*
X205723716Y-87880051D01*
X205718743Y-87896443D01*
X205710666Y-87911555D01*
X205699798Y-87924798D01*
X205686553Y-87935667D01*
X205678894Y-87939761D01*
X205658520Y-87953374D01*
X205641193Y-87970701D01*
X205627579Y-87991076D01*
X205618202Y-88013714D01*
X205613421Y-88037748D01*
X205613421Y-88062252D01*
X205618201Y-88086285D01*
X205627579Y-88108924D01*
X205641192Y-88129298D01*
X205658519Y-88146625D01*
X205678894Y-88160239D01*
X205686553Y-88164333D01*
X205699798Y-88175202D01*
X205710666Y-88188445D01*
X205718743Y-88203557D01*
X205723716Y-88219949D01*
X205726000Y-88243141D01*
X205726000Y-88656859D01*
X205723716Y-88680051D01*
X205718743Y-88696443D01*
X205710666Y-88711555D01*
X205699798Y-88724798D01*
X205686553Y-88735667D01*
X205678894Y-88739761D01*
X205658520Y-88753374D01*
X205641193Y-88770701D01*
X205627579Y-88791076D01*
X205618202Y-88813714D01*
X205613421Y-88837748D01*
X205613421Y-88862252D01*
X205618201Y-88886285D01*
X205627579Y-88908924D01*
X205641192Y-88929298D01*
X205658519Y-88946625D01*
X205678894Y-88960239D01*
X205686553Y-88964333D01*
X205699798Y-88975202D01*
X205710666Y-88988445D01*
X205718743Y-89003557D01*
X205723716Y-89019949D01*
X205726000Y-89043141D01*
X205726000Y-89456859D01*
X205723716Y-89480051D01*
X205718743Y-89496443D01*
X205710666Y-89511555D01*
X205699798Y-89524798D01*
X205686553Y-89535667D01*
X205678894Y-89539761D01*
X205658520Y-89553374D01*
X205641193Y-89570701D01*
X205627579Y-89591076D01*
X205618202Y-89613714D01*
X205613421Y-89637748D01*
X205613421Y-89662252D01*
X205618201Y-89686285D01*
X205627579Y-89708924D01*
X205641192Y-89729298D01*
X205658519Y-89746625D01*
X205678894Y-89760239D01*
X205686553Y-89764333D01*
X205699798Y-89775202D01*
X205710666Y-89788445D01*
X205718743Y-89803557D01*
X205723716Y-89819949D01*
X205726000Y-89843141D01*
X205726000Y-90256859D01*
X205723716Y-90280051D01*
X205718743Y-90296443D01*
X205710666Y-90311555D01*
X205699798Y-90324798D01*
X205686555Y-90335666D01*
X205671443Y-90343743D01*
X205655051Y-90348716D01*
X205631859Y-90351000D01*
X204218141Y-90351000D01*
X204194949Y-90348716D01*
X204178557Y-90343743D01*
X204163445Y-90335666D01*
X204150202Y-90324798D01*
X204139334Y-90311555D01*
X204131257Y-90296443D01*
X204126284Y-90280051D01*
X204124000Y-90256859D01*
X204124000Y-89843141D01*
X204126284Y-89819949D01*
X204131257Y-89803557D01*
X204139334Y-89788445D01*
X204150202Y-89775202D01*
X204163447Y-89764333D01*
X204171106Y-89760239D01*
X204191480Y-89746626D01*
X204208807Y-89729299D01*
X204222421Y-89708924D01*
X204231798Y-89686286D01*
X204236579Y-89662252D01*
X204236579Y-89637748D01*
X204231799Y-89613715D01*
X204222421Y-89591076D01*
X204208808Y-89570702D01*
X204191481Y-89553375D01*
X204171106Y-89539761D01*
X204163447Y-89535667D01*
X204150202Y-89524798D01*
X204139334Y-89511555D01*
X204131257Y-89496443D01*
X204126284Y-89480051D01*
X204124000Y-89456859D01*
X204124000Y-89043141D01*
X204126284Y-89019949D01*
X204131257Y-89003557D01*
X204139334Y-88988445D01*
X204150202Y-88975202D01*
X204163447Y-88964333D01*
X204171106Y-88960239D01*
X204191480Y-88946626D01*
X204208807Y-88929299D01*
X204222421Y-88908924D01*
X204231798Y-88886286D01*
X204236579Y-88862252D01*
X204236579Y-88837748D01*
X204231799Y-88813715D01*
X204222421Y-88791076D01*
X204208808Y-88770702D01*
X204191481Y-88753375D01*
X204171106Y-88739761D01*
X204163447Y-88735667D01*
X204150202Y-88724798D01*
X204139334Y-88711555D01*
X204131257Y-88696443D01*
X204126284Y-88680051D01*
X204124000Y-88656859D01*
X204124000Y-88243141D01*
X204126284Y-88219949D01*
X204131257Y-88203557D01*
X204139334Y-88188445D01*
X204150202Y-88175202D01*
X204163447Y-88164333D01*
X204171106Y-88160239D01*
X204191480Y-88146626D01*
X204208807Y-88129299D01*
X204222421Y-88108924D01*
X204231798Y-88086286D01*
X204236579Y-88062252D01*
X204236579Y-88037748D01*
X204231799Y-88013715D01*
X204222421Y-87991076D01*
X204208808Y-87970702D01*
X204191481Y-87953375D01*
X204171106Y-87939761D01*
X204163447Y-87935667D01*
X204150202Y-87924798D01*
X204139334Y-87911555D01*
X204131257Y-87896443D01*
X204126284Y-87880051D01*
X204124000Y-87856859D01*
X204124000Y-87443141D01*
X204126284Y-87419949D01*
X204131257Y-87403557D01*
X204139334Y-87388445D01*
X204150202Y-87375202D01*
X204163447Y-87364333D01*
X204171106Y-87360239D01*
X204191480Y-87346626D01*
X204208807Y-87329299D01*
X204222421Y-87308924D01*
X204231798Y-87286286D01*
X204236579Y-87262252D01*
X204236579Y-87237748D01*
X204231799Y-87213715D01*
X204222421Y-87191076D01*
X204208808Y-87170702D01*
X204191481Y-87153375D01*
X204171106Y-87139761D01*
X204163447Y-87135667D01*
X204150202Y-87124798D01*
X204139334Y-87111555D01*
X204131257Y-87096443D01*
X204126284Y-87080051D01*
X204124000Y-87056859D01*
X204124000Y-86643141D01*
X204126284Y-86619949D01*
X204131257Y-86603557D01*
X204139334Y-86588445D01*
X204150202Y-86575202D01*
X204163447Y-86564333D01*
X204171106Y-86560239D01*
X204191480Y-86546626D01*
X204208807Y-86529299D01*
X204222421Y-86508924D01*
X204231798Y-86486286D01*
X204236579Y-86462252D01*
X204236579Y-86437748D01*
X204231799Y-86413715D01*
X204222421Y-86391076D01*
X204208808Y-86370702D01*
X204191481Y-86353375D01*
X204171106Y-86339761D01*
X204163447Y-86335667D01*
X204150202Y-86324798D01*
X204139334Y-86311555D01*
X204131257Y-86296443D01*
X204126284Y-86280051D01*
X204124000Y-86256859D01*
X204124000Y-85843141D01*
X204126284Y-85819949D01*
X204131257Y-85803557D01*
X204139334Y-85788445D01*
X204150202Y-85775202D01*
X204163447Y-85764333D01*
X204171106Y-85760239D01*
X204191480Y-85746626D01*
X204208807Y-85729299D01*
X204222421Y-85708924D01*
X204231798Y-85686286D01*
X204236579Y-85662252D01*
X204236579Y-85637748D01*
X204231799Y-85613715D01*
X204222421Y-85591076D01*
X204208808Y-85570702D01*
X204191481Y-85553375D01*
X204171106Y-85539761D01*
X204163447Y-85535667D01*
X204150202Y-85524798D01*
X204139334Y-85511555D01*
X204131257Y-85496443D01*
X204126284Y-85480051D01*
X204124000Y-85456859D01*
X204124000Y-85043141D01*
X204126284Y-85019949D01*
X204131257Y-85003557D01*
X204139334Y-84988445D01*
X204150202Y-84975202D01*
X204163447Y-84964333D01*
X204171106Y-84960239D01*
X204191480Y-84946626D01*
X204208807Y-84929299D01*
X204222421Y-84908924D01*
X204231798Y-84886286D01*
X204236579Y-84862252D01*
X204236579Y-84837748D01*
X204231799Y-84813715D01*
X204222421Y-84791076D01*
X204208808Y-84770702D01*
X204191481Y-84753375D01*
X204171106Y-84739761D01*
X204163447Y-84735667D01*
X204150202Y-84724798D01*
X204139334Y-84711555D01*
X204131257Y-84696443D01*
X204126284Y-84680051D01*
X204124000Y-84656859D01*
X204124000Y-84243141D01*
X204126284Y-84219949D01*
X204131257Y-84203557D01*
X204139334Y-84188445D01*
X204150202Y-84175202D01*
X204163445Y-84164334D01*
X204178557Y-84156257D01*
X204194949Y-84151284D01*
X204218141Y-84149000D01*
X205631859Y-84149000D01*
X205655051Y-84151284D01*
G37*
G36*
X197963512Y-87103927D02*
G01*
X198112812Y-87133624D01*
X198276784Y-87201544D01*
X198424354Y-87300147D01*
X198549853Y-87425646D01*
X198648456Y-87573216D01*
X198716376Y-87737188D01*
X198751000Y-87911259D01*
X198751000Y-88088741D01*
X198716376Y-88262812D01*
X198648456Y-88426784D01*
X198549853Y-88574354D01*
X198424354Y-88699853D01*
X198276784Y-88798456D01*
X198112812Y-88866376D01*
X197963512Y-88896073D01*
X197938742Y-88901000D01*
X197761258Y-88901000D01*
X197736488Y-88896073D01*
X197587188Y-88866376D01*
X197423216Y-88798456D01*
X197275646Y-88699853D01*
X197150147Y-88574354D01*
X197051544Y-88426784D01*
X196983624Y-88262812D01*
X196949000Y-88088741D01*
X196949000Y-87911259D01*
X196983624Y-87737188D01*
X197051544Y-87573216D01*
X197150147Y-87425646D01*
X197275646Y-87300147D01*
X197423216Y-87201544D01*
X197587188Y-87133624D01*
X197736488Y-87103927D01*
X197761258Y-87099000D01*
X197938742Y-87099000D01*
X197963512Y-87103927D01*
G37*
G36*
X200503512Y-87103927D02*
G01*
X200652812Y-87133624D01*
X200816784Y-87201544D01*
X200964354Y-87300147D01*
X201089853Y-87425646D01*
X201188456Y-87573216D01*
X201256376Y-87737188D01*
X201291000Y-87911259D01*
X201291000Y-88088741D01*
X201256376Y-88262812D01*
X201188456Y-88426784D01*
X201089853Y-88574354D01*
X200964354Y-88699853D01*
X200816784Y-88798456D01*
X200652812Y-88866376D01*
X200503512Y-88896073D01*
X200478742Y-88901000D01*
X200301258Y-88901000D01*
X200276488Y-88896073D01*
X200127188Y-88866376D01*
X199963216Y-88798456D01*
X199815646Y-88699853D01*
X199690147Y-88574354D01*
X199591544Y-88426784D01*
X199523624Y-88262812D01*
X199489000Y-88088741D01*
X199489000Y-87911259D01*
X199523624Y-87737188D01*
X199591544Y-87573216D01*
X199690147Y-87425646D01*
X199815646Y-87300147D01*
X199963216Y-87201544D01*
X200127188Y-87133624D01*
X200276488Y-87103927D01*
X200301258Y-87099000D01*
X200478742Y-87099000D01*
X200503512Y-87103927D01*
G37*
G36*
X220976000Y-88281000D02*
G01*
X218324000Y-88281000D01*
X218324000Y-86619000D01*
X220976000Y-86619000D01*
X220976000Y-88281000D01*
G37*
G36*
X224351000Y-87001000D02*
G01*
X222449000Y-87001000D01*
X222449000Y-84399000D01*
X224351000Y-84399000D01*
X224351000Y-87001000D01*
G37*
G36*
X197963512Y-84563927D02*
G01*
X198112812Y-84593624D01*
X198276784Y-84661544D01*
X198424354Y-84760147D01*
X198549853Y-84885646D01*
X198648456Y-85033216D01*
X198716376Y-85197188D01*
X198746073Y-85346488D01*
X198751000Y-85371258D01*
X198751000Y-85548742D01*
X198750078Y-85553375D01*
X198716376Y-85722812D01*
X198648456Y-85886784D01*
X198549853Y-86034354D01*
X198424354Y-86159853D01*
X198276784Y-86258456D01*
X198112812Y-86326376D01*
X197977080Y-86353374D01*
X197938742Y-86361000D01*
X197761258Y-86361000D01*
X197722920Y-86353374D01*
X197587188Y-86326376D01*
X197423216Y-86258456D01*
X197275646Y-86159853D01*
X197150147Y-86034354D01*
X197051544Y-85886784D01*
X196983624Y-85722812D01*
X196949922Y-85553375D01*
X196949000Y-85548742D01*
X196949000Y-85371258D01*
X196953927Y-85346488D01*
X196983624Y-85197188D01*
X197051544Y-85033216D01*
X197150147Y-84885646D01*
X197275646Y-84760147D01*
X197423216Y-84661544D01*
X197587188Y-84593624D01*
X197736488Y-84563927D01*
X197761258Y-84559000D01*
X197938742Y-84559000D01*
X197963512Y-84563927D01*
G37*
G36*
X200503512Y-84563927D02*
G01*
X200652812Y-84593624D01*
X200816784Y-84661544D01*
X200964354Y-84760147D01*
X201089853Y-84885646D01*
X201188456Y-85033216D01*
X201256376Y-85197188D01*
X201286073Y-85346488D01*
X201291000Y-85371258D01*
X201291000Y-85548742D01*
X201290078Y-85553375D01*
X201256376Y-85722812D01*
X201188456Y-85886784D01*
X201089853Y-86034354D01*
X200964354Y-86159853D01*
X200816784Y-86258456D01*
X200652812Y-86326376D01*
X200517080Y-86353374D01*
X200478742Y-86361000D01*
X200301258Y-86361000D01*
X200262920Y-86353374D01*
X200127188Y-86326376D01*
X199963216Y-86258456D01*
X199815646Y-86159853D01*
X199690147Y-86034354D01*
X199591544Y-85886784D01*
X199523624Y-85722812D01*
X199489922Y-85553375D01*
X199489000Y-85548742D01*
X199489000Y-85371258D01*
X199493927Y-85346488D01*
X199523624Y-85197188D01*
X199591544Y-85033216D01*
X199690147Y-84885646D01*
X199815646Y-84760147D01*
X199963216Y-84661544D01*
X200127188Y-84593624D01*
X200276488Y-84563927D01*
X200301258Y-84559000D01*
X200478742Y-84559000D01*
X200503512Y-84563927D01*
G37*
G36*
X220853131Y-81802523D02*
G01*
X220881628Y-81811167D01*
X220907889Y-81825204D01*
X220930906Y-81844094D01*
X220949796Y-81867111D01*
X220963833Y-81893372D01*
X220972477Y-81921869D01*
X220976000Y-81957640D01*
X220976000Y-84942360D01*
X220972477Y-84978131D01*
X220963833Y-85006628D01*
X220949796Y-85032889D01*
X220930906Y-85055906D01*
X220907889Y-85074796D01*
X220881628Y-85088833D01*
X220853131Y-85097477D01*
X220817360Y-85101000D01*
X216582640Y-85101000D01*
X216546869Y-85097477D01*
X216518372Y-85088833D01*
X216492111Y-85074796D01*
X216469094Y-85055906D01*
X216450204Y-85032889D01*
X216436167Y-85006628D01*
X216427523Y-84978131D01*
X216424000Y-84942360D01*
X216424000Y-81957640D01*
X216427523Y-81921869D01*
X216436167Y-81893372D01*
X216450204Y-81867111D01*
X216469094Y-81844094D01*
X216492111Y-81825204D01*
X216518372Y-81811167D01*
X216546869Y-81802523D01*
X216582640Y-81799000D01*
X220817360Y-81799000D01*
X220853131Y-81802523D01*
G37*
G36*
X206530051Y-82276284D02*
G01*
X206546443Y-82281257D01*
X206561555Y-82289334D01*
X206574798Y-82300202D01*
X206585667Y-82313447D01*
X206589761Y-82321106D01*
X206603374Y-82341480D01*
X206620701Y-82358807D01*
X206641076Y-82372421D01*
X206663714Y-82381798D01*
X206687748Y-82386579D01*
X206712252Y-82386579D01*
X206736285Y-82381799D01*
X206758924Y-82372421D01*
X206779298Y-82358808D01*
X206796625Y-82341481D01*
X206810239Y-82321106D01*
X206814333Y-82313447D01*
X206825202Y-82300202D01*
X206838445Y-82289334D01*
X206853557Y-82281257D01*
X206869949Y-82276284D01*
X206893141Y-82274000D01*
X207306859Y-82274000D01*
X207330051Y-82276284D01*
X207346443Y-82281257D01*
X207361555Y-82289334D01*
X207374798Y-82300202D01*
X207385667Y-82313447D01*
X207389761Y-82321106D01*
X207403374Y-82341480D01*
X207420701Y-82358807D01*
X207441076Y-82372421D01*
X207463714Y-82381798D01*
X207487748Y-82386579D01*
X207512252Y-82386579D01*
X207536285Y-82381799D01*
X207558924Y-82372421D01*
X207579298Y-82358808D01*
X207596625Y-82341481D01*
X207610239Y-82321106D01*
X207614333Y-82313447D01*
X207625202Y-82300202D01*
X207638445Y-82289334D01*
X207653557Y-82281257D01*
X207669949Y-82276284D01*
X207693141Y-82274000D01*
X208106859Y-82274000D01*
X208130051Y-82276284D01*
X208146443Y-82281257D01*
X208161555Y-82289334D01*
X208174798Y-82300202D01*
X208185667Y-82313447D01*
X208189761Y-82321106D01*
X208203374Y-82341480D01*
X208220701Y-82358807D01*
X208241076Y-82372421D01*
X208263714Y-82381798D01*
X208287748Y-82386579D01*
X208312252Y-82386579D01*
X208336285Y-82381799D01*
X208358924Y-82372421D01*
X208379298Y-82358808D01*
X208396625Y-82341481D01*
X208410239Y-82321106D01*
X208414333Y-82313447D01*
X208425202Y-82300202D01*
X208438445Y-82289334D01*
X208453557Y-82281257D01*
X208469949Y-82276284D01*
X208493141Y-82274000D01*
X208906859Y-82274000D01*
X208930051Y-82276284D01*
X208946443Y-82281257D01*
X208961555Y-82289334D01*
X208974798Y-82300202D01*
X208985667Y-82313447D01*
X208989761Y-82321106D01*
X209003374Y-82341480D01*
X209020701Y-82358807D01*
X209041076Y-82372421D01*
X209063714Y-82381798D01*
X209087748Y-82386579D01*
X209112252Y-82386579D01*
X209136285Y-82381799D01*
X209158924Y-82372421D01*
X209179298Y-82358808D01*
X209196625Y-82341481D01*
X209210239Y-82321106D01*
X209214333Y-82313447D01*
X209225202Y-82300202D01*
X209238445Y-82289334D01*
X209253557Y-82281257D01*
X209269949Y-82276284D01*
X209293141Y-82274000D01*
X209706859Y-82274000D01*
X209730051Y-82276284D01*
X209746443Y-82281257D01*
X209761555Y-82289334D01*
X209774798Y-82300202D01*
X209785667Y-82313447D01*
X209789761Y-82321106D01*
X209803374Y-82341480D01*
X209820701Y-82358807D01*
X209841076Y-82372421D01*
X209863714Y-82381798D01*
X209887748Y-82386579D01*
X209912252Y-82386579D01*
X209936285Y-82381799D01*
X209958924Y-82372421D01*
X209979298Y-82358808D01*
X209996625Y-82341481D01*
X210010239Y-82321106D01*
X210014333Y-82313447D01*
X210025202Y-82300202D01*
X210038445Y-82289334D01*
X210053557Y-82281257D01*
X210069949Y-82276284D01*
X210093141Y-82274000D01*
X210506859Y-82274000D01*
X210530051Y-82276284D01*
X210546443Y-82281257D01*
X210561555Y-82289334D01*
X210574798Y-82300202D01*
X210585667Y-82313447D01*
X210589761Y-82321106D01*
X210603374Y-82341480D01*
X210620701Y-82358807D01*
X210641076Y-82372421D01*
X210663714Y-82381798D01*
X210687748Y-82386579D01*
X210712252Y-82386579D01*
X210736285Y-82381799D01*
X210758924Y-82372421D01*
X210779298Y-82358808D01*
X210796625Y-82341481D01*
X210810239Y-82321106D01*
X210814333Y-82313447D01*
X210825202Y-82300202D01*
X210838445Y-82289334D01*
X210853557Y-82281257D01*
X210869949Y-82276284D01*
X210893141Y-82274000D01*
X211306859Y-82274000D01*
X211330051Y-82276284D01*
X211346443Y-82281257D01*
X211361555Y-82289334D01*
X211374798Y-82300202D01*
X211385667Y-82313447D01*
X211389761Y-82321106D01*
X211403374Y-82341480D01*
X211420701Y-82358807D01*
X211441076Y-82372421D01*
X211463714Y-82381798D01*
X211487748Y-82386579D01*
X211512252Y-82386579D01*
X211536285Y-82381799D01*
X211558924Y-82372421D01*
X211579298Y-82358808D01*
X211596625Y-82341481D01*
X211610239Y-82321106D01*
X211614333Y-82313447D01*
X211625202Y-82300202D01*
X211638445Y-82289334D01*
X211653557Y-82281257D01*
X211669949Y-82276284D01*
X211693141Y-82274000D01*
X212106859Y-82274000D01*
X212130051Y-82276284D01*
X212146443Y-82281257D01*
X212161555Y-82289334D01*
X212174798Y-82300202D01*
X212185666Y-82313445D01*
X212193743Y-82328557D01*
X212198716Y-82344949D01*
X212201000Y-82368141D01*
X212201000Y-83781859D01*
X212198716Y-83805051D01*
X212193743Y-83821443D01*
X212185666Y-83836555D01*
X212174798Y-83849798D01*
X212161555Y-83860666D01*
X212146443Y-83868743D01*
X212130051Y-83873716D01*
X212106859Y-83876000D01*
X211693141Y-83876000D01*
X211669949Y-83873716D01*
X211653557Y-83868743D01*
X211638445Y-83860666D01*
X211625202Y-83849798D01*
X211614333Y-83836553D01*
X211610239Y-83828894D01*
X211596626Y-83808520D01*
X211579299Y-83791193D01*
X211558924Y-83777579D01*
X211536286Y-83768202D01*
X211512252Y-83763421D01*
X211487748Y-83763421D01*
X211463715Y-83768201D01*
X211441076Y-83777579D01*
X211420702Y-83791192D01*
X211403375Y-83808519D01*
X211389761Y-83828894D01*
X211385667Y-83836553D01*
X211374798Y-83849798D01*
X211361555Y-83860666D01*
X211346443Y-83868743D01*
X211330051Y-83873716D01*
X211306859Y-83876000D01*
X210893141Y-83876000D01*
X210869949Y-83873716D01*
X210853557Y-83868743D01*
X210838445Y-83860666D01*
X210825202Y-83849798D01*
X210814333Y-83836553D01*
X210810239Y-83828894D01*
X210796626Y-83808520D01*
X210779299Y-83791193D01*
X210758924Y-83777579D01*
X210736286Y-83768202D01*
X210712252Y-83763421D01*
X210687748Y-83763421D01*
X210663715Y-83768201D01*
X210641076Y-83777579D01*
X210620702Y-83791192D01*
X210603375Y-83808519D01*
X210589761Y-83828894D01*
X210585667Y-83836553D01*
X210574798Y-83849798D01*
X210561555Y-83860666D01*
X210546443Y-83868743D01*
X210530051Y-83873716D01*
X210506859Y-83876000D01*
X210093141Y-83876000D01*
X210069949Y-83873716D01*
X210053557Y-83868743D01*
X210038445Y-83860666D01*
X210025202Y-83849798D01*
X210014333Y-83836553D01*
X210010239Y-83828894D01*
X209996626Y-83808520D01*
X209979299Y-83791193D01*
X209958924Y-83777579D01*
X209936286Y-83768202D01*
X209912252Y-83763421D01*
X209887748Y-83763421D01*
X209863715Y-83768201D01*
X209841076Y-83777579D01*
X209820702Y-83791192D01*
X209803375Y-83808519D01*
X209789761Y-83828894D01*
X209785667Y-83836553D01*
X209774798Y-83849798D01*
X209761555Y-83860666D01*
X209746443Y-83868743D01*
X209730051Y-83873716D01*
X209706859Y-83876000D01*
X209293141Y-83876000D01*
X209269949Y-83873716D01*
X209253557Y-83868743D01*
X209238445Y-83860666D01*
X209225202Y-83849798D01*
X209214333Y-83836553D01*
X209210239Y-83828894D01*
X209196626Y-83808520D01*
X209179299Y-83791193D01*
X209158924Y-83777579D01*
X209136286Y-83768202D01*
X209112252Y-83763421D01*
X209087748Y-83763421D01*
X209063715Y-83768201D01*
X209041076Y-83777579D01*
X209020702Y-83791192D01*
X209003375Y-83808519D01*
X208989761Y-83828894D01*
X208985667Y-83836553D01*
X208974798Y-83849798D01*
X208961555Y-83860666D01*
X208946443Y-83868743D01*
X208930051Y-83873716D01*
X208906859Y-83876000D01*
X208493141Y-83876000D01*
X208469949Y-83873716D01*
X208453557Y-83868743D01*
X208438445Y-83860666D01*
X208425202Y-83849798D01*
X208414333Y-83836553D01*
X208410239Y-83828894D01*
X208396626Y-83808520D01*
X208379299Y-83791193D01*
X208358924Y-83777579D01*
X208336286Y-83768202D01*
X208312252Y-83763421D01*
X208287748Y-83763421D01*
X208263715Y-83768201D01*
X208241076Y-83777579D01*
X208220702Y-83791192D01*
X208203375Y-83808519D01*
X208189761Y-83828894D01*
X208185667Y-83836553D01*
X208174798Y-83849798D01*
X208161555Y-83860666D01*
X208146443Y-83868743D01*
X208130051Y-83873716D01*
X208106859Y-83876000D01*
X207693141Y-83876000D01*
X207669949Y-83873716D01*
X207653557Y-83868743D01*
X207638445Y-83860666D01*
X207625202Y-83849798D01*
X207614333Y-83836553D01*
X207610239Y-83828894D01*
X207596626Y-83808520D01*
X207579299Y-83791193D01*
X207558924Y-83777579D01*
X207536286Y-83768202D01*
X207512252Y-83763421D01*
X207487748Y-83763421D01*
X207463715Y-83768201D01*
X207441076Y-83777579D01*
X207420702Y-83791192D01*
X207403375Y-83808519D01*
X207389761Y-83828894D01*
X207385667Y-83836553D01*
X207374798Y-83849798D01*
X207361555Y-83860666D01*
X207346443Y-83868743D01*
X207330051Y-83873716D01*
X207306859Y-83876000D01*
X206893141Y-83876000D01*
X206869949Y-83873716D01*
X206853557Y-83868743D01*
X206838445Y-83860666D01*
X206825202Y-83849798D01*
X206814333Y-83836553D01*
X206810239Y-83828894D01*
X206796626Y-83808520D01*
X206779299Y-83791193D01*
X206758924Y-83777579D01*
X206736286Y-83768202D01*
X206712252Y-83763421D01*
X206687748Y-83763421D01*
X206663715Y-83768201D01*
X206641076Y-83777579D01*
X206620702Y-83791192D01*
X206603375Y-83808519D01*
X206589761Y-83828894D01*
X206585667Y-83836553D01*
X206574798Y-83849798D01*
X206561555Y-83860666D01*
X206546443Y-83868743D01*
X206530051Y-83873716D01*
X206506859Y-83876000D01*
X206093141Y-83876000D01*
X206069949Y-83873716D01*
X206053557Y-83868743D01*
X206038445Y-83860666D01*
X206025202Y-83849798D01*
X206014334Y-83836555D01*
X206006257Y-83821443D01*
X206001284Y-83805051D01*
X205999000Y-83781859D01*
X205999000Y-82368141D01*
X206001284Y-82344949D01*
X206006257Y-82328557D01*
X206014334Y-82313445D01*
X206025202Y-82300202D01*
X206038445Y-82289334D01*
X206053557Y-82281257D01*
X206069949Y-82276284D01*
X206093141Y-82274000D01*
X206506859Y-82274000D01*
X206530051Y-82276284D01*
G37*
G36*
X197963512Y-82023927D02*
G01*
X198112812Y-82053624D01*
X198276784Y-82121544D01*
X198424354Y-82220147D01*
X198549853Y-82345646D01*
X198648456Y-82493216D01*
X198716376Y-82657188D01*
X198751000Y-82831259D01*
X198751000Y-83008741D01*
X198716376Y-83182812D01*
X198648456Y-83346784D01*
X198549853Y-83494354D01*
X198424354Y-83619853D01*
X198276784Y-83718456D01*
X198112812Y-83786376D01*
X197963512Y-83816073D01*
X197938742Y-83821000D01*
X197761258Y-83821000D01*
X197736488Y-83816073D01*
X197587188Y-83786376D01*
X197423216Y-83718456D01*
X197275646Y-83619853D01*
X197150147Y-83494354D01*
X197051544Y-83346784D01*
X196983624Y-83182812D01*
X196949000Y-83008741D01*
X196949000Y-82831259D01*
X196983624Y-82657188D01*
X197051544Y-82493216D01*
X197150147Y-82345646D01*
X197275646Y-82220147D01*
X197423216Y-82121544D01*
X197587188Y-82053624D01*
X197736488Y-82023927D01*
X197761258Y-82019000D01*
X197938742Y-82019000D01*
X197963512Y-82023927D01*
G37*
G36*
X200503512Y-82023927D02*
G01*
X200652812Y-82053624D01*
X200816784Y-82121544D01*
X200964354Y-82220147D01*
X201089853Y-82345646D01*
X201188456Y-82493216D01*
X201256376Y-82657188D01*
X201291000Y-82831259D01*
X201291000Y-83008741D01*
X201256376Y-83182812D01*
X201188456Y-83346784D01*
X201089853Y-83494354D01*
X200964354Y-83619853D01*
X200816784Y-83718456D01*
X200652812Y-83786376D01*
X200503512Y-83816073D01*
X200478742Y-83821000D01*
X200301258Y-83821000D01*
X200276488Y-83816073D01*
X200127188Y-83786376D01*
X199963216Y-83718456D01*
X199815646Y-83619853D01*
X199690147Y-83494354D01*
X199591544Y-83346784D01*
X199523624Y-83182812D01*
X199489000Y-83008741D01*
X199489000Y-82831259D01*
X199523624Y-82657188D01*
X199591544Y-82493216D01*
X199690147Y-82345646D01*
X199815646Y-82220147D01*
X199963216Y-82121544D01*
X200127188Y-82053624D01*
X200276488Y-82023927D01*
X200301258Y-82019000D01*
X200478742Y-82019000D01*
X200503512Y-82023927D01*
G37*
G36*
X224351000Y-83251000D02*
G01*
X222449000Y-83251000D01*
X222449000Y-80649000D01*
X224351000Y-80649000D01*
X224351000Y-83251000D01*
G37*
G36*
X197963512Y-79483927D02*
G01*
X198112812Y-79513624D01*
X198276784Y-79581544D01*
X198424354Y-79680147D01*
X198549853Y-79805646D01*
X198648456Y-79953216D01*
X198716376Y-80117188D01*
X198751000Y-80291259D01*
X198751000Y-80468741D01*
X198716376Y-80642812D01*
X198648456Y-80806784D01*
X198549853Y-80954354D01*
X198424354Y-81079853D01*
X198276784Y-81178456D01*
X198112812Y-81246376D01*
X197963512Y-81276073D01*
X197938742Y-81281000D01*
X197761258Y-81281000D01*
X197736488Y-81276073D01*
X197587188Y-81246376D01*
X197423216Y-81178456D01*
X197275646Y-81079853D01*
X197150147Y-80954354D01*
X197051544Y-80806784D01*
X196983624Y-80642812D01*
X196949000Y-80468741D01*
X196949000Y-80291259D01*
X196983624Y-80117188D01*
X197051544Y-79953216D01*
X197150147Y-79805646D01*
X197275646Y-79680147D01*
X197423216Y-79581544D01*
X197587188Y-79513624D01*
X197736488Y-79483927D01*
X197761258Y-79479000D01*
X197938742Y-79479000D01*
X197963512Y-79483927D01*
G37*
G36*
X200503512Y-79483927D02*
G01*
X200652812Y-79513624D01*
X200816784Y-79581544D01*
X200964354Y-79680147D01*
X201089853Y-79805646D01*
X201188456Y-79953216D01*
X201256376Y-80117188D01*
X201291000Y-80291259D01*
X201291000Y-80468741D01*
X201256376Y-80642812D01*
X201188456Y-80806784D01*
X201089853Y-80954354D01*
X200964354Y-81079853D01*
X200816784Y-81178456D01*
X200652812Y-81246376D01*
X200503512Y-81276073D01*
X200478742Y-81281000D01*
X200301258Y-81281000D01*
X200276488Y-81276073D01*
X200127188Y-81246376D01*
X199963216Y-81178456D01*
X199815646Y-81079853D01*
X199690147Y-80954354D01*
X199591544Y-80806784D01*
X199523624Y-80642812D01*
X199489000Y-80468741D01*
X199489000Y-80291259D01*
X199523624Y-80117188D01*
X199591544Y-79953216D01*
X199690147Y-79805646D01*
X199815646Y-79680147D01*
X199963216Y-79581544D01*
X200127188Y-79513624D01*
X200276488Y-79483927D01*
X200301258Y-79479000D01*
X200478742Y-79479000D01*
X200503512Y-79483927D01*
G37*
G36*
X220853131Y-76602523D02*
G01*
X220881628Y-76611167D01*
X220907889Y-76625204D01*
X220930906Y-76644094D01*
X220949796Y-76667111D01*
X220963833Y-76693372D01*
X220972477Y-76721869D01*
X220976000Y-76757640D01*
X220976000Y-79742360D01*
X220972477Y-79778131D01*
X220963833Y-79806628D01*
X220949796Y-79832889D01*
X220930906Y-79855906D01*
X220907889Y-79874796D01*
X220881628Y-79888833D01*
X220853131Y-79897477D01*
X220817360Y-79901000D01*
X216582640Y-79901000D01*
X216546869Y-79897477D01*
X216518372Y-79888833D01*
X216492111Y-79874796D01*
X216469094Y-79855906D01*
X216450204Y-79832889D01*
X216436167Y-79806628D01*
X216427523Y-79778131D01*
X216424000Y-79742360D01*
X216424000Y-76757640D01*
X216427523Y-76721869D01*
X216436167Y-76693372D01*
X216450204Y-76667111D01*
X216469094Y-76644094D01*
X216492111Y-76625204D01*
X216518372Y-76611167D01*
X216546869Y-76602523D01*
X216582640Y-76599000D01*
X220817360Y-76599000D01*
X220853131Y-76602523D01*
G37*
G36*
X211883642Y-77979781D02*
G01*
X212029414Y-78040162D01*
X212029416Y-78040163D01*
X212160608Y-78127822D01*
X212272178Y-78239392D01*
X212359837Y-78370584D01*
X212359838Y-78370586D01*
X212420219Y-78516358D01*
X212451000Y-78671107D01*
X212451000Y-78828893D01*
X212420219Y-78983642D01*
X212359838Y-79129414D01*
X212359837Y-79129416D01*
X212272178Y-79260608D01*
X212160608Y-79372178D01*
X212029416Y-79459837D01*
X212029415Y-79459838D01*
X212029414Y-79459838D01*
X211883642Y-79520219D01*
X211728893Y-79551000D01*
X211571107Y-79551000D01*
X211416358Y-79520219D01*
X211270586Y-79459838D01*
X211270585Y-79459838D01*
X211270584Y-79459837D01*
X211139392Y-79372178D01*
X211027822Y-79260608D01*
X210940163Y-79129416D01*
X210940162Y-79129414D01*
X210879781Y-78983642D01*
X210849000Y-78828893D01*
X210849000Y-78671107D01*
X210879781Y-78516358D01*
X210940162Y-78370586D01*
X210940163Y-78370584D01*
X211027822Y-78239392D01*
X211139392Y-78127822D01*
X211270584Y-78040163D01*
X211270586Y-78040162D01*
X211416358Y-77979781D01*
X211571107Y-77949000D01*
X211728893Y-77949000D01*
X211883642Y-77979781D01*
G37*
G36*
X207003642Y-77979781D02*
G01*
X207149414Y-78040162D01*
X207149416Y-78040163D01*
X207280608Y-78127822D01*
X207392178Y-78239392D01*
X207479837Y-78370584D01*
X207479838Y-78370586D01*
X207540219Y-78516358D01*
X207571000Y-78671107D01*
X207571000Y-78828893D01*
X207540219Y-78983642D01*
X207479838Y-79129414D01*
X207479837Y-79129416D01*
X207392178Y-79260608D01*
X207280608Y-79372178D01*
X207149416Y-79459837D01*
X207149415Y-79459838D01*
X207149414Y-79459838D01*
X207003642Y-79520219D01*
X206848893Y-79551000D01*
X206691107Y-79551000D01*
X206536358Y-79520219D01*
X206390586Y-79459838D01*
X206390585Y-79459838D01*
X206390584Y-79459837D01*
X206259392Y-79372178D01*
X206147822Y-79260608D01*
X206060163Y-79129416D01*
X206060162Y-79129414D01*
X205999781Y-78983642D01*
X205969000Y-78828893D01*
X205969000Y-78671107D01*
X205999781Y-78516358D01*
X206060162Y-78370586D01*
X206060163Y-78370584D01*
X206147822Y-78239392D01*
X206259392Y-78127822D01*
X206390584Y-78040163D01*
X206390586Y-78040162D01*
X206536358Y-77979781D01*
X206691107Y-77949000D01*
X206848893Y-77949000D01*
X207003642Y-77979781D01*
G37*
G36*
X224351000Y-79251000D02*
G01*
X222449000Y-79251000D01*
X222449000Y-76649000D01*
X224351000Y-76649000D01*
X224351000Y-79251000D01*
G37*
G36*
X200503512Y-76943927D02*
G01*
X200652812Y-76973624D01*
X200816784Y-77041544D01*
X200964354Y-77140147D01*
X201089853Y-77265646D01*
X201188456Y-77413216D01*
X201256376Y-77577188D01*
X201291000Y-77751259D01*
X201291000Y-77928741D01*
X201256376Y-78102812D01*
X201188456Y-78266784D01*
X201089853Y-78414354D01*
X200964354Y-78539853D01*
X200816784Y-78638456D01*
X200652812Y-78706376D01*
X200503512Y-78736073D01*
X200478742Y-78741000D01*
X200301258Y-78741000D01*
X200276488Y-78736073D01*
X200127188Y-78706376D01*
X199963216Y-78638456D01*
X199815646Y-78539853D01*
X199690147Y-78414354D01*
X199591544Y-78266784D01*
X199523624Y-78102812D01*
X199489000Y-77928741D01*
X199489000Y-77751259D01*
X199523624Y-77577188D01*
X199591544Y-77413216D01*
X199690147Y-77265646D01*
X199815646Y-77140147D01*
X199963216Y-77041544D01*
X200127188Y-76973624D01*
X200276488Y-76943927D01*
X200301258Y-76939000D01*
X200478742Y-76939000D01*
X200503512Y-76943927D01*
G37*
G36*
X198751000Y-78741000D02*
G01*
X196949000Y-78741000D01*
X196949000Y-76939000D01*
X198751000Y-76939000D01*
X198751000Y-78741000D01*
G37*
M02*
