G04 #@! TF.GenerationSoftware,KiCad,Pcbnew,5.1.6-c6e7f7d~86~ubuntu18.04.1*
G04 #@! TF.CreationDate,2020-05-23T21:04:01+02:00*
G04 #@! TF.ProjectId,sci2can,73636932-6361-46e2-9e6b-696361645f70,1.00*
G04 #@! TF.SameCoordinates,Original*
G04 #@! TF.FileFunction,Soldermask,Bot*
G04 #@! TF.FilePolarity,Negative*
%FSLAX46Y46*%
G04 Gerber Fmt 4.6, Leading zero omitted, Abs format (unit mm)*
G04 Created by KiCad (PCBNEW 5.1.6-c6e7f7d~86~ubuntu18.04.1) date 2020-05-23 21:04:01*
%MOMM*%
%LPD*%
G01*
G04 APERTURE LIST*
%ADD10C,0.100000*%
G04 APERTURE END LIST*
D10*
G36*
X224594072Y-158350918D02*
G01*
X224839939Y-158452759D01*
X225061212Y-158600610D01*
X225249390Y-158788788D01*
X225397241Y-159010061D01*
X225499082Y-159255928D01*
X225551000Y-159516938D01*
X225551000Y-159783062D01*
X225499082Y-160044072D01*
X225397241Y-160289939D01*
X225249390Y-160511212D01*
X225061212Y-160699390D01*
X224839939Y-160847241D01*
X224839938Y-160847242D01*
X224839937Y-160847242D01*
X224594072Y-160949082D01*
X224333063Y-161001000D01*
X224066937Y-161001000D01*
X223805928Y-160949082D01*
X223560063Y-160847242D01*
X223560062Y-160847242D01*
X223560061Y-160847241D01*
X223338788Y-160699390D01*
X223150610Y-160511212D01*
X223002759Y-160289939D01*
X222900918Y-160044072D01*
X222849000Y-159783062D01*
X222849000Y-159516938D01*
X222900918Y-159255928D01*
X223002759Y-159010061D01*
X223150610Y-158788788D01*
X223338788Y-158600610D01*
X223560061Y-158452759D01*
X223805928Y-158350918D01*
X224066937Y-158299000D01*
X224333063Y-158299000D01*
X224594072Y-158350918D01*
G37*
G36*
X214594072Y-158350918D02*
G01*
X214839939Y-158452759D01*
X215061212Y-158600610D01*
X215249390Y-158788788D01*
X215397241Y-159010061D01*
X215499082Y-159255928D01*
X215551000Y-159516938D01*
X215551000Y-159783062D01*
X215499082Y-160044072D01*
X215397241Y-160289939D01*
X215249390Y-160511212D01*
X215061212Y-160699390D01*
X214839939Y-160847241D01*
X214839938Y-160847242D01*
X214839937Y-160847242D01*
X214594072Y-160949082D01*
X214333063Y-161001000D01*
X214066937Y-161001000D01*
X213805928Y-160949082D01*
X213560063Y-160847242D01*
X213560062Y-160847242D01*
X213560061Y-160847241D01*
X213338788Y-160699390D01*
X213150610Y-160511212D01*
X213002759Y-160289939D01*
X212900918Y-160044072D01*
X212849000Y-159783062D01*
X212849000Y-159516938D01*
X212900918Y-159255928D01*
X213002759Y-159010061D01*
X213150610Y-158788788D01*
X213338788Y-158600610D01*
X213560061Y-158452759D01*
X213805928Y-158350918D01*
X214066937Y-158299000D01*
X214333063Y-158299000D01*
X214594072Y-158350918D01*
G37*
G36*
X209594072Y-158350918D02*
G01*
X209839939Y-158452759D01*
X210061212Y-158600610D01*
X210249390Y-158788788D01*
X210397241Y-159010061D01*
X210499082Y-159255928D01*
X210551000Y-159516938D01*
X210551000Y-159783062D01*
X210499082Y-160044072D01*
X210397241Y-160289939D01*
X210249390Y-160511212D01*
X210061212Y-160699390D01*
X209839939Y-160847241D01*
X209839938Y-160847242D01*
X209839937Y-160847242D01*
X209594072Y-160949082D01*
X209333063Y-161001000D01*
X209066937Y-161001000D01*
X208805928Y-160949082D01*
X208560063Y-160847242D01*
X208560062Y-160847242D01*
X208560061Y-160847241D01*
X208338788Y-160699390D01*
X208150610Y-160511212D01*
X208002759Y-160289939D01*
X207900918Y-160044072D01*
X207849000Y-159783062D01*
X207849000Y-159516938D01*
X207900918Y-159255928D01*
X208002759Y-159010061D01*
X208150610Y-158788788D01*
X208338788Y-158600610D01*
X208560061Y-158452759D01*
X208805928Y-158350918D01*
X209066937Y-158299000D01*
X209333063Y-158299000D01*
X209594072Y-158350918D01*
G37*
G36*
X204594072Y-158350918D02*
G01*
X204839939Y-158452759D01*
X205061212Y-158600610D01*
X205249390Y-158788788D01*
X205397241Y-159010061D01*
X205499082Y-159255928D01*
X205551000Y-159516938D01*
X205551000Y-159783062D01*
X205499082Y-160044072D01*
X205397241Y-160289939D01*
X205249390Y-160511212D01*
X205061212Y-160699390D01*
X204839939Y-160847241D01*
X204839938Y-160847242D01*
X204839937Y-160847242D01*
X204594072Y-160949082D01*
X204333063Y-161001000D01*
X204066937Y-161001000D01*
X203805928Y-160949082D01*
X203560063Y-160847242D01*
X203560062Y-160847242D01*
X203560061Y-160847241D01*
X203338788Y-160699390D01*
X203150610Y-160511212D01*
X203002759Y-160289939D01*
X202900918Y-160044072D01*
X202849000Y-159783062D01*
X202849000Y-159516938D01*
X202900918Y-159255928D01*
X203002759Y-159010061D01*
X203150610Y-158788788D01*
X203338788Y-158600610D01*
X203560061Y-158452759D01*
X203805928Y-158350918D01*
X204066937Y-158299000D01*
X204333063Y-158299000D01*
X204594072Y-158350918D01*
G37*
G36*
X200551000Y-161001000D02*
G01*
X197849000Y-161001000D01*
X197849000Y-158299000D01*
X200551000Y-158299000D01*
X200551000Y-161001000D01*
G37*
G36*
X219594072Y-158350918D02*
G01*
X219839939Y-158452759D01*
X220061212Y-158600610D01*
X220249390Y-158788788D01*
X220397241Y-159010061D01*
X220499082Y-159255928D01*
X220551000Y-159516938D01*
X220551000Y-159783062D01*
X220499082Y-160044072D01*
X220397241Y-160289939D01*
X220249390Y-160511212D01*
X220061212Y-160699390D01*
X219839939Y-160847241D01*
X219839938Y-160847242D01*
X219839937Y-160847242D01*
X219594072Y-160949082D01*
X219333063Y-161001000D01*
X219066937Y-161001000D01*
X218805928Y-160949082D01*
X218560063Y-160847242D01*
X218560062Y-160847242D01*
X218560061Y-160847241D01*
X218338788Y-160699390D01*
X218150610Y-160511212D01*
X218002759Y-160289939D01*
X217900918Y-160044072D01*
X217849000Y-159783062D01*
X217849000Y-159516938D01*
X217900918Y-159255928D01*
X218002759Y-159010061D01*
X218150610Y-158788788D01*
X218338788Y-158600610D01*
X218560061Y-158452759D01*
X218805928Y-158350918D01*
X219066937Y-158299000D01*
X219333063Y-158299000D01*
X219594072Y-158350918D01*
G37*
G36*
X214539499Y-155878445D02*
G01*
X214576995Y-155889820D01*
X214611554Y-155908292D01*
X214641847Y-155933153D01*
X214666708Y-155963446D01*
X214685180Y-155998005D01*
X214696555Y-156035501D01*
X214701000Y-156080638D01*
X214701000Y-156719362D01*
X214696555Y-156764499D01*
X214685180Y-156801995D01*
X214666708Y-156836554D01*
X214641847Y-156866847D01*
X214611554Y-156891708D01*
X214576995Y-156910180D01*
X214539499Y-156921555D01*
X214494362Y-156926000D01*
X213755638Y-156926000D01*
X213710501Y-156921555D01*
X213673005Y-156910180D01*
X213638446Y-156891708D01*
X213608153Y-156866847D01*
X213583292Y-156836554D01*
X213564820Y-156801995D01*
X213553445Y-156764499D01*
X213549000Y-156719362D01*
X213549000Y-156080638D01*
X213553445Y-156035501D01*
X213564820Y-155998005D01*
X213583292Y-155963446D01*
X213608153Y-155933153D01*
X213638446Y-155908292D01*
X213673005Y-155889820D01*
X213710501Y-155878445D01*
X213755638Y-155874000D01*
X214494362Y-155874000D01*
X214539499Y-155878445D01*
G37*
G36*
X210189499Y-155878445D02*
G01*
X210226995Y-155889820D01*
X210261554Y-155908292D01*
X210291847Y-155933153D01*
X210316708Y-155963446D01*
X210335180Y-155998005D01*
X210346555Y-156035501D01*
X210351000Y-156080638D01*
X210351000Y-156719362D01*
X210346555Y-156764499D01*
X210335180Y-156801995D01*
X210316708Y-156836554D01*
X210291847Y-156866847D01*
X210261554Y-156891708D01*
X210226995Y-156910180D01*
X210189499Y-156921555D01*
X210144362Y-156926000D01*
X209405638Y-156926000D01*
X209360501Y-156921555D01*
X209323005Y-156910180D01*
X209288446Y-156891708D01*
X209258153Y-156866847D01*
X209233292Y-156836554D01*
X209214820Y-156801995D01*
X209203445Y-156764499D01*
X209199000Y-156719362D01*
X209199000Y-156080638D01*
X209203445Y-156035501D01*
X209214820Y-155998005D01*
X209233292Y-155963446D01*
X209258153Y-155933153D01*
X209288446Y-155908292D01*
X209323005Y-155889820D01*
X209360501Y-155878445D01*
X209405638Y-155874000D01*
X210144362Y-155874000D01*
X210189499Y-155878445D01*
G37*
G36*
X211939499Y-155878445D02*
G01*
X211976995Y-155889820D01*
X212011554Y-155908292D01*
X212041847Y-155933153D01*
X212066708Y-155963446D01*
X212085180Y-155998005D01*
X212096555Y-156035501D01*
X212101000Y-156080638D01*
X212101000Y-156719362D01*
X212096555Y-156764499D01*
X212085180Y-156801995D01*
X212066708Y-156836554D01*
X212041847Y-156866847D01*
X212011554Y-156891708D01*
X211976995Y-156910180D01*
X211939499Y-156921555D01*
X211894362Y-156926000D01*
X211155638Y-156926000D01*
X211110501Y-156921555D01*
X211073005Y-156910180D01*
X211038446Y-156891708D01*
X211008153Y-156866847D01*
X210983292Y-156836554D01*
X210964820Y-156801995D01*
X210953445Y-156764499D01*
X210949000Y-156719362D01*
X210949000Y-156080638D01*
X210953445Y-156035501D01*
X210964820Y-155998005D01*
X210983292Y-155963446D01*
X211008153Y-155933153D01*
X211038446Y-155908292D01*
X211073005Y-155889820D01*
X211110501Y-155878445D01*
X211155638Y-155874000D01*
X211894362Y-155874000D01*
X211939499Y-155878445D01*
G37*
G36*
X225650562Y-155078181D02*
G01*
X225685481Y-155088774D01*
X225717663Y-155105976D01*
X225745873Y-155129127D01*
X225769024Y-155157337D01*
X225786226Y-155189519D01*
X225796819Y-155224438D01*
X225801000Y-155266895D01*
X225801000Y-156733105D01*
X225796819Y-156775562D01*
X225786226Y-156810481D01*
X225769024Y-156842663D01*
X225745873Y-156870873D01*
X225717663Y-156894024D01*
X225685481Y-156911226D01*
X225650562Y-156921819D01*
X225608105Y-156926000D01*
X224466895Y-156926000D01*
X224424438Y-156921819D01*
X224389519Y-156911226D01*
X224357337Y-156894024D01*
X224329127Y-156870873D01*
X224305976Y-156842663D01*
X224288774Y-156810481D01*
X224278181Y-156775562D01*
X224274000Y-156733105D01*
X224274000Y-155266895D01*
X224278181Y-155224438D01*
X224288774Y-155189519D01*
X224305976Y-155157337D01*
X224329127Y-155129127D01*
X224357337Y-155105976D01*
X224389519Y-155088774D01*
X224424438Y-155078181D01*
X224466895Y-155074000D01*
X225608105Y-155074000D01*
X225650562Y-155078181D01*
G37*
G36*
X222675562Y-155078181D02*
G01*
X222710481Y-155088774D01*
X222742663Y-155105976D01*
X222770873Y-155129127D01*
X222794024Y-155157337D01*
X222811226Y-155189519D01*
X222821819Y-155224438D01*
X222826000Y-155266895D01*
X222826000Y-156733105D01*
X222821819Y-156775562D01*
X222811226Y-156810481D01*
X222794024Y-156842663D01*
X222770873Y-156870873D01*
X222742663Y-156894024D01*
X222710481Y-156911226D01*
X222675562Y-156921819D01*
X222633105Y-156926000D01*
X221491895Y-156926000D01*
X221449438Y-156921819D01*
X221414519Y-156911226D01*
X221382337Y-156894024D01*
X221354127Y-156870873D01*
X221330976Y-156842663D01*
X221313774Y-156810481D01*
X221303181Y-156775562D01*
X221299000Y-156733105D01*
X221299000Y-155266895D01*
X221303181Y-155224438D01*
X221313774Y-155189519D01*
X221330976Y-155157337D01*
X221354127Y-155129127D01*
X221382337Y-155105976D01*
X221414519Y-155088774D01*
X221449438Y-155078181D01*
X221491895Y-155074000D01*
X222633105Y-155074000D01*
X222675562Y-155078181D01*
G37*
G36*
X220564499Y-155878445D02*
G01*
X220601995Y-155889820D01*
X220636554Y-155908292D01*
X220666847Y-155933153D01*
X220691708Y-155963446D01*
X220710180Y-155998005D01*
X220721555Y-156035501D01*
X220726000Y-156080638D01*
X220726000Y-156719362D01*
X220721555Y-156764499D01*
X220710180Y-156801995D01*
X220691708Y-156836554D01*
X220666847Y-156866847D01*
X220636554Y-156891708D01*
X220601995Y-156910180D01*
X220564499Y-156921555D01*
X220519362Y-156926000D01*
X219780638Y-156926000D01*
X219735501Y-156921555D01*
X219698005Y-156910180D01*
X219663446Y-156891708D01*
X219633153Y-156866847D01*
X219608292Y-156836554D01*
X219589820Y-156801995D01*
X219578445Y-156764499D01*
X219574000Y-156719362D01*
X219574000Y-156080638D01*
X219578445Y-156035501D01*
X219589820Y-155998005D01*
X219608292Y-155963446D01*
X219633153Y-155933153D01*
X219663446Y-155908292D01*
X219698005Y-155889820D01*
X219735501Y-155878445D01*
X219780638Y-155874000D01*
X220519362Y-155874000D01*
X220564499Y-155878445D01*
G37*
G36*
X218814499Y-155878445D02*
G01*
X218851995Y-155889820D01*
X218886554Y-155908292D01*
X218916847Y-155933153D01*
X218941708Y-155963446D01*
X218960180Y-155998005D01*
X218971555Y-156035501D01*
X218976000Y-156080638D01*
X218976000Y-156719362D01*
X218971555Y-156764499D01*
X218960180Y-156801995D01*
X218941708Y-156836554D01*
X218916847Y-156866847D01*
X218886554Y-156891708D01*
X218851995Y-156910180D01*
X218814499Y-156921555D01*
X218769362Y-156926000D01*
X218030638Y-156926000D01*
X217985501Y-156921555D01*
X217948005Y-156910180D01*
X217913446Y-156891708D01*
X217883153Y-156866847D01*
X217858292Y-156836554D01*
X217839820Y-156801995D01*
X217828445Y-156764499D01*
X217824000Y-156719362D01*
X217824000Y-156080638D01*
X217828445Y-156035501D01*
X217839820Y-155998005D01*
X217858292Y-155963446D01*
X217883153Y-155933153D01*
X217913446Y-155908292D01*
X217948005Y-155889820D01*
X217985501Y-155878445D01*
X218030638Y-155874000D01*
X218769362Y-155874000D01*
X218814499Y-155878445D01*
G37*
G36*
X216289499Y-155878445D02*
G01*
X216326995Y-155889820D01*
X216361554Y-155908292D01*
X216391847Y-155933153D01*
X216416708Y-155963446D01*
X216435180Y-155998005D01*
X216446555Y-156035501D01*
X216451000Y-156080638D01*
X216451000Y-156719362D01*
X216446555Y-156764499D01*
X216435180Y-156801995D01*
X216416708Y-156836554D01*
X216391847Y-156866847D01*
X216361554Y-156891708D01*
X216326995Y-156910180D01*
X216289499Y-156921555D01*
X216244362Y-156926000D01*
X215505638Y-156926000D01*
X215460501Y-156921555D01*
X215423005Y-156910180D01*
X215388446Y-156891708D01*
X215358153Y-156866847D01*
X215333292Y-156836554D01*
X215314820Y-156801995D01*
X215303445Y-156764499D01*
X215299000Y-156719362D01*
X215299000Y-156080638D01*
X215303445Y-156035501D01*
X215314820Y-155998005D01*
X215333292Y-155963446D01*
X215358153Y-155933153D01*
X215388446Y-155908292D01*
X215423005Y-155889820D01*
X215460501Y-155878445D01*
X215505638Y-155874000D01*
X216244362Y-155874000D01*
X216289499Y-155878445D01*
G37*
G36*
X201539499Y-155878445D02*
G01*
X201576995Y-155889820D01*
X201611554Y-155908292D01*
X201641847Y-155933153D01*
X201666708Y-155963446D01*
X201685180Y-155998005D01*
X201696555Y-156035501D01*
X201701000Y-156080638D01*
X201701000Y-156719362D01*
X201696555Y-156764499D01*
X201685180Y-156801995D01*
X201666708Y-156836554D01*
X201641847Y-156866847D01*
X201611554Y-156891708D01*
X201576995Y-156910180D01*
X201539499Y-156921555D01*
X201494362Y-156926000D01*
X200755638Y-156926000D01*
X200710501Y-156921555D01*
X200673005Y-156910180D01*
X200638446Y-156891708D01*
X200608153Y-156866847D01*
X200583292Y-156836554D01*
X200564820Y-156801995D01*
X200553445Y-156764499D01*
X200549000Y-156719362D01*
X200549000Y-156080638D01*
X200553445Y-156035501D01*
X200564820Y-155998005D01*
X200583292Y-155963446D01*
X200608153Y-155933153D01*
X200638446Y-155908292D01*
X200673005Y-155889820D01*
X200710501Y-155878445D01*
X200755638Y-155874000D01*
X201494362Y-155874000D01*
X201539499Y-155878445D01*
G37*
G36*
X203289499Y-155878445D02*
G01*
X203326995Y-155889820D01*
X203361554Y-155908292D01*
X203391847Y-155933153D01*
X203416708Y-155963446D01*
X203435180Y-155998005D01*
X203446555Y-156035501D01*
X203451000Y-156080638D01*
X203451000Y-156719362D01*
X203446555Y-156764499D01*
X203435180Y-156801995D01*
X203416708Y-156836554D01*
X203391847Y-156866847D01*
X203361554Y-156891708D01*
X203326995Y-156910180D01*
X203289499Y-156921555D01*
X203244362Y-156926000D01*
X202505638Y-156926000D01*
X202460501Y-156921555D01*
X202423005Y-156910180D01*
X202388446Y-156891708D01*
X202358153Y-156866847D01*
X202333292Y-156836554D01*
X202314820Y-156801995D01*
X202303445Y-156764499D01*
X202299000Y-156719362D01*
X202299000Y-156080638D01*
X202303445Y-156035501D01*
X202314820Y-155998005D01*
X202333292Y-155963446D01*
X202358153Y-155933153D01*
X202388446Y-155908292D01*
X202423005Y-155889820D01*
X202460501Y-155878445D01*
X202505638Y-155874000D01*
X203244362Y-155874000D01*
X203289499Y-155878445D01*
G37*
G36*
X216289499Y-154128445D02*
G01*
X216326995Y-154139820D01*
X216361554Y-154158292D01*
X216391847Y-154183153D01*
X216416708Y-154213446D01*
X216435180Y-154248005D01*
X216446555Y-154285501D01*
X216451000Y-154330638D01*
X216451000Y-154969362D01*
X216446555Y-155014499D01*
X216435180Y-155051995D01*
X216416708Y-155086554D01*
X216391847Y-155116847D01*
X216361554Y-155141708D01*
X216326995Y-155160180D01*
X216289499Y-155171555D01*
X216244362Y-155176000D01*
X215505638Y-155176000D01*
X215460501Y-155171555D01*
X215423005Y-155160180D01*
X215388446Y-155141708D01*
X215358153Y-155116847D01*
X215333292Y-155086554D01*
X215314820Y-155051995D01*
X215303445Y-155014499D01*
X215299000Y-154969362D01*
X215299000Y-154330638D01*
X215303445Y-154285501D01*
X215314820Y-154248005D01*
X215333292Y-154213446D01*
X215358153Y-154183153D01*
X215388446Y-154158292D01*
X215423005Y-154139820D01*
X215460501Y-154128445D01*
X215505638Y-154124000D01*
X216244362Y-154124000D01*
X216289499Y-154128445D01*
G37*
G36*
X211939499Y-154128445D02*
G01*
X211976995Y-154139820D01*
X212011554Y-154158292D01*
X212041847Y-154183153D01*
X212066708Y-154213446D01*
X212085180Y-154248005D01*
X212096555Y-154285501D01*
X212101000Y-154330638D01*
X212101000Y-154969362D01*
X212096555Y-155014499D01*
X212085180Y-155051995D01*
X212066708Y-155086554D01*
X212041847Y-155116847D01*
X212011554Y-155141708D01*
X211976995Y-155160180D01*
X211939499Y-155171555D01*
X211894362Y-155176000D01*
X211155638Y-155176000D01*
X211110501Y-155171555D01*
X211073005Y-155160180D01*
X211038446Y-155141708D01*
X211008153Y-155116847D01*
X210983292Y-155086554D01*
X210964820Y-155051995D01*
X210953445Y-155014499D01*
X210949000Y-154969362D01*
X210949000Y-154330638D01*
X210953445Y-154285501D01*
X210964820Y-154248005D01*
X210983292Y-154213446D01*
X211008153Y-154183153D01*
X211038446Y-154158292D01*
X211073005Y-154139820D01*
X211110501Y-154128445D01*
X211155638Y-154124000D01*
X211894362Y-154124000D01*
X211939499Y-154128445D01*
G37*
G36*
X214539499Y-154128445D02*
G01*
X214576995Y-154139820D01*
X214611554Y-154158292D01*
X214641847Y-154183153D01*
X214666708Y-154213446D01*
X214685180Y-154248005D01*
X214696555Y-154285501D01*
X214701000Y-154330638D01*
X214701000Y-154969362D01*
X214696555Y-155014499D01*
X214685180Y-155051995D01*
X214666708Y-155086554D01*
X214641847Y-155116847D01*
X214611554Y-155141708D01*
X214576995Y-155160180D01*
X214539499Y-155171555D01*
X214494362Y-155176000D01*
X213755638Y-155176000D01*
X213710501Y-155171555D01*
X213673005Y-155160180D01*
X213638446Y-155141708D01*
X213608153Y-155116847D01*
X213583292Y-155086554D01*
X213564820Y-155051995D01*
X213553445Y-155014499D01*
X213549000Y-154969362D01*
X213549000Y-154330638D01*
X213553445Y-154285501D01*
X213564820Y-154248005D01*
X213583292Y-154213446D01*
X213608153Y-154183153D01*
X213638446Y-154158292D01*
X213673005Y-154139820D01*
X213710501Y-154128445D01*
X213755638Y-154124000D01*
X214494362Y-154124000D01*
X214539499Y-154128445D01*
G37*
G36*
X210189499Y-154128445D02*
G01*
X210226995Y-154139820D01*
X210261554Y-154158292D01*
X210291847Y-154183153D01*
X210316708Y-154213446D01*
X210335180Y-154248005D01*
X210346555Y-154285501D01*
X210351000Y-154330638D01*
X210351000Y-154969362D01*
X210346555Y-155014499D01*
X210335180Y-155051995D01*
X210316708Y-155086554D01*
X210291847Y-155116847D01*
X210261554Y-155141708D01*
X210226995Y-155160180D01*
X210189499Y-155171555D01*
X210144362Y-155176000D01*
X209405638Y-155176000D01*
X209360501Y-155171555D01*
X209323005Y-155160180D01*
X209288446Y-155141708D01*
X209258153Y-155116847D01*
X209233292Y-155086554D01*
X209214820Y-155051995D01*
X209203445Y-155014499D01*
X209199000Y-154969362D01*
X209199000Y-154330638D01*
X209203445Y-154285501D01*
X209214820Y-154248005D01*
X209233292Y-154213446D01*
X209258153Y-154183153D01*
X209288446Y-154158292D01*
X209323005Y-154139820D01*
X209360501Y-154128445D01*
X209405638Y-154124000D01*
X210144362Y-154124000D01*
X210189499Y-154128445D01*
G37*
G36*
X224626719Y-151413520D02*
G01*
X224815880Y-151470901D01*
X224815883Y-151470902D01*
X224908333Y-151520318D01*
X224990212Y-151564083D01*
X225143015Y-151689485D01*
X225268417Y-151842288D01*
X225361599Y-152016619D01*
X225418980Y-152205780D01*
X225433500Y-152353206D01*
X225433500Y-152546793D01*
X225418980Y-152694219D01*
X225361599Y-152883380D01*
X225361598Y-152883383D01*
X225312182Y-152975833D01*
X225268417Y-153057712D01*
X225143015Y-153210515D01*
X224990212Y-153335917D01*
X224815881Y-153429099D01*
X224626720Y-153486480D01*
X224430000Y-153505855D01*
X224233281Y-153486480D01*
X224044120Y-153429099D01*
X223869788Y-153335917D01*
X223716985Y-153210515D01*
X223591583Y-153057712D01*
X223498401Y-152883381D01*
X223441020Y-152694220D01*
X223426500Y-152546794D01*
X223426500Y-152353207D01*
X223441020Y-152205781D01*
X223498401Y-152016620D01*
X223498402Y-152016617D01*
X223547818Y-151924167D01*
X223591583Y-151842288D01*
X223716985Y-151689485D01*
X223869788Y-151564083D01*
X224044119Y-151470901D01*
X224233280Y-151413520D01*
X224430000Y-151394145D01*
X224626719Y-151413520D01*
G37*
G36*
X222086719Y-151413520D02*
G01*
X222275880Y-151470901D01*
X222275883Y-151470902D01*
X222368333Y-151520318D01*
X222450212Y-151564083D01*
X222603015Y-151689485D01*
X222728417Y-151842288D01*
X222821599Y-152016619D01*
X222878980Y-152205780D01*
X222893500Y-152353206D01*
X222893500Y-152546793D01*
X222878980Y-152694219D01*
X222821599Y-152883380D01*
X222821598Y-152883383D01*
X222772182Y-152975833D01*
X222728417Y-153057712D01*
X222603015Y-153210515D01*
X222450212Y-153335917D01*
X222275881Y-153429099D01*
X222086720Y-153486480D01*
X221890000Y-153505855D01*
X221693281Y-153486480D01*
X221504120Y-153429099D01*
X221329788Y-153335917D01*
X221176985Y-153210515D01*
X221051583Y-153057712D01*
X220958401Y-152883381D01*
X220901020Y-152694220D01*
X220886500Y-152546794D01*
X220886500Y-152353207D01*
X220901020Y-152205781D01*
X220958401Y-152016620D01*
X220958402Y-152016617D01*
X221007818Y-151924167D01*
X221051583Y-151842288D01*
X221176985Y-151689485D01*
X221329788Y-151564083D01*
X221504119Y-151470901D01*
X221693280Y-151413520D01*
X221890000Y-151394145D01*
X222086719Y-151413520D01*
G37*
G36*
X220353500Y-153501000D02*
G01*
X218346500Y-153501000D01*
X218346500Y-151399000D01*
X220353500Y-151399000D01*
X220353500Y-153501000D01*
G37*
G36*
X222989499Y-148878445D02*
G01*
X223026995Y-148889820D01*
X223061554Y-148908292D01*
X223091847Y-148933153D01*
X223116708Y-148963446D01*
X223135180Y-148998005D01*
X223146555Y-149035501D01*
X223151000Y-149080638D01*
X223151000Y-149719362D01*
X223146555Y-149764499D01*
X223135180Y-149801995D01*
X223116708Y-149836554D01*
X223091847Y-149866847D01*
X223061554Y-149891708D01*
X223026995Y-149910180D01*
X222989499Y-149921555D01*
X222944362Y-149926000D01*
X222205638Y-149926000D01*
X222160501Y-149921555D01*
X222123005Y-149910180D01*
X222088446Y-149891708D01*
X222058153Y-149866847D01*
X222033292Y-149836554D01*
X222014820Y-149801995D01*
X222003445Y-149764499D01*
X221999000Y-149719362D01*
X221999000Y-149080638D01*
X222003445Y-149035501D01*
X222014820Y-148998005D01*
X222033292Y-148963446D01*
X222058153Y-148933153D01*
X222088446Y-148908292D01*
X222123005Y-148889820D01*
X222160501Y-148878445D01*
X222205638Y-148874000D01*
X222944362Y-148874000D01*
X222989499Y-148878445D01*
G37*
G36*
X224739499Y-148878445D02*
G01*
X224776995Y-148889820D01*
X224811554Y-148908292D01*
X224841847Y-148933153D01*
X224866708Y-148963446D01*
X224885180Y-148998005D01*
X224896555Y-149035501D01*
X224901000Y-149080638D01*
X224901000Y-149719362D01*
X224896555Y-149764499D01*
X224885180Y-149801995D01*
X224866708Y-149836554D01*
X224841847Y-149866847D01*
X224811554Y-149891708D01*
X224776995Y-149910180D01*
X224739499Y-149921555D01*
X224694362Y-149926000D01*
X223955638Y-149926000D01*
X223910501Y-149921555D01*
X223873005Y-149910180D01*
X223838446Y-149891708D01*
X223808153Y-149866847D01*
X223783292Y-149836554D01*
X223764820Y-149801995D01*
X223753445Y-149764499D01*
X223749000Y-149719362D01*
X223749000Y-149080638D01*
X223753445Y-149035501D01*
X223764820Y-148998005D01*
X223783292Y-148963446D01*
X223808153Y-148933153D01*
X223838446Y-148908292D01*
X223873005Y-148889820D01*
X223910501Y-148878445D01*
X223955638Y-148874000D01*
X224694362Y-148874000D01*
X224739499Y-148878445D01*
G37*
G36*
X220889499Y-148878445D02*
G01*
X220926995Y-148889820D01*
X220961554Y-148908292D01*
X220991847Y-148933153D01*
X221016708Y-148963446D01*
X221035180Y-148998005D01*
X221046555Y-149035501D01*
X221051000Y-149080638D01*
X221051000Y-149719362D01*
X221046555Y-149764499D01*
X221035180Y-149801995D01*
X221016708Y-149836554D01*
X220991847Y-149866847D01*
X220961554Y-149891708D01*
X220926995Y-149910180D01*
X220889499Y-149921555D01*
X220844362Y-149926000D01*
X220105638Y-149926000D01*
X220060501Y-149921555D01*
X220023005Y-149910180D01*
X219988446Y-149891708D01*
X219958153Y-149866847D01*
X219933292Y-149836554D01*
X219914820Y-149801995D01*
X219903445Y-149764499D01*
X219899000Y-149719362D01*
X219899000Y-149080638D01*
X219903445Y-149035501D01*
X219914820Y-148998005D01*
X219933292Y-148963446D01*
X219958153Y-148933153D01*
X219988446Y-148908292D01*
X220023005Y-148889820D01*
X220060501Y-148878445D01*
X220105638Y-148874000D01*
X220844362Y-148874000D01*
X220889499Y-148878445D01*
G37*
G36*
X219139499Y-148878445D02*
G01*
X219176995Y-148889820D01*
X219211554Y-148908292D01*
X219241847Y-148933153D01*
X219266708Y-148963446D01*
X219285180Y-148998005D01*
X219296555Y-149035501D01*
X219301000Y-149080638D01*
X219301000Y-149719362D01*
X219296555Y-149764499D01*
X219285180Y-149801995D01*
X219266708Y-149836554D01*
X219241847Y-149866847D01*
X219211554Y-149891708D01*
X219176995Y-149910180D01*
X219139499Y-149921555D01*
X219094362Y-149926000D01*
X218355638Y-149926000D01*
X218310501Y-149921555D01*
X218273005Y-149910180D01*
X218238446Y-149891708D01*
X218208153Y-149866847D01*
X218183292Y-149836554D01*
X218164820Y-149801995D01*
X218153445Y-149764499D01*
X218149000Y-149719362D01*
X218149000Y-149080638D01*
X218153445Y-149035501D01*
X218164820Y-148998005D01*
X218183292Y-148963446D01*
X218208153Y-148933153D01*
X218238446Y-148908292D01*
X218273005Y-148889820D01*
X218310501Y-148878445D01*
X218355638Y-148874000D01*
X219094362Y-148874000D01*
X219139499Y-148878445D01*
G37*
G36*
X220864499Y-145603445D02*
G01*
X220901995Y-145614820D01*
X220936554Y-145633292D01*
X220966847Y-145658153D01*
X220991708Y-145688446D01*
X221010180Y-145723005D01*
X221021555Y-145760501D01*
X221026000Y-145805638D01*
X221026000Y-146544362D01*
X221021555Y-146589499D01*
X221010180Y-146626995D01*
X220991708Y-146661554D01*
X220966847Y-146691847D01*
X220936554Y-146716708D01*
X220901995Y-146735180D01*
X220864499Y-146746555D01*
X220819362Y-146751000D01*
X220180638Y-146751000D01*
X220135501Y-146746555D01*
X220098005Y-146735180D01*
X220063446Y-146716708D01*
X220033153Y-146691847D01*
X220008292Y-146661554D01*
X219989820Y-146626995D01*
X219978445Y-146589499D01*
X219974000Y-146544362D01*
X219974000Y-145805638D01*
X219978445Y-145760501D01*
X219989820Y-145723005D01*
X220008292Y-145688446D01*
X220033153Y-145658153D01*
X220063446Y-145633292D01*
X220098005Y-145614820D01*
X220135501Y-145603445D01*
X220180638Y-145599000D01*
X220819362Y-145599000D01*
X220864499Y-145603445D01*
G37*
G36*
X222914499Y-145603445D02*
G01*
X222951995Y-145614820D01*
X222986554Y-145633292D01*
X223016847Y-145658153D01*
X223041708Y-145688446D01*
X223060180Y-145723005D01*
X223071555Y-145760501D01*
X223076000Y-145805638D01*
X223076000Y-146544362D01*
X223071555Y-146589499D01*
X223060180Y-146626995D01*
X223041708Y-146661554D01*
X223016847Y-146691847D01*
X222986554Y-146716708D01*
X222951995Y-146735180D01*
X222914499Y-146746555D01*
X222869362Y-146751000D01*
X222230638Y-146751000D01*
X222185501Y-146746555D01*
X222148005Y-146735180D01*
X222113446Y-146716708D01*
X222083153Y-146691847D01*
X222058292Y-146661554D01*
X222039820Y-146626995D01*
X222028445Y-146589499D01*
X222024000Y-146544362D01*
X222024000Y-145805638D01*
X222028445Y-145760501D01*
X222039820Y-145723005D01*
X222058292Y-145688446D01*
X222083153Y-145658153D01*
X222113446Y-145633292D01*
X222148005Y-145614820D01*
X222185501Y-145603445D01*
X222230638Y-145599000D01*
X222869362Y-145599000D01*
X222914499Y-145603445D01*
G37*
G36*
X198764499Y-145053445D02*
G01*
X198801995Y-145064820D01*
X198836554Y-145083292D01*
X198866847Y-145108153D01*
X198891708Y-145138446D01*
X198910180Y-145173005D01*
X198921555Y-145210501D01*
X198926000Y-145255638D01*
X198926000Y-145994362D01*
X198921555Y-146039499D01*
X198910180Y-146076995D01*
X198891708Y-146111554D01*
X198866847Y-146141847D01*
X198836554Y-146166708D01*
X198801995Y-146185180D01*
X198764499Y-146196555D01*
X198719362Y-146201000D01*
X198080638Y-146201000D01*
X198035501Y-146196555D01*
X197998005Y-146185180D01*
X197963446Y-146166708D01*
X197933153Y-146141847D01*
X197908292Y-146111554D01*
X197889820Y-146076995D01*
X197878445Y-146039499D01*
X197874000Y-145994362D01*
X197874000Y-145255638D01*
X197878445Y-145210501D01*
X197889820Y-145173005D01*
X197908292Y-145138446D01*
X197933153Y-145108153D01*
X197963446Y-145083292D01*
X197998005Y-145064820D01*
X198035501Y-145053445D01*
X198080638Y-145049000D01*
X198719362Y-145049000D01*
X198764499Y-145053445D01*
G37*
G36*
X201164499Y-145053445D02*
G01*
X201201995Y-145064820D01*
X201236554Y-145083292D01*
X201266847Y-145108153D01*
X201291708Y-145138446D01*
X201310180Y-145173005D01*
X201321555Y-145210501D01*
X201326000Y-145255638D01*
X201326000Y-145994362D01*
X201321555Y-146039499D01*
X201310180Y-146076995D01*
X201291708Y-146111554D01*
X201266847Y-146141847D01*
X201236554Y-146166708D01*
X201201995Y-146185180D01*
X201164499Y-146196555D01*
X201119362Y-146201000D01*
X200480638Y-146201000D01*
X200435501Y-146196555D01*
X200398005Y-146185180D01*
X200363446Y-146166708D01*
X200333153Y-146141847D01*
X200308292Y-146111554D01*
X200289820Y-146076995D01*
X200278445Y-146039499D01*
X200274000Y-145994362D01*
X200274000Y-145255638D01*
X200278445Y-145210501D01*
X200289820Y-145173005D01*
X200308292Y-145138446D01*
X200333153Y-145108153D01*
X200363446Y-145083292D01*
X200398005Y-145064820D01*
X200435501Y-145053445D01*
X200480638Y-145049000D01*
X201119362Y-145049000D01*
X201164499Y-145053445D01*
G37*
G36*
X222914499Y-143853445D02*
G01*
X222951995Y-143864820D01*
X222986554Y-143883292D01*
X223016847Y-143908153D01*
X223041708Y-143938446D01*
X223060180Y-143973005D01*
X223071555Y-144010501D01*
X223076000Y-144055638D01*
X223076000Y-144794362D01*
X223071555Y-144839499D01*
X223060180Y-144876995D01*
X223041708Y-144911554D01*
X223016847Y-144941847D01*
X222986554Y-144966708D01*
X222951995Y-144985180D01*
X222914499Y-144996555D01*
X222869362Y-145001000D01*
X222230638Y-145001000D01*
X222185501Y-144996555D01*
X222148005Y-144985180D01*
X222113446Y-144966708D01*
X222083153Y-144941847D01*
X222058292Y-144911554D01*
X222039820Y-144876995D01*
X222028445Y-144839499D01*
X222024000Y-144794362D01*
X222024000Y-144055638D01*
X222028445Y-144010501D01*
X222039820Y-143973005D01*
X222058292Y-143938446D01*
X222083153Y-143908153D01*
X222113446Y-143883292D01*
X222148005Y-143864820D01*
X222185501Y-143853445D01*
X222230638Y-143849000D01*
X222869362Y-143849000D01*
X222914499Y-143853445D01*
G37*
G36*
X220864499Y-143853445D02*
G01*
X220901995Y-143864820D01*
X220936554Y-143883292D01*
X220966847Y-143908153D01*
X220991708Y-143938446D01*
X221010180Y-143973005D01*
X221021555Y-144010501D01*
X221026000Y-144055638D01*
X221026000Y-144794362D01*
X221021555Y-144839499D01*
X221010180Y-144876995D01*
X220991708Y-144911554D01*
X220966847Y-144941847D01*
X220936554Y-144966708D01*
X220901995Y-144985180D01*
X220864499Y-144996555D01*
X220819362Y-145001000D01*
X220180638Y-145001000D01*
X220135501Y-144996555D01*
X220098005Y-144985180D01*
X220063446Y-144966708D01*
X220033153Y-144941847D01*
X220008292Y-144911554D01*
X219989820Y-144876995D01*
X219978445Y-144839499D01*
X219974000Y-144794362D01*
X219974000Y-144055638D01*
X219978445Y-144010501D01*
X219989820Y-143973005D01*
X220008292Y-143938446D01*
X220033153Y-143908153D01*
X220063446Y-143883292D01*
X220098005Y-143864820D01*
X220135501Y-143853445D01*
X220180638Y-143849000D01*
X220819362Y-143849000D01*
X220864499Y-143853445D01*
G37*
G36*
X209814499Y-143803445D02*
G01*
X209851995Y-143814820D01*
X209886554Y-143833292D01*
X209916847Y-143858153D01*
X209941708Y-143888446D01*
X209960180Y-143923005D01*
X209971555Y-143960501D01*
X209976000Y-144005638D01*
X209976000Y-144744362D01*
X209971555Y-144789499D01*
X209960180Y-144826995D01*
X209941708Y-144861554D01*
X209916847Y-144891847D01*
X209886554Y-144916708D01*
X209851995Y-144935180D01*
X209814499Y-144946555D01*
X209769362Y-144951000D01*
X209130638Y-144951000D01*
X209085501Y-144946555D01*
X209048005Y-144935180D01*
X209013446Y-144916708D01*
X208983153Y-144891847D01*
X208958292Y-144861554D01*
X208939820Y-144826995D01*
X208928445Y-144789499D01*
X208924000Y-144744362D01*
X208924000Y-144005638D01*
X208928445Y-143960501D01*
X208939820Y-143923005D01*
X208958292Y-143888446D01*
X208983153Y-143858153D01*
X209013446Y-143833292D01*
X209048005Y-143814820D01*
X209085501Y-143803445D01*
X209130638Y-143799000D01*
X209769362Y-143799000D01*
X209814499Y-143803445D01*
G37*
G36*
X212314499Y-143803445D02*
G01*
X212351995Y-143814820D01*
X212386554Y-143833292D01*
X212416847Y-143858153D01*
X212441708Y-143888446D01*
X212460180Y-143923005D01*
X212471555Y-143960501D01*
X212476000Y-144005638D01*
X212476000Y-144744362D01*
X212471555Y-144789499D01*
X212460180Y-144826995D01*
X212441708Y-144861554D01*
X212416847Y-144891847D01*
X212386554Y-144916708D01*
X212351995Y-144935180D01*
X212314499Y-144946555D01*
X212269362Y-144951000D01*
X211630638Y-144951000D01*
X211585501Y-144946555D01*
X211548005Y-144935180D01*
X211513446Y-144916708D01*
X211483153Y-144891847D01*
X211458292Y-144861554D01*
X211439820Y-144826995D01*
X211428445Y-144789499D01*
X211424000Y-144744362D01*
X211424000Y-144005638D01*
X211428445Y-143960501D01*
X211439820Y-143923005D01*
X211458292Y-143888446D01*
X211483153Y-143858153D01*
X211513446Y-143833292D01*
X211548005Y-143814820D01*
X211585501Y-143803445D01*
X211630638Y-143799000D01*
X212269362Y-143799000D01*
X212314499Y-143803445D01*
G37*
G36*
X216914499Y-143803445D02*
G01*
X216951995Y-143814820D01*
X216986554Y-143833292D01*
X217016847Y-143858153D01*
X217041708Y-143888446D01*
X217060180Y-143923005D01*
X217071555Y-143960501D01*
X217076000Y-144005638D01*
X217076000Y-144744362D01*
X217071555Y-144789499D01*
X217060180Y-144826995D01*
X217041708Y-144861554D01*
X217016847Y-144891847D01*
X216986554Y-144916708D01*
X216951995Y-144935180D01*
X216914499Y-144946555D01*
X216869362Y-144951000D01*
X216230638Y-144951000D01*
X216185501Y-144946555D01*
X216148005Y-144935180D01*
X216113446Y-144916708D01*
X216083153Y-144891847D01*
X216058292Y-144861554D01*
X216039820Y-144826995D01*
X216028445Y-144789499D01*
X216024000Y-144744362D01*
X216024000Y-144005638D01*
X216028445Y-143960501D01*
X216039820Y-143923005D01*
X216058292Y-143888446D01*
X216083153Y-143858153D01*
X216113446Y-143833292D01*
X216148005Y-143814820D01*
X216185501Y-143803445D01*
X216230638Y-143799000D01*
X216869362Y-143799000D01*
X216914499Y-143803445D01*
G37*
G36*
X214764499Y-143803445D02*
G01*
X214801995Y-143814820D01*
X214836554Y-143833292D01*
X214866847Y-143858153D01*
X214891708Y-143888446D01*
X214910180Y-143923005D01*
X214921555Y-143960501D01*
X214926000Y-144005638D01*
X214926000Y-144744362D01*
X214921555Y-144789499D01*
X214910180Y-144826995D01*
X214891708Y-144861554D01*
X214866847Y-144891847D01*
X214836554Y-144916708D01*
X214801995Y-144935180D01*
X214764499Y-144946555D01*
X214719362Y-144951000D01*
X214080638Y-144951000D01*
X214035501Y-144946555D01*
X213998005Y-144935180D01*
X213963446Y-144916708D01*
X213933153Y-144891847D01*
X213908292Y-144861554D01*
X213889820Y-144826995D01*
X213878445Y-144789499D01*
X213874000Y-144744362D01*
X213874000Y-144005638D01*
X213878445Y-143960501D01*
X213889820Y-143923005D01*
X213908292Y-143888446D01*
X213933153Y-143858153D01*
X213963446Y-143833292D01*
X213998005Y-143814820D01*
X214035501Y-143803445D01*
X214080638Y-143799000D01*
X214719362Y-143799000D01*
X214764499Y-143803445D01*
G37*
G36*
X207614499Y-143803445D02*
G01*
X207651995Y-143814820D01*
X207686554Y-143833292D01*
X207716847Y-143858153D01*
X207741708Y-143888446D01*
X207760180Y-143923005D01*
X207771555Y-143960501D01*
X207776000Y-144005638D01*
X207776000Y-144744362D01*
X207771555Y-144789499D01*
X207760180Y-144826995D01*
X207741708Y-144861554D01*
X207716847Y-144891847D01*
X207686554Y-144916708D01*
X207651995Y-144935180D01*
X207614499Y-144946555D01*
X207569362Y-144951000D01*
X206930638Y-144951000D01*
X206885501Y-144946555D01*
X206848005Y-144935180D01*
X206813446Y-144916708D01*
X206783153Y-144891847D01*
X206758292Y-144861554D01*
X206739820Y-144826995D01*
X206728445Y-144789499D01*
X206724000Y-144744362D01*
X206724000Y-144005638D01*
X206728445Y-143960501D01*
X206739820Y-143923005D01*
X206758292Y-143888446D01*
X206783153Y-143858153D01*
X206813446Y-143833292D01*
X206848005Y-143814820D01*
X206885501Y-143803445D01*
X206930638Y-143799000D01*
X207569362Y-143799000D01*
X207614499Y-143803445D01*
G37*
G36*
X201164499Y-143303445D02*
G01*
X201201995Y-143314820D01*
X201236554Y-143333292D01*
X201266847Y-143358153D01*
X201291708Y-143388446D01*
X201310180Y-143423005D01*
X201321555Y-143460501D01*
X201326000Y-143505638D01*
X201326000Y-144244362D01*
X201321555Y-144289499D01*
X201310180Y-144326995D01*
X201291708Y-144361554D01*
X201266847Y-144391847D01*
X201236554Y-144416708D01*
X201201995Y-144435180D01*
X201164499Y-144446555D01*
X201119362Y-144451000D01*
X200480638Y-144451000D01*
X200435501Y-144446555D01*
X200398005Y-144435180D01*
X200363446Y-144416708D01*
X200333153Y-144391847D01*
X200308292Y-144361554D01*
X200289820Y-144326995D01*
X200278445Y-144289499D01*
X200274000Y-144244362D01*
X200274000Y-143505638D01*
X200278445Y-143460501D01*
X200289820Y-143423005D01*
X200308292Y-143388446D01*
X200333153Y-143358153D01*
X200363446Y-143333292D01*
X200398005Y-143314820D01*
X200435501Y-143303445D01*
X200480638Y-143299000D01*
X201119362Y-143299000D01*
X201164499Y-143303445D01*
G37*
G36*
X198764499Y-143303445D02*
G01*
X198801995Y-143314820D01*
X198836554Y-143333292D01*
X198866847Y-143358153D01*
X198891708Y-143388446D01*
X198910180Y-143423005D01*
X198921555Y-143460501D01*
X198926000Y-143505638D01*
X198926000Y-144244362D01*
X198921555Y-144289499D01*
X198910180Y-144326995D01*
X198891708Y-144361554D01*
X198866847Y-144391847D01*
X198836554Y-144416708D01*
X198801995Y-144435180D01*
X198764499Y-144446555D01*
X198719362Y-144451000D01*
X198080638Y-144451000D01*
X198035501Y-144446555D01*
X197998005Y-144435180D01*
X197963446Y-144416708D01*
X197933153Y-144391847D01*
X197908292Y-144361554D01*
X197889820Y-144326995D01*
X197878445Y-144289499D01*
X197874000Y-144244362D01*
X197874000Y-143505638D01*
X197878445Y-143460501D01*
X197889820Y-143423005D01*
X197908292Y-143388446D01*
X197933153Y-143358153D01*
X197963446Y-143333292D01*
X197998005Y-143314820D01*
X198035501Y-143303445D01*
X198080638Y-143299000D01*
X198719362Y-143299000D01*
X198764499Y-143303445D01*
G37*
G36*
X209814499Y-142053445D02*
G01*
X209851995Y-142064820D01*
X209886554Y-142083292D01*
X209916847Y-142108153D01*
X209941708Y-142138446D01*
X209960180Y-142173005D01*
X209971555Y-142210501D01*
X209976000Y-142255638D01*
X209976000Y-142994362D01*
X209971555Y-143039499D01*
X209960180Y-143076995D01*
X209941708Y-143111554D01*
X209916847Y-143141847D01*
X209886554Y-143166708D01*
X209851995Y-143185180D01*
X209814499Y-143196555D01*
X209769362Y-143201000D01*
X209130638Y-143201000D01*
X209085501Y-143196555D01*
X209048005Y-143185180D01*
X209013446Y-143166708D01*
X208983153Y-143141847D01*
X208958292Y-143111554D01*
X208939820Y-143076995D01*
X208928445Y-143039499D01*
X208924000Y-142994362D01*
X208924000Y-142255638D01*
X208928445Y-142210501D01*
X208939820Y-142173005D01*
X208958292Y-142138446D01*
X208983153Y-142108153D01*
X209013446Y-142083292D01*
X209048005Y-142064820D01*
X209085501Y-142053445D01*
X209130638Y-142049000D01*
X209769362Y-142049000D01*
X209814499Y-142053445D01*
G37*
G36*
X212314499Y-142053445D02*
G01*
X212351995Y-142064820D01*
X212386554Y-142083292D01*
X212416847Y-142108153D01*
X212441708Y-142138446D01*
X212460180Y-142173005D01*
X212471555Y-142210501D01*
X212476000Y-142255638D01*
X212476000Y-142994362D01*
X212471555Y-143039499D01*
X212460180Y-143076995D01*
X212441708Y-143111554D01*
X212416847Y-143141847D01*
X212386554Y-143166708D01*
X212351995Y-143185180D01*
X212314499Y-143196555D01*
X212269362Y-143201000D01*
X211630638Y-143201000D01*
X211585501Y-143196555D01*
X211548005Y-143185180D01*
X211513446Y-143166708D01*
X211483153Y-143141847D01*
X211458292Y-143111554D01*
X211439820Y-143076995D01*
X211428445Y-143039499D01*
X211424000Y-142994362D01*
X211424000Y-142255638D01*
X211428445Y-142210501D01*
X211439820Y-142173005D01*
X211458292Y-142138446D01*
X211483153Y-142108153D01*
X211513446Y-142083292D01*
X211548005Y-142064820D01*
X211585501Y-142053445D01*
X211630638Y-142049000D01*
X212269362Y-142049000D01*
X212314499Y-142053445D01*
G37*
G36*
X214764499Y-142053445D02*
G01*
X214801995Y-142064820D01*
X214836554Y-142083292D01*
X214866847Y-142108153D01*
X214891708Y-142138446D01*
X214910180Y-142173005D01*
X214921555Y-142210501D01*
X214926000Y-142255638D01*
X214926000Y-142994362D01*
X214921555Y-143039499D01*
X214910180Y-143076995D01*
X214891708Y-143111554D01*
X214866847Y-143141847D01*
X214836554Y-143166708D01*
X214801995Y-143185180D01*
X214764499Y-143196555D01*
X214719362Y-143201000D01*
X214080638Y-143201000D01*
X214035501Y-143196555D01*
X213998005Y-143185180D01*
X213963446Y-143166708D01*
X213933153Y-143141847D01*
X213908292Y-143111554D01*
X213889820Y-143076995D01*
X213878445Y-143039499D01*
X213874000Y-142994362D01*
X213874000Y-142255638D01*
X213878445Y-142210501D01*
X213889820Y-142173005D01*
X213908292Y-142138446D01*
X213933153Y-142108153D01*
X213963446Y-142083292D01*
X213998005Y-142064820D01*
X214035501Y-142053445D01*
X214080638Y-142049000D01*
X214719362Y-142049000D01*
X214764499Y-142053445D01*
G37*
G36*
X216914499Y-142053445D02*
G01*
X216951995Y-142064820D01*
X216986554Y-142083292D01*
X217016847Y-142108153D01*
X217041708Y-142138446D01*
X217060180Y-142173005D01*
X217071555Y-142210501D01*
X217076000Y-142255638D01*
X217076000Y-142994362D01*
X217071555Y-143039499D01*
X217060180Y-143076995D01*
X217041708Y-143111554D01*
X217016847Y-143141847D01*
X216986554Y-143166708D01*
X216951995Y-143185180D01*
X216914499Y-143196555D01*
X216869362Y-143201000D01*
X216230638Y-143201000D01*
X216185501Y-143196555D01*
X216148005Y-143185180D01*
X216113446Y-143166708D01*
X216083153Y-143141847D01*
X216058292Y-143111554D01*
X216039820Y-143076995D01*
X216028445Y-143039499D01*
X216024000Y-142994362D01*
X216024000Y-142255638D01*
X216028445Y-142210501D01*
X216039820Y-142173005D01*
X216058292Y-142138446D01*
X216083153Y-142108153D01*
X216113446Y-142083292D01*
X216148005Y-142064820D01*
X216185501Y-142053445D01*
X216230638Y-142049000D01*
X216869362Y-142049000D01*
X216914499Y-142053445D01*
G37*
G36*
X207614499Y-142053445D02*
G01*
X207651995Y-142064820D01*
X207686554Y-142083292D01*
X207716847Y-142108153D01*
X207741708Y-142138446D01*
X207760180Y-142173005D01*
X207771555Y-142210501D01*
X207776000Y-142255638D01*
X207776000Y-142994362D01*
X207771555Y-143039499D01*
X207760180Y-143076995D01*
X207741708Y-143111554D01*
X207716847Y-143141847D01*
X207686554Y-143166708D01*
X207651995Y-143185180D01*
X207614499Y-143196555D01*
X207569362Y-143201000D01*
X206930638Y-143201000D01*
X206885501Y-143196555D01*
X206848005Y-143185180D01*
X206813446Y-143166708D01*
X206783153Y-143141847D01*
X206758292Y-143111554D01*
X206739820Y-143076995D01*
X206728445Y-143039499D01*
X206724000Y-142994362D01*
X206724000Y-142255638D01*
X206728445Y-142210501D01*
X206739820Y-142173005D01*
X206758292Y-142138446D01*
X206783153Y-142108153D01*
X206813446Y-142083292D01*
X206848005Y-142064820D01*
X206885501Y-142053445D01*
X206930638Y-142049000D01*
X207569362Y-142049000D01*
X207614499Y-142053445D01*
G37*
G36*
X219139499Y-142028445D02*
G01*
X219176995Y-142039820D01*
X219211554Y-142058292D01*
X219241847Y-142083153D01*
X219266708Y-142113446D01*
X219285180Y-142148005D01*
X219296555Y-142185501D01*
X219301000Y-142230638D01*
X219301000Y-142869362D01*
X219296555Y-142914499D01*
X219285180Y-142951995D01*
X219266708Y-142986554D01*
X219241847Y-143016847D01*
X219211554Y-143041708D01*
X219176995Y-143060180D01*
X219139499Y-143071555D01*
X219094362Y-143076000D01*
X218355638Y-143076000D01*
X218310501Y-143071555D01*
X218273005Y-143060180D01*
X218238446Y-143041708D01*
X218208153Y-143016847D01*
X218183292Y-142986554D01*
X218164820Y-142951995D01*
X218153445Y-142914499D01*
X218149000Y-142869362D01*
X218149000Y-142230638D01*
X218153445Y-142185501D01*
X218164820Y-142148005D01*
X218183292Y-142113446D01*
X218208153Y-142083153D01*
X218238446Y-142058292D01*
X218273005Y-142039820D01*
X218310501Y-142028445D01*
X218355638Y-142024000D01*
X219094362Y-142024000D01*
X219139499Y-142028445D01*
G37*
G36*
X220889499Y-142028445D02*
G01*
X220926995Y-142039820D01*
X220961554Y-142058292D01*
X220991847Y-142083153D01*
X221016708Y-142113446D01*
X221035180Y-142148005D01*
X221046555Y-142185501D01*
X221051000Y-142230638D01*
X221051000Y-142869362D01*
X221046555Y-142914499D01*
X221035180Y-142951995D01*
X221016708Y-142986554D01*
X220991847Y-143016847D01*
X220961554Y-143041708D01*
X220926995Y-143060180D01*
X220889499Y-143071555D01*
X220844362Y-143076000D01*
X220105638Y-143076000D01*
X220060501Y-143071555D01*
X220023005Y-143060180D01*
X219988446Y-143041708D01*
X219958153Y-143016847D01*
X219933292Y-142986554D01*
X219914820Y-142951995D01*
X219903445Y-142914499D01*
X219899000Y-142869362D01*
X219899000Y-142230638D01*
X219903445Y-142185501D01*
X219914820Y-142148005D01*
X219933292Y-142113446D01*
X219958153Y-142083153D01*
X219988446Y-142058292D01*
X220023005Y-142039820D01*
X220060501Y-142028445D01*
X220105638Y-142024000D01*
X220844362Y-142024000D01*
X220889499Y-142028445D01*
G37*
G36*
X224739499Y-142028445D02*
G01*
X224776995Y-142039820D01*
X224811554Y-142058292D01*
X224841847Y-142083153D01*
X224866708Y-142113446D01*
X224885180Y-142148005D01*
X224896555Y-142185501D01*
X224901000Y-142230638D01*
X224901000Y-142869362D01*
X224896555Y-142914499D01*
X224885180Y-142951995D01*
X224866708Y-142986554D01*
X224841847Y-143016847D01*
X224811554Y-143041708D01*
X224776995Y-143060180D01*
X224739499Y-143071555D01*
X224694362Y-143076000D01*
X223955638Y-143076000D01*
X223910501Y-143071555D01*
X223873005Y-143060180D01*
X223838446Y-143041708D01*
X223808153Y-143016847D01*
X223783292Y-142986554D01*
X223764820Y-142951995D01*
X223753445Y-142914499D01*
X223749000Y-142869362D01*
X223749000Y-142230638D01*
X223753445Y-142185501D01*
X223764820Y-142148005D01*
X223783292Y-142113446D01*
X223808153Y-142083153D01*
X223838446Y-142058292D01*
X223873005Y-142039820D01*
X223910501Y-142028445D01*
X223955638Y-142024000D01*
X224694362Y-142024000D01*
X224739499Y-142028445D01*
G37*
G36*
X222989499Y-142028445D02*
G01*
X223026995Y-142039820D01*
X223061554Y-142058292D01*
X223091847Y-142083153D01*
X223116708Y-142113446D01*
X223135180Y-142148005D01*
X223146555Y-142185501D01*
X223151000Y-142230638D01*
X223151000Y-142869362D01*
X223146555Y-142914499D01*
X223135180Y-142951995D01*
X223116708Y-142986554D01*
X223091847Y-143016847D01*
X223061554Y-143041708D01*
X223026995Y-143060180D01*
X222989499Y-143071555D01*
X222944362Y-143076000D01*
X222205638Y-143076000D01*
X222160501Y-143071555D01*
X222123005Y-143060180D01*
X222088446Y-143041708D01*
X222058153Y-143016847D01*
X222033292Y-142986554D01*
X222014820Y-142951995D01*
X222003445Y-142914499D01*
X221999000Y-142869362D01*
X221999000Y-142230638D01*
X222003445Y-142185501D01*
X222014820Y-142148005D01*
X222033292Y-142113446D01*
X222058153Y-142083153D01*
X222088446Y-142058292D01*
X222123005Y-142039820D01*
X222160501Y-142028445D01*
X222205638Y-142024000D01*
X222944362Y-142024000D01*
X222989499Y-142028445D01*
G37*
G36*
X203614499Y-140503445D02*
G01*
X203651995Y-140514820D01*
X203686554Y-140533292D01*
X203716847Y-140558153D01*
X203741708Y-140588446D01*
X203760180Y-140623005D01*
X203771555Y-140660501D01*
X203776000Y-140705638D01*
X203776000Y-141444362D01*
X203771555Y-141489499D01*
X203760180Y-141526995D01*
X203741708Y-141561554D01*
X203716847Y-141591847D01*
X203686554Y-141616708D01*
X203651995Y-141635180D01*
X203614499Y-141646555D01*
X203569362Y-141651000D01*
X202930638Y-141651000D01*
X202885501Y-141646555D01*
X202848005Y-141635180D01*
X202813446Y-141616708D01*
X202783153Y-141591847D01*
X202758292Y-141561554D01*
X202739820Y-141526995D01*
X202728445Y-141489499D01*
X202724000Y-141444362D01*
X202724000Y-140705638D01*
X202728445Y-140660501D01*
X202739820Y-140623005D01*
X202758292Y-140588446D01*
X202783153Y-140558153D01*
X202813446Y-140533292D01*
X202848005Y-140514820D01*
X202885501Y-140503445D01*
X202930638Y-140499000D01*
X203569362Y-140499000D01*
X203614499Y-140503445D01*
G37*
G36*
X198610319Y-138783292D02*
G01*
X198762812Y-138813624D01*
X198926784Y-138881544D01*
X199074354Y-138980147D01*
X199199853Y-139105646D01*
X199298456Y-139253216D01*
X199366376Y-139417188D01*
X199401000Y-139591259D01*
X199401000Y-139768741D01*
X199366376Y-139942812D01*
X199298456Y-140106784D01*
X199199853Y-140254354D01*
X199074354Y-140379853D01*
X198926784Y-140478456D01*
X198762812Y-140546376D01*
X198613722Y-140576031D01*
X198588742Y-140581000D01*
X198411258Y-140581000D01*
X198386278Y-140576031D01*
X198237188Y-140546376D01*
X198073216Y-140478456D01*
X197925646Y-140379853D01*
X197800147Y-140254354D01*
X197701544Y-140106784D01*
X197633624Y-139942812D01*
X197599000Y-139768741D01*
X197599000Y-139591259D01*
X197633624Y-139417188D01*
X197701544Y-139253216D01*
X197800147Y-139105646D01*
X197925646Y-138980147D01*
X198073216Y-138881544D01*
X198237188Y-138813624D01*
X198389681Y-138783292D01*
X198411258Y-138779000D01*
X198588742Y-138779000D01*
X198610319Y-138783292D01*
G37*
G36*
X201150319Y-138783292D02*
G01*
X201302812Y-138813624D01*
X201466784Y-138881544D01*
X201614354Y-138980147D01*
X201739853Y-139105646D01*
X201838456Y-139253216D01*
X201906376Y-139417188D01*
X201941000Y-139591259D01*
X201941000Y-139768741D01*
X201906376Y-139942812D01*
X201838456Y-140106784D01*
X201739853Y-140254354D01*
X201614354Y-140379853D01*
X201466784Y-140478456D01*
X201302812Y-140546376D01*
X201153722Y-140576031D01*
X201128742Y-140581000D01*
X200951258Y-140581000D01*
X200926278Y-140576031D01*
X200777188Y-140546376D01*
X200613216Y-140478456D01*
X200465646Y-140379853D01*
X200340147Y-140254354D01*
X200241544Y-140106784D01*
X200173624Y-139942812D01*
X200139000Y-139768741D01*
X200139000Y-139591259D01*
X200173624Y-139417188D01*
X200241544Y-139253216D01*
X200340147Y-139105646D01*
X200465646Y-138980147D01*
X200613216Y-138881544D01*
X200777188Y-138813624D01*
X200929681Y-138783292D01*
X200951258Y-138779000D01*
X201128742Y-138779000D01*
X201150319Y-138783292D01*
G37*
G36*
X203614499Y-138753445D02*
G01*
X203651995Y-138764820D01*
X203686554Y-138783292D01*
X203716847Y-138808153D01*
X203741708Y-138838446D01*
X203760180Y-138873005D01*
X203771555Y-138910501D01*
X203776000Y-138955638D01*
X203776000Y-139694362D01*
X203771555Y-139739499D01*
X203760180Y-139776995D01*
X203741708Y-139811554D01*
X203716847Y-139841847D01*
X203686554Y-139866708D01*
X203651995Y-139885180D01*
X203614499Y-139896555D01*
X203569362Y-139901000D01*
X202930638Y-139901000D01*
X202885501Y-139896555D01*
X202848005Y-139885180D01*
X202813446Y-139866708D01*
X202783153Y-139841847D01*
X202758292Y-139811554D01*
X202739820Y-139776995D01*
X202728445Y-139739499D01*
X202724000Y-139694362D01*
X202724000Y-138955638D01*
X202728445Y-138910501D01*
X202739820Y-138873005D01*
X202758292Y-138838446D01*
X202783153Y-138808153D01*
X202813446Y-138783292D01*
X202848005Y-138764820D01*
X202885501Y-138753445D01*
X202930638Y-138749000D01*
X203569362Y-138749000D01*
X203614499Y-138753445D01*
G37*
G36*
X201153512Y-136243927D02*
G01*
X201302812Y-136273624D01*
X201466784Y-136341544D01*
X201614354Y-136440147D01*
X201739853Y-136565646D01*
X201838456Y-136713216D01*
X201906376Y-136877188D01*
X201941000Y-137051259D01*
X201941000Y-137228741D01*
X201906376Y-137402812D01*
X201838456Y-137566784D01*
X201739853Y-137714354D01*
X201614354Y-137839853D01*
X201466784Y-137938456D01*
X201302812Y-138006376D01*
X201153512Y-138036073D01*
X201128742Y-138041000D01*
X200951258Y-138041000D01*
X200926488Y-138036073D01*
X200777188Y-138006376D01*
X200613216Y-137938456D01*
X200465646Y-137839853D01*
X200340147Y-137714354D01*
X200241544Y-137566784D01*
X200173624Y-137402812D01*
X200139000Y-137228741D01*
X200139000Y-137051259D01*
X200173624Y-136877188D01*
X200241544Y-136713216D01*
X200340147Y-136565646D01*
X200465646Y-136440147D01*
X200613216Y-136341544D01*
X200777188Y-136273624D01*
X200926488Y-136243927D01*
X200951258Y-136239000D01*
X201128742Y-136239000D01*
X201153512Y-136243927D01*
G37*
G36*
X198613512Y-136243927D02*
G01*
X198762812Y-136273624D01*
X198926784Y-136341544D01*
X199074354Y-136440147D01*
X199199853Y-136565646D01*
X199298456Y-136713216D01*
X199366376Y-136877188D01*
X199401000Y-137051259D01*
X199401000Y-137228741D01*
X199366376Y-137402812D01*
X199298456Y-137566784D01*
X199199853Y-137714354D01*
X199074354Y-137839853D01*
X198926784Y-137938456D01*
X198762812Y-138006376D01*
X198613512Y-138036073D01*
X198588742Y-138041000D01*
X198411258Y-138041000D01*
X198386488Y-138036073D01*
X198237188Y-138006376D01*
X198073216Y-137938456D01*
X197925646Y-137839853D01*
X197800147Y-137714354D01*
X197701544Y-137566784D01*
X197633624Y-137402812D01*
X197599000Y-137228741D01*
X197599000Y-137051259D01*
X197633624Y-136877188D01*
X197701544Y-136713216D01*
X197800147Y-136565646D01*
X197925646Y-136440147D01*
X198073216Y-136341544D01*
X198237188Y-136273624D01*
X198386488Y-136243927D01*
X198411258Y-136239000D01*
X198588742Y-136239000D01*
X198613512Y-136243927D01*
G37*
G36*
X214664499Y-136628445D02*
G01*
X214701995Y-136639820D01*
X214736554Y-136658292D01*
X214766847Y-136683153D01*
X214791708Y-136713446D01*
X214810180Y-136748005D01*
X214821555Y-136785501D01*
X214826000Y-136830638D01*
X214826000Y-137569362D01*
X214821555Y-137614499D01*
X214810180Y-137651995D01*
X214791708Y-137686554D01*
X214766847Y-137716847D01*
X214736554Y-137741708D01*
X214701995Y-137760180D01*
X214664499Y-137771555D01*
X214619362Y-137776000D01*
X213980638Y-137776000D01*
X213935501Y-137771555D01*
X213898005Y-137760180D01*
X213863446Y-137741708D01*
X213833153Y-137716847D01*
X213808292Y-137686554D01*
X213789820Y-137651995D01*
X213778445Y-137614499D01*
X213774000Y-137569362D01*
X213774000Y-136830638D01*
X213778445Y-136785501D01*
X213789820Y-136748005D01*
X213808292Y-136713446D01*
X213833153Y-136683153D01*
X213863446Y-136658292D01*
X213898005Y-136639820D01*
X213935501Y-136628445D01*
X213980638Y-136624000D01*
X214619362Y-136624000D01*
X214664499Y-136628445D01*
G37*
G36*
X205814499Y-136603445D02*
G01*
X205851995Y-136614820D01*
X205886554Y-136633292D01*
X205916847Y-136658153D01*
X205941708Y-136688446D01*
X205960180Y-136723005D01*
X205971555Y-136760501D01*
X205976000Y-136805638D01*
X205976000Y-137544362D01*
X205971555Y-137589499D01*
X205960180Y-137626995D01*
X205941708Y-137661554D01*
X205916847Y-137691847D01*
X205886554Y-137716708D01*
X205851995Y-137735180D01*
X205814499Y-137746555D01*
X205769362Y-137751000D01*
X205130638Y-137751000D01*
X205085501Y-137746555D01*
X205048005Y-137735180D01*
X205013446Y-137716708D01*
X204983153Y-137691847D01*
X204958292Y-137661554D01*
X204939820Y-137626995D01*
X204928445Y-137589499D01*
X204924000Y-137544362D01*
X204924000Y-136805638D01*
X204928445Y-136760501D01*
X204939820Y-136723005D01*
X204958292Y-136688446D01*
X204983153Y-136658153D01*
X205013446Y-136633292D01*
X205048005Y-136614820D01*
X205085501Y-136603445D01*
X205130638Y-136599000D01*
X205769362Y-136599000D01*
X205814499Y-136603445D01*
G37*
G36*
X203614499Y-136553445D02*
G01*
X203651995Y-136564820D01*
X203686554Y-136583292D01*
X203716847Y-136608153D01*
X203741708Y-136638446D01*
X203760180Y-136673005D01*
X203771555Y-136710501D01*
X203776000Y-136755638D01*
X203776000Y-137494362D01*
X203771555Y-137539499D01*
X203760180Y-137576995D01*
X203741708Y-137611554D01*
X203716847Y-137641847D01*
X203686554Y-137666708D01*
X203651995Y-137685180D01*
X203614499Y-137696555D01*
X203569362Y-137701000D01*
X202930638Y-137701000D01*
X202885501Y-137696555D01*
X202848005Y-137685180D01*
X202813446Y-137666708D01*
X202783153Y-137641847D01*
X202758292Y-137611554D01*
X202739820Y-137576995D01*
X202728445Y-137539499D01*
X202724000Y-137494362D01*
X202724000Y-136755638D01*
X202728445Y-136710501D01*
X202739820Y-136673005D01*
X202758292Y-136638446D01*
X202783153Y-136608153D01*
X202813446Y-136583292D01*
X202848005Y-136564820D01*
X202885501Y-136553445D01*
X202930638Y-136549000D01*
X203569362Y-136549000D01*
X203614499Y-136553445D01*
G37*
G36*
X222415331Y-134058211D02*
G01*
X222743092Y-134193974D01*
X223038070Y-134391072D01*
X223288928Y-134641930D01*
X223486026Y-134936908D01*
X223621789Y-135264669D01*
X223691000Y-135612616D01*
X223691000Y-135967384D01*
X223621789Y-136315331D01*
X223486026Y-136643092D01*
X223288928Y-136938070D01*
X223038070Y-137188928D01*
X222743092Y-137386026D01*
X222415331Y-137521789D01*
X222067384Y-137591000D01*
X221712616Y-137591000D01*
X221364669Y-137521789D01*
X221036908Y-137386026D01*
X220741930Y-137188928D01*
X220491072Y-136938070D01*
X220293974Y-136643092D01*
X220158211Y-136315331D01*
X220089000Y-135967384D01*
X220089000Y-135612616D01*
X220158211Y-135264669D01*
X220293974Y-134936908D01*
X220491072Y-134641930D01*
X220741930Y-134391072D01*
X221036908Y-134193974D01*
X221364669Y-134058211D01*
X221712616Y-133989000D01*
X222067384Y-133989000D01*
X222415331Y-134058211D01*
G37*
G36*
X207653642Y-134679781D02*
G01*
X207778929Y-134731677D01*
X207799416Y-134740163D01*
X207930608Y-134827822D01*
X208042178Y-134939392D01*
X208124101Y-135062000D01*
X208129838Y-135070586D01*
X208190219Y-135216358D01*
X208221000Y-135371107D01*
X208221000Y-135528893D01*
X208190219Y-135683642D01*
X208130840Y-135826995D01*
X208129837Y-135829416D01*
X208042178Y-135960608D01*
X207930608Y-136072178D01*
X207799416Y-136159837D01*
X207799415Y-136159838D01*
X207799414Y-136159838D01*
X207653642Y-136220219D01*
X207498893Y-136251000D01*
X207341107Y-136251000D01*
X207186358Y-136220219D01*
X207040586Y-136159838D01*
X207040585Y-136159838D01*
X207040584Y-136159837D01*
X206909392Y-136072178D01*
X206797822Y-135960608D01*
X206710163Y-135829416D01*
X206709160Y-135826995D01*
X206649781Y-135683642D01*
X206619000Y-135528893D01*
X206619000Y-135371107D01*
X206649781Y-135216358D01*
X206710162Y-135070586D01*
X206715899Y-135062000D01*
X206797822Y-134939392D01*
X206909392Y-134827822D01*
X207040584Y-134740163D01*
X207061071Y-134731677D01*
X207186358Y-134679781D01*
X207341107Y-134649000D01*
X207498893Y-134649000D01*
X207653642Y-134679781D01*
G37*
G36*
X212533642Y-134679781D02*
G01*
X212658929Y-134731677D01*
X212679416Y-134740163D01*
X212810608Y-134827822D01*
X212922178Y-134939392D01*
X213004101Y-135062000D01*
X213009838Y-135070586D01*
X213070219Y-135216358D01*
X213101000Y-135371107D01*
X213101000Y-135528893D01*
X213070219Y-135683642D01*
X213010840Y-135826995D01*
X213009837Y-135829416D01*
X212922178Y-135960608D01*
X212810608Y-136072178D01*
X212679416Y-136159837D01*
X212679415Y-136159838D01*
X212679414Y-136159838D01*
X212533642Y-136220219D01*
X212378893Y-136251000D01*
X212221107Y-136251000D01*
X212066358Y-136220219D01*
X211920586Y-136159838D01*
X211920585Y-136159838D01*
X211920584Y-136159837D01*
X211789392Y-136072178D01*
X211677822Y-135960608D01*
X211590163Y-135829416D01*
X211589160Y-135826995D01*
X211529781Y-135683642D01*
X211499000Y-135528893D01*
X211499000Y-135371107D01*
X211529781Y-135216358D01*
X211590162Y-135070586D01*
X211595899Y-135062000D01*
X211677822Y-134939392D01*
X211789392Y-134827822D01*
X211920584Y-134740163D01*
X211941071Y-134731677D01*
X212066358Y-134679781D01*
X212221107Y-134649000D01*
X212378893Y-134649000D01*
X212533642Y-134679781D01*
G37*
G36*
X214664499Y-134878445D02*
G01*
X214701995Y-134889820D01*
X214736554Y-134908292D01*
X214766847Y-134933153D01*
X214791708Y-134963446D01*
X214810180Y-134998005D01*
X214821555Y-135035501D01*
X214826000Y-135080638D01*
X214826000Y-135819362D01*
X214821555Y-135864499D01*
X214810180Y-135901995D01*
X214791708Y-135936554D01*
X214766847Y-135966847D01*
X214736554Y-135991708D01*
X214701995Y-136010180D01*
X214664499Y-136021555D01*
X214619362Y-136026000D01*
X213980638Y-136026000D01*
X213935501Y-136021555D01*
X213898005Y-136010180D01*
X213863446Y-135991708D01*
X213833153Y-135966847D01*
X213808292Y-135936554D01*
X213789820Y-135901995D01*
X213778445Y-135864499D01*
X213774000Y-135819362D01*
X213774000Y-135080638D01*
X213778445Y-135035501D01*
X213789820Y-134998005D01*
X213808292Y-134963446D01*
X213833153Y-134933153D01*
X213863446Y-134908292D01*
X213898005Y-134889820D01*
X213935501Y-134878445D01*
X213980638Y-134874000D01*
X214619362Y-134874000D01*
X214664499Y-134878445D01*
G37*
G36*
X205814499Y-134853445D02*
G01*
X205851995Y-134864820D01*
X205886554Y-134883292D01*
X205916847Y-134908153D01*
X205941708Y-134938446D01*
X205960180Y-134973005D01*
X205971555Y-135010501D01*
X205976000Y-135055638D01*
X205976000Y-135794362D01*
X205971555Y-135839499D01*
X205960180Y-135876995D01*
X205941708Y-135911554D01*
X205916847Y-135941847D01*
X205886554Y-135966708D01*
X205851995Y-135985180D01*
X205814499Y-135996555D01*
X205769362Y-136001000D01*
X205130638Y-136001000D01*
X205085501Y-135996555D01*
X205048005Y-135985180D01*
X205013446Y-135966708D01*
X204983153Y-135941847D01*
X204958292Y-135911554D01*
X204939820Y-135876995D01*
X204928445Y-135839499D01*
X204924000Y-135794362D01*
X204924000Y-135055638D01*
X204928445Y-135010501D01*
X204939820Y-134973005D01*
X204958292Y-134938446D01*
X204983153Y-134908153D01*
X205013446Y-134883292D01*
X205048005Y-134864820D01*
X205085501Y-134853445D01*
X205130638Y-134849000D01*
X205769362Y-134849000D01*
X205814499Y-134853445D01*
G37*
G36*
X203614499Y-134803445D02*
G01*
X203651995Y-134814820D01*
X203686554Y-134833292D01*
X203716847Y-134858153D01*
X203741708Y-134888446D01*
X203760180Y-134923005D01*
X203771555Y-134960501D01*
X203776000Y-135005638D01*
X203776000Y-135744362D01*
X203771555Y-135789499D01*
X203760180Y-135826995D01*
X203741708Y-135861554D01*
X203716847Y-135891847D01*
X203686554Y-135916708D01*
X203651995Y-135935180D01*
X203614499Y-135946555D01*
X203569362Y-135951000D01*
X202930638Y-135951000D01*
X202885501Y-135946555D01*
X202848005Y-135935180D01*
X202813446Y-135916708D01*
X202783153Y-135891847D01*
X202758292Y-135861554D01*
X202739820Y-135826995D01*
X202728445Y-135789499D01*
X202724000Y-135744362D01*
X202724000Y-135005638D01*
X202728445Y-134960501D01*
X202739820Y-134923005D01*
X202758292Y-134888446D01*
X202783153Y-134858153D01*
X202813446Y-134833292D01*
X202848005Y-134814820D01*
X202885501Y-134803445D01*
X202930638Y-134799000D01*
X203569362Y-134799000D01*
X203614499Y-134803445D01*
G37*
G36*
X201153512Y-133703927D02*
G01*
X201302812Y-133733624D01*
X201466784Y-133801544D01*
X201614354Y-133900147D01*
X201739853Y-134025646D01*
X201838456Y-134173216D01*
X201906376Y-134337188D01*
X201941000Y-134511259D01*
X201941000Y-134688741D01*
X201906376Y-134862812D01*
X201838456Y-135026784D01*
X201739853Y-135174354D01*
X201614354Y-135299853D01*
X201466784Y-135398456D01*
X201302812Y-135466376D01*
X201153512Y-135496073D01*
X201128742Y-135501000D01*
X200951258Y-135501000D01*
X200926488Y-135496073D01*
X200777188Y-135466376D01*
X200613216Y-135398456D01*
X200465646Y-135299853D01*
X200340147Y-135174354D01*
X200241544Y-135026784D01*
X200173624Y-134862812D01*
X200139000Y-134688741D01*
X200139000Y-134511259D01*
X200173624Y-134337188D01*
X200241544Y-134173216D01*
X200340147Y-134025646D01*
X200465646Y-133900147D01*
X200613216Y-133801544D01*
X200777188Y-133733624D01*
X200926488Y-133703927D01*
X200951258Y-133699000D01*
X201128742Y-133699000D01*
X201153512Y-133703927D01*
G37*
G36*
X199401000Y-135501000D02*
G01*
X197599000Y-135501000D01*
X197599000Y-133699000D01*
X199401000Y-133699000D01*
X199401000Y-135501000D01*
G37*
G36*
X209389499Y-133728445D02*
G01*
X209426995Y-133739820D01*
X209461554Y-133758292D01*
X209491847Y-133783153D01*
X209516708Y-133813446D01*
X209535180Y-133848005D01*
X209546555Y-133885501D01*
X209551000Y-133930638D01*
X209551000Y-134569362D01*
X209546555Y-134614499D01*
X209535180Y-134651995D01*
X209516708Y-134686554D01*
X209491847Y-134716847D01*
X209461554Y-134741708D01*
X209426995Y-134760180D01*
X209389499Y-134771555D01*
X209344362Y-134776000D01*
X208605638Y-134776000D01*
X208560501Y-134771555D01*
X208523005Y-134760180D01*
X208488446Y-134741708D01*
X208458153Y-134716847D01*
X208433292Y-134686554D01*
X208414820Y-134651995D01*
X208403445Y-134614499D01*
X208399000Y-134569362D01*
X208399000Y-133930638D01*
X208403445Y-133885501D01*
X208414820Y-133848005D01*
X208433292Y-133813446D01*
X208458153Y-133783153D01*
X208488446Y-133758292D01*
X208523005Y-133739820D01*
X208560501Y-133728445D01*
X208605638Y-133724000D01*
X209344362Y-133724000D01*
X209389499Y-133728445D01*
G37*
G36*
X211139499Y-133728445D02*
G01*
X211176995Y-133739820D01*
X211211554Y-133758292D01*
X211241847Y-133783153D01*
X211266708Y-133813446D01*
X211285180Y-133848005D01*
X211296555Y-133885501D01*
X211301000Y-133930638D01*
X211301000Y-134569362D01*
X211296555Y-134614499D01*
X211285180Y-134651995D01*
X211266708Y-134686554D01*
X211241847Y-134716847D01*
X211211554Y-134741708D01*
X211176995Y-134760180D01*
X211139499Y-134771555D01*
X211094362Y-134776000D01*
X210355638Y-134776000D01*
X210310501Y-134771555D01*
X210273005Y-134760180D01*
X210238446Y-134741708D01*
X210208153Y-134716847D01*
X210183292Y-134686554D01*
X210164820Y-134651995D01*
X210153445Y-134614499D01*
X210149000Y-134569362D01*
X210149000Y-133930638D01*
X210153445Y-133885501D01*
X210164820Y-133848005D01*
X210183292Y-133813446D01*
X210208153Y-133783153D01*
X210238446Y-133758292D01*
X210273005Y-133739820D01*
X210310501Y-133728445D01*
X210355638Y-133724000D01*
X211094362Y-133724000D01*
X211139499Y-133728445D01*
G37*
M02*
