M48
; DRILL file {KiCad 5.1.6-c6e7f7d~86~ubuntu18.04.1} date Thu Jun 11 15:16:56 2020
; FORMAT={-:-/ absolute / inch / decimal}
; #@! TF.CreationDate,2020-06-11T15:16:56+02:00
; #@! TF.GenerationSoftware,Kicad,Pcbnew,5.1.6-c6e7f7d~86~ubuntu18.04.1
FMAT,2
INCH
T1C0.0157
T2C0.0315
T3C0.0394
T4C0.0512
%
G90
G05
T1
X7.7795Y-3.8701
X7.7795Y-3.8701
X7.8293Y-3.8018
X7.8793Y-3.7795
X7.8799Y-3.6063
X7.9173Y-4.1024
X7.9272Y-3.7992
X8.0039Y-3.8661
X8.1398Y-3.3858
X8.1457Y-3.498
X8.1457Y-3.498
X8.1575Y-3.8661
X8.2244Y-3.3268
X8.2559Y-3.6654
X8.3091Y-3.8701
X8.3091Y-3.8701
X8.3091Y-3.8701
X8.311Y-3.3228
X8.3189Y-3.4528
X8.3957Y-3.6614
X8.3976Y-3.314
X8.4843Y-3.0984
X8.4862Y-3.3169
X8.4862Y-3.3858
X8.502Y-4.1043
X8.5768Y-3.1358
X8.6063Y-3.4587
X8.6063Y-3.5335
X8.6437Y-3.1358
X8.6476Y-3.4902
X8.6476Y-3.5709
X8.689Y-3.4587
X8.7303Y-3.563
X8.7756Y-3.0354
X8.7756Y-3.0689
X8.7756Y-3.1024
X8.7756Y-3.3406
X8.7756Y-3.374
X8.7756Y-3.4075
X8.7874Y-3.6929
X8.7874Y-3.7283
X8.815Y-3.0354
X8.815Y-3.0689
X8.815Y-3.1024
X8.815Y-3.3406
X8.815Y-3.374
X8.815Y-3.4075
X8.8563Y-3.6929
X8.8563Y-3.7283
T2
X8.1406Y-3.1004
X8.3327Y-3.1004
T3
X7.7894Y-3.0646
X7.7894Y-3.1646
X7.7894Y-3.2646
X7.7894Y-3.3646
X7.7894Y-3.4646
X7.8894Y-3.0646
X7.8894Y-3.1646
X7.8894Y-3.2646
X7.8894Y-3.3646
X7.8894Y-3.4646
T4
X7.8169Y-4.0531
X8.0138Y-4.0531
X8.2106Y-4.0531
X8.4075Y-4.0531
X8.6043Y-4.0531
X8.8012Y-4.0531
T0
M30
