G04 #@! TF.GenerationSoftware,KiCad,Pcbnew,5.1.6-c6e7f7d~86~ubuntu18.04.1*
G04 #@! TF.CreationDate,2020-05-23T21:04:01+02:00*
G04 #@! TF.ProjectId,sci2can,73636932-6361-46e2-9e6b-696361645f70,1.00*
G04 #@! TF.SameCoordinates,Original*
G04 #@! TF.FileFunction,Legend,Top*
G04 #@! TF.FilePolarity,Positive*
%FSLAX46Y46*%
G04 Gerber Fmt 4.6, Leading zero omitted, Abs format (unit mm)*
G04 Created by KiCad (PCBNEW 5.1.6-c6e7f7d~86~ubuntu18.04.1) date 2020-05-23 21:04:01*
%MOMM*%
%LPD*%
G01*
G04 APERTURE LIST*
%ADD10C,0.200000*%
%ADD11C,0.120000*%
%ADD12C,0.150000*%
G04 APERTURE END LIST*
D10*
X223438095Y-155450000D02*
X223342857Y-155402380D01*
X223200000Y-155402380D01*
X223057142Y-155450000D01*
X222961904Y-155545238D01*
X222914285Y-155640476D01*
X222866666Y-155830952D01*
X222866666Y-155973809D01*
X222914285Y-156164285D01*
X222961904Y-156259523D01*
X223057142Y-156354761D01*
X223200000Y-156402380D01*
X223295238Y-156402380D01*
X223438095Y-156354761D01*
X223485714Y-156307142D01*
X223485714Y-155973809D01*
X223295238Y-155973809D01*
X223914285Y-156402380D02*
X223914285Y-155402380D01*
X224485714Y-156402380D01*
X224485714Y-155402380D01*
X224961904Y-156402380D02*
X224961904Y-155402380D01*
X225200000Y-155402380D01*
X225342857Y-155450000D01*
X225438095Y-155545238D01*
X225485714Y-155640476D01*
X225533333Y-155830952D01*
X225533333Y-155973809D01*
X225485714Y-156164285D01*
X225438095Y-156259523D01*
X225342857Y-156354761D01*
X225200000Y-156402380D01*
X224961904Y-156402380D01*
X213676190Y-156402380D02*
X213676190Y-155402380D01*
X214152380Y-156402380D02*
X214152380Y-155402380D01*
X214723809Y-156402380D01*
X214723809Y-155402380D01*
X208200000Y-155402380D02*
X208390476Y-155402380D01*
X208485714Y-155450000D01*
X208580952Y-155545238D01*
X208628571Y-155735714D01*
X208628571Y-156069047D01*
X208580952Y-156259523D01*
X208485714Y-156354761D01*
X208390476Y-156402380D01*
X208200000Y-156402380D01*
X208104761Y-156354761D01*
X208009523Y-156259523D01*
X207961904Y-156069047D01*
X207961904Y-155735714D01*
X208009523Y-155545238D01*
X208104761Y-155450000D01*
X208200000Y-155402380D01*
X209057142Y-155402380D02*
X209057142Y-156211904D01*
X209104761Y-156307142D01*
X209152380Y-156354761D01*
X209247619Y-156402380D01*
X209438095Y-156402380D01*
X209533333Y-156354761D01*
X209580952Y-156307142D01*
X209628571Y-156211904D01*
X209628571Y-155402380D01*
X209961904Y-155402380D02*
X210533333Y-155402380D01*
X210247619Y-156402380D02*
X210247619Y-155402380D01*
X218438095Y-155402380D02*
X218438095Y-156211904D01*
X218485714Y-156307142D01*
X218533333Y-156354761D01*
X218628571Y-156402380D01*
X218819047Y-156402380D01*
X218914285Y-156354761D01*
X218961904Y-156307142D01*
X219009523Y-156211904D01*
X219009523Y-155402380D01*
X219390476Y-155402380D02*
X220057142Y-155402380D01*
X219390476Y-156402380D01*
X220057142Y-156402380D01*
X203033333Y-156307142D02*
X202985714Y-156354761D01*
X202842857Y-156402380D01*
X202747619Y-156402380D01*
X202604761Y-156354761D01*
X202509523Y-156259523D01*
X202461904Y-156164285D01*
X202414285Y-155973809D01*
X202414285Y-155830952D01*
X202461904Y-155640476D01*
X202509523Y-155545238D01*
X202604761Y-155450000D01*
X202747619Y-155402380D01*
X202842857Y-155402380D01*
X202985714Y-155450000D01*
X203033333Y-155497619D01*
X203414285Y-156116666D02*
X203890476Y-156116666D01*
X203319047Y-156402380D02*
X203652380Y-155402380D01*
X203985714Y-156402380D01*
X204319047Y-156402380D02*
X204319047Y-155402380D01*
X204890476Y-156402380D01*
X204890476Y-155402380D01*
X205366666Y-156402380D02*
X205366666Y-155402380D01*
X205366666Y-155878571D02*
X205938095Y-155878571D01*
X205938095Y-156402380D02*
X205938095Y-155402380D01*
X198152380Y-156257142D02*
X198104761Y-156304761D01*
X197961904Y-156352380D01*
X197866666Y-156352380D01*
X197723809Y-156304761D01*
X197628571Y-156209523D01*
X197580952Y-156114285D01*
X197533333Y-155923809D01*
X197533333Y-155780952D01*
X197580952Y-155590476D01*
X197628571Y-155495238D01*
X197723809Y-155400000D01*
X197866666Y-155352380D01*
X197961904Y-155352380D01*
X198104761Y-155400000D01*
X198152380Y-155447619D01*
X198533333Y-156066666D02*
X199009523Y-156066666D01*
X198438095Y-156352380D02*
X198771428Y-155352380D01*
X199104761Y-156352380D01*
X199438095Y-156352380D02*
X199438095Y-155352380D01*
X200009523Y-156352380D01*
X200009523Y-155352380D01*
X200961904Y-156352380D02*
X200485714Y-156352380D01*
X200485714Y-155352380D01*
X196935714Y-135002380D02*
X196364285Y-135002380D01*
X196650000Y-135002380D02*
X196650000Y-134002380D01*
X196554761Y-134145238D01*
X196459523Y-134240476D01*
X196364285Y-134288095D01*
D11*
X213060000Y-132925000D02*
X206660000Y-132925000D01*
X213060000Y-137975000D02*
X206660000Y-137975000D01*
X206660000Y-132925000D02*
G75*
G03*
X206660000Y-137975000I0J-2525000D01*
G01*
X213060000Y-132925000D02*
G75*
G02*
X213060000Y-137975000I0J-2525000D01*
G01*
X206615000Y-150140000D02*
X206615000Y-152600000D01*
X208085000Y-150140000D02*
X206615000Y-150140000D01*
X208085000Y-152600000D02*
X208085000Y-150140000D01*
X202420000Y-152560000D02*
X202420000Y-151100000D01*
X205580000Y-152560000D02*
X205580000Y-150400000D01*
X205580000Y-152560000D02*
X204650000Y-152560000D01*
X202420000Y-152560000D02*
X203350000Y-152560000D01*
X196400000Y-164550000D02*
X196900000Y-164550000D01*
X196400000Y-163810000D02*
X196400000Y-164550000D01*
X222973000Y-160673000D02*
X222926000Y-160719000D01*
X225270000Y-158375000D02*
X225235000Y-158411000D01*
X223166000Y-160889000D02*
X223131000Y-160924000D01*
X225475000Y-158581000D02*
X225428000Y-158627000D01*
X217973000Y-160673000D02*
X217926000Y-160719000D01*
X220270000Y-158375000D02*
X220235000Y-158411000D01*
X218166000Y-160889000D02*
X218131000Y-160924000D01*
X220475000Y-158581000D02*
X220428000Y-158627000D01*
X212973000Y-160673000D02*
X212926000Y-160719000D01*
X215270000Y-158375000D02*
X215235000Y-158411000D01*
X213166000Y-160889000D02*
X213131000Y-160924000D01*
X215475000Y-158581000D02*
X215428000Y-158627000D01*
X207973000Y-160673000D02*
X207926000Y-160719000D01*
X210270000Y-158375000D02*
X210235000Y-158411000D01*
X208166000Y-160889000D02*
X208131000Y-160924000D01*
X210475000Y-158581000D02*
X210428000Y-158627000D01*
X202973000Y-160673000D02*
X202926000Y-160719000D01*
X205270000Y-158375000D02*
X205235000Y-158411000D01*
X203166000Y-160889000D02*
X203131000Y-160924000D01*
X205475000Y-158581000D02*
X205428000Y-158627000D01*
X226760000Y-154389000D02*
X226760000Y-164310000D01*
X196640000Y-154389000D02*
X196640000Y-164310000D01*
X196640000Y-164310000D02*
X226760000Y-164310000D01*
X196640000Y-154389000D02*
X226760000Y-154389000D01*
X196640000Y-157349000D02*
X226760000Y-157349000D01*
X196640000Y-162250000D02*
X226760000Y-162250000D01*
X196640000Y-163750000D02*
X226760000Y-163750000D01*
X225880000Y-159650000D02*
G75*
G03*
X225880000Y-159650000I-1680000J0D01*
G01*
X220880000Y-159650000D02*
G75*
G03*
X220880000Y-159650000I-1680000J0D01*
G01*
X215880000Y-159650000D02*
G75*
G03*
X215880000Y-159650000I-1680000J0D01*
G01*
X210880000Y-159650000D02*
G75*
G03*
X210880000Y-159650000I-1680000J0D01*
G01*
X205880000Y-159650000D02*
G75*
G03*
X205880000Y-159650000I-1680000J0D01*
G01*
X199228805Y-161330253D02*
G75*
G02*
X198516000Y-161185000I-28805J1680253D01*
G01*
X197664574Y-160333042D02*
G75*
G02*
X197665000Y-158966000I1535426J683042D01*
G01*
X198516958Y-158114574D02*
G75*
G02*
X199884000Y-158115000I683042J-1535426D01*
G01*
X200735426Y-158966958D02*
G75*
G02*
X200735000Y-160334000I-1535426J-683042D01*
G01*
X199883318Y-161184756D02*
G75*
G02*
X199200000Y-161330000I-683318J1534756D01*
G01*
X202710000Y-145550000D02*
X202710000Y-142100000D01*
X202710000Y-145550000D02*
X202710000Y-147500000D01*
X197590000Y-145550000D02*
X197590000Y-143600000D01*
X197590000Y-145550000D02*
X197590000Y-147500000D01*
X197170000Y-133270000D02*
X198500000Y-133270000D01*
X197170000Y-134600000D02*
X197170000Y-133270000D01*
X199770000Y-133270000D02*
X202370000Y-133270000D01*
X199770000Y-135870000D02*
X199770000Y-133270000D01*
X197170000Y-135870000D02*
X199770000Y-135870000D01*
X202370000Y-133270000D02*
X202370000Y-141010000D01*
X197170000Y-135870000D02*
X197170000Y-141010000D01*
X197170000Y-141010000D02*
X202370000Y-141010000D01*
X224430000Y-148760000D02*
X224430000Y-151300000D01*
X221890000Y-148760000D02*
X221890000Y-151300000D01*
X219350000Y-148760000D02*
X219350000Y-151300000D01*
X227010000Y-132870000D02*
X227010000Y-148760000D01*
X216770000Y-132870000D02*
X216770000Y-148760000D01*
X216770000Y-132870000D02*
X227010000Y-132870000D01*
X216770000Y-148760000D02*
X227010000Y-148760000D01*
X213060000Y-140340000D02*
X213060000Y-139025000D01*
X213360000Y-140340000D02*
X213060000Y-140340000D01*
X213360000Y-140640000D02*
X213360000Y-140340000D01*
X213360000Y-147560000D02*
X213060000Y-147560000D01*
X213360000Y-147260000D02*
X213360000Y-147560000D01*
X206140000Y-140340000D02*
X206440000Y-140340000D01*
X206140000Y-140640000D02*
X206140000Y-140340000D01*
X206140000Y-147560000D02*
X206440000Y-147560000D01*
X206140000Y-147260000D02*
X206140000Y-147560000D01*
X216100000Y-153600000D02*
X210400000Y-153600000D01*
X216100000Y-149300000D02*
X210400000Y-149300000D01*
X216100000Y-153600000D02*
X216100000Y-149300000D01*
D12*
X209764761Y-139522619D02*
X209669523Y-139475000D01*
X209574285Y-139379761D01*
X209431428Y-139236904D01*
X209336190Y-139189285D01*
X209240952Y-139189285D01*
X209288571Y-139427380D02*
X209193333Y-139379761D01*
X209098095Y-139284523D01*
X209050476Y-139094047D01*
X209050476Y-138760714D01*
X209098095Y-138570238D01*
X209193333Y-138475000D01*
X209288571Y-138427380D01*
X209479047Y-138427380D01*
X209574285Y-138475000D01*
X209669523Y-138570238D01*
X209717142Y-138760714D01*
X209717142Y-139094047D01*
X209669523Y-139284523D01*
X209574285Y-139379761D01*
X209479047Y-139427380D01*
X209288571Y-139427380D01*
X210669523Y-139427380D02*
X210098095Y-139427380D01*
X210383809Y-139427380D02*
X210383809Y-138427380D01*
X210288571Y-138570238D01*
X210193333Y-138665476D01*
X210098095Y-138713095D01*
X197111904Y-148607142D02*
X196311904Y-148607142D01*
X196311904Y-148302380D01*
X196350000Y-148226190D01*
X196388095Y-148188095D01*
X196464285Y-148150000D01*
X196578571Y-148150000D01*
X196654761Y-148188095D01*
X196692857Y-148226190D01*
X196730952Y-148302380D01*
X196730952Y-148607142D01*
X197035714Y-147350000D02*
X197073809Y-147388095D01*
X197111904Y-147502380D01*
X197111904Y-147578571D01*
X197073809Y-147692857D01*
X196997619Y-147769047D01*
X196921428Y-147807142D01*
X196769047Y-147845238D01*
X196654761Y-147845238D01*
X196502380Y-147807142D01*
X196426190Y-147769047D01*
X196350000Y-147692857D01*
X196311904Y-147578571D01*
X196311904Y-147502380D01*
X196350000Y-147388095D01*
X196388095Y-147350000D01*
X196883333Y-147045238D02*
X196883333Y-146664285D01*
X197111904Y-147121428D02*
X196311904Y-146854761D01*
X197111904Y-146588095D01*
X196654761Y-146207142D02*
X196616666Y-146283333D01*
X196578571Y-146321428D01*
X196502380Y-146359523D01*
X196464285Y-146359523D01*
X196388095Y-146321428D01*
X196350000Y-146283333D01*
X196311904Y-146207142D01*
X196311904Y-146054761D01*
X196350000Y-145978571D01*
X196388095Y-145940476D01*
X196464285Y-145902380D01*
X196502380Y-145902380D01*
X196578571Y-145940476D01*
X196616666Y-145978571D01*
X196654761Y-146054761D01*
X196654761Y-146207142D01*
X196692857Y-146283333D01*
X196730952Y-146321428D01*
X196807142Y-146359523D01*
X196959523Y-146359523D01*
X197035714Y-146321428D01*
X197073809Y-146283333D01*
X197111904Y-146207142D01*
X197111904Y-146054761D01*
X197073809Y-145978571D01*
X197035714Y-145940476D01*
X196959523Y-145902380D01*
X196807142Y-145902380D01*
X196730952Y-145940476D01*
X196692857Y-145978571D01*
X196654761Y-146054761D01*
X196388095Y-145597619D02*
X196350000Y-145559523D01*
X196311904Y-145483333D01*
X196311904Y-145292857D01*
X196350000Y-145216666D01*
X196388095Y-145178571D01*
X196464285Y-145140476D01*
X196540476Y-145140476D01*
X196654761Y-145178571D01*
X197111904Y-145635714D01*
X197111904Y-145140476D01*
X197035714Y-144340476D02*
X197073809Y-144378571D01*
X197111904Y-144492857D01*
X197111904Y-144569047D01*
X197073809Y-144683333D01*
X196997619Y-144759523D01*
X196921428Y-144797619D01*
X196769047Y-144835714D01*
X196654761Y-144835714D01*
X196502380Y-144797619D01*
X196426190Y-144759523D01*
X196350000Y-144683333D01*
X196311904Y-144569047D01*
X196311904Y-144492857D01*
X196350000Y-144378571D01*
X196388095Y-144340476D01*
X196388095Y-144035714D02*
X196350000Y-143997619D01*
X196311904Y-143921428D01*
X196311904Y-143730952D01*
X196350000Y-143654761D01*
X196388095Y-143616666D01*
X196464285Y-143578571D01*
X196540476Y-143578571D01*
X196654761Y-143616666D01*
X197111904Y-144073809D01*
X197111904Y-143578571D01*
X196311904Y-142854761D02*
X196311904Y-143235714D01*
X196692857Y-143273809D01*
X196654761Y-143235714D01*
X196616666Y-143159523D01*
X196616666Y-142969047D01*
X196654761Y-142892857D01*
X196692857Y-142854761D01*
X196769047Y-142816666D01*
X196959523Y-142816666D01*
X197035714Y-142854761D01*
X197073809Y-142892857D01*
X197111904Y-142969047D01*
X197111904Y-143159523D01*
X197073809Y-143235714D01*
X197035714Y-143273809D01*
X197111904Y-142054761D02*
X197111904Y-142511904D01*
X197111904Y-142283333D02*
X196311904Y-142283333D01*
X196426190Y-142359523D01*
X196502380Y-142435714D01*
X196540476Y-142511904D01*
X196592857Y-138150000D02*
X196630952Y-138035714D01*
X196669047Y-137997619D01*
X196745238Y-137959523D01*
X196859523Y-137959523D01*
X196935714Y-137997619D01*
X196973809Y-138035714D01*
X197011904Y-138111904D01*
X197011904Y-138416666D01*
X196211904Y-138416666D01*
X196211904Y-138150000D01*
X196250000Y-138073809D01*
X196288095Y-138035714D01*
X196364285Y-137997619D01*
X196440476Y-137997619D01*
X196516666Y-138035714D01*
X196554761Y-138073809D01*
X196592857Y-138150000D01*
X196592857Y-138416666D01*
X197011904Y-137616666D02*
X196211904Y-137616666D01*
X196211904Y-137426190D01*
X196250000Y-137311904D01*
X196326190Y-137235714D01*
X196402380Y-137197619D01*
X196554761Y-137159523D01*
X196669047Y-137159523D01*
X196821428Y-137197619D01*
X196897619Y-137235714D01*
X196973809Y-137311904D01*
X197011904Y-137426190D01*
X197011904Y-137616666D01*
X197011904Y-136816666D02*
X196211904Y-136816666D01*
X196783333Y-136550000D01*
X196211904Y-136283333D01*
X197011904Y-136283333D01*
X215735714Y-146069047D02*
X216402380Y-146069047D01*
X215735714Y-146497619D02*
X216259523Y-146497619D01*
X216354761Y-146450000D01*
X216402380Y-146354761D01*
X216402380Y-146211904D01*
X216354761Y-146116666D01*
X216307142Y-146069047D01*
X216116666Y-145640476D02*
X216116666Y-145164285D01*
X216402380Y-145735714D02*
X215402380Y-145402380D01*
X216402380Y-145069047D01*
X215402380Y-144830952D02*
X215402380Y-144164285D01*
X216402380Y-144592857D01*
X215830952Y-143640476D02*
X215783333Y-143735714D01*
X215735714Y-143783333D01*
X215640476Y-143830952D01*
X215592857Y-143830952D01*
X215497619Y-143783333D01*
X215450000Y-143735714D01*
X215402380Y-143640476D01*
X215402380Y-143450000D01*
X215450000Y-143354761D01*
X215497619Y-143307142D01*
X215592857Y-143259523D01*
X215640476Y-143259523D01*
X215735714Y-143307142D01*
X215783333Y-143354761D01*
X215830952Y-143450000D01*
X215830952Y-143640476D01*
X215878571Y-143735714D01*
X215926190Y-143783333D01*
X216021428Y-143830952D01*
X216211904Y-143830952D01*
X216307142Y-143783333D01*
X216354761Y-143735714D01*
X216402380Y-143640476D01*
X216402380Y-143450000D01*
X216354761Y-143354761D01*
X216307142Y-143307142D01*
X216211904Y-143259523D01*
X216021428Y-143259523D01*
X215926190Y-143307142D01*
X215878571Y-143354761D01*
X215830952Y-143450000D01*
X215402380Y-142640476D02*
X215402380Y-142545238D01*
X215450000Y-142450000D01*
X215497619Y-142402380D01*
X215592857Y-142354761D01*
X215783333Y-142307142D01*
X216021428Y-142307142D01*
X216211904Y-142354761D01*
X216307142Y-142402380D01*
X216354761Y-142450000D01*
X216402380Y-142545238D01*
X216402380Y-142640476D01*
X216354761Y-142735714D01*
X216307142Y-142783333D01*
X216211904Y-142830952D01*
X216021428Y-142878571D01*
X215783333Y-142878571D01*
X215592857Y-142830952D01*
X215497619Y-142783333D01*
X215450000Y-142735714D01*
X215402380Y-142640476D01*
X215402380Y-141402380D02*
X215402380Y-141878571D01*
X215878571Y-141926190D01*
X215830952Y-141878571D01*
X215783333Y-141783333D01*
X215783333Y-141545238D01*
X215830952Y-141450000D01*
X215878571Y-141402380D01*
X215973809Y-141354761D01*
X216211904Y-141354761D01*
X216307142Y-141402380D01*
X216354761Y-141450000D01*
X216402380Y-141545238D01*
X216402380Y-141783333D01*
X216354761Y-141878571D01*
X216307142Y-141926190D01*
X204211904Y-148880952D02*
X203411904Y-148880952D01*
X203983333Y-148614285D01*
X203411904Y-148347619D01*
X204211904Y-148347619D01*
X204135714Y-147509523D02*
X204173809Y-147547619D01*
X204211904Y-147661904D01*
X204211904Y-147738095D01*
X204173809Y-147852380D01*
X204097619Y-147928571D01*
X204021428Y-147966666D01*
X203869047Y-148004761D01*
X203754761Y-148004761D01*
X203602380Y-147966666D01*
X203526190Y-147928571D01*
X203450000Y-147852380D01*
X203411904Y-147738095D01*
X203411904Y-147661904D01*
X203450000Y-147547619D01*
X203488095Y-147509523D01*
X204211904Y-147128571D02*
X204211904Y-146976190D01*
X204173809Y-146900000D01*
X204135714Y-146861904D01*
X204021428Y-146785714D01*
X203869047Y-146747619D01*
X203564285Y-146747619D01*
X203488095Y-146785714D01*
X203450000Y-146823809D01*
X203411904Y-146900000D01*
X203411904Y-147052380D01*
X203450000Y-147128571D01*
X203488095Y-147166666D01*
X203564285Y-147204761D01*
X203754761Y-147204761D01*
X203830952Y-147166666D01*
X203869047Y-147128571D01*
X203907142Y-147052380D01*
X203907142Y-146900000D01*
X203869047Y-146823809D01*
X203830952Y-146785714D01*
X203754761Y-146747619D01*
X204173809Y-146442857D02*
X204211904Y-146328571D01*
X204211904Y-146138095D01*
X204173809Y-146061904D01*
X204135714Y-146023809D01*
X204059523Y-145985714D01*
X203983333Y-145985714D01*
X203907142Y-146023809D01*
X203869047Y-146061904D01*
X203830952Y-146138095D01*
X203792857Y-146290476D01*
X203754761Y-146366666D01*
X203716666Y-146404761D01*
X203640476Y-146442857D01*
X203564285Y-146442857D01*
X203488095Y-146404761D01*
X203450000Y-146366666D01*
X203411904Y-146290476D01*
X203411904Y-146100000D01*
X203450000Y-145985714D01*
X203411904Y-145490476D02*
X203411904Y-145414285D01*
X203450000Y-145338095D01*
X203488095Y-145300000D01*
X203564285Y-145261904D01*
X203716666Y-145223809D01*
X203907142Y-145223809D01*
X204059523Y-145261904D01*
X204135714Y-145300000D01*
X204173809Y-145338095D01*
X204211904Y-145414285D01*
X204211904Y-145490476D01*
X204173809Y-145566666D01*
X204135714Y-145604761D01*
X204059523Y-145642857D01*
X203907142Y-145680952D01*
X203716666Y-145680952D01*
X203564285Y-145642857D01*
X203488095Y-145604761D01*
X203450000Y-145566666D01*
X203411904Y-145490476D01*
X203754761Y-144766666D02*
X203716666Y-144842857D01*
X203678571Y-144880952D01*
X203602380Y-144919047D01*
X203564285Y-144919047D01*
X203488095Y-144880952D01*
X203450000Y-144842857D01*
X203411904Y-144766666D01*
X203411904Y-144614285D01*
X203450000Y-144538095D01*
X203488095Y-144500000D01*
X203564285Y-144461904D01*
X203602380Y-144461904D01*
X203678571Y-144500000D01*
X203716666Y-144538095D01*
X203754761Y-144614285D01*
X203754761Y-144766666D01*
X203792857Y-144842857D01*
X203830952Y-144880952D01*
X203907142Y-144919047D01*
X204059523Y-144919047D01*
X204135714Y-144880952D01*
X204173809Y-144842857D01*
X204211904Y-144766666D01*
X204211904Y-144614285D01*
X204173809Y-144538095D01*
X204135714Y-144500000D01*
X204059523Y-144461904D01*
X203907142Y-144461904D01*
X203830952Y-144500000D01*
X203792857Y-144538095D01*
X203754761Y-144614285D01*
X204211904Y-144119047D02*
X203411904Y-144119047D01*
X203411904Y-143928571D01*
X203450000Y-143814285D01*
X203526190Y-143738095D01*
X203602380Y-143700000D01*
X203754761Y-143661904D01*
X203869047Y-143661904D01*
X204021428Y-143700000D01*
X204097619Y-143738095D01*
X204173809Y-143814285D01*
X204211904Y-143928571D01*
X204211904Y-144119047D01*
X203411904Y-143395238D02*
X203411904Y-142861904D01*
X204211904Y-143395238D01*
X204211904Y-142861904D01*
X203411904Y-142214285D02*
X203411904Y-142366666D01*
X203450000Y-142442857D01*
X203488095Y-142480952D01*
X203602380Y-142557142D01*
X203754761Y-142595238D01*
X204059523Y-142595238D01*
X204135714Y-142557142D01*
X204173809Y-142519047D01*
X204211904Y-142442857D01*
X204211904Y-142290476D01*
X204173809Y-142214285D01*
X204135714Y-142176190D01*
X204059523Y-142138095D01*
X203869047Y-142138095D01*
X203792857Y-142176190D01*
X203754761Y-142214285D01*
X203716666Y-142290476D01*
X203716666Y-142442857D01*
X203754761Y-142519047D01*
X203792857Y-142557142D01*
X203869047Y-142595238D01*
X203411904Y-141642857D02*
X203411904Y-141566666D01*
X203450000Y-141490476D01*
X203488095Y-141452380D01*
X203564285Y-141414285D01*
X203716666Y-141376190D01*
X203907142Y-141376190D01*
X204059523Y-141414285D01*
X204135714Y-141452380D01*
X204173809Y-141490476D01*
X204211904Y-141566666D01*
X204211904Y-141642857D01*
X204173809Y-141719047D01*
X204135714Y-141757142D01*
X204059523Y-141795238D01*
X203907142Y-141833333D01*
X203716666Y-141833333D01*
X203564285Y-141795238D01*
X203488095Y-141757142D01*
X203450000Y-141719047D01*
X203411904Y-141642857D01*
X204211904Y-141109523D02*
X203678571Y-140690476D01*
X203678571Y-141109523D02*
X204211904Y-140690476D01*
X204211904Y-140004761D02*
X204211904Y-140385714D01*
X203411904Y-140385714D01*
X204135714Y-139280952D02*
X204173809Y-139319047D01*
X204211904Y-139433333D01*
X204211904Y-139509523D01*
X204173809Y-139623809D01*
X204097619Y-139700000D01*
X204021428Y-139738095D01*
X203869047Y-139776190D01*
X203754761Y-139776190D01*
X203602380Y-139738095D01*
X203526190Y-139700000D01*
X203450000Y-139623809D01*
X203411904Y-139509523D01*
X203411904Y-139433333D01*
X203450000Y-139319047D01*
X203488095Y-139280952D01*
M02*
