G04 #@! TF.GenerationSoftware,KiCad,Pcbnew,5.1.6-c6e7f7d~86~ubuntu18.04.1*
G04 #@! TF.CreationDate,2020-05-23T21:04:01+02:00*
G04 #@! TF.ProjectId,sci2can,73636932-6361-46e2-9e6b-696361645f70,1.00*
G04 #@! TF.SameCoordinates,Original*
G04 #@! TF.FileFunction,Soldermask,Top*
G04 #@! TF.FilePolarity,Negative*
%FSLAX46Y46*%
G04 Gerber Fmt 4.6, Leading zero omitted, Abs format (unit mm)*
G04 Created by KiCad (PCBNEW 5.1.6-c6e7f7d~86~ubuntu18.04.1) date 2020-05-23 21:04:01*
%MOMM*%
%LPD*%
G01*
G04 APERTURE LIST*
%ADD10C,0.100000*%
G04 APERTURE END LIST*
D10*
G36*
X214594072Y-158350918D02*
G01*
X214839939Y-158452759D01*
X215061212Y-158600610D01*
X215249390Y-158788788D01*
X215397241Y-159010061D01*
X215499082Y-159255928D01*
X215551000Y-159516938D01*
X215551000Y-159783062D01*
X215499082Y-160044072D01*
X215397241Y-160289939D01*
X215249390Y-160511212D01*
X215061212Y-160699390D01*
X214839939Y-160847241D01*
X214839938Y-160847242D01*
X214839937Y-160847242D01*
X214594072Y-160949082D01*
X214333063Y-161001000D01*
X214066937Y-161001000D01*
X213805928Y-160949082D01*
X213560063Y-160847242D01*
X213560062Y-160847242D01*
X213560061Y-160847241D01*
X213338788Y-160699390D01*
X213150610Y-160511212D01*
X213002759Y-160289939D01*
X212900918Y-160044072D01*
X212849000Y-159783062D01*
X212849000Y-159516938D01*
X212900918Y-159255928D01*
X213002759Y-159010061D01*
X213150610Y-158788788D01*
X213338788Y-158600610D01*
X213560061Y-158452759D01*
X213805928Y-158350918D01*
X214066937Y-158299000D01*
X214333063Y-158299000D01*
X214594072Y-158350918D01*
G37*
G36*
X209594072Y-158350918D02*
G01*
X209839939Y-158452759D01*
X210061212Y-158600610D01*
X210249390Y-158788788D01*
X210397241Y-159010061D01*
X210499082Y-159255928D01*
X210551000Y-159516938D01*
X210551000Y-159783062D01*
X210499082Y-160044072D01*
X210397241Y-160289939D01*
X210249390Y-160511212D01*
X210061212Y-160699390D01*
X209839939Y-160847241D01*
X209839938Y-160847242D01*
X209839937Y-160847242D01*
X209594072Y-160949082D01*
X209333063Y-161001000D01*
X209066937Y-161001000D01*
X208805928Y-160949082D01*
X208560063Y-160847242D01*
X208560062Y-160847242D01*
X208560061Y-160847241D01*
X208338788Y-160699390D01*
X208150610Y-160511212D01*
X208002759Y-160289939D01*
X207900918Y-160044072D01*
X207849000Y-159783062D01*
X207849000Y-159516938D01*
X207900918Y-159255928D01*
X208002759Y-159010061D01*
X208150610Y-158788788D01*
X208338788Y-158600610D01*
X208560061Y-158452759D01*
X208805928Y-158350918D01*
X209066937Y-158299000D01*
X209333063Y-158299000D01*
X209594072Y-158350918D01*
G37*
G36*
X204594072Y-158350918D02*
G01*
X204839939Y-158452759D01*
X205061212Y-158600610D01*
X205249390Y-158788788D01*
X205397241Y-159010061D01*
X205499082Y-159255928D01*
X205551000Y-159516938D01*
X205551000Y-159783062D01*
X205499082Y-160044072D01*
X205397241Y-160289939D01*
X205249390Y-160511212D01*
X205061212Y-160699390D01*
X204839939Y-160847241D01*
X204839938Y-160847242D01*
X204839937Y-160847242D01*
X204594072Y-160949082D01*
X204333063Y-161001000D01*
X204066937Y-161001000D01*
X203805928Y-160949082D01*
X203560063Y-160847242D01*
X203560062Y-160847242D01*
X203560061Y-160847241D01*
X203338788Y-160699390D01*
X203150610Y-160511212D01*
X203002759Y-160289939D01*
X202900918Y-160044072D01*
X202849000Y-159783062D01*
X202849000Y-159516938D01*
X202900918Y-159255928D01*
X203002759Y-159010061D01*
X203150610Y-158788788D01*
X203338788Y-158600610D01*
X203560061Y-158452759D01*
X203805928Y-158350918D01*
X204066937Y-158299000D01*
X204333063Y-158299000D01*
X204594072Y-158350918D01*
G37*
G36*
X200551000Y-161001000D02*
G01*
X197849000Y-161001000D01*
X197849000Y-158299000D01*
X200551000Y-158299000D01*
X200551000Y-161001000D01*
G37*
G36*
X224594072Y-158350918D02*
G01*
X224839939Y-158452759D01*
X225061212Y-158600610D01*
X225249390Y-158788788D01*
X225397241Y-159010061D01*
X225499082Y-159255928D01*
X225551000Y-159516938D01*
X225551000Y-159783062D01*
X225499082Y-160044072D01*
X225397241Y-160289939D01*
X225249390Y-160511212D01*
X225061212Y-160699390D01*
X224839939Y-160847241D01*
X224839938Y-160847242D01*
X224839937Y-160847242D01*
X224594072Y-160949082D01*
X224333063Y-161001000D01*
X224066937Y-161001000D01*
X223805928Y-160949082D01*
X223560063Y-160847242D01*
X223560062Y-160847242D01*
X223560061Y-160847241D01*
X223338788Y-160699390D01*
X223150610Y-160511212D01*
X223002759Y-160289939D01*
X222900918Y-160044072D01*
X222849000Y-159783062D01*
X222849000Y-159516938D01*
X222900918Y-159255928D01*
X223002759Y-159010061D01*
X223150610Y-158788788D01*
X223338788Y-158600610D01*
X223560061Y-158452759D01*
X223805928Y-158350918D01*
X224066937Y-158299000D01*
X224333063Y-158299000D01*
X224594072Y-158350918D01*
G37*
G36*
X219594072Y-158350918D02*
G01*
X219839939Y-158452759D01*
X220061212Y-158600610D01*
X220249390Y-158788788D01*
X220397241Y-159010061D01*
X220499082Y-159255928D01*
X220551000Y-159516938D01*
X220551000Y-159783062D01*
X220499082Y-160044072D01*
X220397241Y-160289939D01*
X220249390Y-160511212D01*
X220061212Y-160699390D01*
X219839939Y-160847241D01*
X219839938Y-160847242D01*
X219839937Y-160847242D01*
X219594072Y-160949082D01*
X219333063Y-161001000D01*
X219066937Y-161001000D01*
X218805928Y-160949082D01*
X218560063Y-160847242D01*
X218560062Y-160847242D01*
X218560061Y-160847241D01*
X218338788Y-160699390D01*
X218150610Y-160511212D01*
X218002759Y-160289939D01*
X217900918Y-160044072D01*
X217849000Y-159783062D01*
X217849000Y-159516938D01*
X217900918Y-159255928D01*
X218002759Y-159010061D01*
X218150610Y-158788788D01*
X218338788Y-158600610D01*
X218560061Y-158452759D01*
X218805928Y-158350918D01*
X219066937Y-158299000D01*
X219333063Y-158299000D01*
X219594072Y-158350918D01*
G37*
G36*
X224626719Y-151413520D02*
G01*
X224768989Y-151456677D01*
X224815883Y-151470902D01*
X224872192Y-151501000D01*
X224990212Y-151564083D01*
X225143015Y-151689485D01*
X225268417Y-151842288D01*
X225361599Y-152016619D01*
X225418980Y-152205780D01*
X225433500Y-152353206D01*
X225433500Y-152546793D01*
X225418980Y-152694219D01*
X225361599Y-152883380D01*
X225361598Y-152883383D01*
X225312182Y-152975833D01*
X225268417Y-153057712D01*
X225143015Y-153210515D01*
X224990212Y-153335917D01*
X224815881Y-153429099D01*
X224626720Y-153486480D01*
X224430000Y-153505855D01*
X224233281Y-153486480D01*
X224044120Y-153429099D01*
X223869788Y-153335917D01*
X223716985Y-153210515D01*
X223591583Y-153057712D01*
X223498401Y-152883381D01*
X223441020Y-152694220D01*
X223426500Y-152546794D01*
X223426500Y-152353207D01*
X223441020Y-152205781D01*
X223498401Y-152016620D01*
X223498402Y-152016617D01*
X223547818Y-151924167D01*
X223591583Y-151842288D01*
X223716985Y-151689485D01*
X223869788Y-151564083D01*
X224044119Y-151470901D01*
X224233280Y-151413520D01*
X224430000Y-151394145D01*
X224626719Y-151413520D01*
G37*
G36*
X222086719Y-151413520D02*
G01*
X222228989Y-151456677D01*
X222275883Y-151470902D01*
X222332192Y-151501000D01*
X222450212Y-151564083D01*
X222603015Y-151689485D01*
X222728417Y-151842288D01*
X222821599Y-152016619D01*
X222878980Y-152205780D01*
X222893500Y-152353206D01*
X222893500Y-152546793D01*
X222878980Y-152694219D01*
X222821599Y-152883380D01*
X222821598Y-152883383D01*
X222772182Y-152975833D01*
X222728417Y-153057712D01*
X222603015Y-153210515D01*
X222450212Y-153335917D01*
X222275881Y-153429099D01*
X222086720Y-153486480D01*
X221890000Y-153505855D01*
X221693281Y-153486480D01*
X221504120Y-153429099D01*
X221329788Y-153335917D01*
X221176985Y-153210515D01*
X221051583Y-153057712D01*
X220958401Y-152883381D01*
X220901020Y-152694220D01*
X220886500Y-152546794D01*
X220886500Y-152353207D01*
X220901020Y-152205781D01*
X220958401Y-152016620D01*
X220958402Y-152016617D01*
X221007818Y-151924167D01*
X221051583Y-151842288D01*
X221176985Y-151689485D01*
X221329788Y-151564083D01*
X221504119Y-151470901D01*
X221693280Y-151413520D01*
X221890000Y-151394145D01*
X222086719Y-151413520D01*
G37*
G36*
X220353500Y-153501000D02*
G01*
X218346500Y-153501000D01*
X218346500Y-151399000D01*
X220353500Y-151399000D01*
X220353500Y-153501000D01*
G37*
G36*
X204451000Y-153301000D02*
G01*
X203549000Y-153301000D01*
X203549000Y-152299000D01*
X204451000Y-152299000D01*
X204451000Y-153301000D01*
G37*
G36*
X207714499Y-152103445D02*
G01*
X207751995Y-152114820D01*
X207786554Y-152133292D01*
X207816847Y-152158153D01*
X207841708Y-152188446D01*
X207860180Y-152223005D01*
X207871555Y-152260501D01*
X207876000Y-152305638D01*
X207876000Y-153044362D01*
X207871555Y-153089499D01*
X207860180Y-153126995D01*
X207841708Y-153161554D01*
X207816847Y-153191847D01*
X207786554Y-153216708D01*
X207751995Y-153235180D01*
X207714499Y-153246555D01*
X207669362Y-153251000D01*
X207030638Y-153251000D01*
X206985501Y-153246555D01*
X206948005Y-153235180D01*
X206913446Y-153216708D01*
X206883153Y-153191847D01*
X206858292Y-153161554D01*
X206839820Y-153126995D01*
X206828445Y-153089499D01*
X206824000Y-153044362D01*
X206824000Y-152305638D01*
X206828445Y-152260501D01*
X206839820Y-152223005D01*
X206858292Y-152188446D01*
X206883153Y-152158153D01*
X206913446Y-152133292D01*
X206948005Y-152114820D01*
X206985501Y-152103445D01*
X207030638Y-152099000D01*
X207669362Y-152099000D01*
X207714499Y-152103445D01*
G37*
G36*
X211701000Y-152651000D02*
G01*
X209099000Y-152651000D01*
X209099000Y-150249000D01*
X211701000Y-150249000D01*
X211701000Y-152651000D01*
G37*
G36*
X216001000Y-152651000D02*
G01*
X213399000Y-152651000D01*
X213399000Y-150249000D01*
X216001000Y-150249000D01*
X216001000Y-152651000D01*
G37*
G36*
X207714499Y-150353445D02*
G01*
X207751995Y-150364820D01*
X207786554Y-150383292D01*
X207816847Y-150408153D01*
X207841708Y-150438446D01*
X207860180Y-150473005D01*
X207871555Y-150510501D01*
X207876000Y-150555638D01*
X207876000Y-151294362D01*
X207871555Y-151339499D01*
X207860180Y-151376995D01*
X207841708Y-151411554D01*
X207816847Y-151441847D01*
X207786554Y-151466708D01*
X207751995Y-151485180D01*
X207714499Y-151496555D01*
X207669362Y-151501000D01*
X207030638Y-151501000D01*
X206985501Y-151496555D01*
X206948005Y-151485180D01*
X206913446Y-151466708D01*
X206883153Y-151441847D01*
X206858292Y-151411554D01*
X206839820Y-151376995D01*
X206828445Y-151339499D01*
X206824000Y-151294362D01*
X206824000Y-150555638D01*
X206828445Y-150510501D01*
X206839820Y-150473005D01*
X206858292Y-150438446D01*
X206883153Y-150408153D01*
X206913446Y-150383292D01*
X206948005Y-150364820D01*
X206985501Y-150353445D01*
X207030638Y-150349000D01*
X207669362Y-150349000D01*
X207714499Y-150353445D01*
G37*
G36*
X203501000Y-151301000D02*
G01*
X202599000Y-151301000D01*
X202599000Y-150299000D01*
X203501000Y-150299000D01*
X203501000Y-151301000D01*
G37*
G36*
X205401000Y-151301000D02*
G01*
X204499000Y-151301000D01*
X204499000Y-150299000D01*
X205401000Y-150299000D01*
X205401000Y-151301000D01*
G37*
G36*
X202314928Y-147001764D02*
G01*
X202336009Y-147008160D01*
X202355445Y-147018548D01*
X202372476Y-147032524D01*
X202386452Y-147049555D01*
X202396840Y-147068991D01*
X202403236Y-147090072D01*
X202406000Y-147118140D01*
X202406000Y-148931860D01*
X202403236Y-148959928D01*
X202396840Y-148981009D01*
X202386452Y-149000445D01*
X202372476Y-149017476D01*
X202355445Y-149031452D01*
X202336009Y-149041840D01*
X202314928Y-149048236D01*
X202286860Y-149051000D01*
X201823140Y-149051000D01*
X201795072Y-149048236D01*
X201773991Y-149041840D01*
X201754555Y-149031452D01*
X201737524Y-149017476D01*
X201723548Y-149000445D01*
X201713160Y-148981009D01*
X201706764Y-148959928D01*
X201704000Y-148931860D01*
X201704000Y-147118140D01*
X201706764Y-147090072D01*
X201713160Y-147068991D01*
X201723548Y-147049555D01*
X201737524Y-147032524D01*
X201754555Y-147018548D01*
X201773991Y-147008160D01*
X201795072Y-147001764D01*
X201823140Y-146999000D01*
X202286860Y-146999000D01*
X202314928Y-147001764D01*
G37*
G36*
X198504928Y-147001764D02*
G01*
X198526009Y-147008160D01*
X198545445Y-147018548D01*
X198562476Y-147032524D01*
X198576452Y-147049555D01*
X198586840Y-147068991D01*
X198593236Y-147090072D01*
X198596000Y-147118140D01*
X198596000Y-148931860D01*
X198593236Y-148959928D01*
X198586840Y-148981009D01*
X198576452Y-149000445D01*
X198562476Y-149017476D01*
X198545445Y-149031452D01*
X198526009Y-149041840D01*
X198504928Y-149048236D01*
X198476860Y-149051000D01*
X198013140Y-149051000D01*
X197985072Y-149048236D01*
X197963991Y-149041840D01*
X197944555Y-149031452D01*
X197927524Y-149017476D01*
X197913548Y-149000445D01*
X197903160Y-148981009D01*
X197896764Y-148959928D01*
X197894000Y-148931860D01*
X197894000Y-147118140D01*
X197896764Y-147090072D01*
X197903160Y-147068991D01*
X197913548Y-147049555D01*
X197927524Y-147032524D01*
X197944555Y-147018548D01*
X197963991Y-147008160D01*
X197985072Y-147001764D01*
X198013140Y-146999000D01*
X198476860Y-146999000D01*
X198504928Y-147001764D01*
G37*
G36*
X199774928Y-147001764D02*
G01*
X199796009Y-147008160D01*
X199815445Y-147018548D01*
X199832476Y-147032524D01*
X199846452Y-147049555D01*
X199856840Y-147068991D01*
X199863236Y-147090072D01*
X199866000Y-147118140D01*
X199866000Y-148931860D01*
X199863236Y-148959928D01*
X199856840Y-148981009D01*
X199846452Y-149000445D01*
X199832476Y-149017476D01*
X199815445Y-149031452D01*
X199796009Y-149041840D01*
X199774928Y-149048236D01*
X199746860Y-149051000D01*
X199283140Y-149051000D01*
X199255072Y-149048236D01*
X199233991Y-149041840D01*
X199214555Y-149031452D01*
X199197524Y-149017476D01*
X199183548Y-149000445D01*
X199173160Y-148981009D01*
X199166764Y-148959928D01*
X199164000Y-148931860D01*
X199164000Y-147118140D01*
X199166764Y-147090072D01*
X199173160Y-147068991D01*
X199183548Y-147049555D01*
X199197524Y-147032524D01*
X199214555Y-147018548D01*
X199233991Y-147008160D01*
X199255072Y-147001764D01*
X199283140Y-146999000D01*
X199746860Y-146999000D01*
X199774928Y-147001764D01*
G37*
G36*
X201044928Y-147001764D02*
G01*
X201066009Y-147008160D01*
X201085445Y-147018548D01*
X201102476Y-147032524D01*
X201116452Y-147049555D01*
X201126840Y-147068991D01*
X201133236Y-147090072D01*
X201136000Y-147118140D01*
X201136000Y-148931860D01*
X201133236Y-148959928D01*
X201126840Y-148981009D01*
X201116452Y-149000445D01*
X201102476Y-149017476D01*
X201085445Y-149031452D01*
X201066009Y-149041840D01*
X201044928Y-149048236D01*
X201016860Y-149051000D01*
X200553140Y-149051000D01*
X200525072Y-149048236D01*
X200503991Y-149041840D01*
X200484555Y-149031452D01*
X200467524Y-149017476D01*
X200453548Y-149000445D01*
X200443160Y-148981009D01*
X200436764Y-148959928D01*
X200434000Y-148931860D01*
X200434000Y-147118140D01*
X200436764Y-147090072D01*
X200443160Y-147068991D01*
X200453548Y-147049555D01*
X200467524Y-147032524D01*
X200484555Y-147018548D01*
X200503991Y-147008160D01*
X200525072Y-147001764D01*
X200553140Y-146999000D01*
X201016860Y-146999000D01*
X201044928Y-147001764D01*
G37*
G36*
X207180051Y-147326284D02*
G01*
X207196443Y-147331257D01*
X207211555Y-147339334D01*
X207224798Y-147350202D01*
X207235667Y-147363447D01*
X207239761Y-147371106D01*
X207253374Y-147391480D01*
X207270701Y-147408807D01*
X207291076Y-147422421D01*
X207313714Y-147431798D01*
X207337748Y-147436579D01*
X207362252Y-147436579D01*
X207386285Y-147431799D01*
X207408924Y-147422421D01*
X207429298Y-147408808D01*
X207446625Y-147391481D01*
X207460239Y-147371106D01*
X207464333Y-147363447D01*
X207475202Y-147350202D01*
X207488445Y-147339334D01*
X207503557Y-147331257D01*
X207519949Y-147326284D01*
X207543141Y-147324000D01*
X207956859Y-147324000D01*
X207980051Y-147326284D01*
X207996443Y-147331257D01*
X208011555Y-147339334D01*
X208024798Y-147350202D01*
X208035667Y-147363447D01*
X208039761Y-147371106D01*
X208053374Y-147391480D01*
X208070701Y-147408807D01*
X208091076Y-147422421D01*
X208113714Y-147431798D01*
X208137748Y-147436579D01*
X208162252Y-147436579D01*
X208186285Y-147431799D01*
X208208924Y-147422421D01*
X208229298Y-147408808D01*
X208246625Y-147391481D01*
X208260239Y-147371106D01*
X208264333Y-147363447D01*
X208275202Y-147350202D01*
X208288445Y-147339334D01*
X208303557Y-147331257D01*
X208319949Y-147326284D01*
X208343141Y-147324000D01*
X208756859Y-147324000D01*
X208780051Y-147326284D01*
X208796443Y-147331257D01*
X208811555Y-147339334D01*
X208824798Y-147350202D01*
X208835667Y-147363447D01*
X208839761Y-147371106D01*
X208853374Y-147391480D01*
X208870701Y-147408807D01*
X208891076Y-147422421D01*
X208913714Y-147431798D01*
X208937748Y-147436579D01*
X208962252Y-147436579D01*
X208986285Y-147431799D01*
X209008924Y-147422421D01*
X209029298Y-147408808D01*
X209046625Y-147391481D01*
X209060239Y-147371106D01*
X209064333Y-147363447D01*
X209075202Y-147350202D01*
X209088445Y-147339334D01*
X209103557Y-147331257D01*
X209119949Y-147326284D01*
X209143141Y-147324000D01*
X209556859Y-147324000D01*
X209580051Y-147326284D01*
X209596443Y-147331257D01*
X209611555Y-147339334D01*
X209624798Y-147350202D01*
X209635667Y-147363447D01*
X209639761Y-147371106D01*
X209653374Y-147391480D01*
X209670701Y-147408807D01*
X209691076Y-147422421D01*
X209713714Y-147431798D01*
X209737748Y-147436579D01*
X209762252Y-147436579D01*
X209786285Y-147431799D01*
X209808924Y-147422421D01*
X209829298Y-147408808D01*
X209846625Y-147391481D01*
X209860239Y-147371106D01*
X209864333Y-147363447D01*
X209875202Y-147350202D01*
X209888445Y-147339334D01*
X209903557Y-147331257D01*
X209919949Y-147326284D01*
X209943141Y-147324000D01*
X210356859Y-147324000D01*
X210380051Y-147326284D01*
X210396443Y-147331257D01*
X210411555Y-147339334D01*
X210424798Y-147350202D01*
X210435667Y-147363447D01*
X210439761Y-147371106D01*
X210453374Y-147391480D01*
X210470701Y-147408807D01*
X210491076Y-147422421D01*
X210513714Y-147431798D01*
X210537748Y-147436579D01*
X210562252Y-147436579D01*
X210586285Y-147431799D01*
X210608924Y-147422421D01*
X210629298Y-147408808D01*
X210646625Y-147391481D01*
X210660239Y-147371106D01*
X210664333Y-147363447D01*
X210675202Y-147350202D01*
X210688445Y-147339334D01*
X210703557Y-147331257D01*
X210719949Y-147326284D01*
X210743141Y-147324000D01*
X211156859Y-147324000D01*
X211180051Y-147326284D01*
X211196443Y-147331257D01*
X211211555Y-147339334D01*
X211224798Y-147350202D01*
X211235667Y-147363447D01*
X211239761Y-147371106D01*
X211253374Y-147391480D01*
X211270701Y-147408807D01*
X211291076Y-147422421D01*
X211313714Y-147431798D01*
X211337748Y-147436579D01*
X211362252Y-147436579D01*
X211386285Y-147431799D01*
X211408924Y-147422421D01*
X211429298Y-147408808D01*
X211446625Y-147391481D01*
X211460239Y-147371106D01*
X211464333Y-147363447D01*
X211475202Y-147350202D01*
X211488445Y-147339334D01*
X211503557Y-147331257D01*
X211519949Y-147326284D01*
X211543141Y-147324000D01*
X211956859Y-147324000D01*
X211980051Y-147326284D01*
X211996443Y-147331257D01*
X212011555Y-147339334D01*
X212024798Y-147350202D01*
X212035667Y-147363447D01*
X212039761Y-147371106D01*
X212053374Y-147391480D01*
X212070701Y-147408807D01*
X212091076Y-147422421D01*
X212113714Y-147431798D01*
X212137748Y-147436579D01*
X212162252Y-147436579D01*
X212186285Y-147431799D01*
X212208924Y-147422421D01*
X212229298Y-147408808D01*
X212246625Y-147391481D01*
X212260239Y-147371106D01*
X212264333Y-147363447D01*
X212275202Y-147350202D01*
X212288445Y-147339334D01*
X212303557Y-147331257D01*
X212319949Y-147326284D01*
X212343141Y-147324000D01*
X212756859Y-147324000D01*
X212780051Y-147326284D01*
X212796443Y-147331257D01*
X212811555Y-147339334D01*
X212824798Y-147350202D01*
X212835666Y-147363445D01*
X212843743Y-147378557D01*
X212848716Y-147394949D01*
X212851000Y-147418141D01*
X212851000Y-148831859D01*
X212848716Y-148855051D01*
X212843743Y-148871443D01*
X212835666Y-148886555D01*
X212824798Y-148899798D01*
X212811555Y-148910666D01*
X212796443Y-148918743D01*
X212780051Y-148923716D01*
X212756859Y-148926000D01*
X212343141Y-148926000D01*
X212319949Y-148923716D01*
X212303557Y-148918743D01*
X212288445Y-148910666D01*
X212275202Y-148899798D01*
X212264333Y-148886553D01*
X212260239Y-148878894D01*
X212246626Y-148858520D01*
X212229299Y-148841193D01*
X212208924Y-148827579D01*
X212186286Y-148818202D01*
X212162252Y-148813421D01*
X212137748Y-148813421D01*
X212113715Y-148818201D01*
X212091076Y-148827579D01*
X212070702Y-148841192D01*
X212053375Y-148858519D01*
X212039761Y-148878894D01*
X212035667Y-148886553D01*
X212024798Y-148899798D01*
X212011555Y-148910666D01*
X211996443Y-148918743D01*
X211980051Y-148923716D01*
X211956859Y-148926000D01*
X211543141Y-148926000D01*
X211519949Y-148923716D01*
X211503557Y-148918743D01*
X211488445Y-148910666D01*
X211475202Y-148899798D01*
X211464333Y-148886553D01*
X211460239Y-148878894D01*
X211446626Y-148858520D01*
X211429299Y-148841193D01*
X211408924Y-148827579D01*
X211386286Y-148818202D01*
X211362252Y-148813421D01*
X211337748Y-148813421D01*
X211313715Y-148818201D01*
X211291076Y-148827579D01*
X211270702Y-148841192D01*
X211253375Y-148858519D01*
X211239761Y-148878894D01*
X211235667Y-148886553D01*
X211224798Y-148899798D01*
X211211555Y-148910666D01*
X211196443Y-148918743D01*
X211180051Y-148923716D01*
X211156859Y-148926000D01*
X210743141Y-148926000D01*
X210719949Y-148923716D01*
X210703557Y-148918743D01*
X210688445Y-148910666D01*
X210675202Y-148899798D01*
X210664333Y-148886553D01*
X210660239Y-148878894D01*
X210646626Y-148858520D01*
X210629299Y-148841193D01*
X210608924Y-148827579D01*
X210586286Y-148818202D01*
X210562252Y-148813421D01*
X210537748Y-148813421D01*
X210513715Y-148818201D01*
X210491076Y-148827579D01*
X210470702Y-148841192D01*
X210453375Y-148858519D01*
X210439761Y-148878894D01*
X210435667Y-148886553D01*
X210424798Y-148899798D01*
X210411555Y-148910666D01*
X210396443Y-148918743D01*
X210380051Y-148923716D01*
X210356859Y-148926000D01*
X209943141Y-148926000D01*
X209919949Y-148923716D01*
X209903557Y-148918743D01*
X209888445Y-148910666D01*
X209875202Y-148899798D01*
X209864333Y-148886553D01*
X209860239Y-148878894D01*
X209846626Y-148858520D01*
X209829299Y-148841193D01*
X209808924Y-148827579D01*
X209786286Y-148818202D01*
X209762252Y-148813421D01*
X209737748Y-148813421D01*
X209713715Y-148818201D01*
X209691076Y-148827579D01*
X209670702Y-148841192D01*
X209653375Y-148858519D01*
X209639761Y-148878894D01*
X209635667Y-148886553D01*
X209624798Y-148899798D01*
X209611555Y-148910666D01*
X209596443Y-148918743D01*
X209580051Y-148923716D01*
X209556859Y-148926000D01*
X209143141Y-148926000D01*
X209119949Y-148923716D01*
X209103557Y-148918743D01*
X209088445Y-148910666D01*
X209075202Y-148899798D01*
X209064333Y-148886553D01*
X209060239Y-148878894D01*
X209046626Y-148858520D01*
X209029299Y-148841193D01*
X209008924Y-148827579D01*
X208986286Y-148818202D01*
X208962252Y-148813421D01*
X208937748Y-148813421D01*
X208913715Y-148818201D01*
X208891076Y-148827579D01*
X208870702Y-148841192D01*
X208853375Y-148858519D01*
X208839761Y-148878894D01*
X208835667Y-148886553D01*
X208824798Y-148899798D01*
X208811555Y-148910666D01*
X208796443Y-148918743D01*
X208780051Y-148923716D01*
X208756859Y-148926000D01*
X208343141Y-148926000D01*
X208319949Y-148923716D01*
X208303557Y-148918743D01*
X208288445Y-148910666D01*
X208275202Y-148899798D01*
X208264333Y-148886553D01*
X208260239Y-148878894D01*
X208246626Y-148858520D01*
X208229299Y-148841193D01*
X208208924Y-148827579D01*
X208186286Y-148818202D01*
X208162252Y-148813421D01*
X208137748Y-148813421D01*
X208113715Y-148818201D01*
X208091076Y-148827579D01*
X208070702Y-148841192D01*
X208053375Y-148858519D01*
X208039761Y-148878894D01*
X208035667Y-148886553D01*
X208024798Y-148899798D01*
X208011555Y-148910666D01*
X207996443Y-148918743D01*
X207980051Y-148923716D01*
X207956859Y-148926000D01*
X207543141Y-148926000D01*
X207519949Y-148923716D01*
X207503557Y-148918743D01*
X207488445Y-148910666D01*
X207475202Y-148899798D01*
X207464333Y-148886553D01*
X207460239Y-148878894D01*
X207446626Y-148858520D01*
X207429299Y-148841193D01*
X207408924Y-148827579D01*
X207386286Y-148818202D01*
X207362252Y-148813421D01*
X207337748Y-148813421D01*
X207313715Y-148818201D01*
X207291076Y-148827579D01*
X207270702Y-148841192D01*
X207253375Y-148858519D01*
X207239761Y-148878894D01*
X207235667Y-148886553D01*
X207224798Y-148899798D01*
X207211555Y-148910666D01*
X207196443Y-148918743D01*
X207180051Y-148923716D01*
X207156859Y-148926000D01*
X206743141Y-148926000D01*
X206719949Y-148923716D01*
X206703557Y-148918743D01*
X206688445Y-148910666D01*
X206675202Y-148899798D01*
X206664334Y-148886555D01*
X206656257Y-148871443D01*
X206651284Y-148855051D01*
X206649000Y-148831859D01*
X206649000Y-147418141D01*
X206651284Y-147394949D01*
X206656257Y-147378557D01*
X206664334Y-147363445D01*
X206675202Y-147350202D01*
X206688445Y-147339334D01*
X206703557Y-147331257D01*
X206719949Y-147326284D01*
X206743141Y-147324000D01*
X207156859Y-147324000D01*
X207180051Y-147326284D01*
G37*
G36*
X206305051Y-140851284D02*
G01*
X206321443Y-140856257D01*
X206336555Y-140864334D01*
X206349798Y-140875202D01*
X206360666Y-140888445D01*
X206368743Y-140903557D01*
X206373716Y-140919949D01*
X206376000Y-140943141D01*
X206376000Y-141356859D01*
X206373716Y-141380051D01*
X206368743Y-141396443D01*
X206360666Y-141411555D01*
X206349798Y-141424798D01*
X206336553Y-141435667D01*
X206328894Y-141439761D01*
X206308520Y-141453374D01*
X206291193Y-141470701D01*
X206277579Y-141491076D01*
X206268202Y-141513714D01*
X206263421Y-141537748D01*
X206263421Y-141562252D01*
X206268201Y-141586285D01*
X206277579Y-141608924D01*
X206291192Y-141629298D01*
X206308519Y-141646625D01*
X206328894Y-141660239D01*
X206336553Y-141664333D01*
X206349798Y-141675202D01*
X206360666Y-141688445D01*
X206368743Y-141703557D01*
X206373716Y-141719949D01*
X206376000Y-141743141D01*
X206376000Y-142156859D01*
X206373716Y-142180051D01*
X206368743Y-142196443D01*
X206360666Y-142211555D01*
X206349798Y-142224798D01*
X206336553Y-142235667D01*
X206328894Y-142239761D01*
X206308520Y-142253374D01*
X206291193Y-142270701D01*
X206277579Y-142291076D01*
X206268202Y-142313714D01*
X206263421Y-142337748D01*
X206263421Y-142362252D01*
X206268201Y-142386285D01*
X206277579Y-142408924D01*
X206291192Y-142429298D01*
X206308519Y-142446625D01*
X206328894Y-142460239D01*
X206336553Y-142464333D01*
X206349798Y-142475202D01*
X206360666Y-142488445D01*
X206368743Y-142503557D01*
X206373716Y-142519949D01*
X206376000Y-142543141D01*
X206376000Y-142956859D01*
X206373716Y-142980051D01*
X206368743Y-142996443D01*
X206360666Y-143011555D01*
X206349798Y-143024798D01*
X206336553Y-143035667D01*
X206328894Y-143039761D01*
X206308520Y-143053374D01*
X206291193Y-143070701D01*
X206277579Y-143091076D01*
X206268202Y-143113714D01*
X206263421Y-143137748D01*
X206263421Y-143162252D01*
X206268201Y-143186285D01*
X206277579Y-143208924D01*
X206291192Y-143229298D01*
X206308519Y-143246625D01*
X206328894Y-143260239D01*
X206336553Y-143264333D01*
X206349798Y-143275202D01*
X206360666Y-143288445D01*
X206368743Y-143303557D01*
X206373716Y-143319949D01*
X206376000Y-143343141D01*
X206376000Y-143756859D01*
X206373716Y-143780051D01*
X206368743Y-143796443D01*
X206360666Y-143811555D01*
X206349798Y-143824798D01*
X206336553Y-143835667D01*
X206328894Y-143839761D01*
X206308520Y-143853374D01*
X206291193Y-143870701D01*
X206277579Y-143891076D01*
X206268202Y-143913714D01*
X206263421Y-143937748D01*
X206263421Y-143962252D01*
X206268201Y-143986285D01*
X206277579Y-144008924D01*
X206291192Y-144029298D01*
X206308519Y-144046625D01*
X206328894Y-144060239D01*
X206336553Y-144064333D01*
X206349798Y-144075202D01*
X206360666Y-144088445D01*
X206368743Y-144103557D01*
X206373716Y-144119949D01*
X206376000Y-144143141D01*
X206376000Y-144556859D01*
X206373716Y-144580051D01*
X206368743Y-144596443D01*
X206360666Y-144611555D01*
X206349798Y-144624798D01*
X206336553Y-144635667D01*
X206328894Y-144639761D01*
X206308520Y-144653374D01*
X206291193Y-144670701D01*
X206277579Y-144691076D01*
X206268202Y-144713714D01*
X206263421Y-144737748D01*
X206263421Y-144762252D01*
X206268201Y-144786285D01*
X206277579Y-144808924D01*
X206291192Y-144829298D01*
X206308519Y-144846625D01*
X206328894Y-144860239D01*
X206336553Y-144864333D01*
X206349798Y-144875202D01*
X206360666Y-144888445D01*
X206368743Y-144903557D01*
X206373716Y-144919949D01*
X206376000Y-144943141D01*
X206376000Y-145356859D01*
X206373716Y-145380051D01*
X206368743Y-145396443D01*
X206360666Y-145411555D01*
X206349798Y-145424798D01*
X206336553Y-145435667D01*
X206328894Y-145439761D01*
X206308520Y-145453374D01*
X206291193Y-145470701D01*
X206277579Y-145491076D01*
X206268202Y-145513714D01*
X206263421Y-145537748D01*
X206263421Y-145562252D01*
X206268201Y-145586285D01*
X206277579Y-145608924D01*
X206291192Y-145629298D01*
X206308519Y-145646625D01*
X206328894Y-145660239D01*
X206336553Y-145664333D01*
X206349798Y-145675202D01*
X206360666Y-145688445D01*
X206368743Y-145703557D01*
X206373716Y-145719949D01*
X206376000Y-145743141D01*
X206376000Y-146156859D01*
X206373716Y-146180051D01*
X206368743Y-146196443D01*
X206360666Y-146211555D01*
X206349798Y-146224798D01*
X206336553Y-146235667D01*
X206328894Y-146239761D01*
X206308520Y-146253374D01*
X206291193Y-146270701D01*
X206277579Y-146291076D01*
X206268202Y-146313714D01*
X206263421Y-146337748D01*
X206263421Y-146362252D01*
X206268201Y-146386285D01*
X206277579Y-146408924D01*
X206291192Y-146429298D01*
X206308519Y-146446625D01*
X206328894Y-146460239D01*
X206336553Y-146464333D01*
X206349798Y-146475202D01*
X206360666Y-146488445D01*
X206368743Y-146503557D01*
X206373716Y-146519949D01*
X206376000Y-146543141D01*
X206376000Y-146956859D01*
X206373716Y-146980051D01*
X206368743Y-146996443D01*
X206360666Y-147011555D01*
X206349798Y-147024798D01*
X206336555Y-147035666D01*
X206321443Y-147043743D01*
X206305051Y-147048716D01*
X206281859Y-147051000D01*
X204868141Y-147051000D01*
X204844949Y-147048716D01*
X204828557Y-147043743D01*
X204813445Y-147035666D01*
X204800202Y-147024798D01*
X204789334Y-147011555D01*
X204781257Y-146996443D01*
X204776284Y-146980051D01*
X204774000Y-146956859D01*
X204774000Y-146543141D01*
X204776284Y-146519949D01*
X204781257Y-146503557D01*
X204789334Y-146488445D01*
X204800202Y-146475202D01*
X204813447Y-146464333D01*
X204821106Y-146460239D01*
X204841480Y-146446626D01*
X204858807Y-146429299D01*
X204872421Y-146408924D01*
X204881798Y-146386286D01*
X204886579Y-146362252D01*
X204886579Y-146337748D01*
X204881799Y-146313715D01*
X204872421Y-146291076D01*
X204858808Y-146270702D01*
X204841481Y-146253375D01*
X204821106Y-146239761D01*
X204813447Y-146235667D01*
X204800202Y-146224798D01*
X204789334Y-146211555D01*
X204781257Y-146196443D01*
X204776284Y-146180051D01*
X204774000Y-146156859D01*
X204774000Y-145743141D01*
X204776284Y-145719949D01*
X204781257Y-145703557D01*
X204789334Y-145688445D01*
X204800202Y-145675202D01*
X204813447Y-145664333D01*
X204821106Y-145660239D01*
X204841480Y-145646626D01*
X204858807Y-145629299D01*
X204872421Y-145608924D01*
X204881798Y-145586286D01*
X204886579Y-145562252D01*
X204886579Y-145537748D01*
X204881799Y-145513715D01*
X204872421Y-145491076D01*
X204858808Y-145470702D01*
X204841481Y-145453375D01*
X204821106Y-145439761D01*
X204813447Y-145435667D01*
X204800202Y-145424798D01*
X204789334Y-145411555D01*
X204781257Y-145396443D01*
X204776284Y-145380051D01*
X204774000Y-145356859D01*
X204774000Y-144943141D01*
X204776284Y-144919949D01*
X204781257Y-144903557D01*
X204789334Y-144888445D01*
X204800202Y-144875202D01*
X204813447Y-144864333D01*
X204821106Y-144860239D01*
X204841480Y-144846626D01*
X204858807Y-144829299D01*
X204872421Y-144808924D01*
X204881798Y-144786286D01*
X204886579Y-144762252D01*
X204886579Y-144737748D01*
X204881799Y-144713715D01*
X204872421Y-144691076D01*
X204858808Y-144670702D01*
X204841481Y-144653375D01*
X204821106Y-144639761D01*
X204813447Y-144635667D01*
X204800202Y-144624798D01*
X204789334Y-144611555D01*
X204781257Y-144596443D01*
X204776284Y-144580051D01*
X204774000Y-144556859D01*
X204774000Y-144143141D01*
X204776284Y-144119949D01*
X204781257Y-144103557D01*
X204789334Y-144088445D01*
X204800202Y-144075202D01*
X204813447Y-144064333D01*
X204821106Y-144060239D01*
X204841480Y-144046626D01*
X204858807Y-144029299D01*
X204872421Y-144008924D01*
X204881798Y-143986286D01*
X204886579Y-143962252D01*
X204886579Y-143937748D01*
X204881799Y-143913715D01*
X204872421Y-143891076D01*
X204858808Y-143870702D01*
X204841481Y-143853375D01*
X204821106Y-143839761D01*
X204813447Y-143835667D01*
X204800202Y-143824798D01*
X204789334Y-143811555D01*
X204781257Y-143796443D01*
X204776284Y-143780051D01*
X204774000Y-143756859D01*
X204774000Y-143343141D01*
X204776284Y-143319949D01*
X204781257Y-143303557D01*
X204789334Y-143288445D01*
X204800202Y-143275202D01*
X204813447Y-143264333D01*
X204821106Y-143260239D01*
X204841480Y-143246626D01*
X204858807Y-143229299D01*
X204872421Y-143208924D01*
X204881798Y-143186286D01*
X204886579Y-143162252D01*
X204886579Y-143137748D01*
X204881799Y-143113715D01*
X204872421Y-143091076D01*
X204858808Y-143070702D01*
X204841481Y-143053375D01*
X204821106Y-143039761D01*
X204813447Y-143035667D01*
X204800202Y-143024798D01*
X204789334Y-143011555D01*
X204781257Y-142996443D01*
X204776284Y-142980051D01*
X204774000Y-142956859D01*
X204774000Y-142543141D01*
X204776284Y-142519949D01*
X204781257Y-142503557D01*
X204789334Y-142488445D01*
X204800202Y-142475202D01*
X204813447Y-142464333D01*
X204821106Y-142460239D01*
X204841480Y-142446626D01*
X204858807Y-142429299D01*
X204872421Y-142408924D01*
X204881798Y-142386286D01*
X204886579Y-142362252D01*
X204886579Y-142337748D01*
X204881799Y-142313715D01*
X204872421Y-142291076D01*
X204858808Y-142270702D01*
X204841481Y-142253375D01*
X204821106Y-142239761D01*
X204813447Y-142235667D01*
X204800202Y-142224798D01*
X204789334Y-142211555D01*
X204781257Y-142196443D01*
X204776284Y-142180051D01*
X204774000Y-142156859D01*
X204774000Y-141743141D01*
X204776284Y-141719949D01*
X204781257Y-141703557D01*
X204789334Y-141688445D01*
X204800202Y-141675202D01*
X204813447Y-141664333D01*
X204821106Y-141660239D01*
X204841480Y-141646626D01*
X204858807Y-141629299D01*
X204872421Y-141608924D01*
X204881798Y-141586286D01*
X204886579Y-141562252D01*
X204886579Y-141537748D01*
X204881799Y-141513715D01*
X204872421Y-141491076D01*
X204858808Y-141470702D01*
X204841481Y-141453375D01*
X204821106Y-141439761D01*
X204813447Y-141435667D01*
X204800202Y-141424798D01*
X204789334Y-141411555D01*
X204781257Y-141396443D01*
X204776284Y-141380051D01*
X204774000Y-141356859D01*
X204774000Y-140943141D01*
X204776284Y-140919949D01*
X204781257Y-140903557D01*
X204789334Y-140888445D01*
X204800202Y-140875202D01*
X204813445Y-140864334D01*
X204828557Y-140856257D01*
X204844949Y-140851284D01*
X204868141Y-140849000D01*
X206281859Y-140849000D01*
X206305051Y-140851284D01*
G37*
G36*
X214655051Y-140851284D02*
G01*
X214671443Y-140856257D01*
X214686555Y-140864334D01*
X214699798Y-140875202D01*
X214710666Y-140888445D01*
X214718743Y-140903557D01*
X214723716Y-140919949D01*
X214726000Y-140943141D01*
X214726000Y-141356859D01*
X214723716Y-141380051D01*
X214718743Y-141396443D01*
X214710666Y-141411555D01*
X214699798Y-141424798D01*
X214686553Y-141435667D01*
X214678894Y-141439761D01*
X214658520Y-141453374D01*
X214641193Y-141470701D01*
X214627579Y-141491076D01*
X214618202Y-141513714D01*
X214613421Y-141537748D01*
X214613421Y-141562252D01*
X214618201Y-141586285D01*
X214627579Y-141608924D01*
X214641192Y-141629298D01*
X214658519Y-141646625D01*
X214678894Y-141660239D01*
X214686553Y-141664333D01*
X214699798Y-141675202D01*
X214710666Y-141688445D01*
X214718743Y-141703557D01*
X214723716Y-141719949D01*
X214726000Y-141743141D01*
X214726000Y-142156859D01*
X214723716Y-142180051D01*
X214718743Y-142196443D01*
X214710666Y-142211555D01*
X214699798Y-142224798D01*
X214686553Y-142235667D01*
X214678894Y-142239761D01*
X214658520Y-142253374D01*
X214641193Y-142270701D01*
X214627579Y-142291076D01*
X214618202Y-142313714D01*
X214613421Y-142337748D01*
X214613421Y-142362252D01*
X214618201Y-142386285D01*
X214627579Y-142408924D01*
X214641192Y-142429298D01*
X214658519Y-142446625D01*
X214678894Y-142460239D01*
X214686553Y-142464333D01*
X214699798Y-142475202D01*
X214710666Y-142488445D01*
X214718743Y-142503557D01*
X214723716Y-142519949D01*
X214726000Y-142543141D01*
X214726000Y-142956859D01*
X214723716Y-142980051D01*
X214718743Y-142996443D01*
X214710666Y-143011555D01*
X214699798Y-143024798D01*
X214686553Y-143035667D01*
X214678894Y-143039761D01*
X214658520Y-143053374D01*
X214641193Y-143070701D01*
X214627579Y-143091076D01*
X214618202Y-143113714D01*
X214613421Y-143137748D01*
X214613421Y-143162252D01*
X214618201Y-143186285D01*
X214627579Y-143208924D01*
X214641192Y-143229298D01*
X214658519Y-143246625D01*
X214678894Y-143260239D01*
X214686553Y-143264333D01*
X214699798Y-143275202D01*
X214710666Y-143288445D01*
X214718743Y-143303557D01*
X214723716Y-143319949D01*
X214726000Y-143343141D01*
X214726000Y-143756859D01*
X214723716Y-143780051D01*
X214718743Y-143796443D01*
X214710666Y-143811555D01*
X214699798Y-143824798D01*
X214686553Y-143835667D01*
X214678894Y-143839761D01*
X214658520Y-143853374D01*
X214641193Y-143870701D01*
X214627579Y-143891076D01*
X214618202Y-143913714D01*
X214613421Y-143937748D01*
X214613421Y-143962252D01*
X214618201Y-143986285D01*
X214627579Y-144008924D01*
X214641192Y-144029298D01*
X214658519Y-144046625D01*
X214678894Y-144060239D01*
X214686553Y-144064333D01*
X214699798Y-144075202D01*
X214710666Y-144088445D01*
X214718743Y-144103557D01*
X214723716Y-144119949D01*
X214726000Y-144143141D01*
X214726000Y-144556859D01*
X214723716Y-144580051D01*
X214718743Y-144596443D01*
X214710666Y-144611555D01*
X214699798Y-144624798D01*
X214686553Y-144635667D01*
X214678894Y-144639761D01*
X214658520Y-144653374D01*
X214641193Y-144670701D01*
X214627579Y-144691076D01*
X214618202Y-144713714D01*
X214613421Y-144737748D01*
X214613421Y-144762252D01*
X214618201Y-144786285D01*
X214627579Y-144808924D01*
X214641192Y-144829298D01*
X214658519Y-144846625D01*
X214678894Y-144860239D01*
X214686553Y-144864333D01*
X214699798Y-144875202D01*
X214710666Y-144888445D01*
X214718743Y-144903557D01*
X214723716Y-144919949D01*
X214726000Y-144943141D01*
X214726000Y-145356859D01*
X214723716Y-145380051D01*
X214718743Y-145396443D01*
X214710666Y-145411555D01*
X214699798Y-145424798D01*
X214686553Y-145435667D01*
X214678894Y-145439761D01*
X214658520Y-145453374D01*
X214641193Y-145470701D01*
X214627579Y-145491076D01*
X214618202Y-145513714D01*
X214613421Y-145537748D01*
X214613421Y-145562252D01*
X214618201Y-145586285D01*
X214627579Y-145608924D01*
X214641192Y-145629298D01*
X214658519Y-145646625D01*
X214678894Y-145660239D01*
X214686553Y-145664333D01*
X214699798Y-145675202D01*
X214710666Y-145688445D01*
X214718743Y-145703557D01*
X214723716Y-145719949D01*
X214726000Y-145743141D01*
X214726000Y-146156859D01*
X214723716Y-146180051D01*
X214718743Y-146196443D01*
X214710666Y-146211555D01*
X214699798Y-146224798D01*
X214686553Y-146235667D01*
X214678894Y-146239761D01*
X214658520Y-146253374D01*
X214641193Y-146270701D01*
X214627579Y-146291076D01*
X214618202Y-146313714D01*
X214613421Y-146337748D01*
X214613421Y-146362252D01*
X214618201Y-146386285D01*
X214627579Y-146408924D01*
X214641192Y-146429298D01*
X214658519Y-146446625D01*
X214678894Y-146460239D01*
X214686553Y-146464333D01*
X214699798Y-146475202D01*
X214710666Y-146488445D01*
X214718743Y-146503557D01*
X214723716Y-146519949D01*
X214726000Y-146543141D01*
X214726000Y-146956859D01*
X214723716Y-146980051D01*
X214718743Y-146996443D01*
X214710666Y-147011555D01*
X214699798Y-147024798D01*
X214686555Y-147035666D01*
X214671443Y-147043743D01*
X214655051Y-147048716D01*
X214631859Y-147051000D01*
X213218141Y-147051000D01*
X213194949Y-147048716D01*
X213178557Y-147043743D01*
X213163445Y-147035666D01*
X213150202Y-147024798D01*
X213139334Y-147011555D01*
X213131257Y-146996443D01*
X213126284Y-146980051D01*
X213124000Y-146956859D01*
X213124000Y-146543141D01*
X213126284Y-146519949D01*
X213131257Y-146503557D01*
X213139334Y-146488445D01*
X213150202Y-146475202D01*
X213163447Y-146464333D01*
X213171106Y-146460239D01*
X213191480Y-146446626D01*
X213208807Y-146429299D01*
X213222421Y-146408924D01*
X213231798Y-146386286D01*
X213236579Y-146362252D01*
X213236579Y-146337748D01*
X213231799Y-146313715D01*
X213222421Y-146291076D01*
X213208808Y-146270702D01*
X213191481Y-146253375D01*
X213171106Y-146239761D01*
X213163447Y-146235667D01*
X213150202Y-146224798D01*
X213139334Y-146211555D01*
X213131257Y-146196443D01*
X213126284Y-146180051D01*
X213124000Y-146156859D01*
X213124000Y-145743141D01*
X213126284Y-145719949D01*
X213131257Y-145703557D01*
X213139334Y-145688445D01*
X213150202Y-145675202D01*
X213163447Y-145664333D01*
X213171106Y-145660239D01*
X213191480Y-145646626D01*
X213208807Y-145629299D01*
X213222421Y-145608924D01*
X213231798Y-145586286D01*
X213236579Y-145562252D01*
X213236579Y-145537748D01*
X213231799Y-145513715D01*
X213222421Y-145491076D01*
X213208808Y-145470702D01*
X213191481Y-145453375D01*
X213171106Y-145439761D01*
X213163447Y-145435667D01*
X213150202Y-145424798D01*
X213139334Y-145411555D01*
X213131257Y-145396443D01*
X213126284Y-145380051D01*
X213124000Y-145356859D01*
X213124000Y-144943141D01*
X213126284Y-144919949D01*
X213131257Y-144903557D01*
X213139334Y-144888445D01*
X213150202Y-144875202D01*
X213163447Y-144864333D01*
X213171106Y-144860239D01*
X213191480Y-144846626D01*
X213208807Y-144829299D01*
X213222421Y-144808924D01*
X213231798Y-144786286D01*
X213236579Y-144762252D01*
X213236579Y-144737748D01*
X213231799Y-144713715D01*
X213222421Y-144691076D01*
X213208808Y-144670702D01*
X213191481Y-144653375D01*
X213171106Y-144639761D01*
X213163447Y-144635667D01*
X213150202Y-144624798D01*
X213139334Y-144611555D01*
X213131257Y-144596443D01*
X213126284Y-144580051D01*
X213124000Y-144556859D01*
X213124000Y-144143141D01*
X213126284Y-144119949D01*
X213131257Y-144103557D01*
X213139334Y-144088445D01*
X213150202Y-144075202D01*
X213163447Y-144064333D01*
X213171106Y-144060239D01*
X213191480Y-144046626D01*
X213208807Y-144029299D01*
X213222421Y-144008924D01*
X213231798Y-143986286D01*
X213236579Y-143962252D01*
X213236579Y-143937748D01*
X213231799Y-143913715D01*
X213222421Y-143891076D01*
X213208808Y-143870702D01*
X213191481Y-143853375D01*
X213171106Y-143839761D01*
X213163447Y-143835667D01*
X213150202Y-143824798D01*
X213139334Y-143811555D01*
X213131257Y-143796443D01*
X213126284Y-143780051D01*
X213124000Y-143756859D01*
X213124000Y-143343141D01*
X213126284Y-143319949D01*
X213131257Y-143303557D01*
X213139334Y-143288445D01*
X213150202Y-143275202D01*
X213163447Y-143264333D01*
X213171106Y-143260239D01*
X213191480Y-143246626D01*
X213208807Y-143229299D01*
X213222421Y-143208924D01*
X213231798Y-143186286D01*
X213236579Y-143162252D01*
X213236579Y-143137748D01*
X213231799Y-143113715D01*
X213222421Y-143091076D01*
X213208808Y-143070702D01*
X213191481Y-143053375D01*
X213171106Y-143039761D01*
X213163447Y-143035667D01*
X213150202Y-143024798D01*
X213139334Y-143011555D01*
X213131257Y-142996443D01*
X213126284Y-142980051D01*
X213124000Y-142956859D01*
X213124000Y-142543141D01*
X213126284Y-142519949D01*
X213131257Y-142503557D01*
X213139334Y-142488445D01*
X213150202Y-142475202D01*
X213163447Y-142464333D01*
X213171106Y-142460239D01*
X213191480Y-142446626D01*
X213208807Y-142429299D01*
X213222421Y-142408924D01*
X213231798Y-142386286D01*
X213236579Y-142362252D01*
X213236579Y-142337748D01*
X213231799Y-142313715D01*
X213222421Y-142291076D01*
X213208808Y-142270702D01*
X213191481Y-142253375D01*
X213171106Y-142239761D01*
X213163447Y-142235667D01*
X213150202Y-142224798D01*
X213139334Y-142211555D01*
X213131257Y-142196443D01*
X213126284Y-142180051D01*
X213124000Y-142156859D01*
X213124000Y-141743141D01*
X213126284Y-141719949D01*
X213131257Y-141703557D01*
X213139334Y-141688445D01*
X213150202Y-141675202D01*
X213163447Y-141664333D01*
X213171106Y-141660239D01*
X213191480Y-141646626D01*
X213208807Y-141629299D01*
X213222421Y-141608924D01*
X213231798Y-141586286D01*
X213236579Y-141562252D01*
X213236579Y-141537748D01*
X213231799Y-141513715D01*
X213222421Y-141491076D01*
X213208808Y-141470702D01*
X213191481Y-141453375D01*
X213171106Y-141439761D01*
X213163447Y-141435667D01*
X213150202Y-141424798D01*
X213139334Y-141411555D01*
X213131257Y-141396443D01*
X213126284Y-141380051D01*
X213124000Y-141356859D01*
X213124000Y-140943141D01*
X213126284Y-140919949D01*
X213131257Y-140903557D01*
X213139334Y-140888445D01*
X213150202Y-140875202D01*
X213163445Y-140864334D01*
X213178557Y-140856257D01*
X213194949Y-140851284D01*
X213218141Y-140849000D01*
X214631859Y-140849000D01*
X214655051Y-140851284D01*
G37*
G36*
X198504928Y-142051764D02*
G01*
X198526009Y-142058160D01*
X198545445Y-142068548D01*
X198562476Y-142082524D01*
X198576452Y-142099555D01*
X198586840Y-142118991D01*
X198593236Y-142140072D01*
X198596000Y-142168140D01*
X198596000Y-143981860D01*
X198593236Y-144009928D01*
X198586840Y-144031009D01*
X198576452Y-144050445D01*
X198562476Y-144067476D01*
X198545445Y-144081452D01*
X198526009Y-144091840D01*
X198504928Y-144098236D01*
X198476860Y-144101000D01*
X198013140Y-144101000D01*
X197985072Y-144098236D01*
X197963991Y-144091840D01*
X197944555Y-144081452D01*
X197927524Y-144067476D01*
X197913548Y-144050445D01*
X197903160Y-144031009D01*
X197896764Y-144009928D01*
X197894000Y-143981860D01*
X197894000Y-142168140D01*
X197896764Y-142140072D01*
X197903160Y-142118991D01*
X197913548Y-142099555D01*
X197927524Y-142082524D01*
X197944555Y-142068548D01*
X197963991Y-142058160D01*
X197985072Y-142051764D01*
X198013140Y-142049000D01*
X198476860Y-142049000D01*
X198504928Y-142051764D01*
G37*
G36*
X199774928Y-142051764D02*
G01*
X199796009Y-142058160D01*
X199815445Y-142068548D01*
X199832476Y-142082524D01*
X199846452Y-142099555D01*
X199856840Y-142118991D01*
X199863236Y-142140072D01*
X199866000Y-142168140D01*
X199866000Y-143981860D01*
X199863236Y-144009928D01*
X199856840Y-144031009D01*
X199846452Y-144050445D01*
X199832476Y-144067476D01*
X199815445Y-144081452D01*
X199796009Y-144091840D01*
X199774928Y-144098236D01*
X199746860Y-144101000D01*
X199283140Y-144101000D01*
X199255072Y-144098236D01*
X199233991Y-144091840D01*
X199214555Y-144081452D01*
X199197524Y-144067476D01*
X199183548Y-144050445D01*
X199173160Y-144031009D01*
X199166764Y-144009928D01*
X199164000Y-143981860D01*
X199164000Y-142168140D01*
X199166764Y-142140072D01*
X199173160Y-142118991D01*
X199183548Y-142099555D01*
X199197524Y-142082524D01*
X199214555Y-142068548D01*
X199233991Y-142058160D01*
X199255072Y-142051764D01*
X199283140Y-142049000D01*
X199746860Y-142049000D01*
X199774928Y-142051764D01*
G37*
G36*
X201044928Y-142051764D02*
G01*
X201066009Y-142058160D01*
X201085445Y-142068548D01*
X201102476Y-142082524D01*
X201116452Y-142099555D01*
X201126840Y-142118991D01*
X201133236Y-142140072D01*
X201136000Y-142168140D01*
X201136000Y-143981860D01*
X201133236Y-144009928D01*
X201126840Y-144031009D01*
X201116452Y-144050445D01*
X201102476Y-144067476D01*
X201085445Y-144081452D01*
X201066009Y-144091840D01*
X201044928Y-144098236D01*
X201016860Y-144101000D01*
X200553140Y-144101000D01*
X200525072Y-144098236D01*
X200503991Y-144091840D01*
X200484555Y-144081452D01*
X200467524Y-144067476D01*
X200453548Y-144050445D01*
X200443160Y-144031009D01*
X200436764Y-144009928D01*
X200434000Y-143981860D01*
X200434000Y-142168140D01*
X200436764Y-142140072D01*
X200443160Y-142118991D01*
X200453548Y-142099555D01*
X200467524Y-142082524D01*
X200484555Y-142068548D01*
X200503991Y-142058160D01*
X200525072Y-142051764D01*
X200553140Y-142049000D01*
X201016860Y-142049000D01*
X201044928Y-142051764D01*
G37*
G36*
X202314928Y-142051764D02*
G01*
X202336009Y-142058160D01*
X202355445Y-142068548D01*
X202372476Y-142082524D01*
X202386452Y-142099555D01*
X202396840Y-142118991D01*
X202403236Y-142140072D01*
X202406000Y-142168140D01*
X202406000Y-143981860D01*
X202403236Y-144009928D01*
X202396840Y-144031009D01*
X202386452Y-144050445D01*
X202372476Y-144067476D01*
X202355445Y-144081452D01*
X202336009Y-144091840D01*
X202314928Y-144098236D01*
X202286860Y-144101000D01*
X201823140Y-144101000D01*
X201795072Y-144098236D01*
X201773991Y-144091840D01*
X201754555Y-144081452D01*
X201737524Y-144067476D01*
X201723548Y-144050445D01*
X201713160Y-144031009D01*
X201706764Y-144009928D01*
X201704000Y-143981860D01*
X201704000Y-142168140D01*
X201706764Y-142140072D01*
X201713160Y-142118991D01*
X201723548Y-142099555D01*
X201737524Y-142082524D01*
X201754555Y-142068548D01*
X201773991Y-142058160D01*
X201795072Y-142051764D01*
X201823140Y-142049000D01*
X202286860Y-142049000D01*
X202314928Y-142051764D01*
G37*
G36*
X201153512Y-138783927D02*
G01*
X201302812Y-138813624D01*
X201466784Y-138881544D01*
X201614354Y-138980147D01*
X201739853Y-139105646D01*
X201838456Y-139253216D01*
X201906376Y-139417188D01*
X201941000Y-139591259D01*
X201941000Y-139768741D01*
X201906376Y-139942812D01*
X201838456Y-140106784D01*
X201739853Y-140254354D01*
X201614354Y-140379853D01*
X201466784Y-140478456D01*
X201302812Y-140546376D01*
X201165361Y-140573716D01*
X201128742Y-140581000D01*
X200951258Y-140581000D01*
X200914639Y-140573716D01*
X200777188Y-140546376D01*
X200613216Y-140478456D01*
X200465646Y-140379853D01*
X200340147Y-140254354D01*
X200241544Y-140106784D01*
X200173624Y-139942812D01*
X200139000Y-139768741D01*
X200139000Y-139591259D01*
X200173624Y-139417188D01*
X200241544Y-139253216D01*
X200340147Y-139105646D01*
X200465646Y-138980147D01*
X200613216Y-138881544D01*
X200777188Y-138813624D01*
X200926488Y-138783927D01*
X200951258Y-138779000D01*
X201128742Y-138779000D01*
X201153512Y-138783927D01*
G37*
G36*
X198613512Y-138783927D02*
G01*
X198762812Y-138813624D01*
X198926784Y-138881544D01*
X199074354Y-138980147D01*
X199199853Y-139105646D01*
X199298456Y-139253216D01*
X199366376Y-139417188D01*
X199401000Y-139591259D01*
X199401000Y-139768741D01*
X199366376Y-139942812D01*
X199298456Y-140106784D01*
X199199853Y-140254354D01*
X199074354Y-140379853D01*
X198926784Y-140478456D01*
X198762812Y-140546376D01*
X198625361Y-140573716D01*
X198588742Y-140581000D01*
X198411258Y-140581000D01*
X198374639Y-140573716D01*
X198237188Y-140546376D01*
X198073216Y-140478456D01*
X197925646Y-140379853D01*
X197800147Y-140254354D01*
X197701544Y-140106784D01*
X197633624Y-139942812D01*
X197599000Y-139768741D01*
X197599000Y-139591259D01*
X197633624Y-139417188D01*
X197701544Y-139253216D01*
X197800147Y-139105646D01*
X197925646Y-138980147D01*
X198073216Y-138881544D01*
X198237188Y-138813624D01*
X198386488Y-138783927D01*
X198411258Y-138779000D01*
X198588742Y-138779000D01*
X198613512Y-138783927D01*
G37*
G36*
X207180051Y-138976284D02*
G01*
X207196443Y-138981257D01*
X207211555Y-138989334D01*
X207224798Y-139000202D01*
X207235667Y-139013447D01*
X207239761Y-139021106D01*
X207253374Y-139041480D01*
X207270701Y-139058807D01*
X207291076Y-139072421D01*
X207313714Y-139081798D01*
X207337748Y-139086579D01*
X207362252Y-139086579D01*
X207386285Y-139081799D01*
X207408924Y-139072421D01*
X207429298Y-139058808D01*
X207446625Y-139041481D01*
X207460239Y-139021106D01*
X207464333Y-139013447D01*
X207475202Y-139000202D01*
X207488445Y-138989334D01*
X207503557Y-138981257D01*
X207519949Y-138976284D01*
X207543141Y-138974000D01*
X207956859Y-138974000D01*
X207980051Y-138976284D01*
X207996443Y-138981257D01*
X208011555Y-138989334D01*
X208024798Y-139000202D01*
X208035667Y-139013447D01*
X208039761Y-139021106D01*
X208053374Y-139041480D01*
X208070701Y-139058807D01*
X208091076Y-139072421D01*
X208113714Y-139081798D01*
X208137748Y-139086579D01*
X208162252Y-139086579D01*
X208186285Y-139081799D01*
X208208924Y-139072421D01*
X208229298Y-139058808D01*
X208246625Y-139041481D01*
X208260239Y-139021106D01*
X208264333Y-139013447D01*
X208275202Y-139000202D01*
X208288445Y-138989334D01*
X208303557Y-138981257D01*
X208319949Y-138976284D01*
X208343141Y-138974000D01*
X208756859Y-138974000D01*
X208780051Y-138976284D01*
X208796443Y-138981257D01*
X208811555Y-138989334D01*
X208824798Y-139000202D01*
X208835667Y-139013447D01*
X208839761Y-139021106D01*
X208853374Y-139041480D01*
X208870701Y-139058807D01*
X208891076Y-139072421D01*
X208913714Y-139081798D01*
X208937748Y-139086579D01*
X208962252Y-139086579D01*
X208986285Y-139081799D01*
X209008924Y-139072421D01*
X209029298Y-139058808D01*
X209046625Y-139041481D01*
X209060239Y-139021106D01*
X209064333Y-139013447D01*
X209075202Y-139000202D01*
X209088445Y-138989334D01*
X209103557Y-138981257D01*
X209119949Y-138976284D01*
X209143141Y-138974000D01*
X209556859Y-138974000D01*
X209580051Y-138976284D01*
X209596443Y-138981257D01*
X209611555Y-138989334D01*
X209624798Y-139000202D01*
X209635667Y-139013447D01*
X209639761Y-139021106D01*
X209653374Y-139041480D01*
X209670701Y-139058807D01*
X209691076Y-139072421D01*
X209713714Y-139081798D01*
X209737748Y-139086579D01*
X209762252Y-139086579D01*
X209786285Y-139081799D01*
X209808924Y-139072421D01*
X209829298Y-139058808D01*
X209846625Y-139041481D01*
X209860239Y-139021106D01*
X209864333Y-139013447D01*
X209875202Y-139000202D01*
X209888445Y-138989334D01*
X209903557Y-138981257D01*
X209919949Y-138976284D01*
X209943141Y-138974000D01*
X210356859Y-138974000D01*
X210380051Y-138976284D01*
X210396443Y-138981257D01*
X210411555Y-138989334D01*
X210424798Y-139000202D01*
X210435667Y-139013447D01*
X210439761Y-139021106D01*
X210453374Y-139041480D01*
X210470701Y-139058807D01*
X210491076Y-139072421D01*
X210513714Y-139081798D01*
X210537748Y-139086579D01*
X210562252Y-139086579D01*
X210586285Y-139081799D01*
X210608924Y-139072421D01*
X210629298Y-139058808D01*
X210646625Y-139041481D01*
X210660239Y-139021106D01*
X210664333Y-139013447D01*
X210675202Y-139000202D01*
X210688445Y-138989334D01*
X210703557Y-138981257D01*
X210719949Y-138976284D01*
X210743141Y-138974000D01*
X211156859Y-138974000D01*
X211180051Y-138976284D01*
X211196443Y-138981257D01*
X211211555Y-138989334D01*
X211224798Y-139000202D01*
X211235667Y-139013447D01*
X211239761Y-139021106D01*
X211253374Y-139041480D01*
X211270701Y-139058807D01*
X211291076Y-139072421D01*
X211313714Y-139081798D01*
X211337748Y-139086579D01*
X211362252Y-139086579D01*
X211386285Y-139081799D01*
X211408924Y-139072421D01*
X211429298Y-139058808D01*
X211446625Y-139041481D01*
X211460239Y-139021106D01*
X211464333Y-139013447D01*
X211475202Y-139000202D01*
X211488445Y-138989334D01*
X211503557Y-138981257D01*
X211519949Y-138976284D01*
X211543141Y-138974000D01*
X211956859Y-138974000D01*
X211980051Y-138976284D01*
X211996443Y-138981257D01*
X212011555Y-138989334D01*
X212024798Y-139000202D01*
X212035667Y-139013447D01*
X212039761Y-139021106D01*
X212053374Y-139041480D01*
X212070701Y-139058807D01*
X212091076Y-139072421D01*
X212113714Y-139081798D01*
X212137748Y-139086579D01*
X212162252Y-139086579D01*
X212186285Y-139081799D01*
X212208924Y-139072421D01*
X212229298Y-139058808D01*
X212246625Y-139041481D01*
X212260239Y-139021106D01*
X212264333Y-139013447D01*
X212275202Y-139000202D01*
X212288445Y-138989334D01*
X212303557Y-138981257D01*
X212319949Y-138976284D01*
X212343141Y-138974000D01*
X212756859Y-138974000D01*
X212780051Y-138976284D01*
X212796443Y-138981257D01*
X212811555Y-138989334D01*
X212824798Y-139000202D01*
X212835666Y-139013445D01*
X212843743Y-139028557D01*
X212848716Y-139044949D01*
X212851000Y-139068141D01*
X212851000Y-140481859D01*
X212848716Y-140505051D01*
X212843743Y-140521443D01*
X212835666Y-140536555D01*
X212824798Y-140549798D01*
X212811555Y-140560666D01*
X212796443Y-140568743D01*
X212780051Y-140573716D01*
X212756859Y-140576000D01*
X212343141Y-140576000D01*
X212319949Y-140573716D01*
X212303557Y-140568743D01*
X212288445Y-140560666D01*
X212275202Y-140549798D01*
X212264333Y-140536553D01*
X212260239Y-140528894D01*
X212246626Y-140508520D01*
X212229299Y-140491193D01*
X212208924Y-140477579D01*
X212186286Y-140468202D01*
X212162252Y-140463421D01*
X212137748Y-140463421D01*
X212113715Y-140468201D01*
X212091076Y-140477579D01*
X212070702Y-140491192D01*
X212053375Y-140508519D01*
X212039761Y-140528894D01*
X212035667Y-140536553D01*
X212024798Y-140549798D01*
X212011555Y-140560666D01*
X211996443Y-140568743D01*
X211980051Y-140573716D01*
X211956859Y-140576000D01*
X211543141Y-140576000D01*
X211519949Y-140573716D01*
X211503557Y-140568743D01*
X211488445Y-140560666D01*
X211475202Y-140549798D01*
X211464333Y-140536553D01*
X211460239Y-140528894D01*
X211446626Y-140508520D01*
X211429299Y-140491193D01*
X211408924Y-140477579D01*
X211386286Y-140468202D01*
X211362252Y-140463421D01*
X211337748Y-140463421D01*
X211313715Y-140468201D01*
X211291076Y-140477579D01*
X211270702Y-140491192D01*
X211253375Y-140508519D01*
X211239761Y-140528894D01*
X211235667Y-140536553D01*
X211224798Y-140549798D01*
X211211555Y-140560666D01*
X211196443Y-140568743D01*
X211180051Y-140573716D01*
X211156859Y-140576000D01*
X210743141Y-140576000D01*
X210719949Y-140573716D01*
X210703557Y-140568743D01*
X210688445Y-140560666D01*
X210675202Y-140549798D01*
X210664333Y-140536553D01*
X210660239Y-140528894D01*
X210646626Y-140508520D01*
X210629299Y-140491193D01*
X210608924Y-140477579D01*
X210586286Y-140468202D01*
X210562252Y-140463421D01*
X210537748Y-140463421D01*
X210513715Y-140468201D01*
X210491076Y-140477579D01*
X210470702Y-140491192D01*
X210453375Y-140508519D01*
X210439761Y-140528894D01*
X210435667Y-140536553D01*
X210424798Y-140549798D01*
X210411555Y-140560666D01*
X210396443Y-140568743D01*
X210380051Y-140573716D01*
X210356859Y-140576000D01*
X209943141Y-140576000D01*
X209919949Y-140573716D01*
X209903557Y-140568743D01*
X209888445Y-140560666D01*
X209875202Y-140549798D01*
X209864333Y-140536553D01*
X209860239Y-140528894D01*
X209846626Y-140508520D01*
X209829299Y-140491193D01*
X209808924Y-140477579D01*
X209786286Y-140468202D01*
X209762252Y-140463421D01*
X209737748Y-140463421D01*
X209713715Y-140468201D01*
X209691076Y-140477579D01*
X209670702Y-140491192D01*
X209653375Y-140508519D01*
X209639761Y-140528894D01*
X209635667Y-140536553D01*
X209624798Y-140549798D01*
X209611555Y-140560666D01*
X209596443Y-140568743D01*
X209580051Y-140573716D01*
X209556859Y-140576000D01*
X209143141Y-140576000D01*
X209119949Y-140573716D01*
X209103557Y-140568743D01*
X209088445Y-140560666D01*
X209075202Y-140549798D01*
X209064333Y-140536553D01*
X209060239Y-140528894D01*
X209046626Y-140508520D01*
X209029299Y-140491193D01*
X209008924Y-140477579D01*
X208986286Y-140468202D01*
X208962252Y-140463421D01*
X208937748Y-140463421D01*
X208913715Y-140468201D01*
X208891076Y-140477579D01*
X208870702Y-140491192D01*
X208853375Y-140508519D01*
X208839761Y-140528894D01*
X208835667Y-140536553D01*
X208824798Y-140549798D01*
X208811555Y-140560666D01*
X208796443Y-140568743D01*
X208780051Y-140573716D01*
X208756859Y-140576000D01*
X208343141Y-140576000D01*
X208319949Y-140573716D01*
X208303557Y-140568743D01*
X208288445Y-140560666D01*
X208275202Y-140549798D01*
X208264333Y-140536553D01*
X208260239Y-140528894D01*
X208246626Y-140508520D01*
X208229299Y-140491193D01*
X208208924Y-140477579D01*
X208186286Y-140468202D01*
X208162252Y-140463421D01*
X208137748Y-140463421D01*
X208113715Y-140468201D01*
X208091076Y-140477579D01*
X208070702Y-140491192D01*
X208053375Y-140508519D01*
X208039761Y-140528894D01*
X208035667Y-140536553D01*
X208024798Y-140549798D01*
X208011555Y-140560666D01*
X207996443Y-140568743D01*
X207980051Y-140573716D01*
X207956859Y-140576000D01*
X207543141Y-140576000D01*
X207519949Y-140573716D01*
X207503557Y-140568743D01*
X207488445Y-140560666D01*
X207475202Y-140549798D01*
X207464333Y-140536553D01*
X207460239Y-140528894D01*
X207446626Y-140508520D01*
X207429299Y-140491193D01*
X207408924Y-140477579D01*
X207386286Y-140468202D01*
X207362252Y-140463421D01*
X207337748Y-140463421D01*
X207313715Y-140468201D01*
X207291076Y-140477579D01*
X207270702Y-140491192D01*
X207253375Y-140508519D01*
X207239761Y-140528894D01*
X207235667Y-140536553D01*
X207224798Y-140549798D01*
X207211555Y-140560666D01*
X207196443Y-140568743D01*
X207180051Y-140573716D01*
X207156859Y-140576000D01*
X206743141Y-140576000D01*
X206719949Y-140573716D01*
X206703557Y-140568743D01*
X206688445Y-140560666D01*
X206675202Y-140549798D01*
X206664334Y-140536555D01*
X206656257Y-140521443D01*
X206651284Y-140505051D01*
X206649000Y-140481859D01*
X206649000Y-139068141D01*
X206651284Y-139044949D01*
X206656257Y-139028557D01*
X206664334Y-139013445D01*
X206675202Y-139000202D01*
X206688445Y-138989334D01*
X206703557Y-138981257D01*
X206719949Y-138976284D01*
X206743141Y-138974000D01*
X207156859Y-138974000D01*
X207180051Y-138976284D01*
G37*
G36*
X201153512Y-136243927D02*
G01*
X201302812Y-136273624D01*
X201466784Y-136341544D01*
X201614354Y-136440147D01*
X201739853Y-136565646D01*
X201838456Y-136713216D01*
X201906376Y-136877188D01*
X201941000Y-137051259D01*
X201941000Y-137228741D01*
X201906376Y-137402812D01*
X201838456Y-137566784D01*
X201739853Y-137714354D01*
X201614354Y-137839853D01*
X201466784Y-137938456D01*
X201302812Y-138006376D01*
X201153512Y-138036073D01*
X201128742Y-138041000D01*
X200951258Y-138041000D01*
X200926488Y-138036073D01*
X200777188Y-138006376D01*
X200613216Y-137938456D01*
X200465646Y-137839853D01*
X200340147Y-137714354D01*
X200241544Y-137566784D01*
X200173624Y-137402812D01*
X200139000Y-137228741D01*
X200139000Y-137051259D01*
X200173624Y-136877188D01*
X200241544Y-136713216D01*
X200340147Y-136565646D01*
X200465646Y-136440147D01*
X200613216Y-136341544D01*
X200777188Y-136273624D01*
X200926488Y-136243927D01*
X200951258Y-136239000D01*
X201128742Y-136239000D01*
X201153512Y-136243927D01*
G37*
G36*
X198613512Y-136243927D02*
G01*
X198762812Y-136273624D01*
X198926784Y-136341544D01*
X199074354Y-136440147D01*
X199199853Y-136565646D01*
X199298456Y-136713216D01*
X199366376Y-136877188D01*
X199401000Y-137051259D01*
X199401000Y-137228741D01*
X199366376Y-137402812D01*
X199298456Y-137566784D01*
X199199853Y-137714354D01*
X199074354Y-137839853D01*
X198926784Y-137938456D01*
X198762812Y-138006376D01*
X198613512Y-138036073D01*
X198588742Y-138041000D01*
X198411258Y-138041000D01*
X198386488Y-138036073D01*
X198237188Y-138006376D01*
X198073216Y-137938456D01*
X197925646Y-137839853D01*
X197800147Y-137714354D01*
X197701544Y-137566784D01*
X197633624Y-137402812D01*
X197599000Y-137228741D01*
X197599000Y-137051259D01*
X197633624Y-136877188D01*
X197701544Y-136713216D01*
X197800147Y-136565646D01*
X197925646Y-136440147D01*
X198073216Y-136341544D01*
X198237188Y-136273624D01*
X198386488Y-136243927D01*
X198411258Y-136239000D01*
X198588742Y-136239000D01*
X198613512Y-136243927D01*
G37*
G36*
X222415331Y-134058211D02*
G01*
X222743092Y-134193974D01*
X223038070Y-134391072D01*
X223288928Y-134641930D01*
X223486026Y-134936908D01*
X223621789Y-135264669D01*
X223691000Y-135612616D01*
X223691000Y-135967384D01*
X223621789Y-136315331D01*
X223486026Y-136643092D01*
X223288928Y-136938070D01*
X223038070Y-137188928D01*
X222743092Y-137386026D01*
X222415331Y-137521789D01*
X222067384Y-137591000D01*
X221712616Y-137591000D01*
X221364669Y-137521789D01*
X221036908Y-137386026D01*
X220741930Y-137188928D01*
X220491072Y-136938070D01*
X220293974Y-136643092D01*
X220158211Y-136315331D01*
X220089000Y-135967384D01*
X220089000Y-135612616D01*
X220158211Y-135264669D01*
X220293974Y-134936908D01*
X220491072Y-134641930D01*
X220741930Y-134391072D01*
X221036908Y-134193974D01*
X221364669Y-134058211D01*
X221712616Y-133989000D01*
X222067384Y-133989000D01*
X222415331Y-134058211D01*
G37*
G36*
X212533642Y-134679781D02*
G01*
X212679414Y-134740162D01*
X212679416Y-134740163D01*
X212810608Y-134827822D01*
X212922178Y-134939392D01*
X212980571Y-135026784D01*
X213009838Y-135070586D01*
X213070219Y-135216358D01*
X213101000Y-135371107D01*
X213101000Y-135528893D01*
X213070219Y-135683642D01*
X213009838Y-135829414D01*
X213009837Y-135829416D01*
X212922178Y-135960608D01*
X212810608Y-136072178D01*
X212679416Y-136159837D01*
X212679415Y-136159838D01*
X212679414Y-136159838D01*
X212533642Y-136220219D01*
X212378893Y-136251000D01*
X212221107Y-136251000D01*
X212066358Y-136220219D01*
X211920586Y-136159838D01*
X211920585Y-136159838D01*
X211920584Y-136159837D01*
X211789392Y-136072178D01*
X211677822Y-135960608D01*
X211590163Y-135829416D01*
X211590162Y-135829414D01*
X211529781Y-135683642D01*
X211499000Y-135528893D01*
X211499000Y-135371107D01*
X211529781Y-135216358D01*
X211590162Y-135070586D01*
X211619429Y-135026784D01*
X211677822Y-134939392D01*
X211789392Y-134827822D01*
X211920584Y-134740163D01*
X211920586Y-134740162D01*
X212066358Y-134679781D01*
X212221107Y-134649000D01*
X212378893Y-134649000D01*
X212533642Y-134679781D01*
G37*
G36*
X207653642Y-134679781D02*
G01*
X207799414Y-134740162D01*
X207799416Y-134740163D01*
X207930608Y-134827822D01*
X208042178Y-134939392D01*
X208100571Y-135026784D01*
X208129838Y-135070586D01*
X208190219Y-135216358D01*
X208221000Y-135371107D01*
X208221000Y-135528893D01*
X208190219Y-135683642D01*
X208129838Y-135829414D01*
X208129837Y-135829416D01*
X208042178Y-135960608D01*
X207930608Y-136072178D01*
X207799416Y-136159837D01*
X207799415Y-136159838D01*
X207799414Y-136159838D01*
X207653642Y-136220219D01*
X207498893Y-136251000D01*
X207341107Y-136251000D01*
X207186358Y-136220219D01*
X207040586Y-136159838D01*
X207040585Y-136159838D01*
X207040584Y-136159837D01*
X206909392Y-136072178D01*
X206797822Y-135960608D01*
X206710163Y-135829416D01*
X206710162Y-135829414D01*
X206649781Y-135683642D01*
X206619000Y-135528893D01*
X206619000Y-135371107D01*
X206649781Y-135216358D01*
X206710162Y-135070586D01*
X206739429Y-135026784D01*
X206797822Y-134939392D01*
X206909392Y-134827822D01*
X207040584Y-134740163D01*
X207040586Y-134740162D01*
X207186358Y-134679781D01*
X207341107Y-134649000D01*
X207498893Y-134649000D01*
X207653642Y-134679781D01*
G37*
G36*
X199401000Y-135501000D02*
G01*
X197599000Y-135501000D01*
X197599000Y-133699000D01*
X199401000Y-133699000D01*
X199401000Y-135501000D01*
G37*
G36*
X201153512Y-133703927D02*
G01*
X201302812Y-133733624D01*
X201466784Y-133801544D01*
X201614354Y-133900147D01*
X201739853Y-134025646D01*
X201838456Y-134173216D01*
X201906376Y-134337188D01*
X201941000Y-134511259D01*
X201941000Y-134688741D01*
X201906376Y-134862812D01*
X201838456Y-135026784D01*
X201739853Y-135174354D01*
X201614354Y-135299853D01*
X201466784Y-135398456D01*
X201302812Y-135466376D01*
X201153512Y-135496073D01*
X201128742Y-135501000D01*
X200951258Y-135501000D01*
X200926488Y-135496073D01*
X200777188Y-135466376D01*
X200613216Y-135398456D01*
X200465646Y-135299853D01*
X200340147Y-135174354D01*
X200241544Y-135026784D01*
X200173624Y-134862812D01*
X200139000Y-134688741D01*
X200139000Y-134511259D01*
X200173624Y-134337188D01*
X200241544Y-134173216D01*
X200340147Y-134025646D01*
X200465646Y-133900147D01*
X200613216Y-133801544D01*
X200777188Y-133733624D01*
X200926488Y-133703927D01*
X200951258Y-133699000D01*
X201128742Y-133699000D01*
X201153512Y-133703927D01*
G37*
M02*
