G04 #@! TF.GenerationSoftware,KiCad,Pcbnew,5.1.6-c6e7f7d~86~ubuntu18.04.1*
G04 #@! TF.CreationDate,2020-06-11T15:17:01+02:00*
G04 #@! TF.ProjectId,sci2can,73636932-6361-46e2-9e6b-696361645f70,1.02*
G04 #@! TF.SameCoordinates,Original*
G04 #@! TF.FileFunction,Paste,Top*
G04 #@! TF.FilePolarity,Positive*
%FSLAX46Y46*%
G04 Gerber Fmt 4.6, Leading zero omitted, Abs format (unit mm)*
G04 Created by KiCad (PCBNEW 5.1.6-c6e7f7d~86~ubuntu18.04.1) date 2020-06-11 15:17:01*
%MOMM*%
%LPD*%
G01*
G04 APERTURE LIST*
%ADD10R,1.800000X2.500000*%
%ADD11R,0.800000X0.900000*%
%ADD12R,0.650000X1.560000*%
%ADD13R,2.500000X2.300000*%
G04 APERTURE END LIST*
D10*
X223400000Y-85700000D03*
X223400000Y-89700000D03*
X223400000Y-77950000D03*
X223400000Y-81950000D03*
D11*
X208150000Y-96450000D03*
X207200000Y-94450000D03*
X209100000Y-94450000D03*
G36*
G01*
X222687500Y-94800000D02*
X222687500Y-93700000D01*
G75*
G02*
X222937500Y-93450000I250000J0D01*
G01*
X225212500Y-93450000D01*
G75*
G02*
X225462500Y-93700000I0J-250000D01*
G01*
X225462500Y-94800000D01*
G75*
G02*
X225212500Y-95050000I-250000J0D01*
G01*
X222937500Y-95050000D01*
G75*
G02*
X222687500Y-94800000I0J250000D01*
G01*
G37*
G36*
G01*
X218562500Y-94800000D02*
X218562500Y-93700000D01*
G75*
G02*
X218812500Y-93450000I250000J0D01*
G01*
X221087500Y-93450000D01*
G75*
G02*
X221337500Y-93700000I0J-250000D01*
G01*
X221337500Y-94800000D01*
G75*
G02*
X221087500Y-95050000I-250000J0D01*
G01*
X218812500Y-95050000D01*
G75*
G02*
X218562500Y-94800000I0J250000D01*
G01*
G37*
G36*
G01*
X220675000Y-79850000D02*
X216725000Y-79850000D01*
G75*
G02*
X216475000Y-79600000I0J250000D01*
G01*
X216475000Y-76900000D01*
G75*
G02*
X216725000Y-76650000I250000J0D01*
G01*
X220675000Y-76650000D01*
G75*
G02*
X220925000Y-76900000I0J-250000D01*
G01*
X220925000Y-79600000D01*
G75*
G02*
X220675000Y-79850000I-250000J0D01*
G01*
G37*
G36*
G01*
X220675000Y-85050000D02*
X216725000Y-85050000D01*
G75*
G02*
X216475000Y-84800000I0J250000D01*
G01*
X216475000Y-82100000D01*
G75*
G02*
X216725000Y-81850000I250000J0D01*
G01*
X220675000Y-81850000D01*
G75*
G02*
X220925000Y-82100000I0J-250000D01*
G01*
X220925000Y-84800000D01*
G75*
G02*
X220675000Y-85050000I-250000J0D01*
G01*
G37*
D12*
X219650000Y-87450000D03*
X218700000Y-87450000D03*
X220600000Y-87450000D03*
X220600000Y-90150000D03*
X219650000Y-90150000D03*
X218700000Y-90150000D03*
D11*
X204250000Y-96450000D03*
X203300000Y-94450000D03*
X205200000Y-94450000D03*
G36*
G01*
X201255000Y-95025000D02*
X201555000Y-95025000D01*
G75*
G02*
X201705000Y-95175000I0J-150000D01*
G01*
X201705000Y-96825000D01*
G75*
G02*
X201555000Y-96975000I-150000J0D01*
G01*
X201255000Y-96975000D01*
G75*
G02*
X201105000Y-96825000I0J150000D01*
G01*
X201105000Y-95175000D01*
G75*
G02*
X201255000Y-95025000I150000J0D01*
G01*
G37*
G36*
G01*
X199985000Y-95025000D02*
X200285000Y-95025000D01*
G75*
G02*
X200435000Y-95175000I0J-150000D01*
G01*
X200435000Y-96825000D01*
G75*
G02*
X200285000Y-96975000I-150000J0D01*
G01*
X199985000Y-96975000D01*
G75*
G02*
X199835000Y-96825000I0J150000D01*
G01*
X199835000Y-95175000D01*
G75*
G02*
X199985000Y-95025000I150000J0D01*
G01*
G37*
G36*
G01*
X198715000Y-95025000D02*
X199015000Y-95025000D01*
G75*
G02*
X199165000Y-95175000I0J-150000D01*
G01*
X199165000Y-96825000D01*
G75*
G02*
X199015000Y-96975000I-150000J0D01*
G01*
X198715000Y-96975000D01*
G75*
G02*
X198565000Y-96825000I0J150000D01*
G01*
X198565000Y-95175000D01*
G75*
G02*
X198715000Y-95025000I150000J0D01*
G01*
G37*
G36*
G01*
X197445000Y-95025000D02*
X197745000Y-95025000D01*
G75*
G02*
X197895000Y-95175000I0J-150000D01*
G01*
X197895000Y-96825000D01*
G75*
G02*
X197745000Y-96975000I-150000J0D01*
G01*
X197445000Y-96975000D01*
G75*
G02*
X197295000Y-96825000I0J150000D01*
G01*
X197295000Y-95175000D01*
G75*
G02*
X197445000Y-95025000I150000J0D01*
G01*
G37*
G36*
G01*
X197445000Y-90075000D02*
X197745000Y-90075000D01*
G75*
G02*
X197895000Y-90225000I0J-150000D01*
G01*
X197895000Y-91875000D01*
G75*
G02*
X197745000Y-92025000I-150000J0D01*
G01*
X197445000Y-92025000D01*
G75*
G02*
X197295000Y-91875000I0J150000D01*
G01*
X197295000Y-90225000D01*
G75*
G02*
X197445000Y-90075000I150000J0D01*
G01*
G37*
G36*
G01*
X198715000Y-90075000D02*
X199015000Y-90075000D01*
G75*
G02*
X199165000Y-90225000I0J-150000D01*
G01*
X199165000Y-91875000D01*
G75*
G02*
X199015000Y-92025000I-150000J0D01*
G01*
X198715000Y-92025000D01*
G75*
G02*
X198565000Y-91875000I0J150000D01*
G01*
X198565000Y-90225000D01*
G75*
G02*
X198715000Y-90075000I150000J0D01*
G01*
G37*
G36*
G01*
X199985000Y-90075000D02*
X200285000Y-90075000D01*
G75*
G02*
X200435000Y-90225000I0J-150000D01*
G01*
X200435000Y-91875000D01*
G75*
G02*
X200285000Y-92025000I-150000J0D01*
G01*
X199985000Y-92025000D01*
G75*
G02*
X199835000Y-91875000I0J150000D01*
G01*
X199835000Y-90225000D01*
G75*
G02*
X199985000Y-90075000I150000J0D01*
G01*
G37*
G36*
G01*
X201255000Y-90075000D02*
X201555000Y-90075000D01*
G75*
G02*
X201705000Y-90225000I0J-150000D01*
G01*
X201705000Y-91875000D01*
G75*
G02*
X201555000Y-92025000I-150000J0D01*
G01*
X201255000Y-92025000D01*
G75*
G02*
X201105000Y-91875000I0J150000D01*
G01*
X201105000Y-90225000D01*
G75*
G02*
X201255000Y-90075000I150000J0D01*
G01*
G37*
G36*
G01*
X212650000Y-84200000D02*
X213900000Y-84200000D01*
G75*
G02*
X214025000Y-84325000I0J-125000D01*
G01*
X214025000Y-84575000D01*
G75*
G02*
X213900000Y-84700000I-125000J0D01*
G01*
X212650000Y-84700000D01*
G75*
G02*
X212525000Y-84575000I0J125000D01*
G01*
X212525000Y-84325000D01*
G75*
G02*
X212650000Y-84200000I125000J0D01*
G01*
G37*
G36*
G01*
X212650000Y-85000000D02*
X213900000Y-85000000D01*
G75*
G02*
X214025000Y-85125000I0J-125000D01*
G01*
X214025000Y-85375000D01*
G75*
G02*
X213900000Y-85500000I-125000J0D01*
G01*
X212650000Y-85500000D01*
G75*
G02*
X212525000Y-85375000I0J125000D01*
G01*
X212525000Y-85125000D01*
G75*
G02*
X212650000Y-85000000I125000J0D01*
G01*
G37*
G36*
G01*
X212650000Y-85800000D02*
X213900000Y-85800000D01*
G75*
G02*
X214025000Y-85925000I0J-125000D01*
G01*
X214025000Y-86175000D01*
G75*
G02*
X213900000Y-86300000I-125000J0D01*
G01*
X212650000Y-86300000D01*
G75*
G02*
X212525000Y-86175000I0J125000D01*
G01*
X212525000Y-85925000D01*
G75*
G02*
X212650000Y-85800000I125000J0D01*
G01*
G37*
G36*
G01*
X212650000Y-86600000D02*
X213900000Y-86600000D01*
G75*
G02*
X214025000Y-86725000I0J-125000D01*
G01*
X214025000Y-86975000D01*
G75*
G02*
X213900000Y-87100000I-125000J0D01*
G01*
X212650000Y-87100000D01*
G75*
G02*
X212525000Y-86975000I0J125000D01*
G01*
X212525000Y-86725000D01*
G75*
G02*
X212650000Y-86600000I125000J0D01*
G01*
G37*
G36*
G01*
X212650000Y-87400000D02*
X213900000Y-87400000D01*
G75*
G02*
X214025000Y-87525000I0J-125000D01*
G01*
X214025000Y-87775000D01*
G75*
G02*
X213900000Y-87900000I-125000J0D01*
G01*
X212650000Y-87900000D01*
G75*
G02*
X212525000Y-87775000I0J125000D01*
G01*
X212525000Y-87525000D01*
G75*
G02*
X212650000Y-87400000I125000J0D01*
G01*
G37*
G36*
G01*
X212650000Y-88200000D02*
X213900000Y-88200000D01*
G75*
G02*
X214025000Y-88325000I0J-125000D01*
G01*
X214025000Y-88575000D01*
G75*
G02*
X213900000Y-88700000I-125000J0D01*
G01*
X212650000Y-88700000D01*
G75*
G02*
X212525000Y-88575000I0J125000D01*
G01*
X212525000Y-88325000D01*
G75*
G02*
X212650000Y-88200000I125000J0D01*
G01*
G37*
G36*
G01*
X212650000Y-89000000D02*
X213900000Y-89000000D01*
G75*
G02*
X214025000Y-89125000I0J-125000D01*
G01*
X214025000Y-89375000D01*
G75*
G02*
X213900000Y-89500000I-125000J0D01*
G01*
X212650000Y-89500000D01*
G75*
G02*
X212525000Y-89375000I0J125000D01*
G01*
X212525000Y-89125000D01*
G75*
G02*
X212650000Y-89000000I125000J0D01*
G01*
G37*
G36*
G01*
X212650000Y-89800000D02*
X213900000Y-89800000D01*
G75*
G02*
X214025000Y-89925000I0J-125000D01*
G01*
X214025000Y-90175000D01*
G75*
G02*
X213900000Y-90300000I-125000J0D01*
G01*
X212650000Y-90300000D01*
G75*
G02*
X212525000Y-90175000I0J125000D01*
G01*
X212525000Y-89925000D01*
G75*
G02*
X212650000Y-89800000I125000J0D01*
G01*
G37*
G36*
G01*
X211775000Y-90675000D02*
X212025000Y-90675000D01*
G75*
G02*
X212150000Y-90800000I0J-125000D01*
G01*
X212150000Y-92050000D01*
G75*
G02*
X212025000Y-92175000I-125000J0D01*
G01*
X211775000Y-92175000D01*
G75*
G02*
X211650000Y-92050000I0J125000D01*
G01*
X211650000Y-90800000D01*
G75*
G02*
X211775000Y-90675000I125000J0D01*
G01*
G37*
G36*
G01*
X210975000Y-90675000D02*
X211225000Y-90675000D01*
G75*
G02*
X211350000Y-90800000I0J-125000D01*
G01*
X211350000Y-92050000D01*
G75*
G02*
X211225000Y-92175000I-125000J0D01*
G01*
X210975000Y-92175000D01*
G75*
G02*
X210850000Y-92050000I0J125000D01*
G01*
X210850000Y-90800000D01*
G75*
G02*
X210975000Y-90675000I125000J0D01*
G01*
G37*
G36*
G01*
X210175000Y-90675000D02*
X210425000Y-90675000D01*
G75*
G02*
X210550000Y-90800000I0J-125000D01*
G01*
X210550000Y-92050000D01*
G75*
G02*
X210425000Y-92175000I-125000J0D01*
G01*
X210175000Y-92175000D01*
G75*
G02*
X210050000Y-92050000I0J125000D01*
G01*
X210050000Y-90800000D01*
G75*
G02*
X210175000Y-90675000I125000J0D01*
G01*
G37*
G36*
G01*
X209375000Y-90675000D02*
X209625000Y-90675000D01*
G75*
G02*
X209750000Y-90800000I0J-125000D01*
G01*
X209750000Y-92050000D01*
G75*
G02*
X209625000Y-92175000I-125000J0D01*
G01*
X209375000Y-92175000D01*
G75*
G02*
X209250000Y-92050000I0J125000D01*
G01*
X209250000Y-90800000D01*
G75*
G02*
X209375000Y-90675000I125000J0D01*
G01*
G37*
G36*
G01*
X208575000Y-90675000D02*
X208825000Y-90675000D01*
G75*
G02*
X208950000Y-90800000I0J-125000D01*
G01*
X208950000Y-92050000D01*
G75*
G02*
X208825000Y-92175000I-125000J0D01*
G01*
X208575000Y-92175000D01*
G75*
G02*
X208450000Y-92050000I0J125000D01*
G01*
X208450000Y-90800000D01*
G75*
G02*
X208575000Y-90675000I125000J0D01*
G01*
G37*
G36*
G01*
X207775000Y-90675000D02*
X208025000Y-90675000D01*
G75*
G02*
X208150000Y-90800000I0J-125000D01*
G01*
X208150000Y-92050000D01*
G75*
G02*
X208025000Y-92175000I-125000J0D01*
G01*
X207775000Y-92175000D01*
G75*
G02*
X207650000Y-92050000I0J125000D01*
G01*
X207650000Y-90800000D01*
G75*
G02*
X207775000Y-90675000I125000J0D01*
G01*
G37*
G36*
G01*
X206975000Y-90675000D02*
X207225000Y-90675000D01*
G75*
G02*
X207350000Y-90800000I0J-125000D01*
G01*
X207350000Y-92050000D01*
G75*
G02*
X207225000Y-92175000I-125000J0D01*
G01*
X206975000Y-92175000D01*
G75*
G02*
X206850000Y-92050000I0J125000D01*
G01*
X206850000Y-90800000D01*
G75*
G02*
X206975000Y-90675000I125000J0D01*
G01*
G37*
G36*
G01*
X206175000Y-90675000D02*
X206425000Y-90675000D01*
G75*
G02*
X206550000Y-90800000I0J-125000D01*
G01*
X206550000Y-92050000D01*
G75*
G02*
X206425000Y-92175000I-125000J0D01*
G01*
X206175000Y-92175000D01*
G75*
G02*
X206050000Y-92050000I0J125000D01*
G01*
X206050000Y-90800000D01*
G75*
G02*
X206175000Y-90675000I125000J0D01*
G01*
G37*
G36*
G01*
X204300000Y-89800000D02*
X205550000Y-89800000D01*
G75*
G02*
X205675000Y-89925000I0J-125000D01*
G01*
X205675000Y-90175000D01*
G75*
G02*
X205550000Y-90300000I-125000J0D01*
G01*
X204300000Y-90300000D01*
G75*
G02*
X204175000Y-90175000I0J125000D01*
G01*
X204175000Y-89925000D01*
G75*
G02*
X204300000Y-89800000I125000J0D01*
G01*
G37*
G36*
G01*
X204300000Y-89000000D02*
X205550000Y-89000000D01*
G75*
G02*
X205675000Y-89125000I0J-125000D01*
G01*
X205675000Y-89375000D01*
G75*
G02*
X205550000Y-89500000I-125000J0D01*
G01*
X204300000Y-89500000D01*
G75*
G02*
X204175000Y-89375000I0J125000D01*
G01*
X204175000Y-89125000D01*
G75*
G02*
X204300000Y-89000000I125000J0D01*
G01*
G37*
G36*
G01*
X204300000Y-88200000D02*
X205550000Y-88200000D01*
G75*
G02*
X205675000Y-88325000I0J-125000D01*
G01*
X205675000Y-88575000D01*
G75*
G02*
X205550000Y-88700000I-125000J0D01*
G01*
X204300000Y-88700000D01*
G75*
G02*
X204175000Y-88575000I0J125000D01*
G01*
X204175000Y-88325000D01*
G75*
G02*
X204300000Y-88200000I125000J0D01*
G01*
G37*
G36*
G01*
X204300000Y-87400000D02*
X205550000Y-87400000D01*
G75*
G02*
X205675000Y-87525000I0J-125000D01*
G01*
X205675000Y-87775000D01*
G75*
G02*
X205550000Y-87900000I-125000J0D01*
G01*
X204300000Y-87900000D01*
G75*
G02*
X204175000Y-87775000I0J125000D01*
G01*
X204175000Y-87525000D01*
G75*
G02*
X204300000Y-87400000I125000J0D01*
G01*
G37*
G36*
G01*
X204300000Y-86600000D02*
X205550000Y-86600000D01*
G75*
G02*
X205675000Y-86725000I0J-125000D01*
G01*
X205675000Y-86975000D01*
G75*
G02*
X205550000Y-87100000I-125000J0D01*
G01*
X204300000Y-87100000D01*
G75*
G02*
X204175000Y-86975000I0J125000D01*
G01*
X204175000Y-86725000D01*
G75*
G02*
X204300000Y-86600000I125000J0D01*
G01*
G37*
G36*
G01*
X204300000Y-85800000D02*
X205550000Y-85800000D01*
G75*
G02*
X205675000Y-85925000I0J-125000D01*
G01*
X205675000Y-86175000D01*
G75*
G02*
X205550000Y-86300000I-125000J0D01*
G01*
X204300000Y-86300000D01*
G75*
G02*
X204175000Y-86175000I0J125000D01*
G01*
X204175000Y-85925000D01*
G75*
G02*
X204300000Y-85800000I125000J0D01*
G01*
G37*
G36*
G01*
X204300000Y-85000000D02*
X205550000Y-85000000D01*
G75*
G02*
X205675000Y-85125000I0J-125000D01*
G01*
X205675000Y-85375000D01*
G75*
G02*
X205550000Y-85500000I-125000J0D01*
G01*
X204300000Y-85500000D01*
G75*
G02*
X204175000Y-85375000I0J125000D01*
G01*
X204175000Y-85125000D01*
G75*
G02*
X204300000Y-85000000I125000J0D01*
G01*
G37*
G36*
G01*
X204300000Y-84200000D02*
X205550000Y-84200000D01*
G75*
G02*
X205675000Y-84325000I0J-125000D01*
G01*
X205675000Y-84575000D01*
G75*
G02*
X205550000Y-84700000I-125000J0D01*
G01*
X204300000Y-84700000D01*
G75*
G02*
X204175000Y-84575000I0J125000D01*
G01*
X204175000Y-84325000D01*
G75*
G02*
X204300000Y-84200000I125000J0D01*
G01*
G37*
G36*
G01*
X206175000Y-82325000D02*
X206425000Y-82325000D01*
G75*
G02*
X206550000Y-82450000I0J-125000D01*
G01*
X206550000Y-83700000D01*
G75*
G02*
X206425000Y-83825000I-125000J0D01*
G01*
X206175000Y-83825000D01*
G75*
G02*
X206050000Y-83700000I0J125000D01*
G01*
X206050000Y-82450000D01*
G75*
G02*
X206175000Y-82325000I125000J0D01*
G01*
G37*
G36*
G01*
X206975000Y-82325000D02*
X207225000Y-82325000D01*
G75*
G02*
X207350000Y-82450000I0J-125000D01*
G01*
X207350000Y-83700000D01*
G75*
G02*
X207225000Y-83825000I-125000J0D01*
G01*
X206975000Y-83825000D01*
G75*
G02*
X206850000Y-83700000I0J125000D01*
G01*
X206850000Y-82450000D01*
G75*
G02*
X206975000Y-82325000I125000J0D01*
G01*
G37*
G36*
G01*
X207775000Y-82325000D02*
X208025000Y-82325000D01*
G75*
G02*
X208150000Y-82450000I0J-125000D01*
G01*
X208150000Y-83700000D01*
G75*
G02*
X208025000Y-83825000I-125000J0D01*
G01*
X207775000Y-83825000D01*
G75*
G02*
X207650000Y-83700000I0J125000D01*
G01*
X207650000Y-82450000D01*
G75*
G02*
X207775000Y-82325000I125000J0D01*
G01*
G37*
G36*
G01*
X208575000Y-82325000D02*
X208825000Y-82325000D01*
G75*
G02*
X208950000Y-82450000I0J-125000D01*
G01*
X208950000Y-83700000D01*
G75*
G02*
X208825000Y-83825000I-125000J0D01*
G01*
X208575000Y-83825000D01*
G75*
G02*
X208450000Y-83700000I0J125000D01*
G01*
X208450000Y-82450000D01*
G75*
G02*
X208575000Y-82325000I125000J0D01*
G01*
G37*
G36*
G01*
X209375000Y-82325000D02*
X209625000Y-82325000D01*
G75*
G02*
X209750000Y-82450000I0J-125000D01*
G01*
X209750000Y-83700000D01*
G75*
G02*
X209625000Y-83825000I-125000J0D01*
G01*
X209375000Y-83825000D01*
G75*
G02*
X209250000Y-83700000I0J125000D01*
G01*
X209250000Y-82450000D01*
G75*
G02*
X209375000Y-82325000I125000J0D01*
G01*
G37*
G36*
G01*
X210175000Y-82325000D02*
X210425000Y-82325000D01*
G75*
G02*
X210550000Y-82450000I0J-125000D01*
G01*
X210550000Y-83700000D01*
G75*
G02*
X210425000Y-83825000I-125000J0D01*
G01*
X210175000Y-83825000D01*
G75*
G02*
X210050000Y-83700000I0J125000D01*
G01*
X210050000Y-82450000D01*
G75*
G02*
X210175000Y-82325000I125000J0D01*
G01*
G37*
G36*
G01*
X210975000Y-82325000D02*
X211225000Y-82325000D01*
G75*
G02*
X211350000Y-82450000I0J-125000D01*
G01*
X211350000Y-83700000D01*
G75*
G02*
X211225000Y-83825000I-125000J0D01*
G01*
X210975000Y-83825000D01*
G75*
G02*
X210850000Y-83700000I0J125000D01*
G01*
X210850000Y-82450000D01*
G75*
G02*
X210975000Y-82325000I125000J0D01*
G01*
G37*
G36*
G01*
X211775000Y-82325000D02*
X212025000Y-82325000D01*
G75*
G02*
X212150000Y-82450000I0J-125000D01*
G01*
X212150000Y-83700000D01*
G75*
G02*
X212025000Y-83825000I-125000J0D01*
G01*
X211775000Y-83825000D01*
G75*
G02*
X211650000Y-83700000I0J125000D01*
G01*
X211650000Y-82450000D01*
G75*
G02*
X211775000Y-82325000I125000J0D01*
G01*
G37*
D13*
X216300000Y-94950000D03*
X212000000Y-94950000D03*
M02*
