G04 #@! TF.GenerationSoftware,KiCad,Pcbnew,5.1.6-c6e7f7d~86~ubuntu18.04.1*
G04 #@! TF.CreationDate,2020-05-23T21:04:01+02:00*
G04 #@! TF.ProjectId,sci2can,73636932-6361-46e2-9e6b-696361645f70,1.00*
G04 #@! TF.SameCoordinates,Original*
G04 #@! TF.FileFunction,Copper,L2,Bot*
G04 #@! TF.FilePolarity,Positive*
%FSLAX46Y46*%
G04 Gerber Fmt 4.6, Leading zero omitted, Abs format (unit mm)*
G04 Created by KiCad (PCBNEW 5.1.6-c6e7f7d~86~ubuntu18.04.1) date 2020-05-23 21:04:01*
%MOMM*%
%LPD*%
G01*
G04 APERTURE LIST*
G04 #@! TA.AperFunction,ComponentPad*
%ADD10C,1.500000*%
G04 #@! TD*
G04 #@! TA.AperFunction,ComponentPad*
%ADD11C,2.600000*%
G04 #@! TD*
G04 #@! TA.AperFunction,ComponentPad*
%ADD12R,2.600000X2.600000*%
G04 #@! TD*
G04 #@! TA.AperFunction,ComponentPad*
%ADD13O,1.700000X1.700000*%
G04 #@! TD*
G04 #@! TA.AperFunction,ComponentPad*
%ADD14R,1.700000X1.700000*%
G04 #@! TD*
G04 #@! TA.AperFunction,ComponentPad*
%ADD15O,1.905000X2.000000*%
G04 #@! TD*
G04 #@! TA.AperFunction,ComponentPad*
%ADD16R,1.905000X2.000000*%
G04 #@! TD*
G04 #@! TA.AperFunction,ViaPad*
%ADD17C,0.800000*%
G04 #@! TD*
G04 #@! TA.AperFunction,Conductor*
%ADD18C,0.250000*%
G04 #@! TD*
G04 #@! TA.AperFunction,Conductor*
%ADD19C,0.500000*%
G04 #@! TD*
G04 #@! TA.AperFunction,Conductor*
%ADD20C,1.000000*%
G04 #@! TD*
G04 #@! TA.AperFunction,Conductor*
%ADD21C,0.254000*%
G04 #@! TD*
G04 APERTURE END LIST*
G04 #@! TA.AperFunction,SMDPad,CuDef*
G36*
G01*
X210300000Y-156162500D02*
X210300000Y-156637500D01*
G75*
G02*
X210062500Y-156875000I-237500J0D01*
G01*
X209487500Y-156875000D01*
G75*
G02*
X209250000Y-156637500I0J237500D01*
G01*
X209250000Y-156162500D01*
G75*
G02*
X209487500Y-155925000I237500J0D01*
G01*
X210062500Y-155925000D01*
G75*
G02*
X210300000Y-156162500I0J-237500D01*
G01*
G37*
G04 #@! TD.AperFunction*
G04 #@! TA.AperFunction,SMDPad,CuDef*
G36*
G01*
X212050000Y-156162500D02*
X212050000Y-156637500D01*
G75*
G02*
X211812500Y-156875000I-237500J0D01*
G01*
X211237500Y-156875000D01*
G75*
G02*
X211000000Y-156637500I0J237500D01*
G01*
X211000000Y-156162500D01*
G75*
G02*
X211237500Y-155925000I237500J0D01*
G01*
X211812500Y-155925000D01*
G75*
G02*
X212050000Y-156162500I0J-237500D01*
G01*
G37*
G04 #@! TD.AperFunction*
D10*
X207420000Y-135450000D03*
X212300000Y-135450000D03*
G04 #@! TA.AperFunction,SMDPad,CuDef*
G36*
G01*
X224325000Y-156625000D02*
X224325000Y-155375000D01*
G75*
G02*
X224575000Y-155125000I250000J0D01*
G01*
X225500000Y-155125000D01*
G75*
G02*
X225750000Y-155375000I0J-250000D01*
G01*
X225750000Y-156625000D01*
G75*
G02*
X225500000Y-156875000I-250000J0D01*
G01*
X224575000Y-156875000D01*
G75*
G02*
X224325000Y-156625000I0J250000D01*
G01*
G37*
G04 #@! TD.AperFunction*
G04 #@! TA.AperFunction,SMDPad,CuDef*
G36*
G01*
X221350000Y-156625000D02*
X221350000Y-155375000D01*
G75*
G02*
X221600000Y-155125000I250000J0D01*
G01*
X222525000Y-155125000D01*
G75*
G02*
X222775000Y-155375000I0J-250000D01*
G01*
X222775000Y-156625000D01*
G75*
G02*
X222525000Y-156875000I-250000J0D01*
G01*
X221600000Y-156875000D01*
G75*
G02*
X221350000Y-156625000I0J250000D01*
G01*
G37*
G04 #@! TD.AperFunction*
G04 #@! TA.AperFunction,SMDPad,CuDef*
G36*
G01*
X209687500Y-143150000D02*
X209212500Y-143150000D01*
G75*
G02*
X208975000Y-142912500I0J237500D01*
G01*
X208975000Y-142337500D01*
G75*
G02*
X209212500Y-142100000I237500J0D01*
G01*
X209687500Y-142100000D01*
G75*
G02*
X209925000Y-142337500I0J-237500D01*
G01*
X209925000Y-142912500D01*
G75*
G02*
X209687500Y-143150000I-237500J0D01*
G01*
G37*
G04 #@! TD.AperFunction*
G04 #@! TA.AperFunction,SMDPad,CuDef*
G36*
G01*
X209687500Y-144900000D02*
X209212500Y-144900000D01*
G75*
G02*
X208975000Y-144662500I0J237500D01*
G01*
X208975000Y-144087500D01*
G75*
G02*
X209212500Y-143850000I237500J0D01*
G01*
X209687500Y-143850000D01*
G75*
G02*
X209925000Y-144087500I0J-237500D01*
G01*
X209925000Y-144662500D01*
G75*
G02*
X209687500Y-144900000I-237500J0D01*
G01*
G37*
G04 #@! TD.AperFunction*
G04 #@! TA.AperFunction,SMDPad,CuDef*
G36*
G01*
X214650000Y-154412500D02*
X214650000Y-154887500D01*
G75*
G02*
X214412500Y-155125000I-237500J0D01*
G01*
X213837500Y-155125000D01*
G75*
G02*
X213600000Y-154887500I0J237500D01*
G01*
X213600000Y-154412500D01*
G75*
G02*
X213837500Y-154175000I237500J0D01*
G01*
X214412500Y-154175000D01*
G75*
G02*
X214650000Y-154412500I0J-237500D01*
G01*
G37*
G04 #@! TD.AperFunction*
G04 #@! TA.AperFunction,SMDPad,CuDef*
G36*
G01*
X216400000Y-154412500D02*
X216400000Y-154887500D01*
G75*
G02*
X216162500Y-155125000I-237500J0D01*
G01*
X215587500Y-155125000D01*
G75*
G02*
X215350000Y-154887500I0J237500D01*
G01*
X215350000Y-154412500D01*
G75*
G02*
X215587500Y-154175000I237500J0D01*
G01*
X216162500Y-154175000D01*
G75*
G02*
X216400000Y-154412500I0J-237500D01*
G01*
G37*
G04 #@! TD.AperFunction*
G04 #@! TA.AperFunction,SMDPad,CuDef*
G36*
G01*
X210300000Y-154412500D02*
X210300000Y-154887500D01*
G75*
G02*
X210062500Y-155125000I-237500J0D01*
G01*
X209487500Y-155125000D01*
G75*
G02*
X209250000Y-154887500I0J237500D01*
G01*
X209250000Y-154412500D01*
G75*
G02*
X209487500Y-154175000I237500J0D01*
G01*
X210062500Y-154175000D01*
G75*
G02*
X210300000Y-154412500I0J-237500D01*
G01*
G37*
G04 #@! TD.AperFunction*
G04 #@! TA.AperFunction,SMDPad,CuDef*
G36*
G01*
X212050000Y-154412500D02*
X212050000Y-154887500D01*
G75*
G02*
X211812500Y-155125000I-237500J0D01*
G01*
X211237500Y-155125000D01*
G75*
G02*
X211000000Y-154887500I0J237500D01*
G01*
X211000000Y-154412500D01*
G75*
G02*
X211237500Y-154175000I237500J0D01*
G01*
X211812500Y-154175000D01*
G75*
G02*
X212050000Y-154412500I0J-237500D01*
G01*
G37*
G04 #@! TD.AperFunction*
G04 #@! TA.AperFunction,SMDPad,CuDef*
G36*
G01*
X198637500Y-146150000D02*
X198162500Y-146150000D01*
G75*
G02*
X197925000Y-145912500I0J237500D01*
G01*
X197925000Y-145337500D01*
G75*
G02*
X198162500Y-145100000I237500J0D01*
G01*
X198637500Y-145100000D01*
G75*
G02*
X198875000Y-145337500I0J-237500D01*
G01*
X198875000Y-145912500D01*
G75*
G02*
X198637500Y-146150000I-237500J0D01*
G01*
G37*
G04 #@! TD.AperFunction*
G04 #@! TA.AperFunction,SMDPad,CuDef*
G36*
G01*
X198637500Y-144400000D02*
X198162500Y-144400000D01*
G75*
G02*
X197925000Y-144162500I0J237500D01*
G01*
X197925000Y-143587500D01*
G75*
G02*
X198162500Y-143350000I237500J0D01*
G01*
X198637500Y-143350000D01*
G75*
G02*
X198875000Y-143587500I0J-237500D01*
G01*
X198875000Y-144162500D01*
G75*
G02*
X198637500Y-144400000I-237500J0D01*
G01*
G37*
G04 #@! TD.AperFunction*
D11*
X224200000Y-159650000D03*
X219200000Y-159650000D03*
X214200000Y-159650000D03*
X209200000Y-159650000D03*
X204200000Y-159650000D03*
D12*
X199200000Y-159650000D03*
G04 #@! TA.AperFunction,SMDPad,CuDef*
G36*
G01*
X214162500Y-143850000D02*
X214637500Y-143850000D01*
G75*
G02*
X214875000Y-144087500I0J-237500D01*
G01*
X214875000Y-144662500D01*
G75*
G02*
X214637500Y-144900000I-237500J0D01*
G01*
X214162500Y-144900000D01*
G75*
G02*
X213925000Y-144662500I0J237500D01*
G01*
X213925000Y-144087500D01*
G75*
G02*
X214162500Y-143850000I237500J0D01*
G01*
G37*
G04 #@! TD.AperFunction*
G04 #@! TA.AperFunction,SMDPad,CuDef*
G36*
G01*
X214162500Y-142100000D02*
X214637500Y-142100000D01*
G75*
G02*
X214875000Y-142337500I0J-237500D01*
G01*
X214875000Y-142912500D01*
G75*
G02*
X214637500Y-143150000I-237500J0D01*
G01*
X214162500Y-143150000D01*
G75*
G02*
X213925000Y-142912500I0J237500D01*
G01*
X213925000Y-142337500D01*
G75*
G02*
X214162500Y-142100000I237500J0D01*
G01*
G37*
G04 #@! TD.AperFunction*
G04 #@! TA.AperFunction,SMDPad,CuDef*
G36*
G01*
X216312500Y-143850000D02*
X216787500Y-143850000D01*
G75*
G02*
X217025000Y-144087500I0J-237500D01*
G01*
X217025000Y-144662500D01*
G75*
G02*
X216787500Y-144900000I-237500J0D01*
G01*
X216312500Y-144900000D01*
G75*
G02*
X216075000Y-144662500I0J237500D01*
G01*
X216075000Y-144087500D01*
G75*
G02*
X216312500Y-143850000I237500J0D01*
G01*
G37*
G04 #@! TD.AperFunction*
G04 #@! TA.AperFunction,SMDPad,CuDef*
G36*
G01*
X216312500Y-142100000D02*
X216787500Y-142100000D01*
G75*
G02*
X217025000Y-142337500I0J-237500D01*
G01*
X217025000Y-142912500D01*
G75*
G02*
X216787500Y-143150000I-237500J0D01*
G01*
X216312500Y-143150000D01*
G75*
G02*
X216075000Y-142912500I0J237500D01*
G01*
X216075000Y-142337500D01*
G75*
G02*
X216312500Y-142100000I237500J0D01*
G01*
G37*
G04 #@! TD.AperFunction*
G04 #@! TA.AperFunction,SMDPad,CuDef*
G36*
G01*
X214650000Y-156162500D02*
X214650000Y-156637500D01*
G75*
G02*
X214412500Y-156875000I-237500J0D01*
G01*
X213837500Y-156875000D01*
G75*
G02*
X213600000Y-156637500I0J237500D01*
G01*
X213600000Y-156162500D01*
G75*
G02*
X213837500Y-155925000I237500J0D01*
G01*
X214412500Y-155925000D01*
G75*
G02*
X214650000Y-156162500I0J-237500D01*
G01*
G37*
G04 #@! TD.AperFunction*
G04 #@! TA.AperFunction,SMDPad,CuDef*
G36*
G01*
X216400000Y-156162500D02*
X216400000Y-156637500D01*
G75*
G02*
X216162500Y-156875000I-237500J0D01*
G01*
X215587500Y-156875000D01*
G75*
G02*
X215350000Y-156637500I0J237500D01*
G01*
X215350000Y-156162500D01*
G75*
G02*
X215587500Y-155925000I237500J0D01*
G01*
X216162500Y-155925000D01*
G75*
G02*
X216400000Y-156162500I0J-237500D01*
G01*
G37*
G04 #@! TD.AperFunction*
D13*
X201040000Y-139680000D03*
X198500000Y-139680000D03*
X201040000Y-137140000D03*
X198500000Y-137140000D03*
X201040000Y-134600000D03*
D14*
X198500000Y-134600000D03*
D15*
X224430000Y-152450000D03*
X221890000Y-152450000D03*
D16*
X219350000Y-152450000D03*
G04 #@! TA.AperFunction,SMDPad,CuDef*
G36*
G01*
X200562500Y-145100000D02*
X201037500Y-145100000D01*
G75*
G02*
X201275000Y-145337500I0J-237500D01*
G01*
X201275000Y-145912500D01*
G75*
G02*
X201037500Y-146150000I-237500J0D01*
G01*
X200562500Y-146150000D01*
G75*
G02*
X200325000Y-145912500I0J237500D01*
G01*
X200325000Y-145337500D01*
G75*
G02*
X200562500Y-145100000I237500J0D01*
G01*
G37*
G04 #@! TD.AperFunction*
G04 #@! TA.AperFunction,SMDPad,CuDef*
G36*
G01*
X200562500Y-143350000D02*
X201037500Y-143350000D01*
G75*
G02*
X201275000Y-143587500I0J-237500D01*
G01*
X201275000Y-144162500D01*
G75*
G02*
X201037500Y-144400000I-237500J0D01*
G01*
X200562500Y-144400000D01*
G75*
G02*
X200325000Y-144162500I0J237500D01*
G01*
X200325000Y-143587500D01*
G75*
G02*
X200562500Y-143350000I237500J0D01*
G01*
G37*
G04 #@! TD.AperFunction*
G04 #@! TA.AperFunction,SMDPad,CuDef*
G36*
G01*
X201650000Y-156162500D02*
X201650000Y-156637500D01*
G75*
G02*
X201412500Y-156875000I-237500J0D01*
G01*
X200837500Y-156875000D01*
G75*
G02*
X200600000Y-156637500I0J237500D01*
G01*
X200600000Y-156162500D01*
G75*
G02*
X200837500Y-155925000I237500J0D01*
G01*
X201412500Y-155925000D01*
G75*
G02*
X201650000Y-156162500I0J-237500D01*
G01*
G37*
G04 #@! TD.AperFunction*
G04 #@! TA.AperFunction,SMDPad,CuDef*
G36*
G01*
X203400000Y-156162500D02*
X203400000Y-156637500D01*
G75*
G02*
X203162500Y-156875000I-237500J0D01*
G01*
X202587500Y-156875000D01*
G75*
G02*
X202350000Y-156637500I0J237500D01*
G01*
X202350000Y-156162500D01*
G75*
G02*
X202587500Y-155925000I237500J0D01*
G01*
X203162500Y-155925000D01*
G75*
G02*
X203400000Y-156162500I0J-237500D01*
G01*
G37*
G04 #@! TD.AperFunction*
G04 #@! TA.AperFunction,SMDPad,CuDef*
G36*
G01*
X209500000Y-134012500D02*
X209500000Y-134487500D01*
G75*
G02*
X209262500Y-134725000I-237500J0D01*
G01*
X208687500Y-134725000D01*
G75*
G02*
X208450000Y-134487500I0J237500D01*
G01*
X208450000Y-134012500D01*
G75*
G02*
X208687500Y-133775000I237500J0D01*
G01*
X209262500Y-133775000D01*
G75*
G02*
X209500000Y-134012500I0J-237500D01*
G01*
G37*
G04 #@! TD.AperFunction*
G04 #@! TA.AperFunction,SMDPad,CuDef*
G36*
G01*
X211250000Y-134012500D02*
X211250000Y-134487500D01*
G75*
G02*
X211012500Y-134725000I-237500J0D01*
G01*
X210437500Y-134725000D01*
G75*
G02*
X210200000Y-134487500I0J237500D01*
G01*
X210200000Y-134012500D01*
G75*
G02*
X210437500Y-133775000I237500J0D01*
G01*
X211012500Y-133775000D01*
G75*
G02*
X211250000Y-134012500I0J-237500D01*
G01*
G37*
G04 #@! TD.AperFunction*
G04 #@! TA.AperFunction,SMDPad,CuDef*
G36*
G01*
X218925000Y-156162500D02*
X218925000Y-156637500D01*
G75*
G02*
X218687500Y-156875000I-237500J0D01*
G01*
X218112500Y-156875000D01*
G75*
G02*
X217875000Y-156637500I0J237500D01*
G01*
X217875000Y-156162500D01*
G75*
G02*
X218112500Y-155925000I237500J0D01*
G01*
X218687500Y-155925000D01*
G75*
G02*
X218925000Y-156162500I0J-237500D01*
G01*
G37*
G04 #@! TD.AperFunction*
G04 #@! TA.AperFunction,SMDPad,CuDef*
G36*
G01*
X220675000Y-156162500D02*
X220675000Y-156637500D01*
G75*
G02*
X220437500Y-156875000I-237500J0D01*
G01*
X219862500Y-156875000D01*
G75*
G02*
X219625000Y-156637500I0J237500D01*
G01*
X219625000Y-156162500D01*
G75*
G02*
X219862500Y-155925000I237500J0D01*
G01*
X220437500Y-155925000D01*
G75*
G02*
X220675000Y-156162500I0J-237500D01*
G01*
G37*
G04 #@! TD.AperFunction*
G04 #@! TA.AperFunction,SMDPad,CuDef*
G36*
G01*
X223100000Y-142312500D02*
X223100000Y-142787500D01*
G75*
G02*
X222862500Y-143025000I-237500J0D01*
G01*
X222287500Y-143025000D01*
G75*
G02*
X222050000Y-142787500I0J237500D01*
G01*
X222050000Y-142312500D01*
G75*
G02*
X222287500Y-142075000I237500J0D01*
G01*
X222862500Y-142075000D01*
G75*
G02*
X223100000Y-142312500I0J-237500D01*
G01*
G37*
G04 #@! TD.AperFunction*
G04 #@! TA.AperFunction,SMDPad,CuDef*
G36*
G01*
X224850000Y-142312500D02*
X224850000Y-142787500D01*
G75*
G02*
X224612500Y-143025000I-237500J0D01*
G01*
X224037500Y-143025000D01*
G75*
G02*
X223800000Y-142787500I0J237500D01*
G01*
X223800000Y-142312500D01*
G75*
G02*
X224037500Y-142075000I237500J0D01*
G01*
X224612500Y-142075000D01*
G75*
G02*
X224850000Y-142312500I0J-237500D01*
G01*
G37*
G04 #@! TD.AperFunction*
G04 #@! TA.AperFunction,SMDPad,CuDef*
G36*
G01*
X219950000Y-142787500D02*
X219950000Y-142312500D01*
G75*
G02*
X220187500Y-142075000I237500J0D01*
G01*
X220762500Y-142075000D01*
G75*
G02*
X221000000Y-142312500I0J-237500D01*
G01*
X221000000Y-142787500D01*
G75*
G02*
X220762500Y-143025000I-237500J0D01*
G01*
X220187500Y-143025000D01*
G75*
G02*
X219950000Y-142787500I0J237500D01*
G01*
G37*
G04 #@! TD.AperFunction*
G04 #@! TA.AperFunction,SMDPad,CuDef*
G36*
G01*
X218200000Y-142787500D02*
X218200000Y-142312500D01*
G75*
G02*
X218437500Y-142075000I237500J0D01*
G01*
X219012500Y-142075000D01*
G75*
G02*
X219250000Y-142312500I0J-237500D01*
G01*
X219250000Y-142787500D01*
G75*
G02*
X219012500Y-143025000I-237500J0D01*
G01*
X218437500Y-143025000D01*
G75*
G02*
X218200000Y-142787500I0J237500D01*
G01*
G37*
G04 #@! TD.AperFunction*
G04 #@! TA.AperFunction,SMDPad,CuDef*
G36*
G01*
X203487500Y-139850000D02*
X203012500Y-139850000D01*
G75*
G02*
X202775000Y-139612500I0J237500D01*
G01*
X202775000Y-139037500D01*
G75*
G02*
X203012500Y-138800000I237500J0D01*
G01*
X203487500Y-138800000D01*
G75*
G02*
X203725000Y-139037500I0J-237500D01*
G01*
X203725000Y-139612500D01*
G75*
G02*
X203487500Y-139850000I-237500J0D01*
G01*
G37*
G04 #@! TD.AperFunction*
G04 #@! TA.AperFunction,SMDPad,CuDef*
G36*
G01*
X203487500Y-141600000D02*
X203012500Y-141600000D01*
G75*
G02*
X202775000Y-141362500I0J237500D01*
G01*
X202775000Y-140787500D01*
G75*
G02*
X203012500Y-140550000I237500J0D01*
G01*
X203487500Y-140550000D01*
G75*
G02*
X203725000Y-140787500I0J-237500D01*
G01*
X203725000Y-141362500D01*
G75*
G02*
X203487500Y-141600000I-237500J0D01*
G01*
G37*
G04 #@! TD.AperFunction*
G04 #@! TA.AperFunction,SMDPad,CuDef*
G36*
G01*
X207012500Y-143850000D02*
X207487500Y-143850000D01*
G75*
G02*
X207725000Y-144087500I0J-237500D01*
G01*
X207725000Y-144662500D01*
G75*
G02*
X207487500Y-144900000I-237500J0D01*
G01*
X207012500Y-144900000D01*
G75*
G02*
X206775000Y-144662500I0J237500D01*
G01*
X206775000Y-144087500D01*
G75*
G02*
X207012500Y-143850000I237500J0D01*
G01*
G37*
G04 #@! TD.AperFunction*
G04 #@! TA.AperFunction,SMDPad,CuDef*
G36*
G01*
X207012500Y-142100000D02*
X207487500Y-142100000D01*
G75*
G02*
X207725000Y-142337500I0J-237500D01*
G01*
X207725000Y-142912500D01*
G75*
G02*
X207487500Y-143150000I-237500J0D01*
G01*
X207012500Y-143150000D01*
G75*
G02*
X206775000Y-142912500I0J237500D01*
G01*
X206775000Y-142337500D01*
G75*
G02*
X207012500Y-142100000I237500J0D01*
G01*
G37*
G04 #@! TD.AperFunction*
G04 #@! TA.AperFunction,SMDPad,CuDef*
G36*
G01*
X222787500Y-144950000D02*
X222312500Y-144950000D01*
G75*
G02*
X222075000Y-144712500I0J237500D01*
G01*
X222075000Y-144137500D01*
G75*
G02*
X222312500Y-143900000I237500J0D01*
G01*
X222787500Y-143900000D01*
G75*
G02*
X223025000Y-144137500I0J-237500D01*
G01*
X223025000Y-144712500D01*
G75*
G02*
X222787500Y-144950000I-237500J0D01*
G01*
G37*
G04 #@! TD.AperFunction*
G04 #@! TA.AperFunction,SMDPad,CuDef*
G36*
G01*
X222787500Y-146700000D02*
X222312500Y-146700000D01*
G75*
G02*
X222075000Y-146462500I0J237500D01*
G01*
X222075000Y-145887500D01*
G75*
G02*
X222312500Y-145650000I237500J0D01*
G01*
X222787500Y-145650000D01*
G75*
G02*
X223025000Y-145887500I0J-237500D01*
G01*
X223025000Y-146462500D01*
G75*
G02*
X222787500Y-146700000I-237500J0D01*
G01*
G37*
G04 #@! TD.AperFunction*
G04 #@! TA.AperFunction,SMDPad,CuDef*
G36*
G01*
X220737500Y-144950000D02*
X220262500Y-144950000D01*
G75*
G02*
X220025000Y-144712500I0J237500D01*
G01*
X220025000Y-144137500D01*
G75*
G02*
X220262500Y-143900000I237500J0D01*
G01*
X220737500Y-143900000D01*
G75*
G02*
X220975000Y-144137500I0J-237500D01*
G01*
X220975000Y-144712500D01*
G75*
G02*
X220737500Y-144950000I-237500J0D01*
G01*
G37*
G04 #@! TD.AperFunction*
G04 #@! TA.AperFunction,SMDPad,CuDef*
G36*
G01*
X220737500Y-146700000D02*
X220262500Y-146700000D01*
G75*
G02*
X220025000Y-146462500I0J237500D01*
G01*
X220025000Y-145887500D01*
G75*
G02*
X220262500Y-145650000I237500J0D01*
G01*
X220737500Y-145650000D01*
G75*
G02*
X220975000Y-145887500I0J-237500D01*
G01*
X220975000Y-146462500D01*
G75*
G02*
X220737500Y-146700000I-237500J0D01*
G01*
G37*
G04 #@! TD.AperFunction*
G04 #@! TA.AperFunction,SMDPad,CuDef*
G36*
G01*
X205212500Y-136650000D02*
X205687500Y-136650000D01*
G75*
G02*
X205925000Y-136887500I0J-237500D01*
G01*
X205925000Y-137462500D01*
G75*
G02*
X205687500Y-137700000I-237500J0D01*
G01*
X205212500Y-137700000D01*
G75*
G02*
X204975000Y-137462500I0J237500D01*
G01*
X204975000Y-136887500D01*
G75*
G02*
X205212500Y-136650000I237500J0D01*
G01*
G37*
G04 #@! TD.AperFunction*
G04 #@! TA.AperFunction,SMDPad,CuDef*
G36*
G01*
X205212500Y-134900000D02*
X205687500Y-134900000D01*
G75*
G02*
X205925000Y-135137500I0J-237500D01*
G01*
X205925000Y-135712500D01*
G75*
G02*
X205687500Y-135950000I-237500J0D01*
G01*
X205212500Y-135950000D01*
G75*
G02*
X204975000Y-135712500I0J237500D01*
G01*
X204975000Y-135137500D01*
G75*
G02*
X205212500Y-134900000I237500J0D01*
G01*
G37*
G04 #@! TD.AperFunction*
G04 #@! TA.AperFunction,SMDPad,CuDef*
G36*
G01*
X214062500Y-136675000D02*
X214537500Y-136675000D01*
G75*
G02*
X214775000Y-136912500I0J-237500D01*
G01*
X214775000Y-137487500D01*
G75*
G02*
X214537500Y-137725000I-237500J0D01*
G01*
X214062500Y-137725000D01*
G75*
G02*
X213825000Y-137487500I0J237500D01*
G01*
X213825000Y-136912500D01*
G75*
G02*
X214062500Y-136675000I237500J0D01*
G01*
G37*
G04 #@! TD.AperFunction*
G04 #@! TA.AperFunction,SMDPad,CuDef*
G36*
G01*
X214062500Y-134925000D02*
X214537500Y-134925000D01*
G75*
G02*
X214775000Y-135162500I0J-237500D01*
G01*
X214775000Y-135737500D01*
G75*
G02*
X214537500Y-135975000I-237500J0D01*
G01*
X214062500Y-135975000D01*
G75*
G02*
X213825000Y-135737500I0J237500D01*
G01*
X213825000Y-135162500D01*
G75*
G02*
X214062500Y-134925000I237500J0D01*
G01*
G37*
G04 #@! TD.AperFunction*
G04 #@! TA.AperFunction,SMDPad,CuDef*
G36*
G01*
X203487500Y-135900000D02*
X203012500Y-135900000D01*
G75*
G02*
X202775000Y-135662500I0J237500D01*
G01*
X202775000Y-135087500D01*
G75*
G02*
X203012500Y-134850000I237500J0D01*
G01*
X203487500Y-134850000D01*
G75*
G02*
X203725000Y-135087500I0J-237500D01*
G01*
X203725000Y-135662500D01*
G75*
G02*
X203487500Y-135900000I-237500J0D01*
G01*
G37*
G04 #@! TD.AperFunction*
G04 #@! TA.AperFunction,SMDPad,CuDef*
G36*
G01*
X203487500Y-137650000D02*
X203012500Y-137650000D01*
G75*
G02*
X202775000Y-137412500I0J237500D01*
G01*
X202775000Y-136837500D01*
G75*
G02*
X203012500Y-136600000I237500J0D01*
G01*
X203487500Y-136600000D01*
G75*
G02*
X203725000Y-136837500I0J-237500D01*
G01*
X203725000Y-137412500D01*
G75*
G02*
X203487500Y-137650000I-237500J0D01*
G01*
G37*
G04 #@! TD.AperFunction*
G04 #@! TA.AperFunction,SMDPad,CuDef*
G36*
G01*
X223100000Y-149162500D02*
X223100000Y-149637500D01*
G75*
G02*
X222862500Y-149875000I-237500J0D01*
G01*
X222287500Y-149875000D01*
G75*
G02*
X222050000Y-149637500I0J237500D01*
G01*
X222050000Y-149162500D01*
G75*
G02*
X222287500Y-148925000I237500J0D01*
G01*
X222862500Y-148925000D01*
G75*
G02*
X223100000Y-149162500I0J-237500D01*
G01*
G37*
G04 #@! TD.AperFunction*
G04 #@! TA.AperFunction,SMDPad,CuDef*
G36*
G01*
X224850000Y-149162500D02*
X224850000Y-149637500D01*
G75*
G02*
X224612500Y-149875000I-237500J0D01*
G01*
X224037500Y-149875000D01*
G75*
G02*
X223800000Y-149637500I0J237500D01*
G01*
X223800000Y-149162500D01*
G75*
G02*
X224037500Y-148925000I237500J0D01*
G01*
X224612500Y-148925000D01*
G75*
G02*
X224850000Y-149162500I0J-237500D01*
G01*
G37*
G04 #@! TD.AperFunction*
G04 #@! TA.AperFunction,SMDPad,CuDef*
G36*
G01*
X211712500Y-143850000D02*
X212187500Y-143850000D01*
G75*
G02*
X212425000Y-144087500I0J-237500D01*
G01*
X212425000Y-144662500D01*
G75*
G02*
X212187500Y-144900000I-237500J0D01*
G01*
X211712500Y-144900000D01*
G75*
G02*
X211475000Y-144662500I0J237500D01*
G01*
X211475000Y-144087500D01*
G75*
G02*
X211712500Y-143850000I237500J0D01*
G01*
G37*
G04 #@! TD.AperFunction*
G04 #@! TA.AperFunction,SMDPad,CuDef*
G36*
G01*
X211712500Y-142100000D02*
X212187500Y-142100000D01*
G75*
G02*
X212425000Y-142337500I0J-237500D01*
G01*
X212425000Y-142912500D01*
G75*
G02*
X212187500Y-143150000I-237500J0D01*
G01*
X211712500Y-143150000D01*
G75*
G02*
X211475000Y-142912500I0J237500D01*
G01*
X211475000Y-142337500D01*
G75*
G02*
X211712500Y-142100000I237500J0D01*
G01*
G37*
G04 #@! TD.AperFunction*
G04 #@! TA.AperFunction,SMDPad,CuDef*
G36*
G01*
X219950000Y-149637500D02*
X219950000Y-149162500D01*
G75*
G02*
X220187500Y-148925000I237500J0D01*
G01*
X220762500Y-148925000D01*
G75*
G02*
X221000000Y-149162500I0J-237500D01*
G01*
X221000000Y-149637500D01*
G75*
G02*
X220762500Y-149875000I-237500J0D01*
G01*
X220187500Y-149875000D01*
G75*
G02*
X219950000Y-149637500I0J237500D01*
G01*
G37*
G04 #@! TD.AperFunction*
G04 #@! TA.AperFunction,SMDPad,CuDef*
G36*
G01*
X218200000Y-149637500D02*
X218200000Y-149162500D01*
G75*
G02*
X218437500Y-148925000I237500J0D01*
G01*
X219012500Y-148925000D01*
G75*
G02*
X219250000Y-149162500I0J-237500D01*
G01*
X219250000Y-149637500D01*
G75*
G02*
X219012500Y-149875000I-237500J0D01*
G01*
X218437500Y-149875000D01*
G75*
G02*
X218200000Y-149637500I0J237500D01*
G01*
G37*
G04 #@! TD.AperFunction*
D17*
X211950000Y-144400000D03*
X200800000Y-143700000D03*
X203050000Y-150650000D03*
X211950000Y-142600000D03*
X218550000Y-142550000D03*
X207300000Y-144350000D03*
X209400000Y-142600000D03*
X220150000Y-156400000D03*
X200800000Y-145750000D03*
X216550000Y-142625000D03*
X216550000Y-144450000D03*
X211500000Y-154650000D03*
X198400000Y-145700000D03*
X209775000Y-154650000D03*
D18*
X211950000Y-144350000D02*
X211950000Y-144400000D01*
D19*
X200800000Y-143875000D02*
X200800000Y-143700000D01*
X209725000Y-156400000D02*
X209600000Y-156400000D01*
D20*
X218675000Y-151775000D02*
X219350000Y-152450000D01*
X218675000Y-149400000D02*
X218675000Y-151775000D01*
X224325000Y-142550000D02*
X224325000Y-142075000D01*
X205975000Y-141075000D02*
X206000000Y-141100000D01*
X203250000Y-141075000D02*
X205975000Y-141075000D01*
X211950000Y-142600000D02*
X211950000Y-141100000D01*
X223350000Y-141100000D02*
X224325000Y-142075000D01*
X211950000Y-141100000D02*
X223350000Y-141100000D01*
X224325000Y-142550000D02*
X224325000Y-149400000D01*
X224325000Y-152325000D02*
X224450000Y-152450000D01*
X224325000Y-149400000D02*
X224325000Y-152325000D01*
X207250000Y-142625000D02*
X207250000Y-141100000D01*
X207250000Y-141100000D02*
X211950000Y-141100000D01*
X206000000Y-141100000D02*
X207250000Y-141100000D01*
X202435000Y-141075000D02*
X203250000Y-141075000D01*
X201040000Y-139680000D02*
X202435000Y-141075000D01*
D19*
X203250000Y-139325000D02*
X203250000Y-137125000D01*
X201055000Y-137125000D02*
X201040000Y-137140000D01*
X203250000Y-137125000D02*
X201055000Y-137125000D01*
X212300000Y-135450000D02*
X214300000Y-135450000D01*
X211100000Y-134250000D02*
X212300000Y-135450000D01*
X210725000Y-134250000D02*
X211100000Y-134250000D01*
X205475000Y-135450000D02*
X205450000Y-135425000D01*
X207420000Y-135450000D02*
X205475000Y-135450000D01*
X208620000Y-134250000D02*
X207420000Y-135450000D01*
X208975000Y-134250000D02*
X208620000Y-134250000D01*
X218725000Y-142550000D02*
X218550000Y-142550000D01*
X207275000Y-144325000D02*
X207300000Y-144350000D01*
X206050000Y-143100000D02*
X207300000Y-144350000D01*
X206050000Y-142550000D02*
X206050000Y-143100000D01*
X205750000Y-142250000D02*
X206050000Y-142550000D01*
X201300000Y-142250000D02*
X205750000Y-142250000D01*
D18*
X199800000Y-134800000D02*
X199800000Y-140750000D01*
D19*
X199800000Y-140750000D02*
X201300000Y-142250000D01*
D18*
X199600000Y-134600000D02*
X199800000Y-134800000D01*
X198500000Y-134600000D02*
X199600000Y-134600000D01*
D19*
X209425000Y-142625000D02*
X209400000Y-142600000D01*
X209550000Y-142625000D02*
X209425000Y-142625000D01*
D18*
X209425000Y-142600000D02*
X209450000Y-142625000D01*
X209400000Y-142600000D02*
X209425000Y-142600000D01*
D19*
X221662500Y-156400000D02*
X222062500Y-156000000D01*
X220150000Y-156400000D02*
X221662500Y-156400000D01*
X220475000Y-144400000D02*
X220500000Y-144425000D01*
X220475000Y-142550000D02*
X220475000Y-144400000D01*
X200800000Y-145625000D02*
X200800000Y-145750000D01*
X222575000Y-144400000D02*
X222550000Y-144425000D01*
X222575000Y-142550000D02*
X222575000Y-144400000D01*
X216550000Y-142625000D02*
X214400000Y-142625000D01*
X216550000Y-144375000D02*
X216550000Y-144450000D01*
X211525000Y-154650000D02*
X211500000Y-154650000D01*
D20*
X202875000Y-158075000D02*
X204450000Y-159650000D01*
X202875000Y-158075000D02*
X202875000Y-156400000D01*
X201125000Y-157975000D02*
X199450000Y-159650000D01*
X201125000Y-156400000D02*
X201125000Y-157975000D01*
D19*
X198400000Y-145625000D02*
X198400000Y-145700000D01*
D18*
X211475000Y-156400000D02*
X211650000Y-156400000D01*
X214200000Y-156475000D02*
X214125000Y-156400000D01*
D20*
X214200000Y-159650000D02*
X214200000Y-156475000D01*
D19*
X214125000Y-154650000D02*
X214125000Y-156400000D01*
X214125000Y-156400000D02*
X211525000Y-156400000D01*
X218400000Y-156400000D02*
X215875000Y-156400000D01*
X215875000Y-154650000D02*
X215875000Y-156400000D01*
D21*
G36*
X226590001Y-163740000D02*
G01*
X196810000Y-163740000D01*
X196810000Y-158350000D01*
X197261928Y-158350000D01*
X197261928Y-160950000D01*
X197274188Y-161074482D01*
X197310498Y-161194180D01*
X197369463Y-161304494D01*
X197448815Y-161401185D01*
X197545506Y-161480537D01*
X197655820Y-161539502D01*
X197775518Y-161575812D01*
X197900000Y-161588072D01*
X200500000Y-161588072D01*
X200624482Y-161575812D01*
X200744180Y-161539502D01*
X200854494Y-161480537D01*
X200951185Y-161401185D01*
X201030537Y-161304494D01*
X201089502Y-161194180D01*
X201125812Y-161074482D01*
X201138072Y-160950000D01*
X201138072Y-159567060D01*
X201888146Y-158816987D01*
X201931449Y-158781449D01*
X201958966Y-158747920D01*
X202068551Y-158881449D01*
X202111865Y-158916996D01*
X202329587Y-159134718D01*
X202265000Y-159459419D01*
X202265000Y-159840581D01*
X202339361Y-160214419D01*
X202485225Y-160566566D01*
X202696987Y-160883491D01*
X202966509Y-161153013D01*
X203283434Y-161364775D01*
X203635581Y-161510639D01*
X204009419Y-161585000D01*
X204390581Y-161585000D01*
X204764419Y-161510639D01*
X205116566Y-161364775D01*
X205433491Y-161153013D01*
X205703013Y-160883491D01*
X205914775Y-160566566D01*
X206060639Y-160214419D01*
X206135000Y-159840581D01*
X206135000Y-159459419D01*
X207265000Y-159459419D01*
X207265000Y-159840581D01*
X207339361Y-160214419D01*
X207485225Y-160566566D01*
X207696987Y-160883491D01*
X207966509Y-161153013D01*
X208283434Y-161364775D01*
X208635581Y-161510639D01*
X209009419Y-161585000D01*
X209390581Y-161585000D01*
X209764419Y-161510639D01*
X210116566Y-161364775D01*
X210433491Y-161153013D01*
X210703013Y-160883491D01*
X210914775Y-160566566D01*
X211060639Y-160214419D01*
X211135000Y-159840581D01*
X211135000Y-159459419D01*
X211060639Y-159085581D01*
X210914775Y-158733434D01*
X210703013Y-158416509D01*
X210433491Y-158146987D01*
X210116566Y-157935225D01*
X209764419Y-157789361D01*
X209390581Y-157715000D01*
X209009419Y-157715000D01*
X208635581Y-157789361D01*
X208283434Y-157935225D01*
X207966509Y-158146987D01*
X207696987Y-158416509D01*
X207485225Y-158733434D01*
X207339361Y-159085581D01*
X207265000Y-159459419D01*
X206135000Y-159459419D01*
X206060639Y-159085581D01*
X205914775Y-158733434D01*
X205703013Y-158416509D01*
X205433491Y-158146987D01*
X205116566Y-157935225D01*
X204764419Y-157789361D01*
X204390581Y-157715000D01*
X204120131Y-157715000D01*
X204010000Y-157604869D01*
X204010000Y-156875000D01*
X208611928Y-156875000D01*
X208624188Y-156999482D01*
X208660498Y-157119180D01*
X208719463Y-157229494D01*
X208798815Y-157326185D01*
X208895506Y-157405537D01*
X209005820Y-157464502D01*
X209125518Y-157500812D01*
X209250000Y-157513072D01*
X209489250Y-157510000D01*
X209648000Y-157351250D01*
X209648000Y-156527000D01*
X208773750Y-156527000D01*
X208615000Y-156685750D01*
X208611928Y-156875000D01*
X204010000Y-156875000D01*
X204010000Y-156845396D01*
X204021248Y-156808316D01*
X204038072Y-156637500D01*
X204038072Y-156162500D01*
X204021248Y-155991684D01*
X203971423Y-155827433D01*
X203890512Y-155676058D01*
X203781623Y-155543377D01*
X203648942Y-155434488D01*
X203497567Y-155353577D01*
X203333316Y-155303752D01*
X203162500Y-155286928D01*
X203115646Y-155286928D01*
X203097499Y-155281423D01*
X202875000Y-155259509D01*
X202652502Y-155281423D01*
X202634355Y-155286928D01*
X202587500Y-155286928D01*
X202416684Y-155303752D01*
X202252433Y-155353577D01*
X202101058Y-155434488D01*
X202000000Y-155517425D01*
X201898942Y-155434488D01*
X201747567Y-155353577D01*
X201583316Y-155303752D01*
X201412500Y-155286928D01*
X201365645Y-155286928D01*
X201347498Y-155281423D01*
X201125000Y-155259509D01*
X200902501Y-155281423D01*
X200884354Y-155286928D01*
X200837500Y-155286928D01*
X200666684Y-155303752D01*
X200502433Y-155353577D01*
X200351058Y-155434488D01*
X200218377Y-155543377D01*
X200109488Y-155676058D01*
X200028577Y-155827433D01*
X199978752Y-155991684D01*
X199961928Y-156162500D01*
X199961928Y-156637500D01*
X199978752Y-156808316D01*
X199990000Y-156845396D01*
X199990000Y-157504867D01*
X199782940Y-157711928D01*
X197900000Y-157711928D01*
X197775518Y-157724188D01*
X197655820Y-157760498D01*
X197545506Y-157819463D01*
X197448815Y-157898815D01*
X197369463Y-157995506D01*
X197310498Y-158105820D01*
X197274188Y-158225518D01*
X197261928Y-158350000D01*
X196810000Y-158350000D01*
X196810000Y-154412500D01*
X208611928Y-154412500D01*
X208611928Y-154887500D01*
X208628752Y-155058316D01*
X208678577Y-155222567D01*
X208759488Y-155373942D01*
X208824293Y-155452906D01*
X208798815Y-155473815D01*
X208719463Y-155570506D01*
X208660498Y-155680820D01*
X208624188Y-155800518D01*
X208611928Y-155925000D01*
X208615000Y-156114250D01*
X208773750Y-156273000D01*
X209648000Y-156273000D01*
X209648000Y-156253000D01*
X209902000Y-156253000D01*
X209902000Y-156273000D01*
X209922000Y-156273000D01*
X209922000Y-156527000D01*
X209902000Y-156527000D01*
X209902000Y-157351250D01*
X210060750Y-157510000D01*
X210300000Y-157513072D01*
X210424482Y-157500812D01*
X210544180Y-157464502D01*
X210654494Y-157405537D01*
X210727161Y-157345901D01*
X210751058Y-157365512D01*
X210902433Y-157446423D01*
X211066684Y-157496248D01*
X211237500Y-157513072D01*
X211812500Y-157513072D01*
X211983316Y-157496248D01*
X212147567Y-157446423D01*
X212298942Y-157365512D01*
X212397046Y-157285000D01*
X213065001Y-157285000D01*
X213065000Y-158081177D01*
X212966509Y-158146987D01*
X212696987Y-158416509D01*
X212485225Y-158733434D01*
X212339361Y-159085581D01*
X212265000Y-159459419D01*
X212265000Y-159840581D01*
X212339361Y-160214419D01*
X212485225Y-160566566D01*
X212696987Y-160883491D01*
X212966509Y-161153013D01*
X213283434Y-161364775D01*
X213635581Y-161510639D01*
X214009419Y-161585000D01*
X214390581Y-161585000D01*
X214764419Y-161510639D01*
X215116566Y-161364775D01*
X215433491Y-161153013D01*
X215703013Y-160883491D01*
X215914775Y-160566566D01*
X216060639Y-160214419D01*
X216135000Y-159840581D01*
X216135000Y-159459419D01*
X217265000Y-159459419D01*
X217265000Y-159840581D01*
X217339361Y-160214419D01*
X217485225Y-160566566D01*
X217696987Y-160883491D01*
X217966509Y-161153013D01*
X218283434Y-161364775D01*
X218635581Y-161510639D01*
X219009419Y-161585000D01*
X219390581Y-161585000D01*
X219764419Y-161510639D01*
X220116566Y-161364775D01*
X220433491Y-161153013D01*
X220587280Y-160999224D01*
X223030381Y-160999224D01*
X223162317Y-161294312D01*
X223503045Y-161465159D01*
X223870557Y-161566250D01*
X224250729Y-161593701D01*
X224628951Y-161546457D01*
X224990690Y-161426333D01*
X225237683Y-161294312D01*
X225369619Y-160999224D01*
X224200000Y-159829605D01*
X223030381Y-160999224D01*
X220587280Y-160999224D01*
X220703013Y-160883491D01*
X220914775Y-160566566D01*
X221060639Y-160214419D01*
X221135000Y-159840581D01*
X221135000Y-159700729D01*
X222256299Y-159700729D01*
X222303543Y-160078951D01*
X222423667Y-160440690D01*
X222555688Y-160687683D01*
X222850776Y-160819619D01*
X224020395Y-159650000D01*
X224379605Y-159650000D01*
X225549224Y-160819619D01*
X225844312Y-160687683D01*
X226015159Y-160346955D01*
X226116250Y-159979443D01*
X226143701Y-159599271D01*
X226096457Y-159221049D01*
X225976333Y-158859310D01*
X225844312Y-158612317D01*
X225549224Y-158480381D01*
X224379605Y-159650000D01*
X224020395Y-159650000D01*
X222850776Y-158480381D01*
X222555688Y-158612317D01*
X222384841Y-158953045D01*
X222283750Y-159320557D01*
X222256299Y-159700729D01*
X221135000Y-159700729D01*
X221135000Y-159459419D01*
X221060639Y-159085581D01*
X220914775Y-158733434D01*
X220703013Y-158416509D01*
X220587280Y-158300776D01*
X223030381Y-158300776D01*
X224200000Y-159470395D01*
X225369619Y-158300776D01*
X225237683Y-158005688D01*
X224896955Y-157834841D01*
X224529443Y-157733750D01*
X224149271Y-157706299D01*
X223771049Y-157753543D01*
X223409310Y-157873667D01*
X223162317Y-158005688D01*
X223030381Y-158300776D01*
X220587280Y-158300776D01*
X220433491Y-158146987D01*
X220116566Y-157935225D01*
X219764419Y-157789361D01*
X219390581Y-157715000D01*
X219009419Y-157715000D01*
X218635581Y-157789361D01*
X218283434Y-157935225D01*
X217966509Y-158146987D01*
X217696987Y-158416509D01*
X217485225Y-158733434D01*
X217339361Y-159085581D01*
X217265000Y-159459419D01*
X216135000Y-159459419D01*
X216060639Y-159085581D01*
X215914775Y-158733434D01*
X215703013Y-158416509D01*
X215433491Y-158146987D01*
X215335000Y-158081178D01*
X215335000Y-157471469D01*
X215416684Y-157496248D01*
X215587500Y-157513072D01*
X216162500Y-157513072D01*
X216333316Y-157496248D01*
X216497567Y-157446423D01*
X216648942Y-157365512D01*
X216747046Y-157285000D01*
X217527954Y-157285000D01*
X217626058Y-157365512D01*
X217777433Y-157446423D01*
X217941684Y-157496248D01*
X218112500Y-157513072D01*
X218687500Y-157513072D01*
X218858316Y-157496248D01*
X219022567Y-157446423D01*
X219173942Y-157365512D01*
X219275000Y-157282575D01*
X219376058Y-157365512D01*
X219527433Y-157446423D01*
X219691684Y-157496248D01*
X219862500Y-157513072D01*
X220437500Y-157513072D01*
X220608316Y-157496248D01*
X220772567Y-157446423D01*
X220923942Y-157365512D01*
X221016561Y-157289501D01*
X221106614Y-157363405D01*
X221260150Y-157445472D01*
X221426746Y-157496008D01*
X221600000Y-157513072D01*
X222525000Y-157513072D01*
X222698254Y-157496008D01*
X222864850Y-157445472D01*
X223018386Y-157363405D01*
X223152962Y-157252962D01*
X223263405Y-157118386D01*
X223345472Y-156964850D01*
X223372727Y-156875000D01*
X223686928Y-156875000D01*
X223699188Y-156999482D01*
X223735498Y-157119180D01*
X223794463Y-157229494D01*
X223873815Y-157326185D01*
X223970506Y-157405537D01*
X224080820Y-157464502D01*
X224200518Y-157500812D01*
X224325000Y-157513072D01*
X224751750Y-157510000D01*
X224910500Y-157351250D01*
X224910500Y-156127000D01*
X225164500Y-156127000D01*
X225164500Y-157351250D01*
X225323250Y-157510000D01*
X225750000Y-157513072D01*
X225874482Y-157500812D01*
X225994180Y-157464502D01*
X226104494Y-157405537D01*
X226201185Y-157326185D01*
X226280537Y-157229494D01*
X226339502Y-157119180D01*
X226375812Y-156999482D01*
X226388072Y-156875000D01*
X226385000Y-156285750D01*
X226226250Y-156127000D01*
X225164500Y-156127000D01*
X224910500Y-156127000D01*
X223848750Y-156127000D01*
X223690000Y-156285750D01*
X223686928Y-156875000D01*
X223372727Y-156875000D01*
X223396008Y-156798254D01*
X223413072Y-156625000D01*
X223413072Y-155375000D01*
X223396008Y-155201746D01*
X223372728Y-155125000D01*
X223686928Y-155125000D01*
X223690000Y-155714250D01*
X223848750Y-155873000D01*
X224910500Y-155873000D01*
X224910500Y-154648750D01*
X225164500Y-154648750D01*
X225164500Y-155873000D01*
X226226250Y-155873000D01*
X226385000Y-155714250D01*
X226388072Y-155125000D01*
X226375812Y-155000518D01*
X226339502Y-154880820D01*
X226280537Y-154770506D01*
X226201185Y-154673815D01*
X226104494Y-154594463D01*
X225994180Y-154535498D01*
X225874482Y-154499188D01*
X225750000Y-154486928D01*
X225323250Y-154490000D01*
X225164500Y-154648750D01*
X224910500Y-154648750D01*
X224751750Y-154490000D01*
X224325000Y-154486928D01*
X224200518Y-154499188D01*
X224080820Y-154535498D01*
X223970506Y-154594463D01*
X223873815Y-154673815D01*
X223794463Y-154770506D01*
X223735498Y-154880820D01*
X223699188Y-155000518D01*
X223686928Y-155125000D01*
X223372728Y-155125000D01*
X223345472Y-155035150D01*
X223263405Y-154881614D01*
X223152962Y-154747038D01*
X223018386Y-154636595D01*
X222864850Y-154554528D01*
X222698254Y-154503992D01*
X222525000Y-154486928D01*
X221600000Y-154486928D01*
X221426746Y-154503992D01*
X221260150Y-154554528D01*
X221106614Y-154636595D01*
X220972038Y-154747038D01*
X220861595Y-154881614D01*
X220779528Y-155035150D01*
X220728992Y-155201746D01*
X220715736Y-155336337D01*
X220608316Y-155303752D01*
X220437500Y-155286928D01*
X219862500Y-155286928D01*
X219691684Y-155303752D01*
X219527433Y-155353577D01*
X219376058Y-155434488D01*
X219275000Y-155517425D01*
X219173942Y-155434488D01*
X219022567Y-155353577D01*
X218858316Y-155303752D01*
X218687500Y-155286928D01*
X218112500Y-155286928D01*
X217941684Y-155303752D01*
X217777433Y-155353577D01*
X217626058Y-155434488D01*
X217527954Y-155515000D01*
X216771416Y-155515000D01*
X216781623Y-155506623D01*
X216890512Y-155373942D01*
X216971423Y-155222567D01*
X217021248Y-155058316D01*
X217038072Y-154887500D01*
X217038072Y-154412500D01*
X217021248Y-154241684D01*
X216971423Y-154077433D01*
X216890512Y-153926058D01*
X216781623Y-153793377D01*
X216648942Y-153684488D01*
X216497567Y-153603577D01*
X216333316Y-153553752D01*
X216162500Y-153536928D01*
X215587500Y-153536928D01*
X215416684Y-153553752D01*
X215252433Y-153603577D01*
X215101058Y-153684488D01*
X215000000Y-153767425D01*
X214898942Y-153684488D01*
X214747567Y-153603577D01*
X214583316Y-153553752D01*
X214412500Y-153536928D01*
X213837500Y-153536928D01*
X213666684Y-153553752D01*
X213502433Y-153603577D01*
X213351058Y-153684488D01*
X213218377Y-153793377D01*
X213109488Y-153926058D01*
X213028577Y-154077433D01*
X212978752Y-154241684D01*
X212961928Y-154412500D01*
X212961928Y-154887500D01*
X212978752Y-155058316D01*
X213028577Y-155222567D01*
X213109488Y-155373942D01*
X213218377Y-155506623D01*
X213228584Y-155515000D01*
X212421416Y-155515000D01*
X212431623Y-155506623D01*
X212540512Y-155373942D01*
X212621423Y-155222567D01*
X212671248Y-155058316D01*
X212688072Y-154887500D01*
X212688072Y-154412500D01*
X212671248Y-154241684D01*
X212621423Y-154077433D01*
X212540512Y-153926058D01*
X212431623Y-153793377D01*
X212298942Y-153684488D01*
X212147567Y-153603577D01*
X211983316Y-153553752D01*
X211812500Y-153536928D01*
X211237500Y-153536928D01*
X211066684Y-153553752D01*
X210902433Y-153603577D01*
X210751058Y-153684488D01*
X210650000Y-153767425D01*
X210548942Y-153684488D01*
X210397567Y-153603577D01*
X210233316Y-153553752D01*
X210062500Y-153536928D01*
X209487500Y-153536928D01*
X209316684Y-153553752D01*
X209152433Y-153603577D01*
X209001058Y-153684488D01*
X208868377Y-153793377D01*
X208759488Y-153926058D01*
X208678577Y-154077433D01*
X208628752Y-154241684D01*
X208611928Y-154412500D01*
X196810000Y-154412500D01*
X196810000Y-151775000D01*
X217534509Y-151775000D01*
X217556423Y-151997498D01*
X217621324Y-152211446D01*
X217670384Y-152303230D01*
X217726717Y-152408623D01*
X217759428Y-152448481D01*
X217759428Y-153450000D01*
X217771688Y-153574482D01*
X217807998Y-153694180D01*
X217866963Y-153804494D01*
X217946315Y-153901185D01*
X218043006Y-153980537D01*
X218153320Y-154039502D01*
X218273018Y-154075812D01*
X218397500Y-154088072D01*
X220302500Y-154088072D01*
X220426982Y-154075812D01*
X220546680Y-154039502D01*
X220656994Y-153980537D01*
X220753685Y-153901185D01*
X220833037Y-153804494D01*
X220882059Y-153712781D01*
X221023077Y-153825969D01*
X221298906Y-153969571D01*
X221517020Y-154040563D01*
X221763000Y-153920594D01*
X221763000Y-152577000D01*
X221743000Y-152577000D01*
X221743000Y-152323000D01*
X221763000Y-152323000D01*
X221763000Y-150979406D01*
X221517020Y-150859437D01*
X221298906Y-150930429D01*
X221023077Y-151074031D01*
X220882059Y-151187219D01*
X220833037Y-151095506D01*
X220753685Y-150998815D01*
X220656994Y-150919463D01*
X220546680Y-150860498D01*
X220426982Y-150824188D01*
X220302500Y-150811928D01*
X219810000Y-150811928D01*
X219810000Y-150496105D01*
X219825518Y-150500812D01*
X219950000Y-150513072D01*
X220189250Y-150510000D01*
X220348000Y-150351250D01*
X220348000Y-149527000D01*
X220602000Y-149527000D01*
X220602000Y-150351250D01*
X220760750Y-150510000D01*
X221000000Y-150513072D01*
X221124482Y-150500812D01*
X221244180Y-150464502D01*
X221354494Y-150405537D01*
X221451185Y-150326185D01*
X221525000Y-150236241D01*
X221598815Y-150326185D01*
X221695506Y-150405537D01*
X221805820Y-150464502D01*
X221925518Y-150500812D01*
X222050000Y-150513072D01*
X222289250Y-150510000D01*
X222448000Y-150351250D01*
X222448000Y-149527000D01*
X221573750Y-149527000D01*
X221525000Y-149575750D01*
X221476250Y-149527000D01*
X220602000Y-149527000D01*
X220348000Y-149527000D01*
X220328000Y-149527000D01*
X220328000Y-149273000D01*
X220348000Y-149273000D01*
X220348000Y-148448750D01*
X220602000Y-148448750D01*
X220602000Y-149273000D01*
X221476250Y-149273000D01*
X221525000Y-149224250D01*
X221573750Y-149273000D01*
X222448000Y-149273000D01*
X222448000Y-148448750D01*
X222289250Y-148290000D01*
X222050000Y-148286928D01*
X221925518Y-148299188D01*
X221805820Y-148335498D01*
X221695506Y-148394463D01*
X221598815Y-148473815D01*
X221525000Y-148563759D01*
X221451185Y-148473815D01*
X221354494Y-148394463D01*
X221244180Y-148335498D01*
X221124482Y-148299188D01*
X221000000Y-148286928D01*
X220760750Y-148290000D01*
X220602000Y-148448750D01*
X220348000Y-148448750D01*
X220189250Y-148290000D01*
X219950000Y-148286928D01*
X219825518Y-148299188D01*
X219705820Y-148335498D01*
X219595506Y-148394463D01*
X219522839Y-148454099D01*
X219498942Y-148434488D01*
X219347567Y-148353577D01*
X219183316Y-148303752D01*
X219012500Y-148286928D01*
X218915645Y-148286928D01*
X218897498Y-148281423D01*
X218675000Y-148259509D01*
X218452501Y-148281423D01*
X218432841Y-148287387D01*
X218266684Y-148303752D01*
X218102433Y-148353577D01*
X217951058Y-148434488D01*
X217818377Y-148543377D01*
X217709488Y-148676058D01*
X217628577Y-148827433D01*
X217578752Y-148991684D01*
X217562387Y-149157842D01*
X217556423Y-149177502D01*
X217540000Y-149344249D01*
X217540001Y-151719239D01*
X217534509Y-151775000D01*
X196810000Y-151775000D01*
X196810000Y-144400000D01*
X197286928Y-144400000D01*
X197299188Y-144524482D01*
X197335498Y-144644180D01*
X197394463Y-144754494D01*
X197454099Y-144827161D01*
X197434488Y-144851058D01*
X197353577Y-145002433D01*
X197303752Y-145166684D01*
X197286928Y-145337500D01*
X197286928Y-145912500D01*
X197303752Y-146083316D01*
X197353577Y-146247567D01*
X197434488Y-146398942D01*
X197543377Y-146531623D01*
X197676058Y-146640512D01*
X197827433Y-146721423D01*
X197991684Y-146771248D01*
X198162500Y-146788072D01*
X198637500Y-146788072D01*
X198808316Y-146771248D01*
X198972567Y-146721423D01*
X199123942Y-146640512D01*
X199256623Y-146531623D01*
X199365512Y-146398942D01*
X199446423Y-146247567D01*
X199496248Y-146083316D01*
X199513072Y-145912500D01*
X199513072Y-145337500D01*
X199496248Y-145166684D01*
X199446423Y-145002433D01*
X199365512Y-144851058D01*
X199345901Y-144827161D01*
X199405537Y-144754494D01*
X199464502Y-144644180D01*
X199500812Y-144524482D01*
X199513072Y-144400000D01*
X199686928Y-144400000D01*
X199699188Y-144524482D01*
X199735498Y-144644180D01*
X199794463Y-144754494D01*
X199854099Y-144827161D01*
X199834488Y-144851058D01*
X199753577Y-145002433D01*
X199703752Y-145166684D01*
X199686928Y-145337500D01*
X199686928Y-145912500D01*
X199703752Y-146083316D01*
X199753577Y-146247567D01*
X199834488Y-146398942D01*
X199943377Y-146531623D01*
X200076058Y-146640512D01*
X200227433Y-146721423D01*
X200391684Y-146771248D01*
X200562500Y-146788072D01*
X201037500Y-146788072D01*
X201208316Y-146771248D01*
X201372567Y-146721423D01*
X201412646Y-146700000D01*
X219386928Y-146700000D01*
X219399188Y-146824482D01*
X219435498Y-146944180D01*
X219494463Y-147054494D01*
X219573815Y-147151185D01*
X219670506Y-147230537D01*
X219780820Y-147289502D01*
X219900518Y-147325812D01*
X220025000Y-147338072D01*
X220214250Y-147335000D01*
X220373000Y-147176250D01*
X220373000Y-146302000D01*
X220627000Y-146302000D01*
X220627000Y-147176250D01*
X220785750Y-147335000D01*
X220975000Y-147338072D01*
X221099482Y-147325812D01*
X221219180Y-147289502D01*
X221329494Y-147230537D01*
X221426185Y-147151185D01*
X221505537Y-147054494D01*
X221525000Y-147018082D01*
X221544463Y-147054494D01*
X221623815Y-147151185D01*
X221720506Y-147230537D01*
X221830820Y-147289502D01*
X221950518Y-147325812D01*
X222075000Y-147338072D01*
X222264250Y-147335000D01*
X222423000Y-147176250D01*
X222423000Y-146302000D01*
X221598750Y-146302000D01*
X221525000Y-146375750D01*
X221451250Y-146302000D01*
X220627000Y-146302000D01*
X220373000Y-146302000D01*
X219548750Y-146302000D01*
X219390000Y-146460750D01*
X219386928Y-146700000D01*
X201412646Y-146700000D01*
X201523942Y-146640512D01*
X201656623Y-146531623D01*
X201765512Y-146398942D01*
X201846423Y-146247567D01*
X201896248Y-146083316D01*
X201913072Y-145912500D01*
X201913072Y-145337500D01*
X201896248Y-145166684D01*
X201846423Y-145002433D01*
X201765512Y-144851058D01*
X201745901Y-144827161D01*
X201805537Y-144754494D01*
X201864502Y-144644180D01*
X201900812Y-144524482D01*
X201913072Y-144400000D01*
X201910000Y-144160750D01*
X201751250Y-144002000D01*
X200927000Y-144002000D01*
X200927000Y-144022000D01*
X200673000Y-144022000D01*
X200673000Y-144002000D01*
X199848750Y-144002000D01*
X199690000Y-144160750D01*
X199686928Y-144400000D01*
X199513072Y-144400000D01*
X199510000Y-144160750D01*
X199351250Y-144002000D01*
X198527000Y-144002000D01*
X198527000Y-144022000D01*
X198273000Y-144022000D01*
X198273000Y-144002000D01*
X197448750Y-144002000D01*
X197290000Y-144160750D01*
X197286928Y-144400000D01*
X196810000Y-144400000D01*
X196810000Y-143350000D01*
X197286928Y-143350000D01*
X197290000Y-143589250D01*
X197448750Y-143748000D01*
X198273000Y-143748000D01*
X198273000Y-142873750D01*
X198527000Y-142873750D01*
X198527000Y-143748000D01*
X199351250Y-143748000D01*
X199510000Y-143589250D01*
X199513072Y-143350000D01*
X199500812Y-143225518D01*
X199464502Y-143105820D01*
X199405537Y-142995506D01*
X199326185Y-142898815D01*
X199229494Y-142819463D01*
X199119180Y-142760498D01*
X198999482Y-142724188D01*
X198875000Y-142711928D01*
X198685750Y-142715000D01*
X198527000Y-142873750D01*
X198273000Y-142873750D01*
X198114250Y-142715000D01*
X197925000Y-142711928D01*
X197800518Y-142724188D01*
X197680820Y-142760498D01*
X197570506Y-142819463D01*
X197473815Y-142898815D01*
X197394463Y-142995506D01*
X197335498Y-143105820D01*
X197299188Y-143225518D01*
X197286928Y-143350000D01*
X196810000Y-143350000D01*
X196810000Y-133750000D01*
X197011928Y-133750000D01*
X197011928Y-135450000D01*
X197024188Y-135574482D01*
X197060498Y-135694180D01*
X197119463Y-135804494D01*
X197198815Y-135901185D01*
X197295506Y-135980537D01*
X197405820Y-136039502D01*
X197478380Y-136061513D01*
X197346525Y-136193368D01*
X197184010Y-136436589D01*
X197072068Y-136706842D01*
X197015000Y-136993740D01*
X197015000Y-137286260D01*
X197072068Y-137573158D01*
X197184010Y-137843411D01*
X197346525Y-138086632D01*
X197553368Y-138293475D01*
X197727760Y-138410000D01*
X197553368Y-138526525D01*
X197346525Y-138733368D01*
X197184010Y-138976589D01*
X197072068Y-139246842D01*
X197015000Y-139533740D01*
X197015000Y-139826260D01*
X197072068Y-140113158D01*
X197184010Y-140383411D01*
X197346525Y-140626632D01*
X197553368Y-140833475D01*
X197796589Y-140995990D01*
X198066842Y-141107932D01*
X198353740Y-141165000D01*
X198646260Y-141165000D01*
X198933158Y-141107932D01*
X198978109Y-141089313D01*
X198978412Y-141090313D01*
X199060590Y-141244059D01*
X199143468Y-141345046D01*
X200513407Y-142714986D01*
X200325000Y-142711928D01*
X200200518Y-142724188D01*
X200080820Y-142760498D01*
X199970506Y-142819463D01*
X199873815Y-142898815D01*
X199794463Y-142995506D01*
X199735498Y-143105820D01*
X199699188Y-143225518D01*
X199686928Y-143350000D01*
X199690000Y-143589250D01*
X199848750Y-143748000D01*
X200673000Y-143748000D01*
X200673000Y-143728000D01*
X200927000Y-143728000D01*
X200927000Y-143748000D01*
X201751250Y-143748000D01*
X201910000Y-143589250D01*
X201913072Y-143350000D01*
X201900812Y-143225518D01*
X201873354Y-143135000D01*
X205164166Y-143135000D01*
X205165000Y-143143469D01*
X205165000Y-143143477D01*
X205177805Y-143273490D01*
X205228411Y-143440313D01*
X205305748Y-143585000D01*
X205310590Y-143594059D01*
X205393468Y-143695046D01*
X205393471Y-143695049D01*
X205421184Y-143728817D01*
X205454951Y-143756529D01*
X206136928Y-144438507D01*
X206136928Y-144662500D01*
X206153752Y-144833316D01*
X206203577Y-144997567D01*
X206284488Y-145148942D01*
X206393377Y-145281623D01*
X206526058Y-145390512D01*
X206677433Y-145471423D01*
X206841684Y-145521248D01*
X207012500Y-145538072D01*
X207487500Y-145538072D01*
X207658316Y-145521248D01*
X207822567Y-145471423D01*
X207973942Y-145390512D01*
X208106623Y-145281623D01*
X208215512Y-145148942D01*
X208296423Y-144997567D01*
X208337410Y-144862451D01*
X208336928Y-144900000D01*
X208349188Y-145024482D01*
X208385498Y-145144180D01*
X208444463Y-145254494D01*
X208523815Y-145351185D01*
X208620506Y-145430537D01*
X208730820Y-145489502D01*
X208850518Y-145525812D01*
X208975000Y-145538072D01*
X209164250Y-145535000D01*
X209323000Y-145376250D01*
X209323000Y-144502000D01*
X209577000Y-144502000D01*
X209577000Y-145376250D01*
X209735750Y-145535000D01*
X209925000Y-145538072D01*
X210049482Y-145525812D01*
X210169180Y-145489502D01*
X210279494Y-145430537D01*
X210376185Y-145351185D01*
X210455537Y-145254494D01*
X210514502Y-145144180D01*
X210550812Y-145024482D01*
X210563072Y-144900000D01*
X210836928Y-144900000D01*
X210849188Y-145024482D01*
X210885498Y-145144180D01*
X210944463Y-145254494D01*
X211023815Y-145351185D01*
X211120506Y-145430537D01*
X211230820Y-145489502D01*
X211350518Y-145525812D01*
X211475000Y-145538072D01*
X211664250Y-145535000D01*
X211823000Y-145376250D01*
X211823000Y-144502000D01*
X212077000Y-144502000D01*
X212077000Y-145376250D01*
X212235750Y-145535000D01*
X212425000Y-145538072D01*
X212549482Y-145525812D01*
X212669180Y-145489502D01*
X212779494Y-145430537D01*
X212876185Y-145351185D01*
X212955537Y-145254494D01*
X213014502Y-145144180D01*
X213050812Y-145024482D01*
X213063072Y-144900000D01*
X213286928Y-144900000D01*
X213299188Y-145024482D01*
X213335498Y-145144180D01*
X213394463Y-145254494D01*
X213473815Y-145351185D01*
X213570506Y-145430537D01*
X213680820Y-145489502D01*
X213800518Y-145525812D01*
X213925000Y-145538072D01*
X214114250Y-145535000D01*
X214273000Y-145376250D01*
X214273000Y-144502000D01*
X213448750Y-144502000D01*
X213290000Y-144660750D01*
X213286928Y-144900000D01*
X213063072Y-144900000D01*
X213060000Y-144660750D01*
X212901250Y-144502000D01*
X212077000Y-144502000D01*
X211823000Y-144502000D01*
X210998750Y-144502000D01*
X210840000Y-144660750D01*
X210836928Y-144900000D01*
X210563072Y-144900000D01*
X210560000Y-144660750D01*
X210401250Y-144502000D01*
X209577000Y-144502000D01*
X209323000Y-144502000D01*
X209303000Y-144502000D01*
X209303000Y-144248000D01*
X209323000Y-144248000D01*
X209323000Y-144228000D01*
X209577000Y-144228000D01*
X209577000Y-144248000D01*
X210401250Y-144248000D01*
X210560000Y-144089250D01*
X210563072Y-143850000D01*
X210550812Y-143725518D01*
X210514502Y-143605820D01*
X210455537Y-143495506D01*
X210395901Y-143422839D01*
X210415512Y-143398942D01*
X210496423Y-143247567D01*
X210546248Y-143083316D01*
X210563072Y-142912500D01*
X210563072Y-142337500D01*
X210552977Y-142235000D01*
X210815000Y-142235000D01*
X210815000Y-142655751D01*
X210831423Y-142822498D01*
X210836928Y-142840645D01*
X210836928Y-142912500D01*
X210853752Y-143083316D01*
X210903577Y-143247567D01*
X210984488Y-143398942D01*
X211004099Y-143422839D01*
X210944463Y-143495506D01*
X210885498Y-143605820D01*
X210849188Y-143725518D01*
X210836928Y-143850000D01*
X210840000Y-144089250D01*
X210998750Y-144248000D01*
X211823000Y-144248000D01*
X211823000Y-144228000D01*
X212077000Y-144228000D01*
X212077000Y-144248000D01*
X212901250Y-144248000D01*
X213060000Y-144089250D01*
X213063072Y-143850000D01*
X213050812Y-143725518D01*
X213014502Y-143605820D01*
X212955537Y-143495506D01*
X212895901Y-143422839D01*
X212915512Y-143398942D01*
X212996423Y-143247567D01*
X213046248Y-143083316D01*
X213063072Y-142912500D01*
X213063072Y-142840646D01*
X213068577Y-142822499D01*
X213085000Y-142655752D01*
X213085000Y-142235000D01*
X213297023Y-142235000D01*
X213286928Y-142337500D01*
X213286928Y-142912500D01*
X213303752Y-143083316D01*
X213353577Y-143247567D01*
X213434488Y-143398942D01*
X213454099Y-143422839D01*
X213394463Y-143495506D01*
X213335498Y-143605820D01*
X213299188Y-143725518D01*
X213286928Y-143850000D01*
X213290000Y-144089250D01*
X213448750Y-144248000D01*
X214273000Y-144248000D01*
X214273000Y-144228000D01*
X214527000Y-144228000D01*
X214527000Y-144248000D01*
X214547000Y-144248000D01*
X214547000Y-144502000D01*
X214527000Y-144502000D01*
X214527000Y-145376250D01*
X214685750Y-145535000D01*
X214875000Y-145538072D01*
X214999482Y-145525812D01*
X215119180Y-145489502D01*
X215229494Y-145430537D01*
X215326185Y-145351185D01*
X215405537Y-145254494D01*
X215464502Y-145144180D01*
X215500812Y-145024482D01*
X215503491Y-144997283D01*
X215503577Y-144997567D01*
X215584488Y-145148942D01*
X215693377Y-145281623D01*
X215826058Y-145390512D01*
X215977433Y-145471423D01*
X216141684Y-145521248D01*
X216312500Y-145538072D01*
X216787500Y-145538072D01*
X216958316Y-145521248D01*
X217122567Y-145471423D01*
X217273942Y-145390512D01*
X217406623Y-145281623D01*
X217515512Y-145148942D01*
X217596423Y-144997567D01*
X217646248Y-144833316D01*
X217663072Y-144662500D01*
X217663072Y-144087500D01*
X217646248Y-143916684D01*
X217596423Y-143752433D01*
X217515512Y-143601058D01*
X217432575Y-143500000D01*
X217515512Y-143398942D01*
X217596423Y-143247567D01*
X217632254Y-143129447D01*
X217709488Y-143273942D01*
X217818377Y-143406623D01*
X217951058Y-143515512D01*
X218102433Y-143596423D01*
X218266684Y-143646248D01*
X218437500Y-143663072D01*
X219012500Y-143663072D01*
X219183316Y-143646248D01*
X219347567Y-143596423D01*
X219498942Y-143515512D01*
X219590000Y-143440782D01*
X219590001Y-143583416D01*
X219534488Y-143651058D01*
X219453577Y-143802433D01*
X219403752Y-143966684D01*
X219386928Y-144137500D01*
X219386928Y-144712500D01*
X219403752Y-144883316D01*
X219453577Y-145047567D01*
X219534488Y-145198942D01*
X219554099Y-145222839D01*
X219494463Y-145295506D01*
X219435498Y-145405820D01*
X219399188Y-145525518D01*
X219386928Y-145650000D01*
X219390000Y-145889250D01*
X219548750Y-146048000D01*
X220373000Y-146048000D01*
X220373000Y-146028000D01*
X220627000Y-146028000D01*
X220627000Y-146048000D01*
X221451250Y-146048000D01*
X221525000Y-145974250D01*
X221598750Y-146048000D01*
X222423000Y-146048000D01*
X222423000Y-146028000D01*
X222677000Y-146028000D01*
X222677000Y-146048000D01*
X222697000Y-146048000D01*
X222697000Y-146302000D01*
X222677000Y-146302000D01*
X222677000Y-147176250D01*
X222835750Y-147335000D01*
X223025000Y-147338072D01*
X223149482Y-147325812D01*
X223190001Y-147313521D01*
X223190001Y-148295792D01*
X223100000Y-148286928D01*
X222860750Y-148290000D01*
X222702000Y-148448750D01*
X222702000Y-149273000D01*
X222722000Y-149273000D01*
X222722000Y-149527000D01*
X222702000Y-149527000D01*
X222702000Y-150351250D01*
X222860750Y-150510000D01*
X223100000Y-150513072D01*
X223190000Y-150504208D01*
X223190001Y-151411054D01*
X223154838Y-151453900D01*
X222999437Y-151268685D01*
X222756923Y-151074031D01*
X222481094Y-150930429D01*
X222262980Y-150859437D01*
X222017000Y-150979406D01*
X222017000Y-152323000D01*
X222037000Y-152323000D01*
X222037000Y-152577000D01*
X222017000Y-152577000D01*
X222017000Y-153920594D01*
X222262980Y-154040563D01*
X222481094Y-153969571D01*
X222756923Y-153825969D01*
X222999437Y-153631315D01*
X223154837Y-153446101D01*
X223302037Y-153625463D01*
X223543766Y-153823845D01*
X223819552Y-153971255D01*
X224118797Y-154062030D01*
X224430000Y-154092681D01*
X224741204Y-154062030D01*
X225040449Y-153971255D01*
X225316235Y-153823845D01*
X225557963Y-153625463D01*
X225756345Y-153383734D01*
X225903755Y-153107948D01*
X225994530Y-152808703D01*
X226017500Y-152575485D01*
X226017500Y-152324514D01*
X225994530Y-152091296D01*
X225903755Y-151792051D01*
X225756345Y-151516265D01*
X225557963Y-151274537D01*
X225460000Y-151194141D01*
X225460000Y-149845396D01*
X225471248Y-149808316D01*
X225488072Y-149637500D01*
X225488072Y-149162500D01*
X225471248Y-148991684D01*
X225460000Y-148954604D01*
X225460000Y-142995396D01*
X225471248Y-142958316D01*
X225488072Y-142787500D01*
X225488072Y-142312500D01*
X225471248Y-142141684D01*
X225461943Y-142111011D01*
X225465490Y-142074999D01*
X225460000Y-142019255D01*
X225460000Y-142019249D01*
X225443577Y-141852502D01*
X225443577Y-141852500D01*
X225399680Y-141707795D01*
X225378676Y-141638554D01*
X225273284Y-141441377D01*
X225131449Y-141268551D01*
X225088140Y-141233008D01*
X224191996Y-140336864D01*
X224156449Y-140293551D01*
X223983623Y-140151716D01*
X223786447Y-140046324D01*
X223572499Y-139981423D01*
X223405752Y-139965000D01*
X223405751Y-139965000D01*
X223350000Y-139959509D01*
X223294249Y-139965000D01*
X212005752Y-139965000D01*
X211950000Y-139959509D01*
X211894249Y-139965000D01*
X207305752Y-139965000D01*
X207250000Y-139959509D01*
X207194249Y-139965000D01*
X206225773Y-139965000D01*
X206197499Y-139956423D01*
X206030752Y-139940000D01*
X206030751Y-139940000D01*
X205975000Y-139934509D01*
X205919249Y-139940000D01*
X204298718Y-139940000D01*
X204346248Y-139783316D01*
X204363072Y-139612500D01*
X204363072Y-139037500D01*
X204346248Y-138866684D01*
X204296423Y-138702433D01*
X204215512Y-138551058D01*
X204135000Y-138452954D01*
X204135000Y-137997046D01*
X204215512Y-137898942D01*
X204296423Y-137747567D01*
X204338081Y-137610241D01*
X204336928Y-137700000D01*
X204349188Y-137824482D01*
X204385498Y-137944180D01*
X204444463Y-138054494D01*
X204523815Y-138151185D01*
X204620506Y-138230537D01*
X204730820Y-138289502D01*
X204850518Y-138325812D01*
X204975000Y-138338072D01*
X205164250Y-138335000D01*
X205323000Y-138176250D01*
X205323000Y-137302000D01*
X205577000Y-137302000D01*
X205577000Y-138176250D01*
X205735750Y-138335000D01*
X205925000Y-138338072D01*
X206049482Y-138325812D01*
X206169180Y-138289502D01*
X206279494Y-138230537D01*
X206376185Y-138151185D01*
X206455537Y-138054494D01*
X206514502Y-137944180D01*
X206550812Y-137824482D01*
X206560609Y-137725000D01*
X213186928Y-137725000D01*
X213199188Y-137849482D01*
X213235498Y-137969180D01*
X213294463Y-138079494D01*
X213373815Y-138176185D01*
X213470506Y-138255537D01*
X213580820Y-138314502D01*
X213700518Y-138350812D01*
X213825000Y-138363072D01*
X214014250Y-138360000D01*
X214173000Y-138201250D01*
X214173000Y-137327000D01*
X214427000Y-137327000D01*
X214427000Y-138201250D01*
X214585750Y-138360000D01*
X214775000Y-138363072D01*
X214899482Y-138350812D01*
X215019180Y-138314502D01*
X215129494Y-138255537D01*
X215226185Y-138176185D01*
X215305537Y-138079494D01*
X215364502Y-137969180D01*
X215400812Y-137849482D01*
X215413072Y-137725000D01*
X215410000Y-137485750D01*
X215251250Y-137327000D01*
X214427000Y-137327000D01*
X214173000Y-137327000D01*
X213348750Y-137327000D01*
X213190000Y-137485750D01*
X213186928Y-137725000D01*
X206560609Y-137725000D01*
X206563072Y-137700000D01*
X206560000Y-137460750D01*
X206401250Y-137302000D01*
X205577000Y-137302000D01*
X205323000Y-137302000D01*
X205303000Y-137302000D01*
X205303000Y-137048000D01*
X205323000Y-137048000D01*
X205323000Y-137028000D01*
X205577000Y-137028000D01*
X205577000Y-137048000D01*
X206401250Y-137048000D01*
X206560000Y-136889250D01*
X206563072Y-136650000D01*
X206551807Y-136535616D01*
X206763957Y-136677371D01*
X207016011Y-136781775D01*
X207283589Y-136835000D01*
X207556411Y-136835000D01*
X207823989Y-136781775D01*
X208076043Y-136677371D01*
X208302886Y-136525799D01*
X208495799Y-136332886D01*
X208647371Y-136106043D01*
X208751775Y-135853989D01*
X208805000Y-135586411D01*
X208805000Y-135363072D01*
X209262500Y-135363072D01*
X209433316Y-135346248D01*
X209597567Y-135296423D01*
X209748942Y-135215512D01*
X209850000Y-135132575D01*
X209951058Y-135215512D01*
X210102433Y-135296423D01*
X210266684Y-135346248D01*
X210437500Y-135363072D01*
X210915000Y-135363072D01*
X210915000Y-135586411D01*
X210968225Y-135853989D01*
X211072629Y-136106043D01*
X211224201Y-136332886D01*
X211417114Y-136525799D01*
X211643957Y-136677371D01*
X211896011Y-136781775D01*
X212163589Y-136835000D01*
X212436411Y-136835000D01*
X212703989Y-136781775D01*
X212956043Y-136677371D01*
X213182886Y-136525799D01*
X213217050Y-136491635D01*
X213199188Y-136550518D01*
X213186928Y-136675000D01*
X213190000Y-136914250D01*
X213348750Y-137073000D01*
X214173000Y-137073000D01*
X214173000Y-137053000D01*
X214427000Y-137053000D01*
X214427000Y-137073000D01*
X215251250Y-137073000D01*
X215410000Y-136914250D01*
X215413072Y-136675000D01*
X215400812Y-136550518D01*
X215364502Y-136430820D01*
X215305537Y-136320506D01*
X215245901Y-136247839D01*
X215265512Y-136223942D01*
X215346423Y-136072567D01*
X215396248Y-135908316D01*
X215413072Y-135737500D01*
X215413072Y-135555098D01*
X219505000Y-135555098D01*
X219505000Y-136024902D01*
X219596654Y-136485679D01*
X219776440Y-136919721D01*
X220037450Y-137310349D01*
X220369651Y-137642550D01*
X220760279Y-137903560D01*
X221194321Y-138083346D01*
X221655098Y-138175000D01*
X222124902Y-138175000D01*
X222585679Y-138083346D01*
X223019721Y-137903560D01*
X223410349Y-137642550D01*
X223742550Y-137310349D01*
X224003560Y-136919721D01*
X224183346Y-136485679D01*
X224275000Y-136024902D01*
X224275000Y-135555098D01*
X224183346Y-135094321D01*
X224003560Y-134660279D01*
X223742550Y-134269651D01*
X223410349Y-133937450D01*
X223019721Y-133676440D01*
X222585679Y-133496654D01*
X222124902Y-133405000D01*
X221655098Y-133405000D01*
X221194321Y-133496654D01*
X220760279Y-133676440D01*
X220369651Y-133937450D01*
X220037450Y-134269651D01*
X219776440Y-134660279D01*
X219596654Y-135094321D01*
X219505000Y-135555098D01*
X215413072Y-135555098D01*
X215413072Y-135162500D01*
X215396248Y-134991684D01*
X215346423Y-134827433D01*
X215265512Y-134676058D01*
X215156623Y-134543377D01*
X215023942Y-134434488D01*
X214872567Y-134353577D01*
X214708316Y-134303752D01*
X214537500Y-134286928D01*
X214062500Y-134286928D01*
X213891684Y-134303752D01*
X213727433Y-134353577D01*
X213576058Y-134434488D01*
X213443377Y-134543377D01*
X213425631Y-134565000D01*
X213373685Y-134565000D01*
X213182886Y-134374201D01*
X212956043Y-134222629D01*
X212703989Y-134118225D01*
X212436411Y-134065000D01*
X212166578Y-134065000D01*
X211839891Y-133738312D01*
X211821423Y-133677433D01*
X211740512Y-133526058D01*
X211631623Y-133393377D01*
X211498942Y-133284488D01*
X211347567Y-133203577D01*
X211183316Y-133153752D01*
X211012500Y-133136928D01*
X210437500Y-133136928D01*
X210266684Y-133153752D01*
X210102433Y-133203577D01*
X209951058Y-133284488D01*
X209850000Y-133367425D01*
X209748942Y-133284488D01*
X209597567Y-133203577D01*
X209433316Y-133153752D01*
X209262500Y-133136928D01*
X208687500Y-133136928D01*
X208516684Y-133153752D01*
X208352433Y-133203577D01*
X208201058Y-133284488D01*
X208068377Y-133393377D01*
X207959488Y-133526058D01*
X207878577Y-133677433D01*
X207851401Y-133767020D01*
X207553421Y-134065000D01*
X207283589Y-134065000D01*
X207016011Y-134118225D01*
X206763957Y-134222629D01*
X206537114Y-134374201D01*
X206346315Y-134565000D01*
X206344886Y-134565000D01*
X206306623Y-134518377D01*
X206173942Y-134409488D01*
X206022567Y-134328577D01*
X205858316Y-134278752D01*
X205687500Y-134261928D01*
X205212500Y-134261928D01*
X205041684Y-134278752D01*
X204877433Y-134328577D01*
X204726058Y-134409488D01*
X204593377Y-134518377D01*
X204484488Y-134651058D01*
X204403577Y-134802433D01*
X204361919Y-134939759D01*
X204363072Y-134850000D01*
X204350812Y-134725518D01*
X204314502Y-134605820D01*
X204255537Y-134495506D01*
X204176185Y-134398815D01*
X204079494Y-134319463D01*
X203969180Y-134260498D01*
X203849482Y-134224188D01*
X203725000Y-134211928D01*
X203535750Y-134215000D01*
X203377000Y-134373750D01*
X203377000Y-135248000D01*
X203397000Y-135248000D01*
X203397000Y-135502000D01*
X203377000Y-135502000D01*
X203377000Y-135522000D01*
X203123000Y-135522000D01*
X203123000Y-135502000D01*
X203103000Y-135502000D01*
X203103000Y-135248000D01*
X203123000Y-135248000D01*
X203123000Y-134373750D01*
X202964250Y-134215000D01*
X202775000Y-134211928D01*
X202650518Y-134224188D01*
X202530820Y-134260498D01*
X202449306Y-134304069D01*
X202481476Y-134243110D01*
X202436825Y-134095901D01*
X202311641Y-133833080D01*
X202137588Y-133599731D01*
X201921355Y-133404822D01*
X201671252Y-133255843D01*
X201396891Y-133158519D01*
X201167000Y-133279186D01*
X201167000Y-134473000D01*
X201187000Y-134473000D01*
X201187000Y-134727000D01*
X201167000Y-134727000D01*
X201167000Y-134747000D01*
X200913000Y-134747000D01*
X200913000Y-134727000D01*
X200893000Y-134727000D01*
X200893000Y-134473000D01*
X200913000Y-134473000D01*
X200913000Y-133279186D01*
X200683109Y-133158519D01*
X200408748Y-133255843D01*
X200158645Y-133404822D01*
X199962498Y-133581626D01*
X199939502Y-133505820D01*
X199880537Y-133395506D01*
X199801185Y-133298815D01*
X199704494Y-133219463D01*
X199594180Y-133160498D01*
X199474482Y-133124188D01*
X199350000Y-133111928D01*
X197650000Y-133111928D01*
X197525518Y-133124188D01*
X197405820Y-133160498D01*
X197295506Y-133219463D01*
X197198815Y-133298815D01*
X197119463Y-133395506D01*
X197060498Y-133505820D01*
X197024188Y-133625518D01*
X197011928Y-133750000D01*
X196810000Y-133750000D01*
X196810000Y-133060000D01*
X226590000Y-133060000D01*
X226590001Y-163740000D01*
G37*
X226590001Y-163740000D02*
X196810000Y-163740000D01*
X196810000Y-158350000D01*
X197261928Y-158350000D01*
X197261928Y-160950000D01*
X197274188Y-161074482D01*
X197310498Y-161194180D01*
X197369463Y-161304494D01*
X197448815Y-161401185D01*
X197545506Y-161480537D01*
X197655820Y-161539502D01*
X197775518Y-161575812D01*
X197900000Y-161588072D01*
X200500000Y-161588072D01*
X200624482Y-161575812D01*
X200744180Y-161539502D01*
X200854494Y-161480537D01*
X200951185Y-161401185D01*
X201030537Y-161304494D01*
X201089502Y-161194180D01*
X201125812Y-161074482D01*
X201138072Y-160950000D01*
X201138072Y-159567060D01*
X201888146Y-158816987D01*
X201931449Y-158781449D01*
X201958966Y-158747920D01*
X202068551Y-158881449D01*
X202111865Y-158916996D01*
X202329587Y-159134718D01*
X202265000Y-159459419D01*
X202265000Y-159840581D01*
X202339361Y-160214419D01*
X202485225Y-160566566D01*
X202696987Y-160883491D01*
X202966509Y-161153013D01*
X203283434Y-161364775D01*
X203635581Y-161510639D01*
X204009419Y-161585000D01*
X204390581Y-161585000D01*
X204764419Y-161510639D01*
X205116566Y-161364775D01*
X205433491Y-161153013D01*
X205703013Y-160883491D01*
X205914775Y-160566566D01*
X206060639Y-160214419D01*
X206135000Y-159840581D01*
X206135000Y-159459419D01*
X207265000Y-159459419D01*
X207265000Y-159840581D01*
X207339361Y-160214419D01*
X207485225Y-160566566D01*
X207696987Y-160883491D01*
X207966509Y-161153013D01*
X208283434Y-161364775D01*
X208635581Y-161510639D01*
X209009419Y-161585000D01*
X209390581Y-161585000D01*
X209764419Y-161510639D01*
X210116566Y-161364775D01*
X210433491Y-161153013D01*
X210703013Y-160883491D01*
X210914775Y-160566566D01*
X211060639Y-160214419D01*
X211135000Y-159840581D01*
X211135000Y-159459419D01*
X211060639Y-159085581D01*
X210914775Y-158733434D01*
X210703013Y-158416509D01*
X210433491Y-158146987D01*
X210116566Y-157935225D01*
X209764419Y-157789361D01*
X209390581Y-157715000D01*
X209009419Y-157715000D01*
X208635581Y-157789361D01*
X208283434Y-157935225D01*
X207966509Y-158146987D01*
X207696987Y-158416509D01*
X207485225Y-158733434D01*
X207339361Y-159085581D01*
X207265000Y-159459419D01*
X206135000Y-159459419D01*
X206060639Y-159085581D01*
X205914775Y-158733434D01*
X205703013Y-158416509D01*
X205433491Y-158146987D01*
X205116566Y-157935225D01*
X204764419Y-157789361D01*
X204390581Y-157715000D01*
X204120131Y-157715000D01*
X204010000Y-157604869D01*
X204010000Y-156875000D01*
X208611928Y-156875000D01*
X208624188Y-156999482D01*
X208660498Y-157119180D01*
X208719463Y-157229494D01*
X208798815Y-157326185D01*
X208895506Y-157405537D01*
X209005820Y-157464502D01*
X209125518Y-157500812D01*
X209250000Y-157513072D01*
X209489250Y-157510000D01*
X209648000Y-157351250D01*
X209648000Y-156527000D01*
X208773750Y-156527000D01*
X208615000Y-156685750D01*
X208611928Y-156875000D01*
X204010000Y-156875000D01*
X204010000Y-156845396D01*
X204021248Y-156808316D01*
X204038072Y-156637500D01*
X204038072Y-156162500D01*
X204021248Y-155991684D01*
X203971423Y-155827433D01*
X203890512Y-155676058D01*
X203781623Y-155543377D01*
X203648942Y-155434488D01*
X203497567Y-155353577D01*
X203333316Y-155303752D01*
X203162500Y-155286928D01*
X203115646Y-155286928D01*
X203097499Y-155281423D01*
X202875000Y-155259509D01*
X202652502Y-155281423D01*
X202634355Y-155286928D01*
X202587500Y-155286928D01*
X202416684Y-155303752D01*
X202252433Y-155353577D01*
X202101058Y-155434488D01*
X202000000Y-155517425D01*
X201898942Y-155434488D01*
X201747567Y-155353577D01*
X201583316Y-155303752D01*
X201412500Y-155286928D01*
X201365645Y-155286928D01*
X201347498Y-155281423D01*
X201125000Y-155259509D01*
X200902501Y-155281423D01*
X200884354Y-155286928D01*
X200837500Y-155286928D01*
X200666684Y-155303752D01*
X200502433Y-155353577D01*
X200351058Y-155434488D01*
X200218377Y-155543377D01*
X200109488Y-155676058D01*
X200028577Y-155827433D01*
X199978752Y-155991684D01*
X199961928Y-156162500D01*
X199961928Y-156637500D01*
X199978752Y-156808316D01*
X199990000Y-156845396D01*
X199990000Y-157504867D01*
X199782940Y-157711928D01*
X197900000Y-157711928D01*
X197775518Y-157724188D01*
X197655820Y-157760498D01*
X197545506Y-157819463D01*
X197448815Y-157898815D01*
X197369463Y-157995506D01*
X197310498Y-158105820D01*
X197274188Y-158225518D01*
X197261928Y-158350000D01*
X196810000Y-158350000D01*
X196810000Y-154412500D01*
X208611928Y-154412500D01*
X208611928Y-154887500D01*
X208628752Y-155058316D01*
X208678577Y-155222567D01*
X208759488Y-155373942D01*
X208824293Y-155452906D01*
X208798815Y-155473815D01*
X208719463Y-155570506D01*
X208660498Y-155680820D01*
X208624188Y-155800518D01*
X208611928Y-155925000D01*
X208615000Y-156114250D01*
X208773750Y-156273000D01*
X209648000Y-156273000D01*
X209648000Y-156253000D01*
X209902000Y-156253000D01*
X209902000Y-156273000D01*
X209922000Y-156273000D01*
X209922000Y-156527000D01*
X209902000Y-156527000D01*
X209902000Y-157351250D01*
X210060750Y-157510000D01*
X210300000Y-157513072D01*
X210424482Y-157500812D01*
X210544180Y-157464502D01*
X210654494Y-157405537D01*
X210727161Y-157345901D01*
X210751058Y-157365512D01*
X210902433Y-157446423D01*
X211066684Y-157496248D01*
X211237500Y-157513072D01*
X211812500Y-157513072D01*
X211983316Y-157496248D01*
X212147567Y-157446423D01*
X212298942Y-157365512D01*
X212397046Y-157285000D01*
X213065001Y-157285000D01*
X213065000Y-158081177D01*
X212966509Y-158146987D01*
X212696987Y-158416509D01*
X212485225Y-158733434D01*
X212339361Y-159085581D01*
X212265000Y-159459419D01*
X212265000Y-159840581D01*
X212339361Y-160214419D01*
X212485225Y-160566566D01*
X212696987Y-160883491D01*
X212966509Y-161153013D01*
X213283434Y-161364775D01*
X213635581Y-161510639D01*
X214009419Y-161585000D01*
X214390581Y-161585000D01*
X214764419Y-161510639D01*
X215116566Y-161364775D01*
X215433491Y-161153013D01*
X215703013Y-160883491D01*
X215914775Y-160566566D01*
X216060639Y-160214419D01*
X216135000Y-159840581D01*
X216135000Y-159459419D01*
X217265000Y-159459419D01*
X217265000Y-159840581D01*
X217339361Y-160214419D01*
X217485225Y-160566566D01*
X217696987Y-160883491D01*
X217966509Y-161153013D01*
X218283434Y-161364775D01*
X218635581Y-161510639D01*
X219009419Y-161585000D01*
X219390581Y-161585000D01*
X219764419Y-161510639D01*
X220116566Y-161364775D01*
X220433491Y-161153013D01*
X220587280Y-160999224D01*
X223030381Y-160999224D01*
X223162317Y-161294312D01*
X223503045Y-161465159D01*
X223870557Y-161566250D01*
X224250729Y-161593701D01*
X224628951Y-161546457D01*
X224990690Y-161426333D01*
X225237683Y-161294312D01*
X225369619Y-160999224D01*
X224200000Y-159829605D01*
X223030381Y-160999224D01*
X220587280Y-160999224D01*
X220703013Y-160883491D01*
X220914775Y-160566566D01*
X221060639Y-160214419D01*
X221135000Y-159840581D01*
X221135000Y-159700729D01*
X222256299Y-159700729D01*
X222303543Y-160078951D01*
X222423667Y-160440690D01*
X222555688Y-160687683D01*
X222850776Y-160819619D01*
X224020395Y-159650000D01*
X224379605Y-159650000D01*
X225549224Y-160819619D01*
X225844312Y-160687683D01*
X226015159Y-160346955D01*
X226116250Y-159979443D01*
X226143701Y-159599271D01*
X226096457Y-159221049D01*
X225976333Y-158859310D01*
X225844312Y-158612317D01*
X225549224Y-158480381D01*
X224379605Y-159650000D01*
X224020395Y-159650000D01*
X222850776Y-158480381D01*
X222555688Y-158612317D01*
X222384841Y-158953045D01*
X222283750Y-159320557D01*
X222256299Y-159700729D01*
X221135000Y-159700729D01*
X221135000Y-159459419D01*
X221060639Y-159085581D01*
X220914775Y-158733434D01*
X220703013Y-158416509D01*
X220587280Y-158300776D01*
X223030381Y-158300776D01*
X224200000Y-159470395D01*
X225369619Y-158300776D01*
X225237683Y-158005688D01*
X224896955Y-157834841D01*
X224529443Y-157733750D01*
X224149271Y-157706299D01*
X223771049Y-157753543D01*
X223409310Y-157873667D01*
X223162317Y-158005688D01*
X223030381Y-158300776D01*
X220587280Y-158300776D01*
X220433491Y-158146987D01*
X220116566Y-157935225D01*
X219764419Y-157789361D01*
X219390581Y-157715000D01*
X219009419Y-157715000D01*
X218635581Y-157789361D01*
X218283434Y-157935225D01*
X217966509Y-158146987D01*
X217696987Y-158416509D01*
X217485225Y-158733434D01*
X217339361Y-159085581D01*
X217265000Y-159459419D01*
X216135000Y-159459419D01*
X216060639Y-159085581D01*
X215914775Y-158733434D01*
X215703013Y-158416509D01*
X215433491Y-158146987D01*
X215335000Y-158081178D01*
X215335000Y-157471469D01*
X215416684Y-157496248D01*
X215587500Y-157513072D01*
X216162500Y-157513072D01*
X216333316Y-157496248D01*
X216497567Y-157446423D01*
X216648942Y-157365512D01*
X216747046Y-157285000D01*
X217527954Y-157285000D01*
X217626058Y-157365512D01*
X217777433Y-157446423D01*
X217941684Y-157496248D01*
X218112500Y-157513072D01*
X218687500Y-157513072D01*
X218858316Y-157496248D01*
X219022567Y-157446423D01*
X219173942Y-157365512D01*
X219275000Y-157282575D01*
X219376058Y-157365512D01*
X219527433Y-157446423D01*
X219691684Y-157496248D01*
X219862500Y-157513072D01*
X220437500Y-157513072D01*
X220608316Y-157496248D01*
X220772567Y-157446423D01*
X220923942Y-157365512D01*
X221016561Y-157289501D01*
X221106614Y-157363405D01*
X221260150Y-157445472D01*
X221426746Y-157496008D01*
X221600000Y-157513072D01*
X222525000Y-157513072D01*
X222698254Y-157496008D01*
X222864850Y-157445472D01*
X223018386Y-157363405D01*
X223152962Y-157252962D01*
X223263405Y-157118386D01*
X223345472Y-156964850D01*
X223372727Y-156875000D01*
X223686928Y-156875000D01*
X223699188Y-156999482D01*
X223735498Y-157119180D01*
X223794463Y-157229494D01*
X223873815Y-157326185D01*
X223970506Y-157405537D01*
X224080820Y-157464502D01*
X224200518Y-157500812D01*
X224325000Y-157513072D01*
X224751750Y-157510000D01*
X224910500Y-157351250D01*
X224910500Y-156127000D01*
X225164500Y-156127000D01*
X225164500Y-157351250D01*
X225323250Y-157510000D01*
X225750000Y-157513072D01*
X225874482Y-157500812D01*
X225994180Y-157464502D01*
X226104494Y-157405537D01*
X226201185Y-157326185D01*
X226280537Y-157229494D01*
X226339502Y-157119180D01*
X226375812Y-156999482D01*
X226388072Y-156875000D01*
X226385000Y-156285750D01*
X226226250Y-156127000D01*
X225164500Y-156127000D01*
X224910500Y-156127000D01*
X223848750Y-156127000D01*
X223690000Y-156285750D01*
X223686928Y-156875000D01*
X223372727Y-156875000D01*
X223396008Y-156798254D01*
X223413072Y-156625000D01*
X223413072Y-155375000D01*
X223396008Y-155201746D01*
X223372728Y-155125000D01*
X223686928Y-155125000D01*
X223690000Y-155714250D01*
X223848750Y-155873000D01*
X224910500Y-155873000D01*
X224910500Y-154648750D01*
X225164500Y-154648750D01*
X225164500Y-155873000D01*
X226226250Y-155873000D01*
X226385000Y-155714250D01*
X226388072Y-155125000D01*
X226375812Y-155000518D01*
X226339502Y-154880820D01*
X226280537Y-154770506D01*
X226201185Y-154673815D01*
X226104494Y-154594463D01*
X225994180Y-154535498D01*
X225874482Y-154499188D01*
X225750000Y-154486928D01*
X225323250Y-154490000D01*
X225164500Y-154648750D01*
X224910500Y-154648750D01*
X224751750Y-154490000D01*
X224325000Y-154486928D01*
X224200518Y-154499188D01*
X224080820Y-154535498D01*
X223970506Y-154594463D01*
X223873815Y-154673815D01*
X223794463Y-154770506D01*
X223735498Y-154880820D01*
X223699188Y-155000518D01*
X223686928Y-155125000D01*
X223372728Y-155125000D01*
X223345472Y-155035150D01*
X223263405Y-154881614D01*
X223152962Y-154747038D01*
X223018386Y-154636595D01*
X222864850Y-154554528D01*
X222698254Y-154503992D01*
X222525000Y-154486928D01*
X221600000Y-154486928D01*
X221426746Y-154503992D01*
X221260150Y-154554528D01*
X221106614Y-154636595D01*
X220972038Y-154747038D01*
X220861595Y-154881614D01*
X220779528Y-155035150D01*
X220728992Y-155201746D01*
X220715736Y-155336337D01*
X220608316Y-155303752D01*
X220437500Y-155286928D01*
X219862500Y-155286928D01*
X219691684Y-155303752D01*
X219527433Y-155353577D01*
X219376058Y-155434488D01*
X219275000Y-155517425D01*
X219173942Y-155434488D01*
X219022567Y-155353577D01*
X218858316Y-155303752D01*
X218687500Y-155286928D01*
X218112500Y-155286928D01*
X217941684Y-155303752D01*
X217777433Y-155353577D01*
X217626058Y-155434488D01*
X217527954Y-155515000D01*
X216771416Y-155515000D01*
X216781623Y-155506623D01*
X216890512Y-155373942D01*
X216971423Y-155222567D01*
X217021248Y-155058316D01*
X217038072Y-154887500D01*
X217038072Y-154412500D01*
X217021248Y-154241684D01*
X216971423Y-154077433D01*
X216890512Y-153926058D01*
X216781623Y-153793377D01*
X216648942Y-153684488D01*
X216497567Y-153603577D01*
X216333316Y-153553752D01*
X216162500Y-153536928D01*
X215587500Y-153536928D01*
X215416684Y-153553752D01*
X215252433Y-153603577D01*
X215101058Y-153684488D01*
X215000000Y-153767425D01*
X214898942Y-153684488D01*
X214747567Y-153603577D01*
X214583316Y-153553752D01*
X214412500Y-153536928D01*
X213837500Y-153536928D01*
X213666684Y-153553752D01*
X213502433Y-153603577D01*
X213351058Y-153684488D01*
X213218377Y-153793377D01*
X213109488Y-153926058D01*
X213028577Y-154077433D01*
X212978752Y-154241684D01*
X212961928Y-154412500D01*
X212961928Y-154887500D01*
X212978752Y-155058316D01*
X213028577Y-155222567D01*
X213109488Y-155373942D01*
X213218377Y-155506623D01*
X213228584Y-155515000D01*
X212421416Y-155515000D01*
X212431623Y-155506623D01*
X212540512Y-155373942D01*
X212621423Y-155222567D01*
X212671248Y-155058316D01*
X212688072Y-154887500D01*
X212688072Y-154412500D01*
X212671248Y-154241684D01*
X212621423Y-154077433D01*
X212540512Y-153926058D01*
X212431623Y-153793377D01*
X212298942Y-153684488D01*
X212147567Y-153603577D01*
X211983316Y-153553752D01*
X211812500Y-153536928D01*
X211237500Y-153536928D01*
X211066684Y-153553752D01*
X210902433Y-153603577D01*
X210751058Y-153684488D01*
X210650000Y-153767425D01*
X210548942Y-153684488D01*
X210397567Y-153603577D01*
X210233316Y-153553752D01*
X210062500Y-153536928D01*
X209487500Y-153536928D01*
X209316684Y-153553752D01*
X209152433Y-153603577D01*
X209001058Y-153684488D01*
X208868377Y-153793377D01*
X208759488Y-153926058D01*
X208678577Y-154077433D01*
X208628752Y-154241684D01*
X208611928Y-154412500D01*
X196810000Y-154412500D01*
X196810000Y-151775000D01*
X217534509Y-151775000D01*
X217556423Y-151997498D01*
X217621324Y-152211446D01*
X217670384Y-152303230D01*
X217726717Y-152408623D01*
X217759428Y-152448481D01*
X217759428Y-153450000D01*
X217771688Y-153574482D01*
X217807998Y-153694180D01*
X217866963Y-153804494D01*
X217946315Y-153901185D01*
X218043006Y-153980537D01*
X218153320Y-154039502D01*
X218273018Y-154075812D01*
X218397500Y-154088072D01*
X220302500Y-154088072D01*
X220426982Y-154075812D01*
X220546680Y-154039502D01*
X220656994Y-153980537D01*
X220753685Y-153901185D01*
X220833037Y-153804494D01*
X220882059Y-153712781D01*
X221023077Y-153825969D01*
X221298906Y-153969571D01*
X221517020Y-154040563D01*
X221763000Y-153920594D01*
X221763000Y-152577000D01*
X221743000Y-152577000D01*
X221743000Y-152323000D01*
X221763000Y-152323000D01*
X221763000Y-150979406D01*
X221517020Y-150859437D01*
X221298906Y-150930429D01*
X221023077Y-151074031D01*
X220882059Y-151187219D01*
X220833037Y-151095506D01*
X220753685Y-150998815D01*
X220656994Y-150919463D01*
X220546680Y-150860498D01*
X220426982Y-150824188D01*
X220302500Y-150811928D01*
X219810000Y-150811928D01*
X219810000Y-150496105D01*
X219825518Y-150500812D01*
X219950000Y-150513072D01*
X220189250Y-150510000D01*
X220348000Y-150351250D01*
X220348000Y-149527000D01*
X220602000Y-149527000D01*
X220602000Y-150351250D01*
X220760750Y-150510000D01*
X221000000Y-150513072D01*
X221124482Y-150500812D01*
X221244180Y-150464502D01*
X221354494Y-150405537D01*
X221451185Y-150326185D01*
X221525000Y-150236241D01*
X221598815Y-150326185D01*
X221695506Y-150405537D01*
X221805820Y-150464502D01*
X221925518Y-150500812D01*
X222050000Y-150513072D01*
X222289250Y-150510000D01*
X222448000Y-150351250D01*
X222448000Y-149527000D01*
X221573750Y-149527000D01*
X221525000Y-149575750D01*
X221476250Y-149527000D01*
X220602000Y-149527000D01*
X220348000Y-149527000D01*
X220328000Y-149527000D01*
X220328000Y-149273000D01*
X220348000Y-149273000D01*
X220348000Y-148448750D01*
X220602000Y-148448750D01*
X220602000Y-149273000D01*
X221476250Y-149273000D01*
X221525000Y-149224250D01*
X221573750Y-149273000D01*
X222448000Y-149273000D01*
X222448000Y-148448750D01*
X222289250Y-148290000D01*
X222050000Y-148286928D01*
X221925518Y-148299188D01*
X221805820Y-148335498D01*
X221695506Y-148394463D01*
X221598815Y-148473815D01*
X221525000Y-148563759D01*
X221451185Y-148473815D01*
X221354494Y-148394463D01*
X221244180Y-148335498D01*
X221124482Y-148299188D01*
X221000000Y-148286928D01*
X220760750Y-148290000D01*
X220602000Y-148448750D01*
X220348000Y-148448750D01*
X220189250Y-148290000D01*
X219950000Y-148286928D01*
X219825518Y-148299188D01*
X219705820Y-148335498D01*
X219595506Y-148394463D01*
X219522839Y-148454099D01*
X219498942Y-148434488D01*
X219347567Y-148353577D01*
X219183316Y-148303752D01*
X219012500Y-148286928D01*
X218915645Y-148286928D01*
X218897498Y-148281423D01*
X218675000Y-148259509D01*
X218452501Y-148281423D01*
X218432841Y-148287387D01*
X218266684Y-148303752D01*
X218102433Y-148353577D01*
X217951058Y-148434488D01*
X217818377Y-148543377D01*
X217709488Y-148676058D01*
X217628577Y-148827433D01*
X217578752Y-148991684D01*
X217562387Y-149157842D01*
X217556423Y-149177502D01*
X217540000Y-149344249D01*
X217540001Y-151719239D01*
X217534509Y-151775000D01*
X196810000Y-151775000D01*
X196810000Y-144400000D01*
X197286928Y-144400000D01*
X197299188Y-144524482D01*
X197335498Y-144644180D01*
X197394463Y-144754494D01*
X197454099Y-144827161D01*
X197434488Y-144851058D01*
X197353577Y-145002433D01*
X197303752Y-145166684D01*
X197286928Y-145337500D01*
X197286928Y-145912500D01*
X197303752Y-146083316D01*
X197353577Y-146247567D01*
X197434488Y-146398942D01*
X197543377Y-146531623D01*
X197676058Y-146640512D01*
X197827433Y-146721423D01*
X197991684Y-146771248D01*
X198162500Y-146788072D01*
X198637500Y-146788072D01*
X198808316Y-146771248D01*
X198972567Y-146721423D01*
X199123942Y-146640512D01*
X199256623Y-146531623D01*
X199365512Y-146398942D01*
X199446423Y-146247567D01*
X199496248Y-146083316D01*
X199513072Y-145912500D01*
X199513072Y-145337500D01*
X199496248Y-145166684D01*
X199446423Y-145002433D01*
X199365512Y-144851058D01*
X199345901Y-144827161D01*
X199405537Y-144754494D01*
X199464502Y-144644180D01*
X199500812Y-144524482D01*
X199513072Y-144400000D01*
X199686928Y-144400000D01*
X199699188Y-144524482D01*
X199735498Y-144644180D01*
X199794463Y-144754494D01*
X199854099Y-144827161D01*
X199834488Y-144851058D01*
X199753577Y-145002433D01*
X199703752Y-145166684D01*
X199686928Y-145337500D01*
X199686928Y-145912500D01*
X199703752Y-146083316D01*
X199753577Y-146247567D01*
X199834488Y-146398942D01*
X199943377Y-146531623D01*
X200076058Y-146640512D01*
X200227433Y-146721423D01*
X200391684Y-146771248D01*
X200562500Y-146788072D01*
X201037500Y-146788072D01*
X201208316Y-146771248D01*
X201372567Y-146721423D01*
X201412646Y-146700000D01*
X219386928Y-146700000D01*
X219399188Y-146824482D01*
X219435498Y-146944180D01*
X219494463Y-147054494D01*
X219573815Y-147151185D01*
X219670506Y-147230537D01*
X219780820Y-147289502D01*
X219900518Y-147325812D01*
X220025000Y-147338072D01*
X220214250Y-147335000D01*
X220373000Y-147176250D01*
X220373000Y-146302000D01*
X220627000Y-146302000D01*
X220627000Y-147176250D01*
X220785750Y-147335000D01*
X220975000Y-147338072D01*
X221099482Y-147325812D01*
X221219180Y-147289502D01*
X221329494Y-147230537D01*
X221426185Y-147151185D01*
X221505537Y-147054494D01*
X221525000Y-147018082D01*
X221544463Y-147054494D01*
X221623815Y-147151185D01*
X221720506Y-147230537D01*
X221830820Y-147289502D01*
X221950518Y-147325812D01*
X222075000Y-147338072D01*
X222264250Y-147335000D01*
X222423000Y-147176250D01*
X222423000Y-146302000D01*
X221598750Y-146302000D01*
X221525000Y-146375750D01*
X221451250Y-146302000D01*
X220627000Y-146302000D01*
X220373000Y-146302000D01*
X219548750Y-146302000D01*
X219390000Y-146460750D01*
X219386928Y-146700000D01*
X201412646Y-146700000D01*
X201523942Y-146640512D01*
X201656623Y-146531623D01*
X201765512Y-146398942D01*
X201846423Y-146247567D01*
X201896248Y-146083316D01*
X201913072Y-145912500D01*
X201913072Y-145337500D01*
X201896248Y-145166684D01*
X201846423Y-145002433D01*
X201765512Y-144851058D01*
X201745901Y-144827161D01*
X201805537Y-144754494D01*
X201864502Y-144644180D01*
X201900812Y-144524482D01*
X201913072Y-144400000D01*
X201910000Y-144160750D01*
X201751250Y-144002000D01*
X200927000Y-144002000D01*
X200927000Y-144022000D01*
X200673000Y-144022000D01*
X200673000Y-144002000D01*
X199848750Y-144002000D01*
X199690000Y-144160750D01*
X199686928Y-144400000D01*
X199513072Y-144400000D01*
X199510000Y-144160750D01*
X199351250Y-144002000D01*
X198527000Y-144002000D01*
X198527000Y-144022000D01*
X198273000Y-144022000D01*
X198273000Y-144002000D01*
X197448750Y-144002000D01*
X197290000Y-144160750D01*
X197286928Y-144400000D01*
X196810000Y-144400000D01*
X196810000Y-143350000D01*
X197286928Y-143350000D01*
X197290000Y-143589250D01*
X197448750Y-143748000D01*
X198273000Y-143748000D01*
X198273000Y-142873750D01*
X198527000Y-142873750D01*
X198527000Y-143748000D01*
X199351250Y-143748000D01*
X199510000Y-143589250D01*
X199513072Y-143350000D01*
X199500812Y-143225518D01*
X199464502Y-143105820D01*
X199405537Y-142995506D01*
X199326185Y-142898815D01*
X199229494Y-142819463D01*
X199119180Y-142760498D01*
X198999482Y-142724188D01*
X198875000Y-142711928D01*
X198685750Y-142715000D01*
X198527000Y-142873750D01*
X198273000Y-142873750D01*
X198114250Y-142715000D01*
X197925000Y-142711928D01*
X197800518Y-142724188D01*
X197680820Y-142760498D01*
X197570506Y-142819463D01*
X197473815Y-142898815D01*
X197394463Y-142995506D01*
X197335498Y-143105820D01*
X197299188Y-143225518D01*
X197286928Y-143350000D01*
X196810000Y-143350000D01*
X196810000Y-133750000D01*
X197011928Y-133750000D01*
X197011928Y-135450000D01*
X197024188Y-135574482D01*
X197060498Y-135694180D01*
X197119463Y-135804494D01*
X197198815Y-135901185D01*
X197295506Y-135980537D01*
X197405820Y-136039502D01*
X197478380Y-136061513D01*
X197346525Y-136193368D01*
X197184010Y-136436589D01*
X197072068Y-136706842D01*
X197015000Y-136993740D01*
X197015000Y-137286260D01*
X197072068Y-137573158D01*
X197184010Y-137843411D01*
X197346525Y-138086632D01*
X197553368Y-138293475D01*
X197727760Y-138410000D01*
X197553368Y-138526525D01*
X197346525Y-138733368D01*
X197184010Y-138976589D01*
X197072068Y-139246842D01*
X197015000Y-139533740D01*
X197015000Y-139826260D01*
X197072068Y-140113158D01*
X197184010Y-140383411D01*
X197346525Y-140626632D01*
X197553368Y-140833475D01*
X197796589Y-140995990D01*
X198066842Y-141107932D01*
X198353740Y-141165000D01*
X198646260Y-141165000D01*
X198933158Y-141107932D01*
X198978109Y-141089313D01*
X198978412Y-141090313D01*
X199060590Y-141244059D01*
X199143468Y-141345046D01*
X200513407Y-142714986D01*
X200325000Y-142711928D01*
X200200518Y-142724188D01*
X200080820Y-142760498D01*
X199970506Y-142819463D01*
X199873815Y-142898815D01*
X199794463Y-142995506D01*
X199735498Y-143105820D01*
X199699188Y-143225518D01*
X199686928Y-143350000D01*
X199690000Y-143589250D01*
X199848750Y-143748000D01*
X200673000Y-143748000D01*
X200673000Y-143728000D01*
X200927000Y-143728000D01*
X200927000Y-143748000D01*
X201751250Y-143748000D01*
X201910000Y-143589250D01*
X201913072Y-143350000D01*
X201900812Y-143225518D01*
X201873354Y-143135000D01*
X205164166Y-143135000D01*
X205165000Y-143143469D01*
X205165000Y-143143477D01*
X205177805Y-143273490D01*
X205228411Y-143440313D01*
X205305748Y-143585000D01*
X205310590Y-143594059D01*
X205393468Y-143695046D01*
X205393471Y-143695049D01*
X205421184Y-143728817D01*
X205454951Y-143756529D01*
X206136928Y-144438507D01*
X206136928Y-144662500D01*
X206153752Y-144833316D01*
X206203577Y-144997567D01*
X206284488Y-145148942D01*
X206393377Y-145281623D01*
X206526058Y-145390512D01*
X206677433Y-145471423D01*
X206841684Y-145521248D01*
X207012500Y-145538072D01*
X207487500Y-145538072D01*
X207658316Y-145521248D01*
X207822567Y-145471423D01*
X207973942Y-145390512D01*
X208106623Y-145281623D01*
X208215512Y-145148942D01*
X208296423Y-144997567D01*
X208337410Y-144862451D01*
X208336928Y-144900000D01*
X208349188Y-145024482D01*
X208385498Y-145144180D01*
X208444463Y-145254494D01*
X208523815Y-145351185D01*
X208620506Y-145430537D01*
X208730820Y-145489502D01*
X208850518Y-145525812D01*
X208975000Y-145538072D01*
X209164250Y-145535000D01*
X209323000Y-145376250D01*
X209323000Y-144502000D01*
X209577000Y-144502000D01*
X209577000Y-145376250D01*
X209735750Y-145535000D01*
X209925000Y-145538072D01*
X210049482Y-145525812D01*
X210169180Y-145489502D01*
X210279494Y-145430537D01*
X210376185Y-145351185D01*
X210455537Y-145254494D01*
X210514502Y-145144180D01*
X210550812Y-145024482D01*
X210563072Y-144900000D01*
X210836928Y-144900000D01*
X210849188Y-145024482D01*
X210885498Y-145144180D01*
X210944463Y-145254494D01*
X211023815Y-145351185D01*
X211120506Y-145430537D01*
X211230820Y-145489502D01*
X211350518Y-145525812D01*
X211475000Y-145538072D01*
X211664250Y-145535000D01*
X211823000Y-145376250D01*
X211823000Y-144502000D01*
X212077000Y-144502000D01*
X212077000Y-145376250D01*
X212235750Y-145535000D01*
X212425000Y-145538072D01*
X212549482Y-145525812D01*
X212669180Y-145489502D01*
X212779494Y-145430537D01*
X212876185Y-145351185D01*
X212955537Y-145254494D01*
X213014502Y-145144180D01*
X213050812Y-145024482D01*
X213063072Y-144900000D01*
X213286928Y-144900000D01*
X213299188Y-145024482D01*
X213335498Y-145144180D01*
X213394463Y-145254494D01*
X213473815Y-145351185D01*
X213570506Y-145430537D01*
X213680820Y-145489502D01*
X213800518Y-145525812D01*
X213925000Y-145538072D01*
X214114250Y-145535000D01*
X214273000Y-145376250D01*
X214273000Y-144502000D01*
X213448750Y-144502000D01*
X213290000Y-144660750D01*
X213286928Y-144900000D01*
X213063072Y-144900000D01*
X213060000Y-144660750D01*
X212901250Y-144502000D01*
X212077000Y-144502000D01*
X211823000Y-144502000D01*
X210998750Y-144502000D01*
X210840000Y-144660750D01*
X210836928Y-144900000D01*
X210563072Y-144900000D01*
X210560000Y-144660750D01*
X210401250Y-144502000D01*
X209577000Y-144502000D01*
X209323000Y-144502000D01*
X209303000Y-144502000D01*
X209303000Y-144248000D01*
X209323000Y-144248000D01*
X209323000Y-144228000D01*
X209577000Y-144228000D01*
X209577000Y-144248000D01*
X210401250Y-144248000D01*
X210560000Y-144089250D01*
X210563072Y-143850000D01*
X210550812Y-143725518D01*
X210514502Y-143605820D01*
X210455537Y-143495506D01*
X210395901Y-143422839D01*
X210415512Y-143398942D01*
X210496423Y-143247567D01*
X210546248Y-143083316D01*
X210563072Y-142912500D01*
X210563072Y-142337500D01*
X210552977Y-142235000D01*
X210815000Y-142235000D01*
X210815000Y-142655751D01*
X210831423Y-142822498D01*
X210836928Y-142840645D01*
X210836928Y-142912500D01*
X210853752Y-143083316D01*
X210903577Y-143247567D01*
X210984488Y-143398942D01*
X211004099Y-143422839D01*
X210944463Y-143495506D01*
X210885498Y-143605820D01*
X210849188Y-143725518D01*
X210836928Y-143850000D01*
X210840000Y-144089250D01*
X210998750Y-144248000D01*
X211823000Y-144248000D01*
X211823000Y-144228000D01*
X212077000Y-144228000D01*
X212077000Y-144248000D01*
X212901250Y-144248000D01*
X213060000Y-144089250D01*
X213063072Y-143850000D01*
X213050812Y-143725518D01*
X213014502Y-143605820D01*
X212955537Y-143495506D01*
X212895901Y-143422839D01*
X212915512Y-143398942D01*
X212996423Y-143247567D01*
X213046248Y-143083316D01*
X213063072Y-142912500D01*
X213063072Y-142840646D01*
X213068577Y-142822499D01*
X213085000Y-142655752D01*
X213085000Y-142235000D01*
X213297023Y-142235000D01*
X213286928Y-142337500D01*
X213286928Y-142912500D01*
X213303752Y-143083316D01*
X213353577Y-143247567D01*
X213434488Y-143398942D01*
X213454099Y-143422839D01*
X213394463Y-143495506D01*
X213335498Y-143605820D01*
X213299188Y-143725518D01*
X213286928Y-143850000D01*
X213290000Y-144089250D01*
X213448750Y-144248000D01*
X214273000Y-144248000D01*
X214273000Y-144228000D01*
X214527000Y-144228000D01*
X214527000Y-144248000D01*
X214547000Y-144248000D01*
X214547000Y-144502000D01*
X214527000Y-144502000D01*
X214527000Y-145376250D01*
X214685750Y-145535000D01*
X214875000Y-145538072D01*
X214999482Y-145525812D01*
X215119180Y-145489502D01*
X215229494Y-145430537D01*
X215326185Y-145351185D01*
X215405537Y-145254494D01*
X215464502Y-145144180D01*
X215500812Y-145024482D01*
X215503491Y-144997283D01*
X215503577Y-144997567D01*
X215584488Y-145148942D01*
X215693377Y-145281623D01*
X215826058Y-145390512D01*
X215977433Y-145471423D01*
X216141684Y-145521248D01*
X216312500Y-145538072D01*
X216787500Y-145538072D01*
X216958316Y-145521248D01*
X217122567Y-145471423D01*
X217273942Y-145390512D01*
X217406623Y-145281623D01*
X217515512Y-145148942D01*
X217596423Y-144997567D01*
X217646248Y-144833316D01*
X217663072Y-144662500D01*
X217663072Y-144087500D01*
X217646248Y-143916684D01*
X217596423Y-143752433D01*
X217515512Y-143601058D01*
X217432575Y-143500000D01*
X217515512Y-143398942D01*
X217596423Y-143247567D01*
X217632254Y-143129447D01*
X217709488Y-143273942D01*
X217818377Y-143406623D01*
X217951058Y-143515512D01*
X218102433Y-143596423D01*
X218266684Y-143646248D01*
X218437500Y-143663072D01*
X219012500Y-143663072D01*
X219183316Y-143646248D01*
X219347567Y-143596423D01*
X219498942Y-143515512D01*
X219590000Y-143440782D01*
X219590001Y-143583416D01*
X219534488Y-143651058D01*
X219453577Y-143802433D01*
X219403752Y-143966684D01*
X219386928Y-144137500D01*
X219386928Y-144712500D01*
X219403752Y-144883316D01*
X219453577Y-145047567D01*
X219534488Y-145198942D01*
X219554099Y-145222839D01*
X219494463Y-145295506D01*
X219435498Y-145405820D01*
X219399188Y-145525518D01*
X219386928Y-145650000D01*
X219390000Y-145889250D01*
X219548750Y-146048000D01*
X220373000Y-146048000D01*
X220373000Y-146028000D01*
X220627000Y-146028000D01*
X220627000Y-146048000D01*
X221451250Y-146048000D01*
X221525000Y-145974250D01*
X221598750Y-146048000D01*
X222423000Y-146048000D01*
X222423000Y-146028000D01*
X222677000Y-146028000D01*
X222677000Y-146048000D01*
X222697000Y-146048000D01*
X222697000Y-146302000D01*
X222677000Y-146302000D01*
X222677000Y-147176250D01*
X222835750Y-147335000D01*
X223025000Y-147338072D01*
X223149482Y-147325812D01*
X223190001Y-147313521D01*
X223190001Y-148295792D01*
X223100000Y-148286928D01*
X222860750Y-148290000D01*
X222702000Y-148448750D01*
X222702000Y-149273000D01*
X222722000Y-149273000D01*
X222722000Y-149527000D01*
X222702000Y-149527000D01*
X222702000Y-150351250D01*
X222860750Y-150510000D01*
X223100000Y-150513072D01*
X223190000Y-150504208D01*
X223190001Y-151411054D01*
X223154838Y-151453900D01*
X222999437Y-151268685D01*
X222756923Y-151074031D01*
X222481094Y-150930429D01*
X222262980Y-150859437D01*
X222017000Y-150979406D01*
X222017000Y-152323000D01*
X222037000Y-152323000D01*
X222037000Y-152577000D01*
X222017000Y-152577000D01*
X222017000Y-153920594D01*
X222262980Y-154040563D01*
X222481094Y-153969571D01*
X222756923Y-153825969D01*
X222999437Y-153631315D01*
X223154837Y-153446101D01*
X223302037Y-153625463D01*
X223543766Y-153823845D01*
X223819552Y-153971255D01*
X224118797Y-154062030D01*
X224430000Y-154092681D01*
X224741204Y-154062030D01*
X225040449Y-153971255D01*
X225316235Y-153823845D01*
X225557963Y-153625463D01*
X225756345Y-153383734D01*
X225903755Y-153107948D01*
X225994530Y-152808703D01*
X226017500Y-152575485D01*
X226017500Y-152324514D01*
X225994530Y-152091296D01*
X225903755Y-151792051D01*
X225756345Y-151516265D01*
X225557963Y-151274537D01*
X225460000Y-151194141D01*
X225460000Y-149845396D01*
X225471248Y-149808316D01*
X225488072Y-149637500D01*
X225488072Y-149162500D01*
X225471248Y-148991684D01*
X225460000Y-148954604D01*
X225460000Y-142995396D01*
X225471248Y-142958316D01*
X225488072Y-142787500D01*
X225488072Y-142312500D01*
X225471248Y-142141684D01*
X225461943Y-142111011D01*
X225465490Y-142074999D01*
X225460000Y-142019255D01*
X225460000Y-142019249D01*
X225443577Y-141852502D01*
X225443577Y-141852500D01*
X225399680Y-141707795D01*
X225378676Y-141638554D01*
X225273284Y-141441377D01*
X225131449Y-141268551D01*
X225088140Y-141233008D01*
X224191996Y-140336864D01*
X224156449Y-140293551D01*
X223983623Y-140151716D01*
X223786447Y-140046324D01*
X223572499Y-139981423D01*
X223405752Y-139965000D01*
X223405751Y-139965000D01*
X223350000Y-139959509D01*
X223294249Y-139965000D01*
X212005752Y-139965000D01*
X211950000Y-139959509D01*
X211894249Y-139965000D01*
X207305752Y-139965000D01*
X207250000Y-139959509D01*
X207194249Y-139965000D01*
X206225773Y-139965000D01*
X206197499Y-139956423D01*
X206030752Y-139940000D01*
X206030751Y-139940000D01*
X205975000Y-139934509D01*
X205919249Y-139940000D01*
X204298718Y-139940000D01*
X204346248Y-139783316D01*
X204363072Y-139612500D01*
X204363072Y-139037500D01*
X204346248Y-138866684D01*
X204296423Y-138702433D01*
X204215512Y-138551058D01*
X204135000Y-138452954D01*
X204135000Y-137997046D01*
X204215512Y-137898942D01*
X204296423Y-137747567D01*
X204338081Y-137610241D01*
X204336928Y-137700000D01*
X204349188Y-137824482D01*
X204385498Y-137944180D01*
X204444463Y-138054494D01*
X204523815Y-138151185D01*
X204620506Y-138230537D01*
X204730820Y-138289502D01*
X204850518Y-138325812D01*
X204975000Y-138338072D01*
X205164250Y-138335000D01*
X205323000Y-138176250D01*
X205323000Y-137302000D01*
X205577000Y-137302000D01*
X205577000Y-138176250D01*
X205735750Y-138335000D01*
X205925000Y-138338072D01*
X206049482Y-138325812D01*
X206169180Y-138289502D01*
X206279494Y-138230537D01*
X206376185Y-138151185D01*
X206455537Y-138054494D01*
X206514502Y-137944180D01*
X206550812Y-137824482D01*
X206560609Y-137725000D01*
X213186928Y-137725000D01*
X213199188Y-137849482D01*
X213235498Y-137969180D01*
X213294463Y-138079494D01*
X213373815Y-138176185D01*
X213470506Y-138255537D01*
X213580820Y-138314502D01*
X213700518Y-138350812D01*
X213825000Y-138363072D01*
X214014250Y-138360000D01*
X214173000Y-138201250D01*
X214173000Y-137327000D01*
X214427000Y-137327000D01*
X214427000Y-138201250D01*
X214585750Y-138360000D01*
X214775000Y-138363072D01*
X214899482Y-138350812D01*
X215019180Y-138314502D01*
X215129494Y-138255537D01*
X215226185Y-138176185D01*
X215305537Y-138079494D01*
X215364502Y-137969180D01*
X215400812Y-137849482D01*
X215413072Y-137725000D01*
X215410000Y-137485750D01*
X215251250Y-137327000D01*
X214427000Y-137327000D01*
X214173000Y-137327000D01*
X213348750Y-137327000D01*
X213190000Y-137485750D01*
X213186928Y-137725000D01*
X206560609Y-137725000D01*
X206563072Y-137700000D01*
X206560000Y-137460750D01*
X206401250Y-137302000D01*
X205577000Y-137302000D01*
X205323000Y-137302000D01*
X205303000Y-137302000D01*
X205303000Y-137048000D01*
X205323000Y-137048000D01*
X205323000Y-137028000D01*
X205577000Y-137028000D01*
X205577000Y-137048000D01*
X206401250Y-137048000D01*
X206560000Y-136889250D01*
X206563072Y-136650000D01*
X206551807Y-136535616D01*
X206763957Y-136677371D01*
X207016011Y-136781775D01*
X207283589Y-136835000D01*
X207556411Y-136835000D01*
X207823989Y-136781775D01*
X208076043Y-136677371D01*
X208302886Y-136525799D01*
X208495799Y-136332886D01*
X208647371Y-136106043D01*
X208751775Y-135853989D01*
X208805000Y-135586411D01*
X208805000Y-135363072D01*
X209262500Y-135363072D01*
X209433316Y-135346248D01*
X209597567Y-135296423D01*
X209748942Y-135215512D01*
X209850000Y-135132575D01*
X209951058Y-135215512D01*
X210102433Y-135296423D01*
X210266684Y-135346248D01*
X210437500Y-135363072D01*
X210915000Y-135363072D01*
X210915000Y-135586411D01*
X210968225Y-135853989D01*
X211072629Y-136106043D01*
X211224201Y-136332886D01*
X211417114Y-136525799D01*
X211643957Y-136677371D01*
X211896011Y-136781775D01*
X212163589Y-136835000D01*
X212436411Y-136835000D01*
X212703989Y-136781775D01*
X212956043Y-136677371D01*
X213182886Y-136525799D01*
X213217050Y-136491635D01*
X213199188Y-136550518D01*
X213186928Y-136675000D01*
X213190000Y-136914250D01*
X213348750Y-137073000D01*
X214173000Y-137073000D01*
X214173000Y-137053000D01*
X214427000Y-137053000D01*
X214427000Y-137073000D01*
X215251250Y-137073000D01*
X215410000Y-136914250D01*
X215413072Y-136675000D01*
X215400812Y-136550518D01*
X215364502Y-136430820D01*
X215305537Y-136320506D01*
X215245901Y-136247839D01*
X215265512Y-136223942D01*
X215346423Y-136072567D01*
X215396248Y-135908316D01*
X215413072Y-135737500D01*
X215413072Y-135555098D01*
X219505000Y-135555098D01*
X219505000Y-136024902D01*
X219596654Y-136485679D01*
X219776440Y-136919721D01*
X220037450Y-137310349D01*
X220369651Y-137642550D01*
X220760279Y-137903560D01*
X221194321Y-138083346D01*
X221655098Y-138175000D01*
X222124902Y-138175000D01*
X222585679Y-138083346D01*
X223019721Y-137903560D01*
X223410349Y-137642550D01*
X223742550Y-137310349D01*
X224003560Y-136919721D01*
X224183346Y-136485679D01*
X224275000Y-136024902D01*
X224275000Y-135555098D01*
X224183346Y-135094321D01*
X224003560Y-134660279D01*
X223742550Y-134269651D01*
X223410349Y-133937450D01*
X223019721Y-133676440D01*
X222585679Y-133496654D01*
X222124902Y-133405000D01*
X221655098Y-133405000D01*
X221194321Y-133496654D01*
X220760279Y-133676440D01*
X220369651Y-133937450D01*
X220037450Y-134269651D01*
X219776440Y-134660279D01*
X219596654Y-135094321D01*
X219505000Y-135555098D01*
X215413072Y-135555098D01*
X215413072Y-135162500D01*
X215396248Y-134991684D01*
X215346423Y-134827433D01*
X215265512Y-134676058D01*
X215156623Y-134543377D01*
X215023942Y-134434488D01*
X214872567Y-134353577D01*
X214708316Y-134303752D01*
X214537500Y-134286928D01*
X214062500Y-134286928D01*
X213891684Y-134303752D01*
X213727433Y-134353577D01*
X213576058Y-134434488D01*
X213443377Y-134543377D01*
X213425631Y-134565000D01*
X213373685Y-134565000D01*
X213182886Y-134374201D01*
X212956043Y-134222629D01*
X212703989Y-134118225D01*
X212436411Y-134065000D01*
X212166578Y-134065000D01*
X211839891Y-133738312D01*
X211821423Y-133677433D01*
X211740512Y-133526058D01*
X211631623Y-133393377D01*
X211498942Y-133284488D01*
X211347567Y-133203577D01*
X211183316Y-133153752D01*
X211012500Y-133136928D01*
X210437500Y-133136928D01*
X210266684Y-133153752D01*
X210102433Y-133203577D01*
X209951058Y-133284488D01*
X209850000Y-133367425D01*
X209748942Y-133284488D01*
X209597567Y-133203577D01*
X209433316Y-133153752D01*
X209262500Y-133136928D01*
X208687500Y-133136928D01*
X208516684Y-133153752D01*
X208352433Y-133203577D01*
X208201058Y-133284488D01*
X208068377Y-133393377D01*
X207959488Y-133526058D01*
X207878577Y-133677433D01*
X207851401Y-133767020D01*
X207553421Y-134065000D01*
X207283589Y-134065000D01*
X207016011Y-134118225D01*
X206763957Y-134222629D01*
X206537114Y-134374201D01*
X206346315Y-134565000D01*
X206344886Y-134565000D01*
X206306623Y-134518377D01*
X206173942Y-134409488D01*
X206022567Y-134328577D01*
X205858316Y-134278752D01*
X205687500Y-134261928D01*
X205212500Y-134261928D01*
X205041684Y-134278752D01*
X204877433Y-134328577D01*
X204726058Y-134409488D01*
X204593377Y-134518377D01*
X204484488Y-134651058D01*
X204403577Y-134802433D01*
X204361919Y-134939759D01*
X204363072Y-134850000D01*
X204350812Y-134725518D01*
X204314502Y-134605820D01*
X204255537Y-134495506D01*
X204176185Y-134398815D01*
X204079494Y-134319463D01*
X203969180Y-134260498D01*
X203849482Y-134224188D01*
X203725000Y-134211928D01*
X203535750Y-134215000D01*
X203377000Y-134373750D01*
X203377000Y-135248000D01*
X203397000Y-135248000D01*
X203397000Y-135502000D01*
X203377000Y-135502000D01*
X203377000Y-135522000D01*
X203123000Y-135522000D01*
X203123000Y-135502000D01*
X203103000Y-135502000D01*
X203103000Y-135248000D01*
X203123000Y-135248000D01*
X203123000Y-134373750D01*
X202964250Y-134215000D01*
X202775000Y-134211928D01*
X202650518Y-134224188D01*
X202530820Y-134260498D01*
X202449306Y-134304069D01*
X202481476Y-134243110D01*
X202436825Y-134095901D01*
X202311641Y-133833080D01*
X202137588Y-133599731D01*
X201921355Y-133404822D01*
X201671252Y-133255843D01*
X201396891Y-133158519D01*
X201167000Y-133279186D01*
X201167000Y-134473000D01*
X201187000Y-134473000D01*
X201187000Y-134727000D01*
X201167000Y-134727000D01*
X201167000Y-134747000D01*
X200913000Y-134747000D01*
X200913000Y-134727000D01*
X200893000Y-134727000D01*
X200893000Y-134473000D01*
X200913000Y-134473000D01*
X200913000Y-133279186D01*
X200683109Y-133158519D01*
X200408748Y-133255843D01*
X200158645Y-133404822D01*
X199962498Y-133581626D01*
X199939502Y-133505820D01*
X199880537Y-133395506D01*
X199801185Y-133298815D01*
X199704494Y-133219463D01*
X199594180Y-133160498D01*
X199474482Y-133124188D01*
X199350000Y-133111928D01*
X197650000Y-133111928D01*
X197525518Y-133124188D01*
X197405820Y-133160498D01*
X197295506Y-133219463D01*
X197198815Y-133298815D01*
X197119463Y-133395506D01*
X197060498Y-133505820D01*
X197024188Y-133625518D01*
X197011928Y-133750000D01*
X196810000Y-133750000D01*
X196810000Y-133060000D01*
X226590000Y-133060000D01*
X226590001Y-163740000D01*
M02*
