G04 #@! TF.GenerationSoftware,KiCad,Pcbnew,5.1.6-c6e7f7d~86~ubuntu18.04.1*
G04 #@! TF.CreationDate,2020-06-11T15:17:01+02:00*
G04 #@! TF.ProjectId,sci2can,73636932-6361-46e2-9e6b-696361645f70,1.02*
G04 #@! TF.SameCoordinates,Original*
G04 #@! TF.FileFunction,Legend,Top*
G04 #@! TF.FilePolarity,Positive*
%FSLAX46Y46*%
G04 Gerber Fmt 4.6, Leading zero omitted, Abs format (unit mm)*
G04 Created by KiCad (PCBNEW 5.1.6-c6e7f7d~86~ubuntu18.04.1) date 2020-06-11 15:17:01*
%MOMM*%
%LPD*%
G01*
G04 APERTURE LIST*
%ADD10C,0.200000*%
%ADD11C,0.120000*%
%ADD12C,0.150000*%
G04 APERTURE END LIST*
D10*
X204480952Y-76552380D02*
X204480952Y-77266666D01*
X204433333Y-77409523D01*
X204338095Y-77504761D01*
X204195238Y-77552380D01*
X204100000Y-77552380D01*
X205433333Y-77552380D02*
X204957142Y-77552380D01*
X204957142Y-76552380D01*
X206338095Y-77457142D02*
X206290476Y-77504761D01*
X206147619Y-77552380D01*
X206052380Y-77552380D01*
X205909523Y-77504761D01*
X205814285Y-77409523D01*
X205766666Y-77314285D01*
X205719047Y-77123809D01*
X205719047Y-76980952D01*
X205766666Y-76790476D01*
X205814285Y-76695238D01*
X205909523Y-76600000D01*
X206052380Y-76552380D01*
X206147619Y-76552380D01*
X206290476Y-76600000D01*
X206338095Y-76647619D01*
X207052380Y-76552380D02*
X207052380Y-77266666D01*
X207004761Y-77409523D01*
X206909523Y-77504761D01*
X206766666Y-77552380D01*
X206671428Y-77552380D01*
X208004761Y-77552380D02*
X207528571Y-77552380D01*
X207528571Y-76552380D01*
X208909523Y-77457142D02*
X208861904Y-77504761D01*
X208719047Y-77552380D01*
X208623809Y-77552380D01*
X208480952Y-77504761D01*
X208385714Y-77409523D01*
X208338095Y-77314285D01*
X208290476Y-77123809D01*
X208290476Y-76980952D01*
X208338095Y-76790476D01*
X208385714Y-76695238D01*
X208480952Y-76600000D01*
X208623809Y-76552380D01*
X208719047Y-76552380D01*
X208861904Y-76600000D01*
X208909523Y-76647619D01*
X209623809Y-76552380D02*
X209623809Y-77266666D01*
X209576190Y-77409523D01*
X209480952Y-77504761D01*
X209338095Y-77552380D01*
X209242857Y-77552380D01*
X210576190Y-77552380D02*
X210100000Y-77552380D01*
X210100000Y-76552380D01*
X211480952Y-77457142D02*
X211433333Y-77504761D01*
X211290476Y-77552380D01*
X211195238Y-77552380D01*
X211052380Y-77504761D01*
X210957142Y-77409523D01*
X210909523Y-77314285D01*
X210861904Y-77123809D01*
X210861904Y-76980952D01*
X210909523Y-76790476D01*
X210957142Y-76695238D01*
X211052380Y-76600000D01*
X211195238Y-76552380D01*
X211290476Y-76552380D01*
X211433333Y-76600000D01*
X211480952Y-76647619D01*
X212195238Y-76552380D02*
X212195238Y-77266666D01*
X212147619Y-77409523D01*
X212052380Y-77504761D01*
X211909523Y-77552380D01*
X211814285Y-77552380D01*
X213147619Y-77552380D02*
X212671428Y-77552380D01*
X212671428Y-76552380D01*
X214052380Y-77457142D02*
X214004761Y-77504761D01*
X213861904Y-77552380D01*
X213766666Y-77552380D01*
X213623809Y-77504761D01*
X213528571Y-77409523D01*
X213480952Y-77314285D01*
X213433333Y-77123809D01*
X213433333Y-76980952D01*
X213480952Y-76790476D01*
X213528571Y-76695238D01*
X213623809Y-76600000D01*
X213766666Y-76552380D01*
X213861904Y-76552380D01*
X214004761Y-76600000D01*
X214052380Y-76647619D01*
X215604761Y-92116666D02*
X215652380Y-92021428D01*
X215652380Y-91830952D01*
X215604761Y-91735714D01*
X215509523Y-91688095D01*
X215461904Y-91688095D01*
X215366666Y-91735714D01*
X215319047Y-91830952D01*
X215319047Y-91973809D01*
X215271428Y-92069047D01*
X215176190Y-92116666D01*
X215128571Y-92116666D01*
X215033333Y-92069047D01*
X214985714Y-91973809D01*
X214985714Y-91830952D01*
X215033333Y-91735714D01*
X215604761Y-90830952D02*
X215652380Y-90926190D01*
X215652380Y-91116666D01*
X215604761Y-91211904D01*
X215557142Y-91259523D01*
X215461904Y-91307142D01*
X215176190Y-91307142D01*
X215080952Y-91259523D01*
X215033333Y-91211904D01*
X214985714Y-91116666D01*
X214985714Y-90926190D01*
X215033333Y-90830952D01*
X215652380Y-90402380D02*
X214985714Y-90402380D01*
X214652380Y-90402380D02*
X214700000Y-90450000D01*
X214747619Y-90402380D01*
X214700000Y-90354761D01*
X214652380Y-90402380D01*
X214747619Y-90402380D01*
X214747619Y-89973809D02*
X214700000Y-89926190D01*
X214652380Y-89830952D01*
X214652380Y-89592857D01*
X214700000Y-89497619D01*
X214747619Y-89450000D01*
X214842857Y-89402380D01*
X214938095Y-89402380D01*
X215080952Y-89450000D01*
X215652380Y-90021428D01*
X215652380Y-89402380D01*
X215604761Y-88545238D02*
X215652380Y-88640476D01*
X215652380Y-88830952D01*
X215604761Y-88926190D01*
X215557142Y-88973809D01*
X215461904Y-89021428D01*
X215176190Y-89021428D01*
X215080952Y-88973809D01*
X215033333Y-88926190D01*
X214985714Y-88830952D01*
X214985714Y-88640476D01*
X215033333Y-88545238D01*
X215652380Y-87688095D02*
X215128571Y-87688095D01*
X215033333Y-87735714D01*
X214985714Y-87830952D01*
X214985714Y-88021428D01*
X215033333Y-88116666D01*
X215604761Y-87688095D02*
X215652380Y-87783333D01*
X215652380Y-88021428D01*
X215604761Y-88116666D01*
X215509523Y-88164285D01*
X215414285Y-88164285D01*
X215319047Y-88116666D01*
X215271428Y-88021428D01*
X215271428Y-87783333D01*
X215223809Y-87688095D01*
X214985714Y-87211904D02*
X215652380Y-87211904D01*
X215080952Y-87211904D02*
X215033333Y-87164285D01*
X214985714Y-87069047D01*
X214985714Y-86926190D01*
X215033333Y-86830952D01*
X215128571Y-86783333D01*
X215652380Y-86783333D01*
X214652380Y-85688095D02*
X215652380Y-85354761D01*
X214652380Y-85021428D01*
X215652380Y-84164285D02*
X215652380Y-84735714D01*
X215652380Y-84450000D02*
X214652380Y-84450000D01*
X214795238Y-84545238D01*
X214890476Y-84640476D01*
X214938095Y-84735714D01*
X215557142Y-83735714D02*
X215604761Y-83688095D01*
X215652380Y-83735714D01*
X215604761Y-83783333D01*
X215557142Y-83735714D01*
X215652380Y-83735714D01*
X214652380Y-83069047D02*
X214652380Y-82973809D01*
X214700000Y-82878571D01*
X214747619Y-82830952D01*
X214842857Y-82783333D01*
X215033333Y-82735714D01*
X215271428Y-82735714D01*
X215461904Y-82783333D01*
X215557142Y-82830952D01*
X215604761Y-82878571D01*
X215652380Y-82973809D01*
X215652380Y-83069047D01*
X215604761Y-83164285D01*
X215557142Y-83211904D01*
X215461904Y-83259523D01*
X215271428Y-83307142D01*
X215033333Y-83307142D01*
X214842857Y-83259523D01*
X214747619Y-83211904D01*
X214700000Y-83164285D01*
X214652380Y-83069047D01*
X214747619Y-82354761D02*
X214700000Y-82307142D01*
X214652380Y-82211904D01*
X214652380Y-81973809D01*
X214700000Y-81878571D01*
X214747619Y-81830952D01*
X214842857Y-81783333D01*
X214938095Y-81783333D01*
X215080952Y-81830952D01*
X215652380Y-82402380D01*
X215652380Y-81783333D01*
X222738095Y-99000000D02*
X222642857Y-98952380D01*
X222500000Y-98952380D01*
X222357142Y-99000000D01*
X222261904Y-99095238D01*
X222214285Y-99190476D01*
X222166666Y-99380952D01*
X222166666Y-99523809D01*
X222214285Y-99714285D01*
X222261904Y-99809523D01*
X222357142Y-99904761D01*
X222500000Y-99952380D01*
X222595238Y-99952380D01*
X222738095Y-99904761D01*
X222785714Y-99857142D01*
X222785714Y-99523809D01*
X222595238Y-99523809D01*
X223214285Y-99952380D02*
X223214285Y-98952380D01*
X223785714Y-99952380D01*
X223785714Y-98952380D01*
X224261904Y-99952380D02*
X224261904Y-98952380D01*
X224500000Y-98952380D01*
X224642857Y-99000000D01*
X224738095Y-99095238D01*
X224785714Y-99190476D01*
X224833333Y-99380952D01*
X224833333Y-99523809D01*
X224785714Y-99714285D01*
X224738095Y-99809523D01*
X224642857Y-99904761D01*
X224500000Y-99952380D01*
X224261904Y-99952380D01*
X207600000Y-99952380D02*
X207600000Y-98952380D01*
X208266666Y-98952380D02*
X208457142Y-98952380D01*
X208552380Y-99000000D01*
X208647619Y-99095238D01*
X208695238Y-99285714D01*
X208695238Y-99619047D01*
X208647619Y-99809523D01*
X208552380Y-99904761D01*
X208457142Y-99952380D01*
X208266666Y-99952380D01*
X208171428Y-99904761D01*
X208076190Y-99809523D01*
X208028571Y-99619047D01*
X208028571Y-99285714D01*
X208076190Y-99095238D01*
X208171428Y-99000000D01*
X208266666Y-98952380D01*
X209647619Y-99952380D02*
X209076190Y-99952380D01*
X209361904Y-99952380D02*
X209361904Y-98952380D01*
X209266666Y-99095238D01*
X209171428Y-99190476D01*
X209076190Y-99238095D01*
X212600000Y-99952380D02*
X212600000Y-98952380D01*
X213266666Y-98952380D02*
X213457142Y-98952380D01*
X213552380Y-99000000D01*
X213647619Y-99095238D01*
X213695238Y-99285714D01*
X213695238Y-99619047D01*
X213647619Y-99809523D01*
X213552380Y-99904761D01*
X213457142Y-99952380D01*
X213266666Y-99952380D01*
X213171428Y-99904761D01*
X213076190Y-99809523D01*
X213028571Y-99619047D01*
X213028571Y-99285714D01*
X213076190Y-99095238D01*
X213171428Y-99000000D01*
X213266666Y-98952380D01*
X214076190Y-99047619D02*
X214123809Y-99000000D01*
X214219047Y-98952380D01*
X214457142Y-98952380D01*
X214552380Y-99000000D01*
X214600000Y-99047619D01*
X214647619Y-99142857D01*
X214647619Y-99238095D01*
X214600000Y-99380952D01*
X214028571Y-99952380D01*
X214647619Y-99952380D01*
X217738095Y-98952380D02*
X217738095Y-99761904D01*
X217785714Y-99857142D01*
X217833333Y-99904761D01*
X217928571Y-99952380D01*
X218119047Y-99952380D01*
X218214285Y-99904761D01*
X218261904Y-99857142D01*
X218309523Y-99761904D01*
X218309523Y-98952380D01*
X218690476Y-98952380D02*
X219357142Y-98952380D01*
X218690476Y-99952380D01*
X219357142Y-99952380D01*
X202333333Y-99857142D02*
X202285714Y-99904761D01*
X202142857Y-99952380D01*
X202047619Y-99952380D01*
X201904761Y-99904761D01*
X201809523Y-99809523D01*
X201761904Y-99714285D01*
X201714285Y-99523809D01*
X201714285Y-99380952D01*
X201761904Y-99190476D01*
X201809523Y-99095238D01*
X201904761Y-99000000D01*
X202047619Y-98952380D01*
X202142857Y-98952380D01*
X202285714Y-99000000D01*
X202333333Y-99047619D01*
X202714285Y-99666666D02*
X203190476Y-99666666D01*
X202619047Y-99952380D02*
X202952380Y-98952380D01*
X203285714Y-99952380D01*
X203619047Y-99952380D02*
X203619047Y-98952380D01*
X204190476Y-99952380D01*
X204190476Y-98952380D01*
X204666666Y-99952380D02*
X204666666Y-98952380D01*
X204666666Y-99428571D02*
X205238095Y-99428571D01*
X205238095Y-99952380D02*
X205238095Y-98952380D01*
X197452380Y-99807142D02*
X197404761Y-99854761D01*
X197261904Y-99902380D01*
X197166666Y-99902380D01*
X197023809Y-99854761D01*
X196928571Y-99759523D01*
X196880952Y-99664285D01*
X196833333Y-99473809D01*
X196833333Y-99330952D01*
X196880952Y-99140476D01*
X196928571Y-99045238D01*
X197023809Y-98950000D01*
X197166666Y-98902380D01*
X197261904Y-98902380D01*
X197404761Y-98950000D01*
X197452380Y-98997619D01*
X197833333Y-99616666D02*
X198309523Y-99616666D01*
X197738095Y-99902380D02*
X198071428Y-98902380D01*
X198404761Y-99902380D01*
X198738095Y-99902380D02*
X198738095Y-98902380D01*
X199309523Y-99902380D01*
X199309523Y-98902380D01*
X200261904Y-99902380D02*
X199785714Y-99902380D01*
X199785714Y-98902380D01*
D11*
X221750000Y-91100000D02*
X221750000Y-85700000D01*
X225050000Y-91100000D02*
X225050000Y-85700000D01*
X221750000Y-91100000D02*
X225050000Y-91100000D01*
X221750000Y-83350000D02*
X225050000Y-83350000D01*
X225050000Y-83350000D02*
X225050000Y-77950000D01*
X221750000Y-83350000D02*
X221750000Y-77950000D01*
X206570000Y-96210000D02*
X206570000Y-94750000D01*
X209730000Y-96210000D02*
X209730000Y-94050000D01*
X209730000Y-96210000D02*
X208800000Y-96210000D01*
X206570000Y-96210000D02*
X207500000Y-96210000D01*
X224772500Y-97010000D02*
X224772500Y-95310000D01*
X224772500Y-91490000D02*
X224772500Y-93190000D01*
X220316937Y-91490000D02*
X224772500Y-91490000D01*
X220316937Y-97010000D02*
X224772500Y-97010000D01*
X219252500Y-95945563D02*
X219252500Y-95310000D01*
X219252500Y-92554437D02*
X219252500Y-93190000D01*
X219252500Y-92554437D02*
X220316937Y-91490000D01*
X219252500Y-95945563D02*
X220316937Y-97010000D01*
X220910000Y-81647369D02*
X220910000Y-80052631D01*
X216490000Y-81647369D02*
X216490000Y-80052631D01*
X218040000Y-87900000D02*
X218040000Y-90850000D01*
X221260000Y-89700000D02*
X221260000Y-87900000D01*
X196520000Y-76510000D02*
X197850000Y-76510000D01*
X196520000Y-77840000D02*
X196520000Y-76510000D01*
X199120000Y-76510000D02*
X201720000Y-76510000D01*
X199120000Y-79110000D02*
X199120000Y-76510000D01*
X196520000Y-79110000D02*
X199120000Y-79110000D01*
X201720000Y-76510000D02*
X201720000Y-89330000D01*
X196520000Y-79110000D02*
X196520000Y-89330000D01*
X196520000Y-89330000D02*
X201720000Y-89330000D01*
X212410000Y-81275000D02*
X206010000Y-81275000D01*
X212410000Y-76225000D02*
X206010000Y-76225000D01*
X206010000Y-76225000D02*
G75*
G03*
X206010000Y-81275000I0J-2525000D01*
G01*
X212410000Y-76225000D02*
G75*
G02*
X212410000Y-81275000I0J-2525000D01*
G01*
X202670000Y-96210000D02*
X203600000Y-96210000D01*
X205830000Y-96210000D02*
X204900000Y-96210000D01*
X205830000Y-96210000D02*
X205830000Y-94050000D01*
X202670000Y-96210000D02*
X202670000Y-94750000D01*
X205230000Y-102950000D02*
G75*
G03*
X205230000Y-102950000I-1680000J0D01*
G01*
X210230000Y-102950000D02*
G75*
G03*
X210230000Y-102950000I-1680000J0D01*
G01*
X215230000Y-102950000D02*
G75*
G03*
X215230000Y-102950000I-1680000J0D01*
G01*
X220230000Y-102950000D02*
G75*
G03*
X220230000Y-102950000I-1680000J0D01*
G01*
X225230000Y-102950000D02*
G75*
G03*
X225230000Y-102950000I-1680000J0D01*
G01*
X195990000Y-107050000D02*
X226110000Y-107050000D01*
X195990000Y-105550000D02*
X226110000Y-105550000D01*
X195990000Y-100649000D02*
X226110000Y-100649000D01*
X195990000Y-97689000D02*
X226110000Y-97689000D01*
X195990000Y-107610000D02*
X226110000Y-107610000D01*
X195990000Y-97689000D02*
X195990000Y-107610000D01*
X226110000Y-97689000D02*
X226110000Y-107610000D01*
X204825000Y-101881000D02*
X204778000Y-101927000D01*
X202516000Y-104189000D02*
X202481000Y-104224000D01*
X204620000Y-101675000D02*
X204585000Y-101711000D01*
X202323000Y-103973000D02*
X202276000Y-104019000D01*
X209825000Y-101881000D02*
X209778000Y-101927000D01*
X207516000Y-104189000D02*
X207481000Y-104224000D01*
X209620000Y-101675000D02*
X209585000Y-101711000D01*
X207323000Y-103973000D02*
X207276000Y-104019000D01*
X214825000Y-101881000D02*
X214778000Y-101927000D01*
X212516000Y-104189000D02*
X212481000Y-104224000D01*
X214620000Y-101675000D02*
X214585000Y-101711000D01*
X212323000Y-103973000D02*
X212276000Y-104019000D01*
X219825000Y-101881000D02*
X219778000Y-101927000D01*
X217516000Y-104189000D02*
X217481000Y-104224000D01*
X219620000Y-101675000D02*
X219585000Y-101711000D01*
X217323000Y-103973000D02*
X217276000Y-104019000D01*
X224825000Y-101881000D02*
X224778000Y-101927000D01*
X222516000Y-104189000D02*
X222481000Y-104224000D01*
X224620000Y-101675000D02*
X224585000Y-101711000D01*
X222323000Y-103973000D02*
X222276000Y-104019000D01*
X195750000Y-107110000D02*
X195750000Y-107850000D01*
X195750000Y-107850000D02*
X196250000Y-107850000D01*
X198578805Y-104630253D02*
G75*
G02*
X197866000Y-104485000I-28805J1680253D01*
G01*
X197014574Y-103633042D02*
G75*
G02*
X197015000Y-102266000I1535426J683042D01*
G01*
X197866958Y-101414574D02*
G75*
G02*
X199234000Y-101415000I683042J-1535426D01*
G01*
X200085426Y-102266958D02*
G75*
G02*
X200085000Y-103634000I-1535426J-683042D01*
G01*
X199233318Y-104484756D02*
G75*
G02*
X198550000Y-104630000I-683318J1534756D01*
G01*
X196940000Y-93525000D02*
X196940000Y-95475000D01*
X196940000Y-93525000D02*
X196940000Y-91575000D01*
X202060000Y-93525000D02*
X202060000Y-95475000D01*
X202060000Y-93525000D02*
X202060000Y-90075000D01*
X205490000Y-90560000D02*
X205490000Y-90860000D01*
X205490000Y-90860000D02*
X205790000Y-90860000D01*
X205490000Y-83940000D02*
X205490000Y-83640000D01*
X205490000Y-83640000D02*
X205790000Y-83640000D01*
X212710000Y-90560000D02*
X212710000Y-90860000D01*
X212710000Y-90860000D02*
X212410000Y-90860000D01*
X212710000Y-83940000D02*
X212710000Y-83640000D01*
X212710000Y-83640000D02*
X212410000Y-83640000D01*
X212410000Y-83640000D02*
X212410000Y-82325000D01*
X217700000Y-97100000D02*
X212000000Y-97100000D01*
X217700000Y-92800000D02*
X212000000Y-92800000D01*
X217700000Y-97100000D02*
X217700000Y-92800000D01*
D12*
X222157142Y-88202380D02*
X222157142Y-87202380D01*
X222395238Y-87202380D01*
X222538095Y-87250000D01*
X222633333Y-87345238D01*
X222680952Y-87440476D01*
X222728571Y-87630952D01*
X222728571Y-87773809D01*
X222680952Y-87964285D01*
X222633333Y-88059523D01*
X222538095Y-88154761D01*
X222395238Y-88202380D01*
X222157142Y-88202380D01*
X223109523Y-88154761D02*
X223204761Y-88202380D01*
X223395238Y-88202380D01*
X223490476Y-88154761D01*
X223538095Y-88059523D01*
X223538095Y-88011904D01*
X223490476Y-87916666D01*
X223395238Y-87869047D01*
X223252380Y-87869047D01*
X223157142Y-87821428D01*
X223109523Y-87726190D01*
X223109523Y-87678571D01*
X223157142Y-87583333D01*
X223252380Y-87535714D01*
X223395238Y-87535714D01*
X223490476Y-87583333D01*
X223919047Y-87297619D02*
X223966666Y-87250000D01*
X224061904Y-87202380D01*
X224300000Y-87202380D01*
X224395238Y-87250000D01*
X224442857Y-87297619D01*
X224490476Y-87392857D01*
X224490476Y-87488095D01*
X224442857Y-87630952D01*
X223871428Y-88202380D01*
X224490476Y-88202380D01*
X222207142Y-80402380D02*
X222207142Y-79402380D01*
X222445238Y-79402380D01*
X222588095Y-79450000D01*
X222683333Y-79545238D01*
X222730952Y-79640476D01*
X222778571Y-79830952D01*
X222778571Y-79973809D01*
X222730952Y-80164285D01*
X222683333Y-80259523D01*
X222588095Y-80354761D01*
X222445238Y-80402380D01*
X222207142Y-80402380D01*
X223159523Y-80354761D02*
X223254761Y-80402380D01*
X223445238Y-80402380D01*
X223540476Y-80354761D01*
X223588095Y-80259523D01*
X223588095Y-80211904D01*
X223540476Y-80116666D01*
X223445238Y-80069047D01*
X223302380Y-80069047D01*
X223207142Y-80021428D01*
X223159523Y-79926190D01*
X223159523Y-79878571D01*
X223207142Y-79783333D01*
X223302380Y-79735714D01*
X223445238Y-79735714D01*
X223540476Y-79783333D01*
X223921428Y-79402380D02*
X224540476Y-79402380D01*
X224207142Y-79783333D01*
X224350000Y-79783333D01*
X224445238Y-79830952D01*
X224492857Y-79878571D01*
X224540476Y-79973809D01*
X224540476Y-80211904D01*
X224492857Y-80307142D01*
X224445238Y-80354761D01*
X224350000Y-80402380D01*
X224064285Y-80402380D01*
X223969047Y-80354761D01*
X223921428Y-80307142D01*
X221528571Y-96507142D02*
X221480952Y-96554761D01*
X221338095Y-96602380D01*
X221242857Y-96602380D01*
X221100000Y-96554761D01*
X221004761Y-96459523D01*
X220957142Y-96364285D01*
X220909523Y-96173809D01*
X220909523Y-96030952D01*
X220957142Y-95840476D01*
X221004761Y-95745238D01*
X221100000Y-95650000D01*
X221242857Y-95602380D01*
X221338095Y-95602380D01*
X221480952Y-95650000D01*
X221528571Y-95697619D01*
X221909523Y-96554761D02*
X222004761Y-96602380D01*
X222195238Y-96602380D01*
X222290476Y-96554761D01*
X222338095Y-96459523D01*
X222338095Y-96411904D01*
X222290476Y-96316666D01*
X222195238Y-96269047D01*
X222052380Y-96269047D01*
X221957142Y-96221428D01*
X221909523Y-96126190D01*
X221909523Y-96078571D01*
X221957142Y-95983333D01*
X222052380Y-95935714D01*
X222195238Y-95935714D01*
X222290476Y-95983333D01*
X223290476Y-96602380D02*
X222719047Y-96602380D01*
X223004761Y-96602380D02*
X223004761Y-95602380D01*
X222909523Y-95745238D01*
X222814285Y-95840476D01*
X222719047Y-95888095D01*
X218278571Y-81302380D02*
X217802380Y-81302380D01*
X217802380Y-80302380D01*
X218564285Y-81254761D02*
X218659523Y-81302380D01*
X218850000Y-81302380D01*
X218945238Y-81254761D01*
X218992857Y-81159523D01*
X218992857Y-81111904D01*
X218945238Y-81016666D01*
X218850000Y-80969047D01*
X218707142Y-80969047D01*
X218611904Y-80921428D01*
X218564285Y-80826190D01*
X218564285Y-80778571D01*
X218611904Y-80683333D01*
X218707142Y-80635714D01*
X218850000Y-80635714D01*
X218945238Y-80683333D01*
X219945238Y-81302380D02*
X219373809Y-81302380D01*
X219659523Y-81302380D02*
X219659523Y-80302380D01*
X219564285Y-80445238D01*
X219469047Y-80540476D01*
X219373809Y-80588095D01*
X217552380Y-91840476D02*
X216552380Y-91840476D01*
X217266666Y-91507142D01*
X216552380Y-91173809D01*
X217552380Y-91173809D01*
X217028571Y-90697619D02*
X217028571Y-90364285D01*
X217552380Y-90221428D02*
X217552380Y-90697619D01*
X216552380Y-90697619D01*
X216552380Y-90221428D01*
X216552380Y-89888095D02*
X216552380Y-89269047D01*
X216933333Y-89602380D01*
X216933333Y-89459523D01*
X216980952Y-89364285D01*
X217028571Y-89316666D01*
X217123809Y-89269047D01*
X217361904Y-89269047D01*
X217457142Y-89316666D01*
X217504761Y-89364285D01*
X217552380Y-89459523D01*
X217552380Y-89745238D01*
X217504761Y-89840476D01*
X217457142Y-89888095D01*
X217552380Y-88316666D02*
X217552380Y-88888095D01*
X217552380Y-88602380D02*
X216552380Y-88602380D01*
X216695238Y-88697619D01*
X216790476Y-88792857D01*
X216838095Y-88888095D01*
X217552380Y-87364285D02*
X217552380Y-87935714D01*
X217552380Y-87650000D02*
X216552380Y-87650000D01*
X216695238Y-87745238D01*
X216790476Y-87840476D01*
X216838095Y-87935714D01*
X216552380Y-86507142D02*
X216552380Y-86697619D01*
X216600000Y-86792857D01*
X216647619Y-86840476D01*
X216790476Y-86935714D01*
X216980952Y-86983333D01*
X217361904Y-86983333D01*
X217457142Y-86935714D01*
X217504761Y-86888095D01*
X217552380Y-86792857D01*
X217552380Y-86602380D01*
X217504761Y-86507142D01*
X217457142Y-86459523D01*
X217361904Y-86411904D01*
X217123809Y-86411904D01*
X217028571Y-86459523D01*
X216980952Y-86507142D01*
X216933333Y-86602380D01*
X216933333Y-86792857D01*
X216980952Y-86888095D01*
X217028571Y-86935714D01*
X217123809Y-86983333D01*
X209004761Y-79247619D02*
X208909523Y-79200000D01*
X208814285Y-79104761D01*
X208671428Y-78961904D01*
X208576190Y-78914285D01*
X208480952Y-78914285D01*
X208528571Y-79152380D02*
X208433333Y-79104761D01*
X208338095Y-79009523D01*
X208290476Y-78819047D01*
X208290476Y-78485714D01*
X208338095Y-78295238D01*
X208433333Y-78200000D01*
X208528571Y-78152380D01*
X208719047Y-78152380D01*
X208814285Y-78200000D01*
X208909523Y-78295238D01*
X208957142Y-78485714D01*
X208957142Y-78819047D01*
X208909523Y-79009523D01*
X208814285Y-79104761D01*
X208719047Y-79152380D01*
X208528571Y-79152380D01*
X209909523Y-79152380D02*
X209338095Y-79152380D01*
X209623809Y-79152380D02*
X209623809Y-78152380D01*
X209528571Y-78295238D01*
X209433333Y-78390476D01*
X209338095Y-78438095D01*
X198788095Y-92902380D02*
X198788095Y-93711904D01*
X198835714Y-93807142D01*
X198883333Y-93854761D01*
X198978571Y-93902380D01*
X199169047Y-93902380D01*
X199264285Y-93854761D01*
X199311904Y-93807142D01*
X199359523Y-93711904D01*
X199359523Y-92902380D01*
X199788095Y-92997619D02*
X199835714Y-92950000D01*
X199930952Y-92902380D01*
X200169047Y-92902380D01*
X200264285Y-92950000D01*
X200311904Y-92997619D01*
X200359523Y-93092857D01*
X200359523Y-93188095D01*
X200311904Y-93330952D01*
X199740476Y-93902380D01*
X200359523Y-93902380D01*
X208288095Y-86935714D02*
X208288095Y-87602380D01*
X207859523Y-86935714D02*
X207859523Y-87459523D01*
X207907142Y-87554761D01*
X208002380Y-87602380D01*
X208145238Y-87602380D01*
X208240476Y-87554761D01*
X208288095Y-87507142D01*
X209335714Y-87507142D02*
X209288095Y-87554761D01*
X209145238Y-87602380D01*
X209050000Y-87602380D01*
X208907142Y-87554761D01*
X208811904Y-87459523D01*
X208764285Y-87364285D01*
X208716666Y-87173809D01*
X208716666Y-87030952D01*
X208764285Y-86840476D01*
X208811904Y-86745238D01*
X208907142Y-86650000D01*
X209050000Y-86602380D01*
X209145238Y-86602380D01*
X209288095Y-86650000D01*
X209335714Y-86697619D01*
X210288095Y-87602380D02*
X209716666Y-87602380D01*
X210002380Y-87602380D02*
X210002380Y-86602380D01*
X209907142Y-86745238D01*
X209811904Y-86840476D01*
X209716666Y-86888095D01*
X203411904Y-92030952D02*
X202611904Y-92030952D01*
X203183333Y-91764285D01*
X202611904Y-91497619D01*
X203411904Y-91497619D01*
X203335714Y-90659523D02*
X203373809Y-90697619D01*
X203411904Y-90811904D01*
X203411904Y-90888095D01*
X203373809Y-91002380D01*
X203297619Y-91078571D01*
X203221428Y-91116666D01*
X203069047Y-91154761D01*
X202954761Y-91154761D01*
X202802380Y-91116666D01*
X202726190Y-91078571D01*
X202650000Y-91002380D01*
X202611904Y-90888095D01*
X202611904Y-90811904D01*
X202650000Y-90697619D01*
X202688095Y-90659523D01*
X203411904Y-90278571D02*
X203411904Y-90126190D01*
X203373809Y-90050000D01*
X203335714Y-90011904D01*
X203221428Y-89935714D01*
X203069047Y-89897619D01*
X202764285Y-89897619D01*
X202688095Y-89935714D01*
X202650000Y-89973809D01*
X202611904Y-90050000D01*
X202611904Y-90202380D01*
X202650000Y-90278571D01*
X202688095Y-90316666D01*
X202764285Y-90354761D01*
X202954761Y-90354761D01*
X203030952Y-90316666D01*
X203069047Y-90278571D01*
X203107142Y-90202380D01*
X203107142Y-90050000D01*
X203069047Y-89973809D01*
X203030952Y-89935714D01*
X202954761Y-89897619D01*
X203373809Y-89592857D02*
X203411904Y-89478571D01*
X203411904Y-89288095D01*
X203373809Y-89211904D01*
X203335714Y-89173809D01*
X203259523Y-89135714D01*
X203183333Y-89135714D01*
X203107142Y-89173809D01*
X203069047Y-89211904D01*
X203030952Y-89288095D01*
X202992857Y-89440476D01*
X202954761Y-89516666D01*
X202916666Y-89554761D01*
X202840476Y-89592857D01*
X202764285Y-89592857D01*
X202688095Y-89554761D01*
X202650000Y-89516666D01*
X202611904Y-89440476D01*
X202611904Y-89250000D01*
X202650000Y-89135714D01*
X202611904Y-88640476D02*
X202611904Y-88564285D01*
X202650000Y-88488095D01*
X202688095Y-88450000D01*
X202764285Y-88411904D01*
X202916666Y-88373809D01*
X203107142Y-88373809D01*
X203259523Y-88411904D01*
X203335714Y-88450000D01*
X203373809Y-88488095D01*
X203411904Y-88564285D01*
X203411904Y-88640476D01*
X203373809Y-88716666D01*
X203335714Y-88754761D01*
X203259523Y-88792857D01*
X203107142Y-88830952D01*
X202916666Y-88830952D01*
X202764285Y-88792857D01*
X202688095Y-88754761D01*
X202650000Y-88716666D01*
X202611904Y-88640476D01*
X202954761Y-87916666D02*
X202916666Y-87992857D01*
X202878571Y-88030952D01*
X202802380Y-88069047D01*
X202764285Y-88069047D01*
X202688095Y-88030952D01*
X202650000Y-87992857D01*
X202611904Y-87916666D01*
X202611904Y-87764285D01*
X202650000Y-87688095D01*
X202688095Y-87650000D01*
X202764285Y-87611904D01*
X202802380Y-87611904D01*
X202878571Y-87650000D01*
X202916666Y-87688095D01*
X202954761Y-87764285D01*
X202954761Y-87916666D01*
X202992857Y-87992857D01*
X203030952Y-88030952D01*
X203107142Y-88069047D01*
X203259523Y-88069047D01*
X203335714Y-88030952D01*
X203373809Y-87992857D01*
X203411904Y-87916666D01*
X203411904Y-87764285D01*
X203373809Y-87688095D01*
X203335714Y-87650000D01*
X203259523Y-87611904D01*
X203107142Y-87611904D01*
X203030952Y-87650000D01*
X202992857Y-87688095D01*
X202954761Y-87764285D01*
X203411904Y-87269047D02*
X202611904Y-87269047D01*
X202611904Y-87078571D01*
X202650000Y-86964285D01*
X202726190Y-86888095D01*
X202802380Y-86850000D01*
X202954761Y-86811904D01*
X203069047Y-86811904D01*
X203221428Y-86850000D01*
X203297619Y-86888095D01*
X203373809Y-86964285D01*
X203411904Y-87078571D01*
X203411904Y-87269047D01*
X202611904Y-86545238D02*
X202611904Y-86011904D01*
X203411904Y-86545238D01*
X203411904Y-86011904D01*
X202611904Y-85364285D02*
X202611904Y-85516666D01*
X202650000Y-85592857D01*
X202688095Y-85630952D01*
X202802380Y-85707142D01*
X202954761Y-85745238D01*
X203259523Y-85745238D01*
X203335714Y-85707142D01*
X203373809Y-85669047D01*
X203411904Y-85592857D01*
X203411904Y-85440476D01*
X203373809Y-85364285D01*
X203335714Y-85326190D01*
X203259523Y-85288095D01*
X203069047Y-85288095D01*
X202992857Y-85326190D01*
X202954761Y-85364285D01*
X202916666Y-85440476D01*
X202916666Y-85592857D01*
X202954761Y-85669047D01*
X202992857Y-85707142D01*
X203069047Y-85745238D01*
X202611904Y-84792857D02*
X202611904Y-84716666D01*
X202650000Y-84640476D01*
X202688095Y-84602380D01*
X202764285Y-84564285D01*
X202916666Y-84526190D01*
X203107142Y-84526190D01*
X203259523Y-84564285D01*
X203335714Y-84602380D01*
X203373809Y-84640476D01*
X203411904Y-84716666D01*
X203411904Y-84792857D01*
X203373809Y-84869047D01*
X203335714Y-84907142D01*
X203259523Y-84945238D01*
X203107142Y-84983333D01*
X202916666Y-84983333D01*
X202764285Y-84945238D01*
X202688095Y-84907142D01*
X202650000Y-84869047D01*
X202611904Y-84792857D01*
X203411904Y-84259523D02*
X202878571Y-83840476D01*
X202878571Y-84259523D02*
X203411904Y-83840476D01*
X203411904Y-83154761D02*
X203411904Y-83535714D01*
X202611904Y-83535714D01*
X203335714Y-82430952D02*
X203373809Y-82469047D01*
X203411904Y-82583333D01*
X203411904Y-82659523D01*
X203373809Y-82773809D01*
X203297619Y-82850000D01*
X203221428Y-82888095D01*
X203069047Y-82926190D01*
X202954761Y-82926190D01*
X202802380Y-82888095D01*
X202726190Y-82850000D01*
X202650000Y-82773809D01*
X202611904Y-82659523D01*
X202611904Y-82583333D01*
X202650000Y-82469047D01*
X202688095Y-82430952D01*
X214602380Y-96092857D02*
X213602380Y-96092857D01*
X213602380Y-95854761D01*
X213650000Y-95711904D01*
X213745238Y-95616666D01*
X213840476Y-95569047D01*
X214030952Y-95521428D01*
X214173809Y-95521428D01*
X214364285Y-95569047D01*
X214459523Y-95616666D01*
X214554761Y-95711904D01*
X214602380Y-95854761D01*
X214602380Y-96092857D01*
X214554761Y-95140476D02*
X214602380Y-95045238D01*
X214602380Y-94854761D01*
X214554761Y-94759523D01*
X214459523Y-94711904D01*
X214411904Y-94711904D01*
X214316666Y-94759523D01*
X214269047Y-94854761D01*
X214269047Y-94997619D01*
X214221428Y-95092857D01*
X214126190Y-95140476D01*
X214078571Y-95140476D01*
X213983333Y-95092857D01*
X213935714Y-94997619D01*
X213935714Y-94854761D01*
X213983333Y-94759523D01*
X214602380Y-93759523D02*
X214602380Y-94330952D01*
X214602380Y-94045238D02*
X213602380Y-94045238D01*
X213745238Y-94140476D01*
X213840476Y-94235714D01*
X213888095Y-94330952D01*
M02*
