G04 #@! TF.GenerationSoftware,KiCad,Pcbnew,5.1.6-c6e7f7d~86~ubuntu18.04.1*
G04 #@! TF.CreationDate,2020-06-11T15:17:01+02:00*
G04 #@! TF.ProjectId,sci2can,73636932-6361-46e2-9e6b-696361645f70,1.02*
G04 #@! TF.SameCoordinates,Original*
G04 #@! TF.FileFunction,Copper,L1,Top*
G04 #@! TF.FilePolarity,Positive*
%FSLAX46Y46*%
G04 Gerber Fmt 4.6, Leading zero omitted, Abs format (unit mm)*
G04 Created by KiCad (PCBNEW 5.1.6-c6e7f7d~86~ubuntu18.04.1) date 2020-06-11 15:17:01*
%MOMM*%
%LPD*%
G01*
G04 APERTURE LIST*
G04 #@! TA.AperFunction,SMDPad,CuDef*
%ADD10R,1.800000X2.500000*%
G04 #@! TD*
G04 #@! TA.AperFunction,SMDPad,CuDef*
%ADD11R,0.800000X0.900000*%
G04 #@! TD*
G04 #@! TA.AperFunction,SMDPad,CuDef*
%ADD12R,0.650000X1.560000*%
G04 #@! TD*
G04 #@! TA.AperFunction,ComponentPad*
%ADD13O,1.700000X1.700000*%
G04 #@! TD*
G04 #@! TA.AperFunction,ComponentPad*
%ADD14R,1.700000X1.700000*%
G04 #@! TD*
G04 #@! TA.AperFunction,ComponentPad*
%ADD15C,1.500000*%
G04 #@! TD*
G04 #@! TA.AperFunction,ComponentPad*
%ADD16C,2.600000*%
G04 #@! TD*
G04 #@! TA.AperFunction,ComponentPad*
%ADD17R,2.600000X2.600000*%
G04 #@! TD*
G04 #@! TA.AperFunction,SMDPad,CuDef*
%ADD18R,2.500000X2.300000*%
G04 #@! TD*
G04 #@! TA.AperFunction,ViaPad*
%ADD19C,0.800000*%
G04 #@! TD*
G04 #@! TA.AperFunction,Conductor*
%ADD20C,0.250000*%
G04 #@! TD*
G04 #@! TA.AperFunction,Conductor*
%ADD21C,0.400000*%
G04 #@! TD*
G04 #@! TA.AperFunction,Conductor*
%ADD22C,0.500000*%
G04 #@! TD*
G04 #@! TA.AperFunction,Conductor*
%ADD23C,1.500000*%
G04 #@! TD*
G04 #@! TA.AperFunction,Conductor*
%ADD24C,0.800000*%
G04 #@! TD*
G04 #@! TA.AperFunction,Conductor*
%ADD25C,0.700000*%
G04 #@! TD*
G04 #@! TA.AperFunction,Conductor*
%ADD26C,1.000000*%
G04 #@! TD*
G04 #@! TA.AperFunction,Conductor*
%ADD27C,0.254000*%
G04 #@! TD*
G04 APERTURE END LIST*
D10*
X223400000Y-85700000D03*
X223400000Y-89700000D03*
X223400000Y-77950000D03*
X223400000Y-81950000D03*
D11*
X208150000Y-96450000D03*
X207200000Y-94450000D03*
X209100000Y-94450000D03*
G04 #@! TA.AperFunction,SMDPad,CuDef*
G36*
G01*
X222687500Y-94800000D02*
X222687500Y-93700000D01*
G75*
G02*
X222937500Y-93450000I250000J0D01*
G01*
X225212500Y-93450000D01*
G75*
G02*
X225462500Y-93700000I0J-250000D01*
G01*
X225462500Y-94800000D01*
G75*
G02*
X225212500Y-95050000I-250000J0D01*
G01*
X222937500Y-95050000D01*
G75*
G02*
X222687500Y-94800000I0J250000D01*
G01*
G37*
G04 #@! TD.AperFunction*
G04 #@! TA.AperFunction,SMDPad,CuDef*
G36*
G01*
X218562500Y-94800000D02*
X218562500Y-93700000D01*
G75*
G02*
X218812500Y-93450000I250000J0D01*
G01*
X221087500Y-93450000D01*
G75*
G02*
X221337500Y-93700000I0J-250000D01*
G01*
X221337500Y-94800000D01*
G75*
G02*
X221087500Y-95050000I-250000J0D01*
G01*
X218812500Y-95050000D01*
G75*
G02*
X218562500Y-94800000I0J250000D01*
G01*
G37*
G04 #@! TD.AperFunction*
G04 #@! TA.AperFunction,SMDPad,CuDef*
G36*
G01*
X220675000Y-79850000D02*
X216725000Y-79850000D01*
G75*
G02*
X216475000Y-79600000I0J250000D01*
G01*
X216475000Y-76900000D01*
G75*
G02*
X216725000Y-76650000I250000J0D01*
G01*
X220675000Y-76650000D01*
G75*
G02*
X220925000Y-76900000I0J-250000D01*
G01*
X220925000Y-79600000D01*
G75*
G02*
X220675000Y-79850000I-250000J0D01*
G01*
G37*
G04 #@! TD.AperFunction*
G04 #@! TA.AperFunction,SMDPad,CuDef*
G36*
G01*
X220675000Y-85050000D02*
X216725000Y-85050000D01*
G75*
G02*
X216475000Y-84800000I0J250000D01*
G01*
X216475000Y-82100000D01*
G75*
G02*
X216725000Y-81850000I250000J0D01*
G01*
X220675000Y-81850000D01*
G75*
G02*
X220925000Y-82100000I0J-250000D01*
G01*
X220925000Y-84800000D01*
G75*
G02*
X220675000Y-85050000I-250000J0D01*
G01*
G37*
G04 #@! TD.AperFunction*
D12*
X219650000Y-87450000D03*
X218700000Y-87450000D03*
X220600000Y-87450000D03*
X220600000Y-90150000D03*
X219650000Y-90150000D03*
X218700000Y-90150000D03*
D13*
X200390000Y-88000000D03*
X197850000Y-88000000D03*
X200390000Y-85460000D03*
X197850000Y-85460000D03*
X200390000Y-82920000D03*
X197850000Y-82920000D03*
X200390000Y-80380000D03*
X197850000Y-80380000D03*
X200390000Y-77840000D03*
D14*
X197850000Y-77840000D03*
D15*
X206770000Y-78750000D03*
X211650000Y-78750000D03*
D11*
X204250000Y-96450000D03*
X203300000Y-94450000D03*
X205200000Y-94450000D03*
D16*
X223550000Y-102950000D03*
X218550000Y-102950000D03*
X213550000Y-102950000D03*
X208550000Y-102950000D03*
X203550000Y-102950000D03*
D17*
X198550000Y-102950000D03*
G04 #@! TA.AperFunction,SMDPad,CuDef*
G36*
G01*
X201255000Y-95025000D02*
X201555000Y-95025000D01*
G75*
G02*
X201705000Y-95175000I0J-150000D01*
G01*
X201705000Y-96825000D01*
G75*
G02*
X201555000Y-96975000I-150000J0D01*
G01*
X201255000Y-96975000D01*
G75*
G02*
X201105000Y-96825000I0J150000D01*
G01*
X201105000Y-95175000D01*
G75*
G02*
X201255000Y-95025000I150000J0D01*
G01*
G37*
G04 #@! TD.AperFunction*
G04 #@! TA.AperFunction,SMDPad,CuDef*
G36*
G01*
X199985000Y-95025000D02*
X200285000Y-95025000D01*
G75*
G02*
X200435000Y-95175000I0J-150000D01*
G01*
X200435000Y-96825000D01*
G75*
G02*
X200285000Y-96975000I-150000J0D01*
G01*
X199985000Y-96975000D01*
G75*
G02*
X199835000Y-96825000I0J150000D01*
G01*
X199835000Y-95175000D01*
G75*
G02*
X199985000Y-95025000I150000J0D01*
G01*
G37*
G04 #@! TD.AperFunction*
G04 #@! TA.AperFunction,SMDPad,CuDef*
G36*
G01*
X198715000Y-95025000D02*
X199015000Y-95025000D01*
G75*
G02*
X199165000Y-95175000I0J-150000D01*
G01*
X199165000Y-96825000D01*
G75*
G02*
X199015000Y-96975000I-150000J0D01*
G01*
X198715000Y-96975000D01*
G75*
G02*
X198565000Y-96825000I0J150000D01*
G01*
X198565000Y-95175000D01*
G75*
G02*
X198715000Y-95025000I150000J0D01*
G01*
G37*
G04 #@! TD.AperFunction*
G04 #@! TA.AperFunction,SMDPad,CuDef*
G36*
G01*
X197445000Y-95025000D02*
X197745000Y-95025000D01*
G75*
G02*
X197895000Y-95175000I0J-150000D01*
G01*
X197895000Y-96825000D01*
G75*
G02*
X197745000Y-96975000I-150000J0D01*
G01*
X197445000Y-96975000D01*
G75*
G02*
X197295000Y-96825000I0J150000D01*
G01*
X197295000Y-95175000D01*
G75*
G02*
X197445000Y-95025000I150000J0D01*
G01*
G37*
G04 #@! TD.AperFunction*
G04 #@! TA.AperFunction,SMDPad,CuDef*
G36*
G01*
X197445000Y-90075000D02*
X197745000Y-90075000D01*
G75*
G02*
X197895000Y-90225000I0J-150000D01*
G01*
X197895000Y-91875000D01*
G75*
G02*
X197745000Y-92025000I-150000J0D01*
G01*
X197445000Y-92025000D01*
G75*
G02*
X197295000Y-91875000I0J150000D01*
G01*
X197295000Y-90225000D01*
G75*
G02*
X197445000Y-90075000I150000J0D01*
G01*
G37*
G04 #@! TD.AperFunction*
G04 #@! TA.AperFunction,SMDPad,CuDef*
G36*
G01*
X198715000Y-90075000D02*
X199015000Y-90075000D01*
G75*
G02*
X199165000Y-90225000I0J-150000D01*
G01*
X199165000Y-91875000D01*
G75*
G02*
X199015000Y-92025000I-150000J0D01*
G01*
X198715000Y-92025000D01*
G75*
G02*
X198565000Y-91875000I0J150000D01*
G01*
X198565000Y-90225000D01*
G75*
G02*
X198715000Y-90075000I150000J0D01*
G01*
G37*
G04 #@! TD.AperFunction*
G04 #@! TA.AperFunction,SMDPad,CuDef*
G36*
G01*
X199985000Y-90075000D02*
X200285000Y-90075000D01*
G75*
G02*
X200435000Y-90225000I0J-150000D01*
G01*
X200435000Y-91875000D01*
G75*
G02*
X200285000Y-92025000I-150000J0D01*
G01*
X199985000Y-92025000D01*
G75*
G02*
X199835000Y-91875000I0J150000D01*
G01*
X199835000Y-90225000D01*
G75*
G02*
X199985000Y-90075000I150000J0D01*
G01*
G37*
G04 #@! TD.AperFunction*
G04 #@! TA.AperFunction,SMDPad,CuDef*
G36*
G01*
X201255000Y-90075000D02*
X201555000Y-90075000D01*
G75*
G02*
X201705000Y-90225000I0J-150000D01*
G01*
X201705000Y-91875000D01*
G75*
G02*
X201555000Y-92025000I-150000J0D01*
G01*
X201255000Y-92025000D01*
G75*
G02*
X201105000Y-91875000I0J150000D01*
G01*
X201105000Y-90225000D01*
G75*
G02*
X201255000Y-90075000I150000J0D01*
G01*
G37*
G04 #@! TD.AperFunction*
G04 #@! TA.AperFunction,SMDPad,CuDef*
G36*
G01*
X212650000Y-84200000D02*
X213900000Y-84200000D01*
G75*
G02*
X214025000Y-84325000I0J-125000D01*
G01*
X214025000Y-84575000D01*
G75*
G02*
X213900000Y-84700000I-125000J0D01*
G01*
X212650000Y-84700000D01*
G75*
G02*
X212525000Y-84575000I0J125000D01*
G01*
X212525000Y-84325000D01*
G75*
G02*
X212650000Y-84200000I125000J0D01*
G01*
G37*
G04 #@! TD.AperFunction*
G04 #@! TA.AperFunction,SMDPad,CuDef*
G36*
G01*
X212650000Y-85000000D02*
X213900000Y-85000000D01*
G75*
G02*
X214025000Y-85125000I0J-125000D01*
G01*
X214025000Y-85375000D01*
G75*
G02*
X213900000Y-85500000I-125000J0D01*
G01*
X212650000Y-85500000D01*
G75*
G02*
X212525000Y-85375000I0J125000D01*
G01*
X212525000Y-85125000D01*
G75*
G02*
X212650000Y-85000000I125000J0D01*
G01*
G37*
G04 #@! TD.AperFunction*
G04 #@! TA.AperFunction,SMDPad,CuDef*
G36*
G01*
X212650000Y-85800000D02*
X213900000Y-85800000D01*
G75*
G02*
X214025000Y-85925000I0J-125000D01*
G01*
X214025000Y-86175000D01*
G75*
G02*
X213900000Y-86300000I-125000J0D01*
G01*
X212650000Y-86300000D01*
G75*
G02*
X212525000Y-86175000I0J125000D01*
G01*
X212525000Y-85925000D01*
G75*
G02*
X212650000Y-85800000I125000J0D01*
G01*
G37*
G04 #@! TD.AperFunction*
G04 #@! TA.AperFunction,SMDPad,CuDef*
G36*
G01*
X212650000Y-86600000D02*
X213900000Y-86600000D01*
G75*
G02*
X214025000Y-86725000I0J-125000D01*
G01*
X214025000Y-86975000D01*
G75*
G02*
X213900000Y-87100000I-125000J0D01*
G01*
X212650000Y-87100000D01*
G75*
G02*
X212525000Y-86975000I0J125000D01*
G01*
X212525000Y-86725000D01*
G75*
G02*
X212650000Y-86600000I125000J0D01*
G01*
G37*
G04 #@! TD.AperFunction*
G04 #@! TA.AperFunction,SMDPad,CuDef*
G36*
G01*
X212650000Y-87400000D02*
X213900000Y-87400000D01*
G75*
G02*
X214025000Y-87525000I0J-125000D01*
G01*
X214025000Y-87775000D01*
G75*
G02*
X213900000Y-87900000I-125000J0D01*
G01*
X212650000Y-87900000D01*
G75*
G02*
X212525000Y-87775000I0J125000D01*
G01*
X212525000Y-87525000D01*
G75*
G02*
X212650000Y-87400000I125000J0D01*
G01*
G37*
G04 #@! TD.AperFunction*
G04 #@! TA.AperFunction,SMDPad,CuDef*
G36*
G01*
X212650000Y-88200000D02*
X213900000Y-88200000D01*
G75*
G02*
X214025000Y-88325000I0J-125000D01*
G01*
X214025000Y-88575000D01*
G75*
G02*
X213900000Y-88700000I-125000J0D01*
G01*
X212650000Y-88700000D01*
G75*
G02*
X212525000Y-88575000I0J125000D01*
G01*
X212525000Y-88325000D01*
G75*
G02*
X212650000Y-88200000I125000J0D01*
G01*
G37*
G04 #@! TD.AperFunction*
G04 #@! TA.AperFunction,SMDPad,CuDef*
G36*
G01*
X212650000Y-89000000D02*
X213900000Y-89000000D01*
G75*
G02*
X214025000Y-89125000I0J-125000D01*
G01*
X214025000Y-89375000D01*
G75*
G02*
X213900000Y-89500000I-125000J0D01*
G01*
X212650000Y-89500000D01*
G75*
G02*
X212525000Y-89375000I0J125000D01*
G01*
X212525000Y-89125000D01*
G75*
G02*
X212650000Y-89000000I125000J0D01*
G01*
G37*
G04 #@! TD.AperFunction*
G04 #@! TA.AperFunction,SMDPad,CuDef*
G36*
G01*
X212650000Y-89800000D02*
X213900000Y-89800000D01*
G75*
G02*
X214025000Y-89925000I0J-125000D01*
G01*
X214025000Y-90175000D01*
G75*
G02*
X213900000Y-90300000I-125000J0D01*
G01*
X212650000Y-90300000D01*
G75*
G02*
X212525000Y-90175000I0J125000D01*
G01*
X212525000Y-89925000D01*
G75*
G02*
X212650000Y-89800000I125000J0D01*
G01*
G37*
G04 #@! TD.AperFunction*
G04 #@! TA.AperFunction,SMDPad,CuDef*
G36*
G01*
X211775000Y-90675000D02*
X212025000Y-90675000D01*
G75*
G02*
X212150000Y-90800000I0J-125000D01*
G01*
X212150000Y-92050000D01*
G75*
G02*
X212025000Y-92175000I-125000J0D01*
G01*
X211775000Y-92175000D01*
G75*
G02*
X211650000Y-92050000I0J125000D01*
G01*
X211650000Y-90800000D01*
G75*
G02*
X211775000Y-90675000I125000J0D01*
G01*
G37*
G04 #@! TD.AperFunction*
G04 #@! TA.AperFunction,SMDPad,CuDef*
G36*
G01*
X210975000Y-90675000D02*
X211225000Y-90675000D01*
G75*
G02*
X211350000Y-90800000I0J-125000D01*
G01*
X211350000Y-92050000D01*
G75*
G02*
X211225000Y-92175000I-125000J0D01*
G01*
X210975000Y-92175000D01*
G75*
G02*
X210850000Y-92050000I0J125000D01*
G01*
X210850000Y-90800000D01*
G75*
G02*
X210975000Y-90675000I125000J0D01*
G01*
G37*
G04 #@! TD.AperFunction*
G04 #@! TA.AperFunction,SMDPad,CuDef*
G36*
G01*
X210175000Y-90675000D02*
X210425000Y-90675000D01*
G75*
G02*
X210550000Y-90800000I0J-125000D01*
G01*
X210550000Y-92050000D01*
G75*
G02*
X210425000Y-92175000I-125000J0D01*
G01*
X210175000Y-92175000D01*
G75*
G02*
X210050000Y-92050000I0J125000D01*
G01*
X210050000Y-90800000D01*
G75*
G02*
X210175000Y-90675000I125000J0D01*
G01*
G37*
G04 #@! TD.AperFunction*
G04 #@! TA.AperFunction,SMDPad,CuDef*
G36*
G01*
X209375000Y-90675000D02*
X209625000Y-90675000D01*
G75*
G02*
X209750000Y-90800000I0J-125000D01*
G01*
X209750000Y-92050000D01*
G75*
G02*
X209625000Y-92175000I-125000J0D01*
G01*
X209375000Y-92175000D01*
G75*
G02*
X209250000Y-92050000I0J125000D01*
G01*
X209250000Y-90800000D01*
G75*
G02*
X209375000Y-90675000I125000J0D01*
G01*
G37*
G04 #@! TD.AperFunction*
G04 #@! TA.AperFunction,SMDPad,CuDef*
G36*
G01*
X208575000Y-90675000D02*
X208825000Y-90675000D01*
G75*
G02*
X208950000Y-90800000I0J-125000D01*
G01*
X208950000Y-92050000D01*
G75*
G02*
X208825000Y-92175000I-125000J0D01*
G01*
X208575000Y-92175000D01*
G75*
G02*
X208450000Y-92050000I0J125000D01*
G01*
X208450000Y-90800000D01*
G75*
G02*
X208575000Y-90675000I125000J0D01*
G01*
G37*
G04 #@! TD.AperFunction*
G04 #@! TA.AperFunction,SMDPad,CuDef*
G36*
G01*
X207775000Y-90675000D02*
X208025000Y-90675000D01*
G75*
G02*
X208150000Y-90800000I0J-125000D01*
G01*
X208150000Y-92050000D01*
G75*
G02*
X208025000Y-92175000I-125000J0D01*
G01*
X207775000Y-92175000D01*
G75*
G02*
X207650000Y-92050000I0J125000D01*
G01*
X207650000Y-90800000D01*
G75*
G02*
X207775000Y-90675000I125000J0D01*
G01*
G37*
G04 #@! TD.AperFunction*
G04 #@! TA.AperFunction,SMDPad,CuDef*
G36*
G01*
X206975000Y-90675000D02*
X207225000Y-90675000D01*
G75*
G02*
X207350000Y-90800000I0J-125000D01*
G01*
X207350000Y-92050000D01*
G75*
G02*
X207225000Y-92175000I-125000J0D01*
G01*
X206975000Y-92175000D01*
G75*
G02*
X206850000Y-92050000I0J125000D01*
G01*
X206850000Y-90800000D01*
G75*
G02*
X206975000Y-90675000I125000J0D01*
G01*
G37*
G04 #@! TD.AperFunction*
G04 #@! TA.AperFunction,SMDPad,CuDef*
G36*
G01*
X206175000Y-90675000D02*
X206425000Y-90675000D01*
G75*
G02*
X206550000Y-90800000I0J-125000D01*
G01*
X206550000Y-92050000D01*
G75*
G02*
X206425000Y-92175000I-125000J0D01*
G01*
X206175000Y-92175000D01*
G75*
G02*
X206050000Y-92050000I0J125000D01*
G01*
X206050000Y-90800000D01*
G75*
G02*
X206175000Y-90675000I125000J0D01*
G01*
G37*
G04 #@! TD.AperFunction*
G04 #@! TA.AperFunction,SMDPad,CuDef*
G36*
G01*
X204300000Y-89800000D02*
X205550000Y-89800000D01*
G75*
G02*
X205675000Y-89925000I0J-125000D01*
G01*
X205675000Y-90175000D01*
G75*
G02*
X205550000Y-90300000I-125000J0D01*
G01*
X204300000Y-90300000D01*
G75*
G02*
X204175000Y-90175000I0J125000D01*
G01*
X204175000Y-89925000D01*
G75*
G02*
X204300000Y-89800000I125000J0D01*
G01*
G37*
G04 #@! TD.AperFunction*
G04 #@! TA.AperFunction,SMDPad,CuDef*
G36*
G01*
X204300000Y-89000000D02*
X205550000Y-89000000D01*
G75*
G02*
X205675000Y-89125000I0J-125000D01*
G01*
X205675000Y-89375000D01*
G75*
G02*
X205550000Y-89500000I-125000J0D01*
G01*
X204300000Y-89500000D01*
G75*
G02*
X204175000Y-89375000I0J125000D01*
G01*
X204175000Y-89125000D01*
G75*
G02*
X204300000Y-89000000I125000J0D01*
G01*
G37*
G04 #@! TD.AperFunction*
G04 #@! TA.AperFunction,SMDPad,CuDef*
G36*
G01*
X204300000Y-88200000D02*
X205550000Y-88200000D01*
G75*
G02*
X205675000Y-88325000I0J-125000D01*
G01*
X205675000Y-88575000D01*
G75*
G02*
X205550000Y-88700000I-125000J0D01*
G01*
X204300000Y-88700000D01*
G75*
G02*
X204175000Y-88575000I0J125000D01*
G01*
X204175000Y-88325000D01*
G75*
G02*
X204300000Y-88200000I125000J0D01*
G01*
G37*
G04 #@! TD.AperFunction*
G04 #@! TA.AperFunction,SMDPad,CuDef*
G36*
G01*
X204300000Y-87400000D02*
X205550000Y-87400000D01*
G75*
G02*
X205675000Y-87525000I0J-125000D01*
G01*
X205675000Y-87775000D01*
G75*
G02*
X205550000Y-87900000I-125000J0D01*
G01*
X204300000Y-87900000D01*
G75*
G02*
X204175000Y-87775000I0J125000D01*
G01*
X204175000Y-87525000D01*
G75*
G02*
X204300000Y-87400000I125000J0D01*
G01*
G37*
G04 #@! TD.AperFunction*
G04 #@! TA.AperFunction,SMDPad,CuDef*
G36*
G01*
X204300000Y-86600000D02*
X205550000Y-86600000D01*
G75*
G02*
X205675000Y-86725000I0J-125000D01*
G01*
X205675000Y-86975000D01*
G75*
G02*
X205550000Y-87100000I-125000J0D01*
G01*
X204300000Y-87100000D01*
G75*
G02*
X204175000Y-86975000I0J125000D01*
G01*
X204175000Y-86725000D01*
G75*
G02*
X204300000Y-86600000I125000J0D01*
G01*
G37*
G04 #@! TD.AperFunction*
G04 #@! TA.AperFunction,SMDPad,CuDef*
G36*
G01*
X204300000Y-85800000D02*
X205550000Y-85800000D01*
G75*
G02*
X205675000Y-85925000I0J-125000D01*
G01*
X205675000Y-86175000D01*
G75*
G02*
X205550000Y-86300000I-125000J0D01*
G01*
X204300000Y-86300000D01*
G75*
G02*
X204175000Y-86175000I0J125000D01*
G01*
X204175000Y-85925000D01*
G75*
G02*
X204300000Y-85800000I125000J0D01*
G01*
G37*
G04 #@! TD.AperFunction*
G04 #@! TA.AperFunction,SMDPad,CuDef*
G36*
G01*
X204300000Y-85000000D02*
X205550000Y-85000000D01*
G75*
G02*
X205675000Y-85125000I0J-125000D01*
G01*
X205675000Y-85375000D01*
G75*
G02*
X205550000Y-85500000I-125000J0D01*
G01*
X204300000Y-85500000D01*
G75*
G02*
X204175000Y-85375000I0J125000D01*
G01*
X204175000Y-85125000D01*
G75*
G02*
X204300000Y-85000000I125000J0D01*
G01*
G37*
G04 #@! TD.AperFunction*
G04 #@! TA.AperFunction,SMDPad,CuDef*
G36*
G01*
X204300000Y-84200000D02*
X205550000Y-84200000D01*
G75*
G02*
X205675000Y-84325000I0J-125000D01*
G01*
X205675000Y-84575000D01*
G75*
G02*
X205550000Y-84700000I-125000J0D01*
G01*
X204300000Y-84700000D01*
G75*
G02*
X204175000Y-84575000I0J125000D01*
G01*
X204175000Y-84325000D01*
G75*
G02*
X204300000Y-84200000I125000J0D01*
G01*
G37*
G04 #@! TD.AperFunction*
G04 #@! TA.AperFunction,SMDPad,CuDef*
G36*
G01*
X206175000Y-82325000D02*
X206425000Y-82325000D01*
G75*
G02*
X206550000Y-82450000I0J-125000D01*
G01*
X206550000Y-83700000D01*
G75*
G02*
X206425000Y-83825000I-125000J0D01*
G01*
X206175000Y-83825000D01*
G75*
G02*
X206050000Y-83700000I0J125000D01*
G01*
X206050000Y-82450000D01*
G75*
G02*
X206175000Y-82325000I125000J0D01*
G01*
G37*
G04 #@! TD.AperFunction*
G04 #@! TA.AperFunction,SMDPad,CuDef*
G36*
G01*
X206975000Y-82325000D02*
X207225000Y-82325000D01*
G75*
G02*
X207350000Y-82450000I0J-125000D01*
G01*
X207350000Y-83700000D01*
G75*
G02*
X207225000Y-83825000I-125000J0D01*
G01*
X206975000Y-83825000D01*
G75*
G02*
X206850000Y-83700000I0J125000D01*
G01*
X206850000Y-82450000D01*
G75*
G02*
X206975000Y-82325000I125000J0D01*
G01*
G37*
G04 #@! TD.AperFunction*
G04 #@! TA.AperFunction,SMDPad,CuDef*
G36*
G01*
X207775000Y-82325000D02*
X208025000Y-82325000D01*
G75*
G02*
X208150000Y-82450000I0J-125000D01*
G01*
X208150000Y-83700000D01*
G75*
G02*
X208025000Y-83825000I-125000J0D01*
G01*
X207775000Y-83825000D01*
G75*
G02*
X207650000Y-83700000I0J125000D01*
G01*
X207650000Y-82450000D01*
G75*
G02*
X207775000Y-82325000I125000J0D01*
G01*
G37*
G04 #@! TD.AperFunction*
G04 #@! TA.AperFunction,SMDPad,CuDef*
G36*
G01*
X208575000Y-82325000D02*
X208825000Y-82325000D01*
G75*
G02*
X208950000Y-82450000I0J-125000D01*
G01*
X208950000Y-83700000D01*
G75*
G02*
X208825000Y-83825000I-125000J0D01*
G01*
X208575000Y-83825000D01*
G75*
G02*
X208450000Y-83700000I0J125000D01*
G01*
X208450000Y-82450000D01*
G75*
G02*
X208575000Y-82325000I125000J0D01*
G01*
G37*
G04 #@! TD.AperFunction*
G04 #@! TA.AperFunction,SMDPad,CuDef*
G36*
G01*
X209375000Y-82325000D02*
X209625000Y-82325000D01*
G75*
G02*
X209750000Y-82450000I0J-125000D01*
G01*
X209750000Y-83700000D01*
G75*
G02*
X209625000Y-83825000I-125000J0D01*
G01*
X209375000Y-83825000D01*
G75*
G02*
X209250000Y-83700000I0J125000D01*
G01*
X209250000Y-82450000D01*
G75*
G02*
X209375000Y-82325000I125000J0D01*
G01*
G37*
G04 #@! TD.AperFunction*
G04 #@! TA.AperFunction,SMDPad,CuDef*
G36*
G01*
X210175000Y-82325000D02*
X210425000Y-82325000D01*
G75*
G02*
X210550000Y-82450000I0J-125000D01*
G01*
X210550000Y-83700000D01*
G75*
G02*
X210425000Y-83825000I-125000J0D01*
G01*
X210175000Y-83825000D01*
G75*
G02*
X210050000Y-83700000I0J125000D01*
G01*
X210050000Y-82450000D01*
G75*
G02*
X210175000Y-82325000I125000J0D01*
G01*
G37*
G04 #@! TD.AperFunction*
G04 #@! TA.AperFunction,SMDPad,CuDef*
G36*
G01*
X210975000Y-82325000D02*
X211225000Y-82325000D01*
G75*
G02*
X211350000Y-82450000I0J-125000D01*
G01*
X211350000Y-83700000D01*
G75*
G02*
X211225000Y-83825000I-125000J0D01*
G01*
X210975000Y-83825000D01*
G75*
G02*
X210850000Y-83700000I0J125000D01*
G01*
X210850000Y-82450000D01*
G75*
G02*
X210975000Y-82325000I125000J0D01*
G01*
G37*
G04 #@! TD.AperFunction*
G04 #@! TA.AperFunction,SMDPad,CuDef*
G36*
G01*
X211775000Y-82325000D02*
X212025000Y-82325000D01*
G75*
G02*
X212150000Y-82450000I0J-125000D01*
G01*
X212150000Y-83700000D01*
G75*
G02*
X212025000Y-83825000I-125000J0D01*
G01*
X211775000Y-83825000D01*
G75*
G02*
X211650000Y-83700000I0J125000D01*
G01*
X211650000Y-82450000D01*
G75*
G02*
X211775000Y-82325000I125000J0D01*
G01*
G37*
G04 #@! TD.AperFunction*
D18*
X216300000Y-94950000D03*
X212000000Y-94950000D03*
D19*
X223900000Y-77950000D03*
X222900000Y-86550000D03*
X223900000Y-86550000D03*
X223900000Y-85700000D03*
X222900000Y-85700000D03*
X223900000Y-84850000D03*
X222900000Y-84850000D03*
X200150000Y-91600000D03*
X222900000Y-78800000D03*
X222900000Y-77100000D03*
X223900000Y-78800000D03*
X223900000Y-77100000D03*
X222900000Y-77950000D03*
X211300000Y-87700000D03*
X207200000Y-98200000D03*
X203300000Y-98200000D03*
X223200000Y-93800000D03*
X223200000Y-94700000D03*
X224950000Y-93800000D03*
X224950000Y-94700000D03*
X219650000Y-90700000D03*
X211050000Y-98300000D03*
X211050000Y-98300000D03*
X211050000Y-98300000D03*
X197600000Y-98300000D03*
X197600000Y-98300000D03*
X206900000Y-88850000D03*
X206900000Y-88850000D03*
X215950000Y-104250000D03*
X201100000Y-104200000D03*
X215500000Y-78700000D03*
X213300000Y-84175000D03*
X206750000Y-86000000D03*
X208900000Y-84500000D03*
X209700000Y-93100000D03*
X215550000Y-86000000D03*
X215550000Y-84250000D03*
X200135000Y-96000000D03*
X198865000Y-96565000D03*
X219550000Y-79650000D03*
X217850000Y-79650000D03*
X211100000Y-84400000D03*
X213250000Y-93000000D03*
X219650000Y-88650000D03*
X218600000Y-87850000D03*
X218600000Y-89750000D03*
X221750000Y-90500000D03*
X201350000Y-96500000D03*
X220700000Y-87850000D03*
D20*
X213225000Y-87700000D02*
X213275000Y-87650000D01*
D21*
X211300000Y-87700000D02*
X213225000Y-87700000D01*
X210300000Y-86700000D02*
X211300000Y-87700000D01*
X210300000Y-83075000D02*
X210300000Y-86700000D01*
D20*
X200135000Y-91050000D02*
X200135000Y-91585000D01*
X200135000Y-91585000D02*
X200150000Y-91600000D01*
D22*
X207200000Y-94450000D02*
X207200000Y-98200000D01*
X203300000Y-94450000D02*
X203300000Y-98200000D01*
X224075000Y-94250000D02*
X223700000Y-94250000D01*
X223700000Y-94250000D02*
X223200000Y-93750000D01*
X224075000Y-94250000D02*
X223750000Y-94250000D01*
X223750000Y-94250000D02*
X223200000Y-94800000D01*
X224075000Y-94250000D02*
X224550000Y-94250000D01*
X224075000Y-94250000D02*
X224500000Y-94250000D01*
X224500000Y-94250000D02*
X225050000Y-93700000D01*
X224075000Y-94250000D02*
X224400000Y-94250000D01*
X224400000Y-94250000D02*
X224950000Y-94800000D01*
X219650000Y-90150000D02*
X219650000Y-90700000D01*
X207900000Y-80750000D02*
X207900000Y-83075000D01*
X207590000Y-80440000D02*
X200390000Y-80440000D01*
X207900000Y-80750000D02*
X207590000Y-80440000D01*
X209500000Y-83075000D02*
X209500000Y-80000000D01*
X211650000Y-78750000D02*
X210750000Y-78750000D01*
X210750000Y-78750000D02*
X209500000Y-80000000D01*
X208700000Y-83075000D02*
X208700000Y-80000000D01*
X207450000Y-78750000D02*
X206770000Y-78750000D01*
X208700000Y-80000000D02*
X207450000Y-78750000D01*
X213275000Y-84450000D02*
X213275000Y-84200000D01*
X213275000Y-84200000D02*
X213300000Y-84175000D01*
X209500000Y-91425000D02*
X209500000Y-90250000D01*
X209500000Y-90250000D02*
X209500000Y-88750000D01*
X209500000Y-88750000D02*
X206750000Y-86000000D01*
D20*
X197595000Y-91050000D02*
X197595000Y-92145000D01*
X197595000Y-92145000D02*
X198100000Y-92650000D01*
X198100000Y-92650000D02*
X202000000Y-92650000D01*
X202000000Y-92650000D02*
X203000000Y-91650000D01*
X203000000Y-91650000D02*
X203000000Y-88950000D01*
X203500000Y-88450000D02*
X204925000Y-88450000D01*
X203000000Y-88950000D02*
X203500000Y-88450000D01*
X201405000Y-89908590D02*
X201405000Y-91050000D01*
X203663590Y-87650000D02*
X201405000Y-89908590D01*
X204925000Y-87650000D02*
X203663590Y-87650000D01*
D22*
X206300000Y-83825000D02*
X206300000Y-83075000D01*
X206300000Y-83958002D02*
X206300000Y-83825000D01*
X211100000Y-91425000D02*
X211100000Y-88758002D01*
X211100000Y-88758002D02*
X208195999Y-85854001D01*
X197850000Y-82980000D02*
X199120000Y-84250000D01*
D20*
X199120000Y-84250000D02*
X202250000Y-84250000D01*
D22*
X203425000Y-83075000D02*
X206300000Y-83075000D01*
X202250000Y-84250000D02*
X203425000Y-83075000D01*
X207945999Y-85454001D02*
X207795999Y-85454001D01*
X208900000Y-84500000D02*
X207945999Y-85454001D01*
X208195999Y-85854001D02*
X207795999Y-85454001D01*
X207795999Y-85454001D02*
X206300000Y-83958002D01*
X209700000Y-93100000D02*
X210600000Y-93100000D01*
X211100000Y-92600000D02*
X211100000Y-91425000D01*
X210600000Y-93100000D02*
X211100000Y-92600000D01*
X214800000Y-85250000D02*
X215550000Y-86000000D01*
X213275000Y-85250000D02*
X214800000Y-85250000D01*
D23*
X212000000Y-96400000D02*
X218550000Y-102950000D01*
X212000000Y-94950000D02*
X212000000Y-96400000D01*
D22*
X212950000Y-94950000D02*
X212000000Y-94950000D01*
X215050000Y-92458002D02*
X214200000Y-93308002D01*
X214200000Y-93308002D02*
X214200000Y-93700000D01*
X214200000Y-93700000D02*
X212950000Y-94950000D01*
X215050000Y-92458002D02*
X215050000Y-88850000D01*
X215050000Y-88850000D02*
X216750000Y-87150000D01*
D20*
X215550000Y-84250000D02*
X215550000Y-84750000D01*
D22*
X216750000Y-85950000D02*
X216750000Y-87150000D01*
D20*
X215550000Y-84750000D02*
X216750000Y-85950000D01*
D22*
X200135000Y-99535000D02*
X203550000Y-102950000D01*
X200135000Y-96000000D02*
X200135000Y-99535000D01*
D20*
X198865000Y-102885000D02*
X198800000Y-102950000D01*
D22*
X198865000Y-102635000D02*
X198550000Y-102950000D01*
X198865000Y-96000000D02*
X198865000Y-96565000D01*
X198865000Y-96565000D02*
X198865000Y-102635000D01*
X212511812Y-86850000D02*
X213275000Y-86850000D01*
X211100000Y-85438188D02*
X212511812Y-86850000D01*
X211100000Y-84200000D02*
X211100000Y-85438188D01*
X211100000Y-83075000D02*
X211100000Y-84200000D01*
D20*
X197150000Y-81650000D02*
X198600000Y-81650000D01*
X198865000Y-89715000D02*
X198600000Y-89450000D01*
X198865000Y-91050000D02*
X198865000Y-89715000D01*
X196450000Y-88700000D02*
X196450000Y-82350000D01*
X197200000Y-89450000D02*
X196450000Y-88700000D01*
X198600000Y-89450000D02*
X197200000Y-89450000D01*
X196450000Y-82350000D02*
X197150000Y-81650000D01*
X199870000Y-82920000D02*
X200390000Y-82920000D01*
D22*
X198600000Y-81650000D02*
X199870000Y-82920000D01*
D20*
X203700000Y-86850000D02*
X204925000Y-86850000D01*
X199550000Y-89450000D02*
X201100000Y-89450000D01*
X201100000Y-89450000D02*
X203700000Y-86850000D01*
X197850000Y-88060000D02*
X198160000Y-88060000D01*
D22*
X198160000Y-88060000D02*
X199550000Y-89450000D01*
D20*
X200390000Y-88060000D02*
X201690000Y-88060000D01*
X201690000Y-88060000D02*
X203700000Y-86050000D01*
D22*
X203700000Y-86050000D02*
X204925000Y-86050000D01*
X197850000Y-85520000D02*
X199130000Y-86800000D01*
D20*
X199130000Y-86800000D02*
X201850000Y-86800000D01*
D22*
X203400000Y-85250000D02*
X204925000Y-85250000D01*
X201850000Y-86800000D02*
X203400000Y-85250000D01*
X200390000Y-85520000D02*
X202130000Y-85520000D01*
X203200000Y-84450000D02*
X204925000Y-84450000D01*
X202130000Y-85520000D02*
X203200000Y-84450000D01*
D20*
X207100000Y-82325000D02*
X207100000Y-83075000D01*
X199600000Y-81650000D02*
X206425000Y-81650000D01*
X198330000Y-80380000D02*
X197850000Y-80380000D01*
X199600000Y-81650000D02*
X198330000Y-80380000D01*
X206425000Y-81650000D02*
X207100000Y-82325000D01*
D22*
X208150000Y-97550000D02*
X213550000Y-102950000D01*
X208150000Y-96450000D02*
X208150000Y-97550000D01*
X213275000Y-90050000D02*
X213275000Y-92975000D01*
X213275000Y-92975000D02*
X213250000Y-93000000D01*
X206300000Y-93350000D02*
X205200000Y-94450000D01*
X206300000Y-91425000D02*
X206300000Y-93350000D01*
X207100000Y-92450000D02*
X209100000Y-94450000D01*
X207100000Y-91425000D02*
X207100000Y-92450000D01*
X204250000Y-98650000D02*
X208550000Y-102950000D01*
X204250000Y-96450000D02*
X204250000Y-98650000D01*
X219650000Y-87450000D02*
X219650000Y-88769998D01*
D23*
X216900000Y-94350000D02*
X216300000Y-94950000D01*
X219950000Y-94350000D02*
X216900000Y-94350000D01*
D24*
X223400000Y-88950000D02*
X223400000Y-89700000D01*
X221600000Y-85950000D02*
X221600000Y-87150000D01*
D25*
X219650000Y-87450000D02*
X219650000Y-85950000D01*
D24*
X221600000Y-87150000D02*
X223400000Y-88950000D01*
X219650000Y-85950000D02*
X221600000Y-85950000D01*
D26*
X223400000Y-90800000D02*
X223400000Y-89700000D01*
X219950000Y-94250000D02*
X223400000Y-90800000D01*
D24*
X218650000Y-87450000D02*
X218650000Y-83450000D01*
D26*
X223400000Y-81950000D02*
X222550000Y-81950000D01*
X221050000Y-83450000D02*
X218700000Y-83450000D01*
X222550000Y-81950000D02*
X221050000Y-83450000D01*
D22*
X218700000Y-90150000D02*
X218700000Y-89775000D01*
X218700000Y-89775000D02*
X218600000Y-89675000D01*
X220950000Y-90500000D02*
X220600000Y-90150000D01*
X221750000Y-90500000D02*
X220950000Y-90500000D01*
X220600000Y-87450000D02*
X220600000Y-87850000D01*
X220600000Y-87850000D02*
X220700000Y-87950000D01*
D27*
G36*
X203760427Y-90714573D02*
G01*
X203876060Y-90809471D01*
X204007985Y-90879987D01*
X204151132Y-90923410D01*
X204300000Y-90938072D01*
X205411928Y-90938072D01*
X205411928Y-92050000D01*
X205415000Y-92081195D01*
X205415001Y-92983420D01*
X205036494Y-93361928D01*
X204800000Y-93361928D01*
X204675518Y-93374188D01*
X204555820Y-93410498D01*
X204445506Y-93469463D01*
X204348815Y-93548815D01*
X204269463Y-93645506D01*
X204250000Y-93681918D01*
X204230537Y-93645506D01*
X204151185Y-93548815D01*
X204054494Y-93469463D01*
X203944180Y-93410498D01*
X203824482Y-93374188D01*
X203700000Y-93361928D01*
X203585750Y-93365000D01*
X203427000Y-93523750D01*
X203427000Y-94323000D01*
X203447000Y-94323000D01*
X203447000Y-94577000D01*
X203427000Y-94577000D01*
X203427000Y-95376250D01*
X203511607Y-95460857D01*
X203495506Y-95469463D01*
X203398815Y-95548815D01*
X203319463Y-95645506D01*
X203260498Y-95755820D01*
X203224188Y-95875518D01*
X203211928Y-96000000D01*
X203211928Y-96900000D01*
X203224188Y-97024482D01*
X203260498Y-97144180D01*
X203319463Y-97254494D01*
X203365000Y-97309982D01*
X203365001Y-98606521D01*
X203360719Y-98650000D01*
X203377805Y-98823490D01*
X203428412Y-98990313D01*
X203510590Y-99144059D01*
X203593468Y-99245046D01*
X203593471Y-99245049D01*
X203621184Y-99278817D01*
X203654951Y-99306530D01*
X206702436Y-102354015D01*
X206689361Y-102385581D01*
X206615000Y-102759419D01*
X206615000Y-103140581D01*
X206689361Y-103514419D01*
X206835225Y-103866566D01*
X207046987Y-104183491D01*
X207316509Y-104453013D01*
X207633434Y-104664775D01*
X207985581Y-104810639D01*
X208133189Y-104840000D01*
X203966811Y-104840000D01*
X204114419Y-104810639D01*
X204466566Y-104664775D01*
X204783491Y-104453013D01*
X205053013Y-104183491D01*
X205264775Y-103866566D01*
X205410639Y-103514419D01*
X205485000Y-103140581D01*
X205485000Y-102759419D01*
X205410639Y-102385581D01*
X205264775Y-102033434D01*
X205053013Y-101716509D01*
X204783491Y-101446987D01*
X204466566Y-101235225D01*
X204114419Y-101089361D01*
X203740581Y-101015000D01*
X203359419Y-101015000D01*
X202985581Y-101089361D01*
X202954015Y-101102436D01*
X201020000Y-99168422D01*
X201020000Y-97573281D01*
X201101255Y-97597929D01*
X201255000Y-97613072D01*
X201555000Y-97613072D01*
X201708745Y-97597929D01*
X201856582Y-97553084D01*
X201992829Y-97480258D01*
X202112251Y-97382251D01*
X202210258Y-97262829D01*
X202283084Y-97126582D01*
X202327929Y-96978745D01*
X202343072Y-96825000D01*
X202343072Y-96807098D01*
X202345226Y-96801898D01*
X202385000Y-96601939D01*
X202385000Y-96398061D01*
X202345226Y-96198102D01*
X202343072Y-96192902D01*
X202343072Y-95205121D01*
X202369463Y-95254494D01*
X202448815Y-95351185D01*
X202545506Y-95430537D01*
X202655820Y-95489502D01*
X202775518Y-95525812D01*
X202900000Y-95538072D01*
X203014250Y-95535000D01*
X203173000Y-95376250D01*
X203173000Y-94577000D01*
X202423750Y-94577000D01*
X202265000Y-94735750D01*
X202263124Y-94836075D01*
X202210258Y-94737171D01*
X202112251Y-94617749D01*
X201992829Y-94519742D01*
X201856582Y-94446916D01*
X201708745Y-94402071D01*
X201555000Y-94386928D01*
X201255000Y-94386928D01*
X201101255Y-94402071D01*
X200953418Y-94446916D01*
X200817171Y-94519742D01*
X200770000Y-94558454D01*
X200722829Y-94519742D01*
X200586582Y-94446916D01*
X200438745Y-94402071D01*
X200285000Y-94386928D01*
X199985000Y-94386928D01*
X199831255Y-94402071D01*
X199683418Y-94446916D01*
X199547171Y-94519742D01*
X199500000Y-94558454D01*
X199452829Y-94519742D01*
X199316582Y-94446916D01*
X199168745Y-94402071D01*
X199015000Y-94386928D01*
X198715000Y-94386928D01*
X198561255Y-94402071D01*
X198413418Y-94446916D01*
X198277171Y-94519742D01*
X198230000Y-94558454D01*
X198182829Y-94519742D01*
X198046582Y-94446916D01*
X197898745Y-94402071D01*
X197745000Y-94386928D01*
X197445000Y-94386928D01*
X197291255Y-94402071D01*
X197143418Y-94446916D01*
X197007171Y-94519742D01*
X196887749Y-94617749D01*
X196789742Y-94737171D01*
X196716916Y-94873418D01*
X196710000Y-94896217D01*
X196710000Y-94000000D01*
X202261928Y-94000000D01*
X202265000Y-94164250D01*
X202423750Y-94323000D01*
X203173000Y-94323000D01*
X203173000Y-93523750D01*
X203014250Y-93365000D01*
X202900000Y-93361928D01*
X202775518Y-93374188D01*
X202655820Y-93410498D01*
X202545506Y-93469463D01*
X202448815Y-93548815D01*
X202369463Y-93645506D01*
X202310498Y-93755820D01*
X202274188Y-93875518D01*
X202261928Y-94000000D01*
X196710000Y-94000000D01*
X196710000Y-92153783D01*
X196716916Y-92176582D01*
X196789742Y-92312829D01*
X196887749Y-92432251D01*
X196888002Y-92432458D01*
X196889454Y-92437246D01*
X196960026Y-92569276D01*
X197011086Y-92631492D01*
X197055000Y-92685001D01*
X197083998Y-92708799D01*
X197536196Y-93160997D01*
X197559999Y-93190001D01*
X197675724Y-93284974D01*
X197807753Y-93355546D01*
X197951014Y-93399003D01*
X198062667Y-93410000D01*
X198062677Y-93410000D01*
X198100000Y-93413676D01*
X198137323Y-93410000D01*
X201962678Y-93410000D01*
X202000000Y-93413676D01*
X202037322Y-93410000D01*
X202037333Y-93410000D01*
X202148986Y-93399003D01*
X202292247Y-93355546D01*
X202424276Y-93284974D01*
X202540001Y-93190001D01*
X202563804Y-93160998D01*
X203511004Y-92213798D01*
X203540001Y-92190001D01*
X203634974Y-92074276D01*
X203705546Y-91942247D01*
X203749003Y-91798986D01*
X203760000Y-91687333D01*
X203760000Y-91687332D01*
X203763677Y-91650000D01*
X203760000Y-91612667D01*
X203760000Y-90714053D01*
X203760427Y-90714573D01*
G37*
X203760427Y-90714573D02*
X203876060Y-90809471D01*
X204007985Y-90879987D01*
X204151132Y-90923410D01*
X204300000Y-90938072D01*
X205411928Y-90938072D01*
X205411928Y-92050000D01*
X205415000Y-92081195D01*
X205415001Y-92983420D01*
X205036494Y-93361928D01*
X204800000Y-93361928D01*
X204675518Y-93374188D01*
X204555820Y-93410498D01*
X204445506Y-93469463D01*
X204348815Y-93548815D01*
X204269463Y-93645506D01*
X204250000Y-93681918D01*
X204230537Y-93645506D01*
X204151185Y-93548815D01*
X204054494Y-93469463D01*
X203944180Y-93410498D01*
X203824482Y-93374188D01*
X203700000Y-93361928D01*
X203585750Y-93365000D01*
X203427000Y-93523750D01*
X203427000Y-94323000D01*
X203447000Y-94323000D01*
X203447000Y-94577000D01*
X203427000Y-94577000D01*
X203427000Y-95376250D01*
X203511607Y-95460857D01*
X203495506Y-95469463D01*
X203398815Y-95548815D01*
X203319463Y-95645506D01*
X203260498Y-95755820D01*
X203224188Y-95875518D01*
X203211928Y-96000000D01*
X203211928Y-96900000D01*
X203224188Y-97024482D01*
X203260498Y-97144180D01*
X203319463Y-97254494D01*
X203365000Y-97309982D01*
X203365001Y-98606521D01*
X203360719Y-98650000D01*
X203377805Y-98823490D01*
X203428412Y-98990313D01*
X203510590Y-99144059D01*
X203593468Y-99245046D01*
X203593471Y-99245049D01*
X203621184Y-99278817D01*
X203654951Y-99306530D01*
X206702436Y-102354015D01*
X206689361Y-102385581D01*
X206615000Y-102759419D01*
X206615000Y-103140581D01*
X206689361Y-103514419D01*
X206835225Y-103866566D01*
X207046987Y-104183491D01*
X207316509Y-104453013D01*
X207633434Y-104664775D01*
X207985581Y-104810639D01*
X208133189Y-104840000D01*
X203966811Y-104840000D01*
X204114419Y-104810639D01*
X204466566Y-104664775D01*
X204783491Y-104453013D01*
X205053013Y-104183491D01*
X205264775Y-103866566D01*
X205410639Y-103514419D01*
X205485000Y-103140581D01*
X205485000Y-102759419D01*
X205410639Y-102385581D01*
X205264775Y-102033434D01*
X205053013Y-101716509D01*
X204783491Y-101446987D01*
X204466566Y-101235225D01*
X204114419Y-101089361D01*
X203740581Y-101015000D01*
X203359419Y-101015000D01*
X202985581Y-101089361D01*
X202954015Y-101102436D01*
X201020000Y-99168422D01*
X201020000Y-97573281D01*
X201101255Y-97597929D01*
X201255000Y-97613072D01*
X201555000Y-97613072D01*
X201708745Y-97597929D01*
X201856582Y-97553084D01*
X201992829Y-97480258D01*
X202112251Y-97382251D01*
X202210258Y-97262829D01*
X202283084Y-97126582D01*
X202327929Y-96978745D01*
X202343072Y-96825000D01*
X202343072Y-96807098D01*
X202345226Y-96801898D01*
X202385000Y-96601939D01*
X202385000Y-96398061D01*
X202345226Y-96198102D01*
X202343072Y-96192902D01*
X202343072Y-95205121D01*
X202369463Y-95254494D01*
X202448815Y-95351185D01*
X202545506Y-95430537D01*
X202655820Y-95489502D01*
X202775518Y-95525812D01*
X202900000Y-95538072D01*
X203014250Y-95535000D01*
X203173000Y-95376250D01*
X203173000Y-94577000D01*
X202423750Y-94577000D01*
X202265000Y-94735750D01*
X202263124Y-94836075D01*
X202210258Y-94737171D01*
X202112251Y-94617749D01*
X201992829Y-94519742D01*
X201856582Y-94446916D01*
X201708745Y-94402071D01*
X201555000Y-94386928D01*
X201255000Y-94386928D01*
X201101255Y-94402071D01*
X200953418Y-94446916D01*
X200817171Y-94519742D01*
X200770000Y-94558454D01*
X200722829Y-94519742D01*
X200586582Y-94446916D01*
X200438745Y-94402071D01*
X200285000Y-94386928D01*
X199985000Y-94386928D01*
X199831255Y-94402071D01*
X199683418Y-94446916D01*
X199547171Y-94519742D01*
X199500000Y-94558454D01*
X199452829Y-94519742D01*
X199316582Y-94446916D01*
X199168745Y-94402071D01*
X199015000Y-94386928D01*
X198715000Y-94386928D01*
X198561255Y-94402071D01*
X198413418Y-94446916D01*
X198277171Y-94519742D01*
X198230000Y-94558454D01*
X198182829Y-94519742D01*
X198046582Y-94446916D01*
X197898745Y-94402071D01*
X197745000Y-94386928D01*
X197445000Y-94386928D01*
X197291255Y-94402071D01*
X197143418Y-94446916D01*
X197007171Y-94519742D01*
X196887749Y-94617749D01*
X196789742Y-94737171D01*
X196716916Y-94873418D01*
X196710000Y-94896217D01*
X196710000Y-94000000D01*
X202261928Y-94000000D01*
X202265000Y-94164250D01*
X202423750Y-94323000D01*
X203173000Y-94323000D01*
X203173000Y-93523750D01*
X203014250Y-93365000D01*
X202900000Y-93361928D01*
X202775518Y-93374188D01*
X202655820Y-93410498D01*
X202545506Y-93469463D01*
X202448815Y-93548815D01*
X202369463Y-93645506D01*
X202310498Y-93755820D01*
X202274188Y-93875518D01*
X202261928Y-94000000D01*
X196710000Y-94000000D01*
X196710000Y-92153783D01*
X196716916Y-92176582D01*
X196789742Y-92312829D01*
X196887749Y-92432251D01*
X196888002Y-92432458D01*
X196889454Y-92437246D01*
X196960026Y-92569276D01*
X197011086Y-92631492D01*
X197055000Y-92685001D01*
X197083998Y-92708799D01*
X197536196Y-93160997D01*
X197559999Y-93190001D01*
X197675724Y-93284974D01*
X197807753Y-93355546D01*
X197951014Y-93399003D01*
X198062667Y-93410000D01*
X198062677Y-93410000D01*
X198100000Y-93413676D01*
X198137323Y-93410000D01*
X201962678Y-93410000D01*
X202000000Y-93413676D01*
X202037322Y-93410000D01*
X202037333Y-93410000D01*
X202148986Y-93399003D01*
X202292247Y-93355546D01*
X202424276Y-93284974D01*
X202540001Y-93190001D01*
X202563804Y-93160998D01*
X203511004Y-92213798D01*
X203540001Y-92190001D01*
X203634974Y-92074276D01*
X203705546Y-91942247D01*
X203749003Y-91798986D01*
X203760000Y-91687333D01*
X203760000Y-91687332D01*
X203763677Y-91650000D01*
X203760000Y-91612667D01*
X203760000Y-90714053D01*
X203760427Y-90714573D01*
G36*
X215986595Y-76406614D02*
G01*
X215904528Y-76560150D01*
X215853992Y-76726746D01*
X215836928Y-76900000D01*
X215836928Y-79600000D01*
X215853992Y-79773254D01*
X215904528Y-79939850D01*
X215986595Y-80093386D01*
X216097038Y-80227962D01*
X216231614Y-80338405D01*
X216385150Y-80420472D01*
X216551746Y-80471008D01*
X216725000Y-80488072D01*
X217241313Y-80488072D01*
X217359744Y-80567205D01*
X217548102Y-80645226D01*
X217748061Y-80685000D01*
X217951939Y-80685000D01*
X218151898Y-80645226D01*
X218340256Y-80567205D01*
X218458687Y-80488072D01*
X218941313Y-80488072D01*
X219059744Y-80567205D01*
X219248102Y-80645226D01*
X219448061Y-80685000D01*
X219651939Y-80685000D01*
X219851898Y-80645226D01*
X220040256Y-80567205D01*
X220158687Y-80488072D01*
X220675000Y-80488072D01*
X220848254Y-80471008D01*
X221014850Y-80420472D01*
X221168386Y-80338405D01*
X221302962Y-80227962D01*
X221413405Y-80093386D01*
X221495472Y-79939850D01*
X221546008Y-79773254D01*
X221563072Y-79600000D01*
X221563072Y-79200000D01*
X221861928Y-79200000D01*
X221874188Y-79324482D01*
X221910498Y-79444180D01*
X221969463Y-79554494D01*
X222048815Y-79651185D01*
X222145506Y-79730537D01*
X222255820Y-79789502D01*
X222375518Y-79825812D01*
X222500000Y-79838072D01*
X223114250Y-79835000D01*
X223273000Y-79676250D01*
X223273000Y-78077000D01*
X223527000Y-78077000D01*
X223527000Y-79676250D01*
X223685750Y-79835000D01*
X224300000Y-79838072D01*
X224424482Y-79825812D01*
X224544180Y-79789502D01*
X224654494Y-79730537D01*
X224751185Y-79651185D01*
X224830537Y-79554494D01*
X224889502Y-79444180D01*
X224925812Y-79324482D01*
X224938072Y-79200000D01*
X224935000Y-78235750D01*
X224776250Y-78077000D01*
X223527000Y-78077000D01*
X223273000Y-78077000D01*
X222023750Y-78077000D01*
X221865000Y-78235750D01*
X221861928Y-79200000D01*
X221563072Y-79200000D01*
X221563072Y-76900000D01*
X221546008Y-76726746D01*
X221495472Y-76560150D01*
X221413405Y-76406614D01*
X221375150Y-76360000D01*
X221961716Y-76360000D01*
X221910498Y-76455820D01*
X221874188Y-76575518D01*
X221861928Y-76700000D01*
X221865000Y-77664250D01*
X222023750Y-77823000D01*
X223273000Y-77823000D01*
X223273000Y-77803000D01*
X223527000Y-77803000D01*
X223527000Y-77823000D01*
X224776250Y-77823000D01*
X224935000Y-77664250D01*
X224938072Y-76700000D01*
X224925812Y-76575518D01*
X224889502Y-76455820D01*
X224838284Y-76360000D01*
X225390000Y-76360000D01*
X225390001Y-92812130D01*
X224360750Y-92815000D01*
X224202000Y-92973750D01*
X224202000Y-94123000D01*
X224222000Y-94123000D01*
X224222000Y-94377000D01*
X224202000Y-94377000D01*
X224202000Y-95526250D01*
X224360750Y-95685000D01*
X225390001Y-95687870D01*
X225390001Y-102351038D01*
X225326333Y-102159310D01*
X225194312Y-101912317D01*
X224899224Y-101780381D01*
X223729605Y-102950000D01*
X224899224Y-104119619D01*
X225194312Y-103987683D01*
X225365159Y-103646955D01*
X225390001Y-103556643D01*
X225390001Y-104840000D01*
X223998395Y-104840000D01*
X224340690Y-104726333D01*
X224587683Y-104594312D01*
X224719619Y-104299224D01*
X223550000Y-103129605D01*
X222380381Y-104299224D01*
X222512317Y-104594312D01*
X222853045Y-104765159D01*
X223125126Y-104840000D01*
X218966811Y-104840000D01*
X219114419Y-104810639D01*
X219466566Y-104664775D01*
X219783491Y-104453013D01*
X220053013Y-104183491D01*
X220264775Y-103866566D01*
X220410639Y-103514419D01*
X220485000Y-103140581D01*
X220485000Y-103000729D01*
X221606299Y-103000729D01*
X221653543Y-103378951D01*
X221773667Y-103740690D01*
X221905688Y-103987683D01*
X222200776Y-104119619D01*
X223370395Y-102950000D01*
X222200776Y-101780381D01*
X221905688Y-101912317D01*
X221734841Y-102253045D01*
X221633750Y-102620557D01*
X221606299Y-103000729D01*
X220485000Y-103000729D01*
X220485000Y-102759419D01*
X220410639Y-102385581D01*
X220264775Y-102033434D01*
X220053013Y-101716509D01*
X219937280Y-101600776D01*
X222380381Y-101600776D01*
X223550000Y-102770395D01*
X224719619Y-101600776D01*
X224587683Y-101305688D01*
X224246955Y-101134841D01*
X223879443Y-101033750D01*
X223499271Y-101006299D01*
X223121049Y-101053543D01*
X222759310Y-101173667D01*
X222512317Y-101305688D01*
X222380381Y-101600776D01*
X219937280Y-101600776D01*
X219783491Y-101446987D01*
X219466566Y-101235225D01*
X219114419Y-101089361D01*
X218740581Y-101015000D01*
X218573686Y-101015000D01*
X213854249Y-96295564D01*
X213875812Y-96224482D01*
X213888072Y-96100000D01*
X213888072Y-95263506D01*
X214411928Y-94739651D01*
X214411928Y-96100000D01*
X214424188Y-96224482D01*
X214460498Y-96344180D01*
X214519463Y-96454494D01*
X214598815Y-96551185D01*
X214695506Y-96630537D01*
X214805820Y-96689502D01*
X214925518Y-96725812D01*
X215050000Y-96738072D01*
X217550000Y-96738072D01*
X217674482Y-96725812D01*
X217794180Y-96689502D01*
X217904494Y-96630537D01*
X218001185Y-96551185D01*
X218080537Y-96454494D01*
X218139502Y-96344180D01*
X218175812Y-96224482D01*
X218188072Y-96100000D01*
X218188072Y-95735000D01*
X220018037Y-95735000D01*
X220221507Y-95714960D01*
X220310145Y-95688072D01*
X221087500Y-95688072D01*
X221260754Y-95671008D01*
X221427350Y-95620472D01*
X221580886Y-95538405D01*
X221715462Y-95427962D01*
X221825905Y-95293386D01*
X221907972Y-95139850D01*
X221935227Y-95050000D01*
X222049428Y-95050000D01*
X222061688Y-95174482D01*
X222097998Y-95294180D01*
X222156963Y-95404494D01*
X222236315Y-95501185D01*
X222333006Y-95580537D01*
X222443320Y-95639502D01*
X222563018Y-95675812D01*
X222687500Y-95688072D01*
X223789250Y-95685000D01*
X223948000Y-95526250D01*
X223948000Y-94377000D01*
X222211250Y-94377000D01*
X222052500Y-94535750D01*
X222049428Y-95050000D01*
X221935227Y-95050000D01*
X221958508Y-94973254D01*
X221975572Y-94800000D01*
X221975572Y-93829559D01*
X222051243Y-93753888D01*
X222052500Y-93964250D01*
X222211250Y-94123000D01*
X223948000Y-94123000D01*
X223948000Y-92973750D01*
X223789250Y-92815000D01*
X222992354Y-92812778D01*
X224163141Y-91641991D01*
X224206449Y-91606449D01*
X224221531Y-91588072D01*
X224300000Y-91588072D01*
X224424482Y-91575812D01*
X224544180Y-91539502D01*
X224654494Y-91480537D01*
X224751185Y-91401185D01*
X224830537Y-91304494D01*
X224889502Y-91194180D01*
X224925812Y-91074482D01*
X224938072Y-90950000D01*
X224938072Y-88450000D01*
X224925812Y-88325518D01*
X224889502Y-88205820D01*
X224830537Y-88095506D01*
X224751185Y-87998815D01*
X224654494Y-87919463D01*
X224544180Y-87860498D01*
X224424482Y-87824188D01*
X224300000Y-87811928D01*
X223725639Y-87811928D01*
X223498711Y-87585000D01*
X223527002Y-87585000D01*
X223527002Y-87426252D01*
X223685750Y-87585000D01*
X224300000Y-87588072D01*
X224424482Y-87575812D01*
X224544180Y-87539502D01*
X224654494Y-87480537D01*
X224751185Y-87401185D01*
X224830537Y-87304494D01*
X224889502Y-87194180D01*
X224925812Y-87074482D01*
X224938072Y-86950000D01*
X224935000Y-85985750D01*
X224776250Y-85827000D01*
X223527000Y-85827000D01*
X223527000Y-85847000D01*
X223273000Y-85847000D01*
X223273000Y-85827000D01*
X223253000Y-85827000D01*
X223253000Y-85573000D01*
X223273000Y-85573000D01*
X223273000Y-85553000D01*
X223527000Y-85553000D01*
X223527000Y-85573000D01*
X224776250Y-85573000D01*
X224935000Y-85414250D01*
X224938072Y-84450000D01*
X224925812Y-84325518D01*
X224889502Y-84205820D01*
X224830537Y-84095506D01*
X224751185Y-83998815D01*
X224654494Y-83919463D01*
X224544180Y-83860498D01*
X224427159Y-83825000D01*
X224544180Y-83789502D01*
X224654494Y-83730537D01*
X224751185Y-83651185D01*
X224830537Y-83554494D01*
X224889502Y-83444180D01*
X224925812Y-83324482D01*
X224938072Y-83200000D01*
X224938072Y-80700000D01*
X224925812Y-80575518D01*
X224889502Y-80455820D01*
X224830537Y-80345506D01*
X224751185Y-80248815D01*
X224654494Y-80169463D01*
X224544180Y-80110498D01*
X224424482Y-80074188D01*
X224300000Y-80061928D01*
X222500000Y-80061928D01*
X222375518Y-80074188D01*
X222255820Y-80110498D01*
X222145506Y-80169463D01*
X222048815Y-80248815D01*
X221969463Y-80345506D01*
X221910498Y-80455820D01*
X221874188Y-80575518D01*
X221861928Y-80700000D01*
X221861928Y-81046401D01*
X221743551Y-81143551D01*
X221708008Y-81186860D01*
X221356993Y-81537875D01*
X221302962Y-81472038D01*
X221168386Y-81361595D01*
X221014850Y-81279528D01*
X220848254Y-81228992D01*
X220675000Y-81211928D01*
X216725000Y-81211928D01*
X216551746Y-81228992D01*
X216385150Y-81279528D01*
X216231614Y-81361595D01*
X216097038Y-81472038D01*
X215986595Y-81606614D01*
X215904528Y-81760150D01*
X215853992Y-81926746D01*
X215836928Y-82100000D01*
X215836928Y-83251796D01*
X215651939Y-83215000D01*
X215448061Y-83215000D01*
X215248102Y-83254774D01*
X215059744Y-83332795D01*
X214890226Y-83446063D01*
X214746063Y-83590226D01*
X214632795Y-83759744D01*
X214556888Y-83942999D01*
X214534471Y-83901060D01*
X214439573Y-83785427D01*
X214323940Y-83690529D01*
X214192015Y-83620013D01*
X214169362Y-83613141D01*
X214103937Y-83515226D01*
X213959774Y-83371063D01*
X213790256Y-83257795D01*
X213601898Y-83179774D01*
X213401939Y-83140000D01*
X213198061Y-83140000D01*
X212998102Y-83179774D01*
X212809744Y-83257795D01*
X212788072Y-83272276D01*
X212788072Y-82450000D01*
X212773410Y-82301132D01*
X212729987Y-82157985D01*
X212659471Y-82026060D01*
X212564573Y-81910427D01*
X212448940Y-81815529D01*
X212317015Y-81745013D01*
X212173868Y-81701590D01*
X212025000Y-81686928D01*
X211775000Y-81686928D01*
X211626132Y-81701590D01*
X211500000Y-81739852D01*
X211373868Y-81701590D01*
X211225000Y-81686928D01*
X210975000Y-81686928D01*
X210826132Y-81701590D01*
X210753861Y-81723513D01*
X210683773Y-81701109D01*
X210581750Y-81690000D01*
X210427002Y-81844748D01*
X210427002Y-81690000D01*
X210385000Y-81690000D01*
X210385000Y-80366578D01*
X210862227Y-79889352D01*
X210993957Y-79977371D01*
X211246011Y-80081775D01*
X211513589Y-80135000D01*
X211786411Y-80135000D01*
X212053989Y-80081775D01*
X212306043Y-79977371D01*
X212532886Y-79825799D01*
X212725799Y-79632886D01*
X212877371Y-79406043D01*
X212981775Y-79153989D01*
X213035000Y-78886411D01*
X213035000Y-78613589D01*
X212981775Y-78346011D01*
X212877371Y-78093957D01*
X212725799Y-77867114D01*
X212532886Y-77674201D01*
X212306043Y-77522629D01*
X212053989Y-77418225D01*
X211786411Y-77365000D01*
X211513589Y-77365000D01*
X211246011Y-77418225D01*
X210993957Y-77522629D01*
X210767114Y-77674201D01*
X210574201Y-77867114D01*
X210564655Y-77881401D01*
X210525903Y-77893157D01*
X210409687Y-77928411D01*
X210255941Y-78010589D01*
X210255939Y-78010590D01*
X210255940Y-78010590D01*
X210154953Y-78093468D01*
X210154951Y-78093470D01*
X210121183Y-78121183D01*
X210093470Y-78154951D01*
X209100000Y-79148421D01*
X208106534Y-78154956D01*
X208078817Y-78121183D01*
X207944059Y-78010589D01*
X207940337Y-78008599D01*
X207845799Y-77867114D01*
X207652886Y-77674201D01*
X207426043Y-77522629D01*
X207173989Y-77418225D01*
X206906411Y-77365000D01*
X206633589Y-77365000D01*
X206366011Y-77418225D01*
X206113957Y-77522629D01*
X205887114Y-77674201D01*
X205694201Y-77867114D01*
X205542629Y-78093957D01*
X205438225Y-78346011D01*
X205385000Y-78613589D01*
X205385000Y-78886411D01*
X205438225Y-79153989D01*
X205542629Y-79406043D01*
X205642159Y-79555000D01*
X201624747Y-79555000D01*
X201543475Y-79433368D01*
X201336632Y-79226525D01*
X201154466Y-79104805D01*
X201271355Y-79035178D01*
X201487588Y-78840269D01*
X201661641Y-78606920D01*
X201786825Y-78344099D01*
X201831476Y-78196890D01*
X201710155Y-77967000D01*
X200517000Y-77967000D01*
X200517000Y-77987000D01*
X200263000Y-77987000D01*
X200263000Y-77967000D01*
X200243000Y-77967000D01*
X200243000Y-77713000D01*
X200263000Y-77713000D01*
X200263000Y-77693000D01*
X200517000Y-77693000D01*
X200517000Y-77713000D01*
X201710155Y-77713000D01*
X201831476Y-77483110D01*
X201786825Y-77335901D01*
X201661641Y-77073080D01*
X201487588Y-76839731D01*
X201271355Y-76644822D01*
X201021252Y-76495843D01*
X200746891Y-76398519D01*
X200517002Y-76519185D01*
X200517002Y-76360000D01*
X216024850Y-76360000D01*
X215986595Y-76406614D01*
G37*
X215986595Y-76406614D02*
X215904528Y-76560150D01*
X215853992Y-76726746D01*
X215836928Y-76900000D01*
X215836928Y-79600000D01*
X215853992Y-79773254D01*
X215904528Y-79939850D01*
X215986595Y-80093386D01*
X216097038Y-80227962D01*
X216231614Y-80338405D01*
X216385150Y-80420472D01*
X216551746Y-80471008D01*
X216725000Y-80488072D01*
X217241313Y-80488072D01*
X217359744Y-80567205D01*
X217548102Y-80645226D01*
X217748061Y-80685000D01*
X217951939Y-80685000D01*
X218151898Y-80645226D01*
X218340256Y-80567205D01*
X218458687Y-80488072D01*
X218941313Y-80488072D01*
X219059744Y-80567205D01*
X219248102Y-80645226D01*
X219448061Y-80685000D01*
X219651939Y-80685000D01*
X219851898Y-80645226D01*
X220040256Y-80567205D01*
X220158687Y-80488072D01*
X220675000Y-80488072D01*
X220848254Y-80471008D01*
X221014850Y-80420472D01*
X221168386Y-80338405D01*
X221302962Y-80227962D01*
X221413405Y-80093386D01*
X221495472Y-79939850D01*
X221546008Y-79773254D01*
X221563072Y-79600000D01*
X221563072Y-79200000D01*
X221861928Y-79200000D01*
X221874188Y-79324482D01*
X221910498Y-79444180D01*
X221969463Y-79554494D01*
X222048815Y-79651185D01*
X222145506Y-79730537D01*
X222255820Y-79789502D01*
X222375518Y-79825812D01*
X222500000Y-79838072D01*
X223114250Y-79835000D01*
X223273000Y-79676250D01*
X223273000Y-78077000D01*
X223527000Y-78077000D01*
X223527000Y-79676250D01*
X223685750Y-79835000D01*
X224300000Y-79838072D01*
X224424482Y-79825812D01*
X224544180Y-79789502D01*
X224654494Y-79730537D01*
X224751185Y-79651185D01*
X224830537Y-79554494D01*
X224889502Y-79444180D01*
X224925812Y-79324482D01*
X224938072Y-79200000D01*
X224935000Y-78235750D01*
X224776250Y-78077000D01*
X223527000Y-78077000D01*
X223273000Y-78077000D01*
X222023750Y-78077000D01*
X221865000Y-78235750D01*
X221861928Y-79200000D01*
X221563072Y-79200000D01*
X221563072Y-76900000D01*
X221546008Y-76726746D01*
X221495472Y-76560150D01*
X221413405Y-76406614D01*
X221375150Y-76360000D01*
X221961716Y-76360000D01*
X221910498Y-76455820D01*
X221874188Y-76575518D01*
X221861928Y-76700000D01*
X221865000Y-77664250D01*
X222023750Y-77823000D01*
X223273000Y-77823000D01*
X223273000Y-77803000D01*
X223527000Y-77803000D01*
X223527000Y-77823000D01*
X224776250Y-77823000D01*
X224935000Y-77664250D01*
X224938072Y-76700000D01*
X224925812Y-76575518D01*
X224889502Y-76455820D01*
X224838284Y-76360000D01*
X225390000Y-76360000D01*
X225390001Y-92812130D01*
X224360750Y-92815000D01*
X224202000Y-92973750D01*
X224202000Y-94123000D01*
X224222000Y-94123000D01*
X224222000Y-94377000D01*
X224202000Y-94377000D01*
X224202000Y-95526250D01*
X224360750Y-95685000D01*
X225390001Y-95687870D01*
X225390001Y-102351038D01*
X225326333Y-102159310D01*
X225194312Y-101912317D01*
X224899224Y-101780381D01*
X223729605Y-102950000D01*
X224899224Y-104119619D01*
X225194312Y-103987683D01*
X225365159Y-103646955D01*
X225390001Y-103556643D01*
X225390001Y-104840000D01*
X223998395Y-104840000D01*
X224340690Y-104726333D01*
X224587683Y-104594312D01*
X224719619Y-104299224D01*
X223550000Y-103129605D01*
X222380381Y-104299224D01*
X222512317Y-104594312D01*
X222853045Y-104765159D01*
X223125126Y-104840000D01*
X218966811Y-104840000D01*
X219114419Y-104810639D01*
X219466566Y-104664775D01*
X219783491Y-104453013D01*
X220053013Y-104183491D01*
X220264775Y-103866566D01*
X220410639Y-103514419D01*
X220485000Y-103140581D01*
X220485000Y-103000729D01*
X221606299Y-103000729D01*
X221653543Y-103378951D01*
X221773667Y-103740690D01*
X221905688Y-103987683D01*
X222200776Y-104119619D01*
X223370395Y-102950000D01*
X222200776Y-101780381D01*
X221905688Y-101912317D01*
X221734841Y-102253045D01*
X221633750Y-102620557D01*
X221606299Y-103000729D01*
X220485000Y-103000729D01*
X220485000Y-102759419D01*
X220410639Y-102385581D01*
X220264775Y-102033434D01*
X220053013Y-101716509D01*
X219937280Y-101600776D01*
X222380381Y-101600776D01*
X223550000Y-102770395D01*
X224719619Y-101600776D01*
X224587683Y-101305688D01*
X224246955Y-101134841D01*
X223879443Y-101033750D01*
X223499271Y-101006299D01*
X223121049Y-101053543D01*
X222759310Y-101173667D01*
X222512317Y-101305688D01*
X222380381Y-101600776D01*
X219937280Y-101600776D01*
X219783491Y-101446987D01*
X219466566Y-101235225D01*
X219114419Y-101089361D01*
X218740581Y-101015000D01*
X218573686Y-101015000D01*
X213854249Y-96295564D01*
X213875812Y-96224482D01*
X213888072Y-96100000D01*
X213888072Y-95263506D01*
X214411928Y-94739651D01*
X214411928Y-96100000D01*
X214424188Y-96224482D01*
X214460498Y-96344180D01*
X214519463Y-96454494D01*
X214598815Y-96551185D01*
X214695506Y-96630537D01*
X214805820Y-96689502D01*
X214925518Y-96725812D01*
X215050000Y-96738072D01*
X217550000Y-96738072D01*
X217674482Y-96725812D01*
X217794180Y-96689502D01*
X217904494Y-96630537D01*
X218001185Y-96551185D01*
X218080537Y-96454494D01*
X218139502Y-96344180D01*
X218175812Y-96224482D01*
X218188072Y-96100000D01*
X218188072Y-95735000D01*
X220018037Y-95735000D01*
X220221507Y-95714960D01*
X220310145Y-95688072D01*
X221087500Y-95688072D01*
X221260754Y-95671008D01*
X221427350Y-95620472D01*
X221580886Y-95538405D01*
X221715462Y-95427962D01*
X221825905Y-95293386D01*
X221907972Y-95139850D01*
X221935227Y-95050000D01*
X222049428Y-95050000D01*
X222061688Y-95174482D01*
X222097998Y-95294180D01*
X222156963Y-95404494D01*
X222236315Y-95501185D01*
X222333006Y-95580537D01*
X222443320Y-95639502D01*
X222563018Y-95675812D01*
X222687500Y-95688072D01*
X223789250Y-95685000D01*
X223948000Y-95526250D01*
X223948000Y-94377000D01*
X222211250Y-94377000D01*
X222052500Y-94535750D01*
X222049428Y-95050000D01*
X221935227Y-95050000D01*
X221958508Y-94973254D01*
X221975572Y-94800000D01*
X221975572Y-93829559D01*
X222051243Y-93753888D01*
X222052500Y-93964250D01*
X222211250Y-94123000D01*
X223948000Y-94123000D01*
X223948000Y-92973750D01*
X223789250Y-92815000D01*
X222992354Y-92812778D01*
X224163141Y-91641991D01*
X224206449Y-91606449D01*
X224221531Y-91588072D01*
X224300000Y-91588072D01*
X224424482Y-91575812D01*
X224544180Y-91539502D01*
X224654494Y-91480537D01*
X224751185Y-91401185D01*
X224830537Y-91304494D01*
X224889502Y-91194180D01*
X224925812Y-91074482D01*
X224938072Y-90950000D01*
X224938072Y-88450000D01*
X224925812Y-88325518D01*
X224889502Y-88205820D01*
X224830537Y-88095506D01*
X224751185Y-87998815D01*
X224654494Y-87919463D01*
X224544180Y-87860498D01*
X224424482Y-87824188D01*
X224300000Y-87811928D01*
X223725639Y-87811928D01*
X223498711Y-87585000D01*
X223527002Y-87585000D01*
X223527002Y-87426252D01*
X223685750Y-87585000D01*
X224300000Y-87588072D01*
X224424482Y-87575812D01*
X224544180Y-87539502D01*
X224654494Y-87480537D01*
X224751185Y-87401185D01*
X224830537Y-87304494D01*
X224889502Y-87194180D01*
X224925812Y-87074482D01*
X224938072Y-86950000D01*
X224935000Y-85985750D01*
X224776250Y-85827000D01*
X223527000Y-85827000D01*
X223527000Y-85847000D01*
X223273000Y-85847000D01*
X223273000Y-85827000D01*
X223253000Y-85827000D01*
X223253000Y-85573000D01*
X223273000Y-85573000D01*
X223273000Y-85553000D01*
X223527000Y-85553000D01*
X223527000Y-85573000D01*
X224776250Y-85573000D01*
X224935000Y-85414250D01*
X224938072Y-84450000D01*
X224925812Y-84325518D01*
X224889502Y-84205820D01*
X224830537Y-84095506D01*
X224751185Y-83998815D01*
X224654494Y-83919463D01*
X224544180Y-83860498D01*
X224427159Y-83825000D01*
X224544180Y-83789502D01*
X224654494Y-83730537D01*
X224751185Y-83651185D01*
X224830537Y-83554494D01*
X224889502Y-83444180D01*
X224925812Y-83324482D01*
X224938072Y-83200000D01*
X224938072Y-80700000D01*
X224925812Y-80575518D01*
X224889502Y-80455820D01*
X224830537Y-80345506D01*
X224751185Y-80248815D01*
X224654494Y-80169463D01*
X224544180Y-80110498D01*
X224424482Y-80074188D01*
X224300000Y-80061928D01*
X222500000Y-80061928D01*
X222375518Y-80074188D01*
X222255820Y-80110498D01*
X222145506Y-80169463D01*
X222048815Y-80248815D01*
X221969463Y-80345506D01*
X221910498Y-80455820D01*
X221874188Y-80575518D01*
X221861928Y-80700000D01*
X221861928Y-81046401D01*
X221743551Y-81143551D01*
X221708008Y-81186860D01*
X221356993Y-81537875D01*
X221302962Y-81472038D01*
X221168386Y-81361595D01*
X221014850Y-81279528D01*
X220848254Y-81228992D01*
X220675000Y-81211928D01*
X216725000Y-81211928D01*
X216551746Y-81228992D01*
X216385150Y-81279528D01*
X216231614Y-81361595D01*
X216097038Y-81472038D01*
X215986595Y-81606614D01*
X215904528Y-81760150D01*
X215853992Y-81926746D01*
X215836928Y-82100000D01*
X215836928Y-83251796D01*
X215651939Y-83215000D01*
X215448061Y-83215000D01*
X215248102Y-83254774D01*
X215059744Y-83332795D01*
X214890226Y-83446063D01*
X214746063Y-83590226D01*
X214632795Y-83759744D01*
X214556888Y-83942999D01*
X214534471Y-83901060D01*
X214439573Y-83785427D01*
X214323940Y-83690529D01*
X214192015Y-83620013D01*
X214169362Y-83613141D01*
X214103937Y-83515226D01*
X213959774Y-83371063D01*
X213790256Y-83257795D01*
X213601898Y-83179774D01*
X213401939Y-83140000D01*
X213198061Y-83140000D01*
X212998102Y-83179774D01*
X212809744Y-83257795D01*
X212788072Y-83272276D01*
X212788072Y-82450000D01*
X212773410Y-82301132D01*
X212729987Y-82157985D01*
X212659471Y-82026060D01*
X212564573Y-81910427D01*
X212448940Y-81815529D01*
X212317015Y-81745013D01*
X212173868Y-81701590D01*
X212025000Y-81686928D01*
X211775000Y-81686928D01*
X211626132Y-81701590D01*
X211500000Y-81739852D01*
X211373868Y-81701590D01*
X211225000Y-81686928D01*
X210975000Y-81686928D01*
X210826132Y-81701590D01*
X210753861Y-81723513D01*
X210683773Y-81701109D01*
X210581750Y-81690000D01*
X210427002Y-81844748D01*
X210427002Y-81690000D01*
X210385000Y-81690000D01*
X210385000Y-80366578D01*
X210862227Y-79889352D01*
X210993957Y-79977371D01*
X211246011Y-80081775D01*
X211513589Y-80135000D01*
X211786411Y-80135000D01*
X212053989Y-80081775D01*
X212306043Y-79977371D01*
X212532886Y-79825799D01*
X212725799Y-79632886D01*
X212877371Y-79406043D01*
X212981775Y-79153989D01*
X213035000Y-78886411D01*
X213035000Y-78613589D01*
X212981775Y-78346011D01*
X212877371Y-78093957D01*
X212725799Y-77867114D01*
X212532886Y-77674201D01*
X212306043Y-77522629D01*
X212053989Y-77418225D01*
X211786411Y-77365000D01*
X211513589Y-77365000D01*
X211246011Y-77418225D01*
X210993957Y-77522629D01*
X210767114Y-77674201D01*
X210574201Y-77867114D01*
X210564655Y-77881401D01*
X210525903Y-77893157D01*
X210409687Y-77928411D01*
X210255941Y-78010589D01*
X210255939Y-78010590D01*
X210255940Y-78010590D01*
X210154953Y-78093468D01*
X210154951Y-78093470D01*
X210121183Y-78121183D01*
X210093470Y-78154951D01*
X209100000Y-79148421D01*
X208106534Y-78154956D01*
X208078817Y-78121183D01*
X207944059Y-78010589D01*
X207940337Y-78008599D01*
X207845799Y-77867114D01*
X207652886Y-77674201D01*
X207426043Y-77522629D01*
X207173989Y-77418225D01*
X206906411Y-77365000D01*
X206633589Y-77365000D01*
X206366011Y-77418225D01*
X206113957Y-77522629D01*
X205887114Y-77674201D01*
X205694201Y-77867114D01*
X205542629Y-78093957D01*
X205438225Y-78346011D01*
X205385000Y-78613589D01*
X205385000Y-78886411D01*
X205438225Y-79153989D01*
X205542629Y-79406043D01*
X205642159Y-79555000D01*
X201624747Y-79555000D01*
X201543475Y-79433368D01*
X201336632Y-79226525D01*
X201154466Y-79104805D01*
X201271355Y-79035178D01*
X201487588Y-78840269D01*
X201661641Y-78606920D01*
X201786825Y-78344099D01*
X201831476Y-78196890D01*
X201710155Y-77967000D01*
X200517000Y-77967000D01*
X200517000Y-77987000D01*
X200263000Y-77987000D01*
X200263000Y-77967000D01*
X200243000Y-77967000D01*
X200243000Y-77713000D01*
X200263000Y-77713000D01*
X200263000Y-77693000D01*
X200517000Y-77693000D01*
X200517000Y-77713000D01*
X201710155Y-77713000D01*
X201831476Y-77483110D01*
X201786825Y-77335901D01*
X201661641Y-77073080D01*
X201487588Y-76839731D01*
X201271355Y-76644822D01*
X201021252Y-76495843D01*
X200746891Y-76398519D01*
X200517002Y-76519185D01*
X200517002Y-76360000D01*
X216024850Y-76360000D01*
X215986595Y-76406614D01*
G36*
X210111928Y-96100000D02*
G01*
X210124188Y-96224482D01*
X210160498Y-96344180D01*
X210219463Y-96454494D01*
X210298815Y-96551185D01*
X210395506Y-96630537D01*
X210505820Y-96689502D01*
X210625518Y-96725812D01*
X210652314Y-96728451D01*
X210714236Y-96932580D01*
X210842844Y-97173188D01*
X210972548Y-97331233D01*
X210972551Y-97331236D01*
X211015920Y-97384081D01*
X211068764Y-97427449D01*
X216615000Y-102973686D01*
X216615000Y-103140581D01*
X216689361Y-103514419D01*
X216835225Y-103866566D01*
X217046987Y-104183491D01*
X217316509Y-104453013D01*
X217633434Y-104664775D01*
X217985581Y-104810639D01*
X218133189Y-104840000D01*
X213966811Y-104840000D01*
X214114419Y-104810639D01*
X214466566Y-104664775D01*
X214783491Y-104453013D01*
X215053013Y-104183491D01*
X215264775Y-103866566D01*
X215410639Y-103514419D01*
X215485000Y-103140581D01*
X215485000Y-102759419D01*
X215410639Y-102385581D01*
X215264775Y-102033434D01*
X215053013Y-101716509D01*
X214783491Y-101446987D01*
X214466566Y-101235225D01*
X214114419Y-101089361D01*
X213740581Y-101015000D01*
X213359419Y-101015000D01*
X212985581Y-101089361D01*
X212954015Y-101102436D01*
X209089432Y-97237854D01*
X209139502Y-97144180D01*
X209175812Y-97024482D01*
X209188072Y-96900000D01*
X209188072Y-96000000D01*
X209175812Y-95875518D01*
X209139502Y-95755820D01*
X209080537Y-95645506D01*
X209001185Y-95548815D01*
X208988095Y-95538072D01*
X209500000Y-95538072D01*
X209624482Y-95525812D01*
X209744180Y-95489502D01*
X209854494Y-95430537D01*
X209951185Y-95351185D01*
X210030537Y-95254494D01*
X210089502Y-95144180D01*
X210111928Y-95070251D01*
X210111928Y-96100000D01*
G37*
X210111928Y-96100000D02*
X210124188Y-96224482D01*
X210160498Y-96344180D01*
X210219463Y-96454494D01*
X210298815Y-96551185D01*
X210395506Y-96630537D01*
X210505820Y-96689502D01*
X210625518Y-96725812D01*
X210652314Y-96728451D01*
X210714236Y-96932580D01*
X210842844Y-97173188D01*
X210972548Y-97331233D01*
X210972551Y-97331236D01*
X211015920Y-97384081D01*
X211068764Y-97427449D01*
X216615000Y-102973686D01*
X216615000Y-103140581D01*
X216689361Y-103514419D01*
X216835225Y-103866566D01*
X217046987Y-104183491D01*
X217316509Y-104453013D01*
X217633434Y-104664775D01*
X217985581Y-104810639D01*
X218133189Y-104840000D01*
X213966811Y-104840000D01*
X214114419Y-104810639D01*
X214466566Y-104664775D01*
X214783491Y-104453013D01*
X215053013Y-104183491D01*
X215264775Y-103866566D01*
X215410639Y-103514419D01*
X215485000Y-103140581D01*
X215485000Y-102759419D01*
X215410639Y-102385581D01*
X215264775Y-102033434D01*
X215053013Y-101716509D01*
X214783491Y-101446987D01*
X214466566Y-101235225D01*
X214114419Y-101089361D01*
X213740581Y-101015000D01*
X213359419Y-101015000D01*
X212985581Y-101089361D01*
X212954015Y-101102436D01*
X209089432Y-97237854D01*
X209139502Y-97144180D01*
X209175812Y-97024482D01*
X209188072Y-96900000D01*
X209188072Y-96000000D01*
X209175812Y-95875518D01*
X209139502Y-95755820D01*
X209080537Y-95645506D01*
X209001185Y-95548815D01*
X208988095Y-95538072D01*
X209500000Y-95538072D01*
X209624482Y-95525812D01*
X209744180Y-95489502D01*
X209854494Y-95430537D01*
X209951185Y-95351185D01*
X210030537Y-95254494D01*
X210089502Y-95144180D01*
X210111928Y-95070251D01*
X210111928Y-96100000D01*
G36*
X201702436Y-102354015D02*
G01*
X201689361Y-102385581D01*
X201615000Y-102759419D01*
X201615000Y-103140581D01*
X201689361Y-103514419D01*
X201835225Y-103866566D01*
X202046987Y-104183491D01*
X202316509Y-104453013D01*
X202633434Y-104664775D01*
X202985581Y-104810639D01*
X203133189Y-104840000D01*
X200092538Y-104840000D01*
X200094180Y-104839502D01*
X200204494Y-104780537D01*
X200301185Y-104701185D01*
X200380537Y-104604494D01*
X200439502Y-104494180D01*
X200475812Y-104374482D01*
X200488072Y-104250000D01*
X200488072Y-101650000D01*
X200475812Y-101525518D01*
X200439502Y-101405820D01*
X200380537Y-101295506D01*
X200301185Y-101198815D01*
X200204494Y-101119463D01*
X200094180Y-101060498D01*
X199974482Y-101024188D01*
X199850000Y-101011928D01*
X199750000Y-101011928D01*
X199750000Y-100401578D01*
X201702436Y-102354015D01*
G37*
X201702436Y-102354015D02*
X201689361Y-102385581D01*
X201615000Y-102759419D01*
X201615000Y-103140581D01*
X201689361Y-103514419D01*
X201835225Y-103866566D01*
X202046987Y-104183491D01*
X202316509Y-104453013D01*
X202633434Y-104664775D01*
X202985581Y-104810639D01*
X203133189Y-104840000D01*
X200092538Y-104840000D01*
X200094180Y-104839502D01*
X200204494Y-104780537D01*
X200301185Y-104701185D01*
X200380537Y-104604494D01*
X200439502Y-104494180D01*
X200475812Y-104374482D01*
X200488072Y-104250000D01*
X200488072Y-101650000D01*
X200475812Y-101525518D01*
X200439502Y-101405820D01*
X200380537Y-101295506D01*
X200301185Y-101198815D01*
X200204494Y-101119463D01*
X200094180Y-101060498D01*
X199974482Y-101024188D01*
X199850000Y-101011928D01*
X199750000Y-101011928D01*
X199750000Y-100401578D01*
X201702436Y-102354015D01*
G36*
X207327000Y-94323000D02*
G01*
X207347000Y-94323000D01*
X207347000Y-94577000D01*
X207327000Y-94577000D01*
X207327000Y-95376250D01*
X207411607Y-95460857D01*
X207395506Y-95469463D01*
X207298815Y-95548815D01*
X207219463Y-95645506D01*
X207160498Y-95755820D01*
X207124188Y-95875518D01*
X207111928Y-96000000D01*
X207111928Y-96900000D01*
X207124188Y-97024482D01*
X207160498Y-97144180D01*
X207219463Y-97254494D01*
X207265001Y-97309982D01*
X207265001Y-97506522D01*
X207260719Y-97550000D01*
X207277805Y-97723490D01*
X207328412Y-97890313D01*
X207410590Y-98044059D01*
X207493468Y-98145046D01*
X207493471Y-98145049D01*
X207521184Y-98178817D01*
X207554952Y-98206530D01*
X211702436Y-102354015D01*
X211689361Y-102385581D01*
X211615000Y-102759419D01*
X211615000Y-103140581D01*
X211689361Y-103514419D01*
X211835225Y-103866566D01*
X212046987Y-104183491D01*
X212316509Y-104453013D01*
X212633434Y-104664775D01*
X212985581Y-104810639D01*
X213133189Y-104840000D01*
X208966811Y-104840000D01*
X209114419Y-104810639D01*
X209466566Y-104664775D01*
X209783491Y-104453013D01*
X210053013Y-104183491D01*
X210264775Y-103866566D01*
X210410639Y-103514419D01*
X210485000Y-103140581D01*
X210485000Y-102759419D01*
X210410639Y-102385581D01*
X210264775Y-102033434D01*
X210053013Y-101716509D01*
X209783491Y-101446987D01*
X209466566Y-101235225D01*
X209114419Y-101089361D01*
X208740581Y-101015000D01*
X208359419Y-101015000D01*
X207985581Y-101089361D01*
X207954015Y-101102436D01*
X205135000Y-98283422D01*
X205135000Y-97309981D01*
X205180537Y-97254494D01*
X205239502Y-97144180D01*
X205275812Y-97024482D01*
X205288072Y-96900000D01*
X205288072Y-96000000D01*
X205275812Y-95875518D01*
X205239502Y-95755820D01*
X205180537Y-95645506D01*
X205101185Y-95548815D01*
X205088095Y-95538072D01*
X205600000Y-95538072D01*
X205724482Y-95525812D01*
X205844180Y-95489502D01*
X205954494Y-95430537D01*
X206051185Y-95351185D01*
X206130537Y-95254494D01*
X206189502Y-95144180D01*
X206200000Y-95109573D01*
X206210498Y-95144180D01*
X206269463Y-95254494D01*
X206348815Y-95351185D01*
X206445506Y-95430537D01*
X206555820Y-95489502D01*
X206675518Y-95525812D01*
X206800000Y-95538072D01*
X206914250Y-95535000D01*
X207073000Y-95376250D01*
X207073000Y-94577000D01*
X207053000Y-94577000D01*
X207053000Y-94323000D01*
X207073000Y-94323000D01*
X207073000Y-94303000D01*
X207327000Y-94303000D01*
X207327000Y-94323000D01*
G37*
X207327000Y-94323000D02*
X207347000Y-94323000D01*
X207347000Y-94577000D01*
X207327000Y-94577000D01*
X207327000Y-95376250D01*
X207411607Y-95460857D01*
X207395506Y-95469463D01*
X207298815Y-95548815D01*
X207219463Y-95645506D01*
X207160498Y-95755820D01*
X207124188Y-95875518D01*
X207111928Y-96000000D01*
X207111928Y-96900000D01*
X207124188Y-97024482D01*
X207160498Y-97144180D01*
X207219463Y-97254494D01*
X207265001Y-97309982D01*
X207265001Y-97506522D01*
X207260719Y-97550000D01*
X207277805Y-97723490D01*
X207328412Y-97890313D01*
X207410590Y-98044059D01*
X207493468Y-98145046D01*
X207493471Y-98145049D01*
X207521184Y-98178817D01*
X207554952Y-98206530D01*
X211702436Y-102354015D01*
X211689361Y-102385581D01*
X211615000Y-102759419D01*
X211615000Y-103140581D01*
X211689361Y-103514419D01*
X211835225Y-103866566D01*
X212046987Y-104183491D01*
X212316509Y-104453013D01*
X212633434Y-104664775D01*
X212985581Y-104810639D01*
X213133189Y-104840000D01*
X208966811Y-104840000D01*
X209114419Y-104810639D01*
X209466566Y-104664775D01*
X209783491Y-104453013D01*
X210053013Y-104183491D01*
X210264775Y-103866566D01*
X210410639Y-103514419D01*
X210485000Y-103140581D01*
X210485000Y-102759419D01*
X210410639Y-102385581D01*
X210264775Y-102033434D01*
X210053013Y-101716509D01*
X209783491Y-101446987D01*
X209466566Y-101235225D01*
X209114419Y-101089361D01*
X208740581Y-101015000D01*
X208359419Y-101015000D01*
X207985581Y-101089361D01*
X207954015Y-101102436D01*
X205135000Y-98283422D01*
X205135000Y-97309981D01*
X205180537Y-97254494D01*
X205239502Y-97144180D01*
X205275812Y-97024482D01*
X205288072Y-96900000D01*
X205288072Y-96000000D01*
X205275812Y-95875518D01*
X205239502Y-95755820D01*
X205180537Y-95645506D01*
X205101185Y-95548815D01*
X205088095Y-95538072D01*
X205600000Y-95538072D01*
X205724482Y-95525812D01*
X205844180Y-95489502D01*
X205954494Y-95430537D01*
X206051185Y-95351185D01*
X206130537Y-95254494D01*
X206189502Y-95144180D01*
X206200000Y-95109573D01*
X206210498Y-95144180D01*
X206269463Y-95254494D01*
X206348815Y-95351185D01*
X206445506Y-95430537D01*
X206555820Y-95489502D01*
X206675518Y-95525812D01*
X206800000Y-95538072D01*
X206914250Y-95535000D01*
X207073000Y-95376250D01*
X207073000Y-94577000D01*
X207053000Y-94577000D01*
X207053000Y-94323000D01*
X207073000Y-94323000D01*
X207073000Y-94303000D01*
X207327000Y-94303000D01*
X207327000Y-94323000D01*
G36*
X196716916Y-97126582D02*
G01*
X196789742Y-97262829D01*
X196887749Y-97382251D01*
X197007171Y-97480258D01*
X197143418Y-97553084D01*
X197291255Y-97597929D01*
X197445000Y-97613072D01*
X197745000Y-97613072D01*
X197898745Y-97597929D01*
X197980000Y-97573281D01*
X197980001Y-101011928D01*
X197250000Y-101011928D01*
X197125518Y-101024188D01*
X197005820Y-101060498D01*
X196895506Y-101119463D01*
X196798815Y-101198815D01*
X196719463Y-101295506D01*
X196710000Y-101313210D01*
X196710000Y-97103783D01*
X196716916Y-97126582D01*
G37*
X196716916Y-97126582D02*
X196789742Y-97262829D01*
X196887749Y-97382251D01*
X197007171Y-97480258D01*
X197143418Y-97553084D01*
X197291255Y-97597929D01*
X197445000Y-97613072D01*
X197745000Y-97613072D01*
X197898745Y-97597929D01*
X197980000Y-97573281D01*
X197980001Y-101011928D01*
X197250000Y-101011928D01*
X197125518Y-101024188D01*
X197005820Y-101060498D01*
X196895506Y-101119463D01*
X196798815Y-101198815D01*
X196719463Y-101295506D01*
X196710000Y-101313210D01*
X196710000Y-97103783D01*
X196716916Y-97126582D01*
G36*
X200262000Y-90923000D02*
G01*
X200282000Y-90923000D01*
X200282000Y-91177000D01*
X200262000Y-91177000D01*
X200262000Y-91197000D01*
X200008000Y-91197000D01*
X200008000Y-91177000D01*
X199988000Y-91177000D01*
X199988000Y-90923000D01*
X200008000Y-90923000D01*
X200008000Y-90903000D01*
X200262000Y-90903000D01*
X200262000Y-90923000D01*
G37*
X200262000Y-90923000D02*
X200282000Y-90923000D01*
X200282000Y-91177000D01*
X200262000Y-91177000D01*
X200262000Y-91197000D01*
X200008000Y-91197000D01*
X200008000Y-91177000D01*
X199988000Y-91177000D01*
X199988000Y-90923000D01*
X200008000Y-90923000D01*
X200008000Y-90903000D01*
X200262000Y-90903000D01*
X200262000Y-90923000D01*
G36*
X206448102Y-86995226D02*
G01*
X206504957Y-87006535D01*
X208615001Y-89116580D01*
X208615000Y-90036928D01*
X208575000Y-90036928D01*
X208426132Y-90051590D01*
X208300000Y-90089852D01*
X208173868Y-90051590D01*
X208025000Y-90036928D01*
X207775000Y-90036928D01*
X207626132Y-90051590D01*
X207500000Y-90089852D01*
X207373868Y-90051590D01*
X207225000Y-90036928D01*
X206975000Y-90036928D01*
X206826132Y-90051590D01*
X206700000Y-90089852D01*
X206573868Y-90051590D01*
X206425000Y-90036928D01*
X206313072Y-90036928D01*
X206313072Y-89925000D01*
X206298410Y-89776132D01*
X206260148Y-89650000D01*
X206298410Y-89523868D01*
X206313072Y-89375000D01*
X206313072Y-89125000D01*
X206298410Y-88976132D01*
X206260148Y-88850000D01*
X206298410Y-88723868D01*
X206313072Y-88575000D01*
X206313072Y-88325000D01*
X206298410Y-88176132D01*
X206260148Y-88050000D01*
X206298410Y-87923868D01*
X206313072Y-87775000D01*
X206313072Y-87525000D01*
X206298410Y-87376132D01*
X206260148Y-87250000D01*
X206298410Y-87123868D01*
X206313072Y-86975000D01*
X206313072Y-86939294D01*
X206448102Y-86995226D01*
G37*
X206448102Y-86995226D02*
X206504957Y-87006535D01*
X208615001Y-89116580D01*
X208615000Y-90036928D01*
X208575000Y-90036928D01*
X208426132Y-90051590D01*
X208300000Y-90089852D01*
X208173868Y-90051590D01*
X208025000Y-90036928D01*
X207775000Y-90036928D01*
X207626132Y-90051590D01*
X207500000Y-90089852D01*
X207373868Y-90051590D01*
X207225000Y-90036928D01*
X206975000Y-90036928D01*
X206826132Y-90051590D01*
X206700000Y-90089852D01*
X206573868Y-90051590D01*
X206425000Y-90036928D01*
X206313072Y-90036928D01*
X206313072Y-89925000D01*
X206298410Y-89776132D01*
X206260148Y-89650000D01*
X206298410Y-89523868D01*
X206313072Y-89375000D01*
X206313072Y-89125000D01*
X206298410Y-88976132D01*
X206260148Y-88850000D01*
X206298410Y-88723868D01*
X206313072Y-88575000D01*
X206313072Y-88325000D01*
X206298410Y-88176132D01*
X206260148Y-88050000D01*
X206298410Y-87923868D01*
X206313072Y-87775000D01*
X206313072Y-87525000D01*
X206298410Y-87376132D01*
X206260148Y-87250000D01*
X206298410Y-87123868D01*
X206313072Y-86975000D01*
X206313072Y-86939294D01*
X206448102Y-86995226D01*
G36*
X210065000Y-84501939D02*
G01*
X210104774Y-84701898D01*
X210182795Y-84890256D01*
X210215001Y-84938455D01*
X210215001Y-85394710D01*
X210210719Y-85438188D01*
X210227805Y-85611678D01*
X210278412Y-85778501D01*
X210360590Y-85932247D01*
X210443468Y-86033234D01*
X210443471Y-86033237D01*
X210471184Y-86067005D01*
X210504951Y-86094717D01*
X211855282Y-87445049D01*
X211882995Y-87478817D01*
X211916763Y-87506530D01*
X211916765Y-87506532D01*
X212017753Y-87589411D01*
X212171498Y-87671589D01*
X212228911Y-87689005D01*
X212226060Y-87690529D01*
X212125569Y-87773000D01*
X212048750Y-87773000D01*
X211890000Y-87931750D01*
X211901109Y-88033773D01*
X211923513Y-88103861D01*
X211901590Y-88176132D01*
X211886928Y-88325000D01*
X211886928Y-88352842D01*
X211839411Y-88263943D01*
X211756532Y-88162955D01*
X211756530Y-88162953D01*
X211728817Y-88129185D01*
X211695049Y-88101472D01*
X209122577Y-85529001D01*
X209145044Y-85506535D01*
X209201898Y-85495226D01*
X209390256Y-85417205D01*
X209559774Y-85303937D01*
X209703937Y-85159774D01*
X209817205Y-84990256D01*
X209895226Y-84801898D01*
X209935000Y-84601939D01*
X209935000Y-84450935D01*
X210018250Y-84460000D01*
X210065000Y-84413250D01*
X210065000Y-84501939D01*
G37*
X210065000Y-84501939D02*
X210104774Y-84701898D01*
X210182795Y-84890256D01*
X210215001Y-84938455D01*
X210215001Y-85394710D01*
X210210719Y-85438188D01*
X210227805Y-85611678D01*
X210278412Y-85778501D01*
X210360590Y-85932247D01*
X210443468Y-86033234D01*
X210443471Y-86033237D01*
X210471184Y-86067005D01*
X210504951Y-86094717D01*
X211855282Y-87445049D01*
X211882995Y-87478817D01*
X211916763Y-87506530D01*
X211916765Y-87506532D01*
X212017753Y-87589411D01*
X212171498Y-87671589D01*
X212228911Y-87689005D01*
X212226060Y-87690529D01*
X212125569Y-87773000D01*
X212048750Y-87773000D01*
X211890000Y-87931750D01*
X211901109Y-88033773D01*
X211923513Y-88103861D01*
X211901590Y-88176132D01*
X211886928Y-88325000D01*
X211886928Y-88352842D01*
X211839411Y-88263943D01*
X211756532Y-88162955D01*
X211756530Y-88162953D01*
X211728817Y-88129185D01*
X211695049Y-88101472D01*
X209122577Y-85529001D01*
X209145044Y-85506535D01*
X209201898Y-85495226D01*
X209390256Y-85417205D01*
X209559774Y-85303937D01*
X209703937Y-85159774D01*
X209817205Y-84990256D01*
X209895226Y-84801898D01*
X209935000Y-84601939D01*
X209935000Y-84450935D01*
X210018250Y-84460000D01*
X210065000Y-84413250D01*
X210065000Y-84501939D01*
M02*
