G04 #@! TF.GenerationSoftware,KiCad,Pcbnew,5.1.6-c6e7f7d~86~ubuntu18.04.1*
G04 #@! TF.CreationDate,2020-05-23T21:04:01+02:00*
G04 #@! TF.ProjectId,sci2can,73636932-6361-46e2-9e6b-696361645f70,1.00*
G04 #@! TF.SameCoordinates,Original*
G04 #@! TF.FileFunction,Paste,Top*
G04 #@! TF.FilePolarity,Positive*
%FSLAX46Y46*%
G04 Gerber Fmt 4.6, Leading zero omitted, Abs format (unit mm)*
G04 Created by KiCad (PCBNEW 5.1.6-c6e7f7d~86~ubuntu18.04.1) date 2020-05-23 21:04:01*
%MOMM*%
%LPD*%
G01*
G04 APERTURE LIST*
%ADD10R,0.800000X0.900000*%
%ADD11R,2.500000X2.300000*%
G04 APERTURE END LIST*
G36*
G01*
X207112500Y-152150000D02*
X207587500Y-152150000D01*
G75*
G02*
X207825000Y-152387500I0J-237500D01*
G01*
X207825000Y-152962500D01*
G75*
G02*
X207587500Y-153200000I-237500J0D01*
G01*
X207112500Y-153200000D01*
G75*
G02*
X206875000Y-152962500I0J237500D01*
G01*
X206875000Y-152387500D01*
G75*
G02*
X207112500Y-152150000I237500J0D01*
G01*
G37*
G36*
G01*
X207112500Y-150400000D02*
X207587500Y-150400000D01*
G75*
G02*
X207825000Y-150637500I0J-237500D01*
G01*
X207825000Y-151212500D01*
G75*
G02*
X207587500Y-151450000I-237500J0D01*
G01*
X207112500Y-151450000D01*
G75*
G02*
X206875000Y-151212500I0J237500D01*
G01*
X206875000Y-150637500D01*
G75*
G02*
X207112500Y-150400000I237500J0D01*
G01*
G37*
D10*
X204000000Y-152800000D03*
X203050000Y-150800000D03*
X204950000Y-150800000D03*
G36*
G01*
X201905000Y-147050000D02*
X202205000Y-147050000D01*
G75*
G02*
X202355000Y-147200000I0J-150000D01*
G01*
X202355000Y-148850000D01*
G75*
G02*
X202205000Y-149000000I-150000J0D01*
G01*
X201905000Y-149000000D01*
G75*
G02*
X201755000Y-148850000I0J150000D01*
G01*
X201755000Y-147200000D01*
G75*
G02*
X201905000Y-147050000I150000J0D01*
G01*
G37*
G36*
G01*
X200635000Y-147050000D02*
X200935000Y-147050000D01*
G75*
G02*
X201085000Y-147200000I0J-150000D01*
G01*
X201085000Y-148850000D01*
G75*
G02*
X200935000Y-149000000I-150000J0D01*
G01*
X200635000Y-149000000D01*
G75*
G02*
X200485000Y-148850000I0J150000D01*
G01*
X200485000Y-147200000D01*
G75*
G02*
X200635000Y-147050000I150000J0D01*
G01*
G37*
G36*
G01*
X199365000Y-147050000D02*
X199665000Y-147050000D01*
G75*
G02*
X199815000Y-147200000I0J-150000D01*
G01*
X199815000Y-148850000D01*
G75*
G02*
X199665000Y-149000000I-150000J0D01*
G01*
X199365000Y-149000000D01*
G75*
G02*
X199215000Y-148850000I0J150000D01*
G01*
X199215000Y-147200000D01*
G75*
G02*
X199365000Y-147050000I150000J0D01*
G01*
G37*
G36*
G01*
X198095000Y-147050000D02*
X198395000Y-147050000D01*
G75*
G02*
X198545000Y-147200000I0J-150000D01*
G01*
X198545000Y-148850000D01*
G75*
G02*
X198395000Y-149000000I-150000J0D01*
G01*
X198095000Y-149000000D01*
G75*
G02*
X197945000Y-148850000I0J150000D01*
G01*
X197945000Y-147200000D01*
G75*
G02*
X198095000Y-147050000I150000J0D01*
G01*
G37*
G36*
G01*
X198095000Y-142100000D02*
X198395000Y-142100000D01*
G75*
G02*
X198545000Y-142250000I0J-150000D01*
G01*
X198545000Y-143900000D01*
G75*
G02*
X198395000Y-144050000I-150000J0D01*
G01*
X198095000Y-144050000D01*
G75*
G02*
X197945000Y-143900000I0J150000D01*
G01*
X197945000Y-142250000D01*
G75*
G02*
X198095000Y-142100000I150000J0D01*
G01*
G37*
G36*
G01*
X199365000Y-142100000D02*
X199665000Y-142100000D01*
G75*
G02*
X199815000Y-142250000I0J-150000D01*
G01*
X199815000Y-143900000D01*
G75*
G02*
X199665000Y-144050000I-150000J0D01*
G01*
X199365000Y-144050000D01*
G75*
G02*
X199215000Y-143900000I0J150000D01*
G01*
X199215000Y-142250000D01*
G75*
G02*
X199365000Y-142100000I150000J0D01*
G01*
G37*
G36*
G01*
X200635000Y-142100000D02*
X200935000Y-142100000D01*
G75*
G02*
X201085000Y-142250000I0J-150000D01*
G01*
X201085000Y-143900000D01*
G75*
G02*
X200935000Y-144050000I-150000J0D01*
G01*
X200635000Y-144050000D01*
G75*
G02*
X200485000Y-143900000I0J150000D01*
G01*
X200485000Y-142250000D01*
G75*
G02*
X200635000Y-142100000I150000J0D01*
G01*
G37*
G36*
G01*
X201905000Y-142100000D02*
X202205000Y-142100000D01*
G75*
G02*
X202355000Y-142250000I0J-150000D01*
G01*
X202355000Y-143900000D01*
G75*
G02*
X202205000Y-144050000I-150000J0D01*
G01*
X201905000Y-144050000D01*
G75*
G02*
X201755000Y-143900000I0J150000D01*
G01*
X201755000Y-142250000D01*
G75*
G02*
X201905000Y-142100000I150000J0D01*
G01*
G37*
G36*
G01*
X213300000Y-140900000D02*
X214550000Y-140900000D01*
G75*
G02*
X214675000Y-141025000I0J-125000D01*
G01*
X214675000Y-141275000D01*
G75*
G02*
X214550000Y-141400000I-125000J0D01*
G01*
X213300000Y-141400000D01*
G75*
G02*
X213175000Y-141275000I0J125000D01*
G01*
X213175000Y-141025000D01*
G75*
G02*
X213300000Y-140900000I125000J0D01*
G01*
G37*
G36*
G01*
X213300000Y-141700000D02*
X214550000Y-141700000D01*
G75*
G02*
X214675000Y-141825000I0J-125000D01*
G01*
X214675000Y-142075000D01*
G75*
G02*
X214550000Y-142200000I-125000J0D01*
G01*
X213300000Y-142200000D01*
G75*
G02*
X213175000Y-142075000I0J125000D01*
G01*
X213175000Y-141825000D01*
G75*
G02*
X213300000Y-141700000I125000J0D01*
G01*
G37*
G36*
G01*
X213300000Y-142500000D02*
X214550000Y-142500000D01*
G75*
G02*
X214675000Y-142625000I0J-125000D01*
G01*
X214675000Y-142875000D01*
G75*
G02*
X214550000Y-143000000I-125000J0D01*
G01*
X213300000Y-143000000D01*
G75*
G02*
X213175000Y-142875000I0J125000D01*
G01*
X213175000Y-142625000D01*
G75*
G02*
X213300000Y-142500000I125000J0D01*
G01*
G37*
G36*
G01*
X213300000Y-143300000D02*
X214550000Y-143300000D01*
G75*
G02*
X214675000Y-143425000I0J-125000D01*
G01*
X214675000Y-143675000D01*
G75*
G02*
X214550000Y-143800000I-125000J0D01*
G01*
X213300000Y-143800000D01*
G75*
G02*
X213175000Y-143675000I0J125000D01*
G01*
X213175000Y-143425000D01*
G75*
G02*
X213300000Y-143300000I125000J0D01*
G01*
G37*
G36*
G01*
X213300000Y-144100000D02*
X214550000Y-144100000D01*
G75*
G02*
X214675000Y-144225000I0J-125000D01*
G01*
X214675000Y-144475000D01*
G75*
G02*
X214550000Y-144600000I-125000J0D01*
G01*
X213300000Y-144600000D01*
G75*
G02*
X213175000Y-144475000I0J125000D01*
G01*
X213175000Y-144225000D01*
G75*
G02*
X213300000Y-144100000I125000J0D01*
G01*
G37*
G36*
G01*
X213300000Y-144900000D02*
X214550000Y-144900000D01*
G75*
G02*
X214675000Y-145025000I0J-125000D01*
G01*
X214675000Y-145275000D01*
G75*
G02*
X214550000Y-145400000I-125000J0D01*
G01*
X213300000Y-145400000D01*
G75*
G02*
X213175000Y-145275000I0J125000D01*
G01*
X213175000Y-145025000D01*
G75*
G02*
X213300000Y-144900000I125000J0D01*
G01*
G37*
G36*
G01*
X213300000Y-145700000D02*
X214550000Y-145700000D01*
G75*
G02*
X214675000Y-145825000I0J-125000D01*
G01*
X214675000Y-146075000D01*
G75*
G02*
X214550000Y-146200000I-125000J0D01*
G01*
X213300000Y-146200000D01*
G75*
G02*
X213175000Y-146075000I0J125000D01*
G01*
X213175000Y-145825000D01*
G75*
G02*
X213300000Y-145700000I125000J0D01*
G01*
G37*
G36*
G01*
X213300000Y-146500000D02*
X214550000Y-146500000D01*
G75*
G02*
X214675000Y-146625000I0J-125000D01*
G01*
X214675000Y-146875000D01*
G75*
G02*
X214550000Y-147000000I-125000J0D01*
G01*
X213300000Y-147000000D01*
G75*
G02*
X213175000Y-146875000I0J125000D01*
G01*
X213175000Y-146625000D01*
G75*
G02*
X213300000Y-146500000I125000J0D01*
G01*
G37*
G36*
G01*
X212425000Y-147375000D02*
X212675000Y-147375000D01*
G75*
G02*
X212800000Y-147500000I0J-125000D01*
G01*
X212800000Y-148750000D01*
G75*
G02*
X212675000Y-148875000I-125000J0D01*
G01*
X212425000Y-148875000D01*
G75*
G02*
X212300000Y-148750000I0J125000D01*
G01*
X212300000Y-147500000D01*
G75*
G02*
X212425000Y-147375000I125000J0D01*
G01*
G37*
G36*
G01*
X211625000Y-147375000D02*
X211875000Y-147375000D01*
G75*
G02*
X212000000Y-147500000I0J-125000D01*
G01*
X212000000Y-148750000D01*
G75*
G02*
X211875000Y-148875000I-125000J0D01*
G01*
X211625000Y-148875000D01*
G75*
G02*
X211500000Y-148750000I0J125000D01*
G01*
X211500000Y-147500000D01*
G75*
G02*
X211625000Y-147375000I125000J0D01*
G01*
G37*
G36*
G01*
X210825000Y-147375000D02*
X211075000Y-147375000D01*
G75*
G02*
X211200000Y-147500000I0J-125000D01*
G01*
X211200000Y-148750000D01*
G75*
G02*
X211075000Y-148875000I-125000J0D01*
G01*
X210825000Y-148875000D01*
G75*
G02*
X210700000Y-148750000I0J125000D01*
G01*
X210700000Y-147500000D01*
G75*
G02*
X210825000Y-147375000I125000J0D01*
G01*
G37*
G36*
G01*
X210025000Y-147375000D02*
X210275000Y-147375000D01*
G75*
G02*
X210400000Y-147500000I0J-125000D01*
G01*
X210400000Y-148750000D01*
G75*
G02*
X210275000Y-148875000I-125000J0D01*
G01*
X210025000Y-148875000D01*
G75*
G02*
X209900000Y-148750000I0J125000D01*
G01*
X209900000Y-147500000D01*
G75*
G02*
X210025000Y-147375000I125000J0D01*
G01*
G37*
G36*
G01*
X209225000Y-147375000D02*
X209475000Y-147375000D01*
G75*
G02*
X209600000Y-147500000I0J-125000D01*
G01*
X209600000Y-148750000D01*
G75*
G02*
X209475000Y-148875000I-125000J0D01*
G01*
X209225000Y-148875000D01*
G75*
G02*
X209100000Y-148750000I0J125000D01*
G01*
X209100000Y-147500000D01*
G75*
G02*
X209225000Y-147375000I125000J0D01*
G01*
G37*
G36*
G01*
X208425000Y-147375000D02*
X208675000Y-147375000D01*
G75*
G02*
X208800000Y-147500000I0J-125000D01*
G01*
X208800000Y-148750000D01*
G75*
G02*
X208675000Y-148875000I-125000J0D01*
G01*
X208425000Y-148875000D01*
G75*
G02*
X208300000Y-148750000I0J125000D01*
G01*
X208300000Y-147500000D01*
G75*
G02*
X208425000Y-147375000I125000J0D01*
G01*
G37*
G36*
G01*
X207625000Y-147375000D02*
X207875000Y-147375000D01*
G75*
G02*
X208000000Y-147500000I0J-125000D01*
G01*
X208000000Y-148750000D01*
G75*
G02*
X207875000Y-148875000I-125000J0D01*
G01*
X207625000Y-148875000D01*
G75*
G02*
X207500000Y-148750000I0J125000D01*
G01*
X207500000Y-147500000D01*
G75*
G02*
X207625000Y-147375000I125000J0D01*
G01*
G37*
G36*
G01*
X206825000Y-147375000D02*
X207075000Y-147375000D01*
G75*
G02*
X207200000Y-147500000I0J-125000D01*
G01*
X207200000Y-148750000D01*
G75*
G02*
X207075000Y-148875000I-125000J0D01*
G01*
X206825000Y-148875000D01*
G75*
G02*
X206700000Y-148750000I0J125000D01*
G01*
X206700000Y-147500000D01*
G75*
G02*
X206825000Y-147375000I125000J0D01*
G01*
G37*
G36*
G01*
X204950000Y-146500000D02*
X206200000Y-146500000D01*
G75*
G02*
X206325000Y-146625000I0J-125000D01*
G01*
X206325000Y-146875000D01*
G75*
G02*
X206200000Y-147000000I-125000J0D01*
G01*
X204950000Y-147000000D01*
G75*
G02*
X204825000Y-146875000I0J125000D01*
G01*
X204825000Y-146625000D01*
G75*
G02*
X204950000Y-146500000I125000J0D01*
G01*
G37*
G36*
G01*
X204950000Y-145700000D02*
X206200000Y-145700000D01*
G75*
G02*
X206325000Y-145825000I0J-125000D01*
G01*
X206325000Y-146075000D01*
G75*
G02*
X206200000Y-146200000I-125000J0D01*
G01*
X204950000Y-146200000D01*
G75*
G02*
X204825000Y-146075000I0J125000D01*
G01*
X204825000Y-145825000D01*
G75*
G02*
X204950000Y-145700000I125000J0D01*
G01*
G37*
G36*
G01*
X204950000Y-144900000D02*
X206200000Y-144900000D01*
G75*
G02*
X206325000Y-145025000I0J-125000D01*
G01*
X206325000Y-145275000D01*
G75*
G02*
X206200000Y-145400000I-125000J0D01*
G01*
X204950000Y-145400000D01*
G75*
G02*
X204825000Y-145275000I0J125000D01*
G01*
X204825000Y-145025000D01*
G75*
G02*
X204950000Y-144900000I125000J0D01*
G01*
G37*
G36*
G01*
X204950000Y-144100000D02*
X206200000Y-144100000D01*
G75*
G02*
X206325000Y-144225000I0J-125000D01*
G01*
X206325000Y-144475000D01*
G75*
G02*
X206200000Y-144600000I-125000J0D01*
G01*
X204950000Y-144600000D01*
G75*
G02*
X204825000Y-144475000I0J125000D01*
G01*
X204825000Y-144225000D01*
G75*
G02*
X204950000Y-144100000I125000J0D01*
G01*
G37*
G36*
G01*
X204950000Y-143300000D02*
X206200000Y-143300000D01*
G75*
G02*
X206325000Y-143425000I0J-125000D01*
G01*
X206325000Y-143675000D01*
G75*
G02*
X206200000Y-143800000I-125000J0D01*
G01*
X204950000Y-143800000D01*
G75*
G02*
X204825000Y-143675000I0J125000D01*
G01*
X204825000Y-143425000D01*
G75*
G02*
X204950000Y-143300000I125000J0D01*
G01*
G37*
G36*
G01*
X204950000Y-142500000D02*
X206200000Y-142500000D01*
G75*
G02*
X206325000Y-142625000I0J-125000D01*
G01*
X206325000Y-142875000D01*
G75*
G02*
X206200000Y-143000000I-125000J0D01*
G01*
X204950000Y-143000000D01*
G75*
G02*
X204825000Y-142875000I0J125000D01*
G01*
X204825000Y-142625000D01*
G75*
G02*
X204950000Y-142500000I125000J0D01*
G01*
G37*
G36*
G01*
X204950000Y-141700000D02*
X206200000Y-141700000D01*
G75*
G02*
X206325000Y-141825000I0J-125000D01*
G01*
X206325000Y-142075000D01*
G75*
G02*
X206200000Y-142200000I-125000J0D01*
G01*
X204950000Y-142200000D01*
G75*
G02*
X204825000Y-142075000I0J125000D01*
G01*
X204825000Y-141825000D01*
G75*
G02*
X204950000Y-141700000I125000J0D01*
G01*
G37*
G36*
G01*
X204950000Y-140900000D02*
X206200000Y-140900000D01*
G75*
G02*
X206325000Y-141025000I0J-125000D01*
G01*
X206325000Y-141275000D01*
G75*
G02*
X206200000Y-141400000I-125000J0D01*
G01*
X204950000Y-141400000D01*
G75*
G02*
X204825000Y-141275000I0J125000D01*
G01*
X204825000Y-141025000D01*
G75*
G02*
X204950000Y-140900000I125000J0D01*
G01*
G37*
G36*
G01*
X206825000Y-139025000D02*
X207075000Y-139025000D01*
G75*
G02*
X207200000Y-139150000I0J-125000D01*
G01*
X207200000Y-140400000D01*
G75*
G02*
X207075000Y-140525000I-125000J0D01*
G01*
X206825000Y-140525000D01*
G75*
G02*
X206700000Y-140400000I0J125000D01*
G01*
X206700000Y-139150000D01*
G75*
G02*
X206825000Y-139025000I125000J0D01*
G01*
G37*
G36*
G01*
X207625000Y-139025000D02*
X207875000Y-139025000D01*
G75*
G02*
X208000000Y-139150000I0J-125000D01*
G01*
X208000000Y-140400000D01*
G75*
G02*
X207875000Y-140525000I-125000J0D01*
G01*
X207625000Y-140525000D01*
G75*
G02*
X207500000Y-140400000I0J125000D01*
G01*
X207500000Y-139150000D01*
G75*
G02*
X207625000Y-139025000I125000J0D01*
G01*
G37*
G36*
G01*
X208425000Y-139025000D02*
X208675000Y-139025000D01*
G75*
G02*
X208800000Y-139150000I0J-125000D01*
G01*
X208800000Y-140400000D01*
G75*
G02*
X208675000Y-140525000I-125000J0D01*
G01*
X208425000Y-140525000D01*
G75*
G02*
X208300000Y-140400000I0J125000D01*
G01*
X208300000Y-139150000D01*
G75*
G02*
X208425000Y-139025000I125000J0D01*
G01*
G37*
G36*
G01*
X209225000Y-139025000D02*
X209475000Y-139025000D01*
G75*
G02*
X209600000Y-139150000I0J-125000D01*
G01*
X209600000Y-140400000D01*
G75*
G02*
X209475000Y-140525000I-125000J0D01*
G01*
X209225000Y-140525000D01*
G75*
G02*
X209100000Y-140400000I0J125000D01*
G01*
X209100000Y-139150000D01*
G75*
G02*
X209225000Y-139025000I125000J0D01*
G01*
G37*
G36*
G01*
X210025000Y-139025000D02*
X210275000Y-139025000D01*
G75*
G02*
X210400000Y-139150000I0J-125000D01*
G01*
X210400000Y-140400000D01*
G75*
G02*
X210275000Y-140525000I-125000J0D01*
G01*
X210025000Y-140525000D01*
G75*
G02*
X209900000Y-140400000I0J125000D01*
G01*
X209900000Y-139150000D01*
G75*
G02*
X210025000Y-139025000I125000J0D01*
G01*
G37*
G36*
G01*
X210825000Y-139025000D02*
X211075000Y-139025000D01*
G75*
G02*
X211200000Y-139150000I0J-125000D01*
G01*
X211200000Y-140400000D01*
G75*
G02*
X211075000Y-140525000I-125000J0D01*
G01*
X210825000Y-140525000D01*
G75*
G02*
X210700000Y-140400000I0J125000D01*
G01*
X210700000Y-139150000D01*
G75*
G02*
X210825000Y-139025000I125000J0D01*
G01*
G37*
G36*
G01*
X211625000Y-139025000D02*
X211875000Y-139025000D01*
G75*
G02*
X212000000Y-139150000I0J-125000D01*
G01*
X212000000Y-140400000D01*
G75*
G02*
X211875000Y-140525000I-125000J0D01*
G01*
X211625000Y-140525000D01*
G75*
G02*
X211500000Y-140400000I0J125000D01*
G01*
X211500000Y-139150000D01*
G75*
G02*
X211625000Y-139025000I125000J0D01*
G01*
G37*
G36*
G01*
X212425000Y-139025000D02*
X212675000Y-139025000D01*
G75*
G02*
X212800000Y-139150000I0J-125000D01*
G01*
X212800000Y-140400000D01*
G75*
G02*
X212675000Y-140525000I-125000J0D01*
G01*
X212425000Y-140525000D01*
G75*
G02*
X212300000Y-140400000I0J125000D01*
G01*
X212300000Y-139150000D01*
G75*
G02*
X212425000Y-139025000I125000J0D01*
G01*
G37*
D11*
X210400000Y-151450000D03*
X214700000Y-151450000D03*
M02*
