G04 #@! TF.GenerationSoftware,KiCad,Pcbnew,5.1.6-c6e7f7d~86~ubuntu18.04.1*
G04 #@! TF.CreationDate,2020-05-23T21:04:01+02:00*
G04 #@! TF.ProjectId,sci2can,73636932-6361-46e2-9e6b-696361645f70,1.00*
G04 #@! TF.SameCoordinates,Original*
G04 #@! TF.FileFunction,Copper,L1,Top*
G04 #@! TF.FilePolarity,Positive*
%FSLAX46Y46*%
G04 Gerber Fmt 4.6, Leading zero omitted, Abs format (unit mm)*
G04 Created by KiCad (PCBNEW 5.1.6-c6e7f7d~86~ubuntu18.04.1) date 2020-05-23 21:04:01*
%MOMM*%
%LPD*%
G01*
G04 APERTURE LIST*
G04 #@! TA.AperFunction,ComponentPad*
%ADD10C,1.500000*%
G04 #@! TD*
G04 #@! TA.AperFunction,SMDPad,CuDef*
%ADD11R,0.800000X0.900000*%
G04 #@! TD*
G04 #@! TA.AperFunction,ComponentPad*
%ADD12C,2.600000*%
G04 #@! TD*
G04 #@! TA.AperFunction,ComponentPad*
%ADD13R,2.600000X2.600000*%
G04 #@! TD*
G04 #@! TA.AperFunction,ComponentPad*
%ADD14O,1.700000X1.700000*%
G04 #@! TD*
G04 #@! TA.AperFunction,ComponentPad*
%ADD15R,1.700000X1.700000*%
G04 #@! TD*
G04 #@! TA.AperFunction,ComponentPad*
%ADD16O,1.905000X2.000000*%
G04 #@! TD*
G04 #@! TA.AperFunction,ComponentPad*
%ADD17R,1.905000X2.000000*%
G04 #@! TD*
G04 #@! TA.AperFunction,SMDPad,CuDef*
%ADD18R,2.500000X2.300000*%
G04 #@! TD*
G04 #@! TA.AperFunction,ViaPad*
%ADD19C,0.800000*%
G04 #@! TD*
G04 #@! TA.AperFunction,Conductor*
%ADD20C,0.250000*%
G04 #@! TD*
G04 #@! TA.AperFunction,Conductor*
%ADD21C,0.400000*%
G04 #@! TD*
G04 #@! TA.AperFunction,Conductor*
%ADD22C,0.500000*%
G04 #@! TD*
G04 #@! TA.AperFunction,Conductor*
%ADD23C,1.500000*%
G04 #@! TD*
G04 #@! TA.AperFunction,Conductor*
%ADD24C,1.000000*%
G04 #@! TD*
G04 APERTURE END LIST*
D10*
X207420000Y-135450000D03*
X212300000Y-135450000D03*
G04 #@! TA.AperFunction,SMDPad,CuDef*
G36*
G01*
X207112500Y-152150000D02*
X207587500Y-152150000D01*
G75*
G02*
X207825000Y-152387500I0J-237500D01*
G01*
X207825000Y-152962500D01*
G75*
G02*
X207587500Y-153200000I-237500J0D01*
G01*
X207112500Y-153200000D01*
G75*
G02*
X206875000Y-152962500I0J237500D01*
G01*
X206875000Y-152387500D01*
G75*
G02*
X207112500Y-152150000I237500J0D01*
G01*
G37*
G04 #@! TD.AperFunction*
G04 #@! TA.AperFunction,SMDPad,CuDef*
G36*
G01*
X207112500Y-150400000D02*
X207587500Y-150400000D01*
G75*
G02*
X207825000Y-150637500I0J-237500D01*
G01*
X207825000Y-151212500D01*
G75*
G02*
X207587500Y-151450000I-237500J0D01*
G01*
X207112500Y-151450000D01*
G75*
G02*
X206875000Y-151212500I0J237500D01*
G01*
X206875000Y-150637500D01*
G75*
G02*
X207112500Y-150400000I237500J0D01*
G01*
G37*
G04 #@! TD.AperFunction*
D11*
X204000000Y-152800000D03*
X203050000Y-150800000D03*
X204950000Y-150800000D03*
D12*
X224200000Y-159650000D03*
X219200000Y-159650000D03*
X214200000Y-159650000D03*
X209200000Y-159650000D03*
X204200000Y-159650000D03*
D13*
X199200000Y-159650000D03*
G04 #@! TA.AperFunction,SMDPad,CuDef*
G36*
G01*
X201905000Y-147050000D02*
X202205000Y-147050000D01*
G75*
G02*
X202355000Y-147200000I0J-150000D01*
G01*
X202355000Y-148850000D01*
G75*
G02*
X202205000Y-149000000I-150000J0D01*
G01*
X201905000Y-149000000D01*
G75*
G02*
X201755000Y-148850000I0J150000D01*
G01*
X201755000Y-147200000D01*
G75*
G02*
X201905000Y-147050000I150000J0D01*
G01*
G37*
G04 #@! TD.AperFunction*
G04 #@! TA.AperFunction,SMDPad,CuDef*
G36*
G01*
X200635000Y-147050000D02*
X200935000Y-147050000D01*
G75*
G02*
X201085000Y-147200000I0J-150000D01*
G01*
X201085000Y-148850000D01*
G75*
G02*
X200935000Y-149000000I-150000J0D01*
G01*
X200635000Y-149000000D01*
G75*
G02*
X200485000Y-148850000I0J150000D01*
G01*
X200485000Y-147200000D01*
G75*
G02*
X200635000Y-147050000I150000J0D01*
G01*
G37*
G04 #@! TD.AperFunction*
G04 #@! TA.AperFunction,SMDPad,CuDef*
G36*
G01*
X199365000Y-147050000D02*
X199665000Y-147050000D01*
G75*
G02*
X199815000Y-147200000I0J-150000D01*
G01*
X199815000Y-148850000D01*
G75*
G02*
X199665000Y-149000000I-150000J0D01*
G01*
X199365000Y-149000000D01*
G75*
G02*
X199215000Y-148850000I0J150000D01*
G01*
X199215000Y-147200000D01*
G75*
G02*
X199365000Y-147050000I150000J0D01*
G01*
G37*
G04 #@! TD.AperFunction*
G04 #@! TA.AperFunction,SMDPad,CuDef*
G36*
G01*
X198095000Y-147050000D02*
X198395000Y-147050000D01*
G75*
G02*
X198545000Y-147200000I0J-150000D01*
G01*
X198545000Y-148850000D01*
G75*
G02*
X198395000Y-149000000I-150000J0D01*
G01*
X198095000Y-149000000D01*
G75*
G02*
X197945000Y-148850000I0J150000D01*
G01*
X197945000Y-147200000D01*
G75*
G02*
X198095000Y-147050000I150000J0D01*
G01*
G37*
G04 #@! TD.AperFunction*
G04 #@! TA.AperFunction,SMDPad,CuDef*
G36*
G01*
X198095000Y-142100000D02*
X198395000Y-142100000D01*
G75*
G02*
X198545000Y-142250000I0J-150000D01*
G01*
X198545000Y-143900000D01*
G75*
G02*
X198395000Y-144050000I-150000J0D01*
G01*
X198095000Y-144050000D01*
G75*
G02*
X197945000Y-143900000I0J150000D01*
G01*
X197945000Y-142250000D01*
G75*
G02*
X198095000Y-142100000I150000J0D01*
G01*
G37*
G04 #@! TD.AperFunction*
G04 #@! TA.AperFunction,SMDPad,CuDef*
G36*
G01*
X199365000Y-142100000D02*
X199665000Y-142100000D01*
G75*
G02*
X199815000Y-142250000I0J-150000D01*
G01*
X199815000Y-143900000D01*
G75*
G02*
X199665000Y-144050000I-150000J0D01*
G01*
X199365000Y-144050000D01*
G75*
G02*
X199215000Y-143900000I0J150000D01*
G01*
X199215000Y-142250000D01*
G75*
G02*
X199365000Y-142100000I150000J0D01*
G01*
G37*
G04 #@! TD.AperFunction*
G04 #@! TA.AperFunction,SMDPad,CuDef*
G36*
G01*
X200635000Y-142100000D02*
X200935000Y-142100000D01*
G75*
G02*
X201085000Y-142250000I0J-150000D01*
G01*
X201085000Y-143900000D01*
G75*
G02*
X200935000Y-144050000I-150000J0D01*
G01*
X200635000Y-144050000D01*
G75*
G02*
X200485000Y-143900000I0J150000D01*
G01*
X200485000Y-142250000D01*
G75*
G02*
X200635000Y-142100000I150000J0D01*
G01*
G37*
G04 #@! TD.AperFunction*
G04 #@! TA.AperFunction,SMDPad,CuDef*
G36*
G01*
X201905000Y-142100000D02*
X202205000Y-142100000D01*
G75*
G02*
X202355000Y-142250000I0J-150000D01*
G01*
X202355000Y-143900000D01*
G75*
G02*
X202205000Y-144050000I-150000J0D01*
G01*
X201905000Y-144050000D01*
G75*
G02*
X201755000Y-143900000I0J150000D01*
G01*
X201755000Y-142250000D01*
G75*
G02*
X201905000Y-142100000I150000J0D01*
G01*
G37*
G04 #@! TD.AperFunction*
D14*
X201040000Y-139680000D03*
X198500000Y-139680000D03*
X201040000Y-137140000D03*
X198500000Y-137140000D03*
X201040000Y-134600000D03*
D15*
X198500000Y-134600000D03*
D16*
X224430000Y-152450000D03*
X221890000Y-152450000D03*
D17*
X219350000Y-152450000D03*
G04 #@! TA.AperFunction,SMDPad,CuDef*
G36*
G01*
X213300000Y-140900000D02*
X214550000Y-140900000D01*
G75*
G02*
X214675000Y-141025000I0J-125000D01*
G01*
X214675000Y-141275000D01*
G75*
G02*
X214550000Y-141400000I-125000J0D01*
G01*
X213300000Y-141400000D01*
G75*
G02*
X213175000Y-141275000I0J125000D01*
G01*
X213175000Y-141025000D01*
G75*
G02*
X213300000Y-140900000I125000J0D01*
G01*
G37*
G04 #@! TD.AperFunction*
G04 #@! TA.AperFunction,SMDPad,CuDef*
G36*
G01*
X213300000Y-141700000D02*
X214550000Y-141700000D01*
G75*
G02*
X214675000Y-141825000I0J-125000D01*
G01*
X214675000Y-142075000D01*
G75*
G02*
X214550000Y-142200000I-125000J0D01*
G01*
X213300000Y-142200000D01*
G75*
G02*
X213175000Y-142075000I0J125000D01*
G01*
X213175000Y-141825000D01*
G75*
G02*
X213300000Y-141700000I125000J0D01*
G01*
G37*
G04 #@! TD.AperFunction*
G04 #@! TA.AperFunction,SMDPad,CuDef*
G36*
G01*
X213300000Y-142500000D02*
X214550000Y-142500000D01*
G75*
G02*
X214675000Y-142625000I0J-125000D01*
G01*
X214675000Y-142875000D01*
G75*
G02*
X214550000Y-143000000I-125000J0D01*
G01*
X213300000Y-143000000D01*
G75*
G02*
X213175000Y-142875000I0J125000D01*
G01*
X213175000Y-142625000D01*
G75*
G02*
X213300000Y-142500000I125000J0D01*
G01*
G37*
G04 #@! TD.AperFunction*
G04 #@! TA.AperFunction,SMDPad,CuDef*
G36*
G01*
X213300000Y-143300000D02*
X214550000Y-143300000D01*
G75*
G02*
X214675000Y-143425000I0J-125000D01*
G01*
X214675000Y-143675000D01*
G75*
G02*
X214550000Y-143800000I-125000J0D01*
G01*
X213300000Y-143800000D01*
G75*
G02*
X213175000Y-143675000I0J125000D01*
G01*
X213175000Y-143425000D01*
G75*
G02*
X213300000Y-143300000I125000J0D01*
G01*
G37*
G04 #@! TD.AperFunction*
G04 #@! TA.AperFunction,SMDPad,CuDef*
G36*
G01*
X213300000Y-144100000D02*
X214550000Y-144100000D01*
G75*
G02*
X214675000Y-144225000I0J-125000D01*
G01*
X214675000Y-144475000D01*
G75*
G02*
X214550000Y-144600000I-125000J0D01*
G01*
X213300000Y-144600000D01*
G75*
G02*
X213175000Y-144475000I0J125000D01*
G01*
X213175000Y-144225000D01*
G75*
G02*
X213300000Y-144100000I125000J0D01*
G01*
G37*
G04 #@! TD.AperFunction*
G04 #@! TA.AperFunction,SMDPad,CuDef*
G36*
G01*
X213300000Y-144900000D02*
X214550000Y-144900000D01*
G75*
G02*
X214675000Y-145025000I0J-125000D01*
G01*
X214675000Y-145275000D01*
G75*
G02*
X214550000Y-145400000I-125000J0D01*
G01*
X213300000Y-145400000D01*
G75*
G02*
X213175000Y-145275000I0J125000D01*
G01*
X213175000Y-145025000D01*
G75*
G02*
X213300000Y-144900000I125000J0D01*
G01*
G37*
G04 #@! TD.AperFunction*
G04 #@! TA.AperFunction,SMDPad,CuDef*
G36*
G01*
X213300000Y-145700000D02*
X214550000Y-145700000D01*
G75*
G02*
X214675000Y-145825000I0J-125000D01*
G01*
X214675000Y-146075000D01*
G75*
G02*
X214550000Y-146200000I-125000J0D01*
G01*
X213300000Y-146200000D01*
G75*
G02*
X213175000Y-146075000I0J125000D01*
G01*
X213175000Y-145825000D01*
G75*
G02*
X213300000Y-145700000I125000J0D01*
G01*
G37*
G04 #@! TD.AperFunction*
G04 #@! TA.AperFunction,SMDPad,CuDef*
G36*
G01*
X213300000Y-146500000D02*
X214550000Y-146500000D01*
G75*
G02*
X214675000Y-146625000I0J-125000D01*
G01*
X214675000Y-146875000D01*
G75*
G02*
X214550000Y-147000000I-125000J0D01*
G01*
X213300000Y-147000000D01*
G75*
G02*
X213175000Y-146875000I0J125000D01*
G01*
X213175000Y-146625000D01*
G75*
G02*
X213300000Y-146500000I125000J0D01*
G01*
G37*
G04 #@! TD.AperFunction*
G04 #@! TA.AperFunction,SMDPad,CuDef*
G36*
G01*
X212425000Y-147375000D02*
X212675000Y-147375000D01*
G75*
G02*
X212800000Y-147500000I0J-125000D01*
G01*
X212800000Y-148750000D01*
G75*
G02*
X212675000Y-148875000I-125000J0D01*
G01*
X212425000Y-148875000D01*
G75*
G02*
X212300000Y-148750000I0J125000D01*
G01*
X212300000Y-147500000D01*
G75*
G02*
X212425000Y-147375000I125000J0D01*
G01*
G37*
G04 #@! TD.AperFunction*
G04 #@! TA.AperFunction,SMDPad,CuDef*
G36*
G01*
X211625000Y-147375000D02*
X211875000Y-147375000D01*
G75*
G02*
X212000000Y-147500000I0J-125000D01*
G01*
X212000000Y-148750000D01*
G75*
G02*
X211875000Y-148875000I-125000J0D01*
G01*
X211625000Y-148875000D01*
G75*
G02*
X211500000Y-148750000I0J125000D01*
G01*
X211500000Y-147500000D01*
G75*
G02*
X211625000Y-147375000I125000J0D01*
G01*
G37*
G04 #@! TD.AperFunction*
G04 #@! TA.AperFunction,SMDPad,CuDef*
G36*
G01*
X210825000Y-147375000D02*
X211075000Y-147375000D01*
G75*
G02*
X211200000Y-147500000I0J-125000D01*
G01*
X211200000Y-148750000D01*
G75*
G02*
X211075000Y-148875000I-125000J0D01*
G01*
X210825000Y-148875000D01*
G75*
G02*
X210700000Y-148750000I0J125000D01*
G01*
X210700000Y-147500000D01*
G75*
G02*
X210825000Y-147375000I125000J0D01*
G01*
G37*
G04 #@! TD.AperFunction*
G04 #@! TA.AperFunction,SMDPad,CuDef*
G36*
G01*
X210025000Y-147375000D02*
X210275000Y-147375000D01*
G75*
G02*
X210400000Y-147500000I0J-125000D01*
G01*
X210400000Y-148750000D01*
G75*
G02*
X210275000Y-148875000I-125000J0D01*
G01*
X210025000Y-148875000D01*
G75*
G02*
X209900000Y-148750000I0J125000D01*
G01*
X209900000Y-147500000D01*
G75*
G02*
X210025000Y-147375000I125000J0D01*
G01*
G37*
G04 #@! TD.AperFunction*
G04 #@! TA.AperFunction,SMDPad,CuDef*
G36*
G01*
X209225000Y-147375000D02*
X209475000Y-147375000D01*
G75*
G02*
X209600000Y-147500000I0J-125000D01*
G01*
X209600000Y-148750000D01*
G75*
G02*
X209475000Y-148875000I-125000J0D01*
G01*
X209225000Y-148875000D01*
G75*
G02*
X209100000Y-148750000I0J125000D01*
G01*
X209100000Y-147500000D01*
G75*
G02*
X209225000Y-147375000I125000J0D01*
G01*
G37*
G04 #@! TD.AperFunction*
G04 #@! TA.AperFunction,SMDPad,CuDef*
G36*
G01*
X208425000Y-147375000D02*
X208675000Y-147375000D01*
G75*
G02*
X208800000Y-147500000I0J-125000D01*
G01*
X208800000Y-148750000D01*
G75*
G02*
X208675000Y-148875000I-125000J0D01*
G01*
X208425000Y-148875000D01*
G75*
G02*
X208300000Y-148750000I0J125000D01*
G01*
X208300000Y-147500000D01*
G75*
G02*
X208425000Y-147375000I125000J0D01*
G01*
G37*
G04 #@! TD.AperFunction*
G04 #@! TA.AperFunction,SMDPad,CuDef*
G36*
G01*
X207625000Y-147375000D02*
X207875000Y-147375000D01*
G75*
G02*
X208000000Y-147500000I0J-125000D01*
G01*
X208000000Y-148750000D01*
G75*
G02*
X207875000Y-148875000I-125000J0D01*
G01*
X207625000Y-148875000D01*
G75*
G02*
X207500000Y-148750000I0J125000D01*
G01*
X207500000Y-147500000D01*
G75*
G02*
X207625000Y-147375000I125000J0D01*
G01*
G37*
G04 #@! TD.AperFunction*
G04 #@! TA.AperFunction,SMDPad,CuDef*
G36*
G01*
X206825000Y-147375000D02*
X207075000Y-147375000D01*
G75*
G02*
X207200000Y-147500000I0J-125000D01*
G01*
X207200000Y-148750000D01*
G75*
G02*
X207075000Y-148875000I-125000J0D01*
G01*
X206825000Y-148875000D01*
G75*
G02*
X206700000Y-148750000I0J125000D01*
G01*
X206700000Y-147500000D01*
G75*
G02*
X206825000Y-147375000I125000J0D01*
G01*
G37*
G04 #@! TD.AperFunction*
G04 #@! TA.AperFunction,SMDPad,CuDef*
G36*
G01*
X204950000Y-146500000D02*
X206200000Y-146500000D01*
G75*
G02*
X206325000Y-146625000I0J-125000D01*
G01*
X206325000Y-146875000D01*
G75*
G02*
X206200000Y-147000000I-125000J0D01*
G01*
X204950000Y-147000000D01*
G75*
G02*
X204825000Y-146875000I0J125000D01*
G01*
X204825000Y-146625000D01*
G75*
G02*
X204950000Y-146500000I125000J0D01*
G01*
G37*
G04 #@! TD.AperFunction*
G04 #@! TA.AperFunction,SMDPad,CuDef*
G36*
G01*
X204950000Y-145700000D02*
X206200000Y-145700000D01*
G75*
G02*
X206325000Y-145825000I0J-125000D01*
G01*
X206325000Y-146075000D01*
G75*
G02*
X206200000Y-146200000I-125000J0D01*
G01*
X204950000Y-146200000D01*
G75*
G02*
X204825000Y-146075000I0J125000D01*
G01*
X204825000Y-145825000D01*
G75*
G02*
X204950000Y-145700000I125000J0D01*
G01*
G37*
G04 #@! TD.AperFunction*
G04 #@! TA.AperFunction,SMDPad,CuDef*
G36*
G01*
X204950000Y-144900000D02*
X206200000Y-144900000D01*
G75*
G02*
X206325000Y-145025000I0J-125000D01*
G01*
X206325000Y-145275000D01*
G75*
G02*
X206200000Y-145400000I-125000J0D01*
G01*
X204950000Y-145400000D01*
G75*
G02*
X204825000Y-145275000I0J125000D01*
G01*
X204825000Y-145025000D01*
G75*
G02*
X204950000Y-144900000I125000J0D01*
G01*
G37*
G04 #@! TD.AperFunction*
G04 #@! TA.AperFunction,SMDPad,CuDef*
G36*
G01*
X204950000Y-144100000D02*
X206200000Y-144100000D01*
G75*
G02*
X206325000Y-144225000I0J-125000D01*
G01*
X206325000Y-144475000D01*
G75*
G02*
X206200000Y-144600000I-125000J0D01*
G01*
X204950000Y-144600000D01*
G75*
G02*
X204825000Y-144475000I0J125000D01*
G01*
X204825000Y-144225000D01*
G75*
G02*
X204950000Y-144100000I125000J0D01*
G01*
G37*
G04 #@! TD.AperFunction*
G04 #@! TA.AperFunction,SMDPad,CuDef*
G36*
G01*
X204950000Y-143300000D02*
X206200000Y-143300000D01*
G75*
G02*
X206325000Y-143425000I0J-125000D01*
G01*
X206325000Y-143675000D01*
G75*
G02*
X206200000Y-143800000I-125000J0D01*
G01*
X204950000Y-143800000D01*
G75*
G02*
X204825000Y-143675000I0J125000D01*
G01*
X204825000Y-143425000D01*
G75*
G02*
X204950000Y-143300000I125000J0D01*
G01*
G37*
G04 #@! TD.AperFunction*
G04 #@! TA.AperFunction,SMDPad,CuDef*
G36*
G01*
X204950000Y-142500000D02*
X206200000Y-142500000D01*
G75*
G02*
X206325000Y-142625000I0J-125000D01*
G01*
X206325000Y-142875000D01*
G75*
G02*
X206200000Y-143000000I-125000J0D01*
G01*
X204950000Y-143000000D01*
G75*
G02*
X204825000Y-142875000I0J125000D01*
G01*
X204825000Y-142625000D01*
G75*
G02*
X204950000Y-142500000I125000J0D01*
G01*
G37*
G04 #@! TD.AperFunction*
G04 #@! TA.AperFunction,SMDPad,CuDef*
G36*
G01*
X204950000Y-141700000D02*
X206200000Y-141700000D01*
G75*
G02*
X206325000Y-141825000I0J-125000D01*
G01*
X206325000Y-142075000D01*
G75*
G02*
X206200000Y-142200000I-125000J0D01*
G01*
X204950000Y-142200000D01*
G75*
G02*
X204825000Y-142075000I0J125000D01*
G01*
X204825000Y-141825000D01*
G75*
G02*
X204950000Y-141700000I125000J0D01*
G01*
G37*
G04 #@! TD.AperFunction*
G04 #@! TA.AperFunction,SMDPad,CuDef*
G36*
G01*
X204950000Y-140900000D02*
X206200000Y-140900000D01*
G75*
G02*
X206325000Y-141025000I0J-125000D01*
G01*
X206325000Y-141275000D01*
G75*
G02*
X206200000Y-141400000I-125000J0D01*
G01*
X204950000Y-141400000D01*
G75*
G02*
X204825000Y-141275000I0J125000D01*
G01*
X204825000Y-141025000D01*
G75*
G02*
X204950000Y-140900000I125000J0D01*
G01*
G37*
G04 #@! TD.AperFunction*
G04 #@! TA.AperFunction,SMDPad,CuDef*
G36*
G01*
X206825000Y-139025000D02*
X207075000Y-139025000D01*
G75*
G02*
X207200000Y-139150000I0J-125000D01*
G01*
X207200000Y-140400000D01*
G75*
G02*
X207075000Y-140525000I-125000J0D01*
G01*
X206825000Y-140525000D01*
G75*
G02*
X206700000Y-140400000I0J125000D01*
G01*
X206700000Y-139150000D01*
G75*
G02*
X206825000Y-139025000I125000J0D01*
G01*
G37*
G04 #@! TD.AperFunction*
G04 #@! TA.AperFunction,SMDPad,CuDef*
G36*
G01*
X207625000Y-139025000D02*
X207875000Y-139025000D01*
G75*
G02*
X208000000Y-139150000I0J-125000D01*
G01*
X208000000Y-140400000D01*
G75*
G02*
X207875000Y-140525000I-125000J0D01*
G01*
X207625000Y-140525000D01*
G75*
G02*
X207500000Y-140400000I0J125000D01*
G01*
X207500000Y-139150000D01*
G75*
G02*
X207625000Y-139025000I125000J0D01*
G01*
G37*
G04 #@! TD.AperFunction*
G04 #@! TA.AperFunction,SMDPad,CuDef*
G36*
G01*
X208425000Y-139025000D02*
X208675000Y-139025000D01*
G75*
G02*
X208800000Y-139150000I0J-125000D01*
G01*
X208800000Y-140400000D01*
G75*
G02*
X208675000Y-140525000I-125000J0D01*
G01*
X208425000Y-140525000D01*
G75*
G02*
X208300000Y-140400000I0J125000D01*
G01*
X208300000Y-139150000D01*
G75*
G02*
X208425000Y-139025000I125000J0D01*
G01*
G37*
G04 #@! TD.AperFunction*
G04 #@! TA.AperFunction,SMDPad,CuDef*
G36*
G01*
X209225000Y-139025000D02*
X209475000Y-139025000D01*
G75*
G02*
X209600000Y-139150000I0J-125000D01*
G01*
X209600000Y-140400000D01*
G75*
G02*
X209475000Y-140525000I-125000J0D01*
G01*
X209225000Y-140525000D01*
G75*
G02*
X209100000Y-140400000I0J125000D01*
G01*
X209100000Y-139150000D01*
G75*
G02*
X209225000Y-139025000I125000J0D01*
G01*
G37*
G04 #@! TD.AperFunction*
G04 #@! TA.AperFunction,SMDPad,CuDef*
G36*
G01*
X210025000Y-139025000D02*
X210275000Y-139025000D01*
G75*
G02*
X210400000Y-139150000I0J-125000D01*
G01*
X210400000Y-140400000D01*
G75*
G02*
X210275000Y-140525000I-125000J0D01*
G01*
X210025000Y-140525000D01*
G75*
G02*
X209900000Y-140400000I0J125000D01*
G01*
X209900000Y-139150000D01*
G75*
G02*
X210025000Y-139025000I125000J0D01*
G01*
G37*
G04 #@! TD.AperFunction*
G04 #@! TA.AperFunction,SMDPad,CuDef*
G36*
G01*
X210825000Y-139025000D02*
X211075000Y-139025000D01*
G75*
G02*
X211200000Y-139150000I0J-125000D01*
G01*
X211200000Y-140400000D01*
G75*
G02*
X211075000Y-140525000I-125000J0D01*
G01*
X210825000Y-140525000D01*
G75*
G02*
X210700000Y-140400000I0J125000D01*
G01*
X210700000Y-139150000D01*
G75*
G02*
X210825000Y-139025000I125000J0D01*
G01*
G37*
G04 #@! TD.AperFunction*
G04 #@! TA.AperFunction,SMDPad,CuDef*
G36*
G01*
X211625000Y-139025000D02*
X211875000Y-139025000D01*
G75*
G02*
X212000000Y-139150000I0J-125000D01*
G01*
X212000000Y-140400000D01*
G75*
G02*
X211875000Y-140525000I-125000J0D01*
G01*
X211625000Y-140525000D01*
G75*
G02*
X211500000Y-140400000I0J125000D01*
G01*
X211500000Y-139150000D01*
G75*
G02*
X211625000Y-139025000I125000J0D01*
G01*
G37*
G04 #@! TD.AperFunction*
G04 #@! TA.AperFunction,SMDPad,CuDef*
G36*
G01*
X212425000Y-139025000D02*
X212675000Y-139025000D01*
G75*
G02*
X212800000Y-139150000I0J-125000D01*
G01*
X212800000Y-140400000D01*
G75*
G02*
X212675000Y-140525000I-125000J0D01*
G01*
X212425000Y-140525000D01*
G75*
G02*
X212300000Y-140400000I0J125000D01*
G01*
X212300000Y-139150000D01*
G75*
G02*
X212425000Y-139025000I125000J0D01*
G01*
G37*
G04 #@! TD.AperFunction*
D18*
X210400000Y-151450000D03*
X214700000Y-151450000D03*
D19*
X211950000Y-144400000D03*
X200800000Y-143700000D03*
X203050000Y-150650000D03*
X211950000Y-142600000D03*
X218550000Y-142550000D03*
X207300000Y-144350000D03*
X209400000Y-142600000D03*
X220150000Y-156400000D03*
X200800000Y-145750000D03*
X216550000Y-142625000D03*
X216550000Y-144450000D03*
X211500000Y-154650000D03*
X198400000Y-145700000D03*
X209775000Y-154650000D03*
D20*
X213875000Y-144400000D02*
X213925000Y-144350000D01*
D21*
X211950000Y-144400000D02*
X213875000Y-144400000D01*
X210950000Y-143400000D02*
X211950000Y-144400000D01*
X210950000Y-139775000D02*
X210950000Y-143400000D01*
D22*
X200800000Y-143090000D02*
X200785000Y-143075000D01*
X200800000Y-143700000D02*
X200800000Y-143090000D01*
D20*
X203050000Y-150800000D02*
X203050000Y-150650000D01*
D23*
X218350000Y-151450000D02*
X219350000Y-152450000D01*
X214700000Y-151450000D02*
X218350000Y-151450000D01*
D21*
X211750000Y-142400000D02*
X211950000Y-142600000D01*
X211750000Y-139775000D02*
X211750000Y-142400000D01*
X213175000Y-143550000D02*
X213925000Y-143550000D01*
X212375000Y-143550000D02*
X213175000Y-143550000D01*
X211950000Y-143125000D02*
X212375000Y-143550000D01*
X211950000Y-142600000D02*
X211950000Y-143125000D01*
D22*
X199515000Y-141205000D02*
X199515000Y-143075000D01*
X201040000Y-139680000D02*
X199515000Y-141205000D01*
X208550000Y-137450000D02*
X208550000Y-139775000D01*
X208240000Y-137140000D02*
X201040000Y-137140000D01*
X208550000Y-137450000D02*
X208240000Y-137140000D01*
X210150000Y-139775000D02*
X210150000Y-136700000D01*
X212300000Y-135450000D02*
X211400000Y-135450000D01*
X211400000Y-135450000D02*
X210150000Y-136700000D01*
X209350000Y-139775000D02*
X209350000Y-136700000D01*
X208100000Y-135450000D02*
X207420000Y-135450000D01*
X209350000Y-136700000D02*
X208100000Y-135450000D01*
X217150000Y-141150000D02*
X213925000Y-141150000D01*
X218550000Y-142550000D02*
X217150000Y-141150000D01*
X210150000Y-148125000D02*
X210150000Y-147050000D01*
X209300000Y-146200000D02*
X210150000Y-147050000D01*
X208584315Y-146200000D02*
X209300000Y-146200000D01*
X207300000Y-144915685D02*
X208584315Y-146200000D01*
X207300000Y-144350000D02*
X207300000Y-144915685D01*
X198245000Y-144095000D02*
X198245000Y-143075000D01*
D20*
X201750000Y-144500000D02*
X202400000Y-145150000D01*
X198650000Y-144500000D02*
X201750000Y-144500000D01*
D22*
X202400000Y-145150000D02*
X205575000Y-145150000D01*
D20*
X198245000Y-144095000D02*
X198650000Y-144500000D01*
X198245000Y-143075000D02*
X196750000Y-141580000D01*
D22*
X196750000Y-138890000D02*
X198500000Y-137140000D01*
D20*
X196750000Y-141580000D02*
X196750000Y-138890000D01*
D22*
X203330000Y-144350000D02*
X202055000Y-143075000D01*
X205575000Y-144350000D02*
X203330000Y-144350000D01*
X202055000Y-143075000D02*
X202055000Y-141045000D01*
X202055000Y-141045000D02*
X202600000Y-140500000D01*
X202600000Y-140500000D02*
X202600000Y-139050000D01*
X202600000Y-139050000D02*
X201950000Y-138400000D01*
X199780000Y-138400000D02*
X198500000Y-139680000D01*
D20*
X201950000Y-138400000D02*
X199780000Y-138400000D01*
D22*
X206950000Y-140525000D02*
X206950000Y-139775000D01*
X206950000Y-140658002D02*
X206950000Y-140525000D01*
X211750000Y-148125000D02*
X211750000Y-145458002D01*
X211750000Y-145458002D02*
X208845999Y-142554001D01*
X208845999Y-142554001D02*
X206950000Y-140658002D01*
X209354001Y-142554001D02*
X208845999Y-142554001D01*
X209400000Y-142600000D02*
X209354001Y-142554001D01*
X211750000Y-149350000D02*
X212450000Y-150050000D01*
X211750000Y-148125000D02*
X211750000Y-148875000D01*
X212450000Y-153100000D02*
X213200000Y-153850000D01*
X217600000Y-153850000D02*
X220150000Y-156400000D01*
X213200000Y-153850000D02*
X217600000Y-153850000D01*
X212450000Y-150050000D02*
X212450000Y-153100000D01*
X211750000Y-149350000D02*
X211750000Y-148875000D01*
X202055000Y-147005000D02*
X202055000Y-148025000D01*
X200800000Y-145750000D02*
X202055000Y-147005000D01*
X215875000Y-141950000D02*
X216550000Y-142625000D01*
X213925000Y-141950000D02*
X215875000Y-141950000D01*
D24*
X210400000Y-151450000D02*
X210400000Y-152850000D01*
X214950000Y-155400000D02*
X219200000Y-159650000D01*
X212950000Y-155400000D02*
X214950000Y-155400000D01*
D22*
X216550000Y-144450000D02*
X216550000Y-146700000D01*
X216550000Y-146700000D02*
X220300000Y-150450000D01*
X220300000Y-150450000D02*
X225000000Y-150450000D01*
X225000000Y-150450000D02*
X226200000Y-151650000D01*
X219200000Y-159650000D02*
X224300000Y-154550000D01*
X224300000Y-154550000D02*
X225250000Y-154550000D01*
X226200000Y-153600000D02*
X226200000Y-151650000D01*
X225250000Y-154550000D02*
X226200000Y-153600000D01*
X212200000Y-154650000D02*
X212225000Y-154675000D01*
D24*
X210400000Y-152850000D02*
X212225000Y-154675000D01*
D22*
X211500000Y-154650000D02*
X212200000Y-154650000D01*
D24*
X212225000Y-154675000D02*
X212950000Y-155400000D01*
D22*
X200785000Y-156235000D02*
X200785000Y-148025000D01*
X204200000Y-159650000D02*
X200785000Y-156235000D01*
D20*
X199515000Y-159585000D02*
X199450000Y-159650000D01*
X199515000Y-159335000D02*
X199200000Y-159650000D01*
D22*
X199515000Y-148025000D02*
X199515000Y-159335000D01*
D20*
X199075001Y-145024999D02*
X201148001Y-145024999D01*
X198400000Y-145700000D02*
X199075001Y-145024999D01*
D22*
X202511501Y-146388499D02*
X204248002Y-148125000D01*
D20*
X201148001Y-145024999D02*
X202511501Y-146388499D01*
D22*
X204950000Y-150800000D02*
X204950000Y-148150000D01*
X204950000Y-148150000D02*
X206950000Y-148125000D01*
X204248002Y-148125000D02*
X204950000Y-148150000D01*
X204650000Y-152800000D02*
X204000000Y-152800000D01*
X205000000Y-152800000D02*
X204650000Y-152800000D01*
X206875000Y-150925000D02*
X205000000Y-152800000D01*
X207350000Y-150925000D02*
X206875000Y-150925000D01*
D24*
X204000000Y-154450000D02*
X209200000Y-159650000D01*
X204000000Y-152800000D02*
X204000000Y-154450000D01*
D22*
X207825000Y-152675000D02*
X207350000Y-152675000D01*
X207350000Y-152675000D02*
X207800000Y-152675000D01*
X207800000Y-152675000D02*
X209775000Y-154650000D01*
M02*
